<?xml version="1.0" encoding="UTF-8" standalone="no"?>
<!DOCTYPE svg PUBLIC "-//W3C//DTD SVG 1.1//EN"
 "http://www.w3.org/Graphics/SVG/1.1/DTD/svg11.dtd">
<!-- Generated by graphviz version 2.43.0 (0)
 -->
<!-- Title: Server/src/Network/AsioTCPServer.hpp Pages: 1 -->
<svg width="1137pt" height="319pt"
 viewBox="0.00 0.00 1136.50 319.00" xmlns="http://www.w3.org/2000/svg" xmlns:xlink="http://www.w3.org/1999/xlink">
<g id="graph0" class="graph" transform="scale(1 1) rotate(0) translate(4 315)">
<title>Server/src/Network/AsioTCPServer.hpp</title>
<polygon fill="white" stroke="transparent" points="-4,4 -4,-315 1132.5,-315 1132.5,4 -4,4"/>
<!-- Node1 -->
<g id="node1" class="node">
<title>Node1</title>
<g id="a_node1"><a xlink:title=" ">
<polygon fill="#bfbfbf" stroke="black" points="370.5,-280.5 370.5,-310.5 480.5,-310.5 480.5,-280.5 370.5,-280.5"/>
<text text-anchor="start" x="378.5" y="-298.5" font-family="Helvetica,sans-Serif" font-size="10.00">Server/src/Network</text>
<text text-anchor="middle" x="425.5" y="-287.5" font-family="Helvetica,sans-Serif" font-size="10.00">/AsioTCPServer.hpp</text>
</a>
</g>
</g>
<!-- Node2 -->
<g id="node2" class="node">
<title>Node2</title>
<g id="a_node2"><a xlink:title=" ">
<polygon fill="white" stroke="#bfbfbf" points="570.5,-168.5 570.5,-187.5 628.5,-187.5 628.5,-168.5 570.5,-168.5"/>
<text text-anchor="middle" x="599.5" y="-175.5" font-family="Helvetica,sans-Serif" font-size="10.00">memory</text>
</a>
</g>
</g>
<!-- Node1&#45;&gt;Node2 -->
<g id="edge1" class="edge">
<title>Node1&#45;&gt;Node2</title>
<path fill="none" stroke="midnightblue" d="M480.69,-289.38C513.79,-283.5 554.39,-270.92 580.5,-244 592.38,-231.75 596.9,-212.49 598.58,-198.11"/>
<polygon fill="midnightblue" stroke="midnightblue" points="602.09,-198.1 599.41,-187.85 595.12,-197.53 602.09,-198.1"/>
</g>
<!-- Node3 -->
<g id="node3" class="node">
<title>Node3</title>
<g id="a_node3"><a xlink:title=" ">
<polygon fill="white" stroke="#bfbfbf" points="0,-56.5 0,-75.5 47,-75.5 47,-56.5 0,-56.5"/>
<text text-anchor="middle" x="23.5" y="-63.5" font-family="Helvetica,sans-Serif" font-size="10.00">deque</text>
</a>
</g>
</g>
<!-- Node1&#45;&gt;Node3 -->
<g id="edge2" class="edge">
<title>Node1&#45;&gt;Node3</title>
<path fill="none" stroke="midnightblue" d="M370.22,-289.33C325.5,-283.33 262.06,-270.61 212.5,-244 134.33,-202.03 64.35,-119.57 36.4,-84"/>
<polygon fill="midnightblue" stroke="midnightblue" points="38.83,-81.41 29.94,-75.65 33.29,-85.7 38.83,-81.41"/>
</g>
<!-- Node4 -->
<g id="node4" class="node">
<title>Node4</title>
<g id="a_node4"><a xlink:title=" ">
<polygon fill="white" stroke="#bfbfbf" points="238.5,-224.5 238.5,-243.5 286.5,-243.5 286.5,-224.5 238.5,-224.5"/>
<text text-anchor="middle" x="262.5" y="-231.5" font-family="Helvetica,sans-Serif" font-size="10.00">thread</text>
</a>
</g>
</g>
<!-- Node1&#45;&gt;Node4 -->
<g id="edge3" class="edge">
<title>Node1&#45;&gt;Node4</title>
<path fill="none" stroke="midnightblue" d="M386.87,-280.4C359.16,-270.28 322.19,-256.79 295.78,-247.15"/>
<polygon fill="midnightblue" stroke="midnightblue" points="296.81,-243.8 286.22,-243.66 294.41,-250.37 296.81,-243.8"/>
</g>
<!-- Node5 -->
<g id="node5" class="node">
<title>Node5</title>
<g id="a_node5"><a xlink:title=" ">
<polygon fill="white" stroke="#bfbfbf" points="535.5,-0.5 535.5,-19.5 585.5,-19.5 585.5,-0.5 535.5,-0.5"/>
<text text-anchor="middle" x="560.5" y="-7.5" font-family="Helvetica,sans-Serif" font-size="10.00">cstdint</text>
</a>
</g>
</g>
<!-- Node1&#45;&gt;Node5 -->
<g id="edge4" class="edge">
<title>Node1&#45;&gt;Node5</title>
<path fill="none" stroke="midnightblue" d="M406.18,-280.18C383.32,-261.84 346.71,-227.64 333.5,-188 317.49,-139.96 338.85,-88.49 375.5,-56 397.46,-36.53 477.96,-22.42 525.23,-15.6"/>
<polygon fill="midnightblue" stroke="midnightblue" points="525.93,-19.04 535.35,-14.18 524.96,-12.11 525.93,-19.04"/>
</g>
<!-- Node6 -->
<g id="node6" class="node">
<title>Node6</title>
<g id="a_node6"><a xlink:title=" ">
<polygon fill="white" stroke="#bfbfbf" points="1068.5,-56.5 1068.5,-75.5 1128.5,-75.5 1128.5,-56.5 1068.5,-56.5"/>
<text text-anchor="middle" x="1098.5" y="-63.5" font-family="Helvetica,sans-Serif" font-size="10.00">iostream</text>
</a>
</g>
</g>
<!-- Node1&#45;&gt;Node6 -->
<g id="edge5" class="edge">
<title>Node1&#45;&gt;Node6</title>
<path fill="none" stroke="midnightblue" d="M480.56,-293.43C623.45,-290.18 998.07,-278.44 1041.5,-244 1090.57,-205.08 1098,-123.5 1098.72,-86.27"/>
<polygon fill="midnightblue" stroke="midnightblue" points="1102.23,-85.86 1098.77,-75.85 1095.23,-85.83 1102.23,-85.86"/>
</g>
<!-- Node7 -->
<g id="node7" class="node">
<title>Node7</title>
<g id="a_node7"><a xlink:title=" ">
<polygon fill="white" stroke="#bfbfbf" points="342.5,-168.5 342.5,-187.5 400.5,-187.5 400.5,-168.5 342.5,-168.5"/>
<text text-anchor="middle" x="371.5" y="-175.5" font-family="Helvetica,sans-Serif" font-size="10.00">asio.hpp</text>
</a>
</g>
</g>
<!-- Node1&#45;&gt;Node7 -->
<g id="edge6" class="edge">
<title>Node1&#45;&gt;Node7</title>
<path fill="none" stroke="midnightblue" d="M411.7,-280.16C403.24,-270.62 392.85,-257.42 386.5,-244 379.53,-229.28 375.69,-211.12 373.65,-197.74"/>
<polygon fill="midnightblue" stroke="midnightblue" points="377.11,-197.25 372.32,-187.8 370.18,-198.18 377.11,-197.25"/>
</g>
<!-- Node8 -->
<g id="node8" class="node">
<title>Node8</title>
<g id="a_node8"><a xlink:href="AsioTCPConnection_8hpp.html" target="_top" xlink:title=" ">
<polygon fill="white" stroke="black" points="395.5,-224.5 395.5,-243.5 571.5,-243.5 571.5,-224.5 395.5,-224.5"/>
<text text-anchor="middle" x="483.5" y="-231.5" font-family="Helvetica,sans-Serif" font-size="10.00">Network/AsioTCPConnection.hpp</text>
</a>
</g>
</g>
<!-- Node1&#45;&gt;Node8 -->
<g id="edge7" class="edge">
<title>Node1&#45;&gt;Node8</title>
<path fill="none" stroke="midnightblue" d="M439.25,-280.4C447.85,-271.58 458.95,-260.18 467.89,-251.02"/>
<polygon fill="midnightblue" stroke="midnightblue" points="470.59,-253.26 475.06,-243.66 465.57,-248.38 470.59,-253.26"/>
</g>
<!-- Node21 -->
<g id="node21" class="node">
<title>Node21</title>
<g id="a_node21"><a xlink:href="TSQueue_8hpp.html" target="_top" xlink:title=" ">
<polygon fill="white" stroke="black" points="149.5,-112.5 149.5,-131.5 271.5,-131.5 271.5,-112.5 149.5,-112.5"/>
<text text-anchor="middle" x="210.5" y="-119.5" font-family="Helvetica,sans-Serif" font-size="10.00">Utilities/TSQueue.hpp</text>
</a>
</g>
</g>
<!-- Node1&#45;&gt;Node21 -->
<g id="edge42" class="edge">
<title>Node1&#45;&gt;Node21</title>
<path fill="none" stroke="midnightblue" d="M370.49,-287.15C319.34,-279.15 248.28,-264.68 229.5,-244 203.97,-215.89 204.81,-168.12 207.66,-141.79"/>
<polygon fill="midnightblue" stroke="midnightblue" points="211.16,-142.02 208.97,-131.65 204.22,-141.12 211.16,-142.02"/>
</g>
<!-- Node25 -->
<g id="node25" class="node">
<title>Node25</title>
<g id="a_node25"><a xlink:href="ITCPServer_8hpp.html" target="_top" xlink:title=" ">
<polygon fill="white" stroke="black" points="681.5,-224.5 681.5,-243.5 815.5,-243.5 815.5,-224.5 681.5,-224.5"/>
<text text-anchor="middle" x="748.5" y="-231.5" font-family="Helvetica,sans-Serif" font-size="10.00">Network/ITCPServer.hpp</text>
</a>
</g>
</g>
<!-- Node1&#45;&gt;Node25 -->
<g id="edge34" class="edge">
<title>Node1&#45;&gt;Node25</title>
<path fill="none" stroke="midnightblue" d="M480.66,-284.34C539.68,-273.47 632.8,-256.31 692.24,-245.36"/>
<polygon fill="midnightblue" stroke="midnightblue" points="693.01,-248.78 702.21,-243.53 691.74,-241.9 693.01,-248.78"/>
</g>
<!-- Node26 -->
<g id="node26" class="node">
<title>Node26</title>
<g id="a_node26"><a xlink:href="OwnedMessage_8hpp.html" target="_top" xlink:title=" ">
<polygon fill="white" stroke="black" points="873,-224.5 873,-243.5 1032,-243.5 1032,-224.5 873,-224.5"/>
<text text-anchor="middle" x="952.5" y="-231.5" font-family="Helvetica,sans-Serif" font-size="10.00">Network/OwnedMessage.hpp</text>
</a>
</g>
</g>
<!-- Node1&#45;&gt;Node26 -->
<g id="edge43" class="edge">
<title>Node1&#45;&gt;Node26</title>
<path fill="none" stroke="midnightblue" d="M480.9,-288.24C573.03,-277.84 758.34,-256.92 867.22,-244.63"/>
<polygon fill="midnightblue" stroke="midnightblue" points="867.65,-248.1 877.19,-243.5 866.86,-241.15 867.65,-248.1"/>
</g>
<!-- Node8&#45;&gt;Node7 -->
<g id="edge9" class="edge">
<title>Node8&#45;&gt;Node7</title>
<path fill="none" stroke="midnightblue" d="M465.51,-224.32C447.46,-215.62 419.45,-202.12 398.7,-192.11"/>
<polygon fill="midnightblue" stroke="midnightblue" points="399.98,-188.84 389.45,-187.65 396.94,-195.15 399.98,-188.84"/>
</g>
<!-- Node9 -->
<g id="node9" class="node">
<title>Node9</title>
<g id="a_node9"><a xlink:title=" ">
<polygon fill="white" stroke="#bfbfbf" points="629,-112.5 629,-131.5 694,-131.5 694,-112.5 629,-112.5"/>
<text text-anchor="middle" x="661.5" y="-119.5" font-family="Helvetica,sans-Serif" font-size="10.00">functional</text>
</a>
</g>
</g>
<!-- Node8&#45;&gt;Node9 -->
<g id="edge8" class="edge">
<title>Node8&#45;&gt;Node9</title>
<path fill="none" stroke="midnightblue" d="M487.39,-224.07C493.91,-210.13 508.33,-183.2 528.5,-168 555.11,-147.95 591.23,-136.48 619.11,-130.14"/>
<polygon fill="midnightblue" stroke="midnightblue" points="619.93,-133.55 628.98,-128.04 618.47,-126.7 619.93,-133.55"/>
</g>
<!-- Node10 -->
<g id="node10" class="node">
<title>Node10</title>
<g id="a_node10"><a xlink:title=" ">
<polygon fill="white" stroke="#bfbfbf" points="541,-56.5 541,-75.5 570,-75.5 570,-56.5 541,-56.5"/>
<text text-anchor="middle" x="555.5" y="-63.5" font-family="Helvetica,sans-Serif" font-size="10.00">bit</text>
</a>
</g>
</g>
<!-- Node8&#45;&gt;Node10 -->
<g id="edge10" class="edge">
<title>Node8&#45;&gt;Node10</title>
<path fill="none" stroke="midnightblue" d="M485.81,-224.44C489.3,-211.86 496.38,-187.74 504.5,-168 516.9,-137.85 534.65,-104.34 545.61,-84.5"/>
<polygon fill="midnightblue" stroke="midnightblue" points="548.71,-86.14 550.52,-75.7 542.59,-82.73 548.71,-86.14"/>
</g>
<!-- Node11 -->
<g id="node11" class="node">
<title>Node11</title>
<g id="a_node11"><a xlink:href="SwapEndian_8hpp.html" target="_top" xlink:title=" ">
<polygon fill="white" stroke="black" points="384.5,-56.5 384.5,-75.5 522.5,-75.5 522.5,-56.5 384.5,-56.5"/>
<text text-anchor="middle" x="453.5" y="-63.5" font-family="Helvetica,sans-Serif" font-size="10.00">Utilities/SwapEndian.hpp</text>
</a>
</g>
</g>
<!-- Node8&#45;&gt;Node11 -->
<g id="edge11" class="edge">
<title>Node8&#45;&gt;Node11</title>
<path fill="none" stroke="midnightblue" d="M475.02,-224.23C467.45,-215.75 456.9,-202.13 452.5,-188 441.67,-153.19 445.98,-109.98 449.88,-85.75"/>
<polygon fill="midnightblue" stroke="midnightblue" points="453.35,-86.23 451.64,-75.77 446.46,-85.01 453.35,-86.23"/>
</g>
<!-- Node13 -->
<g id="node13" class="node">
<title>Node13</title>
<g id="a_node13"><a xlink:href="ITCPConnection_8hpp.html" target="_top" xlink:title=" ">
<polygon fill="white" stroke="black" points="722.5,-168.5 722.5,-187.5 880.5,-187.5 880.5,-168.5 722.5,-168.5"/>
<text text-anchor="middle" x="801.5" y="-175.5" font-family="Helvetica,sans-Serif" font-size="10.00">Network/ITCPConnection.hpp</text>
</a>
</g>
</g>
<!-- Node8&#45;&gt;Node13 -->
<g id="edge14" class="edge">
<title>Node8&#45;&gt;Node13</title>
<path fill="none" stroke="midnightblue" d="M533.89,-224.44C590.18,-214.89 681.25,-199.42 741.26,-189.23"/>
<polygon fill="midnightblue" stroke="midnightblue" points="742.07,-192.64 751.35,-187.52 740.9,-185.74 742.07,-192.64"/>
</g>
<!-- Node16 -->
<g id="node16" class="node">
<title>Node16</title>
<g id="a_node16"><a xlink:href="Message_8hpp.html" target="_top" xlink:title=" ">
<polygon fill="white" stroke="black" points="722,-112.5 722,-131.5 847,-131.5 847,-112.5 722,-112.5"/>
<text text-anchor="middle" x="784.5" y="-119.5" font-family="Helvetica,sans-Serif" font-size="10.00">Network/Message.hpp</text>
</a>
</g>
</g>
<!-- Node8&#45;&gt;Node16 -->
<g id="edge33" class="edge">
<title>Node8&#45;&gt;Node16</title>
<path fill="none" stroke="midnightblue" d="M491.17,-224.26C504.16,-210.06 531.93,-182.17 561.5,-168 588.28,-155.16 660.56,-141.88 715.63,-133.1"/>
<polygon fill="midnightblue" stroke="midnightblue" points="716.37,-136.53 725.7,-131.52 715.28,-129.62 716.37,-136.53"/>
</g>
<!-- Node11&#45;&gt;Node5 -->
<g id="edge13" class="edge">
<title>Node11&#45;&gt;Node5</title>
<path fill="none" stroke="midnightblue" d="M470.69,-56.32C487.85,-47.66 514.45,-34.24 534.25,-24.25"/>
<polygon fill="midnightblue" stroke="midnightblue" points="536,-27.28 543.35,-19.65 532.85,-21.04 536,-27.28"/>
</g>
<!-- Node12 -->
<g id="node12" class="node">
<title>Node12</title>
<g id="a_node12"><a xlink:title=" ">
<polygon fill="white" stroke="#bfbfbf" points="428.5,-0.5 428.5,-19.5 478.5,-19.5 478.5,-0.5 428.5,-0.5"/>
<text text-anchor="middle" x="453.5" y="-7.5" font-family="Helvetica,sans-Serif" font-size="10.00">climits</text>
</a>
</g>
</g>
<!-- Node11&#45;&gt;Node12 -->
<g id="edge12" class="edge">
<title>Node11&#45;&gt;Node12</title>
<path fill="none" stroke="midnightblue" d="M453.5,-56.08C453.5,-49.01 453.5,-38.86 453.5,-29.99"/>
<polygon fill="midnightblue" stroke="midnightblue" points="457,-29.75 453.5,-19.75 450,-29.75 457,-29.75"/>
</g>
<!-- Node13&#45;&gt;Node9 -->
<g id="edge17" class="edge">
<title>Node13&#45;&gt;Node9</title>
<path fill="none" stroke="midnightblue" d="M779.32,-168.44C756.07,-159.48 719.35,-145.31 693.08,-135.18"/>
<polygon fill="midnightblue" stroke="midnightblue" points="694.17,-131.85 683.58,-131.52 691.65,-138.38 694.17,-131.85"/>
</g>
<!-- Node14 -->
<g id="node14" class="node">
<title>Node14</title>
<g id="a_node14"><a xlink:title=" ">
<polygon fill="white" stroke="#bfbfbf" points="911.5,-112.5 911.5,-131.5 955.5,-131.5 955.5,-112.5 911.5,-112.5"/>
<text text-anchor="middle" x="933.5" y="-119.5" font-family="Helvetica,sans-Serif" font-size="10.00">string</text>
</a>
</g>
</g>
<!-- Node13&#45;&gt;Node14 -->
<g id="edge15" class="edge">
<title>Node13&#45;&gt;Node14</title>
<path fill="none" stroke="midnightblue" d="M822.42,-168.44C844.24,-159.52 878.65,-145.44 903.39,-135.32"/>
<polygon fill="midnightblue" stroke="midnightblue" points="904.75,-138.54 912.68,-131.52 902.1,-132.06 904.75,-138.54"/>
</g>
<!-- Node15 -->
<g id="node15" class="node">
<title>Node15</title>
<g id="a_node15"><a xlink:title=" ">
<polygon fill="white" stroke="#bfbfbf" points="1003,-56.5 1003,-75.5 1050,-75.5 1050,-56.5 1003,-56.5"/>
<text text-anchor="middle" x="1026.5" y="-63.5" font-family="Helvetica,sans-Serif" font-size="10.00">vector</text>
</a>
</g>
</g>
<!-- Node13&#45;&gt;Node15 -->
<g id="edge16" class="edge">
<title>Node13&#45;&gt;Node15</title>
<path fill="none" stroke="midnightblue" d="M813.11,-168.29C831.39,-154.88 868.31,-128.94 902.5,-112 932.03,-97.37 967.54,-84.97 992.98,-76.91"/>
<polygon fill="midnightblue" stroke="midnightblue" points="994.03,-80.25 1002.54,-73.94 991.95,-73.57 994.03,-80.25"/>
</g>
<!-- Node13&#45;&gt;Node16 -->
<g id="edge18" class="edge">
<title>Node13&#45;&gt;Node16</title>
<path fill="none" stroke="midnightblue" d="M798.69,-168.08C796.42,-160.85 793.13,-150.41 790.29,-141.4"/>
<polygon fill="midnightblue" stroke="midnightblue" points="793.6,-140.24 787.25,-131.75 786.92,-142.34 793.6,-140.24"/>
</g>
<!-- Node13&#45;&gt;Node21 -->
<g id="edge28" class="edge">
<title>Node13&#45;&gt;Node21</title>
<path fill="none" stroke="midnightblue" d="M722.41,-169.77C606.66,-159.2 392.83,-139.66 281.72,-129.51"/>
<polygon fill="midnightblue" stroke="midnightblue" points="281.9,-126.01 271.62,-128.58 281.26,-132.98 281.9,-126.01"/>
</g>
<!-- Node16&#45;&gt;Node5 -->
<g id="edge23" class="edge">
<title>Node16&#45;&gt;Node5</title>
<path fill="none" stroke="midnightblue" d="M752.8,-112.5C726.09,-104.74 687.26,-92.04 655.5,-76 627.17,-61.68 597.42,-40.11 578.92,-25.79"/>
<polygon fill="midnightblue" stroke="midnightblue" points="581.06,-23.02 571.03,-19.6 576.73,-28.53 581.06,-23.02"/>
</g>
<!-- Node16&#45;&gt;Node6 -->
<g id="edge26" class="edge">
<title>Node16&#45;&gt;Node6</title>
<path fill="none" stroke="midnightblue" d="M843.44,-112.48C896.97,-104.49 978.32,-91.71 1058.08,-76.18"/>
<polygon fill="midnightblue" stroke="midnightblue" points="1059.17,-79.53 1068.31,-74.17 1057.82,-72.66 1059.17,-79.53"/>
</g>
<!-- Node16&#45;&gt;Node10 -->
<g id="edge27" class="edge">
<title>Node16&#45;&gt;Node10</title>
<path fill="none" stroke="midnightblue" d="M748.21,-112.44C701.1,-101.33 620.13,-82.24 579.8,-72.73"/>
<polygon fill="midnightblue" stroke="midnightblue" points="580.55,-69.31 570.01,-70.42 578.94,-76.12 580.55,-69.31"/>
</g>
<!-- Node16&#45;&gt;Node11 -->
<g id="edge21" class="edge">
<title>Node16&#45;&gt;Node11</title>
<path fill="none" stroke="midnightblue" d="M732.05,-112.44C673.34,-102.87 578.27,-87.36 515.82,-77.17"/>
<polygon fill="midnightblue" stroke="midnightblue" points="516.14,-73.67 505.7,-75.52 515.01,-80.58 516.14,-73.67"/>
</g>
<!-- Node16&#45;&gt;Node15 -->
<g id="edge24" class="edge">
<title>Node16&#45;&gt;Node15</title>
<path fill="none" stroke="midnightblue" d="M827.48,-112.45C867.78,-104.28 929.91,-91.28 993.02,-76.01"/>
<polygon fill="midnightblue" stroke="midnightblue" points="993.86,-79.41 1002.75,-73.64 992.2,-72.61 993.86,-79.41"/>
</g>
<!-- Node17 -->
<g id="node17" class="node">
<title>Node17</title>
<g id="a_node17"><a xlink:href="BabelException_8hpp.html" target="_top" xlink:title=" ">
<polygon fill="white" stroke="black" points="814.5,-56.5 814.5,-75.5 984.5,-75.5 984.5,-56.5 814.5,-56.5"/>
<text text-anchor="middle" x="899.5" y="-63.5" font-family="Helvetica,sans-Serif" font-size="10.00">Exceptions/BabelException.hpp</text>
</a>
</g>
</g>
<!-- Node16&#45;&gt;Node17 -->
<g id="edge19" class="edge">
<title>Node16&#45;&gt;Node17</title>
<path fill="none" stroke="midnightblue" d="M802.72,-112.44C821.4,-103.68 850.66,-89.94 872.12,-79.86"/>
<polygon fill="midnightblue" stroke="midnightblue" points="873.8,-82.93 881.36,-75.52 870.82,-76.6 873.8,-82.93"/>
</g>
<!-- Node19 -->
<g id="node19" class="node">
<title>Node19</title>
<g id="a_node19"><a xlink:title=" ">
<polygon fill="white" stroke="#bfbfbf" points="664.5,-56.5 664.5,-75.5 714.5,-75.5 714.5,-56.5 664.5,-56.5"/>
<text text-anchor="middle" x="689.5" y="-63.5" font-family="Helvetica,sans-Serif" font-size="10.00">cstring</text>
</a>
</g>
</g>
<!-- Node16&#45;&gt;Node19 -->
<g id="edge22" class="edge">
<title>Node16&#45;&gt;Node19</title>
<path fill="none" stroke="midnightblue" d="M769.24,-112.32C754.28,-103.82 731.25,-90.73 713.77,-80.8"/>
<polygon fill="midnightblue" stroke="midnightblue" points="715.15,-77.55 704.73,-75.65 711.69,-83.64 715.15,-77.55"/>
</g>
<!-- Node20 -->
<g id="node20" class="node">
<title>Node20</title>
<g id="a_node20"><a xlink:title=" ">
<polygon fill="white" stroke="#bfbfbf" points="732.5,-56.5 732.5,-75.5 796.5,-75.5 796.5,-56.5 732.5,-56.5"/>
<text text-anchor="middle" x="764.5" y="-63.5" font-family="Helvetica,sans-Serif" font-size="10.00">algorithm</text>
</a>
</g>
</g>
<!-- Node16&#45;&gt;Node20 -->
<g id="edge25" class="edge">
<title>Node16&#45;&gt;Node20</title>
<path fill="none" stroke="midnightblue" d="M781.2,-112.08C778.52,-104.85 774.65,-94.41 771.31,-85.4"/>
<polygon fill="midnightblue" stroke="midnightblue" points="774.5,-83.91 767.74,-75.75 767.93,-86.34 774.5,-83.91"/>
</g>
<!-- Node18 -->
<g id="node18" class="node">
<title>Node18</title>
<g id="a_node18"><a xlink:title=" ">
<polygon fill="white" stroke="#bfbfbf" points="867,-0.5 867,-19.5 932,-19.5 932,-0.5 867,-0.5"/>
<text text-anchor="middle" x="899.5" y="-7.5" font-family="Helvetica,sans-Serif" font-size="10.00">stdexcept</text>
</a>
</g>
</g>
<!-- Node17&#45;&gt;Node18 -->
<g id="edge20" class="edge">
<title>Node17&#45;&gt;Node18</title>
<path fill="none" stroke="midnightblue" d="M899.5,-56.08C899.5,-49.01 899.5,-38.86 899.5,-29.99"/>
<polygon fill="midnightblue" stroke="midnightblue" points="903,-29.75 899.5,-19.75 896,-29.75 903,-29.75"/>
</g>
<!-- Node21&#45;&gt;Node3 -->
<g id="edge31" class="edge">
<title>Node21&#45;&gt;Node3</title>
<path fill="none" stroke="midnightblue" d="M180.87,-112.44C147.13,-102.7 92.12,-86.82 56.89,-76.64"/>
<polygon fill="midnightblue" stroke="midnightblue" points="57.65,-73.22 47.07,-73.81 55.71,-79.94 57.65,-73.22"/>
</g>
<!-- Node22 -->
<g id="node22" class="node">
<title>Node22</title>
<g id="a_node22"><a xlink:title=" ">
<polygon fill="white" stroke="#bfbfbf" points="133.5,-56.5 133.5,-75.5 181.5,-75.5 181.5,-56.5 133.5,-56.5"/>
<text text-anchor="middle" x="157.5" y="-63.5" font-family="Helvetica,sans-Serif" font-size="10.00">mutex</text>
</a>
</g>
</g>
<!-- Node21&#45;&gt;Node22 -->
<g id="edge29" class="edge">
<title>Node21&#45;&gt;Node22</title>
<path fill="none" stroke="midnightblue" d="M201.75,-112.08C194.03,-104.22 182.6,-92.57 173.28,-83.08"/>
<polygon fill="midnightblue" stroke="midnightblue" points="175.59,-80.44 166.09,-75.75 170.6,-85.34 175.59,-80.44"/>
</g>
<!-- Node23 -->
<g id="node23" class="node">
<title>Node23</title>
<g id="a_node23"><a xlink:title=" ">
<polygon fill="white" stroke="#bfbfbf" points="200,-56.5 200,-75.5 307,-75.5 307,-56.5 200,-56.5"/>
<text text-anchor="middle" x="253.5" y="-63.5" font-family="Helvetica,sans-Serif" font-size="10.00">condition_variable</text>
</a>
</g>
</g>
<!-- Node21&#45;&gt;Node23 -->
<g id="edge30" class="edge">
<title>Node21&#45;&gt;Node23</title>
<path fill="none" stroke="midnightblue" d="M217.6,-112.08C223.74,-104.38 232.77,-93.03 240.24,-83.65"/>
<polygon fill="midnightblue" stroke="midnightblue" points="243.04,-85.75 246.53,-75.75 237.56,-81.39 243.04,-85.75"/>
</g>
<!-- Node24 -->
<g id="node24" class="node">
<title>Node24</title>
<g id="a_node24"><a xlink:title=" ">
<polygon fill="white" stroke="#bfbfbf" points="65.5,-56.5 65.5,-75.5 115.5,-75.5 115.5,-56.5 65.5,-56.5"/>
<text text-anchor="middle" x="90.5" y="-63.5" font-family="Helvetica,sans-Serif" font-size="10.00">chrono</text>
</a>
</g>
</g>
<!-- Node21&#45;&gt;Node24 -->
<g id="edge32" class="edge">
<title>Node21&#45;&gt;Node24</title>
<path fill="none" stroke="midnightblue" d="M191.49,-112.44C171.91,-103.64 141.19,-89.81 118.77,-79.72"/>
<polygon fill="midnightblue" stroke="midnightblue" points="119.98,-76.43 109.43,-75.52 117.11,-82.81 119.98,-76.43"/>
</g>
<!-- Node25&#45;&gt;Node2 -->
<g id="edge36" class="edge">
<title>Node25&#45;&gt;Node2</title>
<path fill="none" stroke="midnightblue" d="M724.89,-224.44C700.04,-215.44 660.73,-201.19 632.75,-191.05"/>
<polygon fill="midnightblue" stroke="midnightblue" points="633.59,-187.63 623,-187.52 631.21,-194.21 633.59,-187.63"/>
</g>
<!-- Node25&#45;&gt;Node5 -->
<g id="edge35" class="edge">
<title>Node25&#45;&gt;Node5</title>
<path fill="none" stroke="midnightblue" d="M738.59,-224.35C723.95,-211.68 695.58,-187.44 670.5,-168 648.86,-151.22 638.21,-152.88 620.5,-132 606.38,-115.36 581.07,-58.95 568.31,-29.4"/>
<polygon fill="midnightblue" stroke="midnightblue" points="571.38,-27.66 564.22,-19.85 564.94,-30.42 571.38,-27.66"/>
</g>
<!-- Node25&#45;&gt;Node13 -->
<g id="edge41" class="edge">
<title>Node25&#45;&gt;Node13</title>
<path fill="none" stroke="midnightblue" d="M757.25,-224.08C764.97,-216.22 776.4,-204.57 785.72,-195.08"/>
<polygon fill="midnightblue" stroke="midnightblue" points="788.4,-197.34 792.91,-187.75 783.41,-192.44 788.4,-197.34"/>
</g>
<!-- Node25&#45;&gt;Node14 -->
<g id="edge37" class="edge">
<title>Node25&#45;&gt;Node14</title>
<path fill="none" stroke="midnightblue" d="M815.85,-226.84C846.26,-221 880.81,-209.73 905.5,-188 919.17,-175.97 926.4,-156.08 930.06,-141.47"/>
<polygon fill="midnightblue" stroke="midnightblue" points="933.51,-142.05 932.21,-131.54 926.67,-140.57 933.51,-142.05"/>
</g>
<!-- Node25&#45;&gt;Node15 -->
<g id="edge38" class="edge">
<title>Node25&#45;&gt;Node15</title>
<path fill="none" stroke="midnightblue" d="M815.88,-226.15C850.98,-220.16 893.36,-208.95 926.5,-188 968.57,-161.39 1001.52,-111.15 1016.94,-84.55"/>
<polygon fill="midnightblue" stroke="midnightblue" points="1020.12,-86.04 1021.98,-75.61 1014.02,-82.61 1020.12,-86.04"/>
</g>
<!-- Node25&#45;&gt;Node16 -->
<g id="edge39" class="edge">
<title>Node25&#45;&gt;Node16</title>
<path fill="none" stroke="midnightblue" d="M815.67,-228.44C843.15,-222.86 872.45,-211.34 889.5,-188 908.23,-162.36 870.16,-144.64 834.73,-134.25"/>
<polygon fill="midnightblue" stroke="midnightblue" points="835.43,-130.81 824.86,-131.51 833.56,-137.56 835.43,-130.81"/>
</g>
<!-- Node25&#45;&gt;Node21 -->
<g id="edge40" class="edge">
<title>Node25&#45;&gt;Node21</title>
<path fill="none" stroke="midnightblue" d="M735.36,-224.35C710.67,-208.25 657.97,-174.73 637.5,-168 573.25,-146.89 385.55,-133.1 281.68,-126.86"/>
<polygon fill="midnightblue" stroke="midnightblue" points="281.78,-123.36 271.6,-126.26 281.37,-130.34 281.78,-123.36"/>
</g>
<!-- Node26&#45;&gt;Node6 -->
<g id="edge44" class="edge">
<title>Node26&#45;&gt;Node6</title>
<path fill="none" stroke="midnightblue" d="M960.35,-224.08C983.83,-197.38 1053.76,-117.87 1084.14,-83.32"/>
<polygon fill="midnightblue" stroke="midnightblue" points="1086.99,-85.39 1090.96,-75.57 1081.73,-80.77 1086.99,-85.39"/>
</g>
<!-- Node26&#45;&gt;Node13 -->
<g id="edge46" class="edge">
<title>Node26&#45;&gt;Node13</title>
<path fill="none" stroke="midnightblue" d="M928.57,-224.44C903.28,-215.4 863.2,-201.06 834.82,-190.92"/>
<polygon fill="midnightblue" stroke="midnightblue" points="835.91,-187.59 825.31,-187.52 833.55,-194.18 835.91,-187.59"/>
</g>
<!-- Node26&#45;&gt;Node16 -->
<g id="edge45" class="edge">
<title>Node26&#45;&gt;Node16</title>
<path fill="none" stroke="midnightblue" d="M948.28,-224.15C941.25,-210.31 925.89,-183.52 905.5,-168 884.59,-152.09 857.45,-141.31 834.17,-134.31"/>
<polygon fill="midnightblue" stroke="midnightblue" points="835.04,-130.91 824.46,-131.53 833.12,-137.64 835.04,-130.91"/>
</g>
</g>
</svg>
