<?xml version="1.0" encoding="UTF-8" standalone="no"?>
<!DOCTYPE svg PUBLIC "-//W3C//DTD SVG 1.1//EN"
 "http://www.w3.org/Graphics/SVG/1.1/DTD/svg11.dtd">
<!-- Generated by graphviz version 2.43.0 (0)
 -->
<!-- Title: Server/src/Network/AsioTCPConnection.hpp Pages: 1 -->
<svg width="1039pt" height="263pt"
 viewBox="0.00 0.00 1039.00 263.00" xmlns="http://www.w3.org/2000/svg" xmlns:xlink="http://www.w3.org/1999/xlink">
<g id="graph0" class="graph" transform="scale(1 1) rotate(0) translate(4 259)">
<title>Server/src/Network/AsioTCPConnection.hpp</title>
<polygon fill="white" stroke="transparent" points="-4,4 -4,-259 1035,-259 1035,4 -4,4"/>
<!-- Node1 -->
<g id="node1" class="node">
<title>Node1</title>
<g id="a_node1"><a xlink:title=" ">
<polygon fill="#bfbfbf" stroke="black" points="668,-224.5 668,-254.5 802,-254.5 802,-224.5 668,-224.5"/>
<text text-anchor="start" x="676" y="-242.5" font-family="Helvetica,sans-Serif" font-size="10.00">Server/src/Network</text>
<text text-anchor="middle" x="735" y="-231.5" font-family="Helvetica,sans-Serif" font-size="10.00">/AsioTCPConnection.hpp</text>
</a>
</g>
</g>
<!-- Node2 -->
<g id="node2" class="node">
<title>Node2</title>
<g id="a_node2"><a xlink:title=" ">
<polygon fill="white" stroke="#bfbfbf" points="104.5,-112.5 104.5,-131.5 169.5,-131.5 169.5,-112.5 104.5,-112.5"/>
<text text-anchor="middle" x="137" y="-119.5" font-family="Helvetica,sans-Serif" font-size="10.00">functional</text>
</a>
</g>
</g>
<!-- Node1&#45;&gt;Node2 -->
<g id="edge1" class="edge">
<title>Node1&#45;&gt;Node2</title>
<path fill="none" stroke="midnightblue" d="M667.82,-237.1C579.18,-233.87 418.97,-223.19 287,-188 240.93,-175.71 190.72,-151.56 161.65,-136.4"/>
<polygon fill="midnightblue" stroke="midnightblue" points="163.12,-133.22 152.64,-131.64 159.85,-139.41 163.12,-133.22"/>
</g>
<!-- Node3 -->
<g id="node3" class="node">
<title>Node3</title>
<g id="a_node3"><a xlink:title=" ">
<polygon fill="white" stroke="#bfbfbf" points="824,-168.5 824,-187.5 882,-187.5 882,-168.5 824,-168.5"/>
<text text-anchor="middle" x="853" y="-175.5" font-family="Helvetica,sans-Serif" font-size="10.00">asio.hpp</text>
</a>
</g>
</g>
<!-- Node1&#45;&gt;Node3 -->
<g id="edge2" class="edge">
<title>Node1&#45;&gt;Node3</title>
<path fill="none" stroke="midnightblue" d="M762.96,-224.4C782.32,-214.64 807.91,-201.74 826.86,-192.18"/>
<polygon fill="midnightblue" stroke="midnightblue" points="828.48,-195.29 835.83,-187.66 825.33,-189.04 828.48,-195.29"/>
</g>
<!-- Node4 -->
<g id="node4" class="node">
<title>Node4</title>
<g id="a_node4"><a xlink:title=" ">
<polygon fill="white" stroke="#bfbfbf" points="845.5,-56.5 845.5,-75.5 874.5,-75.5 874.5,-56.5 845.5,-56.5"/>
<text text-anchor="middle" x="860" y="-63.5" font-family="Helvetica,sans-Serif" font-size="10.00">bit</text>
</a>
</g>
</g>
<!-- Node1&#45;&gt;Node4 -->
<g id="edge3" class="edge">
<title>Node1&#45;&gt;Node4</title>
<path fill="none" stroke="midnightblue" d="M737.03,-224.39C741.3,-199.21 753.27,-146 782,-112 789.72,-102.87 816.06,-88.58 836.02,-78.56"/>
<polygon fill="midnightblue" stroke="midnightblue" points="837.78,-81.6 845.19,-74.03 834.67,-75.32 837.78,-81.6"/>
</g>
<!-- Node5 -->
<g id="node5" class="node">
<title>Node5</title>
<g id="a_node5"><a xlink:href="SwapEndian_8hpp.html" target="_top" xlink:title=" ">
<polygon fill="white" stroke="black" points="893,-56.5 893,-75.5 1031,-75.5 1031,-56.5 893,-56.5"/>
<text text-anchor="middle" x="962" y="-63.5" font-family="Helvetica,sans-Serif" font-size="10.00">Utilities/SwapEndian.hpp</text>
</a>
</g>
</g>
<!-- Node1&#45;&gt;Node5 -->
<g id="edge4" class="edge">
<title>Node1&#45;&gt;Node5</title>
<path fill="none" stroke="midnightblue" d="M749.87,-224.42C765.59,-209.77 791.35,-186.44 815,-168 857.53,-134.85 910.22,-100.06 939.57,-81.2"/>
<polygon fill="midnightblue" stroke="midnightblue" points="941.7,-84 948.24,-75.66 937.93,-78.1 941.7,-84"/>
</g>
<!-- Node8 -->
<g id="node8" class="node">
<title>Node8</title>
<g id="a_node8"><a xlink:href="ITCPConnection_8hpp.html" target="_top" xlink:title=" ">
<polygon fill="white" stroke="black" points="296,-168.5 296,-187.5 454,-187.5 454,-168.5 296,-168.5"/>
<text text-anchor="middle" x="375" y="-175.5" font-family="Helvetica,sans-Serif" font-size="10.00">Network/ITCPConnection.hpp</text>
</a>
</g>
</g>
<!-- Node1&#45;&gt;Node8 -->
<g id="edge7" class="edge">
<title>Node1&#45;&gt;Node8</title>
<path fill="none" stroke="midnightblue" d="M667.71,-227.38C601.35,-216.41 500.8,-199.79 436.52,-189.17"/>
<polygon fill="midnightblue" stroke="midnightblue" points="436.96,-185.69 426.53,-187.52 435.82,-192.6 436.96,-185.69"/>
</g>
<!-- Node11 -->
<g id="node11" class="node">
<title>Node11</title>
<g id="a_node11"><a xlink:href="Message_8hpp.html" target="_top" xlink:title=" ">
<polygon fill="white" stroke="black" points="604.5,-112.5 604.5,-131.5 729.5,-131.5 729.5,-112.5 604.5,-112.5"/>
<text text-anchor="middle" x="667" y="-119.5" font-family="Helvetica,sans-Serif" font-size="10.00">Network/Message.hpp</text>
</a>
</g>
</g>
<!-- Node1&#45;&gt;Node11 -->
<g id="edge26" class="edge">
<title>Node1&#45;&gt;Node11</title>
<path fill="none" stroke="midnightblue" d="M726.66,-224.34C714.19,-203.15 690.69,-163.24 677.21,-140.34"/>
<polygon fill="midnightblue" stroke="midnightblue" points="680.19,-138.51 672.1,-131.67 674.16,-142.06 680.19,-138.51"/>
</g>
<!-- Node6 -->
<g id="node6" class="node">
<title>Node6</title>
<g id="a_node6"><a xlink:title=" ">
<polygon fill="white" stroke="#bfbfbf" points="937,-0.5 937,-19.5 987,-19.5 987,-0.5 937,-0.5"/>
<text text-anchor="middle" x="962" y="-7.5" font-family="Helvetica,sans-Serif" font-size="10.00">climits</text>
</a>
</g>
</g>
<!-- Node5&#45;&gt;Node6 -->
<g id="edge5" class="edge">
<title>Node5&#45;&gt;Node6</title>
<path fill="none" stroke="midnightblue" d="M962,-56.08C962,-49.01 962,-38.86 962,-29.99"/>
<polygon fill="midnightblue" stroke="midnightblue" points="965.5,-29.75 962,-19.75 958.5,-29.75 965.5,-29.75"/>
</g>
<!-- Node7 -->
<g id="node7" class="node">
<title>Node7</title>
<g id="a_node7"><a xlink:title=" ">
<polygon fill="white" stroke="#bfbfbf" points="755,-0.5 755,-19.5 805,-19.5 805,-0.5 755,-0.5"/>
<text text-anchor="middle" x="780" y="-7.5" font-family="Helvetica,sans-Serif" font-size="10.00">cstdint</text>
</a>
</g>
</g>
<!-- Node5&#45;&gt;Node7 -->
<g id="edge6" class="edge">
<title>Node5&#45;&gt;Node7</title>
<path fill="none" stroke="midnightblue" d="M933.16,-56.44C901.05,-46.92 849.16,-31.52 814.81,-21.33"/>
<polygon fill="midnightblue" stroke="midnightblue" points="815.77,-17.96 805.19,-18.47 813.78,-24.67 815.77,-17.96"/>
</g>
<!-- Node8&#45;&gt;Node2 -->
<g id="edge10" class="edge">
<title>Node8&#45;&gt;Node2</title>
<path fill="none" stroke="midnightblue" d="M337.29,-168.44C294.36,-158.7 224.41,-142.83 179.56,-132.66"/>
<polygon fill="midnightblue" stroke="midnightblue" points="180.09,-129.19 169.56,-130.39 178.54,-136.01 180.09,-129.19"/>
</g>
<!-- Node9 -->
<g id="node9" class="node">
<title>Node9</title>
<g id="a_node9"><a xlink:title=" ">
<polygon fill="white" stroke="#bfbfbf" points="328,-112.5 328,-131.5 372,-131.5 372,-112.5 328,-112.5"/>
<text text-anchor="middle" x="350" y="-119.5" font-family="Helvetica,sans-Serif" font-size="10.00">string</text>
</a>
</g>
</g>
<!-- Node8&#45;&gt;Node9 -->
<g id="edge8" class="edge">
<title>Node8&#45;&gt;Node9</title>
<path fill="none" stroke="midnightblue" d="M370.87,-168.08C367.49,-160.77 362.58,-150.18 358.38,-141.1"/>
<polygon fill="midnightblue" stroke="midnightblue" points="361.43,-139.36 354.05,-131.75 355.08,-142.3 361.43,-139.36"/>
</g>
<!-- Node10 -->
<g id="node10" class="node">
<title>Node10</title>
<g id="a_node10"><a xlink:title=" ">
<polygon fill="white" stroke="#bfbfbf" points="325.5,-56.5 325.5,-75.5 372.5,-75.5 372.5,-56.5 325.5,-56.5"/>
<text text-anchor="middle" x="349" y="-63.5" font-family="Helvetica,sans-Serif" font-size="10.00">vector</text>
</a>
</g>
</g>
<!-- Node8&#45;&gt;Node10 -->
<g id="edge9" class="edge">
<title>Node8&#45;&gt;Node10</title>
<path fill="none" stroke="midnightblue" d="M377.91,-168.35C381.72,-155.67 387.2,-131.43 381,-112 377.66,-101.54 370.9,-91.43 364.45,-83.45"/>
<polygon fill="midnightblue" stroke="midnightblue" points="366.94,-80.98 357.75,-75.71 361.65,-85.56 366.94,-80.98"/>
</g>
<!-- Node8&#45;&gt;Node11 -->
<g id="edge11" class="edge">
<title>Node8&#45;&gt;Node11</title>
<path fill="none" stroke="midnightblue" d="M421.27,-168.44C472.74,-158.92 555.89,-143.55 611,-133.36"/>
<polygon fill="midnightblue" stroke="midnightblue" points="611.75,-136.78 620.95,-131.52 610.48,-129.89 611.75,-136.78"/>
</g>
<!-- Node17 -->
<g id="node17" class="node">
<title>Node17</title>
<g id="a_node17"><a xlink:href="TSQueue_8hpp.html" target="_top" xlink:title=" ">
<polygon fill="white" stroke="black" points="188,-112.5 188,-131.5 310,-131.5 310,-112.5 188,-112.5"/>
<text text-anchor="middle" x="249" y="-119.5" font-family="Helvetica,sans-Serif" font-size="10.00">Utilities/TSQueue.hpp</text>
</a>
</g>
</g>
<!-- Node8&#45;&gt;Node17 -->
<g id="edge21" class="edge">
<title>Node8&#45;&gt;Node17</title>
<path fill="none" stroke="midnightblue" d="M355.03,-168.44C334.39,-159.6 301.94,-145.69 278.37,-135.59"/>
<polygon fill="midnightblue" stroke="midnightblue" points="279.44,-132.24 268.87,-131.52 276.68,-138.67 279.44,-132.24"/>
</g>
<!-- Node11&#45;&gt;Node4 -->
<g id="edge20" class="edge">
<title>Node11&#45;&gt;Node4</title>
<path fill="none" stroke="midnightblue" d="M703.23,-112.45C735.64,-104.56 784.58,-92.05 835.78,-75.82"/>
<polygon fill="midnightblue" stroke="midnightblue" points="836.9,-79.14 845.36,-72.75 834.77,-72.47 836.9,-79.14"/>
</g>
<!-- Node11&#45;&gt;Node5 -->
<g id="edge14" class="edge">
<title>Node11&#45;&gt;Node5</title>
<path fill="none" stroke="midnightblue" d="M713.74,-112.44C765.75,-102.92 849.75,-87.55 905.42,-77.36"/>
<polygon fill="midnightblue" stroke="midnightblue" points="906.27,-80.76 915.48,-75.52 905.01,-73.87 906.27,-80.76"/>
</g>
<!-- Node11&#45;&gt;Node7 -->
<g id="edge16" class="edge">
<title>Node11&#45;&gt;Node7</title>
<path fill="none" stroke="midnightblue" d="M667.34,-112.38C668.31,-98.85 671.99,-72.48 686,-56 701.23,-38.07 725.24,-26.75 745.18,-19.94"/>
<polygon fill="midnightblue" stroke="midnightblue" points="746.41,-23.23 754.88,-16.87 744.29,-16.55 746.41,-23.23"/>
</g>
<!-- Node11&#45;&gt;Node10 -->
<g id="edge17" class="edge">
<title>Node11&#45;&gt;Node10</title>
<path fill="none" stroke="midnightblue" d="M604.37,-113.12C548.64,-105.66 464.78,-93.31 382.71,-75.94"/>
<polygon fill="midnightblue" stroke="midnightblue" points="383.23,-72.48 372.72,-73.8 381.76,-79.32 383.23,-72.48"/>
</g>
<!-- Node12 -->
<g id="node12" class="node">
<title>Node12</title>
<g id="a_node12"><a xlink:href="BabelException_8hpp.html" target="_top" xlink:title=" ">
<polygon fill="white" stroke="black" points="469,-56.5 469,-75.5 639,-75.5 639,-56.5 469,-56.5"/>
<text text-anchor="middle" x="554" y="-63.5" font-family="Helvetica,sans-Serif" font-size="10.00">Exceptions/BabelException.hpp</text>
</a>
</g>
</g>
<!-- Node11&#45;&gt;Node12 -->
<g id="edge12" class="edge">
<title>Node11&#45;&gt;Node12</title>
<path fill="none" stroke="midnightblue" d="M649.09,-112.44C630.75,-103.68 601.99,-89.94 580.91,-79.86"/>
<polygon fill="midnightblue" stroke="midnightblue" points="582.35,-76.67 571.82,-75.52 579.33,-82.99 582.35,-76.67"/>
</g>
<!-- Node14 -->
<g id="node14" class="node">
<title>Node14</title>
<g id="a_node14"><a xlink:title=" ">
<polygon fill="white" stroke="#bfbfbf" points="695,-56.5 695,-75.5 745,-75.5 745,-56.5 695,-56.5"/>
<text text-anchor="middle" x="720" y="-63.5" font-family="Helvetica,sans-Serif" font-size="10.00">cstring</text>
</a>
</g>
</g>
<!-- Node11&#45;&gt;Node14 -->
<g id="edge15" class="edge">
<title>Node11&#45;&gt;Node14</title>
<path fill="none" stroke="midnightblue" d="M675.75,-112.08C683.47,-104.22 694.9,-92.57 704.22,-83.08"/>
<polygon fill="midnightblue" stroke="midnightblue" points="706.9,-85.34 711.41,-75.75 701.91,-80.44 706.9,-85.34"/>
</g>
<!-- Node15 -->
<g id="node15" class="node">
<title>Node15</title>
<g id="a_node15"><a xlink:title=" ">
<polygon fill="white" stroke="#bfbfbf" points="763,-56.5 763,-75.5 827,-75.5 827,-56.5 763,-56.5"/>
<text text-anchor="middle" x="795" y="-63.5" font-family="Helvetica,sans-Serif" font-size="10.00">algorithm</text>
</a>
</g>
</g>
<!-- Node11&#45;&gt;Node15 -->
<g id="edge18" class="edge">
<title>Node11&#45;&gt;Node15</title>
<path fill="none" stroke="midnightblue" d="M687.28,-112.44C708.35,-103.56 741.52,-89.56 765.49,-79.45"/>
<polygon fill="midnightblue" stroke="midnightblue" points="766.96,-82.63 774.81,-75.52 764.24,-76.18 766.96,-82.63"/>
</g>
<!-- Node16 -->
<g id="node16" class="node">
<title>Node16</title>
<g id="a_node16"><a xlink:title=" ">
<polygon fill="white" stroke="#bfbfbf" points="391,-56.5 391,-75.5 451,-75.5 451,-56.5 391,-56.5"/>
<text text-anchor="middle" x="421" y="-63.5" font-family="Helvetica,sans-Serif" font-size="10.00">iostream</text>
</a>
</g>
</g>
<!-- Node11&#45;&gt;Node16 -->
<g id="edge19" class="edge">
<title>Node11&#45;&gt;Node16</title>
<path fill="none" stroke="midnightblue" d="M626.9,-112.44C587.21,-103.93 524.46,-90.39 461,-76.2"/>
<polygon fill="midnightblue" stroke="midnightblue" points="461.75,-72.78 451.23,-74.01 460.22,-79.62 461.75,-72.78"/>
</g>
<!-- Node13 -->
<g id="node13" class="node">
<title>Node13</title>
<g id="a_node13"><a xlink:title=" ">
<polygon fill="white" stroke="#bfbfbf" points="521.5,-0.5 521.5,-19.5 586.5,-19.5 586.5,-0.5 521.5,-0.5"/>
<text text-anchor="middle" x="554" y="-7.5" font-family="Helvetica,sans-Serif" font-size="10.00">stdexcept</text>
</a>
</g>
</g>
<!-- Node12&#45;&gt;Node13 -->
<g id="edge13" class="edge">
<title>Node12&#45;&gt;Node13</title>
<path fill="none" stroke="midnightblue" d="M554,-56.08C554,-49.01 554,-38.86 554,-29.99"/>
<polygon fill="midnightblue" stroke="midnightblue" points="557.5,-29.75 554,-19.75 550.5,-29.75 557.5,-29.75"/>
</g>
<!-- Node18 -->
<g id="node18" class="node">
<title>Node18</title>
<g id="a_node18"><a xlink:title=" ">
<polygon fill="white" stroke="#bfbfbf" points="0,-56.5 0,-75.5 48,-75.5 48,-56.5 0,-56.5"/>
<text text-anchor="middle" x="24" y="-63.5" font-family="Helvetica,sans-Serif" font-size="10.00">mutex</text>
</a>
</g>
</g>
<!-- Node17&#45;&gt;Node18 -->
<g id="edge22" class="edge">
<title>Node17&#45;&gt;Node18</title>
<path fill="none" stroke="midnightblue" d="M210.65,-112.44C173.87,-104.13 116.55,-90.94 57.92,-76.17"/>
<polygon fill="midnightblue" stroke="midnightblue" points="58.68,-72.75 48.12,-73.69 56.96,-79.53 58.68,-72.75"/>
</g>
<!-- Node19 -->
<g id="node19" class="node">
<title>Node19</title>
<g id="a_node19"><a xlink:title=" ">
<polygon fill="white" stroke="#bfbfbf" points="66.5,-56.5 66.5,-75.5 173.5,-75.5 173.5,-56.5 66.5,-56.5"/>
<text text-anchor="middle" x="120" y="-63.5" font-family="Helvetica,sans-Serif" font-size="10.00">condition_variable</text>
</a>
</g>
</g>
<!-- Node17&#45;&gt;Node19 -->
<g id="edge23" class="edge">
<title>Node17&#45;&gt;Node19</title>
<path fill="none" stroke="midnightblue" d="M228.56,-112.44C207.33,-103.56 173.9,-89.56 149.75,-79.45"/>
<polygon fill="midnightblue" stroke="midnightblue" points="150.92,-76.15 140.34,-75.52 148.22,-82.61 150.92,-76.15"/>
</g>
<!-- Node20 -->
<g id="node20" class="node">
<title>Node20</title>
<g id="a_node20"><a xlink:title=" ">
<polygon fill="white" stroke="#bfbfbf" points="191.5,-56.5 191.5,-75.5 238.5,-75.5 238.5,-56.5 191.5,-56.5"/>
<text text-anchor="middle" x="215" y="-63.5" font-family="Helvetica,sans-Serif" font-size="10.00">deque</text>
</a>
</g>
</g>
<!-- Node17&#45;&gt;Node20 -->
<g id="edge24" class="edge">
<title>Node17&#45;&gt;Node20</title>
<path fill="none" stroke="midnightblue" d="M243.39,-112.08C238.63,-104.53 231.68,-93.49 225.85,-84.23"/>
<polygon fill="midnightblue" stroke="midnightblue" points="228.8,-82.35 220.51,-75.75 222.88,-86.08 228.8,-82.35"/>
</g>
<!-- Node21 -->
<g id="node21" class="node">
<title>Node21</title>
<g id="a_node21"><a xlink:title=" ">
<polygon fill="white" stroke="#bfbfbf" points="257,-56.5 257,-75.5 307,-75.5 307,-56.5 257,-56.5"/>
<text text-anchor="middle" x="282" y="-63.5" font-family="Helvetica,sans-Serif" font-size="10.00">chrono</text>
</a>
</g>
</g>
<!-- Node17&#45;&gt;Node21 -->
<g id="edge25" class="edge">
<title>Node17&#45;&gt;Node21</title>
<path fill="none" stroke="midnightblue" d="M254.45,-112.08C259.01,-104.61 265.67,-93.72 271.29,-84.52"/>
<polygon fill="midnightblue" stroke="midnightblue" points="274.42,-86.11 276.65,-75.75 268.45,-82.46 274.42,-86.11"/>
</g>
</g>
</svg>
