<?xml version="1.0" encoding="UTF-8" standalone="no"?>
<!DOCTYPE svg PUBLIC "-//W3C//DTD SVG 1.1//EN"
 "http://www.w3.org/Graphics/SVG/1.1/DTD/svg11.dtd">
<!-- Generated by graphviz version 2.43.0 (0)
 -->
<!-- Title: Server/src/Network/BabelServer.cpp Pages: 1 -->
<svg width="1693pt" height="431pt"
 viewBox="0.00 0.00 1692.50 431.00" xmlns="http://www.w3.org/2000/svg" xmlns:xlink="http://www.w3.org/1999/xlink">
<g id="graph0" class="graph" transform="scale(1 1) rotate(0) translate(4 427)">
<title>Server/src/Network/BabelServer.cpp</title>
<polygon fill="white" stroke="transparent" points="-4,4 -4,-427 1688.5,-427 1688.5,4 -4,4"/>
<!-- Node1 -->
<g id="node1" class="node">
<title>Node1</title>
<g id="a_node1"><a xlink:title=" ">
<polygon fill="#bfbfbf" stroke="black" points="150.5,-392.5 150.5,-422.5 260.5,-422.5 260.5,-392.5 150.5,-392.5"/>
<text text-anchor="start" x="158.5" y="-410.5" font-family="Helvetica,sans-Serif" font-size="10.00">Server/src/Network</text>
<text text-anchor="middle" x="205.5" y="-399.5" font-family="Helvetica,sans-Serif" font-size="10.00">/BabelServer.cpp</text>
</a>
</g>
</g>
<!-- Node2 -->
<g id="node2" class="node">
<title>Node2</title>
<g id="a_node2"><a xlink:href="BabelServer_8hpp.html" target="_top" xlink:title=" ">
<polygon fill="white" stroke="black" points="623.5,-336.5 623.5,-355.5 719.5,-355.5 719.5,-336.5 623.5,-336.5"/>
<text text-anchor="middle" x="671.5" y="-343.5" font-family="Helvetica,sans-Serif" font-size="10.00">BabelServer.hpp</text>
</a>
</g>
</g>
<!-- Node1&#45;&gt;Node2 -->
<g id="edge1" class="edge">
<title>Node1&#45;&gt;Node2</title>
<path fill="none" stroke="midnightblue" d="M260.79,-399.44C349.47,-388.12 522.7,-366 613.23,-354.44"/>
<polygon fill="midnightblue" stroke="midnightblue" points="613.85,-357.89 623.32,-353.15 612.96,-350.95 613.85,-357.89"/>
</g>
<!-- Node31 -->
<g id="node31" class="node">
<title>Node31</title>
<g id="a_node31"><a xlink:href="User_8hpp.html" target="_top" xlink:title=" ">
<polygon fill="white" stroke="black" points="0,-168.5 0,-187.5 59,-187.5 59,-168.5 0,-168.5"/>
<text text-anchor="middle" x="29.5" y="-175.5" font-family="Helvetica,sans-Serif" font-size="10.00">User.hpp</text>
</a>
</g>
</g>
<!-- Node1&#45;&gt;Node31 -->
<g id="edge85" class="edge">
<title>Node1&#45;&gt;Node31</title>
<path fill="none" stroke="midnightblue" d="M190.93,-392.24C163.69,-365.09 104.12,-303.37 63.5,-244 53.18,-228.92 43.75,-210.34 37.46,-196.9"/>
<polygon fill="midnightblue" stroke="midnightblue" points="40.63,-195.42 33.29,-187.78 34.26,-198.33 40.63,-195.42"/>
</g>
<!-- Node33 -->
<g id="node33" class="node">
<title>Node33</title>
<g id="a_node33"><a xlink:href="Call_8hpp.html" target="_top" xlink:title=" ">
<polygon fill="white" stroke="black" points="524.5,-224.5 524.5,-243.5 580.5,-243.5 580.5,-224.5 524.5,-224.5"/>
<text text-anchor="middle" x="552.5" y="-231.5" font-family="Helvetica,sans-Serif" font-size="10.00">Call.hpp</text>
</a>
</g>
</g>
<!-- Node1&#45;&gt;Node33 -->
<g id="edge83" class="edge">
<title>Node1&#45;&gt;Node33</title>
<path fill="none" stroke="midnightblue" d="M233.9,-392.47C299.79,-359.9 462.32,-279.57 526.16,-248.02"/>
<polygon fill="midnightblue" stroke="midnightblue" points="527.77,-251.13 535.18,-243.56 524.67,-244.85 527.77,-251.13"/>
</g>
<!-- Node38 -->
<g id="node38" class="node">
<title>Node38</title>
<g id="a_node38"><a xlink:href="Utilities_8hpp.html" target="_top" xlink:title=" ">
<polygon fill="white" stroke="black" points="134,-224.5 134,-243.5 251,-243.5 251,-224.5 134,-224.5"/>
<text text-anchor="middle" x="192.5" y="-231.5" font-family="Helvetica,sans-Serif" font-size="10.00">Utilities/Utilities.hpp</text>
</a>
</g>
</g>
<!-- Node1&#45;&gt;Node38 -->
<g id="edge73" class="edge">
<title>Node1&#45;&gt;Node38</title>
<path fill="none" stroke="midnightblue" d="M192.89,-392.19C185.36,-382.66 176.51,-369.45 172.5,-356 162.86,-323.63 165.49,-313.04 172.5,-280 174.5,-270.59 178.6,-260.76 182.57,-252.7"/>
<polygon fill="midnightblue" stroke="midnightblue" points="185.81,-254.07 187.37,-243.59 179.61,-250.81 185.81,-254.07"/>
</g>
<!-- Node39 -->
<g id="node39" class="node">
<title>Node39</title>
<g id="a_node39"><a xlink:href="Utils_8hpp.html" target="_top" xlink:title=" ">
<polygon fill="white" stroke="black" points="367,-224.5 367,-243.5 468,-243.5 468,-224.5 367,-224.5"/>
<text text-anchor="middle" x="417.5" y="-231.5" font-family="Helvetica,sans-Serif" font-size="10.00">Utilities/Utils.hpp</text>
</a>
</g>
</g>
<!-- Node1&#45;&gt;Node39 -->
<g id="edge78" class="edge">
<title>Node1&#45;&gt;Node39</title>
<path fill="none" stroke="midnightblue" d="M201.08,-392.4C194.01,-366.75 183.52,-312.16 210.5,-280 229.04,-257.9 302.6,-245.99 356.78,-240.07"/>
<polygon fill="midnightblue" stroke="midnightblue" points="357.42,-243.53 367,-239.01 356.69,-236.57 357.42,-243.53"/>
</g>
<!-- Node40 -->
<g id="node40" class="node">
<title>Node40</title>
<g id="a_node40"><a xlink:title=" ">
<polygon fill="white" stroke="#bfbfbf" points="737.5,-336.5 737.5,-355.5 769.5,-355.5 769.5,-336.5 737.5,-336.5"/>
<text text-anchor="middle" x="753.5" y="-343.5" font-family="Helvetica,sans-Serif" font-size="10.00">list</text>
</a>
</g>
</g>
<!-- Node1&#45;&gt;Node40 -->
<g id="edge84" class="edge">
<title>Node1&#45;&gt;Node40</title>
<path fill="none" stroke="midnightblue" d="M260.8,-405.67C355.22,-403.27 553.42,-393.98 727.42,-355.7"/>
<polygon fill="midnightblue" stroke="midnightblue" points="728.27,-359.1 737.27,-353.5 726.74,-352.27 728.27,-359.1"/>
</g>
<!-- Node3 -->
<g id="node3" class="node">
<title>Node3</title>
<g id="a_node3"><a xlink:href="AsioTCPServer_8hpp.html" target="_top" xlink:title=" ">
<polygon fill="white" stroke="black" points="1375,-280.5 1375,-299.5 1482,-299.5 1482,-280.5 1375,-280.5"/>
<text text-anchor="middle" x="1428.5" y="-287.5" font-family="Helvetica,sans-Serif" font-size="10.00">AsioTCPServer.hpp</text>
</a>
</g>
</g>
<!-- Node2&#45;&gt;Node3 -->
<g id="edge2" class="edge">
<title>Node2&#45;&gt;Node3</title>
<path fill="none" stroke="midnightblue" d="M719.66,-337.08C722.65,-336.68 725.61,-336.32 728.5,-336 962.19,-310.1 1241.55,-297.67 1364.77,-293.12"/>
<polygon fill="midnightblue" stroke="midnightblue" points="1364.92,-296.62 1374.78,-292.76 1364.66,-289.63 1364.92,-296.62"/>
</g>
<!-- Node8 -->
<g id="node8" class="node">
<title>Node8</title>
<g id="a_node8"><a xlink:title=" ">
<polygon fill="white" stroke="#bfbfbf" points="1365.5,-56.5 1365.5,-75.5 1425.5,-75.5 1425.5,-56.5 1365.5,-56.5"/>
<text text-anchor="middle" x="1395.5" y="-63.5" font-family="Helvetica,sans-Serif" font-size="10.00">iostream</text>
</a>
</g>
</g>
<!-- Node2&#45;&gt;Node8 -->
<g id="edge66" class="edge">
<title>Node2&#45;&gt;Node8</title>
<path fill="none" stroke="midnightblue" d="M719.65,-337.02C722.64,-336.64 725.61,-336.3 728.5,-336 1066.23,-301.47 1157.87,-362.78 1491.5,-300 1580.45,-283.26 1684.5,-325.51 1684.5,-235 1684.5,-235 1684.5,-235 1684.5,-177 1684.5,-124.4 1515.18,-87.88 1435.74,-73.64"/>
<polygon fill="midnightblue" stroke="midnightblue" points="1436.07,-70.14 1425.61,-71.85 1434.85,-77.03 1436.07,-70.14"/>
</g>
<!-- Node10 -->
<g id="node10" class="node">
<title>Node10</title>
<g id="a_node10"><a xlink:href="AsioTCPConnection_8hpp.html" target="_top" xlink:title=" ">
<polygon fill="white" stroke="black" points="857.5,-224.5 857.5,-243.5 1033.5,-243.5 1033.5,-224.5 857.5,-224.5"/>
<text text-anchor="middle" x="945.5" y="-231.5" font-family="Helvetica,sans-Serif" font-size="10.00">Network/AsioTCPConnection.hpp</text>
</a>
</g>
</g>
<!-- Node2&#45;&gt;Node10 -->
<g id="edge49" class="edge">
<title>Node2&#45;&gt;Node10</title>
<path fill="none" stroke="midnightblue" d="M719.68,-337.21C722.66,-336.79 725.62,-336.38 728.5,-336 804.27,-326.04 1019.37,-356.8 1070.5,-300 1094.56,-273.27 1049.74,-255.8 1007.23,-245.77"/>
<polygon fill="midnightblue" stroke="midnightblue" points="1007.9,-242.34 997.37,-243.57 1006.36,-249.17 1007.9,-242.34"/>
</g>
<!-- Node11 -->
<g id="node11" class="node">
<title>Node11</title>
<g id="a_node11"><a xlink:title=" ">
<polygon fill="white" stroke="#bfbfbf" points="812,-112.5 812,-131.5 877,-131.5 877,-112.5 812,-112.5"/>
<text text-anchor="middle" x="844.5" y="-119.5" font-family="Helvetica,sans-Serif" font-size="10.00">functional</text>
</a>
</g>
</g>
<!-- Node2&#45;&gt;Node11 -->
<g id="edge59" class="edge">
<title>Node2&#45;&gt;Node11</title>
<path fill="none" stroke="midnightblue" d="M663.93,-336.37C653.79,-323.72 638.1,-299.51 647.5,-280 682.59,-207.17 769.72,-157.66 815.44,-135.76"/>
<polygon fill="midnightblue" stroke="midnightblue" points="816.96,-138.92 824.53,-131.51 813.99,-132.58 816.96,-138.92"/>
</g>
<!-- Node16 -->
<g id="node16" class="node">
<title>Node16</title>
<g id="a_node16"><a xlink:title=" ">
<polygon fill="white" stroke="#bfbfbf" points="441.5,-112.5 441.5,-131.5 485.5,-131.5 485.5,-112.5 441.5,-112.5"/>
<text text-anchor="middle" x="463.5" y="-119.5" font-family="Helvetica,sans-Serif" font-size="10.00">string</text>
</a>
</g>
</g>
<!-- Node2&#45;&gt;Node16 -->
<g id="edge68" class="edge">
<title>Node2&#45;&gt;Node16</title>
<path fill="none" stroke="midnightblue" d="M638.17,-336.36C614.87,-329.2 583.86,-317.37 560.5,-300 505.72,-259.25 478.13,-178 468.08,-141.5"/>
<polygon fill="midnightblue" stroke="midnightblue" points="471.44,-140.49 465.52,-131.71 464.67,-142.27 471.44,-140.49"/>
</g>
<!-- Node18 -->
<g id="node18" class="node">
<title>Node18</title>
<g id="a_node18"><a xlink:href="Message_8hpp.html" target="_top" xlink:title=" ">
<polygon fill="white" stroke="black" points="668,-112.5 668,-131.5 793,-131.5 793,-112.5 668,-112.5"/>
<text text-anchor="middle" x="730.5" y="-119.5" font-family="Helvetica,sans-Serif" font-size="10.00">Network/Message.hpp</text>
</a>
</g>
</g>
<!-- Node2&#45;&gt;Node18 -->
<g id="edge50" class="edge">
<title>Node2&#45;&gt;Node18</title>
<path fill="none" stroke="midnightblue" d="M653.42,-336.39C639.94,-328.87 622.53,-316.57 614.5,-300 610.62,-292 612.25,-288.6 614.5,-280 628.97,-224.75 641.16,-212.06 677.5,-168 686.86,-156.65 699.32,-145.91 709.81,-137.77"/>
<polygon fill="midnightblue" stroke="midnightblue" points="712.15,-140.39 718.04,-131.58 707.94,-134.79 712.15,-140.39"/>
</g>
<!-- Node22 -->
<g id="node22" class="node">
<title>Node22</title>
<g id="a_node22"><a xlink:title=" ">
<polygon fill="white" stroke="#bfbfbf" points="153.5,-56.5 153.5,-75.5 217.5,-75.5 217.5,-56.5 153.5,-56.5"/>
<text text-anchor="middle" x="185.5" y="-63.5" font-family="Helvetica,sans-Serif" font-size="10.00">algorithm</text>
</a>
</g>
</g>
<!-- Node2&#45;&gt;Node22 -->
<g id="edge67" class="edge">
<title>Node2&#45;&gt;Node22</title>
<path fill="none" stroke="midnightblue" d="M623.48,-339.65C495.98,-324.98 156.45,-282.59 124.5,-244 83.8,-194.84 141.42,-116.96 170.48,-83.34"/>
<polygon fill="midnightblue" stroke="midnightblue" points="173.16,-85.59 177.18,-75.79 167.92,-80.95 173.16,-85.59"/>
</g>
<!-- Node29 -->
<g id="node29" class="node">
<title>Node29</title>
<g id="a_node29"><a xlink:href="RFCCodes_8hpp.html" target="_top" xlink:title=" ">
<polygon fill="white" stroke="black" points="266,-168.5 266,-187.5 397,-187.5 397,-168.5 266,-168.5"/>
<text text-anchor="middle" x="331.5" y="-175.5" font-family="Helvetica,sans-Serif" font-size="10.00">Network/RFCCodes.hpp</text>
</a>
</g>
</g>
<!-- Node2&#45;&gt;Node29 -->
<g id="edge51" class="edge">
<title>Node2&#45;&gt;Node29</title>
<path fill="none" stroke="midnightblue" d="M719.68,-337.25C722.66,-336.82 725.62,-336.39 728.5,-336 797.64,-326.52 1085.52,-330.63 1037.5,-280 985.43,-225.1 419.01,-288.06 357.5,-244 342.7,-233.4 336.32,-212.94 333.57,-197.8"/>
<polygon fill="midnightblue" stroke="midnightblue" points="336.98,-196.91 332.1,-187.51 330.05,-197.9 336.98,-196.91"/>
</g>
<!-- Node30 -->
<g id="node30" class="node">
<title>Node30</title>
<g id="a_node30"><a xlink:href="FreeList_8hpp.html" target="_top" xlink:title=" ">
<polygon fill="white" stroke="black" points="657,-280.5 657,-299.5 774,-299.5 774,-280.5 657,-280.5"/>
<text text-anchor="middle" x="715.5" y="-287.5" font-family="Helvetica,sans-Serif" font-size="10.00">Utilities/FreeList.hpp</text>
</a>
</g>
</g>
<!-- Node2&#45;&gt;Node30 -->
<g id="edge53" class="edge">
<title>Node2&#45;&gt;Node30</title>
<path fill="none" stroke="midnightblue" d="M678.77,-336.08C685.04,-328.38 694.29,-317.03 701.93,-307.65"/>
<polygon fill="midnightblue" stroke="midnightblue" points="704.77,-309.71 708.37,-299.75 699.34,-305.29 704.77,-309.71"/>
</g>
<!-- Node2&#45;&gt;Node31 -->
<g id="edge55" class="edge">
<title>Node2&#45;&gt;Node31</title>
<path fill="none" stroke="midnightblue" d="M623.32,-343.57C544.16,-340.41 382.06,-330.47 248.5,-300 176.27,-283.52 153.64,-284.34 91.5,-244 71.57,-231.06 53.4,-210.5 41.95,-195.97"/>
<polygon fill="midnightblue" stroke="midnightblue" points="44.59,-193.65 35.74,-187.82 39.03,-197.9 44.59,-193.65"/>
</g>
<!-- Node32 -->
<g id="node32" class="node">
<title>Node32</title>
<g id="a_node32"><a xlink:title=" ">
<polygon fill="white" stroke="#bfbfbf" points="792.5,-280.5 792.5,-299.5 834.5,-299.5 834.5,-280.5 792.5,-280.5"/>
<text text-anchor="middle" x="813.5" y="-287.5" font-family="Helvetica,sans-Serif" font-size="10.00">array</text>
</a>
</g>
</g>
<!-- Node2&#45;&gt;Node32 -->
<g id="edge58" class="edge">
<title>Node2&#45;&gt;Node32</title>
<path fill="none" stroke="midnightblue" d="M694,-336.44C717.99,-327.32 756.14,-312.81 782.86,-302.65"/>
<polygon fill="midnightblue" stroke="midnightblue" points="784.39,-305.81 792.49,-298.99 781.9,-299.27 784.39,-305.81"/>
</g>
<!-- Node2&#45;&gt;Node33 -->
<g id="edge60" class="edge">
<title>Node2&#45;&gt;Node33</title>
<path fill="none" stroke="midnightblue" d="M638.59,-336.37C618.26,-329.53 593.01,-318.04 576.5,-300 564.71,-287.12 558.57,-267.94 555.47,-253.75"/>
<polygon fill="midnightblue" stroke="midnightblue" points="558.86,-252.84 553.58,-243.66 551.98,-254.13 558.86,-252.84"/>
</g>
<!-- Node34 -->
<g id="node34" class="node">
<title>Node34</title>
<g id="a_node34"><a xlink:title=" ">
<polygon fill="white" stroke="#bfbfbf" points="852.5,-280.5 852.5,-299.5 890.5,-299.5 890.5,-280.5 852.5,-280.5"/>
<text text-anchor="middle" x="871.5" y="-287.5" font-family="Helvetica,sans-Serif" font-size="10.00">map</text>
</a>
</g>
</g>
<!-- Node2&#45;&gt;Node34 -->
<g id="edge69" class="edge">
<title>Node2&#45;&gt;Node34</title>
<path fill="none" stroke="midnightblue" d="M706.57,-336.43C739.4,-328.27 790.01,-315.35 842.45,-300.19"/>
<polygon fill="midnightblue" stroke="midnightblue" points="843.64,-303.49 852.26,-297.34 841.68,-296.77 843.64,-303.49"/>
</g>
<!-- Node35 -->
<g id="node35" class="node">
<title>Node35</title>
<g id="a_node35"><a xlink:title=" ">
<polygon fill="white" stroke="#bfbfbf" points="908.5,-280.5 908.5,-299.5 964.5,-299.5 964.5,-280.5 908.5,-280.5"/>
<text text-anchor="middle" x="936.5" y="-287.5" font-family="Helvetica,sans-Serif" font-size="10.00">iomanip</text>
</a>
</g>
</g>
<!-- Node2&#45;&gt;Node35 -->
<g id="edge70" class="edge">
<title>Node2&#45;&gt;Node35</title>
<path fill="none" stroke="midnightblue" d="M717.91,-336.46C761.91,-328.22 830.08,-315.1 898.2,-300.22"/>
<polygon fill="midnightblue" stroke="midnightblue" points="899.23,-303.57 908.25,-298.01 897.73,-296.74 899.23,-303.57"/>
</g>
<!-- Node36 -->
<g id="node36" class="node">
<title>Node36</title>
<g id="a_node36"><a xlink:title=" ">
<polygon fill="white" stroke="#bfbfbf" points="191.5,-168.5 191.5,-187.5 247.5,-187.5 247.5,-168.5 191.5,-168.5"/>
<text text-anchor="middle" x="219.5" y="-175.5" font-family="Helvetica,sans-Serif" font-size="10.00">sstream</text>
</a>
</g>
</g>
<!-- Node2&#45;&gt;Node36 -->
<g id="edge71" class="edge">
<title>Node2&#45;&gt;Node36</title>
<path fill="none" stroke="midnightblue" d="M628.26,-336.47C589.65,-328.44 531.77,-315.36 482.5,-300 416.95,-279.55 400.76,-272.96 338.5,-244 304.36,-228.12 266.42,-206.7 242.76,-192.87"/>
<polygon fill="midnightblue" stroke="midnightblue" points="244.24,-189.68 233.84,-187.62 240.69,-195.71 244.24,-189.68"/>
</g>
<!-- Node37 -->
<g id="node37" class="node">
<title>Node37</title>
<g id="a_node37"><a xlink:title=" ">
<polygon fill="white" stroke="#bfbfbf" points="983,-280.5 983,-299.5 1028,-299.5 1028,-280.5 983,-280.5"/>
<text text-anchor="middle" x="1005.5" y="-287.5" font-family="Helvetica,sans-Serif" font-size="10.00">utility</text>
</a>
</g>
</g>
<!-- Node2&#45;&gt;Node37 -->
<g id="edge72" class="edge">
<title>Node2&#45;&gt;Node37</title>
<path fill="none" stroke="midnightblue" d="M719.7,-337.35C722.67,-336.89 725.63,-336.44 728.5,-336 834.11,-319.9 864.12,-322.76 972.8,-299.9"/>
<polygon fill="midnightblue" stroke="midnightblue" points="973.81,-303.26 982.86,-297.75 972.35,-296.41 973.81,-303.26"/>
</g>
<!-- Node4 -->
<g id="node4" class="node">
<title>Node4</title>
<g id="a_node4"><a xlink:title=" ">
<polygon fill="white" stroke="#bfbfbf" points="1427.5,-168.5 1427.5,-187.5 1485.5,-187.5 1485.5,-168.5 1427.5,-168.5"/>
<text text-anchor="middle" x="1456.5" y="-175.5" font-family="Helvetica,sans-Serif" font-size="10.00">memory</text>
</a>
</g>
</g>
<!-- Node3&#45;&gt;Node4 -->
<g id="edge3" class="edge">
<title>Node3&#45;&gt;Node4</title>
<path fill="none" stroke="midnightblue" d="M1462.3,-280.39C1480.89,-273.74 1502.39,-262.45 1513.5,-244 1525.3,-224.4 1502.84,-205.09 1482.73,-192.68"/>
<polygon fill="midnightblue" stroke="midnightblue" points="1484.48,-189.65 1474.08,-187.65 1480.96,-195.7 1484.48,-189.65"/>
</g>
<!-- Node5 -->
<g id="node5" class="node">
<title>Node5</title>
<g id="a_node5"><a xlink:title=" ">
<polygon fill="white" stroke="#bfbfbf" points="1300,-56.5 1300,-75.5 1347,-75.5 1347,-56.5 1300,-56.5"/>
<text text-anchor="middle" x="1323.5" y="-63.5" font-family="Helvetica,sans-Serif" font-size="10.00">deque</text>
</a>
</g>
</g>
<!-- Node3&#45;&gt;Node5 -->
<g id="edge4" class="edge">
<title>Node3&#45;&gt;Node5</title>
<path fill="none" stroke="midnightblue" d="M1482.23,-281.82C1505.42,-275.76 1530.4,-264.59 1544.5,-244 1549.52,-236.67 1546.48,-232.67 1544.5,-224 1538.35,-197.06 1536.74,-187.84 1517.5,-168 1471.61,-120.68 1398.76,-91.1 1356.61,-76.95"/>
<polygon fill="midnightblue" stroke="midnightblue" points="1357.68,-73.62 1347.09,-73.85 1355.51,-80.28 1357.68,-73.62"/>
</g>
<!-- Node6 -->
<g id="node6" class="node">
<title>Node6</title>
<g id="a_node6"><a xlink:title=" ">
<polygon fill="white" stroke="#bfbfbf" points="1456.5,-224.5 1456.5,-243.5 1504.5,-243.5 1504.5,-224.5 1456.5,-224.5"/>
<text text-anchor="middle" x="1480.5" y="-231.5" font-family="Helvetica,sans-Serif" font-size="10.00">thread</text>
</a>
</g>
</g>
<!-- Node3&#45;&gt;Node6 -->
<g id="edge5" class="edge">
<title>Node3&#45;&gt;Node6</title>
<path fill="none" stroke="midnightblue" d="M1437.09,-280.08C1444.66,-272.22 1455.88,-260.57 1465.01,-251.08"/>
<polygon fill="midnightblue" stroke="midnightblue" points="1467.66,-253.38 1472.07,-243.75 1462.62,-248.53 1467.66,-253.38"/>
</g>
<!-- Node7 -->
<g id="node7" class="node">
<title>Node7</title>
<g id="a_node7"><a xlink:title=" ">
<polygon fill="white" stroke="#bfbfbf" points="755.5,-0.5 755.5,-19.5 805.5,-19.5 805.5,-0.5 755.5,-0.5"/>
<text text-anchor="middle" x="780.5" y="-7.5" font-family="Helvetica,sans-Serif" font-size="10.00">cstdint</text>
</a>
</g>
</g>
<!-- Node3&#45;&gt;Node7 -->
<g id="edge6" class="edge">
<title>Node3&#45;&gt;Node7</title>
<path fill="none" stroke="midnightblue" d="M1429.31,-280.27C1430.9,-267.06 1435.4,-241.65 1447.5,-224 1462.37,-202.29 1482.85,-211.59 1494.5,-188 1516.3,-143.85 1525.76,-110.17 1453.5,-56 1451.89,-54.79 953.74,-22.28 815.63,-13.29"/>
<polygon fill="midnightblue" stroke="midnightblue" points="815.79,-9.79 805.59,-12.63 815.34,-16.77 815.79,-9.79"/>
</g>
<!-- Node3&#45;&gt;Node8 -->
<g id="edge7" class="edge">
<title>Node3&#45;&gt;Node8</title>
<path fill="none" stroke="midnightblue" d="M1482.23,-281.82C1505.42,-275.76 1530.4,-264.59 1544.5,-244 1549.52,-236.67 1546.48,-232.67 1544.5,-224 1529.03,-156.29 1458.22,-104.51 1420.05,-80.95"/>
<polygon fill="midnightblue" stroke="midnightblue" points="1421.48,-77.73 1411.11,-75.58 1417.88,-83.73 1421.48,-77.73"/>
</g>
<!-- Node9 -->
<g id="node9" class="node">
<title>Node9</title>
<g id="a_node9"><a xlink:title=" ">
<polygon fill="white" stroke="#bfbfbf" points="1123.5,-168.5 1123.5,-187.5 1181.5,-187.5 1181.5,-168.5 1123.5,-168.5"/>
<text text-anchor="middle" x="1152.5" y="-175.5" font-family="Helvetica,sans-Serif" font-size="10.00">asio.hpp</text>
</a>
</g>
</g>
<!-- Node3&#45;&gt;Node9 -->
<g id="edge8" class="edge">
<title>Node3&#45;&gt;Node9</title>
<path fill="none" stroke="midnightblue" d="M1374.84,-285.9C1282.04,-279.99 1099.6,-265.73 1080.5,-244 1063,-224.09 1094.25,-204.08 1120.92,-191.63"/>
<polygon fill="midnightblue" stroke="midnightblue" points="1122.36,-194.82 1130.07,-187.55 1119.51,-188.43 1122.36,-194.82"/>
</g>
<!-- Node3&#45;&gt;Node10 -->
<g id="edge9" class="edge">
<title>Node3&#45;&gt;Node10</title>
<path fill="none" stroke="midnightblue" d="M1374.97,-283.01C1291.97,-273.74 1131.47,-255.79 1031.92,-244.66"/>
<polygon fill="midnightblue" stroke="midnightblue" points="1032.21,-241.17 1021.88,-243.54 1031.43,-248.13 1032.21,-241.17"/>
</g>
<!-- Node23 -->
<g id="node23" class="node">
<title>Node23</title>
<g id="a_node23"><a xlink:href="TSQueue_8hpp.html" target="_top" xlink:title=" ">
<polygon fill="white" stroke="black" points="1167.5,-112.5 1167.5,-131.5 1289.5,-131.5 1289.5,-112.5 1167.5,-112.5"/>
<text text-anchor="middle" x="1228.5" y="-119.5" font-family="Helvetica,sans-Serif" font-size="10.00">Utilities/TSQueue.hpp</text>
</a>
</g>
</g>
<!-- Node3&#45;&gt;Node23 -->
<g id="edge44" class="edge">
<title>Node3&#45;&gt;Node23</title>
<path fill="none" stroke="midnightblue" d="M1473.2,-280.48C1493.73,-274.09 1516.2,-263.02 1528.5,-244 1546.93,-215.49 1504.93,-175.08 1494.5,-168 1463.54,-146.98 1367.59,-134.67 1299.84,-128.38"/>
<polygon fill="midnightblue" stroke="midnightblue" points="1299.92,-124.88 1289.65,-127.46 1299.29,-131.85 1299.92,-124.88"/>
</g>
<!-- Node27 -->
<g id="node27" class="node">
<title>Node27</title>
<g id="a_node27"><a xlink:href="ITCPServer_8hpp.html" target="_top" xlink:title=" ">
<polygon fill="white" stroke="black" points="1266.5,-224.5 1266.5,-243.5 1400.5,-243.5 1400.5,-224.5 1266.5,-224.5"/>
<text text-anchor="middle" x="1333.5" y="-231.5" font-family="Helvetica,sans-Serif" font-size="10.00">Network/ITCPServer.hpp</text>
</a>
</g>
</g>
<!-- Node3&#45;&gt;Node27 -->
<g id="edge36" class="edge">
<title>Node3&#45;&gt;Node27</title>
<path fill="none" stroke="midnightblue" d="M1413.24,-280.32C1398.28,-271.82 1375.25,-258.73 1357.77,-248.8"/>
<polygon fill="midnightblue" stroke="midnightblue" points="1359.15,-245.55 1348.73,-243.65 1355.69,-251.64 1359.15,-245.55"/>
</g>
<!-- Node28 -->
<g id="node28" class="node">
<title>Node28</title>
<g id="a_node28"><a xlink:href="OwnedMessage_8hpp.html" target="_top" xlink:title=" ">
<polygon fill="white" stroke="black" points="1089,-224.5 1089,-243.5 1248,-243.5 1248,-224.5 1089,-224.5"/>
<text text-anchor="middle" x="1168.5" y="-231.5" font-family="Helvetica,sans-Serif" font-size="10.00">Network/OwnedMessage.hpp</text>
</a>
</g>
</g>
<!-- Node3&#45;&gt;Node28 -->
<g id="edge45" class="edge">
<title>Node3&#45;&gt;Node28</title>
<path fill="none" stroke="midnightblue" d="M1387.3,-280.44C1341.85,-271 1268.66,-255.8 1219.59,-245.61"/>
<polygon fill="midnightblue" stroke="midnightblue" points="1220.01,-242.12 1209.51,-243.52 1218.58,-248.98 1220.01,-242.12"/>
</g>
<!-- Node10&#45;&gt;Node9 -->
<g id="edge11" class="edge">
<title>Node10&#45;&gt;Node9</title>
<path fill="none" stroke="midnightblue" d="M978.3,-224.44C1014.93,-214.89 1074.18,-199.43 1113.24,-189.24"/>
<polygon fill="midnightblue" stroke="midnightblue" points="1114.41,-192.55 1123.2,-186.64 1112.64,-185.78 1114.41,-192.55"/>
</g>
<!-- Node10&#45;&gt;Node11 -->
<g id="edge10" class="edge">
<title>Node10&#45;&gt;Node11</title>
<path fill="none" stroke="midnightblue" d="M962.11,-224.43C983.55,-212.24 1016.32,-189.03 1000.5,-168 986.83,-149.83 928.44,-136.69 887.12,-129.46"/>
<polygon fill="midnightblue" stroke="midnightblue" points="887.46,-125.96 877.02,-127.74 886.29,-132.87 887.46,-125.96"/>
</g>
<!-- Node12 -->
<g id="node12" class="node">
<title>Node12</title>
<g id="a_node12"><a xlink:title=" ">
<polygon fill="white" stroke="#bfbfbf" points="837,-56.5 837,-75.5 866,-75.5 866,-56.5 837,-56.5"/>
<text text-anchor="middle" x="851.5" y="-63.5" font-family="Helvetica,sans-Serif" font-size="10.00">bit</text>
</a>
</g>
</g>
<!-- Node10&#45;&gt;Node12 -->
<g id="edge12" class="edge">
<title>Node10&#45;&gt;Node12</title>
<path fill="none" stroke="midnightblue" d="M968.86,-224.31C994.52,-213.32 1030.39,-192.78 1016.5,-168 1000.88,-140.13 917.35,-97.9 875.47,-78.05"/>
<polygon fill="midnightblue" stroke="midnightblue" points="876.8,-74.81 866.26,-73.73 873.82,-81.14 876.8,-74.81"/>
</g>
<!-- Node13 -->
<g id="node13" class="node">
<title>Node13</title>
<g id="a_node13"><a xlink:href="SwapEndian_8hpp.html" target="_top" xlink:title=" ">
<polygon fill="white" stroke="black" points="884.5,-56.5 884.5,-75.5 1022.5,-75.5 1022.5,-56.5 884.5,-56.5"/>
<text text-anchor="middle" x="953.5" y="-63.5" font-family="Helvetica,sans-Serif" font-size="10.00">Utilities/SwapEndian.hpp</text>
</a>
</g>
</g>
<!-- Node10&#45;&gt;Node13 -->
<g id="edge13" class="edge">
<title>Node10&#45;&gt;Node13</title>
<path fill="none" stroke="midnightblue" d="M1013.61,-224.48C1035.74,-218.12 1058.05,-207.08 1071.5,-188 1090.96,-160.39 1090.66,-139.82 1071.5,-112 1060.27,-95.7 1042.29,-85.3 1023.72,-78.67"/>
<polygon fill="midnightblue" stroke="midnightblue" points="1024.57,-75.27 1013.98,-75.53 1022.43,-81.93 1024.57,-75.27"/>
</g>
<!-- Node15 -->
<g id="node15" class="node">
<title>Node15</title>
<g id="a_node15"><a xlink:href="ITCPConnection_8hpp.html" target="_top" xlink:title=" ">
<polygon fill="white" stroke="black" points="833.5,-168.5 833.5,-187.5 991.5,-187.5 991.5,-168.5 833.5,-168.5"/>
<text text-anchor="middle" x="912.5" y="-175.5" font-family="Helvetica,sans-Serif" font-size="10.00">Network/ITCPConnection.hpp</text>
</a>
</g>
</g>
<!-- Node10&#45;&gt;Node15 -->
<g id="edge16" class="edge">
<title>Node10&#45;&gt;Node15</title>
<path fill="none" stroke="midnightblue" d="M940.05,-224.08C935.49,-216.61 928.83,-205.72 923.21,-196.52"/>
<polygon fill="midnightblue" stroke="midnightblue" points="926.05,-194.46 917.85,-187.75 920.08,-198.11 926.05,-194.46"/>
</g>
<!-- Node10&#45;&gt;Node18 -->
<g id="edge35" class="edge">
<title>Node10&#45;&gt;Node18</title>
<path fill="none" stroke="midnightblue" d="M916.28,-224.39C891.22,-216.49 854.51,-203.64 824.5,-188 796.68,-173.5 767.36,-152.11 749.01,-137.88"/>
<polygon fill="midnightblue" stroke="midnightblue" points="750.97,-134.96 740.94,-131.53 746.64,-140.46 750.97,-134.96"/>
</g>
<!-- Node13&#45;&gt;Node7 -->
<g id="edge15" class="edge">
<title>Node13&#45;&gt;Node7</title>
<path fill="none" stroke="midnightblue" d="M926.09,-56.44C896.04,-47.06 847.77,-32 815.13,-21.81"/>
<polygon fill="midnightblue" stroke="midnightblue" points="816.13,-18.45 805.54,-18.82 814.04,-25.14 816.13,-18.45"/>
</g>
<!-- Node14 -->
<g id="node14" class="node">
<title>Node14</title>
<g id="a_node14"><a xlink:title=" ">
<polygon fill="white" stroke="#bfbfbf" points="928.5,-0.5 928.5,-19.5 978.5,-19.5 978.5,-0.5 928.5,-0.5"/>
<text text-anchor="middle" x="953.5" y="-7.5" font-family="Helvetica,sans-Serif" font-size="10.00">climits</text>
</a>
</g>
</g>
<!-- Node13&#45;&gt;Node14 -->
<g id="edge14" class="edge">
<title>Node13&#45;&gt;Node14</title>
<path fill="none" stroke="midnightblue" d="M953.5,-56.08C953.5,-49.01 953.5,-38.86 953.5,-29.99"/>
<polygon fill="midnightblue" stroke="midnightblue" points="957,-29.75 953.5,-19.75 950,-29.75 957,-29.75"/>
</g>
<!-- Node15&#45;&gt;Node11 -->
<g id="edge19" class="edge">
<title>Node15&#45;&gt;Node11</title>
<path fill="none" stroke="midnightblue" d="M901.57,-168.32C891.33,-160.18 875.78,-147.84 863.5,-138.09"/>
<polygon fill="midnightblue" stroke="midnightblue" points="865.63,-135.31 855.62,-131.83 861.28,-140.79 865.63,-135.31"/>
</g>
<!-- Node15&#45;&gt;Node16 -->
<g id="edge17" class="edge">
<title>Node15&#45;&gt;Node16</title>
<path fill="none" stroke="midnightblue" d="M841.35,-168.44C742.57,-156.56 567.9,-135.56 495.91,-126.9"/>
<polygon fill="midnightblue" stroke="midnightblue" points="496,-123.38 485.66,-125.66 495.17,-130.33 496,-123.38"/>
</g>
<!-- Node17 -->
<g id="node17" class="node">
<title>Node17</title>
<g id="a_node17"><a xlink:title=" ">
<polygon fill="white" stroke="#bfbfbf" points="772,-56.5 772,-75.5 819,-75.5 819,-56.5 772,-56.5"/>
<text text-anchor="middle" x="795.5" y="-63.5" font-family="Helvetica,sans-Serif" font-size="10.00">vector</text>
</a>
</g>
</g>
<!-- Node15&#45;&gt;Node17 -->
<g id="edge18" class="edge">
<title>Node15&#45;&gt;Node17</title>
<path fill="none" stroke="midnightblue" d="M911.09,-168.36C908.47,-154.82 901.68,-128.42 886.5,-112 871.02,-95.25 847.93,-83.93 828.88,-76.84"/>
<polygon fill="midnightblue" stroke="midnightblue" points="829.95,-73.5 819.35,-73.51 827.64,-80.11 829.95,-73.5"/>
</g>
<!-- Node15&#45;&gt;Node18 -->
<g id="edge20" class="edge">
<title>Node15&#45;&gt;Node18</title>
<path fill="none" stroke="midnightblue" d="M883.66,-168.44C852.64,-159.24 803.17,-144.56 768.88,-134.39"/>
<polygon fill="midnightblue" stroke="midnightblue" points="769.79,-131.01 759.2,-131.52 767.79,-137.72 769.79,-131.01"/>
</g>
<!-- Node15&#45;&gt;Node23 -->
<g id="edge30" class="edge">
<title>Node15&#45;&gt;Node23</title>
<path fill="none" stroke="midnightblue" d="M962.57,-168.44C1018.51,-158.89 1109.01,-143.42 1168.64,-133.23"/>
<polygon fill="midnightblue" stroke="midnightblue" points="1169.4,-136.65 1178.66,-131.52 1168.22,-129.75 1169.4,-136.65"/>
</g>
<!-- Node18&#45;&gt;Node7 -->
<g id="edge25" class="edge">
<title>Node18&#45;&gt;Node7</title>
<path fill="none" stroke="midnightblue" d="M719.69,-112.47C705.16,-99.93 682.48,-75.86 694.5,-56 705.6,-37.67 726.88,-26.45 745.5,-19.79"/>
<polygon fill="midnightblue" stroke="midnightblue" points="746.78,-23.06 755.21,-16.63 744.62,-16.4 746.78,-23.06"/>
</g>
<!-- Node18&#45;&gt;Node8 -->
<g id="edge28" class="edge">
<title>Node18&#45;&gt;Node8</title>
<path fill="none" stroke="midnightblue" d="M793.39,-113.01C796.81,-112.65 800.19,-112.31 803.5,-112 1045.36,-89.24 1111.03,-111.19 1355.1,-75.96"/>
<polygon fill="midnightblue" stroke="midnightblue" points="1355.97,-79.37 1365.36,-74.46 1354.96,-72.45 1355.97,-79.37"/>
</g>
<!-- Node18&#45;&gt;Node12 -->
<g id="edge29" class="edge">
<title>Node18&#45;&gt;Node12</title>
<path fill="none" stroke="midnightblue" d="M749.67,-112.44C770.8,-103.01 804.81,-87.83 827.65,-77.64"/>
<polygon fill="midnightblue" stroke="midnightblue" points="829.27,-80.75 836.97,-73.48 826.42,-74.36 829.27,-80.75"/>
</g>
<!-- Node18&#45;&gt;Node13 -->
<g id="edge23" class="edge">
<title>Node18&#45;&gt;Node13</title>
<path fill="none" stroke="midnightblue" d="M765.84,-112.44C804.41,-103.1 866.28,-88.12 908.35,-77.93"/>
<polygon fill="midnightblue" stroke="midnightblue" points="909.43,-81.27 918.33,-75.52 907.79,-74.47 909.43,-81.27"/>
</g>
<!-- Node18&#45;&gt;Node17 -->
<g id="edge26" class="edge">
<title>Node18&#45;&gt;Node17</title>
<path fill="none" stroke="midnightblue" d="M740.94,-112.32C750.65,-104.26 765.32,-92.08 777,-82.37"/>
<polygon fill="midnightblue" stroke="midnightblue" points="779.41,-84.92 784.87,-75.83 774.94,-79.53 779.41,-84.92"/>
</g>
<!-- Node19 -->
<g id="node19" class="node">
<title>Node19</title>
<g id="a_node19"><a xlink:href="BabelException_8hpp.html" target="_top" xlink:title=" ">
<polygon fill="white" stroke="black" points="477.5,-56.5 477.5,-75.5 647.5,-75.5 647.5,-56.5 477.5,-56.5"/>
<text text-anchor="middle" x="562.5" y="-63.5" font-family="Helvetica,sans-Serif" font-size="10.00">Exceptions/BabelException.hpp</text>
</a>
</g>
</g>
<!-- Node18&#45;&gt;Node19 -->
<g id="edge21" class="edge">
<title>Node18&#45;&gt;Node19</title>
<path fill="none" stroke="midnightblue" d="M703.88,-112.44C675.49,-103.32 630.36,-88.81 598.75,-78.65"/>
<polygon fill="midnightblue" stroke="midnightblue" points="599.59,-75.24 589,-75.52 597.44,-81.91 599.59,-75.24"/>
</g>
<!-- Node21 -->
<g id="node21" class="node">
<title>Node21</title>
<g id="a_node21"><a xlink:title=" ">
<polygon fill="white" stroke="#bfbfbf" points="703.5,-56.5 703.5,-75.5 753.5,-75.5 753.5,-56.5 703.5,-56.5"/>
<text text-anchor="middle" x="728.5" y="-63.5" font-family="Helvetica,sans-Serif" font-size="10.00">cstring</text>
</a>
</g>
</g>
<!-- Node18&#45;&gt;Node21 -->
<g id="edge24" class="edge">
<title>Node18&#45;&gt;Node21</title>
<path fill="none" stroke="midnightblue" d="M730.17,-112.08C729.91,-105.01 729.53,-94.86 729.2,-85.99"/>
<polygon fill="midnightblue" stroke="midnightblue" points="732.69,-85.61 728.82,-75.75 725.7,-85.87 732.69,-85.61"/>
</g>
<!-- Node18&#45;&gt;Node22 -->
<g id="edge27" class="edge">
<title>Node18&#45;&gt;Node22</title>
<path fill="none" stroke="midnightblue" d="M667.98,-114.81C555.87,-103.7 323.45,-80.67 227.91,-71.2"/>
<polygon fill="midnightblue" stroke="midnightblue" points="228.05,-67.7 217.76,-70.2 227.36,-74.67 228.05,-67.7"/>
</g>
<!-- Node20 -->
<g id="node20" class="node">
<title>Node20</title>
<g id="a_node20"><a xlink:title=" ">
<polygon fill="white" stroke="#bfbfbf" points="530,-0.5 530,-19.5 595,-19.5 595,-0.5 530,-0.5"/>
<text text-anchor="middle" x="562.5" y="-7.5" font-family="Helvetica,sans-Serif" font-size="10.00">stdexcept</text>
</a>
</g>
</g>
<!-- Node19&#45;&gt;Node20 -->
<g id="edge22" class="edge">
<title>Node19&#45;&gt;Node20</title>
<path fill="none" stroke="midnightblue" d="M562.5,-56.08C562.5,-49.01 562.5,-38.86 562.5,-29.99"/>
<polygon fill="midnightblue" stroke="midnightblue" points="566,-29.75 562.5,-19.75 559,-29.75 566,-29.75"/>
</g>
<!-- Node23&#45;&gt;Node5 -->
<g id="edge33" class="edge">
<title>Node23&#45;&gt;Node5</title>
<path fill="none" stroke="midnightblue" d="M1243.76,-112.32C1258.72,-103.82 1281.75,-90.73 1299.23,-80.8"/>
<polygon fill="midnightblue" stroke="midnightblue" points="1301.31,-83.64 1308.27,-75.65 1297.85,-77.55 1301.31,-83.64"/>
</g>
<!-- Node24 -->
<g id="node24" class="node">
<title>Node24</title>
<g id="a_node24"><a xlink:title=" ">
<polygon fill="white" stroke="#bfbfbf" points="1108.5,-56.5 1108.5,-75.5 1156.5,-75.5 1156.5,-56.5 1108.5,-56.5"/>
<text text-anchor="middle" x="1132.5" y="-63.5" font-family="Helvetica,sans-Serif" font-size="10.00">mutex</text>
</a>
</g>
</g>
<!-- Node23&#45;&gt;Node24 -->
<g id="edge31" class="edge">
<title>Node23&#45;&gt;Node24</title>
<path fill="none" stroke="midnightblue" d="M1213.08,-112.32C1197.96,-103.82 1174.68,-90.73 1157.03,-80.8"/>
<polygon fill="midnightblue" stroke="midnightblue" points="1158.32,-77.51 1147.89,-75.65 1154.89,-83.61 1158.32,-77.51"/>
</g>
<!-- Node25 -->
<g id="node25" class="node">
<title>Node25</title>
<g id="a_node25"><a xlink:title=" ">
<polygon fill="white" stroke="#bfbfbf" points="1175,-56.5 1175,-75.5 1282,-75.5 1282,-56.5 1175,-56.5"/>
<text text-anchor="middle" x="1228.5" y="-63.5" font-family="Helvetica,sans-Serif" font-size="10.00">condition_variable</text>
</a>
</g>
</g>
<!-- Node23&#45;&gt;Node25 -->
<g id="edge32" class="edge">
<title>Node23&#45;&gt;Node25</title>
<path fill="none" stroke="midnightblue" d="M1228.5,-112.08C1228.5,-105.01 1228.5,-94.86 1228.5,-85.99"/>
<polygon fill="midnightblue" stroke="midnightblue" points="1232,-85.75 1228.5,-75.75 1225,-85.75 1232,-85.75"/>
</g>
<!-- Node26 -->
<g id="node26" class="node">
<title>Node26</title>
<g id="a_node26"><a xlink:title=" ">
<polygon fill="white" stroke="#bfbfbf" points="1040.5,-56.5 1040.5,-75.5 1090.5,-75.5 1090.5,-56.5 1040.5,-56.5"/>
<text text-anchor="middle" x="1065.5" y="-63.5" font-family="Helvetica,sans-Serif" font-size="10.00">chrono</text>
</a>
</g>
</g>
<!-- Node23&#45;&gt;Node26 -->
<g id="edge34" class="edge">
<title>Node23&#45;&gt;Node26</title>
<path fill="none" stroke="midnightblue" d="M1202.67,-112.44C1175.09,-103.31 1131.21,-88.77 1100.53,-78.6"/>
<polygon fill="midnightblue" stroke="midnightblue" points="1101.26,-75.16 1090.67,-75.34 1099.06,-81.81 1101.26,-75.16"/>
</g>
<!-- Node27&#45;&gt;Node4 -->
<g id="edge38" class="edge">
<title>Node27&#45;&gt;Node4</title>
<path fill="none" stroke="midnightblue" d="M1352.99,-224.44C1373.14,-215.6 1404.82,-201.69 1427.83,-191.59"/>
<polygon fill="midnightblue" stroke="midnightblue" points="1429.35,-194.74 1437.1,-187.52 1426.54,-188.33 1429.35,-194.74"/>
</g>
<!-- Node27&#45;&gt;Node7 -->
<g id="edge37" class="edge">
<title>Node27&#45;&gt;Node7</title>
<path fill="none" stroke="midnightblue" d="M1345.44,-224.36C1381.86,-197.04 1485.93,-111.09 1434.5,-56 1433.17,-54.57 952.02,-22.42 815.96,-13.36"/>
<polygon fill="midnightblue" stroke="midnightblue" points="815.89,-9.85 805.68,-12.68 815.42,-16.83 815.89,-9.85"/>
</g>
<!-- Node27&#45;&gt;Node15 -->
<g id="edge43" class="edge">
<title>Node27&#45;&gt;Node15</title>
<path fill="none" stroke="midnightblue" d="M1266.79,-224.44C1191.19,-214.75 1068.2,-198.97 988.83,-188.79"/>
<polygon fill="midnightblue" stroke="midnightblue" points="989.26,-185.32 978.9,-187.52 988.37,-192.26 989.26,-185.32"/>
</g>
<!-- Node27&#45;&gt;Node16 -->
<g id="edge39" class="edge">
<title>Node27&#45;&gt;Node16</title>
<path fill="none" stroke="midnightblue" d="M1266.38,-224.92C1263.38,-224.6 1260.41,-224.29 1257.5,-224 1065.36,-204.64 1015.97,-213.14 824.5,-188 702.44,-171.97 558.87,-143.09 495.88,-129.9"/>
<polygon fill="midnightblue" stroke="midnightblue" points="496.28,-126.41 485.77,-127.78 494.84,-133.26 496.28,-126.41"/>
</g>
<!-- Node27&#45;&gt;Node17 -->
<g id="edge40" class="edge">
<title>Node27&#45;&gt;Node17</title>
<path fill="none" stroke="midnightblue" d="M1324.33,-224.37C1308.9,-210.34 1276.21,-182.68 1243.5,-168 1074.08,-91.97 1013.97,-120.3 829.02,-76"/>
<polygon fill="midnightblue" stroke="midnightblue" points="829.8,-72.59 819.26,-73.63 828.15,-79.39 829.8,-72.59"/>
</g>
<!-- Node27&#45;&gt;Node18 -->
<g id="edge41" class="edge">
<title>Node27&#45;&gt;Node18</title>
<path fill="none" stroke="midnightblue" d="M1320.85,-224.41C1298.76,-209.92 1251.24,-180.92 1206.5,-168 1033.73,-118.12 982.32,-151 803.5,-132 803.39,-131.99 803.29,-131.98 803.18,-131.97"/>
<polygon fill="midnightblue" stroke="midnightblue" points="803.33,-128.46 793,-130.85 802.56,-135.42 803.33,-128.46"/>
</g>
<!-- Node27&#45;&gt;Node23 -->
<g id="edge42" class="edge">
<title>Node27&#45;&gt;Node23</title>
<path fill="none" stroke="midnightblue" d="M1330.55,-224.12C1325.76,-210.71 1315.2,-185.06 1299.5,-168 1287.42,-154.87 1270.69,-144.02 1256.51,-136.27"/>
<polygon fill="midnightblue" stroke="midnightblue" points="1258.11,-133.16 1247.62,-131.63 1254.87,-139.36 1258.11,-133.16"/>
</g>
<!-- Node28&#45;&gt;Node8 -->
<g id="edge46" class="edge">
<title>Node28&#45;&gt;Node8</title>
<path fill="none" stroke="midnightblue" d="M1180.38,-224.31C1217.16,-197.42 1329.38,-115.35 1375.44,-81.67"/>
<polygon fill="midnightblue" stroke="midnightblue" points="1377.73,-84.33 1383.73,-75.61 1373.59,-78.68 1377.73,-84.33"/>
</g>
<!-- Node28&#45;&gt;Node15 -->
<g id="edge48" class="edge">
<title>Node28&#45;&gt;Node15</title>
<path fill="none" stroke="midnightblue" d="M1127.94,-224.44C1083.18,-215 1011.12,-199.8 962.8,-189.61"/>
<polygon fill="midnightblue" stroke="midnightblue" points="963.38,-186.16 952.87,-187.52 961.94,-193.01 963.38,-186.16"/>
</g>
<!-- Node28&#45;&gt;Node18 -->
<g id="edge47" class="edge">
<title>Node28&#45;&gt;Node18</title>
<path fill="none" stroke="midnightblue" d="M1176.25,-224.31C1187.44,-210.69 1205.27,-184.2 1190.5,-168 1161.41,-136.08 846.44,-136.64 803.5,-132 803.39,-131.99 803.29,-131.98 803.18,-131.97"/>
<polygon fill="midnightblue" stroke="midnightblue" points="803.33,-128.46 793.01,-130.83 802.56,-135.42 803.33,-128.46"/>
</g>
<!-- Node29&#45;&gt;Node7 -->
<g id="edge52" class="edge">
<title>Node29&#45;&gt;Node7</title>
<path fill="none" stroke="midnightblue" d="M338.08,-168.43C356.1,-145.67 408.88,-83.58 468.5,-56 517.16,-33.49 674.11,-19.07 745.08,-13.55"/>
<polygon fill="midnightblue" stroke="midnightblue" points="745.59,-17.02 755.3,-12.77 745.06,-10.04 745.59,-17.02"/>
</g>
<!-- Node30&#45;&gt;Node11 -->
<g id="edge54" class="edge">
<title>Node30&#45;&gt;Node11</title>
<path fill="none" stroke="midnightblue" d="M722.44,-280.08C743.09,-253.49 804.45,-174.54 831.47,-139.76"/>
<polygon fill="midnightblue" stroke="midnightblue" points="834.47,-141.61 837.84,-131.57 828.94,-137.32 834.47,-141.61"/>
</g>
<!-- Node31&#45;&gt;Node7 -->
<g id="edge57" class="edge">
<title>Node31&#45;&gt;Node7</title>
<path fill="none" stroke="midnightblue" d="M33.99,-168.47C47.11,-144.68 88.01,-77.86 144.5,-56 172.68,-45.1 615.52,-20.05 745.13,-12.93"/>
<polygon fill="midnightblue" stroke="midnightblue" points="745.5,-16.41 755.3,-12.37 745.12,-9.42 745.5,-16.41"/>
</g>
<!-- Node31&#45;&gt;Node16 -->
<g id="edge56" class="edge">
<title>Node31&#45;&gt;Node16</title>
<path fill="none" stroke="midnightblue" d="M59.33,-173.29C137.77,-163.53 349.39,-137.2 430.89,-127.06"/>
<polygon fill="midnightblue" stroke="midnightblue" points="431.56,-130.5 441.05,-125.79 430.7,-123.55 431.56,-130.5"/>
</g>
<!-- Node33&#45;&gt;Node15 -->
<g id="edge65" class="edge">
<title>Node33&#45;&gt;Node15</title>
<path fill="none" stroke="midnightblue" d="M580.75,-228.76C637.42,-220.26 766.32,-200.93 845.73,-189.02"/>
<polygon fill="midnightblue" stroke="midnightblue" points="846.27,-192.47 855.64,-187.53 845.23,-185.55 846.27,-192.47"/>
</g>
<!-- Node33&#45;&gt;Node16 -->
<g id="edge62" class="edge">
<title>Node33&#45;&gt;Node16</title>
<path fill="none" stroke="midnightblue" d="M545.52,-224.37C530.76,-206.14 496.21,-163.43 476.99,-139.68"/>
<polygon fill="midnightblue" stroke="midnightblue" points="479.46,-137.16 470.45,-131.59 474.02,-141.57 479.46,-137.16"/>
</g>
<!-- Node33&#45;&gt;Node17 -->
<g id="edge61" class="edge">
<title>Node33&#45;&gt;Node17</title>
<path fill="none" stroke="midnightblue" d="M557.77,-224.18C571.56,-201.88 610.99,-142.84 659.5,-112 668.35,-106.38 724.56,-88.63 761.89,-77.18"/>
<polygon fill="midnightblue" stroke="midnightblue" points="763.32,-80.4 771.86,-74.13 761.28,-73.71 763.32,-80.4"/>
</g>
<!-- Node33&#45;&gt;Node18 -->
<g id="edge63" class="edge">
<title>Node33&#45;&gt;Node18</title>
<path fill="none" stroke="midnightblue" d="M562.77,-224.35C578.62,-211.23 610.25,-185.95 639.5,-168 659.36,-155.81 682.99,-144.21 701.19,-135.84"/>
<polygon fill="midnightblue" stroke="midnightblue" points="702.75,-138.97 710.42,-131.65 699.87,-132.59 702.75,-138.97"/>
</g>
<!-- Node33&#45;&gt;Node29 -->
<g id="edge64" class="edge">
<title>Node33&#45;&gt;Node29</title>
<path fill="none" stroke="midnightblue" d="M524.06,-226.05C486.64,-216.91 420.45,-200.73 376.28,-189.94"/>
<polygon fill="midnightblue" stroke="midnightblue" points="376.92,-186.5 366.38,-187.52 375.26,-193.3 376.92,-186.5"/>
</g>
<!-- Node38&#45;&gt;Node16 -->
<g id="edge74" class="edge">
<title>Node38&#45;&gt;Node16</title>
<path fill="none" stroke="midnightblue" d="M179.46,-224.3C161.6,-211.34 133.46,-186.5 149.5,-168 185.7,-126.24 358.13,-122.3 430.94,-122.55"/>
<polygon fill="midnightblue" stroke="midnightblue" points="431.31,-126.05 441.33,-122.61 431.35,-119.05 431.31,-126.05"/>
</g>
<!-- Node38&#45;&gt;Node18 -->
<g id="edge76" class="edge">
<title>Node38&#45;&gt;Node18</title>
<path fill="none" stroke="midnightblue" d="M187.19,-224.13C179.66,-210.27 168.27,-183.45 182.5,-168 198.38,-150.76 512.47,-133.49 657.83,-126.38"/>
<polygon fill="midnightblue" stroke="midnightblue" points="658.18,-129.86 668,-125.88 657.84,-122.87 658.18,-129.86"/>
</g>
<!-- Node38&#45;&gt;Node29 -->
<g id="edge77" class="edge">
<title>Node38&#45;&gt;Node29</title>
<path fill="none" stroke="midnightblue" d="M214.52,-224.44C237.6,-215.48 274.06,-201.31 300.14,-191.18"/>
<polygon fill="midnightblue" stroke="midnightblue" points="301.52,-194.4 309.58,-187.52 298.99,-187.88 301.52,-194.4"/>
</g>
<!-- Node38&#45;&gt;Node36 -->
<g id="edge75" class="edge">
<title>Node38&#45;&gt;Node36</title>
<path fill="none" stroke="midnightblue" d="M196.96,-224.08C200.65,-216.69 206.02,-205.95 210.59,-196.81"/>
<polygon fill="midnightblue" stroke="midnightblue" points="213.78,-198.26 215.12,-187.75 207.52,-195.13 213.78,-198.26"/>
</g>
<!-- Node39&#45;&gt;Node15 -->
<g id="edge81" class="edge">
<title>Node39&#45;&gt;Node15</title>
<path fill="none" stroke="midnightblue" d="M468.15,-227.47C551.97,-218.33 720.56,-199.94 824.27,-188.62"/>
<polygon fill="midnightblue" stroke="midnightblue" points="824.85,-192.08 834.41,-187.52 824.09,-185.12 824.85,-192.08"/>
</g>
<!-- Node39&#45;&gt;Node16 -->
<g id="edge79" class="edge">
<title>Node39&#45;&gt;Node16</title>
<path fill="none" stroke="midnightblue" d="M421.11,-224.37C428.6,-206.46 445.97,-164.92 455.99,-140.95"/>
<polygon fill="midnightblue" stroke="midnightblue" points="459.28,-142.17 459.91,-131.59 452.82,-139.47 459.28,-142.17"/>
</g>
<!-- Node39&#45;&gt;Node18 -->
<g id="edge80" class="edge">
<title>Node39&#45;&gt;Node18</title>
<path fill="none" stroke="midnightblue" d="M441.8,-224.46C497.15,-205.01 632.74,-157.36 696.42,-134.98"/>
<polygon fill="midnightblue" stroke="midnightblue" points="697.73,-138.23 706,-131.61 695.4,-131.62 697.73,-138.23"/>
</g>
<!-- Node39&#45;&gt;Node29 -->
<g id="edge82" class="edge">
<title>Node39&#45;&gt;Node29</title>
<path fill="none" stroke="midnightblue" d="M403.68,-224.32C390.27,-215.9 369.68,-202.97 353.91,-193.07"/>
<polygon fill="midnightblue" stroke="midnightblue" points="355.61,-190.01 345.28,-187.65 351.89,-195.94 355.61,-190.01"/>
</g>
</g>
</svg>
