<?xml version="1.0" encoding="UTF-8" standalone="no"?>
<!DOCTYPE svg PUBLIC "-//W3C//DTD SVG 1.1//EN"
 "http://www.w3.org/Graphics/SVG/1.1/DTD/svg11.dtd">
<!-- Generated by graphviz version 2.43.0 (0)
 -->
<!-- Title: Common/Exceptions/BabelException.hpp Pages: 1 -->
<svg width="1662pt" height="430pt"
 viewBox="0.00 0.00 1661.81 430.00" xmlns="http://www.w3.org/2000/svg" xmlns:xlink="http://www.w3.org/1999/xlink">
<g id="graph0" class="graph" transform="scale(1 1) rotate(0) translate(4 426)">
<title>Common/Exceptions/BabelException.hpp</title>
<polygon fill="white" stroke="transparent" points="-4,4 -4,-426 1657.81,-426 1657.81,4 -4,4"/>
<!-- Node1 -->
<g id="node1" class="node">
<title>Node1</title>
<g id="a_node1"><a xlink:title=" ">
<polygon fill="#bfbfbf" stroke="black" points="171.61,-402.5 171.61,-421.5 388.61,-421.5 388.61,-402.5 171.61,-402.5"/>
<text text-anchor="middle" x="280.11" y="-409.5" font-family="Helvetica,sans-Serif" font-size="10.00">Common/Exceptions/BabelException.hpp</text>
</a>
</g>
</g>
<!-- Node2 -->
<g id="node2" class="node">
<title>Node2</title>
<g id="a_node2"><a xlink:href="OpusException_8hpp.html" target="_top" xlink:title=" ">
<polygon fill="white" stroke="black" points="111.61,-335.5 111.61,-365.5 232.61,-365.5 232.61,-335.5 111.61,-335.5"/>
<text text-anchor="start" x="119.61" y="-353.5" font-family="Helvetica,sans-Serif" font-size="10.00">Client/src/Audio/Opus</text>
<text text-anchor="middle" x="172.11" y="-342.5" font-family="Helvetica,sans-Serif" font-size="10.00">/OpusException.hpp</text>
</a>
</g>
</g>
<!-- Node1&#45;&gt;Node2 -->
<g id="edge1" class="edge">
<title>Node1&#45;&gt;Node2</title>
<path fill="none" stroke="midnightblue" d="M255.69,-397.54C238.35,-387.99 215.13,-375.2 197.57,-365.52"/>
<polygon fill="midnightblue" stroke="midnightblue" points="254.19,-400.72 264.64,-402.48 257.57,-394.58 254.19,-400.72"/>
</g>
<!-- Node4 -->
<g id="node4" class="node">
<title>Node4</title>
<g id="a_node4"><a xlink:href="PortAudioException_8hpp.html" target="_top" xlink:title=" ">
<polygon fill="white" stroke="black" points="76.61,-201.5 76.61,-231.5 219.61,-231.5 219.61,-201.5 76.61,-201.5"/>
<text text-anchor="start" x="84.61" y="-219.5" font-family="Helvetica,sans-Serif" font-size="10.00">Client/src/Audio/PortAudio</text>
<text text-anchor="middle" x="148.11" y="-208.5" font-family="Helvetica,sans-Serif" font-size="10.00">Exception.hpp</text>
</a>
</g>
</g>
<!-- Node1&#45;&gt;Node4 -->
<g id="edge3" class="edge">
<title>Node1&#45;&gt;Node4</title>
<path fill="none" stroke="midnightblue" d="M279.56,-392.06C277.77,-362.52 270.45,-305.04 241.11,-268 228,-251.44 207.9,-239.56 189.73,-231.51"/>
<polygon fill="midnightblue" stroke="midnightblue" points="276.07,-392.4 280.02,-402.23 283.06,-392.08 276.07,-392.4"/>
</g>
<!-- Node12 -->
<g id="node12" class="node">
<title>Node12</title>
<g id="a_node12"><a xlink:href="NetworkException_8hpp.html" target="_top" xlink:title=" ">
<polygon fill="white" stroke="black" points="234.11,-134.5 234.11,-164.5 364.11,-164.5 364.11,-134.5 234.11,-134.5"/>
<text text-anchor="start" x="242.11" y="-152.5" font-family="Helvetica,sans-Serif" font-size="10.00">Client/src/Network</text>
<text text-anchor="middle" x="299.11" y="-141.5" font-family="Helvetica,sans-Serif" font-size="10.00">/NetworkException.hpp</text>
</a>
</g>
</g>
<!-- Node1&#45;&gt;Node12 -->
<g id="edge13" class="edge">
<title>Node1&#45;&gt;Node12</title>
<path fill="none" stroke="midnightblue" d="M282.39,-392.21C283.32,-384.15 284.35,-374.62 285.11,-366 291.78,-290.18 296.68,-199.1 298.42,-164.64"/>
<polygon fill="midnightblue" stroke="midnightblue" points="278.89,-392.04 281.19,-402.38 285.84,-392.87 278.89,-392.04"/>
</g>
<!-- Node13 -->
<g id="node13" class="node">
<title>Node13</title>
<g id="a_node13"><a xlink:href="Message_8hpp.html" target="_top" xlink:title=" ">
<polygon fill="white" stroke="black" points="1097.61,-341 1097.61,-360 1270.61,-360 1270.61,-341 1097.61,-341"/>
<text text-anchor="middle" x="1184.11" y="-348" font-family="Helvetica,sans-Serif" font-size="10.00">Common/Network/Message.hpp</text>
</a>
</g>
</g>
<!-- Node1&#45;&gt;Node13 -->
<g id="edge16" class="edge">
<title>Node1&#45;&gt;Node13</title>
<path fill="none" stroke="midnightblue" d="M398.72,-403.19C583.26,-391.05 934.78,-367.91 1097.5,-357.2"/>
<polygon fill="midnightblue" stroke="midnightblue" points="398.46,-399.7 388.71,-403.85 398.92,-406.69 398.46,-399.7"/>
</g>
<!-- Node3 -->
<g id="node3" class="node">
<title>Node3</title>
<g id="a_node3"><a xlink:href="Opus_8cpp.html" target="_top" xlink:title=" ">
<polygon fill="white" stroke="black" points="111.61,-268.5 111.61,-298.5 232.61,-298.5 232.61,-268.5 111.61,-268.5"/>
<text text-anchor="start" x="119.61" y="-286.5" font-family="Helvetica,sans-Serif" font-size="10.00">Client/src/Audio/Opus</text>
<text text-anchor="middle" x="172.11" y="-275.5" font-family="Helvetica,sans-Serif" font-size="10.00">/Opus.cpp</text>
</a>
</g>
</g>
<!-- Node2&#45;&gt;Node3 -->
<g id="edge2" class="edge">
<title>Node2&#45;&gt;Node3</title>
<path fill="none" stroke="midnightblue" d="M172.11,-325.11C172.11,-316.15 172.11,-306.32 172.11,-298.58"/>
<polygon fill="midnightblue" stroke="midnightblue" points="168.61,-325.4 172.11,-335.4 175.61,-325.4 168.61,-325.4"/>
</g>
<!-- Node5 -->
<g id="node5" class="node">
<title>Node5</title>
<g id="a_node5"><a xlink:href="PortAudio_8cpp.html" target="_top" xlink:title=" ">
<polygon fill="white" stroke="black" points="14.11,-140 14.11,-159 178.11,-159 178.11,-140 14.11,-140"/>
<text text-anchor="middle" x="96.11" y="-147" font-family="Helvetica,sans-Serif" font-size="10.00">Client/src/Audio/PortAudio.cpp</text>
</a>
</g>
</g>
<!-- Node4&#45;&gt;Node5 -->
<g id="edge4" class="edge">
<title>Node4&#45;&gt;Node5</title>
<path fill="none" stroke="midnightblue" d="M130.37,-193.32C120.99,-181.6 110.02,-167.88 103.07,-159.19"/>
<polygon fill="midnightblue" stroke="midnightblue" points="127.85,-195.77 136.83,-201.4 133.32,-191.4 127.85,-195.77"/>
</g>
<!-- Node6 -->
<g id="node6" class="node">
<title>Node6</title>
<g id="a_node6"><a xlink:href="Client_2src_2main_8cpp.html" target="_top" xlink:title=" ">
<polygon fill="white" stroke="black" points="151.11,-6 151.11,-25 261.11,-25 261.11,-6 151.11,-6"/>
<text text-anchor="middle" x="206.11" y="-13" font-family="Helvetica,sans-Serif" font-size="10.00">Client/src/main.cpp</text>
</a>
</g>
</g>
<!-- Node4&#45;&gt;Node6 -->
<g id="edge5" class="edge">
<title>Node4&#45;&gt;Node6</title>
<path fill="none" stroke="midnightblue" d="M66.5,-199.61C24.79,-187.28 -13.62,-166.65 5.11,-134 41.02,-71.42 124.58,-38.98 171.87,-25.08"/>
<polygon fill="midnightblue" stroke="midnightblue" points="65.71,-203.03 76.28,-202.35 67.59,-196.29 65.71,-203.03"/>
</g>
<!-- Node7 -->
<g id="node7" class="node">
<title>Node7</title>
<g id="a_node7"><a xlink:href="SoundHandler_8hpp.html" target="_top" xlink:title=" ">
<polygon fill="white" stroke="black" points="420.11,-140 420.11,-159 574.11,-159 574.11,-140 420.11,-140"/>
<text text-anchor="middle" x="497.11" y="-147" font-family="Helvetica,sans-Serif" font-size="10.00">Client/src/SoundHandler.hpp</text>
</a>
</g>
</g>
<!-- Node4&#45;&gt;Node7 -->
<g id="edge6" class="edge">
<title>Node4&#45;&gt;Node7</title>
<path fill="none" stroke="midnightblue" d="M229.98,-200.25C299.01,-187.4 395.27,-169.47 451.41,-159.01"/>
<polygon fill="midnightblue" stroke="midnightblue" points="229.19,-196.84 220,-202.11 230.47,-203.72 229.19,-196.84"/>
</g>
<!-- Node8 -->
<g id="node8" class="node">
<title>Node8</title>
<g id="a_node8"><a xlink:href="HomePage_8hpp.html" target="_top" xlink:title=" ">
<polygon fill="white" stroke="black" points="569.11,-67.5 569.11,-97.5 679.11,-97.5 679.11,-67.5 569.11,-67.5"/>
<text text-anchor="start" x="577.11" y="-85.5" font-family="Helvetica,sans-Serif" font-size="10.00">Client/src/Windows</text>
<text text-anchor="middle" x="624.11" y="-74.5" font-family="Helvetica,sans-Serif" font-size="10.00">/HomePage.hpp</text>
</a>
</g>
</g>
<!-- Node7&#45;&gt;Node8 -->
<g id="edge7" class="edge">
<title>Node7&#45;&gt;Node8</title>
<path fill="none" stroke="midnightblue" d="M523.11,-135.19C544.47,-124.26 574.66,-108.81 596.46,-97.65"/>
<polygon fill="midnightblue" stroke="midnightblue" points="521.28,-132.2 513.98,-139.87 524.47,-138.43 521.28,-132.2"/>
</g>
<!-- Node9 -->
<g id="node9" class="node">
<title>Node9</title>
<g id="a_node9"><a xlink:href="HomePage_8cpp.html" target="_top" xlink:title=" ">
<polygon fill="white" stroke="black" points="648.11,-0.5 648.11,-30.5 758.11,-30.5 758.11,-0.5 648.11,-0.5"/>
<text text-anchor="start" x="656.11" y="-18.5" font-family="Helvetica,sans-Serif" font-size="10.00">Client/src/Windows</text>
<text text-anchor="middle" x="703.11" y="-7.5" font-family="Helvetica,sans-Serif" font-size="10.00">/HomePage.cpp</text>
</a>
</g>
</g>
<!-- Node7&#45;&gt;Node9 -->
<g id="edge12" class="edge">
<title>Node7&#45;&gt;Node9</title>
<path fill="none" stroke="midnightblue" d="M506.54,-131.01C517.27,-112.66 536.4,-84.14 560.11,-67 586.14,-48.18 619.84,-35.83 647.98,-28.05"/>
<polygon fill="midnightblue" stroke="midnightblue" points="503.46,-129.37 501.6,-139.8 509.55,-132.8 503.46,-129.37"/>
</g>
<!-- Node10 -->
<g id="node10" class="node">
<title>Node10</title>
<g id="a_node10"><a xlink:href="UDPSocket_8cpp.html" target="_top" xlink:title=" ">
<polygon fill="white" stroke="black" points="405.61,-67.5 405.61,-97.5 512.61,-97.5 512.61,-67.5 405.61,-67.5"/>
<text text-anchor="start" x="413.61" y="-85.5" font-family="Helvetica,sans-Serif" font-size="10.00">Client/src/Network</text>
<text text-anchor="middle" x="459.11" y="-74.5" font-family="Helvetica,sans-Serif" font-size="10.00">/UDPSocket.cpp</text>
</a>
</g>
</g>
<!-- Node7&#45;&gt;Node10 -->
<g id="edge10" class="edge">
<title>Node7&#45;&gt;Node10</title>
<path fill="none" stroke="midnightblue" d="M486.9,-131.03C480.78,-120.56 473.09,-107.4 467.35,-97.59"/>
<polygon fill="midnightblue" stroke="midnightblue" points="483.92,-132.87 491.99,-139.73 489.96,-129.33 483.92,-132.87"/>
</g>
<!-- Node11 -->
<g id="node11" class="node">
<title>Node11</title>
<g id="a_node11"><a xlink:href="SoundHandler_8cpp.html" target="_top" xlink:title=" ">
<polygon fill="white" stroke="black" points="234.61,-73 234.61,-92 387.61,-92 387.61,-73 234.61,-73"/>
<text text-anchor="middle" x="311.11" y="-80" font-family="Helvetica,sans-Serif" font-size="10.00">Client/src/SoundHandler.cpp</text>
</a>
</g>
</g>
<!-- Node7&#45;&gt;Node11 -->
<g id="edge11" class="edge">
<title>Node7&#45;&gt;Node11</title>
<path fill="none" stroke="midnightblue" d="M462.59,-136.44C425.69,-123.54 368.13,-103.42 335.62,-92.06"/>
<polygon fill="midnightblue" stroke="midnightblue" points="461.82,-139.87 472.41,-139.87 464.13,-133.27 461.82,-139.87"/>
</g>
<!-- Node8&#45;&gt;Node6 -->
<g id="edge8" class="edge">
<title>Node8&#45;&gt;Node6</title>
<path fill="none" stroke="midnightblue" d="M559.09,-71.39C477.16,-58.65 337.8,-36.98 260.98,-25.03"/>
<polygon fill="midnightblue" stroke="midnightblue" points="558.62,-74.86 569.04,-72.94 559.69,-67.94 558.62,-74.86"/>
</g>
<!-- Node8&#45;&gt;Node9 -->
<g id="edge9" class="edge">
<title>Node8&#45;&gt;Node9</title>
<path fill="none" stroke="midnightblue" d="M649.17,-60.88C661.18,-51.01 675.24,-39.43 686,-30.58"/>
<polygon fill="midnightblue" stroke="midnightblue" points="646.75,-58.34 641.25,-67.4 651.2,-63.75 646.75,-58.34"/>
</g>
<!-- Node12&#45;&gt;Node10 -->
<g id="edge14" class="edge">
<title>Node12&#45;&gt;Node10</title>
<path fill="none" stroke="midnightblue" d="M343.31,-130.54C368.91,-120.14 400.68,-107.24 424.46,-97.58"/>
<polygon fill="midnightblue" stroke="midnightblue" points="341.78,-127.39 333.83,-134.4 344.41,-133.87 341.78,-127.39"/>
</g>
<!-- Node12&#45;&gt;Node11 -->
<g id="edge15" class="edge">
<title>Node12&#45;&gt;Node11</title>
<path fill="none" stroke="midnightblue" d="M303.59,-124.25C305.66,-113.02 308,-100.38 309.51,-92.19"/>
<polygon fill="midnightblue" stroke="midnightblue" points="300.09,-123.93 301.72,-134.4 306.97,-125.2 300.09,-123.93"/>
</g>
<!-- Node13&#45;&gt;Node9 -->
<g id="edge17" class="edge">
<title>Node13&#45;&gt;Node9</title>
<path fill="none" stroke="midnightblue" d="M1087.3,-346.16C1025.89,-341 946.06,-328.55 881.11,-299 829.24,-275.4 782.11,-274.49 782.11,-217.5 782.11,-217.5 782.11,-217.5 782.11,-148.5 782.11,-99.63 741.74,-53.17 718.72,-30.66"/>
<polygon fill="midnightblue" stroke="midnightblue" points="1087.14,-349.66 1097.38,-346.96 1087.69,-342.68 1087.14,-349.66"/>
</g>
<!-- Node14 -->
<g id="node14" class="node">
<title>Node14</title>
<g id="a_node14"><a xlink:href="ITCPConnection_8hpp.html" target="_top" xlink:title=" ">
<polygon fill="white" stroke="black" points="931.61,-274 931.61,-293 1136.61,-293 1136.61,-274 931.61,-274"/>
<text text-anchor="middle" x="1034.11" y="-281" font-family="Helvetica,sans-Serif" font-size="10.00">Common/Network/ITCPConnection.hpp</text>
</a>
</g>
</g>
<!-- Node13&#45;&gt;Node14 -->
<g id="edge18" class="edge">
<title>Node13&#45;&gt;Node14</title>
<path fill="none" stroke="midnightblue" d="M1154.76,-336.78C1125.06,-323.91 1079.93,-304.35 1054.11,-293.17"/>
<polygon fill="midnightblue" stroke="midnightblue" points="1153.63,-340.1 1164.19,-340.87 1156.41,-333.68 1153.63,-340.1"/>
</g>
<!-- Node17 -->
<g id="node17" class="node">
<title>Node17</title>
<g id="a_node17"><a xlink:href="ITCPServer_8hpp.html" target="_top" xlink:title=" ">
<polygon fill="white" stroke="black" points="1286.61,-207 1286.61,-226 1467.61,-226 1467.61,-207 1286.61,-207"/>
<text text-anchor="middle" x="1377.11" y="-214" font-family="Helvetica,sans-Serif" font-size="10.00">Common/Network/ITCPServer.hpp</text>
</a>
</g>
</g>
<!-- Node13&#45;&gt;Node17 -->
<g id="edge44" class="edge">
<title>Node13&#45;&gt;Node17</title>
<path fill="none" stroke="midnightblue" d="M1188.19,-330.9C1193.17,-312.46 1203.34,-284.62 1222.11,-268 1247.54,-245.49 1283.19,-232.98 1313.88,-226.05"/>
<polygon fill="midnightblue" stroke="midnightblue" points="1184.76,-330.21 1185.79,-340.75 1191.56,-331.87 1184.76,-330.21"/>
</g>
<!-- Node19 -->
<g id="node19" class="node">
<title>Node19</title>
<g id="a_node19"><a xlink:href="BabelServer_8hpp.html" target="_top" xlink:title=" ">
<polygon fill="white" stroke="black" points="1271.11,-67.5 1271.11,-97.5 1381.11,-97.5 1381.11,-67.5 1271.11,-67.5"/>
<text text-anchor="start" x="1279.11" y="-85.5" font-family="Helvetica,sans-Serif" font-size="10.00">Server/src/Network</text>
<text text-anchor="middle" x="1326.11" y="-74.5" font-family="Helvetica,sans-Serif" font-size="10.00">/BabelServer.hpp</text>
</a>
</g>
</g>
<!-- Node13&#45;&gt;Node19 -->
<g id="edge55" class="edge">
<title>Node13&#45;&gt;Node19</title>
<path fill="none" stroke="midnightblue" d="M1281.01,-345.59C1381.01,-340.07 1529.11,-327.31 1578.11,-299 1610.52,-280.28 1617.15,-267.46 1629.11,-232 1633.52,-218.94 1636.68,-212.51 1629.11,-201 1601.03,-158.27 1460.83,-117.15 1381.34,-96.77"/>
<polygon fill="midnightblue" stroke="midnightblue" points="1280.69,-342.1 1270.89,-346.14 1281.06,-349.09 1280.69,-342.1"/>
</g>
<!-- Node23 -->
<g id="node23" class="node">
<title>Node23</title>
<g id="a_node23"><a xlink:href="OwnedMessage_8hpp.html" target="_top" xlink:title=" ">
<polygon fill="white" stroke="black" points="1062.11,-207 1062.11,-226 1268.11,-226 1268.11,-207 1062.11,-207"/>
<text text-anchor="middle" x="1165.11" y="-214" font-family="Helvetica,sans-Serif" font-size="10.00">Common/Network/OwnedMessage.hpp</text>
</a>
</g>
</g>
<!-- Node13&#45;&gt;Node23 -->
<g id="edge46" class="edge">
<title>Node13&#45;&gt;Node23</title>
<path fill="none" stroke="midnightblue" d="M1181.42,-330.78C1177.24,-301.75 1169.36,-247.04 1166.34,-226.02"/>
<polygon fill="midnightblue" stroke="midnightblue" points="1177.98,-331.44 1182.87,-340.84 1184.91,-330.44 1177.98,-331.44"/>
</g>
<!-- Node24 -->
<g id="node24" class="node">
<title>Node24</title>
<g id="a_node24"><a xlink:href="Call_8hpp.html" target="_top" xlink:title=" ">
<polygon fill="white" stroke="black" points="936.11,-207 936.11,-226 1044.11,-226 1044.11,-207 936.11,-207"/>
<text text-anchor="middle" x="990.11" y="-214" font-family="Helvetica,sans-Serif" font-size="10.00">Server/src/Call.hpp</text>
</a>
</g>
</g>
<!-- Node13&#45;&gt;Node24 -->
<g id="edge52" class="edge">
<title>Node13&#45;&gt;Node24</title>
<path fill="none" stroke="midnightblue" d="M1087.62,-343.44C1022.21,-337.09 944,-324.31 923.11,-299 901.2,-272.44 947.6,-240.94 973.8,-226.07"/>
<polygon fill="midnightblue" stroke="midnightblue" points="1087.3,-346.93 1097.58,-344.37 1087.95,-339.96 1087.3,-346.93"/>
</g>
<!-- Node26 -->
<g id="node26" class="node">
<title>Node26</title>
<g id="a_node26"><a xlink:href="Utils_8hpp.html" target="_top" xlink:title=" ">
<polygon fill="white" stroke="black" points="810.61,-201.5 810.61,-231.5 917.61,-231.5 917.61,-201.5 810.61,-201.5"/>
<text text-anchor="start" x="818.61" y="-219.5" font-family="Helvetica,sans-Serif" font-size="10.00">Server/src/Utilities</text>
<text text-anchor="middle" x="864.11" y="-208.5" font-family="Helvetica,sans-Serif" font-size="10.00">/Utils.hpp</text>
</a>
</g>
</g>
<!-- Node13&#45;&gt;Node26 -->
<g id="edge53" class="edge">
<title>Node13&#45;&gt;Node26</title>
<path fill="none" stroke="midnightblue" d="M1087.31,-339.9C1021.31,-331.79 941.02,-318.37 913.11,-299 889.24,-282.43 875.03,-250.12 868.48,-231.55"/>
<polygon fill="midnightblue" stroke="midnightblue" points="1087,-343.39 1097.35,-341.1 1087.84,-336.44 1087,-343.39"/>
</g>
<!-- Node28 -->
<g id="node28" class="node">
<title>Node28</title>
<g id="a_node28"><a xlink:href="AsioTCPConnection_8hpp.html" target="_top" xlink:title=" ">
<polygon fill="white" stroke="black" points="1486.11,-201.5 1486.11,-231.5 1620.11,-231.5 1620.11,-201.5 1486.11,-201.5"/>
<text text-anchor="start" x="1494.11" y="-219.5" font-family="Helvetica,sans-Serif" font-size="10.00">Server/src/Network</text>
<text text-anchor="middle" x="1553.11" y="-208.5" font-family="Helvetica,sans-Serif" font-size="10.00">/AsioTCPConnection.hpp</text>
</a>
</g>
</g>
<!-- Node13&#45;&gt;Node28 -->
<g id="edge54" class="edge">
<title>Node13&#45;&gt;Node28</title>
<path fill="none" stroke="midnightblue" d="M1280.71,-343.06C1385.97,-335.03 1541.92,-319.8 1560.11,-299 1576.38,-280.4 1567.3,-249.43 1559.81,-231.5"/>
<polygon fill="midnightblue" stroke="midnightblue" points="1280.4,-339.57 1270.69,-343.81 1280.92,-346.55 1280.4,-339.57"/>
</g>
<!-- Node29 -->
<g id="node29" class="node">
<title>Node29</title>
<g id="a_node29"><a xlink:href="IUDPClient_8hpp.html" target="_top" xlink:title=" ">
<polygon fill="white" stroke="black" points="1231.11,-274 1231.11,-293 1413.11,-293 1413.11,-274 1231.11,-274"/>
<text text-anchor="middle" x="1322.11" y="-281" font-family="Helvetica,sans-Serif" font-size="10.00">Common/Network/IUDPClient.hpp</text>
</a>
</g>
</g>
<!-- Node13&#45;&gt;Node29 -->
<g id="edge45" class="edge">
<title>Node13&#45;&gt;Node29</title>
<path fill="none" stroke="midnightblue" d="M1211.83,-336.44C1239.17,-323.57 1280.17,-304.26 1303.71,-293.17"/>
<polygon fill="midnightblue" stroke="midnightblue" points="1209.99,-333.44 1202.44,-340.87 1212.98,-339.77 1209.99,-333.44"/>
</g>
<!-- Node30 -->
<g id="node30" class="node">
<title>Node30</title>
<g id="a_node30"><a xlink:href="Utilities_8hpp.html" target="_top" xlink:title=" ">
<polygon fill="white" stroke="black" points="1399.11,-73 1399.11,-92 1563.11,-92 1563.11,-73 1399.11,-73"/>
<text text-anchor="middle" x="1481.11" y="-80" font-family="Helvetica,sans-Serif" font-size="10.00">Common/Utilities/Utilities.hpp</text>
</a>
</g>
</g>
<!-- Node13&#45;&gt;Node30 -->
<g id="edge47" class="edge">
<title>Node13&#45;&gt;Node30</title>
<path fill="none" stroke="midnightblue" d="M1281.34,-348.18C1389.98,-344.95 1557.43,-334.21 1609.11,-299 1647.46,-272.88 1665.6,-242.63 1645.11,-201 1616.43,-142.7 1543.2,-107.2 1505.05,-92.06"/>
<polygon fill="midnightblue" stroke="midnightblue" points="1280.91,-344.69 1271.01,-348.47 1281.11,-351.68 1280.91,-344.69"/>
</g>
<!-- Node32 -->
<g id="node32" class="node">
<title>Node32</title>
<g id="a_node32"><a xlink:href="testsMessage_8cpp.html" target="_top" xlink:title=" ">
<polygon fill="white" stroke="black" points="1431.61,-268.5 1431.61,-298.5 1550.61,-298.5 1550.61,-268.5 1431.61,-268.5"/>
<text text-anchor="start" x="1439.61" y="-286.5" font-family="Helvetica,sans-Serif" font-size="10.00">Server/tests/Network</text>
<text text-anchor="middle" x="1491.11" y="-275.5" font-family="Helvetica,sans-Serif" font-size="10.00">/testsMessage.cpp</text>
</a>
</g>
</g>
<!-- Node13&#45;&gt;Node32 -->
<g id="edge56" class="edge">
<title>Node13&#45;&gt;Node32</title>
<path fill="none" stroke="midnightblue" d="M1234.6,-338.81C1288.64,-327.37 1374.31,-309.23 1431.59,-297.1"/>
<polygon fill="midnightblue" stroke="midnightblue" points="1233.62,-335.44 1224.56,-340.94 1235.07,-342.29 1233.62,-335.44"/>
</g>
<!-- Node15 -->
<g id="node15" class="node">
<title>Node15</title>
<g id="a_node15"><a xlink:href="QtTCPConnection_8hpp.html" target="_top" xlink:title=" ">
<polygon fill="white" stroke="black" points="487.61,-201.5 487.61,-231.5 612.61,-231.5 612.61,-201.5 487.61,-201.5"/>
<text text-anchor="start" x="495.61" y="-219.5" font-family="Helvetica,sans-Serif" font-size="10.00">Client/src/Network</text>
<text text-anchor="middle" x="550.11" y="-208.5" font-family="Helvetica,sans-Serif" font-size="10.00">/QtTCPConnection.hpp</text>
</a>
</g>
</g>
<!-- Node14&#45;&gt;Node15 -->
<g id="edge19" class="edge">
<title>Node14&#45;&gt;Node15</title>
<path fill="none" stroke="midnightblue" d="M960.24,-272.58C865.3,-259.83 702.1,-237.91 612.87,-225.93"/>
<polygon fill="midnightblue" stroke="midnightblue" points="959.96,-276.07 970.34,-273.94 960.9,-269.14 959.96,-276.07"/>
</g>
<!-- Node14&#45;&gt;Node17 -->
<g id="edge25" class="edge">
<title>Node14&#45;&gt;Node17</title>
<path fill="none" stroke="midnightblue" d="M1089.32,-272.04C1156.79,-259.25 1269.63,-237.87 1332.09,-226.03"/>
<polygon fill="midnightblue" stroke="midnightblue" points="1088.48,-268.63 1079.31,-273.94 1089.78,-275.51 1088.48,-268.63"/>
</g>
<!-- Node14&#45;&gt;Node23 -->
<g id="edge31" class="edge">
<title>Node14&#45;&gt;Node23</title>
<path fill="none" stroke="midnightblue" d="M1060.77,-269.27C1086.71,-256.4 1125.39,-237.21 1147.64,-226.17"/>
<polygon fill="midnightblue" stroke="midnightblue" points="1058.91,-266.29 1051.51,-273.87 1062.02,-272.56 1058.91,-266.29"/>
</g>
<!-- Node14&#45;&gt;Node24 -->
<g id="edge33" class="edge">
<title>Node14&#45;&gt;Node24</title>
<path fill="none" stroke="midnightblue" d="M1022.54,-265.4C1013.99,-252.77 1002.71,-236.1 995.95,-226.13"/>
<polygon fill="midnightblue" stroke="midnightblue" points="1019.67,-267.41 1028.18,-273.73 1025.47,-263.49 1019.67,-267.41"/>
</g>
<!-- Node14&#45;&gt;Node26 -->
<g id="edge37" class="edge">
<title>Node14&#45;&gt;Node26</title>
<path fill="none" stroke="midnightblue" d="M1001.95,-270.2C973.14,-259.19 930.92,-243.04 900.8,-231.53"/>
<polygon fill="midnightblue" stroke="midnightblue" points="1000.95,-273.57 1011.54,-273.87 1003.45,-267.03 1000.95,-273.57"/>
</g>
<!-- Node14&#45;&gt;Node28 -->
<g id="edge41" class="edge">
<title>Node14&#45;&gt;Node28</title>
<path fill="none" stroke="midnightblue" d="M1137.07,-272.97C1227.04,-264.12 1361.06,-249.66 1477.11,-232 1480.03,-231.56 1483.01,-231.08 1486.02,-230.58"/>
<polygon fill="midnightblue" stroke="midnightblue" points="1136.48,-269.51 1126.86,-273.97 1137.16,-276.48 1136.48,-269.51"/>
</g>
<!-- Node15&#45;&gt;Node6 -->
<g id="edge20" class="edge">
<title>Node15&#45;&gt;Node6</title>
<path fill="none" stroke="midnightblue" d="M477.39,-214.05C392.43,-210.74 259.13,-199.94 225.11,-165 186.86,-125.7 198.76,-50.3 204.12,-25.01"/>
<polygon fill="midnightblue" stroke="midnightblue" points="477.38,-217.56 487.5,-214.42 477.64,-210.56 477.38,-217.56"/>
</g>
<!-- Node15&#45;&gt;Node7 -->
<g id="edge24" class="edge">
<title>Node15&#45;&gt;Node7</title>
<path fill="none" stroke="midnightblue" d="M532.02,-193.32C522.47,-181.6 511.29,-167.88 504.2,-159.19"/>
<polygon fill="midnightblue" stroke="midnightblue" points="529.58,-195.86 538.61,-201.4 535.01,-191.43 529.58,-195.86"/>
</g>
<!-- Node15&#45;&gt;Node8 -->
<g id="edge21" class="edge">
<title>Node15&#45;&gt;Node8</title>
<path fill="none" stroke="midnightblue" d="M565.71,-192.82C571.41,-184.24 577.76,-174.3 583.11,-165 596.39,-141.94 609.9,-114.05 617.62,-97.6"/>
<polygon fill="midnightblue" stroke="midnightblue" points="562.76,-190.94 560.09,-201.19 568.57,-194.84 562.76,-190.94"/>
</g>
<!-- Node15&#45;&gt;Node11 -->
<g id="edge23" class="edge">
<title>Node15&#45;&gt;Node11</title>
<path fill="none" stroke="midnightblue" d="M489.04,-198.24C464.04,-189.94 435.36,-178.77 411.11,-165 392.16,-154.24 390.01,-147.77 373.11,-134 355.03,-119.26 333.98,-102.12 321.65,-92.08"/>
<polygon fill="midnightblue" stroke="midnightblue" points="488.19,-201.65 498.78,-201.4 490.34,-194.99 488.19,-201.65"/>
</g>
<!-- Node16 -->
<g id="node16" class="node">
<title>Node16</title>
<g id="a_node16"><a xlink:href="QtTCPConnection_8cpp.html" target="_top" xlink:title=" ">
<polygon fill="white" stroke="black" points="630.11,-134.5 630.11,-164.5 754.11,-164.5 754.11,-134.5 630.11,-134.5"/>
<text text-anchor="start" x="638.11" y="-152.5" font-family="Helvetica,sans-Serif" font-size="10.00">Client/src/Network</text>
<text text-anchor="middle" x="692.11" y="-141.5" font-family="Helvetica,sans-Serif" font-size="10.00">/QtTCPConnection.cpp</text>
</a>
</g>
</g>
<!-- Node15&#45;&gt;Node16 -->
<g id="edge22" class="edge">
<title>Node15&#45;&gt;Node16</title>
<path fill="none" stroke="midnightblue" d="M590.24,-197.13C612.81,-186.8 640.53,-174.11 661.36,-164.58"/>
<polygon fill="midnightblue" stroke="midnightblue" points="588.56,-194.05 580.92,-201.4 591.47,-200.42 588.56,-194.05"/>
</g>
<!-- Node18 -->
<g id="node18" class="node">
<title>Node18</title>
<g id="a_node18"><a xlink:href="AsioTCPServer_8hpp.html" target="_top" xlink:title=" ">
<polygon fill="white" stroke="black" points="1319.11,-134.5 1319.11,-164.5 1429.11,-164.5 1429.11,-134.5 1319.11,-134.5"/>
<text text-anchor="start" x="1327.11" y="-152.5" font-family="Helvetica,sans-Serif" font-size="10.00">Server/src/Network</text>
<text text-anchor="middle" x="1374.11" y="-141.5" font-family="Helvetica,sans-Serif" font-size="10.00">/AsioTCPServer.hpp</text>
</a>
</g>
</g>
<!-- Node17&#45;&gt;Node18 -->
<g id="edge26" class="edge">
<title>Node17&#45;&gt;Node18</title>
<path fill="none" stroke="midnightblue" d="M1376.25,-196.74C1375.77,-186.49 1375.2,-174 1374.76,-164.59"/>
<polygon fill="midnightblue" stroke="midnightblue" points="1372.75,-196.91 1376.71,-206.73 1379.74,-196.58 1372.75,-196.91"/>
</g>
<!-- Node18&#45;&gt;Node19 -->
<g id="edge27" class="edge">
<title>Node18&#45;&gt;Node19</title>
<path fill="none" stroke="midnightblue" d="M1357.61,-126.16C1350.61,-116.68 1342.67,-105.92 1336.51,-97.58"/>
<polygon fill="midnightblue" stroke="midnightblue" points="1354.94,-128.43 1363.7,-134.4 1360.57,-124.27 1354.94,-128.43"/>
</g>
<!-- Node20 -->
<g id="node20" class="node">
<title>Node20</title>
<g id="a_node20"><a xlink:href="Server_2src_2main_8cpp.html" target="_top" xlink:title=" ">
<polygon fill="white" stroke="black" points="1353.61,-6 1353.61,-25 1466.61,-25 1466.61,-6 1353.61,-6"/>
<text text-anchor="middle" x="1410.11" y="-13" font-family="Helvetica,sans-Serif" font-size="10.00">Server/src/main.cpp</text>
</a>
</g>
</g>
<!-- Node19&#45;&gt;Node20 -->
<g id="edge28" class="edge">
<title>Node19&#45;&gt;Node20</title>
<path fill="none" stroke="midnightblue" d="M1352.59,-61.01C1368.19,-48.94 1387.1,-34.3 1398.88,-25.19"/>
<polygon fill="midnightblue" stroke="midnightblue" points="1350.11,-58.51 1344.34,-67.4 1354.39,-64.04 1350.11,-58.51"/>
</g>
<!-- Node21 -->
<g id="node21" class="node">
<title>Node21</title>
<g id="a_node21"><a xlink:href="BabelServer_8cpp.html" target="_top" xlink:title=" ">
<polygon fill="white" stroke="black" points="1082.11,-0.5 1082.11,-30.5 1192.11,-30.5 1192.11,-0.5 1082.11,-0.5"/>
<text text-anchor="start" x="1090.11" y="-18.5" font-family="Helvetica,sans-Serif" font-size="10.00">Server/src/Network</text>
<text text-anchor="middle" x="1137.11" y="-7.5" font-family="Helvetica,sans-Serif" font-size="10.00">/BabelServer.cpp</text>
</a>
</g>
</g>
<!-- Node19&#45;&gt;Node21 -->
<g id="edge29" class="edge">
<title>Node19&#45;&gt;Node21</title>
<path fill="none" stroke="midnightblue" d="M1275.49,-64.09C1244.98,-53.6 1206.63,-40.41 1178.04,-30.58"/>
<polygon fill="midnightblue" stroke="midnightblue" points="1274.51,-67.45 1285.1,-67.4 1276.78,-60.83 1274.51,-67.45"/>
</g>
<!-- Node22 -->
<g id="node22" class="node">
<title>Node22</title>
<g id="a_node22"><a xlink:href="testRequests_8cpp.html" target="_top" xlink:title=" ">
<polygon fill="white" stroke="black" points="1216.61,-0.5 1216.61,-30.5 1335.61,-30.5 1335.61,-0.5 1216.61,-0.5"/>
<text text-anchor="start" x="1224.61" y="-18.5" font-family="Helvetica,sans-Serif" font-size="10.00">Server/tests/Network</text>
<text text-anchor="middle" x="1276.11" y="-7.5" font-family="Helvetica,sans-Serif" font-size="10.00">/testRequests.cpp</text>
</a>
</g>
</g>
<!-- Node19&#45;&gt;Node22 -->
<g id="edge30" class="edge">
<title>Node19&#45;&gt;Node22</title>
<path fill="none" stroke="midnightblue" d="M1309.15,-59.45C1301.8,-49.9 1293.42,-39 1286.94,-30.58"/>
<polygon fill="midnightblue" stroke="midnightblue" points="1306.39,-61.6 1315.26,-67.4 1311.94,-57.34 1306.39,-61.6"/>
</g>
<!-- Node23&#45;&gt;Node18 -->
<g id="edge32" class="edge">
<title>Node23&#45;&gt;Node18</title>
<path fill="none" stroke="midnightblue" d="M1202.81,-203.77C1238.25,-192.75 1291.34,-176.24 1329.01,-164.53"/>
<polygon fill="midnightblue" stroke="midnightblue" points="1201.38,-200.56 1192.87,-206.87 1203.45,-207.24 1201.38,-200.56"/>
</g>
<!-- Node24&#45;&gt;Node19 -->
<g id="edge35" class="edge">
<title>Node24&#45;&gt;Node19</title>
<path fill="none" stroke="midnightblue" d="M1030.99,-204.04C1063.4,-194.59 1109.63,-180.29 1149.11,-165 1203.06,-144.11 1263.91,-114.76 1298.37,-97.58"/>
<polygon fill="midnightblue" stroke="midnightblue" points="1029.62,-200.79 1020.98,-206.93 1031.56,-207.51 1029.62,-200.79"/>
</g>
<!-- Node24&#45;&gt;Node21 -->
<g id="edge36" class="edge">
<title>Node24&#45;&gt;Node21</title>
<path fill="none" stroke="midnightblue" d="M1030.7,-203.45C1051.08,-195.51 1074.67,-183.16 1090.11,-165 1124.28,-124.83 1133.66,-59.7 1136.2,-30.93"/>
<polygon fill="midnightblue" stroke="midnightblue" points="1029.48,-200.16 1021.3,-206.89 1031.89,-206.74 1029.48,-200.16"/>
</g>
<!-- Node25 -->
<g id="node25" class="node">
<title>Node25</title>
<g id="a_node25"><a xlink:href="Call_8cpp.html" target="_top" xlink:title=" ">
<polygon fill="white" stroke="black" points="973.61,-140 973.61,-159 1080.61,-159 1080.61,-140 973.61,-140"/>
<text text-anchor="middle" x="1027.11" y="-147" font-family="Helvetica,sans-Serif" font-size="10.00">Server/src/Call.cpp</text>
</a>
</g>
</g>
<!-- Node24&#45;&gt;Node25 -->
<g id="edge34" class="edge">
<title>Node24&#45;&gt;Node25</title>
<path fill="none" stroke="midnightblue" d="M1000.05,-198.03C1007.22,-185.45 1016.58,-169.01 1022.2,-159.13"/>
<polygon fill="midnightblue" stroke="midnightblue" points="997.01,-196.31 995.1,-206.73 1003.09,-199.77 997.01,-196.31"/>
</g>
<!-- Node26&#45;&gt;Node21 -->
<g id="edge39" class="edge">
<title>Node26&#45;&gt;Node21</title>
<path fill="none" stroke="midnightblue" d="M847.55,-192.54C837.29,-175.25 828.15,-151.6 840.11,-134 894.36,-54.21 1012.07,-28.6 1081.91,-20.38"/>
<polygon fill="midnightblue" stroke="midnightblue" points="844.9,-194.88 853.24,-201.41 850.79,-191.1 844.9,-194.88"/>
</g>
<!-- Node26&#45;&gt;Node25 -->
<g id="edge38" class="edge">
<title>Node26&#45;&gt;Node25</title>
<path fill="none" stroke="midnightblue" d="M908.95,-197.62C940.5,-185.04 981.31,-168.77 1005.78,-159.01"/>
<polygon fill="midnightblue" stroke="midnightblue" points="907.47,-194.44 899.48,-201.4 910.07,-200.94 907.47,-194.44"/>
</g>
<!-- Node27 -->
<g id="node27" class="node">
<title>Node27</title>
<g id="a_node27"><a xlink:href="Utils_8cpp.html" target="_top" xlink:title=" ">
<polygon fill="white" stroke="black" points="848.61,-134.5 848.61,-164.5 955.61,-164.5 955.61,-134.5 848.61,-134.5"/>
<text text-anchor="start" x="856.61" y="-152.5" font-family="Helvetica,sans-Serif" font-size="10.00">Server/src/Utilities</text>
<text text-anchor="middle" x="902.11" y="-141.5" font-family="Helvetica,sans-Serif" font-size="10.00">/Utils.cpp</text>
</a>
</g>
</g>
<!-- Node26&#45;&gt;Node27 -->
<g id="edge40" class="edge">
<title>Node26&#45;&gt;Node27</title>
<path fill="none" stroke="midnightblue" d="M877.51,-192.58C882.97,-183.24 889.11,-172.75 893.88,-164.58"/>
<polygon fill="midnightblue" stroke="midnightblue" points="874.38,-191 872.36,-201.4 880.43,-194.53 874.38,-191"/>
</g>
<!-- Node28&#45;&gt;Node18 -->
<g id="edge42" class="edge">
<title>Node28&#45;&gt;Node18</title>
<path fill="none" stroke="midnightblue" d="M1504.8,-197.96C1475.96,-187.48 1439.83,-174.37 1412.88,-164.58"/>
<polygon fill="midnightblue" stroke="midnightblue" points="1503.68,-201.27 1514.27,-201.4 1506.07,-194.69 1503.68,-201.27"/>
</g>
<!-- Node28&#45;&gt;Node19 -->
<g id="edge43" class="edge">
<title>Node28&#45;&gt;Node19</title>
<path fill="none" stroke="midnightblue" d="M1527.41,-195.1C1504.71,-177.63 1470.31,-152.44 1438.11,-134 1413.49,-119.9 1384.23,-106.82 1361.78,-97.51"/>
<polygon fill="midnightblue" stroke="midnightblue" points="1525.46,-198.02 1535.51,-201.39 1529.76,-192.49 1525.46,-198.02"/>
</g>
<!-- Node30&#45;&gt;Node9 -->
<g id="edge48" class="edge">
<title>Node30&#45;&gt;Node9</title>
<path fill="none" stroke="midnightblue" d="M1422.44,-71.4C1411.71,-69.77 1400.59,-68.22 1390.11,-67 1156.09,-39.8 875.42,-24.56 758.47,-18.98"/>
<polygon fill="midnightblue" stroke="midnightblue" points="1422.15,-74.9 1432.57,-72.99 1423.23,-67.99 1422.15,-74.9"/>
</g>
<!-- Node30&#45;&gt;Node20 -->
<g id="edge50" class="edge">
<title>Node30&#45;&gt;Node20</title>
<path fill="none" stroke="midnightblue" d="M1464.02,-65.86C1450.07,-53.08 1430.86,-35.49 1419.54,-25.13"/>
<polygon fill="midnightblue" stroke="midnightblue" points="1461.8,-68.56 1471.54,-72.73 1466.52,-63.4 1461.8,-68.56"/>
</g>
<!-- Node30&#45;&gt;Node21 -->
<g id="edge51" class="edge">
<title>Node30&#45;&gt;Node21</title>
<path fill="none" stroke="midnightblue" d="M1423.26,-71.12C1367.96,-61.12 1282.27,-45.43 1208.11,-31 1202.93,-29.99 1197.53,-28.92 1192.13,-27.84"/>
<polygon fill="midnightblue" stroke="midnightblue" points="1422.76,-74.59 1433.23,-72.92 1424.01,-67.7 1422.76,-74.59"/>
</g>
<!-- Node31 -->
<g id="node31" class="node">
<title>Node31</title>
<g id="a_node31"><a xlink:href="Utilities_8cpp.html" target="_top" xlink:title=" ">
<polygon fill="white" stroke="black" points="1485.11,-6 1485.11,-25 1649.11,-25 1649.11,-6 1485.11,-6"/>
<text text-anchor="middle" x="1567.11" y="-13" font-family="Helvetica,sans-Serif" font-size="10.00">Common/Utilities/Utilities.cpp</text>
</a>
</g>
</g>
<!-- Node30&#45;&gt;Node31 -->
<g id="edge49" class="edge">
<title>Node30&#45;&gt;Node31</title>
<path fill="none" stroke="midnightblue" d="M1500.87,-66.57C1517.84,-53.74 1541.73,-35.69 1555.7,-25.13"/>
<polygon fill="midnightblue" stroke="midnightblue" points="1498.58,-63.91 1492.71,-72.73 1502.8,-69.5 1498.58,-63.91"/>
</g>
</g>
</svg>
