<?xml version="1.0" encoding="UTF-8" standalone="no"?>
<!DOCTYPE svg PUBLIC "-//W3C//DTD SVG 1.1//EN"
 "http://www.w3.org/Graphics/SVG/1.1/DTD/svg11.dtd">
<!-- Generated by graphviz version 2.43.0 (0)
 -->
<!-- Title: Server/src/Network/BabelServer.hpp Pages: 1 -->
<svg width="1784pt" height="375pt"
 viewBox="0.00 0.00 1784.00 375.00" xmlns="http://www.w3.org/2000/svg" xmlns:xlink="http://www.w3.org/1999/xlink">
<g id="graph0" class="graph" transform="scale(1 1) rotate(0) translate(4 371)">
<title>Server/src/Network/BabelServer.hpp</title>
<polygon fill="white" stroke="transparent" points="-4,4 -4,-371 1780,-371 1780,4 -4,4"/>
<!-- Node1 -->
<g id="node1" class="node">
<title>Node1</title>
<g id="a_node1"><a xlink:title=" ">
<polygon fill="#bfbfbf" stroke="black" points="1288.5,-336.5 1288.5,-366.5 1398.5,-366.5 1398.5,-336.5 1288.5,-336.5"/>
<text text-anchor="start" x="1296.5" y="-354.5" font-family="Helvetica,sans-Serif" font-size="10.00">Server/src/Network</text>
<text text-anchor="middle" x="1343.5" y="-343.5" font-family="Helvetica,sans-Serif" font-size="10.00">/BabelServer.hpp</text>
</a>
</g>
</g>
<!-- Node2 -->
<g id="node2" class="node">
<title>Node2</title>
<g id="a_node2"><a xlink:href="AsioTCPServer_8hpp.html" target="_top" xlink:title=" ">
<polygon fill="white" stroke="black" points="282,-280.5 282,-299.5 389,-299.5 389,-280.5 282,-280.5"/>
<text text-anchor="middle" x="335.5" y="-287.5" font-family="Helvetica,sans-Serif" font-size="10.00">AsioTCPServer.hpp</text>
</a>
</g>
</g>
<!-- Node1&#45;&gt;Node2 -->
<g id="edge1" class="edge">
<title>Node1&#45;&gt;Node2</title>
<path fill="none" stroke="midnightblue" d="M1288.23,-347.24C1115.06,-337.02 583.58,-305.64 399.25,-294.76"/>
<polygon fill="midnightblue" stroke="midnightblue" points="399.36,-291.26 389.18,-294.17 398.95,-298.25 399.36,-291.26"/>
</g>
<!-- Node7 -->
<g id="node7" class="node">
<title>Node7</title>
<g id="a_node7"><a xlink:title=" ">
<polygon fill="white" stroke="#bfbfbf" points="363.5,-56.5 363.5,-75.5 423.5,-75.5 423.5,-56.5 363.5,-56.5"/>
<text text-anchor="middle" x="393.5" y="-63.5" font-family="Helvetica,sans-Serif" font-size="10.00">iostream</text>
</a>
</g>
</g>
<!-- Node1&#45;&gt;Node7 -->
<g id="edge65" class="edge">
<title>Node1&#45;&gt;Node7</title>
<path fill="none" stroke="midnightblue" d="M1288.47,-350.6C1050.66,-350.44 119.71,-343.44 41.5,-244 4.46,-196.9 -29.19,-278.57 255.5,-132 270.75,-124.15 273.25,-119.84 288.5,-112 312.41,-99.71 340.43,-87.82 361.51,-79.35"/>
<polygon fill="midnightblue" stroke="midnightblue" points="362.96,-82.54 370.96,-75.6 360.37,-76.04 362.96,-82.54"/>
</g>
<!-- Node9 -->
<g id="node9" class="node">
<title>Node9</title>
<g id="a_node9"><a xlink:href="AsioTCPConnection_8hpp.html" target="_top" xlink:title=" ">
<polygon fill="white" stroke="black" points="877.5,-224.5 877.5,-243.5 1053.5,-243.5 1053.5,-224.5 877.5,-224.5"/>
<text text-anchor="middle" x="965.5" y="-231.5" font-family="Helvetica,sans-Serif" font-size="10.00">Network/AsioTCPConnection.hpp</text>
</a>
</g>
</g>
<!-- Node1&#45;&gt;Node9 -->
<g id="edge48" class="edge">
<title>Node1&#45;&gt;Node9</title>
<path fill="none" stroke="midnightblue" d="M1288.37,-346.69C1231.41,-341.33 1140.73,-328.75 1067.5,-300 1035.97,-287.62 1003.68,-265.04 984.11,-250.02"/>
<polygon fill="midnightblue" stroke="midnightblue" points="986.09,-247.13 976.05,-243.72 981.77,-252.64 986.09,-247.13"/>
</g>
<!-- Node10 -->
<g id="node10" class="node">
<title>Node10</title>
<g id="a_node10"><a xlink:title=" ">
<polygon fill="white" stroke="#bfbfbf" points="1421,-112.5 1421,-131.5 1486,-131.5 1486,-112.5 1421,-112.5"/>
<text text-anchor="middle" x="1453.5" y="-119.5" font-family="Helvetica,sans-Serif" font-size="10.00">functional</text>
</a>
</g>
</g>
<!-- Node1&#45;&gt;Node10 -->
<g id="edge58" class="edge">
<title>Node1&#45;&gt;Node10</title>
<path fill="none" stroke="midnightblue" d="M1345.32,-336.14C1348.99,-311.49 1359.02,-260.27 1382.5,-224 1395.68,-203.65 1408.99,-207.43 1423.5,-188 1434.18,-173.7 1442.32,-154.99 1447.4,-141.31"/>
<polygon fill="midnightblue" stroke="midnightblue" points="1450.8,-142.2 1450.82,-131.61 1444.2,-139.88 1450.8,-142.2"/>
</g>
<!-- Node15 -->
<g id="node15" class="node">
<title>Node15</title>
<g id="a_node15"><a xlink:title=" ">
<polygon fill="white" stroke="#bfbfbf" points="934.5,-112.5 934.5,-131.5 978.5,-131.5 978.5,-112.5 934.5,-112.5"/>
<text text-anchor="middle" x="956.5" y="-119.5" font-family="Helvetica,sans-Serif" font-size="10.00">string</text>
</a>
</g>
</g>
<!-- Node1&#45;&gt;Node15 -->
<g id="edge67" class="edge">
<title>Node1&#45;&gt;Node15</title>
<path fill="none" stroke="midnightblue" d="M1328.15,-336.39C1290.94,-302.83 1191.83,-217.39 1095.5,-168 1060.72,-150.17 1017.46,-137.5 988.52,-130.24"/>
<polygon fill="midnightblue" stroke="midnightblue" points="989.09,-126.78 978.55,-127.81 987.43,-133.58 989.09,-126.78"/>
</g>
<!-- Node17 -->
<g id="node17" class="node">
<title>Node17</title>
<g id="a_node17"><a xlink:href="Message_8hpp.html" target="_top" xlink:title=" ">
<polygon fill="white" stroke="black" points="791,-112.5 791,-131.5 916,-131.5 916,-112.5 791,-112.5"/>
<text text-anchor="middle" x="853.5" y="-119.5" font-family="Helvetica,sans-Serif" font-size="10.00">Network/Message.hpp</text>
</a>
</g>
</g>
<!-- Node1&#45;&gt;Node17 -->
<g id="edge49" class="edge">
<title>Node1&#45;&gt;Node17</title>
<path fill="none" stroke="midnightblue" d="M1318.91,-336.47C1252.1,-298.46 1067.89,-194.62 1003.5,-168 969.3,-153.86 929.06,-142.04 898.88,-134.06"/>
<polygon fill="midnightblue" stroke="midnightblue" points="899.61,-130.63 889.05,-131.51 897.85,-137.41 899.61,-130.63"/>
</g>
<!-- Node21 -->
<g id="node21" class="node">
<title>Node21</title>
<g id="a_node21"><a xlink:title=" ">
<polygon fill="white" stroke="#bfbfbf" points="1403.5,-56.5 1403.5,-75.5 1467.5,-75.5 1467.5,-56.5 1403.5,-56.5"/>
<text text-anchor="middle" x="1435.5" y="-63.5" font-family="Helvetica,sans-Serif" font-size="10.00">algorithm</text>
</a>
</g>
</g>
<!-- Node1&#45;&gt;Node21 -->
<g id="edge66" class="edge">
<title>Node1&#45;&gt;Node21</title>
<path fill="none" stroke="midnightblue" d="M1398.73,-338.38C1425.13,-330.61 1456.02,-318.42 1479.5,-300 1503.17,-281.44 1508.67,-272.75 1517.5,-244 1529.54,-204.81 1533.17,-172 1495.5,-112 1487.33,-98.99 1473.96,-88.42 1461.91,-80.8"/>
<polygon fill="midnightblue" stroke="midnightblue" points="1463.44,-77.64 1453.05,-75.56 1459.87,-83.66 1463.44,-77.64"/>
</g>
<!-- Node28 -->
<g id="node28" class="node">
<title>Node28</title>
<g id="a_node28"><a xlink:href="RFCCodes_8hpp.html" target="_top" xlink:title=" ">
<polygon fill="white" stroke="black" points="1148,-168.5 1148,-187.5 1279,-187.5 1279,-168.5 1148,-168.5"/>
<text text-anchor="middle" x="1213.5" y="-175.5" font-family="Helvetica,sans-Serif" font-size="10.00">Network/RFCCodes.hpp</text>
</a>
</g>
</g>
<!-- Node1&#45;&gt;Node28 -->
<g id="edge50" class="edge">
<title>Node1&#45;&gt;Node28</title>
<path fill="none" stroke="midnightblue" d="M1332.86,-336.47C1309.14,-305.17 1251.98,-229.76 1226.33,-195.93"/>
<polygon fill="midnightblue" stroke="midnightblue" points="1228.82,-193.41 1219.99,-187.56 1223.24,-197.64 1228.82,-193.41"/>
</g>
<!-- Node29 -->
<g id="node29" class="node">
<title>Node29</title>
<g id="a_node29"><a xlink:href="FreeList_8hpp.html" target="_top" xlink:title=" ">
<polygon fill="white" stroke="black" points="1391,-224.5 1391,-243.5 1508,-243.5 1508,-224.5 1391,-224.5"/>
<text text-anchor="middle" x="1449.5" y="-231.5" font-family="Helvetica,sans-Serif" font-size="10.00">Utilities/FreeList.hpp</text>
</a>
</g>
</g>
<!-- Node1&#45;&gt;Node29 -->
<g id="edge52" class="edge">
<title>Node1&#45;&gt;Node29</title>
<path fill="none" stroke="midnightblue" d="M1356.5,-336.34C1376.29,-314.77 1413.88,-273.81 1434.7,-251.13"/>
<polygon fill="midnightblue" stroke="midnightblue" points="1437.36,-253.4 1441.54,-243.67 1432.2,-248.67 1437.36,-253.4"/>
</g>
<!-- Node30 -->
<g id="node30" class="node">
<title>Node30</title>
<g id="a_node30"><a xlink:href="User_8hpp.html" target="_top" xlink:title=" ">
<polygon fill="white" stroke="black" points="1297,-168.5 1297,-187.5 1356,-187.5 1356,-168.5 1297,-168.5"/>
<text text-anchor="middle" x="1326.5" y="-175.5" font-family="Helvetica,sans-Serif" font-size="10.00">User.hpp</text>
</a>
</g>
</g>
<!-- Node1&#45;&gt;Node30 -->
<g id="edge54" class="edge">
<title>Node1&#45;&gt;Node30</title>
<path fill="none" stroke="midnightblue" d="M1342.11,-336.47C1339.06,-305.7 1331.79,-232.33 1328.35,-197.7"/>
<polygon fill="midnightblue" stroke="midnightblue" points="1331.82,-197.17 1327.35,-187.56 1324.85,-197.86 1331.82,-197.17"/>
</g>
<!-- Node31 -->
<g id="node31" class="node">
<title>Node31</title>
<g id="a_node31"><a xlink:title=" ">
<polygon fill="white" stroke="#bfbfbf" points="1428.5,-280.5 1428.5,-299.5 1470.5,-299.5 1470.5,-280.5 1428.5,-280.5"/>
<text text-anchor="middle" x="1449.5" y="-287.5" font-family="Helvetica,sans-Serif" font-size="10.00">array</text>
</a>
</g>
</g>
<!-- Node1&#45;&gt;Node31 -->
<g id="edge57" class="edge">
<title>Node1&#45;&gt;Node31</title>
<path fill="none" stroke="midnightblue" d="M1368.62,-336.4C1385.77,-326.77 1408.36,-314.09 1425.31,-304.58"/>
<polygon fill="midnightblue" stroke="midnightblue" points="1427.07,-307.6 1434.08,-299.66 1423.64,-301.5 1427.07,-307.6"/>
</g>
<!-- Node32 -->
<g id="node32" class="node">
<title>Node32</title>
<g id="a_node32"><a xlink:href="Call_8hpp.html" target="_top" xlink:title=" ">
<polygon fill="white" stroke="black" points="765.5,-224.5 765.5,-243.5 821.5,-243.5 821.5,-224.5 765.5,-224.5"/>
<text text-anchor="middle" x="793.5" y="-231.5" font-family="Helvetica,sans-Serif" font-size="10.00">Call.hpp</text>
</a>
</g>
</g>
<!-- Node1&#45;&gt;Node32 -->
<g id="edge59" class="edge">
<title>Node1&#45;&gt;Node32</title>
<path fill="none" stroke="midnightblue" d="M1288.27,-343.7C1224.56,-335.41 1116.83,-319.98 1025.5,-300 955.41,-284.67 875.09,-260.7 829.72,-246.55"/>
<polygon fill="midnightblue" stroke="midnightblue" points="830.63,-243.17 820.04,-243.52 828.54,-249.85 830.63,-243.17"/>
</g>
<!-- Node33 -->
<g id="node33" class="node">
<title>Node33</title>
<g id="a_node33"><a xlink:title=" ">
<polygon fill="white" stroke="#bfbfbf" points="1526.5,-280.5 1526.5,-299.5 1564.5,-299.5 1564.5,-280.5 1526.5,-280.5"/>
<text text-anchor="middle" x="1545.5" y="-287.5" font-family="Helvetica,sans-Serif" font-size="10.00">map</text>
</a>
</g>
</g>
<!-- Node1&#45;&gt;Node33 -->
<g id="edge68" class="edge">
<title>Node1&#45;&gt;Node33</title>
<path fill="none" stroke="midnightblue" d="M1391.12,-336.47C1430.06,-325 1483.86,-309.16 1516.58,-299.52"/>
<polygon fill="midnightblue" stroke="midnightblue" points="1517.82,-302.8 1526.42,-296.62 1515.84,-296.09 1517.82,-302.8"/>
</g>
<!-- Node34 -->
<g id="node34" class="node">
<title>Node34</title>
<g id="a_node34"><a xlink:title=" ">
<polygon fill="white" stroke="#bfbfbf" points="1582.5,-280.5 1582.5,-299.5 1638.5,-299.5 1638.5,-280.5 1582.5,-280.5"/>
<text text-anchor="middle" x="1610.5" y="-287.5" font-family="Helvetica,sans-Serif" font-size="10.00">iomanip</text>
</a>
</g>
</g>
<!-- Node1&#45;&gt;Node34 -->
<g id="edge69" class="edge">
<title>Node1&#45;&gt;Node34</title>
<path fill="none" stroke="midnightblue" d="M1398.88,-338.71C1443.24,-329.17 1507.32,-315.22 1572.23,-300.26"/>
<polygon fill="midnightblue" stroke="midnightblue" points="1573.28,-303.61 1582.23,-297.94 1571.7,-296.79 1573.28,-303.61"/>
</g>
<!-- Node35 -->
<g id="node35" class="node">
<title>Node35</title>
<g id="a_node35"><a xlink:title=" ">
<polygon fill="white" stroke="#bfbfbf" points="1656.5,-280.5 1656.5,-299.5 1712.5,-299.5 1712.5,-280.5 1656.5,-280.5"/>
<text text-anchor="middle" x="1684.5" y="-287.5" font-family="Helvetica,sans-Serif" font-size="10.00">sstream</text>
</a>
</g>
</g>
<!-- Node1&#45;&gt;Node35 -->
<g id="edge70" class="edge">
<title>Node1&#45;&gt;Node35</title>
<path fill="none" stroke="midnightblue" d="M1398.64,-342.59C1457.58,-333.86 1553.94,-318.78 1646.2,-300.15"/>
<polygon fill="midnightblue" stroke="midnightblue" points="1647.17,-303.52 1656.27,-298.1 1645.77,-296.66 1647.17,-303.52"/>
</g>
<!-- Node36 -->
<g id="node36" class="node">
<title>Node36</title>
<g id="a_node36"><a xlink:title=" ">
<polygon fill="white" stroke="#bfbfbf" points="1731,-280.5 1731,-299.5 1776,-299.5 1776,-280.5 1731,-280.5"/>
<text text-anchor="middle" x="1753.5" y="-287.5" font-family="Helvetica,sans-Serif" font-size="10.00">utility</text>
</a>
</g>
</g>
<!-- Node1&#45;&gt;Node36 -->
<g id="edge71" class="edge">
<title>Node1&#45;&gt;Node36</title>
<path fill="none" stroke="midnightblue" d="M1398.68,-345.6C1470.64,-338.65 1600.52,-324.26 1720.76,-299.87"/>
<polygon fill="midnightblue" stroke="midnightblue" points="1721.78,-303.23 1730.87,-297.79 1720.37,-296.38 1721.78,-303.23"/>
</g>
<!-- Node3 -->
<g id="node3" class="node">
<title>Node3</title>
<g id="a_node3"><a xlink:title=" ">
<polygon fill="white" stroke="#bfbfbf" points="249.5,-168.5 249.5,-187.5 307.5,-187.5 307.5,-168.5 249.5,-168.5"/>
<text text-anchor="middle" x="278.5" y="-175.5" font-family="Helvetica,sans-Serif" font-size="10.00">memory</text>
</a>
</g>
</g>
<!-- Node2&#45;&gt;Node3 -->
<g id="edge2" class="edge">
<title>Node2&#45;&gt;Node3</title>
<path fill="none" stroke="midnightblue" d="M331.03,-280.37C321.7,-262.38 300.03,-220.55 287.63,-196.63"/>
<polygon fill="midnightblue" stroke="midnightblue" points="290.66,-194.86 282.95,-187.59 284.45,-198.08 290.66,-194.86"/>
</g>
<!-- Node4 -->
<g id="node4" class="node">
<title>Node4</title>
<g id="a_node4"><a xlink:title=" ">
<polygon fill="white" stroke="#bfbfbf" points="0,-56.5 0,-75.5 47,-75.5 47,-56.5 0,-56.5"/>
<text text-anchor="middle" x="23.5" y="-63.5" font-family="Helvetica,sans-Serif" font-size="10.00">deque</text>
</a>
</g>
</g>
<!-- Node2&#45;&gt;Node4 -->
<g id="edge3" class="edge">
<title>Node2&#45;&gt;Node4</title>
<path fill="none" stroke="midnightblue" d="M287.86,-280.5C258.5,-273.76 220.96,-262.35 191.5,-244 120.86,-199.99 59.71,-119.3 35.08,-84.13"/>
<polygon fill="midnightblue" stroke="midnightblue" points="37.93,-82.1 29.37,-75.86 32.16,-86.08 37.93,-82.1"/>
</g>
<!-- Node5 -->
<g id="node5" class="node">
<title>Node5</title>
<g id="a_node5"><a xlink:title=" ">
<polygon fill="white" stroke="#bfbfbf" points="50.5,-224.5 50.5,-243.5 98.5,-243.5 98.5,-224.5 50.5,-224.5"/>
<text text-anchor="middle" x="74.5" y="-231.5" font-family="Helvetica,sans-Serif" font-size="10.00">thread</text>
</a>
</g>
</g>
<!-- Node2&#45;&gt;Node5 -->
<g id="edge4" class="edge">
<title>Node2&#45;&gt;Node5</title>
<path fill="none" stroke="midnightblue" d="M290.98,-280.47C245.9,-271.73 174.23,-257.53 112.5,-244 111.23,-243.72 109.94,-243.44 108.64,-243.14"/>
<polygon fill="midnightblue" stroke="midnightblue" points="109.12,-239.66 98.6,-240.83 107.56,-246.49 109.12,-239.66"/>
</g>
<!-- Node6 -->
<g id="node6" class="node">
<title>Node6</title>
<g id="a_node6"><a xlink:title=" ">
<polygon fill="white" stroke="#bfbfbf" points="980.5,-0.5 980.5,-19.5 1030.5,-19.5 1030.5,-0.5 980.5,-0.5"/>
<text text-anchor="middle" x="1005.5" y="-7.5" font-family="Helvetica,sans-Serif" font-size="10.00">cstdint</text>
</a>
</g>
</g>
<!-- Node2&#45;&gt;Node6 -->
<g id="edge5" class="edge">
<title>Node2&#45;&gt;Node6</title>
<path fill="none" stroke="midnightblue" d="M335.5,-280.44C335.5,-261.94 335.5,-216.81 335.5,-179 335.5,-179 335.5,-179 335.5,-121 335.5,-90.9 331.05,-74.87 354.5,-56 378.67,-36.55 838.19,-17.44 970.27,-12.32"/>
<polygon fill="midnightblue" stroke="midnightblue" points="970.41,-15.82 980.27,-11.94 970.14,-8.83 970.41,-15.82"/>
</g>
<!-- Node2&#45;&gt;Node7 -->
<g id="edge6" class="edge">
<title>Node2&#45;&gt;Node7</title>
<path fill="none" stroke="midnightblue" d="M319.47,-280.49C286.33,-261.72 215.38,-214.69 240.5,-168 244.15,-161.23 329.58,-107.06 371.17,-80.96"/>
<polygon fill="midnightblue" stroke="midnightblue" points="373.18,-83.83 379.79,-75.55 369.46,-77.9 373.18,-83.83"/>
</g>
<!-- Node8 -->
<g id="node8" class="node">
<title>Node8</title>
<g id="a_node8"><a xlink:title=" ">
<polygon fill="white" stroke="#bfbfbf" points="919.5,-168.5 919.5,-187.5 977.5,-187.5 977.5,-168.5 919.5,-168.5"/>
<text text-anchor="middle" x="948.5" y="-175.5" font-family="Helvetica,sans-Serif" font-size="10.00">asio.hpp</text>
</a>
</g>
</g>
<!-- Node2&#45;&gt;Node8 -->
<g id="edge7" class="edge">
<title>Node2&#45;&gt;Node8</title>
<path fill="none" stroke="midnightblue" d="M389.31,-286.9C499.91,-282.12 749.23,-268.88 830.5,-244 835.49,-242.47 890.82,-211.51 923.92,-192.88"/>
<polygon fill="midnightblue" stroke="midnightblue" points="926,-195.72 933,-187.76 922.57,-189.62 926,-195.72"/>
</g>
<!-- Node2&#45;&gt;Node9 -->
<g id="edge8" class="edge">
<title>Node2&#45;&gt;Node9</title>
<path fill="none" stroke="midnightblue" d="M389.09,-284.49C484.49,-276.44 690.04,-259.04 863.5,-244 864.77,-243.89 866.05,-243.78 867.34,-243.67"/>
<polygon fill="midnightblue" stroke="midnightblue" points="867.66,-247.15 877.32,-242.8 867.05,-240.18 867.66,-247.15"/>
</g>
<!-- Node22 -->
<g id="node22" class="node">
<title>Node22</title>
<g id="a_node22"><a xlink:href="TSQueue_8hpp.html" target="_top" xlink:title=" ">
<polygon fill="white" stroke="black" points="124.5,-112.5 124.5,-131.5 246.5,-131.5 246.5,-112.5 124.5,-112.5"/>
<text text-anchor="middle" x="185.5" y="-119.5" font-family="Helvetica,sans-Serif" font-size="10.00">Utilities/TSQueue.hpp</text>
</a>
</g>
</g>
<!-- Node2&#45;&gt;Node22 -->
<g id="edge43" class="edge">
<title>Node2&#45;&gt;Node22</title>
<path fill="none" stroke="midnightblue" d="M281.69,-282.75C255.61,-276.92 226,-265.68 207.5,-244 182.75,-214.99 181.83,-167.58 183.53,-141.55"/>
<polygon fill="midnightblue" stroke="midnightblue" points="187.02,-141.79 184.39,-131.53 180.05,-141.19 187.02,-141.79"/>
</g>
<!-- Node26 -->
<g id="node26" class="node">
<title>Node26</title>
<g id="a_node26"><a xlink:href="ITCPServer_8hpp.html" target="_top" xlink:title=" ">
<polygon fill="white" stroke="black" points="366.5,-224.5 366.5,-243.5 500.5,-243.5 500.5,-224.5 366.5,-224.5"/>
<text text-anchor="middle" x="433.5" y="-231.5" font-family="Helvetica,sans-Serif" font-size="10.00">Network/ITCPServer.hpp</text>
</a>
</g>
</g>
<!-- Node2&#45;&gt;Node26 -->
<g id="edge35" class="edge">
<title>Node2&#45;&gt;Node26</title>
<path fill="none" stroke="midnightblue" d="M351.25,-280.32C366.82,-271.74 390.88,-258.49 408.96,-248.52"/>
<polygon fill="midnightblue" stroke="midnightblue" points="410.72,-251.55 417.79,-243.65 407.35,-245.42 410.72,-251.55"/>
</g>
<!-- Node27 -->
<g id="node27" class="node">
<title>Node27</title>
<g id="a_node27"><a xlink:href="OwnedMessage_8hpp.html" target="_top" xlink:title=" ">
<polygon fill="white" stroke="black" points="520,-224.5 520,-243.5 679,-243.5 679,-224.5 520,-224.5"/>
<text text-anchor="middle" x="599.5" y="-231.5" font-family="Helvetica,sans-Serif" font-size="10.00">Network/OwnedMessage.hpp</text>
</a>
</g>
</g>
<!-- Node2&#45;&gt;Node27 -->
<g id="edge44" class="edge">
<title>Node2&#45;&gt;Node27</title>
<path fill="none" stroke="midnightblue" d="M377.33,-280.44C423.58,-270.98 498.11,-255.74 547.94,-245.55"/>
<polygon fill="midnightblue" stroke="midnightblue" points="548.77,-248.95 557.86,-243.52 547.37,-242.09 548.77,-248.95"/>
</g>
<!-- Node9&#45;&gt;Node8 -->
<g id="edge10" class="edge">
<title>Node9&#45;&gt;Node8</title>
<path fill="none" stroke="midnightblue" d="M962.69,-224.08C960.42,-216.85 957.13,-206.41 954.29,-197.4"/>
<polygon fill="midnightblue" stroke="midnightblue" points="957.6,-196.24 951.25,-187.75 950.92,-198.34 957.6,-196.24"/>
</g>
<!-- Node9&#45;&gt;Node10 -->
<g id="edge9" class="edge">
<title>Node9&#45;&gt;Node10</title>
<path fill="none" stroke="midnightblue" d="M1053.83,-231.52C1162.76,-228.38 1340.61,-218.58 1398.5,-188 1418.66,-177.35 1434.49,-155.94 1443.89,-140.6"/>
<polygon fill="midnightblue" stroke="midnightblue" points="1447.14,-141.98 1449.12,-131.57 1441.08,-138.47 1447.14,-141.98"/>
</g>
<!-- Node11 -->
<g id="node11" class="node">
<title>Node11</title>
<g id="a_node11"><a xlink:title=" ">
<polygon fill="white" stroke="#bfbfbf" points="1002,-56.5 1002,-75.5 1031,-75.5 1031,-56.5 1002,-56.5"/>
<text text-anchor="middle" x="1016.5" y="-63.5" font-family="Helvetica,sans-Serif" font-size="10.00">bit</text>
</a>
</g>
</g>
<!-- Node9&#45;&gt;Node11 -->
<g id="edge11" class="edge">
<title>Node9&#45;&gt;Node11</title>
<path fill="none" stroke="midnightblue" d="M975.49,-224.48C984.49,-216.17 997.23,-202.67 1003.5,-188 1017.99,-154.12 1018.77,-110.25 1017.8,-85.72"/>
<polygon fill="midnightblue" stroke="midnightblue" points="1021.29,-85.44 1017.25,-75.64 1014.3,-85.82 1021.29,-85.44"/>
</g>
<!-- Node12 -->
<g id="node12" class="node">
<title>Node12</title>
<g id="a_node12"><a xlink:href="SwapEndian_8hpp.html" target="_top" xlink:title=" ">
<polygon fill="white" stroke="black" points="1147.5,-56.5 1147.5,-75.5 1285.5,-75.5 1285.5,-56.5 1147.5,-56.5"/>
<text text-anchor="middle" x="1216.5" y="-63.5" font-family="Helvetica,sans-Serif" font-size="10.00">Utilities/SwapEndian.hpp</text>
</a>
</g>
</g>
<!-- Node9&#45;&gt;Node12 -->
<g id="edge12" class="edge">
<title>Node9&#45;&gt;Node12</title>
<path fill="none" stroke="midnightblue" d="M1053.7,-229.21C1165.17,-223.49 1345.1,-210.83 1365.5,-188 1406.77,-141.83 1309.6,-98.93 1253.24,-78.88"/>
<polygon fill="midnightblue" stroke="midnightblue" points="1254.16,-75.49 1243.57,-75.52 1251.86,-82.11 1254.16,-75.49"/>
</g>
<!-- Node14 -->
<g id="node14" class="node">
<title>Node14</title>
<g id="a_node14"><a xlink:href="ITCPConnection_8hpp.html" target="_top" xlink:title=" ">
<polygon fill="white" stroke="black" points="667.5,-168.5 667.5,-187.5 825.5,-187.5 825.5,-168.5 667.5,-168.5"/>
<text text-anchor="middle" x="746.5" y="-175.5" font-family="Helvetica,sans-Serif" font-size="10.00">Network/ITCPConnection.hpp</text>
</a>
</g>
</g>
<!-- Node9&#45;&gt;Node14 -->
<g id="edge15" class="edge">
<title>Node9&#45;&gt;Node14</title>
<path fill="none" stroke="midnightblue" d="M930.8,-224.44C892.92,-215.1 832.15,-200.12 790.84,-189.93"/>
<polygon fill="midnightblue" stroke="midnightblue" points="791.59,-186.51 781.04,-187.52 789.91,-193.31 791.59,-186.51"/>
</g>
<!-- Node9&#45;&gt;Node17 -->
<g id="edge34" class="edge">
<title>Node9&#45;&gt;Node17</title>
<path fill="none" stroke="midnightblue" d="M972.9,-224.24C983.16,-210.99 999.08,-185.54 986.5,-168 976.62,-154.22 938.2,-142.13 905.18,-133.96"/>
<polygon fill="midnightblue" stroke="midnightblue" points="905.69,-130.48 895.15,-131.55 904.05,-137.29 905.69,-130.48"/>
</g>
<!-- Node12&#45;&gt;Node6 -->
<g id="edge14" class="edge">
<title>Node12&#45;&gt;Node6</title>
<path fill="none" stroke="midnightblue" d="M1183.07,-56.44C1144.05,-46.46 1079.84,-30.03 1040.26,-19.9"/>
<polygon fill="midnightblue" stroke="midnightblue" points="1041.07,-16.49 1030.52,-17.4 1039.34,-23.27 1041.07,-16.49"/>
</g>
<!-- Node13 -->
<g id="node13" class="node">
<title>Node13</title>
<g id="a_node13"><a xlink:title=" ">
<polygon fill="white" stroke="#bfbfbf" points="1191.5,-0.5 1191.5,-19.5 1241.5,-19.5 1241.5,-0.5 1191.5,-0.5"/>
<text text-anchor="middle" x="1216.5" y="-7.5" font-family="Helvetica,sans-Serif" font-size="10.00">climits</text>
</a>
</g>
</g>
<!-- Node12&#45;&gt;Node13 -->
<g id="edge13" class="edge">
<title>Node12&#45;&gt;Node13</title>
<path fill="none" stroke="midnightblue" d="M1216.5,-56.08C1216.5,-49.01 1216.5,-38.86 1216.5,-29.99"/>
<polygon fill="midnightblue" stroke="midnightblue" points="1220,-29.75 1216.5,-19.75 1213,-29.75 1220,-29.75"/>
</g>
<!-- Node14&#45;&gt;Node10 -->
<g id="edge18" class="edge">
<title>Node14&#45;&gt;Node10</title>
<path fill="none" stroke="midnightblue" d="M825.54,-170.96C975.1,-159.54 1294.83,-135.12 1410.56,-126.28"/>
<polygon fill="midnightblue" stroke="midnightblue" points="1411.09,-129.75 1420.79,-125.5 1410.55,-122.77 1411.09,-129.75"/>
</g>
<!-- Node14&#45;&gt;Node15 -->
<g id="edge16" class="edge">
<title>Node14&#45;&gt;Node15</title>
<path fill="none" stroke="midnightblue" d="M781.36,-168.48C817.3,-159.62 874.92,-145.24 924.5,-132 924.6,-131.97 924.7,-131.95 924.8,-131.92"/>
<polygon fill="midnightblue" stroke="midnightblue" points="925.76,-135.29 934.49,-129.27 923.92,-128.53 925.76,-135.29"/>
</g>
<!-- Node16 -->
<g id="node16" class="node">
<title>Node16</title>
<g id="a_node16"><a xlink:title=" ">
<polygon fill="white" stroke="#bfbfbf" points="557,-56.5 557,-75.5 604,-75.5 604,-56.5 557,-56.5"/>
<text text-anchor="middle" x="580.5" y="-63.5" font-family="Helvetica,sans-Serif" font-size="10.00">vector</text>
</a>
</g>
</g>
<!-- Node14&#45;&gt;Node16 -->
<g id="edge17" class="edge">
<title>Node14&#45;&gt;Node16</title>
<path fill="none" stroke="midnightblue" d="M733.47,-168.37C704.99,-149.49 636.92,-104.38 601.98,-81.24"/>
<polygon fill="midnightblue" stroke="midnightblue" points="603.73,-78.2 593.47,-75.59 599.87,-84.03 603.73,-78.2"/>
</g>
<!-- Node14&#45;&gt;Node17 -->
<g id="edge19" class="edge">
<title>Node14&#45;&gt;Node17</title>
<path fill="none" stroke="midnightblue" d="M763.69,-168.32C780.85,-159.66 807.45,-146.24 827.25,-136.25"/>
<polygon fill="midnightblue" stroke="midnightblue" points="829,-139.28 836.35,-131.65 825.85,-133.04 829,-139.28"/>
</g>
<!-- Node14&#45;&gt;Node22 -->
<g id="edge29" class="edge">
<title>Node14&#45;&gt;Node22</title>
<path fill="none" stroke="midnightblue" d="M667.31,-169.38C557.85,-158.84 361.93,-139.98 256.8,-129.86"/>
<polygon fill="midnightblue" stroke="midnightblue" points="256.9,-126.36 246.61,-128.88 256.23,-133.32 256.9,-126.36"/>
</g>
<!-- Node17&#45;&gt;Node6 -->
<g id="edge24" class="edge">
<title>Node17&#45;&gt;Node6</title>
<path fill="none" stroke="midnightblue" d="M865.43,-112.37C891.4,-93.57 953.31,-48.77 985.42,-25.53"/>
<polygon fill="midnightblue" stroke="midnightblue" points="987.58,-28.29 993.63,-19.59 983.48,-22.62 987.58,-28.29"/>
</g>
<!-- Node17&#45;&gt;Node7 -->
<g id="edge27" class="edge">
<title>Node17&#45;&gt;Node7</title>
<path fill="none" stroke="midnightblue" d="M790.98,-113.66C695.07,-102.4 514.27,-81.18 433.84,-71.74"/>
<polygon fill="midnightblue" stroke="midnightblue" points="433.97,-68.23 423.63,-70.54 433.16,-75.18 433.97,-68.23"/>
</g>
<!-- Node17&#45;&gt;Node11 -->
<g id="edge28" class="edge">
<title>Node17&#45;&gt;Node11</title>
<path fill="none" stroke="midnightblue" d="M879.33,-112.44C910.32,-102.17 961.9,-85.09 992.2,-75.05"/>
<polygon fill="midnightblue" stroke="midnightblue" points="993.57,-78.28 1001.96,-71.82 991.37,-71.64 993.57,-78.28"/>
</g>
<!-- Node17&#45;&gt;Node12 -->
<g id="edge22" class="edge">
<title>Node17&#45;&gt;Node12</title>
<path fill="none" stroke="midnightblue" d="M911.02,-112.44C975.67,-102.83 1080.53,-87.23 1149,-77.04"/>
<polygon fill="midnightblue" stroke="midnightblue" points="1149.87,-80.45 1159.25,-75.52 1148.84,-73.53 1149.87,-80.45"/>
</g>
<!-- Node17&#45;&gt;Node16 -->
<g id="edge25" class="edge">
<title>Node17&#45;&gt;Node16</title>
<path fill="none" stroke="midnightblue" d="M810.24,-112.44C755.78,-101.67 663.39,-83.39 613.99,-73.62"/>
<polygon fill="midnightblue" stroke="midnightblue" points="614.62,-70.18 604.13,-71.67 613.27,-77.05 614.62,-70.18"/>
</g>
<!-- Node18 -->
<g id="node18" class="node">
<title>Node18</title>
<g id="a_node18"><a xlink:href="BabelException_8hpp.html" target="_top" xlink:title=" ">
<polygon fill="white" stroke="black" points="651.5,-56.5 651.5,-75.5 821.5,-75.5 821.5,-56.5 651.5,-56.5"/>
<text text-anchor="middle" x="736.5" y="-63.5" font-family="Helvetica,sans-Serif" font-size="10.00">Exceptions/BabelException.hpp</text>
</a>
</g>
</g>
<!-- Node17&#45;&gt;Node18 -->
<g id="edge20" class="edge">
<title>Node17&#45;&gt;Node18</title>
<path fill="none" stroke="midnightblue" d="M834.96,-112.44C815.88,-103.64 785.93,-89.81 764.06,-79.72"/>
<polygon fill="midnightblue" stroke="midnightblue" points="765.5,-76.53 754.95,-75.52 762.57,-82.88 765.5,-76.53"/>
</g>
<!-- Node20 -->
<g id="node20" class="node">
<title>Node20</title>
<g id="a_node20"><a xlink:title=" ">
<polygon fill="white" stroke="#bfbfbf" points="839.5,-56.5 839.5,-75.5 889.5,-75.5 889.5,-56.5 839.5,-56.5"/>
<text text-anchor="middle" x="864.5" y="-63.5" font-family="Helvetica,sans-Serif" font-size="10.00">cstring</text>
</a>
</g>
</g>
<!-- Node17&#45;&gt;Node20 -->
<g id="edge23" class="edge">
<title>Node17&#45;&gt;Node20</title>
<path fill="none" stroke="midnightblue" d="M855.32,-112.08C856.77,-104.93 858.87,-94.64 860.69,-85.69"/>
<polygon fill="midnightblue" stroke="midnightblue" points="864.15,-86.25 862.72,-75.75 857.29,-84.85 864.15,-86.25"/>
</g>
<!-- Node17&#45;&gt;Node21 -->
<g id="edge26" class="edge">
<title>Node17&#45;&gt;Node21</title>
<path fill="none" stroke="midnightblue" d="M916.31,-113.01C919.42,-112.66 922.49,-112.32 925.5,-112 1098.76,-93.53 1305.72,-76.96 1393.18,-70.21"/>
<polygon fill="midnightblue" stroke="midnightblue" points="1393.54,-73.69 1403.24,-69.44 1393,-66.71 1393.54,-73.69"/>
</g>
<!-- Node19 -->
<g id="node19" class="node">
<title>Node19</title>
<g id="a_node19"><a xlink:title=" ">
<polygon fill="white" stroke="#bfbfbf" points="704,-0.5 704,-19.5 769,-19.5 769,-0.5 704,-0.5"/>
<text text-anchor="middle" x="736.5" y="-7.5" font-family="Helvetica,sans-Serif" font-size="10.00">stdexcept</text>
</a>
</g>
</g>
<!-- Node18&#45;&gt;Node19 -->
<g id="edge21" class="edge">
<title>Node18&#45;&gt;Node19</title>
<path fill="none" stroke="midnightblue" d="M736.5,-56.08C736.5,-49.01 736.5,-38.86 736.5,-29.99"/>
<polygon fill="midnightblue" stroke="midnightblue" points="740,-29.75 736.5,-19.75 733,-29.75 740,-29.75"/>
</g>
<!-- Node22&#45;&gt;Node4 -->
<g id="edge32" class="edge">
<title>Node22&#45;&gt;Node4</title>
<path fill="none" stroke="midnightblue" d="M159.83,-112.44C132.02,-103.17 87.53,-88.34 56.98,-78.16"/>
<polygon fill="midnightblue" stroke="midnightblue" points="57.8,-74.74 47.2,-74.9 55.58,-81.38 57.8,-74.74"/>
</g>
<!-- Node23 -->
<g id="node23" class="node">
<title>Node23</title>
<g id="a_node23"><a xlink:title=" ">
<polygon fill="white" stroke="#bfbfbf" points="65.5,-56.5 65.5,-75.5 113.5,-75.5 113.5,-56.5 65.5,-56.5"/>
<text text-anchor="middle" x="89.5" y="-63.5" font-family="Helvetica,sans-Serif" font-size="10.00">mutex</text>
</a>
</g>
</g>
<!-- Node22&#45;&gt;Node23 -->
<g id="edge30" class="edge">
<title>Node22&#45;&gt;Node23</title>
<path fill="none" stroke="midnightblue" d="M170.08,-112.32C154.96,-103.82 131.68,-90.73 114.03,-80.8"/>
<polygon fill="midnightblue" stroke="midnightblue" points="115.32,-77.51 104.89,-75.65 111.89,-83.61 115.32,-77.51"/>
</g>
<!-- Node24 -->
<g id="node24" class="node">
<title>Node24</title>
<g id="a_node24"><a xlink:title=" ">
<polygon fill="white" stroke="#bfbfbf" points="132,-56.5 132,-75.5 239,-75.5 239,-56.5 132,-56.5"/>
<text text-anchor="middle" x="185.5" y="-63.5" font-family="Helvetica,sans-Serif" font-size="10.00">condition_variable</text>
</a>
</g>
</g>
<!-- Node22&#45;&gt;Node24 -->
<g id="edge31" class="edge">
<title>Node22&#45;&gt;Node24</title>
<path fill="none" stroke="midnightblue" d="M185.5,-112.08C185.5,-105.01 185.5,-94.86 185.5,-85.99"/>
<polygon fill="midnightblue" stroke="midnightblue" points="189,-85.75 185.5,-75.75 182,-85.75 189,-85.75"/>
</g>
<!-- Node25 -->
<g id="node25" class="node">
<title>Node25</title>
<g id="a_node25"><a xlink:title=" ">
<polygon fill="white" stroke="#bfbfbf" points="257.5,-56.5 257.5,-75.5 307.5,-75.5 307.5,-56.5 257.5,-56.5"/>
<text text-anchor="middle" x="282.5" y="-63.5" font-family="Helvetica,sans-Serif" font-size="10.00">chrono</text>
</a>
</g>
</g>
<!-- Node22&#45;&gt;Node25 -->
<g id="edge33" class="edge">
<title>Node22&#45;&gt;Node25</title>
<path fill="none" stroke="midnightblue" d="M201.08,-112.32C216.5,-103.74 240.31,-90.49 258.21,-80.52"/>
<polygon fill="midnightblue" stroke="midnightblue" points="259.92,-83.58 266.95,-75.65 256.51,-77.46 259.92,-83.58"/>
</g>
<!-- Node26&#45;&gt;Node3 -->
<g id="edge37" class="edge">
<title>Node26&#45;&gt;Node3</title>
<path fill="none" stroke="midnightblue" d="M408.94,-224.44C382.98,-215.4 341.83,-201.06 312.7,-190.92"/>
<polygon fill="midnightblue" stroke="midnightblue" points="313.54,-187.5 302.95,-187.52 311.24,-194.11 313.54,-187.5"/>
</g>
<!-- Node26&#45;&gt;Node6 -->
<g id="edge36" class="edge">
<title>Node26&#45;&gt;Node6</title>
<path fill="none" stroke="midnightblue" d="M435.99,-224.31C445.06,-194.49 479.39,-95.93 547.5,-56 583.74,-34.76 869.53,-18.05 970.4,-12.76"/>
<polygon fill="midnightblue" stroke="midnightblue" points="970.59,-16.25 980.39,-12.24 970.23,-9.26 970.59,-16.25"/>
</g>
<!-- Node26&#45;&gt;Node14 -->
<g id="edge42" class="edge">
<title>Node26&#45;&gt;Node14</title>
<path fill="none" stroke="midnightblue" d="M483.1,-224.44C538.5,-214.89 628.14,-199.42 687.21,-189.23"/>
<polygon fill="midnightblue" stroke="midnightblue" points="687.88,-192.67 697.14,-187.52 686.69,-185.77 687.88,-192.67"/>
</g>
<!-- Node26&#45;&gt;Node15 -->
<g id="edge38" class="edge">
<title>Node26&#45;&gt;Node15</title>
<path fill="none" stroke="midnightblue" d="M475.66,-224.45C512.29,-216.54 566.55,-203.65 612.5,-188 633.6,-180.81 637.03,-174 658.5,-168 770.37,-136.76 805.82,-155.18 924.4,-131.7"/>
<polygon fill="midnightblue" stroke="midnightblue" points="925.12,-135.12 934.22,-129.7 923.72,-128.26 925.12,-135.12"/>
</g>
<!-- Node26&#45;&gt;Node16 -->
<g id="edge39" class="edge">
<title>Node26&#45;&gt;Node16</title>
<path fill="none" stroke="midnightblue" d="M441.4,-224.08C465.04,-197.38 535.46,-117.87 566.05,-83.32"/>
<polygon fill="midnightblue" stroke="midnightblue" points="568.9,-85.38 572.91,-75.57 563.66,-80.73 568.9,-85.38"/>
</g>
<!-- Node26&#45;&gt;Node17 -->
<g id="edge40" class="edge">
<title>Node26&#45;&gt;Node17</title>
<path fill="none" stroke="midnightblue" d="M456.28,-224.49C492.7,-211.12 566.44,-184.97 630.5,-168 684.63,-153.66 747.2,-141.4 792.26,-133.32"/>
<polygon fill="midnightblue" stroke="midnightblue" points="792.94,-136.75 802.17,-131.56 791.71,-129.86 792.94,-136.75"/>
</g>
<!-- Node26&#45;&gt;Node22 -->
<g id="edge41" class="edge">
<title>Node26&#45;&gt;Node22</title>
<path fill="none" stroke="midnightblue" d="M419.86,-224.38C398.44,-211.08 355.34,-185.3 316.5,-168 286.5,-154.64 251.23,-142.73 224.85,-134.52"/>
<polygon fill="midnightblue" stroke="midnightblue" points="225.79,-131.15 215.21,-131.56 223.74,-137.84 225.79,-131.15"/>
</g>
<!-- Node27&#45;&gt;Node7 -->
<g id="edge45" class="edge">
<title>Node27&#45;&gt;Node7</title>
<path fill="none" stroke="midnightblue" d="M588.71,-224.31C555.48,-197.53 454.35,-116.03 412.23,-82.09"/>
<polygon fill="midnightblue" stroke="midnightblue" points="414.16,-79.15 404.18,-75.61 409.77,-84.61 414.16,-79.15"/>
</g>
<!-- Node27&#45;&gt;Node14 -->
<g id="edge47" class="edge">
<title>Node27&#45;&gt;Node14</title>
<path fill="none" stroke="midnightblue" d="M622.79,-224.44C647.31,-215.44 686.1,-201.19 713.7,-191.05"/>
<polygon fill="midnightblue" stroke="midnightblue" points="715.14,-194.25 723.32,-187.52 712.72,-187.68 715.14,-194.25"/>
</g>
<!-- Node27&#45;&gt;Node17 -->
<g id="edge46" class="edge">
<title>Node27&#45;&gt;Node17</title>
<path fill="none" stroke="midnightblue" d="M604.84,-224.29C613.98,-210.15 634.05,-182.34 658.5,-168 695.51,-146.3 742.17,-135.07 780.58,-129.25"/>
<polygon fill="midnightblue" stroke="midnightblue" points="781.25,-132.69 790.66,-127.82 780.27,-125.76 781.25,-132.69"/>
</g>
<!-- Node28&#45;&gt;Node6 -->
<g id="edge51" class="edge">
<title>Node28&#45;&gt;Node6</title>
<path fill="none" stroke="midnightblue" d="M1182.11,-168.39C1159.37,-161.13 1128.68,-149.17 1105.5,-132 1094.94,-124.18 1043.49,-59.41 1018.79,-27.98"/>
<polygon fill="midnightblue" stroke="midnightblue" points="1021.24,-25.44 1012.32,-19.73 1015.74,-29.76 1021.24,-25.44"/>
</g>
<!-- Node29&#45;&gt;Node10 -->
<g id="edge53" class="edge">
<title>Node29&#45;&gt;Node10</title>
<path fill="none" stroke="midnightblue" d="M1456.13,-224.27C1462.27,-215.61 1470.96,-201.67 1474.5,-188 1478.72,-171.72 1471.82,-153.52 1464.82,-140.53"/>
<polygon fill="midnightblue" stroke="midnightblue" points="1467.73,-138.57 1459.64,-131.73 1461.7,-142.13 1467.73,-138.57"/>
</g>
<!-- Node30&#45;&gt;Node6 -->
<g id="edge56" class="edge">
<title>Node30&#45;&gt;Node6</title>
<path fill="none" stroke="midnightblue" d="M1309.69,-168.31C1256.93,-141.02 1094.35,-56.95 1031.07,-24.22"/>
<polygon fill="midnightblue" stroke="midnightblue" points="1032.63,-21.09 1022.14,-19.61 1029.41,-27.31 1032.63,-21.09"/>
</g>
<!-- Node30&#45;&gt;Node15 -->
<g id="edge55" class="edge">
<title>Node30&#45;&gt;Node15</title>
<path fill="none" stroke="midnightblue" d="M1296.69,-169.65C1293.93,-169.06 1291.17,-168.5 1288.5,-168 1179.48,-147.75 1048.72,-132.71 989.06,-126.34"/>
<polygon fill="midnightblue" stroke="midnightblue" points="989.08,-122.83 978.77,-125.26 988.34,-129.79 989.08,-122.83"/>
</g>
<!-- Node32&#45;&gt;Node14 -->
<g id="edge64" class="edge">
<title>Node32&#45;&gt;Node14</title>
<path fill="none" stroke="midnightblue" d="M785.74,-224.08C778.96,-216.3 768.96,-204.8 760.74,-195.37"/>
<polygon fill="midnightblue" stroke="midnightblue" points="763.32,-193 754.12,-187.75 758.04,-197.59 763.32,-193"/>
</g>
<!-- Node32&#45;&gt;Node15 -->
<g id="edge61" class="edge">
<title>Node32&#45;&gt;Node15</title>
<path fill="none" stroke="midnightblue" d="M806.29,-224.37C834.26,-205.49 901.1,-160.38 935.4,-137.24"/>
<polygon fill="midnightblue" stroke="midnightblue" points="937.44,-140.09 943.77,-131.59 933.52,-134.28 937.44,-140.09"/>
</g>
<!-- Node32&#45;&gt;Node16 -->
<g id="edge60" class="edge">
<title>Node32&#45;&gt;Node16</title>
<path fill="none" stroke="midnightblue" d="M765.32,-229.23C736.06,-224.11 690.22,-212.61 658.5,-188 622.92,-160.39 598.79,-111.71 587.61,-85.29"/>
<polygon fill="midnightblue" stroke="midnightblue" points="590.74,-83.7 583.73,-75.75 584.26,-86.34 590.74,-83.7"/>
</g>
<!-- Node32&#45;&gt;Node17 -->
<g id="edge62" class="edge">
<title>Node32&#45;&gt;Node17</title>
<path fill="none" stroke="midnightblue" d="M803.69,-224.35C812.97,-215.94 826.43,-202.38 834.5,-188 842.59,-173.58 847.53,-155.39 850.33,-141.92"/>
<polygon fill="midnightblue" stroke="midnightblue" points="853.81,-142.38 852.21,-131.91 846.93,-141.09 853.81,-142.38"/>
</g>
<!-- Node32&#45;&gt;Node28 -->
<g id="edge63" class="edge">
<title>Node32&#45;&gt;Node28</title>
<path fill="none" stroke="midnightblue" d="M821.71,-229.37C885.59,-221.16 1043.12,-200.91 1137.82,-188.73"/>
<polygon fill="midnightblue" stroke="midnightblue" points="1138.45,-192.18 1147.92,-187.43 1137.55,-185.24 1138.45,-192.18"/>
</g>
</g>
</svg>
