<?xml version="1.0" encoding="UTF-8" standalone="no"?>
<!DOCTYPE svg PUBLIC "-//W3C//DTD SVG 1.1//EN"
 "http://www.w3.org/Graphics/SVG/1.1/DTD/svg11.dtd">
<!-- Generated by graphviz version 2.43.0 (0)
 -->
<!-- Title: Server/src/Call.cpp Pages: 1 -->
<svg width="1053pt" height="308pt"
 viewBox="0.00 0.00 1052.71 308.00" xmlns="http://www.w3.org/2000/svg" xmlns:xlink="http://www.w3.org/1999/xlink">
<g id="graph0" class="graph" transform="scale(1 1) rotate(0) translate(4 304)">
<title>Server/src/Call.cpp</title>
<polygon fill="white" stroke="transparent" points="-4,4 -4,-304 1048.71,-304 1048.71,4 -4,4"/>
<!-- Node1 -->
<g id="node1" class="node">
<title>Node1</title>
<g id="a_node1"><a xlink:title=" ">
<polygon fill="#bfbfbf" stroke="black" points="318,-280.5 318,-299.5 425,-299.5 425,-280.5 318,-280.5"/>
<text text-anchor="middle" x="371.5" y="-287.5" font-family="Helvetica,sans-Serif" font-size="10.00">Server/src/Call.cpp</text>
</a>
</g>
</g>
<!-- Node2 -->
<g id="node2" class="node">
<title>Node2</title>
<g id="a_node2"><a xlink:href="Call_8hpp.html" target="_top" xlink:title=" ">
<polygon fill="white" stroke="black" points="246.5,-224.5 246.5,-243.5 302.5,-243.5 302.5,-224.5 246.5,-224.5"/>
<text text-anchor="middle" x="274.5" y="-231.5" font-family="Helvetica,sans-Serif" font-size="10.00">Call.hpp</text>
</a>
</g>
</g>
<!-- Node1&#45;&gt;Node2 -->
<g id="edge1" class="edge">
<title>Node1&#45;&gt;Node2</title>
<path fill="none" stroke="midnightblue" d="M355.92,-280.32C340.5,-271.74 316.69,-258.49 298.79,-248.52"/>
<polygon fill="midnightblue" stroke="midnightblue" points="300.49,-245.46 290.05,-243.65 297.08,-251.58 300.49,-245.46"/>
</g>
<!-- Node23 -->
<g id="node23" class="node">
<title>Node23</title>
<g id="a_node23"><a xlink:href="Utils_8hpp.html" target="_top" xlink:title=" ">
<polygon fill="white" stroke="black" points="321,-224.5 321,-243.5 422,-243.5 422,-224.5 321,-224.5"/>
<text text-anchor="middle" x="371.5" y="-231.5" font-family="Helvetica,sans-Serif" font-size="10.00">Utilities/Utils.hpp</text>
</a>
</g>
</g>
<!-- Node1&#45;&gt;Node23 -->
<g id="edge28" class="edge">
<title>Node1&#45;&gt;Node23</title>
<path fill="none" stroke="midnightblue" d="M371.5,-280.08C371.5,-273.01 371.5,-262.86 371.5,-253.99"/>
<polygon fill="midnightblue" stroke="midnightblue" points="375,-253.75 371.5,-243.75 368,-253.75 375,-253.75"/>
</g>
<!-- Node24 -->
<g id="node24" class="node">
<title>Node24</title>
<g id="a_node24"><a xlink:title=" ">
<polygon fill="white" stroke="#bfbfbf" points="440,-224.5 440,-243.5 485,-243.5 485,-224.5 440,-224.5"/>
<text text-anchor="middle" x="462.5" y="-231.5" font-family="Helvetica,sans-Serif" font-size="10.00">utility</text>
</a>
</g>
</g>
<!-- Node1&#45;&gt;Node24 -->
<g id="edge33" class="edge">
<title>Node1&#45;&gt;Node24</title>
<path fill="none" stroke="midnightblue" d="M386.12,-280.32C400.45,-271.82 422.51,-258.73 439.25,-248.8"/>
<polygon fill="midnightblue" stroke="midnightblue" points="441.1,-251.77 447.92,-243.65 437.53,-245.75 441.1,-251.77"/>
</g>
<!-- Node3 -->
<g id="node3" class="node">
<title>Node3</title>
<g id="a_node3"><a xlink:title=" ">
<polygon fill="white" stroke="#bfbfbf" points="0,-56.5 0,-75.5 47,-75.5 47,-56.5 0,-56.5"/>
<text text-anchor="middle" x="23.5" y="-63.5" font-family="Helvetica,sans-Serif" font-size="10.00">vector</text>
</a>
</g>
</g>
<!-- Node2&#45;&gt;Node3 -->
<g id="edge2" class="edge">
<title>Node2&#45;&gt;Node3</title>
<path fill="none" stroke="midnightblue" d="M246.31,-227.4C218.39,-220.96 175.2,-208.55 142.5,-188 96.76,-159.25 55.49,-109.6 35.75,-83.75"/>
<polygon fill="midnightblue" stroke="midnightblue" points="38.5,-81.57 29.7,-75.67 32.89,-85.77 38.5,-81.57"/>
</g>
<!-- Node4 -->
<g id="node4" class="node">
<title>Node4</title>
<g id="a_node4"><a xlink:title=" ">
<polygon fill="white" stroke="#bfbfbf" points="126.5,-112.5 126.5,-131.5 170.5,-131.5 170.5,-112.5 126.5,-112.5"/>
<text text-anchor="middle" x="148.5" y="-119.5" font-family="Helvetica,sans-Serif" font-size="10.00">string</text>
</a>
</g>
</g>
<!-- Node2&#45;&gt;Node4 -->
<g id="edge3" class="edge">
<title>Node2&#45;&gt;Node4</title>
<path fill="none" stroke="midnightblue" d="M246.38,-230.98C218,-227.32 175.35,-217 153.5,-188 143.61,-174.88 143.33,-155.73 144.94,-141.62"/>
<polygon fill="midnightblue" stroke="midnightblue" points="148.42,-142 146.49,-131.59 141.5,-140.93 148.42,-142"/>
</g>
<!-- Node5 -->
<g id="node5" class="node">
<title>Node5</title>
<g id="a_node5"><a xlink:href="Message_8hpp.html" target="_top" xlink:title=" ">
<polygon fill="white" stroke="black" points="319,-112.5 319,-131.5 444,-131.5 444,-112.5 319,-112.5"/>
<text text-anchor="middle" x="381.5" y="-119.5" font-family="Helvetica,sans-Serif" font-size="10.00">Network/Message.hpp</text>
</a>
</g>
</g>
<!-- Node2&#45;&gt;Node5 -->
<g id="edge4" class="edge">
<title>Node2&#45;&gt;Node5</title>
<path fill="none" stroke="midnightblue" d="M302.9,-225.06C322.3,-218.23 347.19,-206.51 362.5,-188 373.38,-174.85 378.03,-155.71 380.02,-141.6"/>
<polygon fill="midnightblue" stroke="midnightblue" points="383.51,-141.9 381.11,-131.58 376.55,-141.14 383.51,-141.9"/>
</g>
<!-- Node15 -->
<g id="node15" class="node">
<title>Node15</title>
<g id="a_node15"><a xlink:href="RFCCodes_8hpp.html" target="_top" xlink:title=" ">
<polygon fill="white" stroke="black" points="410,-168.5 410,-187.5 541,-187.5 541,-168.5 410,-168.5"/>
<text text-anchor="middle" x="475.5" y="-175.5" font-family="Helvetica,sans-Serif" font-size="10.00">Network/RFCCodes.hpp</text>
</a>
</g>
</g>
<!-- Node2&#45;&gt;Node15 -->
<g id="edge16" class="edge">
<title>Node2&#45;&gt;Node15</title>
<path fill="none" stroke="midnightblue" d="M302.87,-225.38C337.02,-216.2 394.64,-200.72 433.84,-190.19"/>
<polygon fill="midnightblue" stroke="midnightblue" points="434.87,-193.54 443.62,-187.56 433.06,-186.78 434.87,-193.54"/>
</g>
<!-- Node16 -->
<g id="node16" class="node">
<title>Node16</title>
<g id="a_node16"><a xlink:href="ITCPConnection_8hpp.html" target="_top" xlink:title=" ">
<polygon fill="white" stroke="black" points="195.5,-168.5 195.5,-187.5 353.5,-187.5 353.5,-168.5 195.5,-168.5"/>
<text text-anchor="middle" x="274.5" y="-175.5" font-family="Helvetica,sans-Serif" font-size="10.00">Network/ITCPConnection.hpp</text>
</a>
</g>
</g>
<!-- Node2&#45;&gt;Node16 -->
<g id="edge18" class="edge">
<title>Node2&#45;&gt;Node16</title>
<path fill="none" stroke="midnightblue" d="M274.5,-224.08C274.5,-217.01 274.5,-206.86 274.5,-197.99"/>
<polygon fill="midnightblue" stroke="midnightblue" points="278,-197.75 274.5,-187.75 271,-197.75 278,-197.75"/>
</g>
<!-- Node5&#45;&gt;Node3 -->
<g id="edge12" class="edge">
<title>Node5&#45;&gt;Node3</title>
<path fill="none" stroke="midnightblue" d="M318.8,-113.29C243.26,-103.85 119.71,-87.85 57.39,-75.89"/>
<polygon fill="midnightblue" stroke="midnightblue" points="57.7,-72.38 47.21,-73.86 56.33,-79.25 57.7,-72.38"/>
</g>
<!-- Node6 -->
<g id="node6" class="node">
<title>Node6</title>
<g id="a_node6"><a xlink:href="BabelException_8hpp.html" target="_top" xlink:title=" ">
<polygon fill="white" stroke="black" points="191.5,-56.5 191.5,-75.5 361.5,-75.5 361.5,-56.5 191.5,-56.5"/>
<text text-anchor="middle" x="276.5" y="-63.5" font-family="Helvetica,sans-Serif" font-size="10.00">Exceptions/BabelException.hpp</text>
</a>
</g>
</g>
<!-- Node5&#45;&gt;Node6 -->
<g id="edge5" class="edge">
<title>Node5&#45;&gt;Node6</title>
<path fill="none" stroke="midnightblue" d="M364.63,-112.32C347.79,-103.66 321.69,-90.24 302.26,-80.25"/>
<polygon fill="midnightblue" stroke="midnightblue" points="303.82,-77.12 293.33,-75.65 300.62,-83.34 303.82,-77.12"/>
</g>
<!-- Node8 -->
<g id="node8" class="node">
<title>Node8</title>
<g id="a_node8"><a xlink:href="SwapEndian_8hpp.html" target="_top" xlink:title=" ">
<polygon fill="white" stroke="black" points="379.5,-56.5 379.5,-75.5 517.5,-75.5 517.5,-56.5 379.5,-56.5"/>
<text text-anchor="middle" x="448.5" y="-63.5" font-family="Helvetica,sans-Serif" font-size="10.00">Utilities/SwapEndian.hpp</text>
</a>
</g>
</g>
<!-- Node5&#45;&gt;Node8 -->
<g id="edge7" class="edge">
<title>Node5&#45;&gt;Node8</title>
<path fill="none" stroke="midnightblue" d="M392.26,-112.32C402.27,-104.26 417.39,-92.08 429.43,-82.37"/>
<polygon fill="midnightblue" stroke="midnightblue" points="431.95,-84.83 437.54,-75.83 427.56,-79.38 431.95,-84.83"/>
</g>
<!-- Node10 -->
<g id="node10" class="node">
<title>Node10</title>
<g id="a_node10"><a xlink:title=" ">
<polygon fill="white" stroke="#bfbfbf" points="670.5,-0.5 670.5,-19.5 720.5,-19.5 720.5,-0.5 670.5,-0.5"/>
<text text-anchor="middle" x="695.5" y="-7.5" font-family="Helvetica,sans-Serif" font-size="10.00">cstdint</text>
</a>
</g>
</g>
<!-- Node5&#45;&gt;Node10 -->
<g id="edge11" class="edge">
<title>Node5&#45;&gt;Node10</title>
<path fill="none" stroke="midnightblue" d="M444.12,-119.17C520.27,-115.66 642.82,-105.47 676.5,-76 689.61,-64.52 693.91,-44.55 695.21,-29.76"/>
<polygon fill="midnightblue" stroke="midnightblue" points="698.71,-29.85 695.71,-19.69 691.71,-29.51 698.71,-29.85"/>
</g>
<!-- Node11 -->
<g id="node11" class="node">
<title>Node11</title>
<g id="a_node11"><a xlink:title=" ">
<polygon fill="white" stroke="#bfbfbf" points="535.5,-56.5 535.5,-75.5 585.5,-75.5 585.5,-56.5 535.5,-56.5"/>
<text text-anchor="middle" x="560.5" y="-63.5" font-family="Helvetica,sans-Serif" font-size="10.00">cstring</text>
</a>
</g>
</g>
<!-- Node5&#45;&gt;Node11 -->
<g id="edge10" class="edge">
<title>Node5&#45;&gt;Node11</title>
<path fill="none" stroke="midnightblue" d="M409.86,-112.44C441.22,-102.98 491.76,-87.74 525.54,-77.55"/>
<polygon fill="midnightblue" stroke="midnightblue" points="526.88,-80.8 535.45,-74.56 524.86,-74.1 526.88,-80.8"/>
</g>
<!-- Node12 -->
<g id="node12" class="node">
<title>Node12</title>
<g id="a_node12"><a xlink:title=" ">
<polygon fill="white" stroke="#bfbfbf" points="603.5,-56.5 603.5,-75.5 667.5,-75.5 667.5,-56.5 603.5,-56.5"/>
<text text-anchor="middle" x="635.5" y="-63.5" font-family="Helvetica,sans-Serif" font-size="10.00">algorithm</text>
</a>
</g>
</g>
<!-- Node5&#45;&gt;Node12 -->
<g id="edge13" class="edge">
<title>Node5&#45;&gt;Node12</title>
<path fill="none" stroke="midnightblue" d="M422.35,-112.47C463.15,-103.93 527.93,-90.3 593.22,-76.26"/>
<polygon fill="midnightblue" stroke="midnightblue" points="594.24,-79.63 603.28,-74.1 592.76,-72.78 594.24,-79.63"/>
</g>
<!-- Node13 -->
<g id="node13" class="node">
<title>Node13</title>
<g id="a_node13"><a xlink:title=" ">
<polygon fill="white" stroke="#bfbfbf" points="65.5,-56.5 65.5,-75.5 125.5,-75.5 125.5,-56.5 65.5,-56.5"/>
<text text-anchor="middle" x="95.5" y="-63.5" font-family="Helvetica,sans-Serif" font-size="10.00">iostream</text>
</a>
</g>
</g>
<!-- Node5&#45;&gt;Node13 -->
<g id="edge14" class="edge">
<title>Node5&#45;&gt;Node13</title>
<path fill="none" stroke="midnightblue" d="M330.75,-112.47C282.87,-104.25 208.86,-91.15 135.57,-76.15"/>
<polygon fill="midnightblue" stroke="midnightblue" points="136.2,-72.71 125.7,-74.12 134.79,-79.56 136.2,-72.71"/>
</g>
<!-- Node14 -->
<g id="node14" class="node">
<title>Node14</title>
<g id="a_node14"><a xlink:title=" ">
<polygon fill="white" stroke="#bfbfbf" points="144,-56.5 144,-75.5 173,-75.5 173,-56.5 144,-56.5"/>
<text text-anchor="middle" x="158.5" y="-63.5" font-family="Helvetica,sans-Serif" font-size="10.00">bit</text>
</a>
</g>
</g>
<!-- Node5&#45;&gt;Node14 -->
<g id="edge15" class="edge">
<title>Node5&#45;&gt;Node14</title>
<path fill="none" stroke="midnightblue" d="M335.6,-112.47C297.11,-104.9 240.6,-92.83 182.78,-75.74"/>
<polygon fill="midnightblue" stroke="midnightblue" points="183.7,-72.36 173.12,-72.84 181.69,-79.07 183.7,-72.36"/>
</g>
<!-- Node7 -->
<g id="node7" class="node">
<title>Node7</title>
<g id="a_node7"><a xlink:title=" ">
<polygon fill="white" stroke="#bfbfbf" points="244,-0.5 244,-19.5 309,-19.5 309,-0.5 244,-0.5"/>
<text text-anchor="middle" x="276.5" y="-7.5" font-family="Helvetica,sans-Serif" font-size="10.00">stdexcept</text>
</a>
</g>
</g>
<!-- Node6&#45;&gt;Node7 -->
<g id="edge6" class="edge">
<title>Node6&#45;&gt;Node7</title>
<path fill="none" stroke="midnightblue" d="M276.5,-56.08C276.5,-49.01 276.5,-38.86 276.5,-29.99"/>
<polygon fill="midnightblue" stroke="midnightblue" points="280,-29.75 276.5,-19.75 273,-29.75 280,-29.75"/>
</g>
<!-- Node9 -->
<g id="node9" class="node">
<title>Node9</title>
<g id="a_node9"><a xlink:title=" ">
<polygon fill="white" stroke="#bfbfbf" points="423.5,-0.5 423.5,-19.5 473.5,-19.5 473.5,-0.5 423.5,-0.5"/>
<text text-anchor="middle" x="448.5" y="-7.5" font-family="Helvetica,sans-Serif" font-size="10.00">climits</text>
</a>
</g>
</g>
<!-- Node8&#45;&gt;Node9 -->
<g id="edge8" class="edge">
<title>Node8&#45;&gt;Node9</title>
<path fill="none" stroke="midnightblue" d="M448.5,-56.08C448.5,-49.01 448.5,-38.86 448.5,-29.99"/>
<polygon fill="midnightblue" stroke="midnightblue" points="452,-29.75 448.5,-19.75 445,-29.75 452,-29.75"/>
</g>
<!-- Node8&#45;&gt;Node10 -->
<g id="edge9" class="edge">
<title>Node8&#45;&gt;Node10</title>
<path fill="none" stroke="midnightblue" d="M487.64,-56.44C535.22,-46.04 614.79,-28.65 660.44,-18.66"/>
<polygon fill="midnightblue" stroke="midnightblue" points="661.44,-22.03 670.46,-16.47 659.95,-15.19 661.44,-22.03"/>
</g>
<!-- Node15&#45;&gt;Node10 -->
<g id="edge17" class="edge">
<title>Node15&#45;&gt;Node10</title>
<path fill="none" stroke="midnightblue" d="M541.14,-176.21C677.57,-172.94 983.81,-156.58 1040.5,-76 1045.61,-68.73 1046.36,-62.68 1040.5,-56 1020.24,-32.93 814.57,-18.12 730.76,-13"/>
<polygon fill="midnightblue" stroke="midnightblue" points="730.89,-9.5 720.7,-12.4 730.47,-16.49 730.89,-9.5"/>
</g>
<!-- Node16&#45;&gt;Node3 -->
<g id="edge20" class="edge">
<title>Node16&#45;&gt;Node3</title>
<path fill="none" stroke="midnightblue" d="M275.7,-168.45C277.13,-154.53 277.66,-127.02 262.5,-112 198.72,-48.83 150.6,-92.99 57.3,-75.82"/>
<polygon fill="midnightblue" stroke="midnightblue" points="57.73,-72.33 47.23,-73.76 56.32,-79.19 57.73,-72.33"/>
</g>
<!-- Node16&#45;&gt;Node4 -->
<g id="edge19" class="edge">
<title>Node16&#45;&gt;Node4</title>
<path fill="none" stroke="midnightblue" d="M254.53,-168.44C233.89,-159.6 201.44,-145.69 177.87,-135.59"/>
<polygon fill="midnightblue" stroke="midnightblue" points="178.94,-132.24 168.37,-131.52 176.18,-138.67 178.94,-132.24"/>
</g>
<!-- Node16&#45;&gt;Node5 -->
<g id="edge22" class="edge">
<title>Node16&#45;&gt;Node5</title>
<path fill="none" stroke="midnightblue" d="M291.69,-168.32C308.85,-159.66 335.45,-146.24 355.25,-136.25"/>
<polygon fill="midnightblue" stroke="midnightblue" points="357,-139.28 364.35,-131.65 353.85,-133.04 357,-139.28"/>
</g>
<!-- Node17 -->
<g id="node17" class="node">
<title>Node17</title>
<g id="a_node17"><a xlink:title=" ">
<polygon fill="white" stroke="#bfbfbf" points="189,-112.5 189,-131.5 254,-131.5 254,-112.5 189,-112.5"/>
<text text-anchor="middle" x="221.5" y="-119.5" font-family="Helvetica,sans-Serif" font-size="10.00">functional</text>
</a>
</g>
</g>
<!-- Node16&#45;&gt;Node17 -->
<g id="edge21" class="edge">
<title>Node16&#45;&gt;Node17</title>
<path fill="none" stroke="midnightblue" d="M265.75,-168.08C258.03,-160.22 246.6,-148.57 237.28,-139.08"/>
<polygon fill="midnightblue" stroke="midnightblue" points="239.59,-136.44 230.09,-131.75 234.6,-141.34 239.59,-136.44"/>
</g>
<!-- Node18 -->
<g id="node18" class="node">
<title>Node18</title>
<g id="a_node18"><a xlink:href="TSQueue_8hpp.html" target="_top" xlink:title=" ">
<polygon fill="white" stroke="black" points="753.5,-112.5 753.5,-131.5 875.5,-131.5 875.5,-112.5 753.5,-112.5"/>
<text text-anchor="middle" x="814.5" y="-119.5" font-family="Helvetica,sans-Serif" font-size="10.00">Utilities/TSQueue.hpp</text>
</a>
</g>
</g>
<!-- Node16&#45;&gt;Node18 -->
<g id="edge23" class="edge">
<title>Node16&#45;&gt;Node18</title>
<path fill="none" stroke="midnightblue" d="M353.6,-169.09C458.53,-158.6 642.23,-140.23 743.12,-130.14"/>
<polygon fill="midnightblue" stroke="midnightblue" points="743.62,-133.61 753.22,-129.13 742.92,-126.64 743.62,-133.61"/>
</g>
<!-- Node19 -->
<g id="node19" class="node">
<title>Node19</title>
<g id="a_node19"><a xlink:title=" ">
<polygon fill="white" stroke="#bfbfbf" points="857.5,-56.5 857.5,-75.5 905.5,-75.5 905.5,-56.5 857.5,-56.5"/>
<text text-anchor="middle" x="881.5" y="-63.5" font-family="Helvetica,sans-Serif" font-size="10.00">mutex</text>
</a>
</g>
</g>
<!-- Node18&#45;&gt;Node19 -->
<g id="edge24" class="edge">
<title>Node18&#45;&gt;Node19</title>
<path fill="none" stroke="midnightblue" d="M825.26,-112.32C835.27,-104.26 850.39,-92.08 862.43,-82.37"/>
<polygon fill="midnightblue" stroke="midnightblue" points="864.95,-84.83 870.54,-75.83 860.56,-79.38 864.95,-84.83"/>
</g>
<!-- Node20 -->
<g id="node20" class="node">
<title>Node20</title>
<g id="a_node20"><a xlink:title=" ">
<polygon fill="white" stroke="#bfbfbf" points="924,-56.5 924,-75.5 1031,-75.5 1031,-56.5 924,-56.5"/>
<text text-anchor="middle" x="977.5" y="-63.5" font-family="Helvetica,sans-Serif" font-size="10.00">condition_variable</text>
</a>
</g>
</g>
<!-- Node18&#45;&gt;Node20 -->
<g id="edge25" class="edge">
<title>Node18&#45;&gt;Node20</title>
<path fill="none" stroke="midnightblue" d="M840.33,-112.44C867.75,-103.36 911.28,-88.94 941.93,-78.78"/>
<polygon fill="midnightblue" stroke="midnightblue" points="943.4,-81.98 951.79,-75.52 941.2,-75.34 943.4,-81.98"/>
</g>
<!-- Node21 -->
<g id="node21" class="node">
<title>Node21</title>
<g id="a_node21"><a xlink:title=" ">
<polygon fill="white" stroke="#bfbfbf" points="724,-56.5 724,-75.5 771,-75.5 771,-56.5 724,-56.5"/>
<text text-anchor="middle" x="747.5" y="-63.5" font-family="Helvetica,sans-Serif" font-size="10.00">deque</text>
</a>
</g>
</g>
<!-- Node18&#45;&gt;Node21 -->
<g id="edge26" class="edge">
<title>Node18&#45;&gt;Node21</title>
<path fill="none" stroke="midnightblue" d="M803.74,-112.32C793.73,-104.26 778.61,-92.08 766.57,-82.37"/>
<polygon fill="midnightblue" stroke="midnightblue" points="768.44,-79.38 758.46,-75.83 764.05,-84.83 768.44,-79.38"/>
</g>
<!-- Node22 -->
<g id="node22" class="node">
<title>Node22</title>
<g id="a_node22"><a xlink:title=" ">
<polygon fill="white" stroke="#bfbfbf" points="789.5,-56.5 789.5,-75.5 839.5,-75.5 839.5,-56.5 789.5,-56.5"/>
<text text-anchor="middle" x="814.5" y="-63.5" font-family="Helvetica,sans-Serif" font-size="10.00">chrono</text>
</a>
</g>
</g>
<!-- Node18&#45;&gt;Node22 -->
<g id="edge27" class="edge">
<title>Node18&#45;&gt;Node22</title>
<path fill="none" stroke="midnightblue" d="M814.5,-112.08C814.5,-105.01 814.5,-94.86 814.5,-85.99"/>
<polygon fill="midnightblue" stroke="midnightblue" points="818,-85.75 814.5,-75.75 811,-85.75 818,-85.75"/>
</g>
<!-- Node23&#45;&gt;Node4 -->
<g id="edge29" class="edge">
<title>Node23&#45;&gt;Node4</title>
<path fill="none" stroke="midnightblue" d="M320.58,-225.2C273.42,-217.17 207.51,-203.65 186.5,-188 170.81,-176.31 160.48,-156.07 154.6,-141.28"/>
<polygon fill="midnightblue" stroke="midnightblue" points="157.81,-139.86 151.1,-131.66 151.23,-142.26 157.81,-139.86"/>
</g>
<!-- Node23&#45;&gt;Node5 -->
<g id="edge30" class="edge">
<title>Node23&#45;&gt;Node5</title>
<path fill="none" stroke="midnightblue" d="M417.48,-224.47C467.72,-214.68 542.22,-198.61 550.5,-188 580.38,-149.68 512.57,-133.94 454.15,-127.48"/>
<polygon fill="midnightblue" stroke="midnightblue" points="454.43,-123.99 444.13,-126.45 453.72,-130.96 454.43,-123.99"/>
</g>
<!-- Node23&#45;&gt;Node15 -->
<g id="edge32" class="edge">
<title>Node23&#45;&gt;Node15</title>
<path fill="none" stroke="midnightblue" d="M388.21,-224.32C404.81,-215.7 430.5,-202.36 449.72,-192.39"/>
<polygon fill="midnightblue" stroke="midnightblue" points="451.57,-195.37 458.83,-187.65 448.34,-189.16 451.57,-195.37"/>
</g>
<!-- Node23&#45;&gt;Node16 -->
<g id="edge31" class="edge">
<title>Node23&#45;&gt;Node16</title>
<path fill="none" stroke="midnightblue" d="M355.92,-224.32C340.5,-215.74 316.69,-202.49 298.79,-192.52"/>
<polygon fill="midnightblue" stroke="midnightblue" points="300.49,-189.46 290.05,-187.65 297.08,-195.58 300.49,-189.46"/>
</g>
</g>
</svg>
