<?xml version="1.0" encoding="UTF-8" standalone="no"?>
<!DOCTYPE svg PUBLIC "-//W3C//DTD SVG 1.1//EN"
 "http://www.w3.org/Graphics/SVG/1.1/DTD/svg11.dtd">
<!-- Generated by graphviz version 2.43.0 (0)
 -->
<!-- Title: Server/src/Call.hpp Pages: 1 -->
<svg width="1102pt" height="252pt"
 viewBox="0.00 0.00 1102.00 252.00" xmlns="http://www.w3.org/2000/svg" xmlns:xlink="http://www.w3.org/1999/xlink">
<g id="graph0" class="graph" transform="scale(1 1) rotate(0) translate(4 248)">
<title>Server/src/Call.hpp</title>
<polygon fill="white" stroke="transparent" points="-4,4 -4,-248 1098,-248 1098,4 -4,4"/>
<!-- Node1 -->
<g id="node1" class="node">
<title>Node1</title>
<g id="a_node1"><a xlink:title=" ">
<polygon fill="#bfbfbf" stroke="black" points="505.5,-224.5 505.5,-243.5 613.5,-243.5 613.5,-224.5 505.5,-224.5"/>
<text text-anchor="middle" x="559.5" y="-231.5" font-family="Helvetica,sans-Serif" font-size="10.00">Server/src/Call.hpp</text>
</a>
</g>
</g>
<!-- Node2 -->
<g id="node2" class="node">
<title>Node2</title>
<g id="a_node2"><a xlink:title=" ">
<polygon fill="white" stroke="#bfbfbf" points="0,-56.5 0,-75.5 47,-75.5 47,-56.5 0,-56.5"/>
<text text-anchor="middle" x="23.5" y="-63.5" font-family="Helvetica,sans-Serif" font-size="10.00">vector</text>
</a>
</g>
</g>
<!-- Node1&#45;&gt;Node2 -->
<g id="edge1" class="edge">
<title>Node1&#45;&gt;Node2</title>
<path fill="none" stroke="midnightblue" d="M529.29,-224.42C469.67,-207.42 332.76,-167.95 218.5,-132 161.47,-114.06 95.57,-91.76 56.84,-78.49"/>
<polygon fill="midnightblue" stroke="midnightblue" points="57.72,-75.1 47.13,-75.16 55.45,-81.72 57.72,-75.1"/>
</g>
<!-- Node3 -->
<g id="node3" class="node">
<title>Node3</title>
<g id="a_node3"><a xlink:title=" ">
<polygon fill="white" stroke="#bfbfbf" points="856.5,-112.5 856.5,-131.5 900.5,-131.5 900.5,-112.5 856.5,-112.5"/>
<text text-anchor="middle" x="878.5" y="-119.5" font-family="Helvetica,sans-Serif" font-size="10.00">string</text>
</a>
</g>
</g>
<!-- Node1&#45;&gt;Node3 -->
<g id="edge2" class="edge">
<title>Node1&#45;&gt;Node3</title>
<path fill="none" stroke="midnightblue" d="M584.27,-224.46C641.51,-204.72 782.97,-155.94 846.6,-134"/>
<polygon fill="midnightblue" stroke="midnightblue" points="847.8,-137.29 856.11,-130.72 845.52,-130.67 847.8,-137.29"/>
</g>
<!-- Node4 -->
<g id="node4" class="node">
<title>Node4</title>
<g id="a_node4"><a xlink:href="Message_8hpp.html" target="_top" xlink:title=" ">
<polygon fill="white" stroke="black" points="325,-112.5 325,-131.5 450,-131.5 450,-112.5 325,-112.5"/>
<text text-anchor="middle" x="387.5" y="-119.5" font-family="Helvetica,sans-Serif" font-size="10.00">Network/Message.hpp</text>
</a>
</g>
</g>
<!-- Node1&#45;&gt;Node4 -->
<g id="edge3" class="edge">
<title>Node1&#45;&gt;Node4</title>
<path fill="none" stroke="midnightblue" d="M540.4,-224.49C522.19,-216.09 494.24,-202.44 471.5,-188 447.37,-172.68 421.67,-152.09 405.15,-138.22"/>
<polygon fill="midnightblue" stroke="midnightblue" points="407.29,-135.45 397.4,-131.65 402.76,-140.78 407.29,-135.45"/>
</g>
<!-- Node14 -->
<g id="node14" class="node">
<title>Node14</title>
<g id="a_node14"><a xlink:href="RFCCodes_8hpp.html" target="_top" xlink:title=" ">
<polygon fill="white" stroke="black" points="963,-168.5 963,-187.5 1094,-187.5 1094,-168.5 963,-168.5"/>
<text text-anchor="middle" x="1028.5" y="-175.5" font-family="Helvetica,sans-Serif" font-size="10.00">Network/RFCCodes.hpp</text>
</a>
</g>
</g>
<!-- Node1&#45;&gt;Node14 -->
<g id="edge15" class="edge">
<title>Node1&#45;&gt;Node14</title>
<path fill="none" stroke="midnightblue" d="M613.76,-226.75C697.28,-217.14 857.61,-198.68 952.6,-187.74"/>
<polygon fill="midnightblue" stroke="midnightblue" points="953.18,-191.2 962.72,-186.57 952.38,-184.24 953.18,-191.2"/>
</g>
<!-- Node15 -->
<g id="node15" class="node">
<title>Node15</title>
<g id="a_node15"><a xlink:href="ITCPConnection_8hpp.html" target="_top" xlink:title=" ">
<polygon fill="white" stroke="black" points="480.5,-168.5 480.5,-187.5 638.5,-187.5 638.5,-168.5 480.5,-168.5"/>
<text text-anchor="middle" x="559.5" y="-175.5" font-family="Helvetica,sans-Serif" font-size="10.00">Network/ITCPConnection.hpp</text>
</a>
</g>
</g>
<!-- Node1&#45;&gt;Node15 -->
<g id="edge17" class="edge">
<title>Node1&#45;&gt;Node15</title>
<path fill="none" stroke="midnightblue" d="M559.5,-224.08C559.5,-217.01 559.5,-206.86 559.5,-197.99"/>
<polygon fill="midnightblue" stroke="midnightblue" points="563,-197.75 559.5,-187.75 556,-197.75 563,-197.75"/>
</g>
<!-- Node4&#45;&gt;Node2 -->
<g id="edge11" class="edge">
<title>Node4&#45;&gt;Node2</title>
<path fill="none" stroke="midnightblue" d="M324.86,-114.96C260.15,-108.16 156.11,-95.68 57.08,-75.87"/>
<polygon fill="midnightblue" stroke="midnightblue" points="57.7,-72.42 47.2,-73.86 56.31,-79.28 57.7,-72.42"/>
</g>
<!-- Node5 -->
<g id="node5" class="node">
<title>Node5</title>
<g id="a_node5"><a xlink:href="BabelException_8hpp.html" target="_top" xlink:title=" ">
<polygon fill="white" stroke="black" points="273.5,-56.5 273.5,-75.5 443.5,-75.5 443.5,-56.5 273.5,-56.5"/>
<text text-anchor="middle" x="358.5" y="-63.5" font-family="Helvetica,sans-Serif" font-size="10.00">Exceptions/BabelException.hpp</text>
</a>
</g>
</g>
<!-- Node4&#45;&gt;Node5 -->
<g id="edge4" class="edge">
<title>Node4&#45;&gt;Node5</title>
<path fill="none" stroke="midnightblue" d="M382.71,-112.08C378.74,-104.69 372.97,-93.95 368.07,-84.81"/>
<polygon fill="midnightblue" stroke="midnightblue" points="371.01,-82.91 363.2,-75.75 364.85,-86.22 371.01,-82.91"/>
</g>
<!-- Node7 -->
<g id="node7" class="node">
<title>Node7</title>
<g id="a_node7"><a xlink:href="SwapEndian_8hpp.html" target="_top" xlink:title=" ">
<polygon fill="white" stroke="black" points="461.5,-56.5 461.5,-75.5 599.5,-75.5 599.5,-56.5 461.5,-56.5"/>
<text text-anchor="middle" x="530.5" y="-63.5" font-family="Helvetica,sans-Serif" font-size="10.00">Utilities/SwapEndian.hpp</text>
</a>
</g>
</g>
<!-- Node4&#45;&gt;Node7 -->
<g id="edge6" class="edge">
<title>Node4&#45;&gt;Node7</title>
<path fill="none" stroke="midnightblue" d="M410.16,-112.44C433.9,-103.48 471.41,-89.31 498.24,-79.18"/>
<polygon fill="midnightblue" stroke="midnightblue" points="499.83,-82.32 507.95,-75.52 497.36,-75.77 499.83,-82.32"/>
</g>
<!-- Node9 -->
<g id="node9" class="node">
<title>Node9</title>
<g id="a_node9"><a xlink:title=" ">
<polygon fill="white" stroke="#bfbfbf" points="670.5,-0.5 670.5,-19.5 720.5,-19.5 720.5,-0.5 670.5,-0.5"/>
<text text-anchor="middle" x="695.5" y="-7.5" font-family="Helvetica,sans-Serif" font-size="10.00">cstdint</text>
</a>
</g>
</g>
<!-- Node4&#45;&gt;Node9 -->
<g id="edge10" class="edge">
<title>Node4&#45;&gt;Node9</title>
<path fill="none" stroke="midnightblue" d="M450.29,-114.81C530.15,-106.39 659.76,-90.7 676.5,-76 689.6,-64.5 693.9,-44.53 695.2,-29.75"/>
<polygon fill="midnightblue" stroke="midnightblue" points="698.7,-29.85 695.7,-19.69 691.7,-29.5 698.7,-29.85"/>
</g>
<!-- Node10 -->
<g id="node10" class="node">
<title>Node10</title>
<g id="a_node10"><a xlink:title=" ">
<polygon fill="white" stroke="#bfbfbf" points="617.5,-56.5 617.5,-75.5 667.5,-75.5 667.5,-56.5 617.5,-56.5"/>
<text text-anchor="middle" x="642.5" y="-63.5" font-family="Helvetica,sans-Serif" font-size="10.00">cstring</text>
</a>
</g>
</g>
<!-- Node4&#45;&gt;Node10 -->
<g id="edge9" class="edge">
<title>Node4&#45;&gt;Node10</title>
<path fill="none" stroke="midnightblue" d="M433.38,-112.46C476.01,-104.35 541.48,-91.43 607.17,-76.21"/>
<polygon fill="midnightblue" stroke="midnightblue" points="608.35,-79.53 617.29,-73.85 606.76,-72.71 608.35,-79.53"/>
</g>
<!-- Node11 -->
<g id="node11" class="node">
<title>Node11</title>
<g id="a_node11"><a xlink:title=" ">
<polygon fill="white" stroke="#bfbfbf" points="65.5,-56.5 65.5,-75.5 129.5,-75.5 129.5,-56.5 65.5,-56.5"/>
<text text-anchor="middle" x="97.5" y="-63.5" font-family="Helvetica,sans-Serif" font-size="10.00">algorithm</text>
</a>
</g>
</g>
<!-- Node4&#45;&gt;Node11 -->
<g id="edge12" class="edge">
<title>Node4&#45;&gt;Node11</title>
<path fill="none" stroke="midnightblue" d="M337.32,-112.5C289.12,-104.2 214.01,-90.94 139.71,-76.19"/>
<polygon fill="midnightblue" stroke="midnightblue" points="140.2,-72.71 129.71,-74.19 138.83,-79.58 140.2,-72.71"/>
</g>
<!-- Node12 -->
<g id="node12" class="node">
<title>Node12</title>
<g id="a_node12"><a xlink:title=" ">
<polygon fill="white" stroke="#bfbfbf" points="147.5,-56.5 147.5,-75.5 207.5,-75.5 207.5,-56.5 147.5,-56.5"/>
<text text-anchor="middle" x="177.5" y="-63.5" font-family="Helvetica,sans-Serif" font-size="10.00">iostream</text>
</a>
</g>
</g>
<!-- Node4&#45;&gt;Node12 -->
<g id="edge13" class="edge">
<title>Node4&#45;&gt;Node12</title>
<path fill="none" stroke="midnightblue" d="M354.22,-112.44C317.09,-102.9 257.04,-87.45 217.41,-77.26"/>
<polygon fill="midnightblue" stroke="midnightblue" points="218.11,-73.83 207.56,-74.73 216.37,-80.61 218.11,-73.83"/>
</g>
<!-- Node13 -->
<g id="node13" class="node">
<title>Node13</title>
<g id="a_node13"><a xlink:title=" ">
<polygon fill="white" stroke="#bfbfbf" points="226,-56.5 226,-75.5 255,-75.5 255,-56.5 226,-56.5"/>
<text text-anchor="middle" x="240.5" y="-63.5" font-family="Helvetica,sans-Serif" font-size="10.00">bit</text>
</a>
</g>
</g>
<!-- Node4&#45;&gt;Node13 -->
<g id="edge14" class="edge">
<title>Node4&#45;&gt;Node13</title>
<path fill="none" stroke="midnightblue" d="M363.9,-112.43C340.91,-104.07 304.76,-90.88 264.65,-76.04"/>
<polygon fill="midnightblue" stroke="midnightblue" points="265.81,-72.73 255.22,-72.54 263.38,-79.3 265.81,-72.73"/>
</g>
<!-- Node6 -->
<g id="node6" class="node">
<title>Node6</title>
<g id="a_node6"><a xlink:title=" ">
<polygon fill="white" stroke="#bfbfbf" points="326,-0.5 326,-19.5 391,-19.5 391,-0.5 326,-0.5"/>
<text text-anchor="middle" x="358.5" y="-7.5" font-family="Helvetica,sans-Serif" font-size="10.00">stdexcept</text>
</a>
</g>
</g>
<!-- Node5&#45;&gt;Node6 -->
<g id="edge5" class="edge">
<title>Node5&#45;&gt;Node6</title>
<path fill="none" stroke="midnightblue" d="M358.5,-56.08C358.5,-49.01 358.5,-38.86 358.5,-29.99"/>
<polygon fill="midnightblue" stroke="midnightblue" points="362,-29.75 358.5,-19.75 355,-29.75 362,-29.75"/>
</g>
<!-- Node8 -->
<g id="node8" class="node">
<title>Node8</title>
<g id="a_node8"><a xlink:title=" ">
<polygon fill="white" stroke="#bfbfbf" points="505.5,-0.5 505.5,-19.5 555.5,-19.5 555.5,-0.5 505.5,-0.5"/>
<text text-anchor="middle" x="530.5" y="-7.5" font-family="Helvetica,sans-Serif" font-size="10.00">climits</text>
</a>
</g>
</g>
<!-- Node7&#45;&gt;Node8 -->
<g id="edge7" class="edge">
<title>Node7&#45;&gt;Node8</title>
<path fill="none" stroke="midnightblue" d="M530.5,-56.08C530.5,-49.01 530.5,-38.86 530.5,-29.99"/>
<polygon fill="midnightblue" stroke="midnightblue" points="534,-29.75 530.5,-19.75 527,-29.75 534,-29.75"/>
</g>
<!-- Node7&#45;&gt;Node9 -->
<g id="edge8" class="edge">
<title>Node7&#45;&gt;Node9</title>
<path fill="none" stroke="midnightblue" d="M556.64,-56.44C584.77,-47.24 629.63,-32.56 660.72,-22.38"/>
<polygon fill="midnightblue" stroke="midnightblue" points="661.87,-25.69 670.29,-19.25 659.7,-19.03 661.87,-25.69"/>
</g>
<!-- Node14&#45;&gt;Node9 -->
<g id="edge16" class="edge">
<title>Node14&#45;&gt;Node9</title>
<path fill="none" stroke="midnightblue" d="M1033.03,-168.38C1043.81,-146.54 1068.02,-88.5 1039.5,-56 1019.31,-32.99 814.23,-18.15 730.66,-13.01"/>
<polygon fill="midnightblue" stroke="midnightblue" points="730.82,-9.51 720.63,-12.4 730.4,-16.5 730.82,-9.51"/>
</g>
<!-- Node15&#45;&gt;Node2 -->
<g id="edge19" class="edge">
<title>Node15&#45;&gt;Node2</title>
<path fill="none" stroke="midnightblue" d="M509.94,-168.46C421.11,-152.84 228.83,-117.64 57.22,-76.07"/>
<polygon fill="midnightblue" stroke="midnightblue" points="57.8,-72.61 47.25,-73.64 56.14,-79.41 57.8,-72.61"/>
</g>
<!-- Node15&#45;&gt;Node3 -->
<g id="edge18" class="edge">
<title>Node15&#45;&gt;Node3</title>
<path fill="none" stroke="midnightblue" d="M630.39,-168.49C686.58,-161.15 767.2,-149.33 846.12,-132.08"/>
<polygon fill="midnightblue" stroke="midnightblue" points="847.23,-135.41 856.24,-129.83 845.72,-128.58 847.23,-135.41"/>
</g>
<!-- Node15&#45;&gt;Node4 -->
<g id="edge21" class="edge">
<title>Node15&#45;&gt;Node4</title>
<path fill="none" stroke="midnightblue" d="M532.25,-168.44C503.06,-159.28 456.58,-144.69 424.19,-134.52"/>
<polygon fill="midnightblue" stroke="midnightblue" points="425.22,-131.17 414.63,-131.52 423.12,-137.85 425.22,-131.17"/>
</g>
<!-- Node16 -->
<g id="node16" class="node">
<title>Node16</title>
<g id="a_node16"><a xlink:title=" ">
<polygon fill="white" stroke="#bfbfbf" points="527,-112.5 527,-131.5 592,-131.5 592,-112.5 527,-112.5"/>
<text text-anchor="middle" x="559.5" y="-119.5" font-family="Helvetica,sans-Serif" font-size="10.00">functional</text>
</a>
</g>
</g>
<!-- Node15&#45;&gt;Node16 -->
<g id="edge20" class="edge">
<title>Node15&#45;&gt;Node16</title>
<path fill="none" stroke="midnightblue" d="M559.5,-168.08C559.5,-161.01 559.5,-150.86 559.5,-141.99"/>
<polygon fill="midnightblue" stroke="midnightblue" points="563,-141.75 559.5,-131.75 556,-141.75 563,-141.75"/>
</g>
<!-- Node17 -->
<g id="node17" class="node">
<title>Node17</title>
<g id="a_node17"><a xlink:href="TSQueue_8hpp.html" target="_top" xlink:title=" ">
<polygon fill="white" stroke="black" points="716.5,-112.5 716.5,-131.5 838.5,-131.5 838.5,-112.5 716.5,-112.5"/>
<text text-anchor="middle" x="777.5" y="-119.5" font-family="Helvetica,sans-Serif" font-size="10.00">Utilities/TSQueue.hpp</text>
</a>
</g>
</g>
<!-- Node15&#45;&gt;Node17 -->
<g id="edge22" class="edge">
<title>Node15&#45;&gt;Node17</title>
<path fill="none" stroke="midnightblue" d="M594.04,-168.44C631.75,-159.1 692.24,-144.12 733.36,-133.93"/>
<polygon fill="midnightblue" stroke="midnightblue" points="734.25,-137.32 743.12,-131.52 732.57,-130.52 734.25,-137.32"/>
</g>
<!-- Node18 -->
<g id="node18" class="node">
<title>Node18</title>
<g id="a_node18"><a xlink:title=" ">
<polygon fill="white" stroke="#bfbfbf" points="982.5,-56.5 982.5,-75.5 1030.5,-75.5 1030.5,-56.5 982.5,-56.5"/>
<text text-anchor="middle" x="1006.5" y="-63.5" font-family="Helvetica,sans-Serif" font-size="10.00">mutex</text>
</a>
</g>
</g>
<!-- Node17&#45;&gt;Node18 -->
<g id="edge23" class="edge">
<title>Node17&#45;&gt;Node18</title>
<path fill="none" stroke="midnightblue" d="M816.66,-112.5C854.21,-104.24 912.74,-91.08 972.41,-76.2"/>
<polygon fill="midnightblue" stroke="midnightblue" points="973.53,-79.53 982.38,-73.7 971.83,-72.74 973.53,-79.53"/>
</g>
<!-- Node19 -->
<g id="node19" class="node">
<title>Node19</title>
<g id="a_node19"><a xlink:title=" ">
<polygon fill="white" stroke="#bfbfbf" points="724,-56.5 724,-75.5 831,-75.5 831,-56.5 724,-56.5"/>
<text text-anchor="middle" x="777.5" y="-63.5" font-family="Helvetica,sans-Serif" font-size="10.00">condition_variable</text>
</a>
</g>
</g>
<!-- Node17&#45;&gt;Node19 -->
<g id="edge24" class="edge">
<title>Node17&#45;&gt;Node19</title>
<path fill="none" stroke="midnightblue" d="M777.5,-112.08C777.5,-105.01 777.5,-94.86 777.5,-85.99"/>
<polygon fill="midnightblue" stroke="midnightblue" points="781,-85.75 777.5,-75.75 774,-85.75 781,-85.75"/>
</g>
<!-- Node20 -->
<g id="node20" class="node">
<title>Node20</title>
<g id="a_node20"><a xlink:title=" ">
<polygon fill="white" stroke="#bfbfbf" points="849,-56.5 849,-75.5 896,-75.5 896,-56.5 849,-56.5"/>
<text text-anchor="middle" x="872.5" y="-63.5" font-family="Helvetica,sans-Serif" font-size="10.00">deque</text>
</a>
</g>
</g>
<!-- Node17&#45;&gt;Node20 -->
<g id="edge25" class="edge">
<title>Node17&#45;&gt;Node20</title>
<path fill="none" stroke="midnightblue" d="M792.76,-112.32C807.72,-103.82 830.75,-90.73 848.23,-80.8"/>
<polygon fill="midnightblue" stroke="midnightblue" points="850.31,-83.64 857.27,-75.65 846.85,-77.55 850.31,-83.64"/>
</g>
<!-- Node21 -->
<g id="node21" class="node">
<title>Node21</title>
<g id="a_node21"><a xlink:title=" ">
<polygon fill="white" stroke="#bfbfbf" points="914.5,-56.5 914.5,-75.5 964.5,-75.5 964.5,-56.5 914.5,-56.5"/>
<text text-anchor="middle" x="939.5" y="-63.5" font-family="Helvetica,sans-Serif" font-size="10.00">chrono</text>
</a>
</g>
</g>
<!-- Node17&#45;&gt;Node21 -->
<g id="edge26" class="edge">
<title>Node17&#45;&gt;Node21</title>
<path fill="none" stroke="midnightblue" d="M803.17,-112.44C830.58,-103.31 874.19,-88.77 904.69,-78.6"/>
<polygon fill="midnightblue" stroke="midnightblue" points="906.1,-81.82 914.48,-75.34 903.89,-75.18 906.1,-81.82"/>
</g>
</g>
</svg>
