<?xml version="1.0" encoding="UTF-8" standalone="no"?>
<!DOCTYPE svg PUBLIC "-//W3C//DTD SVG 1.1//EN"
 "http://www.w3.org/Graphics/SVG/1.1/DTD/svg11.dtd">
<!-- Generated by graphviz version 2.43.0 (0)
 -->
<!-- Title: Babel::QtTCPConnection Pages: 1 -->
<svg width="231pt" height="457pt"
 viewBox="0.00 0.00 230.50 457.00" xmlns="http://www.w3.org/2000/svg" xmlns:xlink="http://www.w3.org/1999/xlink">
<g id="graph0" class="graph" transform="scale(1 1) rotate(0) translate(4 453)">
<title>Babel::QtTCPConnection</title>
<polygon fill="white" stroke="transparent" points="-4,4 -4,-453 226.5,-453 226.5,4 -4,4"/>
<!-- Node1 -->
<g id="node1" class="node">
<title>Node1</title>
<g id="a_node1"><a xlink:title=" ">
<polygon fill="#bfbfbf" stroke="black" points="9,-0.5 9,-233.5 167,-233.5 167,-0.5 9,-0.5"/>
<text text-anchor="middle" x="88" y="-221.5" font-family="Helvetica,sans-Serif" font-size="10.00">Babel::QtTCPConnection</text>
<polyline fill="none" stroke="black" points="9,-214.5 167,-214.5 "/>
<text text-anchor="start" x="17" y="-202.5" font-family="Helvetica,sans-Serif" font-size="10.00">&#45; _socket</text>
<text text-anchor="start" x="17" y="-191.5" font-family="Helvetica,sans-Serif" font-size="10.00">&#45; _callbackMessageReceived</text>
<text text-anchor="start" x="17" y="-180.5" font-family="Helvetica,sans-Serif" font-size="10.00">&#45; _messagesOut</text>
<text text-anchor="start" x="17" y="-169.5" font-family="Helvetica,sans-Serif" font-size="10.00">&#45; _tmpMessage</text>
<text text-anchor="start" x="17" y="-158.5" font-family="Helvetica,sans-Serif" font-size="10.00">&#45; _bytesRead</text>
<text text-anchor="start" x="17" y="-147.5" font-family="Helvetica,sans-Serif" font-size="10.00">&#45; _connectionId</text>
<polyline fill="none" stroke="black" points="9,-140.5 167,-140.5 "/>
<text text-anchor="start" x="17" y="-128.5" font-family="Helvetica,sans-Serif" font-size="10.00">+ connect()</text>
<text text-anchor="start" x="17" y="-117.5" font-family="Helvetica,sans-Serif" font-size="10.00">+ disconnect()</text>
<text text-anchor="start" x="17" y="-106.5" font-family="Helvetica,sans-Serif" font-size="10.00">+ isConnected()</text>
<text text-anchor="start" x="17" y="-95.5" font-family="Helvetica,sans-Serif" font-size="10.00">+ send()</text>
<text text-anchor="start" x="17" y="-84.5" font-family="Helvetica,sans-Serif" font-size="10.00">+ readForMessages()</text>
<text text-anchor="start" x="17" y="-73.5" font-family="Helvetica,sans-Serif" font-size="10.00">+ setCallbackOnMessage()</text>
<text text-anchor="start" x="17" y="-62.5" font-family="Helvetica,sans-Serif" font-size="10.00">+ getId()</text>
<text text-anchor="start" x="17" y="-51.5" font-family="Helvetica,sans-Serif" font-size="10.00">+ setId()</text>
<text text-anchor="start" x="17" y="-40.5" font-family="Helvetica,sans-Serif" font-size="10.00">+ getPeerIp()</text>
<text text-anchor="start" x="17" y="-29.5" font-family="Helvetica,sans-Serif" font-size="10.00">+ getPeerPort()</text>
<text text-anchor="start" x="17" y="-18.5" font-family="Helvetica,sans-Serif" font-size="10.00">+ QtTCPConnection()</text>
<text text-anchor="start" x="17" y="-7.5" font-family="Helvetica,sans-Serif" font-size="10.00">&#45; readMessage()</text>
</a>
</g>
</g>
<!-- Node2 -->
<g id="node2" class="node">
<title>Node2</title>
<g id="a_node2"><a xlink:title=" ">
<polygon fill="white" stroke="#bfbfbf" points="0,-331 0,-388 56,-388 56,-331 0,-331"/>
<text text-anchor="middle" x="28" y="-376" font-family="Helvetica,sans-Serif" font-size="10.00">QObject</text>
<polyline fill="none" stroke="#bfbfbf" points="0,-369 56,-369 "/>
<text text-anchor="middle" x="28" y="-357" font-family="Helvetica,sans-Serif" font-size="10.00"> </text>
<polyline fill="none" stroke="#bfbfbf" points="0,-350 56,-350 "/>
<text text-anchor="middle" x="28" y="-338" font-family="Helvetica,sans-Serif" font-size="10.00"> </text>
</a>
</g>
</g>
<!-- Node2&#45;&gt;Node1 -->
<g id="edge1" class="edge">
<title>Node2&#45;&gt;Node1</title>
<path fill="none" stroke="midnightblue" d="M37.37,-320.96C43.28,-297.23 51.28,-265.18 59.17,-233.56"/>
<polygon fill="none" stroke="midnightblue" points="33.91,-320.36 34.88,-330.91 40.7,-322.06 33.91,-320.36"/>
</g>
<!-- Node3 -->
<g id="node3" class="node">
<title>Node3</title>
<g id="a_node3"><a xlink:href="classBabel_1_1ITCPConnection.html" target="_top" xlink:title=" ">
<polygon fill="white" stroke="black" points="73.5,-270.5 73.5,-448.5 222.5,-448.5 222.5,-270.5 73.5,-270.5"/>
<text text-anchor="start" x="81.5" y="-436.5" font-family="Helvetica,sans-Serif" font-size="10.00">Babel::ITCPConnection</text>
<text text-anchor="middle" x="148" y="-425.5" font-family="Helvetica,sans-Serif" font-size="10.00">&lt; RFCCodes &gt;</text>
<polyline fill="none" stroke="black" points="73.5,-418.5 222.5,-418.5 "/>
<text text-anchor="middle" x="148" y="-406.5" font-family="Helvetica,sans-Serif" font-size="10.00"> </text>
<polyline fill="none" stroke="black" points="73.5,-399.5 222.5,-399.5 "/>
<text text-anchor="start" x="81.5" y="-387.5" font-family="Helvetica,sans-Serif" font-size="10.00">+ connect()</text>
<text text-anchor="start" x="81.5" y="-376.5" font-family="Helvetica,sans-Serif" font-size="10.00">+ disconnect()</text>
<text text-anchor="start" x="81.5" y="-365.5" font-family="Helvetica,sans-Serif" font-size="10.00">+ isConnected()</text>
<text text-anchor="start" x="81.5" y="-354.5" font-family="Helvetica,sans-Serif" font-size="10.00">+ send()</text>
<text text-anchor="start" x="81.5" y="-343.5" font-family="Helvetica,sans-Serif" font-size="10.00">+ readForMessages()</text>
<text text-anchor="start" x="81.5" y="-332.5" font-family="Helvetica,sans-Serif" font-size="10.00">+ setCallbackOnMessage()</text>
<text text-anchor="start" x="81.5" y="-321.5" font-family="Helvetica,sans-Serif" font-size="10.00">+ getId()</text>
<text text-anchor="start" x="81.5" y="-310.5" font-family="Helvetica,sans-Serif" font-size="10.00">+ setId()</text>
<text text-anchor="start" x="81.5" y="-299.5" font-family="Helvetica,sans-Serif" font-size="10.00">+ getPeerIp()</text>
<text text-anchor="start" x="81.5" y="-288.5" font-family="Helvetica,sans-Serif" font-size="10.00">+ getPeerPort()</text>
<text text-anchor="start" x="81.5" y="-277.5" font-family="Helvetica,sans-Serif" font-size="10.00">+ ~ITCPConnection()</text>
</a>
</g>
</g>
<!-- Node3&#45;&gt;Node1 -->
<g id="edge2" class="edge">
<title>Node3&#45;&gt;Node1</title>
<path fill="none" stroke="midnightblue" d="M123.53,-260.43C121.33,-251.61 119.09,-242.63 116.86,-233.67"/>
<polygon fill="none" stroke="midnightblue" points="120.18,-261.46 126,-270.31 126.97,-259.76 120.18,-261.46"/>
</g>
</g>
</svg>
