<?xml version="1.0" encoding="UTF-8" standalone="no"?>
<!DOCTYPE svg PUBLIC "-//W3C//DTD SVG 1.1//EN"
 "http://www.w3.org/Graphics/SVG/1.1/DTD/svg11.dtd">
<!-- Generated by graphviz version 2.43.0 (0)
 -->
<!-- Title: Babel::Exception::BabelException Pages: 1 -->
<svg width="454pt" height="276pt"
 viewBox="0.00 0.00 454.00 276.00" xmlns="http://www.w3.org/2000/svg" xmlns:xlink="http://www.w3.org/1999/xlink">
<g id="graph0" class="graph" transform="scale(1 1) rotate(0) translate(4 272)">
<title>Babel::Exception::BabelException</title>
<polygon fill="white" stroke="transparent" points="-4,4 -4,-272 450,-272 450,4 -4,4"/>
<!-- Node1 -->
<g id="node1" class="node">
<title>Node1</title>
<g id="a_node1"><a xlink:title="Base Project Exception.">
<polygon fill="#bfbfbf" stroke="black" points="130,-94.5 130,-173.5 310,-173.5 310,-94.5 130,-94.5"/>
<text text-anchor="middle" x="220" y="-161.5" font-family="Helvetica,sans-Serif" font-size="10.00">Babel::Exception::BabelException</text>
<polyline fill="none" stroke="black" points="130,-154.5 310,-154.5 "/>
<text text-anchor="middle" x="220" y="-142.5" font-family="Helvetica,sans-Serif" font-size="10.00"> </text>
<polyline fill="none" stroke="black" points="130,-135.5 310,-135.5 "/>
<text text-anchor="start" x="138" y="-123.5" font-family="Helvetica,sans-Serif" font-size="10.00">+ BabelException()</text>
<text text-anchor="start" x="138" y="-112.5" font-family="Helvetica,sans-Serif" font-size="10.00">+ BabelException()</text>
<text text-anchor="start" x="138" y="-101.5" font-family="Helvetica,sans-Serif" font-size="10.00">+ ~BabelException()</text>
</a>
</g>
</g>
<!-- Node3 -->
<g id="node3" class="node">
<title>Node3</title>
<g id="a_node3"><a xlink:href="classBabel_1_1NetworkException.html" target="_top" xlink:title=" ">
<polygon fill="white" stroke="black" points="0,-0.5 0,-57.5 140,-57.5 140,-0.5 0,-0.5"/>
<text text-anchor="middle" x="70" y="-45.5" font-family="Helvetica,sans-Serif" font-size="10.00">Babel::NetworkException</text>
<polyline fill="none" stroke="black" points="0,-38.5 140,-38.5 "/>
<text text-anchor="middle" x="70" y="-26.5" font-family="Helvetica,sans-Serif" font-size="10.00"> </text>
<polyline fill="none" stroke="black" points="0,-19.5 140,-19.5 "/>
<text text-anchor="start" x="8" y="-7.5" font-family="Helvetica,sans-Serif" font-size="10.00">+ NetworkException()</text>
</a>
</g>
</g>
<!-- Node1&#45;&gt;Node3 -->
<g id="edge2" class="edge">
<title>Node1&#45;&gt;Node3</title>
<path fill="none" stroke="midnightblue" d="M155.29,-88.56C139.97,-78.05 124.07,-67.13 110.21,-57.61"/>
<polygon fill="none" stroke="midnightblue" points="153.49,-91.58 163.72,-94.35 157.46,-85.81 153.49,-91.58"/>
</g>
<!-- Node4 -->
<g id="node4" class="node">
<title>Node4</title>
<g id="a_node4"><a xlink:href="classBabel_1_1OpusException.html" target="_top" xlink:title=" ">
<polygon fill="white" stroke="black" points="158.5,-0.5 158.5,-57.5 281.5,-57.5 281.5,-0.5 158.5,-0.5"/>
<text text-anchor="middle" x="220" y="-45.5" font-family="Helvetica,sans-Serif" font-size="10.00">Babel::OpusException</text>
<polyline fill="none" stroke="black" points="158.5,-38.5 281.5,-38.5 "/>
<text text-anchor="middle" x="220" y="-26.5" font-family="Helvetica,sans-Serif" font-size="10.00"> </text>
<polyline fill="none" stroke="black" points="158.5,-19.5 281.5,-19.5 "/>
<text text-anchor="start" x="166.5" y="-7.5" font-family="Helvetica,sans-Serif" font-size="10.00">+ OpusException()</text>
</a>
</g>
</g>
<!-- Node1&#45;&gt;Node4 -->
<g id="edge3" class="edge">
<title>Node1&#45;&gt;Node4</title>
<path fill="none" stroke="midnightblue" d="M220,-84.16C220,-75.04 220,-65.81 220,-57.61"/>
<polygon fill="none" stroke="midnightblue" points="216.5,-84.35 220,-94.35 223.5,-84.35 216.5,-84.35"/>
</g>
<!-- Node5 -->
<g id="node5" class="node">
<title>Node5</title>
<g id="a_node5"><a xlink:href="classBabel_1_1PortAudioException.html" target="_top" xlink:title=" ">
<polygon fill="white" stroke="black" points="300,-0.5 300,-57.5 446,-57.5 446,-0.5 300,-0.5"/>
<text text-anchor="middle" x="373" y="-45.5" font-family="Helvetica,sans-Serif" font-size="10.00">Babel::PortAudioException</text>
<polyline fill="none" stroke="black" points="300,-38.5 446,-38.5 "/>
<text text-anchor="middle" x="373" y="-26.5" font-family="Helvetica,sans-Serif" font-size="10.00"> </text>
<polyline fill="none" stroke="black" points="300,-19.5 446,-19.5 "/>
<text text-anchor="start" x="308" y="-7.5" font-family="Helvetica,sans-Serif" font-size="10.00">+ PortAudioException()</text>
</a>
</g>
</g>
<!-- Node1&#45;&gt;Node5 -->
<g id="edge4" class="edge">
<title>Node1&#45;&gt;Node5</title>
<path fill="none" stroke="midnightblue" d="M286.01,-88.56C301.63,-78.05 317.85,-67.13 331.99,-57.61"/>
<polygon fill="none" stroke="midnightblue" points="283.75,-85.87 277.41,-94.35 287.66,-91.67 283.75,-85.87"/>
</g>
<!-- Node2 -->
<g id="node2" class="node">
<title>Node2</title>
<g id="a_node2"><a xlink:title=" ">
<polygon fill="white" stroke="#bfbfbf" points="168,-210.5 168,-267.5 272,-267.5 272,-210.5 168,-210.5"/>
<text text-anchor="middle" x="220" y="-255.5" font-family="Helvetica,sans-Serif" font-size="10.00">std::runtime_error</text>
<polyline fill="none" stroke="#bfbfbf" points="168,-248.5 272,-248.5 "/>
<text text-anchor="middle" x="220" y="-236.5" font-family="Helvetica,sans-Serif" font-size="10.00"> </text>
<polyline fill="none" stroke="#bfbfbf" points="168,-229.5 272,-229.5 "/>
<text text-anchor="middle" x="220" y="-217.5" font-family="Helvetica,sans-Serif" font-size="10.00"> </text>
</a>
</g>
</g>
<!-- Node2&#45;&gt;Node1 -->
<g id="edge1" class="edge">
<title>Node2&#45;&gt;Node1</title>
<path fill="none" stroke="midnightblue" d="M220,-200.16C220,-191.47 220,-182.23 220,-173.52"/>
<polygon fill="none" stroke="midnightblue" points="216.5,-200.4 220,-210.4 223.5,-200.4 216.5,-200.4"/>
</g>
</g>
</svg>
