<?xml version="1.0" encoding="UTF-8" standalone="no"?>
<!DOCTYPE svg PUBLIC "-//W3C//DTD SVG 1.1//EN"
 "http://www.w3.org/Graphics/SVG/1.1/DTD/svg11.dtd">
<!-- Generated by graphviz version 2.43.0 (0)
 -->
<!-- Title: Babel::QtTCPConnection Pages: 1 -->
<svg width="583pt" height="628pt"
 viewBox="0.00 0.00 582.50 628.00" xmlns="http://www.w3.org/2000/svg" xmlns:xlink="http://www.w3.org/1999/xlink">
<g id="graph0" class="graph" transform="scale(1 1) rotate(0) translate(4 624)">
<title>Babel::QtTCPConnection</title>
<polygon fill="white" stroke="transparent" points="-4,4 -4,-624 578.5,-624 578.5,4 -4,4"/>
<!-- Node1 -->
<g id="node1" class="node">
<title>Node1</title>
<g id="a_node1"><a xlink:title=" ">
<polygon fill="#bfbfbf" stroke="black" points="121,-0.5 121,-211.5 279,-211.5 279,-0.5 121,-0.5"/>
<text text-anchor="middle" x="200" y="-199.5" font-family="Helvetica,sans-Serif" font-size="10.00">Babel::QtTCPConnection</text>
<polyline fill="none" stroke="black" points="121,-192.5 279,-192.5 "/>
<text text-anchor="start" x="129" y="-180.5" font-family="Helvetica,sans-Serif" font-size="10.00">&#45; _socket</text>
<text text-anchor="start" x="129" y="-169.5" font-family="Helvetica,sans-Serif" font-size="10.00">&#45; _callbackMessageReceived</text>
<text text-anchor="start" x="129" y="-158.5" font-family="Helvetica,sans-Serif" font-size="10.00">&#45; _bytesRead</text>
<text text-anchor="start" x="129" y="-147.5" font-family="Helvetica,sans-Serif" font-size="10.00">&#45; _connectionId</text>
<polyline fill="none" stroke="black" points="121,-140.5 279,-140.5 "/>
<text text-anchor="start" x="129" y="-128.5" font-family="Helvetica,sans-Serif" font-size="10.00">+ connect()</text>
<text text-anchor="start" x="129" y="-117.5" font-family="Helvetica,sans-Serif" font-size="10.00">+ disconnect()</text>
<text text-anchor="start" x="129" y="-106.5" font-family="Helvetica,sans-Serif" font-size="10.00">+ isConnected()</text>
<text text-anchor="start" x="129" y="-95.5" font-family="Helvetica,sans-Serif" font-size="10.00">+ send()</text>
<text text-anchor="start" x="129" y="-84.5" font-family="Helvetica,sans-Serif" font-size="10.00">+ readForMessages()</text>
<text text-anchor="start" x="129" y="-73.5" font-family="Helvetica,sans-Serif" font-size="10.00">+ setCallbackOnMessage()</text>
<text text-anchor="start" x="129" y="-62.5" font-family="Helvetica,sans-Serif" font-size="10.00">+ getId()</text>
<text text-anchor="start" x="129" y="-51.5" font-family="Helvetica,sans-Serif" font-size="10.00">+ setId()</text>
<text text-anchor="start" x="129" y="-40.5" font-family="Helvetica,sans-Serif" font-size="10.00">+ getPeerIp()</text>
<text text-anchor="start" x="129" y="-29.5" font-family="Helvetica,sans-Serif" font-size="10.00">+ getPeerPort()</text>
<text text-anchor="start" x="129" y="-18.5" font-family="Helvetica,sans-Serif" font-size="10.00">+ QtTCPConnection()</text>
<text text-anchor="start" x="129" y="-7.5" font-family="Helvetica,sans-Serif" font-size="10.00">&#45; readMessage()</text>
</a>
</g>
</g>
<!-- Node2 -->
<g id="node2" class="node">
<title>Node2</title>
<g id="a_node2"><a xlink:title=" ">
<polygon fill="white" stroke="#bfbfbf" points="0,-347.5 0,-404.5 56,-404.5 56,-347.5 0,-347.5"/>
<text text-anchor="middle" x="28" y="-392.5" font-family="Helvetica,sans-Serif" font-size="10.00">QObject</text>
<polyline fill="none" stroke="#bfbfbf" points="0,-385.5 56,-385.5 "/>
<text text-anchor="middle" x="28" y="-373.5" font-family="Helvetica,sans-Serif" font-size="10.00"> </text>
<polyline fill="none" stroke="#bfbfbf" points="0,-366.5 56,-366.5 "/>
<text text-anchor="middle" x="28" y="-354.5" font-family="Helvetica,sans-Serif" font-size="10.00"> </text>
</a>
</g>
</g>
<!-- Node2&#45;&gt;Node1 -->
<g id="edge1" class="edge">
<title>Node2&#45;&gt;Node1</title>
<path fill="none" stroke="midnightblue" d="M35.34,-337.44C40.96,-313.88 50.15,-283.45 64,-259 79.27,-232.04 99.99,-205.75 120.65,-182.83"/>
<polygon fill="none" stroke="midnightblue" points="31.88,-336.88 33.07,-347.41 38.7,-338.43 31.88,-336.88"/>
</g>
<!-- Node3 -->
<g id="node3" class="node">
<title>Node3</title>
<g id="a_node3"><a xlink:href="classBabel_1_1ITCPConnection.html" target="_top" xlink:title=" ">
<polygon fill="white" stroke="black" points="73.5,-287 73.5,-465 222.5,-465 222.5,-287 73.5,-287"/>
<text text-anchor="start" x="81.5" y="-453" font-family="Helvetica,sans-Serif" font-size="10.00">Babel::ITCPConnection</text>
<text text-anchor="middle" x="148" y="-442" font-family="Helvetica,sans-Serif" font-size="10.00">&lt; RFCCodes &gt;</text>
<polyline fill="none" stroke="black" points="73.5,-435 222.5,-435 "/>
<text text-anchor="middle" x="148" y="-423" font-family="Helvetica,sans-Serif" font-size="10.00"> </text>
<polyline fill="none" stroke="black" points="73.5,-416 222.5,-416 "/>
<text text-anchor="start" x="81.5" y="-404" font-family="Helvetica,sans-Serif" font-size="10.00">+ connect()</text>
<text text-anchor="start" x="81.5" y="-393" font-family="Helvetica,sans-Serif" font-size="10.00">+ disconnect()</text>
<text text-anchor="start" x="81.5" y="-382" font-family="Helvetica,sans-Serif" font-size="10.00">+ isConnected()</text>
<text text-anchor="start" x="81.5" y="-371" font-family="Helvetica,sans-Serif" font-size="10.00">+ send()</text>
<text text-anchor="start" x="81.5" y="-360" font-family="Helvetica,sans-Serif" font-size="10.00">+ readForMessages()</text>
<text text-anchor="start" x="81.5" y="-349" font-family="Helvetica,sans-Serif" font-size="10.00">+ setCallbackOnMessage()</text>
<text text-anchor="start" x="81.5" y="-338" font-family="Helvetica,sans-Serif" font-size="10.00">+ getId()</text>
<text text-anchor="start" x="81.5" y="-327" font-family="Helvetica,sans-Serif" font-size="10.00">+ setId()</text>
<text text-anchor="start" x="81.5" y="-316" font-family="Helvetica,sans-Serif" font-size="10.00">+ getPeerIp()</text>
<text text-anchor="start" x="81.5" y="-305" font-family="Helvetica,sans-Serif" font-size="10.00">+ getPeerPort()</text>
<text text-anchor="start" x="81.5" y="-294" font-family="Helvetica,sans-Serif" font-size="10.00">+ ~ITCPConnection()</text>
</a>
</g>
</g>
<!-- Node3&#45;&gt;Node1 -->
<g id="edge2" class="edge">
<title>Node3&#45;&gt;Node1</title>
<path fill="none" stroke="midnightblue" d="M167.03,-276.94C171.13,-255.79 175.48,-233.36 179.63,-211.96"/>
<polygon fill="none" stroke="midnightblue" points="163.57,-276.39 165.1,-286.88 170.44,-277.73 163.57,-276.39"/>
</g>
<!-- Node4 -->
<g id="node4" class="node">
<title>Node4</title>
<g id="a_node4"><a xlink:href="structBabel_1_1Message.html" target="_top" xlink:title=" ">
<polygon fill="white" stroke="black" points="241,-309 241,-443 407,-443 407,-309 241,-309"/>
<text text-anchor="middle" x="324" y="-431" font-family="Helvetica,sans-Serif" font-size="10.00">Babel::Message&lt; RFCCodes &gt;</text>
<polyline fill="none" stroke="black" points="241,-424 407,-424 "/>
<text text-anchor="start" x="249" y="-412" font-family="Helvetica,sans-Serif" font-size="10.00">+ body</text>
<polyline fill="none" stroke="black" points="241,-405 407,-405 "/>
<text text-anchor="start" x="249" y="-393" font-family="Helvetica,sans-Serif" font-size="10.00">+ size()</text>
<text text-anchor="start" x="249" y="-382" font-family="Helvetica,sans-Serif" font-size="10.00">+ reset()</text>
<text text-anchor="start" x="249" y="-371" font-family="Helvetica,sans-Serif" font-size="10.00">+ Message()</text>
<text text-anchor="start" x="249" y="-360" font-family="Helvetica,sans-Serif" font-size="10.00">+ Message()</text>
<text text-anchor="start" x="249" y="-349" font-family="Helvetica,sans-Serif" font-size="10.00">+ ~Message()</text>
<text text-anchor="start" x="249" y="-338" font-family="Helvetica,sans-Serif" font-size="10.00">+ operator=()</text>
<text text-anchor="start" x="249" y="-327" font-family="Helvetica,sans-Serif" font-size="10.00">+ GetBytes()</text>
<text text-anchor="start" x="249" y="-316" font-family="Helvetica,sans-Serif" font-size="10.00">+ GetBytes()</text>
</a>
</g>
</g>
<!-- Node4&#45;&gt;Node1 -->
<g id="edge3" class="edge">
<title>Node4&#45;&gt;Node1</title>
<path fill="none" stroke="#404040" d="M293.35,-308.75C281.33,-282.78 267.18,-252.19 253.58,-222.79"/>
<polygon fill="none" stroke="#404040" points="253.43,-222.49 247.28,-218.72 248.4,-211.6 254.55,-215.36 253.43,-222.49"/>
<text text-anchor="middle" x="300" y="-233" font-family="Helvetica,sans-Serif" font-size="10.00"> &#45;_tmpMessage</text>
</g>
<!-- Node5 -->
<g id="node5" class="node">
<title>Node5</title>
<g id="a_node5"><a xlink:href="structBabel_1_1MessageHeader.html" target="_top" xlink:title=" ">
<polygon fill="white" stroke="black" points="259.5,-540.5 259.5,-619.5 388.5,-619.5 388.5,-540.5 259.5,-540.5"/>
<text text-anchor="start" x="267.5" y="-607.5" font-family="Helvetica,sans-Serif" font-size="10.00">Babel::MessageHeader</text>
<text text-anchor="middle" x="324" y="-596.5" font-family="Helvetica,sans-Serif" font-size="10.00">&lt; RFCCodes &gt;</text>
<polyline fill="none" stroke="black" points="259.5,-589.5 388.5,-589.5 "/>
<text text-anchor="start" x="267.5" y="-577.5" font-family="Helvetica,sans-Serif" font-size="10.00">+ codeId</text>
<text text-anchor="start" x="267.5" y="-566.5" font-family="Helvetica,sans-Serif" font-size="10.00">+ bodySize</text>
<polyline fill="none" stroke="black" points="259.5,-559.5 388.5,-559.5 "/>
<text text-anchor="start" x="267.5" y="-547.5" font-family="Helvetica,sans-Serif" font-size="10.00">+ handleEndianness()</text>
</a>
</g>
</g>
<!-- Node5&#45;&gt;Node4 -->
<g id="edge4" class="edge">
<title>Node5&#45;&gt;Node4</title>
<path fill="none" stroke="#404040" d="M324,-540.05C324,-516.08 324,-484.49 324,-455.5"/>
<polygon fill="none" stroke="#404040" points="324,-455.26 320,-449.26 324,-443.26 328,-449.26 324,-455.26"/>
<text text-anchor="middle" x="347" y="-514" font-family="Helvetica,sans-Serif" font-size="10.00"> +header</text>
</g>
<!-- Node6 -->
<g id="node6" class="node">
<title>Node6</title>
<g id="a_node6"><a xlink:href="classBabel_1_1TSQueue.html" target="_top" xlink:title=" ">
<polygon fill="white" stroke="black" points="425.5,-259.5 425.5,-492.5 574.5,-492.5 574.5,-259.5 425.5,-259.5"/>
<text text-anchor="start" x="433.5" y="-480.5" font-family="Helvetica,sans-Serif" font-size="10.00">Babel::TSQueue&lt; Babel</text>
<text text-anchor="middle" x="500" y="-469.5" font-family="Helvetica,sans-Serif" font-size="10.00">::Message&lt; RFCCodes &gt; &gt;</text>
<polyline fill="none" stroke="black" points="425.5,-462.5 574.5,-462.5 "/>
<text text-anchor="start" x="433.5" y="-450.5" font-family="Helvetica,sans-Serif" font-size="10.00"># _mutex</text>
<text text-anchor="start" x="433.5" y="-439.5" font-family="Helvetica,sans-Serif" font-size="10.00"># _queue</text>
<text text-anchor="start" x="433.5" y="-428.5" font-family="Helvetica,sans-Serif" font-size="10.00"># _blocker</text>
<text text-anchor="start" x="433.5" y="-417.5" font-family="Helvetica,sans-Serif" font-size="10.00"># _waitMutex</text>
<polyline fill="none" stroke="black" points="425.5,-410.5 574.5,-410.5 "/>
<text text-anchor="start" x="433.5" y="-398.5" font-family="Helvetica,sans-Serif" font-size="10.00">+ TSQueue()</text>
<text text-anchor="start" x="433.5" y="-387.5" font-family="Helvetica,sans-Serif" font-size="10.00">+ TSQueue()</text>
<text text-anchor="start" x="433.5" y="-376.5" font-family="Helvetica,sans-Serif" font-size="10.00">+ ~TSQueue()</text>
<text text-anchor="start" x="433.5" y="-365.5" font-family="Helvetica,sans-Serif" font-size="10.00">+ front()</text>
<text text-anchor="start" x="433.5" y="-354.5" font-family="Helvetica,sans-Serif" font-size="10.00">+ back()</text>
<text text-anchor="start" x="433.5" y="-343.5" font-family="Helvetica,sans-Serif" font-size="10.00">+ popFront()</text>
<text text-anchor="start" x="433.5" y="-332.5" font-family="Helvetica,sans-Serif" font-size="10.00">+ popBack()</text>
<text text-anchor="start" x="433.5" y="-321.5" font-family="Helvetica,sans-Serif" font-size="10.00">+ pushFront()</text>
<text text-anchor="start" x="433.5" y="-310.5" font-family="Helvetica,sans-Serif" font-size="10.00">+ pushBack()</text>
<text text-anchor="start" x="433.5" y="-299.5" font-family="Helvetica,sans-Serif" font-size="10.00">+ empty()</text>
<text text-anchor="start" x="433.5" y="-288.5" font-family="Helvetica,sans-Serif" font-size="10.00">+ count()</text>
<text text-anchor="start" x="433.5" y="-277.5" font-family="Helvetica,sans-Serif" font-size="10.00">+ clear()</text>
<text text-anchor="start" x="433.5" y="-266.5" font-family="Helvetica,sans-Serif" font-size="10.00">+ waitFor()</text>
</a>
</g>
</g>
<!-- Node6&#45;&gt;Node1 -->
<g id="edge5" class="edge">
<title>Node6&#45;&gt;Node1</title>
<path fill="none" stroke="#404040" d="M425.45,-268.79C422.34,-265.42 419.19,-262.14 416,-259 378.23,-221.74 330.49,-187.11 289.49,-160.35"/>
<polygon fill="none" stroke="#404040" points="289.31,-160.23 282.1,-160.33 279.23,-153.72 286.44,-153.61 289.31,-160.23"/>
<text text-anchor="middle" x="434.5" y="-233" font-family="Helvetica,sans-Serif" font-size="10.00"> &#45;_messagesOut</text>
</g>
</g>
</svg>
