<?xml version="1.0" encoding="UTF-8" standalone="no"?>
<!DOCTYPE svg PUBLIC "-//W3C//DTD SVG 1.1//EN"
 "http://www.w3.org/Graphics/SVG/1.1/DTD/svg11.dtd">
<!-- Generated by graphviz version 2.43.0 (0)
 -->
<!-- Title: Babel::HomePage Pages: 1 -->
<svg width="731pt" height="997pt"
 viewBox="0.00 0.00 731.00 997.00" xmlns="http://www.w3.org/2000/svg" xmlns:xlink="http://www.w3.org/1999/xlink">
<g id="graph0" class="graph" transform="scale(1 1) rotate(0) translate(4 993)">
<title>Babel::HomePage</title>
<polygon fill="white" stroke="transparent" points="-4,4 -4,-993 727,-993 727,4 -4,4"/>
<!-- Node1 -->
<g id="node1" class="node">
<title>Node1</title>
<g id="a_node1"><a xlink:title="Main client Class.">
<polygon fill="#bfbfbf" stroke="black" points="316.5,-0.5 316.5,-288.5 435.5,-288.5 435.5,-0.5 316.5,-0.5"/>
<text text-anchor="middle" x="376" y="-276.5" font-family="Helvetica,sans-Serif" font-size="10.00">Babel::HomePage</text>
<polyline fill="none" stroke="black" points="316.5,-269.5 435.5,-269.5 "/>
<text text-anchor="start" x="324.5" y="-257.5" font-family="Helvetica,sans-Serif" font-size="10.00">+ startUdpPort</text>
<text text-anchor="start" x="324.5" y="-246.5" font-family="Helvetica,sans-Serif" font-size="10.00">&#45; _window</text>
<text text-anchor="start" x="324.5" y="-235.5" font-family="Helvetica,sans-Serif" font-size="10.00">&#45; _messageHandlers</text>
<text text-anchor="start" x="324.5" y="-224.5" font-family="Helvetica,sans-Serif" font-size="10.00">&#45; _usersInfos</text>
<text text-anchor="start" x="324.5" y="-213.5" font-family="Helvetica,sans-Serif" font-size="10.00">&#45; _usersInCurrentCall</text>
<text text-anchor="start" x="324.5" y="-202.5" font-family="Helvetica,sans-Serif" font-size="10.00">&#45; _currentCallId</text>
<text text-anchor="start" x="324.5" y="-191.5" font-family="Helvetica,sans-Serif" font-size="10.00">&#45; _address</text>
<text text-anchor="start" x="324.5" y="-180.5" font-family="Helvetica,sans-Serif" font-size="10.00">&#45; _username</text>
<text text-anchor="start" x="324.5" y="-169.5" font-family="Helvetica,sans-Serif" font-size="10.00">&#45; CurrentlyNotInCall</text>
<polyline fill="none" stroke="black" points="316.5,-162.5 435.5,-162.5 "/>
<text text-anchor="start" x="324.5" y="-150.5" font-family="Helvetica,sans-Serif" font-size="10.00">+ HomePage()</text>
<text text-anchor="start" x="324.5" y="-139.5" font-family="Helvetica,sans-Serif" font-size="10.00">+ ~HomePage()</text>
<text text-anchor="start" x="324.5" y="-128.5" font-family="Helvetica,sans-Serif" font-size="10.00">&#45; sendHandler()</text>
<text text-anchor="start" x="324.5" y="-117.5" font-family="Helvetica,sans-Serif" font-size="10.00">&#45; onMessage()</text>
<text text-anchor="start" x="324.5" y="-106.5" font-family="Helvetica,sans-Serif" font-size="10.00">&#45; doConnect()</text>
<text text-anchor="start" x="324.5" y="-95.5" font-family="Helvetica,sans-Serif" font-size="10.00">&#45; doLogin()</text>
<text text-anchor="start" x="324.5" y="-84.5" font-family="Helvetica,sans-Serif" font-size="10.00">&#45; doListUsers()</text>
<text text-anchor="start" x="324.5" y="-73.5" font-family="Helvetica,sans-Serif" font-size="10.00">&#45; doCallUser()</text>
<text text-anchor="start" x="324.5" y="-62.5" font-family="Helvetica,sans-Serif" font-size="10.00">&#45; doJoinCall()</text>
<text text-anchor="start" x="324.5" y="-51.5" font-family="Helvetica,sans-Serif" font-size="10.00">&#45; doDenyCall()</text>
<text text-anchor="start" x="324.5" y="-40.5" font-family="Helvetica,sans-Serif" font-size="10.00">&#45; doHangUp()</text>
<text text-anchor="start" x="324.5" y="-29.5" font-family="Helvetica,sans-Serif" font-size="10.00">&#45; onLoginResponse()</text>
<text text-anchor="start" x="324.5" y="-18.5" font-family="Helvetica,sans-Serif" font-size="10.00">and 8 more...</text>
<text text-anchor="start" x="324.5" y="-7.5" font-family="Helvetica,sans-Serif" font-size="10.00">&#45; onBasicResponse()</text>
</a>
</g>
</g>
<!-- Node2 -->
<g id="node2" class="node">
<title>Node2</title>
<g id="a_node2"><a xlink:title=" ">
<polygon fill="white" stroke="#bfbfbf" points="0,-716.5 0,-773.5 56,-773.5 56,-716.5 0,-716.5"/>
<text text-anchor="middle" x="28" y="-761.5" font-family="Helvetica,sans-Serif" font-size="10.00">QObject</text>
<polyline fill="none" stroke="#bfbfbf" points="0,-754.5 56,-754.5 "/>
<text text-anchor="middle" x="28" y="-742.5" font-family="Helvetica,sans-Serif" font-size="10.00"> </text>
<polyline fill="none" stroke="#bfbfbf" points="0,-735.5 56,-735.5 "/>
<text text-anchor="middle" x="28" y="-723.5" font-family="Helvetica,sans-Serif" font-size="10.00"> </text>
</a>
</g>
</g>
<!-- Node2&#45;&gt;Node1 -->
<g id="edge1" class="edge">
<title>Node2&#45;&gt;Node1</title>
<path fill="none" stroke="midnightblue" d="M26.47,-706.33C25.17,-630.07 31.45,-454.59 108,-336 158.7,-257.47 254.19,-201.46 316.43,-171.29"/>
<polygon fill="none" stroke="midnightblue" points="22.97,-706.5 26.7,-716.42 29.97,-706.34 22.97,-706.5"/>
</g>
<!-- Node7 -->
<g id="node7" class="node">
<title>Node7</title>
<g id="a_node7"><a xlink:href="classBabel_1_1QtTCPConnection.html" target="_top" xlink:title=" ">
<polygon fill="white" stroke="black" points="117,-353 117,-564 275,-564 275,-353 117,-353"/>
<text text-anchor="middle" x="196" y="-552" font-family="Helvetica,sans-Serif" font-size="10.00">Babel::QtTCPConnection</text>
<polyline fill="none" stroke="black" points="117,-545 275,-545 "/>
<text text-anchor="start" x="125" y="-533" font-family="Helvetica,sans-Serif" font-size="10.00">&#45; _socket</text>
<text text-anchor="start" x="125" y="-522" font-family="Helvetica,sans-Serif" font-size="10.00">&#45; _callbackMessageReceived</text>
<text text-anchor="start" x="125" y="-511" font-family="Helvetica,sans-Serif" font-size="10.00">&#45; _bytesRead</text>
<text text-anchor="start" x="125" y="-500" font-family="Helvetica,sans-Serif" font-size="10.00">&#45; _connectionId</text>
<polyline fill="none" stroke="black" points="117,-493 275,-493 "/>
<text text-anchor="start" x="125" y="-481" font-family="Helvetica,sans-Serif" font-size="10.00">+ connect()</text>
<text text-anchor="start" x="125" y="-470" font-family="Helvetica,sans-Serif" font-size="10.00">+ disconnect()</text>
<text text-anchor="start" x="125" y="-459" font-family="Helvetica,sans-Serif" font-size="10.00">+ isConnected()</text>
<text text-anchor="start" x="125" y="-448" font-family="Helvetica,sans-Serif" font-size="10.00">+ send()</text>
<text text-anchor="start" x="125" y="-437" font-family="Helvetica,sans-Serif" font-size="10.00">+ readForMessages()</text>
<text text-anchor="start" x="125" y="-426" font-family="Helvetica,sans-Serif" font-size="10.00">+ setCallbackOnMessage()</text>
<text text-anchor="start" x="125" y="-415" font-family="Helvetica,sans-Serif" font-size="10.00">+ getId()</text>
<text text-anchor="start" x="125" y="-404" font-family="Helvetica,sans-Serif" font-size="10.00">+ setId()</text>
<text text-anchor="start" x="125" y="-393" font-family="Helvetica,sans-Serif" font-size="10.00">+ getPeerIp()</text>
<text text-anchor="start" x="125" y="-382" font-family="Helvetica,sans-Serif" font-size="10.00">+ getPeerPort()</text>
<text text-anchor="start" x="125" y="-371" font-family="Helvetica,sans-Serif" font-size="10.00">+ QtTCPConnection()</text>
<text text-anchor="start" x="125" y="-360" font-family="Helvetica,sans-Serif" font-size="10.00">&#45; readMessage()</text>
</a>
</g>
</g>
<!-- Node2&#45;&gt;Node7 -->
<g id="edge7" class="edge">
<title>Node2&#45;&gt;Node7</title>
<path fill="none" stroke="midnightblue" d="M36.01,-706.29C41.86,-682.91 51.04,-652.73 64,-628 78.49,-600.35 97.68,-572.71 116.93,-548.04"/>
<polygon fill="none" stroke="midnightblue" points="32.57,-705.64 33.63,-716.18 39.37,-707.27 32.57,-705.64"/>
</g>
<!-- Node3 -->
<g id="node3" class="node">
<title>Node3</title>
<g id="a_node3"><a xlink:href="classBabel_1_1TSQueue.html" target="_top" xlink:title=" ">
<polygon fill="white" stroke="black" points="293,-347.5 293,-569.5 459,-569.5 459,-347.5 293,-347.5"/>
<text text-anchor="middle" x="376" y="-557.5" font-family="Helvetica,sans-Serif" font-size="10.00">Babel::TSQueue&lt; RFCCodes &gt;</text>
<polyline fill="none" stroke="black" points="293,-550.5 459,-550.5 "/>
<text text-anchor="start" x="301" y="-538.5" font-family="Helvetica,sans-Serif" font-size="10.00"># _mutex</text>
<text text-anchor="start" x="301" y="-527.5" font-family="Helvetica,sans-Serif" font-size="10.00"># _queue</text>
<text text-anchor="start" x="301" y="-516.5" font-family="Helvetica,sans-Serif" font-size="10.00"># _blocker</text>
<text text-anchor="start" x="301" y="-505.5" font-family="Helvetica,sans-Serif" font-size="10.00"># _waitMutex</text>
<polyline fill="none" stroke="black" points="293,-498.5 459,-498.5 "/>
<text text-anchor="start" x="301" y="-486.5" font-family="Helvetica,sans-Serif" font-size="10.00">+ TSQueue()</text>
<text text-anchor="start" x="301" y="-475.5" font-family="Helvetica,sans-Serif" font-size="10.00">+ TSQueue()</text>
<text text-anchor="start" x="301" y="-464.5" font-family="Helvetica,sans-Serif" font-size="10.00">+ ~TSQueue()</text>
<text text-anchor="start" x="301" y="-453.5" font-family="Helvetica,sans-Serif" font-size="10.00">+ front()</text>
<text text-anchor="start" x="301" y="-442.5" font-family="Helvetica,sans-Serif" font-size="10.00">+ back()</text>
<text text-anchor="start" x="301" y="-431.5" font-family="Helvetica,sans-Serif" font-size="10.00">+ popFront()</text>
<text text-anchor="start" x="301" y="-420.5" font-family="Helvetica,sans-Serif" font-size="10.00">+ popBack()</text>
<text text-anchor="start" x="301" y="-409.5" font-family="Helvetica,sans-Serif" font-size="10.00">+ pushFront()</text>
<text text-anchor="start" x="301" y="-398.5" font-family="Helvetica,sans-Serif" font-size="10.00">+ pushBack()</text>
<text text-anchor="start" x="301" y="-387.5" font-family="Helvetica,sans-Serif" font-size="10.00">+ empty()</text>
<text text-anchor="start" x="301" y="-376.5" font-family="Helvetica,sans-Serif" font-size="10.00">+ count()</text>
<text text-anchor="start" x="301" y="-365.5" font-family="Helvetica,sans-Serif" font-size="10.00">+ clear()</text>
<text text-anchor="start" x="301" y="-354.5" font-family="Helvetica,sans-Serif" font-size="10.00">+ waitFor()</text>
</a>
</g>
</g>
<!-- Node3&#45;&gt;Node1 -->
<g id="edge2" class="edge">
<title>Node3&#45;&gt;Node1</title>
<path fill="none" stroke="#404040" d="M376,-347.06C376,-332.12 376,-316.57 376,-301.03"/>
<polygon fill="none" stroke="#404040" points="376,-300.58 372,-294.58 376,-288.58 380,-294.58 376,-300.58"/>
<text text-anchor="middle" x="417" y="-310" font-family="Helvetica,sans-Serif" font-size="10.00"> &#45;_requestsMade</text>
</g>
<!-- Node4 -->
<g id="node4" class="node">
<title>Node4</title>
<g id="a_node4"><a xlink:href="classUi_1_1babelHome.html" target="_top" xlink:title=" ">
<polygon fill="white" stroke="black" points="477.5,-430 477.5,-487 566.5,-487 566.5,-430 477.5,-430"/>
<text text-anchor="middle" x="522" y="-475" font-family="Helvetica,sans-Serif" font-size="10.00">Ui::babelHome</text>
<polyline fill="none" stroke="black" points="477.5,-468 566.5,-468 "/>
<text text-anchor="middle" x="522" y="-456" font-family="Helvetica,sans-Serif" font-size="10.00"> </text>
<polyline fill="none" stroke="black" points="477.5,-449 566.5,-449 "/>
<text text-anchor="middle" x="522" y="-437" font-family="Helvetica,sans-Serif" font-size="10.00"> </text>
</a>
</g>
</g>
<!-- Node4&#45;&gt;Node1 -->
<g id="edge3" class="edge">
<title>Node4&#45;&gt;Node1</title>
<path fill="none" stroke="#404040" d="M512.05,-429.93C500.81,-399.45 481.53,-349.1 462,-307 455.56,-293.11 448.49,-278.72 441.26,-264.52"/>
<polygon fill="none" stroke="#404040" points="441.19,-264.38 434.89,-260.87 435.71,-253.7 442.01,-257.21 441.19,-264.38"/>
<text text-anchor="middle" x="476" y="-310" font-family="Helvetica,sans-Serif" font-size="10.00"> &#45;_ui</text>
</g>
<!-- Node5 -->
<g id="node5" class="node">
<title>Node5</title>
<g id="a_node5"><a xlink:href="classUi__babelHome.html" target="_top" xlink:title=" ">
<polygon fill="white" stroke="black" points="593,-656 593,-834 723,-834 723,-656 593,-656"/>
<text text-anchor="middle" x="658" y="-822" font-family="Helvetica,sans-Serif" font-size="10.00">Ui_babelHome</text>
<polyline fill="none" stroke="black" points="593,-815 723,-815 "/>
<text text-anchor="start" x="601" y="-803" font-family="Helvetica,sans-Serif" font-size="10.00">+ centralwidget</text>
<text text-anchor="start" x="601" y="-792" font-family="Helvetica,sans-Serif" font-size="10.00">+ verticalLayout</text>
<text text-anchor="start" x="601" y="-781" font-family="Helvetica,sans-Serif" font-size="10.00">+ tab_handler</text>
<text text-anchor="start" x="601" y="-770" font-family="Helvetica,sans-Serif" font-size="10.00">+ page_connection</text>
<text text-anchor="start" x="601" y="-759" font-family="Helvetica,sans-Serif" font-size="10.00">+ formLayoutWidget_2</text>
<text text-anchor="start" x="601" y="-748" font-family="Helvetica,sans-Serif" font-size="10.00">+ gridLayout_3</text>
<text text-anchor="start" x="601" y="-737" font-family="Helvetica,sans-Serif" font-size="10.00">+ label</text>
<text text-anchor="start" x="601" y="-726" font-family="Helvetica,sans-Serif" font-size="10.00">+ input_address</text>
<text text-anchor="start" x="601" y="-715" font-family="Helvetica,sans-Serif" font-size="10.00">+ label_2</text>
<text text-anchor="start" x="601" y="-704" font-family="Helvetica,sans-Serif" font-size="10.00">+ input_port</text>
<text text-anchor="start" x="601" y="-693" font-family="Helvetica,sans-Serif" font-size="10.00">and 25 more...</text>
<polyline fill="none" stroke="black" points="593,-686 723,-686 "/>
<text text-anchor="start" x="601" y="-674" font-family="Helvetica,sans-Serif" font-size="10.00">+ setupUi()</text>
<text text-anchor="start" x="601" y="-663" font-family="Helvetica,sans-Serif" font-size="10.00">+ retranslateUi()</text>
</a>
</g>
</g>
<!-- Node5&#45;&gt;Node4 -->
<g id="edge4" class="edge">
<title>Node5&#45;&gt;Node4</title>
<path fill="none" stroke="midnightblue" d="M608.16,-646.81C597.36,-625.24 586.14,-602.42 576,-581 560.89,-549.08 544.55,-511.91 533.85,-487.18"/>
<polygon fill="none" stroke="midnightblue" points="605.14,-648.61 612.75,-655.98 611.4,-645.47 605.14,-648.61"/>
</g>
<!-- Node6 -->
<g id="node6" class="node">
<title>Node6</title>
<g id="a_node6"><a xlink:href="classBabel_1_1SoundHandler.html" target="_top" xlink:title=" ">
<polygon fill="white" stroke="black" points="584.5,-336.5 584.5,-580.5 703.5,-580.5 703.5,-336.5 584.5,-336.5"/>
<text text-anchor="middle" x="644" y="-568.5" font-family="Helvetica,sans-Serif" font-size="10.00">Babel::SoundHandler</text>
<polyline fill="none" stroke="black" points="584.5,-561.5 703.5,-561.5 "/>
<text text-anchor="start" x="592.5" y="-549.5" font-family="Helvetica,sans-Serif" font-size="10.00">&#45; _audio</text>
<text text-anchor="start" x="592.5" y="-538.5" font-family="Helvetica,sans-Serif" font-size="10.00">&#45; _codec</text>
<text text-anchor="start" x="592.5" y="-527.5" font-family="Helvetica,sans-Serif" font-size="10.00">&#45; _socket</text>
<text text-anchor="start" x="592.5" y="-516.5" font-family="Helvetica,sans-Serif" font-size="10.00">&#45; _userlist</text>
<text text-anchor="start" x="592.5" y="-505.5" font-family="Helvetica,sans-Serif" font-size="10.00">&#45; _userlist_mtx</text>
<text text-anchor="start" x="592.5" y="-494.5" font-family="Helvetica,sans-Serif" font-size="10.00">&#45; _blocker</text>
<text text-anchor="start" x="592.5" y="-483.5" font-family="Helvetica,sans-Serif" font-size="10.00">&#45; _shouldExit</text>
<text text-anchor="start" x="592.5" y="-472.5" font-family="Helvetica,sans-Serif" font-size="10.00">&#45; _exit_mtx</text>
<text text-anchor="start" x="592.5" y="-461.5" font-family="Helvetica,sans-Serif" font-size="10.00">&#45; _shouldPlay</text>
<text text-anchor="start" x="592.5" y="-450.5" font-family="Helvetica,sans-Serif" font-size="10.00">&#45; _play_mtx</text>
<text text-anchor="start" x="592.5" y="-439.5" font-family="Helvetica,sans-Serif" font-size="10.00">&#45; _execthread</text>
<text text-anchor="start" x="592.5" y="-428.5" font-family="Helvetica,sans-Serif" font-size="10.00">&#45; _condVarMutex</text>
<polyline fill="none" stroke="black" points="584.5,-421.5 703.5,-421.5 "/>
<text text-anchor="start" x="592.5" y="-409.5" font-family="Helvetica,sans-Serif" font-size="10.00">+ SoundHandler()</text>
<text text-anchor="start" x="592.5" y="-398.5" font-family="Helvetica,sans-Serif" font-size="10.00">+ ~SoundHandler()</text>
<text text-anchor="start" x="592.5" y="-387.5" font-family="Helvetica,sans-Serif" font-size="10.00">+ startCall()</text>
<text text-anchor="start" x="592.5" y="-376.5" font-family="Helvetica,sans-Serif" font-size="10.00">+ stopCall()</text>
<text text-anchor="start" x="592.5" y="-365.5" font-family="Helvetica,sans-Serif" font-size="10.00">+ addClient()</text>
<text text-anchor="start" x="592.5" y="-354.5" font-family="Helvetica,sans-Serif" font-size="10.00">+ removeClient()</text>
<text text-anchor="start" x="592.5" y="-343.5" font-family="Helvetica,sans-Serif" font-size="10.00">+ getLocalPort()</text>
</a>
</g>
</g>
<!-- Node6&#45;&gt;Node1 -->
<g id="edge5" class="edge">
<title>Node6&#45;&gt;Node1</title>
<path fill="none" stroke="#404040" d="M584.31,-347.24C581.59,-343.39 578.82,-339.63 576,-336 537.46,-286.34 485.95,-237.59 444.86,-201.84"/>
<polygon fill="none" stroke="#404040" points="444.81,-201.79 437.65,-200.9 435.72,-193.95 442.88,-194.84 444.81,-201.79"/>
<text text-anchor="middle" x="577" y="-310" font-family="Helvetica,sans-Serif" font-size="10.00"> &#45;_audio</text>
</g>
<!-- Node7&#45;&gt;Node1 -->
<g id="edge6" class="edge">
<title>Node7&#45;&gt;Node1</title>
<path fill="none" stroke="#404040" d="M256.44,-352.74C273.75,-322.73 292.71,-289.88 310.32,-259.35"/>
<polygon fill="none" stroke="#404040" points="310.49,-259.05 310.02,-251.86 316.49,-248.66 316.95,-255.85 310.49,-259.05"/>
<text text-anchor="middle" x="314" y="-310" font-family="Helvetica,sans-Serif" font-size="10.00"> &#45;_connection</text>
</g>
<!-- Node8 -->
<g id="node8" class="node">
<title>Node8</title>
<g id="a_node8"><a xlink:href="classBabel_1_1ITCPConnection.html" target="_top" xlink:title=" ">
<polygon fill="white" stroke="black" points="73.5,-656 73.5,-834 222.5,-834 222.5,-656 73.5,-656"/>
<text text-anchor="start" x="81.5" y="-822" font-family="Helvetica,sans-Serif" font-size="10.00">Babel::ITCPConnection</text>
<text text-anchor="middle" x="148" y="-811" font-family="Helvetica,sans-Serif" font-size="10.00">&lt; RFCCodes &gt;</text>
<polyline fill="none" stroke="black" points="73.5,-804 222.5,-804 "/>
<text text-anchor="middle" x="148" y="-792" font-family="Helvetica,sans-Serif" font-size="10.00"> </text>
<polyline fill="none" stroke="black" points="73.5,-785 222.5,-785 "/>
<text text-anchor="start" x="81.5" y="-773" font-family="Helvetica,sans-Serif" font-size="10.00">+ connect()</text>
<text text-anchor="start" x="81.5" y="-762" font-family="Helvetica,sans-Serif" font-size="10.00">+ disconnect()</text>
<text text-anchor="start" x="81.5" y="-751" font-family="Helvetica,sans-Serif" font-size="10.00">+ isConnected()</text>
<text text-anchor="start" x="81.5" y="-740" font-family="Helvetica,sans-Serif" font-size="10.00">+ send()</text>
<text text-anchor="start" x="81.5" y="-729" font-family="Helvetica,sans-Serif" font-size="10.00">+ readForMessages()</text>
<text text-anchor="start" x="81.5" y="-718" font-family="Helvetica,sans-Serif" font-size="10.00">+ setCallbackOnMessage()</text>
<text text-anchor="start" x="81.5" y="-707" font-family="Helvetica,sans-Serif" font-size="10.00">+ getId()</text>
<text text-anchor="start" x="81.5" y="-696" font-family="Helvetica,sans-Serif" font-size="10.00">+ setId()</text>
<text text-anchor="start" x="81.5" y="-685" font-family="Helvetica,sans-Serif" font-size="10.00">+ getPeerIp()</text>
<text text-anchor="start" x="81.5" y="-674" font-family="Helvetica,sans-Serif" font-size="10.00">+ getPeerPort()</text>
<text text-anchor="start" x="81.5" y="-663" font-family="Helvetica,sans-Serif" font-size="10.00">+ ~ITCPConnection()</text>
</a>
</g>
</g>
<!-- Node8&#45;&gt;Node7 -->
<g id="edge8" class="edge">
<title>Node8&#45;&gt;Node7</title>
<path fill="none" stroke="midnightblue" d="M164.55,-645.93C169,-619.53 173.84,-590.87 178.35,-564.13"/>
<polygon fill="none" stroke="midnightblue" points="161.07,-645.49 162.86,-655.93 167.97,-646.65 161.07,-645.49"/>
</g>
<!-- Node9 -->
<g id="node9" class="node">
<title>Node9</title>
<g id="a_node9"><a xlink:href="structBabel_1_1Message.html" target="_top" xlink:title=" ">
<polygon fill="white" stroke="black" points="241,-678 241,-812 407,-812 407,-678 241,-678"/>
<text text-anchor="middle" x="324" y="-800" font-family="Helvetica,sans-Serif" font-size="10.00">Babel::Message&lt; RFCCodes &gt;</text>
<polyline fill="none" stroke="black" points="241,-793 407,-793 "/>
<text text-anchor="start" x="249" y="-781" font-family="Helvetica,sans-Serif" font-size="10.00">+ body</text>
<polyline fill="none" stroke="black" points="241,-774 407,-774 "/>
<text text-anchor="start" x="249" y="-762" font-family="Helvetica,sans-Serif" font-size="10.00">+ size()</text>
<text text-anchor="start" x="249" y="-751" font-family="Helvetica,sans-Serif" font-size="10.00">+ reset()</text>
<text text-anchor="start" x="249" y="-740" font-family="Helvetica,sans-Serif" font-size="10.00">+ Message()</text>
<text text-anchor="start" x="249" y="-729" font-family="Helvetica,sans-Serif" font-size="10.00">+ Message()</text>
<text text-anchor="start" x="249" y="-718" font-family="Helvetica,sans-Serif" font-size="10.00">+ ~Message()</text>
<text text-anchor="start" x="249" y="-707" font-family="Helvetica,sans-Serif" font-size="10.00">+ operator=()</text>
<text text-anchor="start" x="249" y="-696" font-family="Helvetica,sans-Serif" font-size="10.00">+ GetBytes()</text>
<text text-anchor="start" x="249" y="-685" font-family="Helvetica,sans-Serif" font-size="10.00">+ GetBytes()</text>
</a>
</g>
</g>
<!-- Node9&#45;&gt;Node7 -->
<g id="edge9" class="edge">
<title>Node9&#45;&gt;Node7</title>
<path fill="none" stroke="#404040" d="M294.15,-677.66C280.45,-647.21 263.8,-610.2 248.14,-575.38"/>
<polygon fill="none" stroke="#404040" points="248.01,-575.1 241.9,-571.27 243.09,-564.16 249.2,-567.99 248.01,-575.1"/>
<text text-anchor="middle" x="298" y="-602" font-family="Helvetica,sans-Serif" font-size="10.00"> &#45;_tmpMessage</text>
</g>
<!-- Node10 -->
<g id="node10" class="node">
<title>Node10</title>
<g id="a_node10"><a xlink:href="structBabel_1_1MessageHeader.html" target="_top" xlink:title=" ">
<polygon fill="white" stroke="black" points="259.5,-909.5 259.5,-988.5 388.5,-988.5 388.5,-909.5 259.5,-909.5"/>
<text text-anchor="start" x="267.5" y="-976.5" font-family="Helvetica,sans-Serif" font-size="10.00">Babel::MessageHeader</text>
<text text-anchor="middle" x="324" y="-965.5" font-family="Helvetica,sans-Serif" font-size="10.00">&lt; RFCCodes &gt;</text>
<polyline fill="none" stroke="black" points="259.5,-958.5 388.5,-958.5 "/>
<text text-anchor="start" x="267.5" y="-946.5" font-family="Helvetica,sans-Serif" font-size="10.00">+ codeId</text>
<text text-anchor="start" x="267.5" y="-935.5" font-family="Helvetica,sans-Serif" font-size="10.00">+ bodySize</text>
<polyline fill="none" stroke="black" points="259.5,-928.5 388.5,-928.5 "/>
<text text-anchor="start" x="267.5" y="-916.5" font-family="Helvetica,sans-Serif" font-size="10.00">+ handleEndianness()</text>
</a>
</g>
</g>
<!-- Node10&#45;&gt;Node9 -->
<g id="edge10" class="edge">
<title>Node10&#45;&gt;Node9</title>
<path fill="none" stroke="#404040" d="M324,-909.05C324,-885.08 324,-853.49 324,-824.5"/>
<polygon fill="none" stroke="#404040" points="324,-824.26 320,-818.26 324,-812.26 328,-818.26 324,-824.26"/>
<text text-anchor="middle" x="347" y="-883" font-family="Helvetica,sans-Serif" font-size="10.00"> +header</text>
</g>
<!-- Node11 -->
<g id="node11" class="node">
<title>Node11</title>
<g id="a_node11"><a xlink:href="classBabel_1_1TSQueue.html" target="_top" xlink:title=" ">
<polygon fill="white" stroke="black" points="425.5,-628.5 425.5,-861.5 574.5,-861.5 574.5,-628.5 425.5,-628.5"/>
<text text-anchor="start" x="433.5" y="-849.5" font-family="Helvetica,sans-Serif" font-size="10.00">Babel::TSQueue&lt; Babel</text>
<text text-anchor="middle" x="500" y="-838.5" font-family="Helvetica,sans-Serif" font-size="10.00">::Message&lt; RFCCodes &gt; &gt;</text>
<polyline fill="none" stroke="black" points="425.5,-831.5 574.5,-831.5 "/>
<text text-anchor="start" x="433.5" y="-819.5" font-family="Helvetica,sans-Serif" font-size="10.00"># _mutex</text>
<text text-anchor="start" x="433.5" y="-808.5" font-family="Helvetica,sans-Serif" font-size="10.00"># _queue</text>
<text text-anchor="start" x="433.5" y="-797.5" font-family="Helvetica,sans-Serif" font-size="10.00"># _blocker</text>
<text text-anchor="start" x="433.5" y="-786.5" font-family="Helvetica,sans-Serif" font-size="10.00"># _waitMutex</text>
<polyline fill="none" stroke="black" points="425.5,-779.5 574.5,-779.5 "/>
<text text-anchor="start" x="433.5" y="-767.5" font-family="Helvetica,sans-Serif" font-size="10.00">+ TSQueue()</text>
<text text-anchor="start" x="433.5" y="-756.5" font-family="Helvetica,sans-Serif" font-size="10.00">+ TSQueue()</text>
<text text-anchor="start" x="433.5" y="-745.5" font-family="Helvetica,sans-Serif" font-size="10.00">+ ~TSQueue()</text>
<text text-anchor="start" x="433.5" y="-734.5" font-family="Helvetica,sans-Serif" font-size="10.00">+ front()</text>
<text text-anchor="start" x="433.5" y="-723.5" font-family="Helvetica,sans-Serif" font-size="10.00">+ back()</text>
<text text-anchor="start" x="433.5" y="-712.5" font-family="Helvetica,sans-Serif" font-size="10.00">+ popFront()</text>
<text text-anchor="start" x="433.5" y="-701.5" font-family="Helvetica,sans-Serif" font-size="10.00">+ popBack()</text>
<text text-anchor="start" x="433.5" y="-690.5" font-family="Helvetica,sans-Serif" font-size="10.00">+ pushFront()</text>
<text text-anchor="start" x="433.5" y="-679.5" font-family="Helvetica,sans-Serif" font-size="10.00">+ pushBack()</text>
<text text-anchor="start" x="433.5" y="-668.5" font-family="Helvetica,sans-Serif" font-size="10.00">+ empty()</text>
<text text-anchor="start" x="433.5" y="-657.5" font-family="Helvetica,sans-Serif" font-size="10.00">+ count()</text>
<text text-anchor="start" x="433.5" y="-646.5" font-family="Helvetica,sans-Serif" font-size="10.00">+ clear()</text>
<text text-anchor="start" x="433.5" y="-635.5" font-family="Helvetica,sans-Serif" font-size="10.00">+ waitFor()</text>
</a>
</g>
</g>
<!-- Node11&#45;&gt;Node7 -->
<g id="edge11" class="edge">
<title>Node11&#45;&gt;Node7</title>
<path fill="none" stroke="#404040" d="M425.27,-635.69C422.25,-632.99 419.16,-630.42 416,-628 387.31,-606 374.11,-610.98 340,-599 315.33,-590.34 305.16,-596.35 284,-581 280.36,-578.36 276.81,-575.52 273.36,-572.53"/>
<polygon fill="none" stroke="#404040" points="273.24,-572.42 266.12,-571.27 264.44,-564.26 271.56,-565.4 273.24,-572.42"/>
<text text-anchor="middle" x="419.5" y="-602" font-family="Helvetica,sans-Serif" font-size="10.00"> &#45;_messagesOut</text>
</g>
</g>
</svg>
