<?xml version="1.0" encoding="UTF-8" standalone="no"?>
<!DOCTYPE svg PUBLIC "-//W3C//DTD SVG 1.1//EN"
 "http://www.w3.org/Graphics/SVG/1.1/DTD/svg11.dtd">
<!-- Generated by graphviz version 2.43.0 (0)
 -->
<!-- Title: Babel::OpusException Pages: 1 -->
<svg width="188pt" height="276pt"
 viewBox="0.00 0.00 188.00 276.00" xmlns="http://www.w3.org/2000/svg" xmlns:xlink="http://www.w3.org/1999/xlink">
<g id="graph0" class="graph" transform="scale(1 1) rotate(0) translate(4 272)">
<title>Babel::OpusException</title>
<polygon fill="white" stroke="transparent" points="-4,4 -4,-272 184,-272 184,4 -4,4"/>
<!-- Node1 -->
<g id="node1" class="node">
<title>Node1</title>
<g id="a_node1"><a xlink:title=" ">
<polygon fill="#bfbfbf" stroke="black" points="28.5,-0.5 28.5,-57.5 151.5,-57.5 151.5,-0.5 28.5,-0.5"/>
<text text-anchor="middle" x="90" y="-45.5" font-family="Helvetica,sans-Serif" font-size="10.00">Babel::OpusException</text>
<polyline fill="none" stroke="black" points="28.5,-38.5 151.5,-38.5 "/>
<text text-anchor="middle" x="90" y="-26.5" font-family="Helvetica,sans-Serif" font-size="10.00"> </text>
<polyline fill="none" stroke="black" points="28.5,-19.5 151.5,-19.5 "/>
<text text-anchor="start" x="36.5" y="-7.5" font-family="Helvetica,sans-Serif" font-size="10.00">+ OpusException()</text>
</a>
</g>
</g>
<!-- Node2 -->
<g id="node2" class="node">
<title>Node2</title>
<g id="a_node2"><a xlink:href="classBabel_1_1Exception_1_1BabelException.html" target="_top" xlink:title="Base Project Exception.">
<polygon fill="white" stroke="black" points="0,-94.5 0,-173.5 180,-173.5 180,-94.5 0,-94.5"/>
<text text-anchor="middle" x="90" y="-161.5" font-family="Helvetica,sans-Serif" font-size="10.00">Babel::Exception::BabelException</text>
<polyline fill="none" stroke="black" points="0,-154.5 180,-154.5 "/>
<text text-anchor="middle" x="90" y="-142.5" font-family="Helvetica,sans-Serif" font-size="10.00"> </text>
<polyline fill="none" stroke="black" points="0,-135.5 180,-135.5 "/>
<text text-anchor="start" x="8" y="-123.5" font-family="Helvetica,sans-Serif" font-size="10.00">+ BabelException()</text>
<text text-anchor="start" x="8" y="-112.5" font-family="Helvetica,sans-Serif" font-size="10.00">+ BabelException()</text>
<text text-anchor="start" x="8" y="-101.5" font-family="Helvetica,sans-Serif" font-size="10.00">+ ~BabelException()</text>
</a>
</g>
</g>
<!-- Node2&#45;&gt;Node1 -->
<g id="edge1" class="edge">
<title>Node2&#45;&gt;Node1</title>
<path fill="none" stroke="midnightblue" d="M90,-84.16C90,-75.04 90,-65.81 90,-57.61"/>
<polygon fill="none" stroke="midnightblue" points="86.5,-84.35 90,-94.35 93.5,-84.35 86.5,-84.35"/>
</g>
<!-- Node3 -->
<g id="node3" class="node">
<title>Node3</title>
<g id="a_node3"><a xlink:title=" ">
<polygon fill="white" stroke="#bfbfbf" points="38,-210.5 38,-267.5 142,-267.5 142,-210.5 38,-210.5"/>
<text text-anchor="middle" x="90" y="-255.5" font-family="Helvetica,sans-Serif" font-size="10.00">std::runtime_error</text>
<polyline fill="none" stroke="#bfbfbf" points="38,-248.5 142,-248.5 "/>
<text text-anchor="middle" x="90" y="-236.5" font-family="Helvetica,sans-Serif" font-size="10.00"> </text>
<polyline fill="none" stroke="#bfbfbf" points="38,-229.5 142,-229.5 "/>
<text text-anchor="middle" x="90" y="-217.5" font-family="Helvetica,sans-Serif" font-size="10.00"> </text>
</a>
</g>
</g>
<!-- Node3&#45;&gt;Node2 -->
<g id="edge2" class="edge">
<title>Node3&#45;&gt;Node2</title>
<path fill="none" stroke="midnightblue" d="M90,-200.16C90,-191.47 90,-182.23 90,-173.52"/>
<polygon fill="none" stroke="midnightblue" points="86.5,-200.4 90,-210.4 93.5,-200.4 86.5,-200.4"/>
</g>
</g>
</svg>
