<?xml version="1.0" encoding="UTF-8" standalone="no"?>
<!DOCTYPE svg PUBLIC "-//W3C//DTD SVG 1.1//EN"
 "http://www.w3.org/Graphics/SVG/1.1/DTD/svg11.dtd">
<!-- Generated by graphviz version 2.43.0 (0)
 -->
<!-- Title: Client/src/main.cpp Pages: 1 -->
<svg width="3239pt" height="420pt"
 viewBox="0.00 0.00 3238.80 420.00" xmlns="http://www.w3.org/2000/svg" xmlns:xlink="http://www.w3.org/1999/xlink">
<g id="graph0" class="graph" transform="scale(1 1) rotate(0) translate(4 416)">
<title>Client/src/main.cpp</title>
<polygon fill="white" stroke="transparent" points="-4,4 -4,-416 3234.8,-416 3234.8,4 -4,4"/>
<!-- Node1 -->
<g id="node1" class="node">
<title>Node1</title>
<g id="a_node1"><a xlink:title=" ">
<polygon fill="#bfbfbf" stroke="black" points="2075.62,-392.5 2075.62,-411.5 2185.62,-411.5 2185.62,-392.5 2075.62,-392.5"/>
<text text-anchor="middle" x="2130.62" y="-399.5" font-family="Helvetica,sans-Serif" font-size="10.00">Client/src/main.cpp</text>
</a>
</g>
</g>
<!-- Node2 -->
<g id="node2" class="node">
<title>Node2</title>
<g id="a_node2"><a xlink:href="PortAudioException_8hpp.html" target="_top" xlink:title=" ">
<polygon fill="white" stroke="black" points="1952.62,-168.5 1952.62,-187.5 2116.62,-187.5 2116.62,-168.5 1952.62,-168.5"/>
<text text-anchor="middle" x="2034.62" y="-175.5" font-family="Helvetica,sans-Serif" font-size="10.00">Audio/PortAudioException.hpp</text>
</a>
</g>
</g>
<!-- Node1&#45;&gt;Node2 -->
<g id="edge1" class="edge">
<title>Node1&#45;&gt;Node2</title>
<path fill="none" stroke="midnightblue" d="M2075.6,-401.29C1756.22,-402.41 149.73,-400.22 4.62,-244 -1.43,-237.49 -1.6,-230.35 4.62,-224 38.93,-188.92 1549.95,-180.82 1942.32,-179.31"/>
<polygon fill="midnightblue" stroke="midnightblue" points="1942.51,-182.8 1952.49,-179.27 1942.48,-175.8 1942.51,-182.8"/>
</g>
<!-- Node6 -->
<g id="node6" class="node">
<title>Node6</title>
<g id="a_node6"><a xlink:title=" ">
<polygon fill="white" stroke="#bfbfbf" points="2014.62,-224.5 2014.62,-243.5 2072.62,-243.5 2072.62,-224.5 2014.62,-224.5"/>
<text text-anchor="middle" x="2043.62" y="-231.5" font-family="Helvetica,sans-Serif" font-size="10.00">memory</text>
</a>
</g>
</g>
<!-- Node1&#45;&gt;Node6 -->
<g id="edge5" class="edge">
<title>Node1&#45;&gt;Node6</title>
<path fill="none" stroke="midnightblue" d="M2125.94,-392.08C2112.13,-365.72 2071.33,-287.88 2052.88,-252.66"/>
<polygon fill="midnightblue" stroke="midnightblue" points="2055.85,-250.8 2048.11,-243.57 2049.65,-254.05 2055.85,-250.8"/>
</g>
<!-- Node7 -->
<g id="node7" class="node">
<title>Node7</title>
<g id="a_node7"><a xlink:title=" ">
<polygon fill="white" stroke="#bfbfbf" points="2091.12,-224.5 2091.12,-243.5 2170.12,-243.5 2170.12,-224.5 2091.12,-224.5"/>
<text text-anchor="middle" x="2130.62" y="-231.5" font-family="Helvetica,sans-Serif" font-size="10.00">QApplication</text>
</a>
</g>
</g>
<!-- Node1&#45;&gt;Node7 -->
<g id="edge6" class="edge">
<title>Node1&#45;&gt;Node7</title>
<path fill="none" stroke="midnightblue" d="M2130.62,-392.08C2130.62,-365.95 2130.62,-289.21 2130.62,-253.58"/>
<polygon fill="midnightblue" stroke="midnightblue" points="2134.12,-253.57 2130.62,-243.57 2127.12,-253.57 2134.12,-253.57"/>
</g>
<!-- Node8 -->
<g id="node8" class="node">
<title>Node8</title>
<g id="a_node8"><a xlink:href="QtTCPConnection_8hpp.html" target="_top" xlink:title=" ">
<polygon fill="white" stroke="black" points="2869.62,-224.5 2869.62,-243.5 3035.62,-243.5 3035.62,-224.5 2869.62,-224.5"/>
<text text-anchor="middle" x="2952.62" y="-231.5" font-family="Helvetica,sans-Serif" font-size="10.00">Network/QtTCPConnection.hpp</text>
</a>
</g>
</g>
<!-- Node1&#45;&gt;Node8 -->
<g id="edge7" class="edge">
<title>Node1&#45;&gt;Node8</title>
<path fill="none" stroke="midnightblue" d="M2185.74,-399.73C2319.52,-396.22 2658.38,-384.69 2767.62,-356 2823.77,-341.26 2837.93,-333.1 2885.62,-300 2905.88,-285.94 2925.72,-265.64 2938.49,-251.47"/>
<polygon fill="midnightblue" stroke="midnightblue" points="2941.14,-253.75 2945.14,-243.94 2935.9,-249.12 2941.14,-253.75"/>
</g>
<!-- Node30 -->
<g id="node27" class="node">
<title>Node30</title>
<g id="a_node27"><a xlink:href="HomePage_8hpp.html" target="_top" xlink:title=" ">
<polygon fill="white" stroke="black" points="2622.12,-336.5 2622.12,-355.5 2759.12,-355.5 2759.12,-336.5 2622.12,-336.5"/>
<text text-anchor="middle" x="2690.62" y="-343.5" font-family="Helvetica,sans-Serif" font-size="10.00">Windows/HomePage.hpp</text>
</a>
</g>
</g>
<!-- Node1&#45;&gt;Node30 -->
<g id="edge33" class="edge">
<title>Node1&#45;&gt;Node30</title>
<path fill="none" stroke="midnightblue" d="M2185.85,-395.67C2285.76,-386.04 2496.79,-365.69 2611.82,-354.6"/>
<polygon fill="midnightblue" stroke="midnightblue" points="2612.35,-358.06 2621.97,-353.62 2611.68,-351.1 2612.35,-358.06"/>
</g>
<!-- Node3 -->
<g id="node3" class="node">
<title>Node3</title>
<g id="a_node3"><a xlink:title=" ">
<polygon fill="white" stroke="#bfbfbf" points="2223.62,-112.5 2223.62,-131.5 2267.62,-131.5 2267.62,-112.5 2223.62,-112.5"/>
<text text-anchor="middle" x="2245.62" y="-119.5" font-family="Helvetica,sans-Serif" font-size="10.00">string</text>
</a>
</g>
</g>
<!-- Node2&#45;&gt;Node3 -->
<g id="edge2" class="edge">
<title>Node2&#45;&gt;Node3</title>
<path fill="none" stroke="midnightblue" d="M2068.05,-168.44C2107.95,-158.23 2174.18,-141.28 2213.49,-131.22"/>
<polygon fill="midnightblue" stroke="midnightblue" points="2214.53,-134.57 2223.35,-128.7 2212.79,-127.79 2214.53,-134.57"/>
</g>
<!-- Node4 -->
<g id="node4" class="node">
<title>Node4</title>
<g id="a_node4"><a xlink:href="BabelException_8hpp.html" target="_top" xlink:title=" ">
<polygon fill="white" stroke="black" points="1912.62,-56.5 1912.62,-75.5 2082.62,-75.5 2082.62,-56.5 1912.62,-56.5"/>
<text text-anchor="middle" x="1997.62" y="-63.5" font-family="Helvetica,sans-Serif" font-size="10.00">Exceptions/BabelException.hpp</text>
</a>
</g>
</g>
<!-- Node2&#45;&gt;Node4 -->
<g id="edge3" class="edge">
<title>Node2&#45;&gt;Node4</title>
<path fill="none" stroke="midnightblue" d="M2030.92,-168.47C2027.1,-159.48 2021.07,-144.88 2016.62,-132 2011.28,-116.55 2006.14,-98.7 2002.55,-85.62"/>
<polygon fill="midnightblue" stroke="midnightblue" points="2005.92,-84.66 1999.93,-75.92 1999.16,-86.48 2005.92,-84.66"/>
</g>
<!-- Node5 -->
<g id="node5" class="node">
<title>Node5</title>
<g id="a_node5"><a xlink:title=" ">
<polygon fill="white" stroke="#bfbfbf" points="1965.12,-0.5 1965.12,-19.5 2030.12,-19.5 2030.12,-0.5 1965.12,-0.5"/>
<text text-anchor="middle" x="1997.62" y="-7.5" font-family="Helvetica,sans-Serif" font-size="10.00">stdexcept</text>
</a>
</g>
</g>
<!-- Node4&#45;&gt;Node5 -->
<g id="edge4" class="edge">
<title>Node4&#45;&gt;Node5</title>
<path fill="none" stroke="midnightblue" d="M1997.62,-56.08C1997.62,-49.01 1997.62,-38.86 1997.62,-29.99"/>
<polygon fill="midnightblue" stroke="midnightblue" points="2001.12,-29.75 1997.62,-19.75 1994.12,-29.75 2001.12,-29.75"/>
</g>
<!-- Node9 -->
<g id="node9" class="node">
<title>Node9</title>
<g id="a_node9"><a xlink:title=" ">
<polygon fill="white" stroke="#bfbfbf" points="2562.62,-0.5 2562.62,-19.5 2612.62,-19.5 2612.62,-0.5 2562.62,-0.5"/>
<text text-anchor="middle" x="2587.62" y="-7.5" font-family="Helvetica,sans-Serif" font-size="10.00">cstdint</text>
</a>
</g>
</g>
<!-- Node8&#45;&gt;Node9 -->
<g id="edge8" class="edge">
<title>Node8&#45;&gt;Node9</title>
<path fill="none" stroke="midnightblue" d="M3017.71,-224.42C3043.46,-218.09 3071.63,-207.1 3091.62,-188 3116.96,-163.79 3134.08,-139.7 3112.62,-112 3052.24,-34.07 2730.58,-15.93 2622.82,-12.01"/>
<polygon fill="midnightblue" stroke="midnightblue" points="2622.9,-8.51 2612.79,-11.66 2622.66,-15.51 2622.9,-8.51"/>
</g>
<!-- Node10 -->
<g id="node10" class="node">
<title>Node10</title>
<g id="a_node10"><a xlink:href="ITCPConnection_8hpp.html" target="_top" xlink:title=" ">
<polygon fill="white" stroke="black" points="2621.62,-168.5 2621.62,-187.5 2779.62,-187.5 2779.62,-168.5 2621.62,-168.5"/>
<text text-anchor="middle" x="2700.62" y="-175.5" font-family="Helvetica,sans-Serif" font-size="10.00">Network/ITCPConnection.hpp</text>
</a>
</g>
</g>
<!-- Node8&#45;&gt;Node10 -->
<g id="edge9" class="edge">
<title>Node8&#45;&gt;Node10</title>
<path fill="none" stroke="midnightblue" d="M2912.69,-224.44C2868.73,-215.02 2797.99,-199.87 2750.44,-189.68"/>
<polygon fill="midnightblue" stroke="midnightblue" points="2750.87,-186.19 2740.36,-187.52 2749.41,-193.03 2750.87,-186.19"/>
</g>
<!-- Node12 -->
<g id="node12" class="node">
<title>Node12</title>
<g id="a_node12"><a xlink:title=" ">
<polygon fill="white" stroke="#bfbfbf" points="3038.12,-112.5 3038.12,-131.5 3103.12,-131.5 3103.12,-112.5 3038.12,-112.5"/>
<text text-anchor="middle" x="3070.62" y="-119.5" font-family="Helvetica,sans-Serif" font-size="10.00">functional</text>
</a>
</g>
</g>
<!-- Node8&#45;&gt;Node12 -->
<g id="edge30" class="edge">
<title>Node8&#45;&gt;Node12</title>
<path fill="none" stroke="midnightblue" d="M3017.02,-224.43C3038.98,-218.09 3061.32,-207.08 3074.62,-188 3084,-174.55 3081.46,-155.48 3077.51,-141.47"/>
<polygon fill="midnightblue" stroke="midnightblue" points="3080.82,-140.33 3074.38,-131.92 3074.17,-142.51 3080.82,-140.33"/>
</g>
<!-- Node25 -->
<g id="node22" class="node">
<title>Node25</title>
<g id="a_node22"><a xlink:href="RFCCodes_8hpp.html" target="_top" xlink:title=" ">
<polygon fill="white" stroke="black" points="2472.12,-168.5 2472.12,-187.5 2603.12,-187.5 2603.12,-168.5 2472.12,-168.5"/>
<text text-anchor="middle" x="2537.62" y="-175.5" font-family="Helvetica,sans-Serif" font-size="10.00">Network/RFCCodes.hpp</text>
</a>
</g>
</g>
<!-- Node8&#45;&gt;Node25 -->
<g id="edge26" class="edge">
<title>Node8&#45;&gt;Node25</title>
<path fill="none" stroke="midnightblue" d="M2886.86,-224.44C2812.49,-214.77 2691.59,-199.04 2613.34,-188.85"/>
<polygon fill="midnightblue" stroke="midnightblue" points="2613.44,-185.34 2603.07,-187.52 2612.54,-192.28 2613.44,-185.34"/>
</g>
<!-- Node26 -->
<g id="node23" class="node">
<title>Node26</title>
<g id="a_node23"><a xlink:title=" ">
<polygon fill="white" stroke="#bfbfbf" points="2993.62,-168.5 2993.62,-187.5 3065.62,-187.5 3065.62,-168.5 2993.62,-168.5"/>
<text text-anchor="middle" x="3029.62" y="-175.5" font-family="Helvetica,sans-Serif" font-size="10.00">QTcpSocket</text>
</a>
</g>
</g>
<!-- Node8&#45;&gt;Node26 -->
<g id="edge28" class="edge">
<title>Node8&#45;&gt;Node26</title>
<path fill="none" stroke="midnightblue" d="M2964.99,-224.32C2976.78,-216.06 2994.75,-203.45 3008.76,-193.63"/>
<polygon fill="midnightblue" stroke="midnightblue" points="3011.1,-196.26 3017.28,-187.65 3007.08,-190.53 3011.1,-196.26"/>
</g>
<!-- Node27 -->
<g id="node24" class="node">
<title>Node27</title>
<g id="a_node24"><a xlink:title=" ">
<polygon fill="white" stroke="#bfbfbf" points="2835.62,-168.5 2835.62,-187.5 2903.62,-187.5 2903.62,-168.5 2835.62,-168.5"/>
<text text-anchor="middle" x="2869.62" y="-175.5" font-family="Helvetica,sans-Serif" font-size="10.00">QtWidgets</text>
</a>
</g>
</g>
<!-- Node8&#45;&gt;Node27 -->
<g id="edge29" class="edge">
<title>Node8&#45;&gt;Node27</title>
<path fill="none" stroke="midnightblue" d="M2939.28,-224.32C2926.46,-215.98 2906.84,-203.21 2891.68,-193.35"/>
<polygon fill="midnightblue" stroke="midnightblue" points="2893.21,-190.17 2882.92,-187.65 2889.4,-196.04 2893.21,-190.17"/>
</g>
<!-- Node28 -->
<g id="node25" class="node">
<title>Node28</title>
<g id="a_node25"><a xlink:title=" ">
<polygon fill="white" stroke="#bfbfbf" points="2922.12,-168.5 2922.12,-187.5 2975.12,-187.5 2975.12,-168.5 2922.12,-168.5"/>
<text text-anchor="middle" x="2948.62" y="-175.5" font-family="Helvetica,sans-Serif" font-size="10.00">QString</text>
</a>
</g>
</g>
<!-- Node8&#45;&gt;Node28 -->
<g id="edge31" class="edge">
<title>Node8&#45;&gt;Node28</title>
<path fill="none" stroke="midnightblue" d="M2951.96,-224.08C2951.44,-217.01 2950.68,-206.86 2950.03,-197.99"/>
<polygon fill="midnightblue" stroke="midnightblue" points="2953.5,-197.47 2949.27,-187.75 2946.52,-197.98 2953.5,-197.47"/>
</g>
<!-- Node29 -->
<g id="node26" class="node">
<title>Node29</title>
<g id="a_node26"><a xlink:title=" ">
<polygon fill="white" stroke="#bfbfbf" points="3159.62,-168.5 3159.62,-187.5 3215.62,-187.5 3215.62,-168.5 3159.62,-168.5"/>
<text text-anchor="middle" x="3187.62" y="-175.5" font-family="Helvetica,sans-Serif" font-size="10.00">QObject</text>
</a>
</g>
</g>
<!-- Node8&#45;&gt;Node29 -->
<g id="edge32" class="edge">
<title>Node8&#45;&gt;Node29</title>
<path fill="none" stroke="midnightblue" d="M2989.86,-224.44C3033.56,-214.4 3105.65,-197.84 3149.66,-187.72"/>
<polygon fill="midnightblue" stroke="midnightblue" points="3150.45,-191.13 3159.41,-185.48 3148.88,-184.31 3150.45,-191.13"/>
</g>
<!-- Node10&#45;&gt;Node3 -->
<g id="edge10" class="edge">
<title>Node10&#45;&gt;Node3</title>
<path fill="none" stroke="midnightblue" d="M2621.38,-168.77C2504.56,-156.61 2298.07,-134.93 2281.62,-132 2280.37,-131.78 2279.1,-131.54 2277.82,-131.28"/>
<polygon fill="midnightblue" stroke="midnightblue" points="2278.51,-127.85 2267.99,-129.1 2276.99,-134.68 2278.51,-127.85"/>
</g>
<!-- Node11 -->
<g id="node11" class="node">
<title>Node11</title>
<g id="a_node11"><a xlink:title=" ">
<polygon fill="white" stroke="#bfbfbf" points="2177.12,-56.5 2177.12,-75.5 2224.12,-75.5 2224.12,-56.5 2177.12,-56.5"/>
<text text-anchor="middle" x="2200.62" y="-63.5" font-family="Helvetica,sans-Serif" font-size="10.00">vector</text>
</a>
</g>
</g>
<!-- Node10&#45;&gt;Node11 -->
<g id="edge11" class="edge">
<title>Node10&#45;&gt;Node11</title>
<path fill="none" stroke="midnightblue" d="M2621.21,-168.56C2512.48,-156.89 2328.98,-136.71 2314.62,-132 2305.06,-128.86 2254.37,-99.08 2223.9,-80.94"/>
<polygon fill="midnightblue" stroke="midnightblue" points="2225.54,-77.84 2215.16,-75.72 2221.95,-83.85 2225.54,-77.84"/>
</g>
<!-- Node10&#45;&gt;Node12 -->
<g id="edge12" class="edge">
<title>Node10&#45;&gt;Node12</title>
<path fill="none" stroke="midnightblue" d="M2759.25,-168.44C2834.1,-157.52 2961.83,-138.88 3028.03,-129.22"/>
<polygon fill="midnightblue" stroke="midnightblue" points="3028.72,-132.65 3038.11,-127.75 3027.7,-125.73 3028.72,-132.65"/>
</g>
<!-- Node13 -->
<g id="node13" class="node">
<title>Node13</title>
<g id="a_node13"><a xlink:href="Message_8hpp.html" target="_top" xlink:title=" ">
<polygon fill="white" stroke="black" points="2324.12,-112.5 2324.12,-131.5 2449.12,-131.5 2449.12,-112.5 2324.12,-112.5"/>
<text text-anchor="middle" x="2386.62" y="-119.5" font-family="Helvetica,sans-Serif" font-size="10.00">Network/Message.hpp</text>
</a>
</g>
</g>
<!-- Node10&#45;&gt;Node13 -->
<g id="edge13" class="edge">
<title>Node10&#45;&gt;Node13</title>
<path fill="none" stroke="midnightblue" d="M2650.87,-168.44C2595.29,-158.89 2505.36,-143.42 2446.1,-133.23"/>
<polygon fill="midnightblue" stroke="midnightblue" points="2446.59,-129.76 2436.14,-131.52 2445.4,-136.66 2446.59,-129.76"/>
</g>
<!-- Node20 -->
<g id="node19" class="node">
<title>Node20</title>
<g id="a_node19"><a xlink:href="TSQueue_8hpp.html" target="_top" xlink:title=" ">
<polygon fill="white" stroke="red" points="2657.62,-112.5 2657.62,-131.5 2779.62,-131.5 2779.62,-112.5 2657.62,-112.5"/>
<text text-anchor="middle" x="2718.62" y="-119.5" font-family="Helvetica,sans-Serif" font-size="10.00">Utilities/TSQueue.hpp</text>
</a>
</g>
</g>
<!-- Node10&#45;&gt;Node20 -->
<g id="edge23" class="edge">
<title>Node10&#45;&gt;Node20</title>
<path fill="none" stroke="midnightblue" d="M2703.59,-168.08C2706,-160.85 2709.48,-150.41 2712.49,-141.4"/>
<polygon fill="midnightblue" stroke="midnightblue" points="2715.86,-142.34 2715.7,-131.75 2709.22,-140.13 2715.86,-142.34"/>
</g>
<!-- Node13&#45;&gt;Node4 -->
<g id="edge14" class="edge">
<title>Node13&#45;&gt;Node4</title>
<path fill="none" stroke="midnightblue" d="M2324.98,-112.44C2255.41,-102.79 2142.41,-87.1 2069.05,-76.92"/>
<polygon fill="midnightblue" stroke="midnightblue" points="2069.36,-73.42 2058.97,-75.52 2068.39,-80.36 2069.36,-73.42"/>
</g>
<!-- Node13&#45;&gt;Node9 -->
<g id="edge18" class="edge">
<title>Node13&#45;&gt;Node9</title>
<path fill="none" stroke="midnightblue" d="M2449.28,-112.97C2529.37,-102.41 2658.62,-84.22 2665.62,-76 2683.49,-55.02 2650.45,-35.43 2622.01,-23.35"/>
<polygon fill="midnightblue" stroke="midnightblue" points="2623.21,-20.05 2612.62,-19.55 2620.58,-26.54 2623.21,-20.05"/>
</g>
<!-- Node13&#45;&gt;Node11 -->
<g id="edge19" class="edge">
<title>Node13&#45;&gt;Node11</title>
<path fill="none" stroke="midnightblue" d="M2357.15,-112.44C2323.68,-102.73 2269.18,-86.9 2234.12,-76.73"/>
<polygon fill="midnightblue" stroke="midnightblue" points="2234.93,-73.32 2224.35,-73.89 2232.98,-80.04 2234.93,-73.32"/>
</g>
<!-- Node14 -->
<g id="node14" class="node">
<title>Node14</title>
<g id="a_node14"><a xlink:href="SwapEndian_8hpp.html" target="_top" xlink:title=" ">
<polygon fill="white" stroke="red" points="2518.62,-56.5 2518.62,-75.5 2656.62,-75.5 2656.62,-56.5 2518.62,-56.5"/>
<text text-anchor="middle" x="2587.62" y="-63.5" font-family="Helvetica,sans-Serif" font-size="10.00">Utilities/SwapEndian.hpp</text>
</a>
</g>
</g>
<!-- Node13&#45;&gt;Node14 -->
<g id="edge15" class="edge">
<title>Node13&#45;&gt;Node14</title>
<path fill="none" stroke="midnightblue" d="M2418.47,-112.44C2453.02,-103.16 2508.3,-88.31 2546.2,-78.13"/>
<polygon fill="midnightblue" stroke="midnightblue" points="2547.17,-81.49 2555.92,-75.52 2545.35,-74.73 2547.17,-81.49"/>
</g>
<!-- Node16 -->
<g id="node15" class="node">
<title>Node16</title>
<g id="a_node15"><a xlink:title=" ">
<polygon fill="white" stroke="#bfbfbf" points="2242.62,-56.5 2242.62,-75.5 2292.62,-75.5 2292.62,-56.5 2242.62,-56.5"/>
<text text-anchor="middle" x="2267.62" y="-63.5" font-family="Helvetica,sans-Serif" font-size="10.00">cstring</text>
</a>
</g>
</g>
<!-- Node13&#45;&gt;Node16 -->
<g id="edge17" class="edge">
<title>Node13&#45;&gt;Node16</title>
<path fill="none" stroke="midnightblue" d="M2367.76,-112.44C2348.35,-103.64 2317.89,-89.81 2295.66,-79.72"/>
<polygon fill="midnightblue" stroke="midnightblue" points="2296.94,-76.46 2286.39,-75.52 2294.05,-82.84 2296.94,-76.46"/>
</g>
<!-- Node17 -->
<g id="node16" class="node">
<title>Node17</title>
<g id="a_node16"><a xlink:title=" ">
<polygon fill="white" stroke="#bfbfbf" points="2310.62,-56.5 2310.62,-75.5 2374.62,-75.5 2374.62,-56.5 2310.62,-56.5"/>
<text text-anchor="middle" x="2342.62" y="-63.5" font-family="Helvetica,sans-Serif" font-size="10.00">algorithm</text>
</a>
</g>
</g>
<!-- Node13&#45;&gt;Node17 -->
<g id="edge20" class="edge">
<title>Node13&#45;&gt;Node17</title>
<path fill="none" stroke="midnightblue" d="M2379.35,-112.08C2373.08,-104.38 2363.83,-93.03 2356.19,-83.65"/>
<polygon fill="midnightblue" stroke="midnightblue" points="2358.78,-81.29 2349.75,-75.75 2353.35,-85.71 2358.78,-81.29"/>
</g>
<!-- Node18 -->
<g id="node17" class="node">
<title>Node18</title>
<g id="a_node17"><a xlink:title=" ">
<polygon fill="white" stroke="#bfbfbf" points="2392.62,-56.5 2392.62,-75.5 2452.62,-75.5 2452.62,-56.5 2392.62,-56.5"/>
<text text-anchor="middle" x="2422.62" y="-63.5" font-family="Helvetica,sans-Serif" font-size="10.00">iostream</text>
</a>
</g>
</g>
<!-- Node13&#45;&gt;Node18 -->
<g id="edge21" class="edge">
<title>Node13&#45;&gt;Node18</title>
<path fill="none" stroke="midnightblue" d="M2392.56,-112.08C2397.6,-104.53 2404.96,-93.49 2411.13,-84.23"/>
<polygon fill="midnightblue" stroke="midnightblue" points="2414.15,-86.01 2416.79,-75.75 2408.33,-82.13 2414.15,-86.01"/>
</g>
<!-- Node19 -->
<g id="node18" class="node">
<title>Node19</title>
<g id="a_node18"><a xlink:title=" ">
<polygon fill="white" stroke="#bfbfbf" points="2471.12,-56.5 2471.12,-75.5 2500.12,-75.5 2500.12,-56.5 2471.12,-56.5"/>
<text text-anchor="middle" x="2485.62" y="-63.5" font-family="Helvetica,sans-Serif" font-size="10.00">bit</text>
</a>
</g>
</g>
<!-- Node13&#45;&gt;Node19 -->
<g id="edge22" class="edge">
<title>Node13&#45;&gt;Node19</title>
<path fill="none" stroke="midnightblue" d="M2402.53,-112.32C2418.63,-103.54 2443.72,-89.86 2462.12,-79.82"/>
<polygon fill="midnightblue" stroke="midnightblue" points="2463.94,-82.81 2471.04,-74.95 2460.59,-76.67 2463.94,-82.81"/>
</g>
<!-- Node14&#45;&gt;Node9 -->
<g id="edge16" class="edge">
<title>Node14&#45;&gt;Node9</title>
<path fill="none" stroke="midnightblue" d="M2587.62,-56.08C2587.62,-49.01 2587.62,-38.86 2587.62,-29.99"/>
<polygon fill="midnightblue" stroke="midnightblue" points="2591.12,-29.75 2587.62,-19.75 2584.12,-29.75 2591.12,-29.75"/>
</g>
<!-- Node21 -->
<g id="node20" class="node">
<title>Node21</title>
<g id="a_node20"><a xlink:title=" ">
<polygon fill="white" stroke="#bfbfbf" points="2712.62,-56.5 2712.62,-75.5 2760.62,-75.5 2760.62,-56.5 2712.62,-56.5"/>
<text text-anchor="middle" x="2736.62" y="-63.5" font-family="Helvetica,sans-Serif" font-size="10.00">mutex</text>
</a>
</g>
</g>
<!-- Node20&#45;&gt;Node21 -->
<g id="edge24" class="edge">
<title>Node20&#45;&gt;Node21</title>
<path fill="none" stroke="midnightblue" d="M2721.59,-112.08C2724,-104.85 2727.48,-94.41 2730.49,-85.4"/>
<polygon fill="midnightblue" stroke="midnightblue" points="2733.86,-86.34 2733.7,-75.75 2727.22,-84.13 2733.86,-86.34"/>
</g>
<!-- Node22 -->
<g id="node21" class="node">
<title>Node22</title>
<g id="a_node21"><a xlink:title=" ">
<polygon fill="white" stroke="#bfbfbf" points="2779.12,-56.5 2779.12,-75.5 2886.12,-75.5 2886.12,-56.5 2779.12,-56.5"/>
<text text-anchor="middle" x="2832.62" y="-63.5" font-family="Helvetica,sans-Serif" font-size="10.00">condition_variable</text>
</a>
</g>
</g>
<!-- Node20&#45;&gt;Node22 -->
<g id="edge25" class="edge">
<title>Node20&#45;&gt;Node22</title>
<path fill="none" stroke="midnightblue" d="M2736.68,-112.44C2755.19,-103.68 2784.2,-89.94 2805.48,-79.86"/>
<polygon fill="midnightblue" stroke="midnightblue" points="2807.1,-82.96 2814.64,-75.52 2804.11,-76.63 2807.1,-82.96"/>
</g>
<!-- Node25&#45;&gt;Node9 -->
<g id="edge27" class="edge">
<title>Node25&#45;&gt;Node9</title>
<path fill="none" stroke="midnightblue" d="M2472.07,-169.09C2380.92,-157.91 2225.77,-138.17 2214.62,-132 2179.87,-112.77 2141.08,-85.54 2167.62,-56 2193.19,-27.54 2456.15,-15.58 2552.49,-12.13"/>
<polygon fill="midnightblue" stroke="midnightblue" points="2552.73,-15.62 2562.6,-11.77 2552.49,-8.63 2552.73,-15.62"/>
</g>
<!-- Node30&#45;&gt;Node8 -->
<g id="edge49" class="edge">
<title>Node30&#45;&gt;Node8</title>
<path fill="none" stroke="midnightblue" d="M2737.54,-336.44C2771.35,-329.27 2817.54,-317.39 2855.62,-300 2885.07,-286.55 2915.53,-264.59 2934.27,-249.96"/>
<polygon fill="midnightblue" stroke="midnightblue" points="2936.59,-252.59 2942.25,-243.63 2932.24,-247.11 2936.59,-252.59"/>
</g>
<!-- Node30&#45;&gt;Node12 -->
<g id="edge51" class="edge">
<title>Node30&#45;&gt;Node12</title>
<path fill="none" stroke="midnightblue" d="M2753.09,-336.49C2882.17,-317.44 3170.74,-266.76 3224.62,-188 3253.64,-145.58 3168.82,-130.75 3113.77,-125.63"/>
<polygon fill="midnightblue" stroke="midnightblue" points="3113.8,-122.12 3103.54,-124.76 3113.2,-129.09 3113.8,-122.12"/>
</g>
<!-- Node30&#45;&gt;Node29 -->
<g id="edge53" class="edge">
<title>Node30&#45;&gt;Node29</title>
<path fill="none" stroke="midnightblue" d="M2733.96,-336.45C2773.72,-328.26 2834.07,-314.97 2885.62,-300 2957.57,-279.1 2975.12,-271.97 3044.62,-244 3085.81,-227.42 3132.44,-205.64 3160.94,-191.98"/>
<polygon fill="midnightblue" stroke="midnightblue" points="3162.73,-195 3170.22,-187.51 3159.7,-188.69 3162.73,-195"/>
</g>
<!-- Node31 -->
<g id="node28" class="node">
<title>Node31</title>
<g id="a_node28"><a xlink:href="UIHomePage_8hpp.html" target="_top" xlink:title=" ">
<polygon fill="white" stroke="black" points="1048.12,-280.5 1048.12,-299.5 1161.12,-299.5 1161.12,-280.5 1048.12,-280.5"/>
<text text-anchor="middle" x="1104.62" y="-287.5" font-family="Helvetica,sans-Serif" font-size="10.00">ui/UIHomePage.hpp</text>
</a>
</g>
</g>
<!-- Node30&#45;&gt;Node31 -->
<g id="edge34" class="edge">
<title>Node30&#45;&gt;Node31</title>
<path fill="none" stroke="midnightblue" d="M2621.96,-342.66C2360.71,-333.77 1430.29,-302.09 1171.72,-293.28"/>
<polygon fill="midnightblue" stroke="midnightblue" points="1171.47,-289.77 1161.36,-292.93 1171.23,-296.77 1171.47,-289.77"/>
</g>
<!-- Node46 -->
<g id="node43" class="node">
<title>Node46</title>
<g id="a_node43"><a xlink:title=" ">
<polygon fill="white" stroke="#bfbfbf" points="2418.12,-280.5 2418.12,-299.5 2505.12,-299.5 2505.12,-280.5 2418.12,-280.5"/>
<text text-anchor="middle" x="2461.62" y="-287.5" font-family="Helvetica,sans-Serif" font-size="10.00">QMainWindow</text>
</a>
</g>
</g>
<!-- Node30&#45;&gt;Node46 -->
<g id="edge50" class="edge">
<title>Node30&#45;&gt;Node46</title>
<path fill="none" stroke="midnightblue" d="M2654.33,-336.44C2614.64,-327.08 2550.91,-312.06 2507.71,-301.87"/>
<polygon fill="midnightblue" stroke="midnightblue" points="2508.27,-298.41 2497.74,-299.52 2506.67,-305.22 2508.27,-298.41"/>
</g>
<!-- Node47 -->
<g id="node44" class="node">
<title>Node47</title>
<g id="a_node44"><a xlink:title=" ">
<polygon fill="white" stroke="#bfbfbf" points="2415.62,-168.5 2415.62,-187.5 2453.62,-187.5 2453.62,-168.5 2415.62,-168.5"/>
<text text-anchor="middle" x="2434.62" y="-175.5" font-family="Helvetica,sans-Serif" font-size="10.00">map</text>
</a>
</g>
</g>
<!-- Node30&#45;&gt;Node47 -->
<g id="edge52" class="edge">
<title>Node30&#45;&gt;Node47</title>
<path fill="none" stroke="midnightblue" d="M2698.35,-336.24C2716.5,-314.58 2758.18,-257.82 2728.62,-224 2691.21,-181.19 2536.32,-199.25 2463.85,-187.6"/>
<polygon fill="midnightblue" stroke="midnightblue" points="2464.26,-184.11 2453.78,-185.65 2462.93,-190.98 2464.26,-184.11"/>
</g>
<!-- Node48 -->
<g id="node45" class="node">
<title>Node48</title>
<g id="a_node45"><a xlink:href="SoundHandler_8hpp.html" target="_top" xlink:title=" ">
<polygon fill="white" stroke="black" points="2523.12,-280.5 2523.12,-299.5 2628.12,-299.5 2628.12,-280.5 2523.12,-280.5"/>
<text text-anchor="middle" x="2575.62" y="-287.5" font-family="Helvetica,sans-Serif" font-size="10.00">SoundHandler.hpp</text>
</a>
</g>
</g>
<!-- Node30&#45;&gt;Node48 -->
<g id="edge54" class="edge">
<title>Node30&#45;&gt;Node48</title>
<path fill="none" stroke="midnightblue" d="M2672.4,-336.44C2653.72,-327.68 2624.46,-313.94 2603,-303.86"/>
<polygon fill="midnightblue" stroke="midnightblue" points="2604.3,-300.6 2593.76,-299.52 2601.32,-306.93 2604.3,-300.6"/>
</g>
<!-- Node32 -->
<g id="node29" class="node">
<title>Node32</title>
<g id="a_node29"><a xlink:title=" ">
<polygon fill="white" stroke="#bfbfbf" points="1179.12,-224.5 1179.12,-243.5 1274.12,-243.5 1274.12,-224.5 1179.12,-224.5"/>
<text text-anchor="middle" x="1226.62" y="-231.5" font-family="Helvetica,sans-Serif" font-size="10.00">QtCore/QVariant</text>
</a>
</g>
</g>
<!-- Node31&#45;&gt;Node32 -->
<g id="edge35" class="edge">
<title>Node31&#45;&gt;Node32</title>
<path fill="none" stroke="midnightblue" d="M1123.95,-280.44C1143.94,-271.6 1175.36,-257.69 1198.18,-247.59"/>
<polygon fill="midnightblue" stroke="midnightblue" points="1199.65,-250.76 1207.38,-243.52 1196.82,-244.36 1199.65,-250.76"/>
</g>
<!-- Node33 -->
<g id="node30" class="node">
<title>Node33</title>
<g id="a_node30"><a xlink:title=" ">
<polygon fill="white" stroke="#bfbfbf" points="1292.12,-224.5 1292.12,-243.5 1425.12,-243.5 1425.12,-224.5 1292.12,-224.5"/>
<text text-anchor="middle" x="1358.62" y="-231.5" font-family="Helvetica,sans-Serif" font-size="10.00">QtWidgets/QApplication</text>
</a>
</g>
</g>
<!-- Node31&#45;&gt;Node33 -->
<g id="edge36" class="edge">
<title>Node31&#45;&gt;Node33</title>
<path fill="none" stroke="midnightblue" d="M1144.87,-280.44C1189.27,-271 1260.77,-255.8 1308.71,-245.61"/>
<polygon fill="midnightblue" stroke="midnightblue" points="1309.51,-249.02 1318.56,-243.52 1308.05,-242.17 1309.51,-249.02"/>
</g>
<!-- Node34 -->
<g id="node31" class="node">
<title>Node34</title>
<g id="a_node31"><a xlink:title=" ">
<polygon fill="white" stroke="#bfbfbf" points="1443.12,-224.5 1443.12,-243.5 1570.12,-243.5 1570.12,-224.5 1443.12,-224.5"/>
<text text-anchor="middle" x="1506.62" y="-231.5" font-family="Helvetica,sans-Serif" font-size="10.00">QtWidgets/QCheckBox</text>
</a>
</g>
</g>
<!-- Node31&#45;&gt;Node34 -->
<g id="edge37" class="edge">
<title>Node31&#45;&gt;Node34</title>
<path fill="none" stroke="midnightblue" d="M1161.36,-281.38C1232.51,-271.82 1354.63,-255.42 1432.93,-244.9"/>
<polygon fill="midnightblue" stroke="midnightblue" points="1433.76,-248.32 1443.21,-243.52 1432.83,-241.38 1433.76,-248.32"/>
</g>
<!-- Node35 -->
<g id="node32" class="node">
<title>Node35</title>
<g id="a_node32"><a xlink:title=" ">
<polygon fill="white" stroke="#bfbfbf" points="1588.62,-224.5 1588.62,-243.5 1724.62,-243.5 1724.62,-224.5 1588.62,-224.5"/>
<text text-anchor="middle" x="1656.62" y="-231.5" font-family="Helvetica,sans-Serif" font-size="10.00">QtWidgets/QFormLayout</text>
</a>
</g>
</g>
<!-- Node31&#45;&gt;Node35 -->
<g id="edge38" class="edge">
<title>Node31&#45;&gt;Node35</title>
<path fill="none" stroke="midnightblue" d="M1161.2,-284C1250.12,-276.06 1427.97,-259.84 1578.62,-244 1578.72,-243.99 1578.82,-243.98 1578.93,-243.97"/>
<polygon fill="midnightblue" stroke="midnightblue" points="1578.99,-247.48 1588.56,-242.93 1578.25,-240.52 1578.99,-247.48"/>
</g>
<!-- Node36 -->
<g id="node33" class="node">
<title>Node36</title>
<g id="a_node33"><a xlink:title=" ">
<polygon fill="white" stroke="#bfbfbf" points="1743.12,-224.5 1743.12,-243.5 1874.12,-243.5 1874.12,-224.5 1743.12,-224.5"/>
<text text-anchor="middle" x="1808.62" y="-231.5" font-family="Helvetica,sans-Serif" font-size="10.00">QtWidgets/QGridLayout</text>
</a>
</g>
</g>
<!-- Node31&#45;&gt;Node36 -->
<g id="edge39" class="edge">
<title>Node31&#45;&gt;Node36</title>
<path fill="none" stroke="midnightblue" d="M1161.51,-285.85C1270.27,-279.62 1515.44,-264.62 1732.79,-244.03"/>
<polygon fill="midnightblue" stroke="midnightblue" points="1733.17,-247.51 1742.79,-243.08 1732.5,-240.55 1733.17,-247.51"/>
</g>
<!-- Node37 -->
<g id="node34" class="node">
<title>Node37</title>
<g id="a_node34"><a xlink:title=" ">
<polygon fill="white" stroke="#bfbfbf" points="1892.62,-224.5 1892.62,-243.5 1996.62,-243.5 1996.62,-224.5 1892.62,-224.5"/>
<text text-anchor="middle" x="1944.62" y="-231.5" font-family="Helvetica,sans-Serif" font-size="10.00">QtWidgets/QLabel</text>
</a>
</g>
</g>
<!-- Node31&#45;&gt;Node37 -->
<g id="edge40" class="edge">
<title>Node31&#45;&gt;Node37</title>
<path fill="none" stroke="midnightblue" d="M1161.37,-287.4C1289.99,-283.4 1613.41,-271.27 1882.62,-244 1882.72,-243.99 1882.82,-243.98 1882.92,-243.97"/>
<polygon fill="midnightblue" stroke="midnightblue" points="1883.02,-247.48 1892.57,-242.89 1882.24,-240.52 1883.02,-247.48"/>
</g>
<!-- Node38 -->
<g id="node35" class="node">
<title>Node38</title>
<g id="a_node35"><a xlink:title=" ">
<polygon fill="white" stroke="#bfbfbf" points="14.12,-224.5 14.12,-243.5 131.12,-243.5 131.12,-224.5 14.12,-224.5"/>
<text text-anchor="middle" x="72.62" y="-231.5" font-family="Helvetica,sans-Serif" font-size="10.00">QtWidgets/QLineEdit</text>
</a>
</g>
</g>
<!-- Node31&#45;&gt;Node38 -->
<g id="edge41" class="edge">
<title>Node31&#45;&gt;Node38</title>
<path fill="none" stroke="midnightblue" d="M1048.01,-288.04C900.53,-285.17 492.26,-274.91 141.3,-243.97"/>
<polygon fill="midnightblue" stroke="midnightblue" points="141.46,-240.47 131.19,-243.07 140.84,-247.44 141.46,-240.47"/>
</g>
<!-- Node39 -->
<g id="node36" class="node">
<title>Node39</title>
<g id="a_node36"><a xlink:title=" ">
<polygon fill="white" stroke="#bfbfbf" points="149.62,-224.5 149.62,-243.5 279.62,-243.5 279.62,-224.5 149.62,-224.5"/>
<text text-anchor="middle" x="214.62" y="-231.5" font-family="Helvetica,sans-Serif" font-size="10.00">QtWidgets/QListWidget</text>
</a>
</g>
</g>
<!-- Node31&#45;&gt;Node39 -->
<g id="edge42" class="edge">
<title>Node31&#45;&gt;Node39</title>
<path fill="none" stroke="midnightblue" d="M1047.64,-287.15C916.13,-282.61 581.03,-269.43 290.29,-244.09"/>
<polygon fill="midnightblue" stroke="midnightblue" points="290.23,-240.57 279.97,-243.18 289.62,-247.55 290.23,-240.57"/>
</g>
<!-- Node40 -->
<g id="node37" class="node">
<title>Node40</title>
<g id="a_node37"><a xlink:title=" ">
<polygon fill="white" stroke="#bfbfbf" points="298.12,-224.5 298.12,-243.5 439.12,-243.5 439.12,-224.5 298.12,-224.5"/>
<text text-anchor="middle" x="368.62" y="-231.5" font-family="Helvetica,sans-Serif" font-size="10.00">QtWidgets/QMainWindow</text>
</a>
</g>
</g>
<!-- Node31&#45;&gt;Node40 -->
<g id="edge43" class="edge">
<title>Node31&#45;&gt;Node40</title>
<path fill="none" stroke="midnightblue" d="M1047.96,-285.95C935.88,-279.72 677.74,-264.49 449.44,-244.03"/>
<polygon fill="midnightblue" stroke="midnightblue" points="449.55,-240.53 439.27,-243.12 448.92,-247.5 449.55,-240.53"/>
</g>
<!-- Node41 -->
<g id="node38" class="node">
<title>Node41</title>
<g id="a_node38"><a xlink:title=" ">
<polygon fill="white" stroke="#bfbfbf" points="457.62,-224.5 457.62,-243.5 591.62,-243.5 591.62,-224.5 457.62,-224.5"/>
<text text-anchor="middle" x="524.62" y="-231.5" font-family="Helvetica,sans-Serif" font-size="10.00">QtWidgets/QPushButton</text>
</a>
</g>
</g>
<!-- Node31&#45;&gt;Node41 -->
<g id="edge44" class="edge">
<title>Node31&#45;&gt;Node41</title>
<path fill="none" stroke="midnightblue" d="M1047.88,-284.47C956.35,-277.05 770.16,-261.45 601.79,-244.09"/>
<polygon fill="midnightblue" stroke="midnightblue" points="602.05,-240.6 591.75,-243.06 601.33,-247.57 602.05,-240.6"/>
</g>
<!-- Node42 -->
<g id="node39" class="node">
<title>Node42</title>
<g id="a_node39"><a xlink:title=" ">
<polygon fill="white" stroke="#bfbfbf" points="609.62,-224.5 609.62,-243.5 727.62,-243.5 727.62,-224.5 609.62,-224.5"/>
<text text-anchor="middle" x="668.62" y="-231.5" font-family="Helvetica,sans-Serif" font-size="10.00">QtWidgets/QSpinBox</text>
</a>
</g>
</g>
<!-- Node31&#45;&gt;Node42 -->
<g id="edge45" class="edge">
<title>Node31&#45;&gt;Node42</title>
<path fill="none" stroke="midnightblue" d="M1047.86,-282.24C977.61,-273.82 854.01,-258.9 738.07,-244.17"/>
<polygon fill="midnightblue" stroke="midnightblue" points="738.32,-240.68 727.95,-242.89 737.43,-247.62 738.32,-240.68"/>
</g>
<!-- Node43 -->
<g id="node40" class="node">
<title>Node43</title>
<g id="a_node40"><a xlink:title=" ">
<polygon fill="white" stroke="#bfbfbf" points="746.12,-224.5 746.12,-243.5 875.12,-243.5 875.12,-224.5 746.12,-224.5"/>
<text text-anchor="middle" x="810.62" y="-231.5" font-family="Helvetica,sans-Serif" font-size="10.00">QtWidgets/QTabWidget</text>
</a>
</g>
</g>
<!-- Node31&#45;&gt;Node43 -->
<g id="edge46" class="edge">
<title>Node31&#45;&gt;Node43</title>
<path fill="none" stroke="midnightblue" d="M1058.03,-280.44C1006.21,-270.92 922.49,-255.55 867,-245.36"/>
<polygon fill="midnightblue" stroke="midnightblue" points="867.46,-241.88 856.99,-243.52 866.19,-248.77 867.46,-241.88"/>
</g>
<!-- Node44 -->
<g id="node41" class="node">
<title>Node44</title>
<g id="a_node41"><a xlink:title=" ">
<polygon fill="white" stroke="#bfbfbf" points="893.12,-224.5 893.12,-243.5 1030.12,-243.5 1030.12,-224.5 893.12,-224.5"/>
<text text-anchor="middle" x="961.62" y="-231.5" font-family="Helvetica,sans-Serif" font-size="10.00">QtWidgets/QVBoxLayout</text>
</a>
</g>
</g>
<!-- Node31&#45;&gt;Node44 -->
<g id="edge47" class="edge">
<title>Node31&#45;&gt;Node44</title>
<path fill="none" stroke="midnightblue" d="M1081.96,-280.44C1058.22,-271.48 1020.71,-257.31 993.88,-247.18"/>
<polygon fill="midnightblue" stroke="midnightblue" points="994.76,-243.77 984.17,-243.52 992.29,-250.32 994.76,-243.77"/>
</g>
<!-- Node45 -->
<g id="node42" class="node">
<title>Node45</title>
<g id="a_node42"><a xlink:title=" ">
<polygon fill="white" stroke="#bfbfbf" points="1048.12,-224.5 1048.12,-243.5 1161.12,-243.5 1161.12,-224.5 1048.12,-224.5"/>
<text text-anchor="middle" x="1104.62" y="-231.5" font-family="Helvetica,sans-Serif" font-size="10.00">QtWidgets/QWidget</text>
</a>
</g>
</g>
<!-- Node31&#45;&gt;Node45 -->
<g id="edge48" class="edge">
<title>Node31&#45;&gt;Node45</title>
<path fill="none" stroke="midnightblue" d="M1104.62,-280.08C1104.62,-273.01 1104.62,-262.86 1104.62,-253.99"/>
<polygon fill="midnightblue" stroke="midnightblue" points="1108.12,-253.75 1104.62,-243.75 1101.12,-253.75 1108.12,-253.75"/>
</g>
<!-- Node48&#45;&gt;Node2 -->
<g id="edge64" class="edge">
<title>Node48&#45;&gt;Node2</title>
<path fill="none" stroke="midnightblue" d="M2522.87,-281.26C2519.74,-280.83 2516.64,-280.41 2513.62,-280 2384.46,-262.64 2348.05,-279.37 2222.62,-244 2201.95,-238.17 2198.69,-231.66 2178.62,-224 2144.47,-210.96 2104.77,-198.77 2075.71,-190.37"/>
<polygon fill="midnightblue" stroke="midnightblue" points="2076.48,-186.95 2065.9,-187.56 2074.55,-193.68 2076.48,-186.95"/>
</g>
<!-- Node48&#45;&gt;Node6 -->
<g id="edge55" class="edge">
<title>Node48&#45;&gt;Node6</title>
<path fill="none" stroke="midnightblue" d="M2522.88,-281.12C2519.75,-280.72 2516.65,-280.35 2513.62,-280 2325.47,-258.52 2273.65,-273.75 2083.06,-244.01"/>
<polygon fill="midnightblue" stroke="midnightblue" points="2083.42,-240.52 2072.99,-242.41 2082.32,-247.43 2083.42,-240.52"/>
</g>
<!-- Node48&#45;&gt;Node7 -->
<g id="edge59" class="edge">
<title>Node48&#45;&gt;Node7</title>
<path fill="none" stroke="midnightblue" d="M2522.87,-281.21C2519.74,-280.79 2516.64,-280.38 2513.62,-280 2367.7,-261.43 2330.34,-264.1 2184.62,-244 2183.32,-243.82 2182.01,-243.64 2180.68,-243.44"/>
<polygon fill="midnightblue" stroke="midnightblue" points="2180.8,-239.92 2170.39,-241.89 2179.76,-246.84 2180.8,-239.92"/>
</g>
<!-- Node48&#45;&gt;Node8 -->
<g id="edge65" class="edge">
<title>Node48&#45;&gt;Node8</title>
<path fill="none" stroke="midnightblue" d="M2628.44,-281.43C2694.92,-271.91 2809.3,-255.53 2882.91,-244.99"/>
<polygon fill="midnightblue" stroke="midnightblue" points="2883.61,-248.42 2893.01,-243.54 2882.62,-241.49 2883.61,-248.42"/>
</g>
<!-- Node48&#45;&gt;Node22 -->
<g id="edge58" class="edge">
<title>Node48&#45;&gt;Node22</title>
<path fill="none" stroke="midnightblue" d="M2625.49,-280.46C2656.59,-273.68 2696.64,-262.25 2728.62,-244 2760.3,-225.92 2768.5,-218.42 2788.62,-188 2810.33,-155.18 2822.99,-110.28 2828.78,-85.43"/>
<polygon fill="midnightblue" stroke="midnightblue" points="2832.22,-86.06 2830.96,-75.54 2825.39,-84.55 2832.22,-86.06"/>
</g>
<!-- Node48&#45;&gt;Node25 -->
<g id="edge66" class="edge">
<title>Node48&#45;&gt;Node25</title>
<path fill="none" stroke="midnightblue" d="M2584.78,-280.43C2597.08,-267.84 2616.21,-243.71 2605.62,-224 2598,-209.82 2583.72,-199.35 2570.21,-192.1"/>
<polygon fill="midnightblue" stroke="midnightblue" points="2571.59,-188.88 2561.07,-187.59 2568.49,-195.16 2571.59,-188.88"/>
</g>
<!-- Node48&#45;&gt;Node47 -->
<g id="edge56" class="edge">
<title>Node48&#45;&gt;Node47</title>
<path fill="none" stroke="midnightblue" d="M2628.46,-281.95C2677.19,-273.32 2738.11,-255.77 2710.62,-224 2675.96,-183.94 2531.95,-198.89 2463.67,-187.58"/>
<polygon fill="midnightblue" stroke="midnightblue" points="2464.27,-184.13 2453.78,-185.62 2462.91,-191 2464.27,-184.13"/>
</g>
<!-- Node49 -->
<g id="node46" class="node">
<title>Node49</title>
<g id="a_node46"><a xlink:title=" ">
<polygon fill="white" stroke="#bfbfbf" points="2653.62,-224.5 2653.62,-243.5 2701.62,-243.5 2701.62,-224.5 2653.62,-224.5"/>
<text text-anchor="middle" x="2677.62" y="-231.5" font-family="Helvetica,sans-Serif" font-size="10.00">thread</text>
</a>
</g>
</g>
<!-- Node48&#45;&gt;Node49 -->
<g id="edge57" class="edge">
<title>Node48&#45;&gt;Node49</title>
<path fill="none" stroke="midnightblue" d="M2592.01,-280.32C2608.29,-271.7 2633.49,-258.36 2652.34,-248.39"/>
<polygon fill="midnightblue" stroke="midnightblue" points="2654.07,-251.43 2661.27,-243.65 2650.8,-245.24 2654.07,-251.43"/>
</g>
<!-- Node50 -->
<g id="node47" class="node">
<title>Node50</title>
<g id="a_node47"><a xlink:href="ICodec_8hpp.html" target="_top" xlink:title=" ">
<polygon fill="white" stroke="black" points="2192.12,-168.5 2192.12,-187.5 2321.12,-187.5 2321.12,-168.5 2192.12,-168.5"/>
<text text-anchor="middle" x="2256.62" y="-175.5" font-family="Helvetica,sans-Serif" font-size="10.00">Audio/Opus/ICodec.hpp</text>
</a>
</g>
</g>
<!-- Node48&#45;&gt;Node50 -->
<g id="edge60" class="edge">
<title>Node48&#45;&gt;Node50</title>
<path fill="none" stroke="midnightblue" d="M2523.01,-281.19C2442.72,-269.19 2298.32,-247.26 2293.62,-244 2277.64,-232.93 2267.7,-212.59 2262.2,-197.6"/>
<polygon fill="midnightblue" stroke="midnightblue" points="2265.43,-196.22 2258.95,-187.84 2258.79,-198.43 2265.43,-196.22"/>
</g>
<!-- Node51 -->
<g id="node48" class="node">
<title>Node51</title>
<g id="a_node48"><a xlink:href="IAudioManager_8hpp.html" target="_top" xlink:title=" ">
<polygon fill="white" stroke="black" points="2026.12,-112.5 2026.12,-131.5 2167.12,-131.5 2167.12,-112.5 2026.12,-112.5"/>
<text text-anchor="middle" x="2096.62" y="-119.5" font-family="Helvetica,sans-Serif" font-size="10.00">Audio/IAudioManager.hpp</text>
</a>
</g>
</g>
<!-- Node48&#45;&gt;Node51 -->
<g id="edge61" class="edge">
<title>Node48&#45;&gt;Node51</title>
<path fill="none" stroke="midnightblue" d="M2523.12,-281.34C2437.16,-268.78 2275.55,-245.08 2272.62,-244 2207.04,-219.91 2142.66,-165.74 2113.24,-138.82"/>
<polygon fill="midnightblue" stroke="midnightblue" points="2115.28,-135.94 2105.58,-131.69 2110.52,-141.07 2115.28,-135.94"/>
</g>
<!-- Node52 -->
<g id="node49" class="node">
<title>Node52</title>
<g id="a_node49"><a xlink:href="UDPSocket_8hpp.html" target="_top" xlink:title=" ">
<polygon fill="white" stroke="red" points="2303.12,-224.5 2303.12,-243.5 2438.12,-243.5 2438.12,-224.5 2303.12,-224.5"/>
<text text-anchor="middle" x="2370.62" y="-231.5" font-family="Helvetica,sans-Serif" font-size="10.00">Network/UDPSocket.hpp</text>
</a>
</g>
</g>
<!-- Node48&#45;&gt;Node52 -->
<g id="edge67" class="edge">
<title>Node48&#45;&gt;Node52</title>
<path fill="none" stroke="midnightblue" d="M2543.14,-280.44C2507.9,-271.16 2451.52,-256.31 2412.86,-246.13"/>
<polygon fill="midnightblue" stroke="midnightblue" points="2413.51,-242.68 2402.95,-243.52 2411.73,-249.45 2413.51,-242.68"/>
</g>
<!-- Node54 -->
<g id="node50" class="node">
<title>Node54</title>
<g id="a_node50"><a xlink:href="AudioPacket_8hpp.html" target="_top" xlink:title=" ">
<polygon fill="white" stroke="red" points="2456.12,-224.5 2456.12,-243.5 2597.12,-243.5 2597.12,-224.5 2456.12,-224.5"/>
<text text-anchor="middle" x="2526.62" y="-231.5" font-family="Helvetica,sans-Serif" font-size="10.00">Network/AudioPacket.hpp</text>
</a>
</g>
</g>
<!-- Node48&#45;&gt;Node54 -->
<g id="edge72" class="edge">
<title>Node48&#45;&gt;Node54</title>
<path fill="none" stroke="midnightblue" d="M2567.53,-280.08C2560.46,-272.3 2550.03,-260.8 2541.47,-251.37"/>
<polygon fill="midnightblue" stroke="midnightblue" points="2543.87,-248.8 2534.56,-243.75 2538.69,-253.51 2543.87,-248.8"/>
</g>
<!-- Node51&#45;&gt;Node9 -->
<g id="edge63" class="edge">
<title>Node51&#45;&gt;Node9</title>
<path fill="none" stroke="midnightblue" d="M2098.86,-112.49C2103.14,-98.1 2113.94,-69.27 2134.62,-56 2203.64,-11.72 2458.39,-9.66 2552.44,-10.47"/>
<polygon fill="midnightblue" stroke="midnightblue" points="2552.54,-13.97 2562.58,-10.57 2552.61,-6.97 2552.54,-13.97"/>
</g>
<!-- Node51&#45;&gt;Node11 -->
<g id="edge62" class="edge">
<title>Node51&#45;&gt;Node11</title>
<path fill="none" stroke="midnightblue" d="M2113.33,-112.32C2129.93,-103.7 2155.62,-90.36 2174.84,-80.39"/>
<polygon fill="midnightblue" stroke="midnightblue" points="2176.69,-83.37 2183.95,-75.65 2173.46,-77.16 2176.69,-83.37"/>
</g>
<!-- Node52&#45;&gt;Node21 -->
<g id="edge69" class="edge">
<title>Node52&#45;&gt;Node21</title>
<path fill="none" stroke="midnightblue" d="M2373.04,-224.47C2377.42,-210.57 2387.98,-183.11 2406.62,-168 2453.08,-130.35 2627.72,-90.01 2702.4,-74.06"/>
<polygon fill="midnightblue" stroke="midnightblue" points="2703.2,-77.47 2712.25,-71.98 2701.75,-70.62 2703.2,-77.47"/>
</g>
<!-- Node52&#45;&gt;Node47 -->
<g id="edge68" class="edge">
<title>Node52&#45;&gt;Node47</title>
<path fill="none" stroke="midnightblue" d="M2380.9,-224.32C2390.46,-216.26 2404.9,-204.08 2416.4,-194.37"/>
<polygon fill="midnightblue" stroke="midnightblue" points="2418.76,-196.96 2424.15,-187.83 2414.25,-191.61 2418.76,-196.96"/>
</g>
<!-- Node52&#45;&gt;Node50 -->
<g id="edge70" class="edge">
<title>Node52&#45;&gt;Node50</title>
<path fill="none" stroke="midnightblue" d="M2352.56,-224.44C2334.05,-215.68 2305.04,-201.94 2283.76,-191.86"/>
<polygon fill="midnightblue" stroke="midnightblue" points="2285.13,-188.63 2274.6,-187.52 2282.14,-194.96 2285.13,-188.63"/>
</g>
<!-- Node52&#45;&gt;Node51 -->
<g id="edge71" class="edge">
<title>Node52&#45;&gt;Node51</title>
<path fill="none" stroke="midnightblue" d="M2367.7,-224.22C2362.47,-209.97 2350.11,-182 2329.62,-168 2305.15,-151.28 2234.6,-139.14 2177.49,-131.72"/>
<polygon fill="midnightblue" stroke="midnightblue" points="2177.72,-128.22 2167.36,-130.43 2176.84,-135.16 2177.72,-128.22"/>
</g>
</g>
</svg>
