<?xml version="1.0" encoding="UTF-8" standalone="no"?>
<!DOCTYPE svg PUBLIC "-//W3C//DTD SVG 1.1//EN"
 "http://www.w3.org/Graphics/SVG/1.1/DTD/svg11.dtd">
<!-- Generated by graphviz version 2.43.0 (0)
 -->
<!-- Title: Common Pages: 1 -->
<svg width="184pt" height="148pt"
 viewBox="0.00 0.00 184.00 148.00" xmlns="http://www.w3.org/2000/svg" xmlns:xlink="http://www.w3.org/1999/xlink">
<g id="graph0" class="graph" transform="scale(1 1) rotate(0) translate(4 144)">
<title>Common</title>
<polygon fill="white" stroke="transparent" points="-4,4 -4,-144 180,-144 180,4 -4,4"/>
<g id="clust1" class="cluster">
<title>clusterdir_4ab6b4cc6a7edbff49100e9123df213f</title>
<g id="a_clust1"><a xlink:href="dir_4ab6b4cc6a7edbff49100e9123df213f.html" target="_top">
<polygon fill="#eeeeff" stroke="black" points="8,-8 8,-132 168,-132 168,-8 8,-8"/>
</a>
</g>
</g>
<!-- dir_4ab6b4cc6a7edbff49100e9123df213f -->
<g id="node1" class="node">
<title>dir_4ab6b4cc6a7edbff49100e9123df213f</title>
<text text-anchor="middle" x="129" y="-103.5" font-family="Helvetica,sans-Serif" font-size="10.00">Common</text>
</g>
<!-- dir_bb149bbd1f8de3f197d923bd567d5435 -->
<g id="node2" class="node">
<title>dir_bb149bbd1f8de3f197d923bd567d5435</title>
<g id="a_node2"><a xlink:href="dir_bb149bbd1f8de3f197d923bd567d5435.html" target="_top" xlink:title="Exceptions">
<polygon fill="white" stroke="black" points="86,-52 16,-52 16,-16 86,-16 86,-52"/>
<text text-anchor="middle" x="51" y="-31.5" font-family="Helvetica,sans-Serif" font-size="10.00">Exceptions</text>
</a>
</g>
</g>
<!-- dir_066e450fb9d99b92d5ff49ec5d3774e9 -->
<g id="node3" class="node">
<title>dir_066e450fb9d99b92d5ff49ec5d3774e9</title>
<g id="a_node3"><a xlink:href="dir_066e450fb9d99b92d5ff49ec5d3774e9.html" target="_top" xlink:title="Network">
<polygon fill="white" stroke="black" points="80,-124 22,-124 22,-88 80,-88 80,-124"/>
<text text-anchor="middle" x="51" y="-103.5" font-family="Helvetica,sans-Serif" font-size="10.00">Network</text>
</a>
</g>
</g>
<!-- dir_066e450fb9d99b92d5ff49ec5d3774e9&#45;&gt;dir_bb149bbd1f8de3f197d923bd567d5435 -->
<g id="edge1" class="edge">
<title>dir_066e450fb9d99b92d5ff49ec5d3774e9&#45;&gt;dir_bb149bbd1f8de3f197d923bd567d5435</title>
<path fill="none" stroke="black" d="M51,-87.7C51,-79.98 51,-70.71 51,-62.11"/>
<polygon fill="black" stroke="black" points="54.5,-62.1 51,-52.1 47.5,-62.1 54.5,-62.1"/>
<g id="a_edge1&#45;headlabel"><a xlink:href="dir_000013_000012.html" target="_top" xlink:title="1">
<text text-anchor="middle" x="57.34" y="-63.2" font-family="Helvetica,sans-Serif" font-size="10.00">1</text>
</a>
</g>
</g>
<!-- dir_8b7f97eedd9e6c5cc9cac680c60deb54 -->
<g id="node4" class="node">
<title>dir_8b7f97eedd9e6c5cc9cac680c60deb54</title>
<g id="a_node4"><a xlink:href="dir_8b7f97eedd9e6c5cc9cac680c60deb54.html" target="_top" xlink:title="Utilities">
<polygon fill="white" stroke="black" points="159.5,-52 104.5,-52 104.5,-16 159.5,-16 159.5,-52"/>
<text text-anchor="middle" x="132" y="-31.5" font-family="Helvetica,sans-Serif" font-size="10.00">Utilities</text>
</a>
</g>
</g>
<!-- dir_066e450fb9d99b92d5ff49ec5d3774e9&#45;&gt;dir_8b7f97eedd9e6c5cc9cac680c60deb54 -->
<g id="edge2" class="edge">
<title>dir_066e450fb9d99b92d5ff49ec5d3774e9&#45;&gt;dir_8b7f97eedd9e6c5cc9cac680c60deb54</title>
<path fill="none" stroke="black" d="M65.11,-87.7C74.4,-78.88 86.79,-68.03 98.42,-58.47"/>
<polygon fill="black" stroke="black" points="100.73,-61.11 106.31,-52.1 96.33,-55.66 100.73,-61.11"/>
<g id="a_edge2&#45;headlabel"><a xlink:href="dir_000013_000014.html" target="_top" xlink:title="3">
<text text-anchor="middle" x="99.72" y="-63.08" font-family="Helvetica,sans-Serif" font-size="10.00">3</text>
</a>
</g>
</g>
<!-- dir_8b7f97eedd9e6c5cc9cac680c60deb54&#45;&gt;dir_066e450fb9d99b92d5ff49ec5d3774e9 -->
<g id="edge3" class="edge">
<title>dir_8b7f97eedd9e6c5cc9cac680c60deb54&#45;&gt;dir_066e450fb9d99b92d5ff49ec5d3774e9</title>
<path fill="none" stroke="black" d="M118.1,-52.1C108.86,-60.89 96.49,-71.73 84.84,-81.31"/>
<polygon fill="black" stroke="black" points="82.51,-78.69 76.94,-87.7 86.92,-84.13 82.51,-78.69"/>
<g id="a_edge3&#45;headlabel"><a xlink:href="dir_000014_000013.html" target="_top" xlink:title="2">
<text text-anchor="middle" x="83.53" y="-71.72" font-family="Helvetica,sans-Serif" font-size="10.00">2</text>
</a>
</g>
</g>
</g>
</svg>
