<?xml version="1.0" encoding="UTF-8" standalone="no"?>
<!DOCTYPE svg PUBLIC "-//W3C//DTD SVG 1.1//EN"
 "http://www.w3.org/Graphics/SVG/1.1/DTD/svg11.dtd">
<!-- Generated by graphviz version 2.43.0 (0)
 -->
<!-- Title: Common/Utilities Pages: 1 -->
<svg width="96pt" height="151pt"
 viewBox="0.00 0.00 96.00 151.00" xmlns="http://www.w3.org/2000/svg" xmlns:xlink="http://www.w3.org/1999/xlink">
<g id="graph0" class="graph" transform="scale(1 1) rotate(0) translate(4 147)">
<title>Common/Utilities</title>
<polygon fill="white" stroke="transparent" points="-4,4 -4,-147 92,-147 92,4 -4,4"/>
<g id="clust1" class="cluster">
<title>clusterdir_4ab6b4cc6a7edbff49100e9123df213f</title>
<g id="a_clust1"><a xlink:href="dir_4ab6b4cc6a7edbff49100e9123df213f.html" target="_top" xlink:title="Common">
<polygon fill="#ddddee" stroke="black" points="8,-64 8,-135 80,-135 80,-64 8,-64"/>
<text text-anchor="middle" x="44" y="-123" font-family="Helvetica,sans-Serif" font-size="10.00">Common</text>
</a>
</g>
</g>
<!-- dir_8b7f97eedd9e6c5cc9cac680c60deb54 -->
<g id="node1" class="node">
<title>dir_8b7f97eedd9e6c5cc9cac680c60deb54</title>
<g id="a_node1"><a xlink:href="dir_8b7f97eedd9e6c5cc9cac680c60deb54.html" target="_top" xlink:title="Utilities">
<polygon fill="#eeeeff" stroke="black" points="71.5,-108 16.5,-108 16.5,-72 71.5,-72 71.5,-108"/>
<text text-anchor="middle" x="44" y="-87.5" font-family="Helvetica,sans-Serif" font-size="10.00">Utilities</text>
</a>
</g>
</g>
<!-- dir_066e450fb9d99b92d5ff49ec5d3774e9 -->
<g id="node2" class="node">
<title>dir_066e450fb9d99b92d5ff49ec5d3774e9</title>
<g id="a_node2"><a xlink:href="dir_066e450fb9d99b92d5ff49ec5d3774e9.html" target="_top" xlink:title="Network">
<polygon fill="none" stroke="black" points="73,-36 15,-36 15,0 73,0 73,-36"/>
<text text-anchor="middle" x="44" y="-15.5" font-family="Helvetica,sans-Serif" font-size="10.00">Network</text>
</a>
</g>
</g>
<!-- dir_8b7f97eedd9e6c5cc9cac680c60deb54&#45;&gt;dir_066e450fb9d99b92d5ff49ec5d3774e9 -->
<g id="edge2" class="edge">
<title>dir_8b7f97eedd9e6c5cc9cac680c60deb54&#45;&gt;dir_066e450fb9d99b92d5ff49ec5d3774e9</title>
<path fill="none" stroke="black" d="M38.08,-71.7C37.29,-63.98 37.06,-54.71 37.4,-46.11"/>
<polygon fill="black" stroke="black" points="40.9,-46.32 38.1,-36.1 33.92,-45.84 40.9,-46.32"/>
<g id="a_edge2&#45;headlabel"><a xlink:href="dir_000014_000013.html" target="_top" xlink:title="2">
<text text-anchor="middle" x="43.48" y="-47.61" font-family="Helvetica,sans-Serif" font-size="10.00">2</text>
</a>
</g>
</g>
<!-- dir_066e450fb9d99b92d5ff49ec5d3774e9&#45;&gt;dir_8b7f97eedd9e6c5cc9cac680c60deb54 -->
<g id="edge1" class="edge">
<title>dir_066e450fb9d99b92d5ff49ec5d3774e9&#45;&gt;dir_8b7f97eedd9e6c5cc9cac680c60deb54</title>
<path fill="none" stroke="black" d="M49.9,-36.1C50.7,-43.79 50.94,-53.05 50.6,-61.67"/>
<polygon fill="black" stroke="black" points="47.11,-61.48 49.92,-71.7 54.09,-61.96 47.11,-61.48"/>
<g id="a_edge1&#45;headlabel"><a xlink:href="dir_000013_000014.html" target="_top" xlink:title="3">
<text text-anchor="middle" x="44.52" y="-55.2" font-family="Helvetica,sans-Serif" font-size="10.00">3</text>
</a>
</g>
</g>
</g>
</svg>
