<?xml version="1.0" encoding="UTF-8" standalone="no"?>
<!DOCTYPE svg PUBLIC "-//W3C//DTD SVG 1.1//EN"
 "http://www.w3.org/Graphics/SVG/1.1/DTD/svg11.dtd">
<!-- Generated by graphviz version 2.43.0 (0)
 -->
<!-- Title: Server/src Pages: 1 -->
<svg width="119pt" height="303pt"
 viewBox="0.00 0.00 118.50 303.00" xmlns="http://www.w3.org/2000/svg" xmlns:xlink="http://www.w3.org/1999/xlink">
<g id="graph0" class="graph" transform="scale(1 1) rotate(0) translate(4 299)">
<title>Server/src</title>
<polygon fill="white" stroke="transparent" points="-4,4 -4,-299 114.5,-299 114.5,4 -4,4"/>
<g id="clust1" class="cluster">
<title>clusterdir_1a445cb237d74f7a5f8d11ec3b0585cc</title>
<g id="a_clust1"><a xlink:href="dir_1a445cb237d74f7a5f8d11ec3b0585cc.html" target="_top" xlink:title="Server">
<polygon fill="#ddddee" stroke="black" points="8,-56 8,-287 98,-287 98,-56 8,-56"/>
<text text-anchor="middle" x="53" y="-275" font-family="Helvetica,sans-Serif" font-size="10.00">Server</text>
</a>
</g>
</g>
<g id="clust2" class="cluster">
<title>clusterdir_e21a975877c3b6a07268dea683df1add</title>
<g id="a_clust2"><a xlink:href="dir_e21a975877c3b6a07268dea683df1add.html" target="_top">
<polygon fill="#eeeeff" stroke="black" points="16,-64 16,-260 90,-260 90,-64 16,-64"/>
</a>
</g>
</g>
<!-- dir_e21a975877c3b6a07268dea683df1add -->
<g id="node1" class="node">
<title>dir_e21a975877c3b6a07268dea683df1add</title>
<text text-anchor="middle" x="53" y="-231.5" font-family="Helvetica,sans-Serif" font-size="10.00">src</text>
</g>
<!-- dir_fd11d887081bfa2dc4e5837411275801 -->
<g id="node2" class="node">
<title>dir_fd11d887081bfa2dc4e5837411275801</title>
<g id="a_node2"><a xlink:href="dir_fd11d887081bfa2dc4e5837411275801.html" target="_top" xlink:title="Network">
<polygon fill="white" stroke="black" points="82,-180 24,-180 24,-144 82,-144 82,-180"/>
<text text-anchor="middle" x="53" y="-159.5" font-family="Helvetica,sans-Serif" font-size="10.00">Network</text>
</a>
</g>
</g>
<!-- dir_e21a975877c3b6a07268dea683df1add&#45;&gt;dir_fd11d887081bfa2dc4e5837411275801 -->
<g id="edge3" class="edge">
<title>dir_e21a975877c3b6a07268dea683df1add&#45;&gt;dir_fd11d887081bfa2dc4e5837411275801</title>
<path fill="none" stroke="black" d="M53,-215.7C53,-207.98 53,-198.71 53,-190.11"/>
<polygon fill="black" stroke="black" points="56.5,-190.1 53,-180.1 49.5,-190.1 56.5,-190.1"/>
<g id="a_edge3&#45;headlabel"><a xlink:href="dir_000005_000016.html" target="_top" xlink:title="1">
<text text-anchor="middle" x="59.34" y="-191.2" font-family="Helvetica,sans-Serif" font-size="10.00">1</text>
</a>
</g>
</g>
<!-- dir_58b8768debf90dbb062b87531ae1468e -->
<g id="node3" class="node">
<title>dir_58b8768debf90dbb062b87531ae1468e</title>
<g id="a_node3"><a xlink:href="dir_58b8768debf90dbb062b87531ae1468e.html" target="_top" xlink:title="Utilities">
<polygon fill="white" stroke="black" points="79.5,-108 24.5,-108 24.5,-72 79.5,-72 79.5,-108"/>
<text text-anchor="middle" x="52" y="-87.5" font-family="Helvetica,sans-Serif" font-size="10.00">Utilities</text>
</a>
</g>
</g>
<!-- dir_fd11d887081bfa2dc4e5837411275801&#45;&gt;dir_58b8768debf90dbb062b87531ae1468e -->
<g id="edge2" class="edge">
<title>dir_fd11d887081bfa2dc4e5837411275801&#45;&gt;dir_58b8768debf90dbb062b87531ae1468e</title>
<path fill="none" stroke="black" d="M52.75,-143.7C52.64,-135.98 52.51,-126.71 52.39,-118.11"/>
<polygon fill="black" stroke="black" points="55.89,-118.05 52.24,-108.1 48.89,-118.15 55.89,-118.05"/>
<g id="a_edge2&#45;headlabel"><a xlink:href="dir_000016_000017.html" target="_top" xlink:title="1">
<text text-anchor="middle" x="58.78" y="-119.11" font-family="Helvetica,sans-Serif" font-size="10.00">1</text>
</a>
</g>
</g>
<!-- dir_4ab6b4cc6a7edbff49100e9123df213f -->
<g id="node4" class="node">
<title>dir_4ab6b4cc6a7edbff49100e9123df213f</title>
<g id="a_node4"><a xlink:href="dir_4ab6b4cc6a7edbff49100e9123df213f.html" target="_top" xlink:title="Common">
<polygon fill="white" stroke="red" points="110.5,-36 49.5,-36 49.5,0 110.5,0 110.5,-36"/>
<text text-anchor="middle" x="80" y="-15.5" font-family="Helvetica,sans-Serif" font-size="10.00">Common</text>
</a>
</g>
</g>
<!-- dir_fd11d887081bfa2dc4e5837411275801&#45;&gt;dir_4ab6b4cc6a7edbff49100e9123df213f -->
<g id="edge1" class="edge">
<title>dir_fd11d887081bfa2dc4e5837411275801&#45;&gt;dir_4ab6b4cc6a7edbff49100e9123df213f</title>
<path fill="none" stroke="black" d="M68.61,-143.77C76.37,-134.03 84.95,-121.18 89,-108 95.22,-87.77 92.27,-63.87 88.15,-45.92"/>
<polygon fill="black" stroke="black" points="91.51,-44.95 85.65,-36.12 84.73,-46.68 91.51,-44.95"/>
<g id="a_edge1&#45;headlabel"><a xlink:href="dir_000016_000011.html" target="_top" xlink:title="10">
<text text-anchor="middle" x="95.15" y="-45.23" font-family="Helvetica,sans-Serif" font-size="10.00">10</text>
</a>
</g>
</g>
<!-- dir_58b8768debf90dbb062b87531ae1468e&#45;&gt;dir_4ab6b4cc6a7edbff49100e9123df213f -->
<g id="edge4" class="edge">
<title>dir_58b8768debf90dbb062b87531ae1468e&#45;&gt;dir_4ab6b4cc6a7edbff49100e9123df213f</title>
<path fill="none" stroke="black" d="M58.92,-71.7C62.07,-63.81 65.88,-54.3 69.38,-45.55"/>
<polygon fill="black" stroke="black" points="72.69,-46.69 73.16,-36.1 66.19,-44.09 72.69,-46.69"/>
<g id="a_edge4&#45;headlabel"><a xlink:href="dir_000017_000011.html" target="_top" xlink:title="3">
<text text-anchor="middle" x="74" y="-48.58" font-family="Helvetica,sans-Serif" font-size="10.00">3</text>
</a>
</g>
</g>
</g>
</svg>
