<?xml version="1.0" encoding="UTF-8" standalone="no"?>
<!DOCTYPE svg PUBLIC "-//W3C//DTD SVG 1.1//EN"
 "http://www.w3.org/Graphics/SVG/1.1/DTD/svg11.dtd">
<!-- Generated by graphviz version 2.43.0 (0)
 -->
<!-- Title: Server/tests Pages: 1 -->
<svg width="266pt" height="231pt"
 viewBox="0.00 0.00 266.00 231.00" xmlns="http://www.w3.org/2000/svg" xmlns:xlink="http://www.w3.org/1999/xlink">
<g id="graph0" class="graph" transform="scale(1 1) rotate(0) translate(4 227)">
<title>Server/tests</title>
<polygon fill="white" stroke="transparent" points="-4,4 -4,-227 262,-227 262,4 -4,4"/>
<g id="clust1" class="cluster">
<title>clusterdir_1a445cb237d74f7a5f8d11ec3b0585cc</title>
<g id="a_clust1"><a xlink:href="dir_1a445cb237d74f7a5f8d11ec3b0585cc.html" target="_top" xlink:title="Server">
<polygon fill="#ddddee" stroke="black" points="8,-128 8,-215 250,-215 250,-128 8,-128"/>
<text text-anchor="middle" x="129" y="-203" font-family="Helvetica,sans-Serif" font-size="10.00">Server</text>
</a>
</g>
</g>
<g id="clust2" class="cluster">
<title>clusterdir_77995404301d053134606dd88585fa19</title>
<g id="a_clust2"><a xlink:href="dir_77995404301d053134606dd88585fa19.html" target="_top">
<polygon fill="#eeeeff" stroke="black" points="16,-136 16,-188 242,-188 242,-136 16,-136"/>
</a>
</g>
</g>
<!-- dir_77995404301d053134606dd88585fa19 -->
<g id="node1" class="node">
<title>dir_77995404301d053134606dd88585fa19</title>
<text text-anchor="middle" x="207" y="-159.5" font-family="Helvetica,sans-Serif" font-size="10.00">tests</text>
</g>
<!-- dir_33144f67dd0f4d912515d1ced31f4155 -->
<g id="node2" class="node">
<title>dir_33144f67dd0f4d912515d1ced31f4155</title>
<g id="a_node2"><a xlink:href="dir_33144f67dd0f4d912515d1ced31f4155.html" target="_top" xlink:title="Common">
<polygon fill="white" stroke="black" points="85.5,-180 24.5,-180 24.5,-144 85.5,-144 85.5,-180"/>
<text text-anchor="middle" x="55" y="-159.5" font-family="Helvetica,sans-Serif" font-size="10.00">Common</text>
</a>
</g>
</g>
<!-- dir_4ab6b4cc6a7edbff49100e9123df213f -->
<g id="node5" class="node">
<title>dir_4ab6b4cc6a7edbff49100e9123df213f</title>
<g id="a_node5"><a xlink:href="dir_4ab6b4cc6a7edbff49100e9123df213f.html" target="_top" xlink:title="Common">
<polygon fill="white" stroke="red" points="140.5,-36 79.5,-36 79.5,0 140.5,0 140.5,-36"/>
<text text-anchor="middle" x="110" y="-15.5" font-family="Helvetica,sans-Serif" font-size="10.00">Common</text>
</a>
</g>
</g>
<!-- dir_33144f67dd0f4d912515d1ced31f4155&#45;&gt;dir_4ab6b4cc6a7edbff49100e9123df213f -->
<g id="edge4" class="edge">
<title>dir_33144f67dd0f4d912515d1ced31f4155&#45;&gt;dir_4ab6b4cc6a7edbff49100e9123df213f</title>
<path fill="none" stroke="black" d="M56.7,-143.67C58.95,-125.29 63.89,-95.69 74,-72 78.08,-62.43 83.99,-52.78 89.84,-44.39"/>
<polygon fill="black" stroke="black" points="92.78,-46.29 95.84,-36.15 87.12,-42.17 92.78,-46.29"/>
<g id="a_edge4&#45;headlabel"><a xlink:href="dir_000018_000011.html" target="_top" xlink:title="2">
<text text-anchor="middle" x="92.96" y="-48.37" font-family="Helvetica,sans-Serif" font-size="10.00">2</text>
</a>
</g>
</g>
<!-- dir_891b2f1b2cb810fdc7f854802fdeecd0 -->
<g id="node3" class="node">
<title>dir_891b2f1b2cb810fdc7f854802fdeecd0</title>
<g id="a_node3"><a xlink:href="dir_891b2f1b2cb810fdc7f854802fdeecd0.html" target="_top" xlink:title="Network">
<polygon fill="white" stroke="black" points="162,-180 104,-180 104,-144 162,-144 162,-180"/>
<text text-anchor="middle" x="133" y="-159.5" font-family="Helvetica,sans-Serif" font-size="10.00">Network</text>
</a>
</g>
</g>
<!-- dir_e21a975877c3b6a07268dea683df1add -->
<g id="node4" class="node">
<title>dir_e21a975877c3b6a07268dea683df1add</title>
<g id="a_node4"><a xlink:href="dir_e21a975877c3b6a07268dea683df1add.html" target="_top" xlink:title="src">
<polygon fill="white" stroke="red" points="137,-108 83,-108 83,-72 137,-72 137,-108"/>
<text text-anchor="middle" x="110" y="-87.5" font-family="Helvetica,sans-Serif" font-size="10.00">src</text>
</a>
</g>
</g>
<!-- dir_891b2f1b2cb810fdc7f854802fdeecd0&#45;&gt;dir_e21a975877c3b6a07268dea683df1add -->
<g id="edge2" class="edge">
<title>dir_891b2f1b2cb810fdc7f854802fdeecd0&#45;&gt;dir_e21a975877c3b6a07268dea683df1add</title>
<path fill="none" stroke="black" d="M127.31,-143.7C124.75,-135.9 121.67,-126.51 118.82,-117.83"/>
<polygon fill="black" stroke="black" points="122.07,-116.51 115.62,-108.1 115.42,-118.7 122.07,-116.51"/>
<g id="a_edge2&#45;headlabel"><a xlink:href="dir_000019_000005.html" target="_top" xlink:title="1">
<text text-anchor="middle" x="125.89" y="-116.54" font-family="Helvetica,sans-Serif" font-size="10.00">1</text>
</a>
</g>
</g>
<!-- dir_891b2f1b2cb810fdc7f854802fdeecd0&#45;&gt;dir_4ab6b4cc6a7edbff49100e9123df213f -->
<g id="edge3" class="edge">
<title>dir_891b2f1b2cb810fdc7f854802fdeecd0&#45;&gt;dir_4ab6b4cc6a7edbff49100e9123df213f</title>
<path fill="none" stroke="black" d="M139.86,-143.93C146.17,-125.76 153.48,-96.33 146,-72 142.99,-62.22 137.49,-52.62 131.68,-44.33"/>
<polygon fill="black" stroke="black" points="134.41,-42.13 125.61,-36.23 128.81,-46.33 134.41,-42.13"/>
<g id="a_edge3&#45;headlabel"><a xlink:href="dir_000019_000011.html" target="_top" xlink:title="2">
<text text-anchor="middle" x="138.83" y="-40.8" font-family="Helvetica,sans-Serif" font-size="10.00">2</text>
</a>
</g>
</g>
<!-- dir_e21a975877c3b6a07268dea683df1add&#45;&gt;dir_4ab6b4cc6a7edbff49100e9123df213f -->
<g id="edge1" class="edge">
<title>dir_e21a975877c3b6a07268dea683df1add&#45;&gt;dir_4ab6b4cc6a7edbff49100e9123df213f</title>
<path fill="none" stroke="black" d="M110,-71.7C110,-63.98 110,-54.71 110,-46.11"/>
<polygon fill="black" stroke="black" points="113.5,-46.1 110,-36.1 106.5,-46.1 113.5,-46.1"/>
<g id="a_edge1&#45;headlabel"><a xlink:href="dir_000005_000011.html" target="_top" xlink:title="17">
<text text-anchor="middle" x="116.34" y="-47.2" font-family="Helvetica,sans-Serif" font-size="10.00">17</text>
</a>
</g>
</g>
</g>
</svg>
