<?xml version="1.0" encoding="UTF-8" standalone="no"?>
<!DOCTYPE svg PUBLIC "-//W3C//DTD SVG 1.1//EN"
 "http://www.w3.org/Graphics/SVG/1.1/DTD/svg11.dtd">
<!-- Generated by graphviz version 2.43.0 (0)
 -->
<!-- Title: Client Pages: 1 -->
<svg width="238pt" height="132pt"
 viewBox="0.00 0.00 238.00 132.00" xmlns="http://www.w3.org/2000/svg" xmlns:xlink="http://www.w3.org/1999/xlink">
<g id="graph0" class="graph" transform="scale(1 1) rotate(0) translate(4 128)">
<title>Client</title>
<polygon fill="white" stroke="transparent" points="-4,4 -4,-128 234,-128 234,4 -4,4"/>
<g id="clust1" class="cluster">
<title>clusterdir_922c588100a187620fdc1533bc178f73</title>
<g id="a_clust1"><a xlink:href="dir_922c588100a187620fdc1533bc178f73.html" target="_top">
<polygon fill="#eeeeff" stroke="black" points="8,-64 8,-116 222,-116 222,-64 8,-64"/>
</a>
</g>
</g>
<!-- dir_922c588100a187620fdc1533bc178f73 -->
<g id="node1" class="node">
<title>dir_922c588100a187620fdc1533bc178f73</title>
<text text-anchor="middle" x="187" y="-87.5" font-family="Helvetica,sans-Serif" font-size="10.00">Client</text>
</g>
<!-- dir_71db3c9ac669ad0e48d6cd88f7e1e924 -->
<g id="node2" class="node">
<title>dir_71db3c9ac669ad0e48d6cd88f7e1e924</title>
<g id="a_node2"><a xlink:href="dir_71db3c9ac669ad0e48d6cd88f7e1e924.html" target="_top" xlink:title="src">
<polygon fill="white" stroke="red" points="142,-108 88,-108 88,-72 142,-72 142,-108"/>
<text text-anchor="middle" x="115" y="-87.5" font-family="Helvetica,sans-Serif" font-size="10.00">src</text>
</a>
</g>
</g>
<!-- dir_4ab6b4cc6a7edbff49100e9123df213f -->
<g id="node4" class="node">
<title>dir_4ab6b4cc6a7edbff49100e9123df213f</title>
<g id="a_node4"><a xlink:href="dir_4ab6b4cc6a7edbff49100e9123df213f.html" target="_top" xlink:title="Common">
<polygon fill="white" stroke="red" points="145.5,-36 84.5,-36 84.5,0 145.5,0 145.5,-36"/>
<text text-anchor="middle" x="115" y="-15.5" font-family="Helvetica,sans-Serif" font-size="10.00">Common</text>
</a>
</g>
</g>
<!-- dir_71db3c9ac669ad0e48d6cd88f7e1e924&#45;&gt;dir_4ab6b4cc6a7edbff49100e9123df213f -->
<g id="edge1" class="edge">
<title>dir_71db3c9ac669ad0e48d6cd88f7e1e924&#45;&gt;dir_4ab6b4cc6a7edbff49100e9123df213f</title>
<path fill="none" stroke="black" d="M115,-71.7C115,-63.98 115,-54.71 115,-46.11"/>
<polygon fill="black" stroke="black" points="118.5,-46.1 115,-36.1 111.5,-46.1 118.5,-46.1"/>
<g id="a_edge1&#45;headlabel"><a xlink:href="dir_000002_000011.html" target="_top" xlink:title="10">
<text text-anchor="middle" x="121.34" y="-47.2" font-family="Helvetica,sans-Serif" font-size="10.00">10</text>
</a>
</g>
</g>
<!-- dir_2f96e578579170faea45a6b5aa610e72 -->
<g id="node3" class="node">
<title>dir_2f96e578579170faea45a6b5aa610e72</title>
<g id="a_node3"><a xlink:href="dir_2f96e578579170faea45a6b5aa610e72.html" target="_top" xlink:title="tests">
<polygon fill="white" stroke="black" points="70,-108 16,-108 16,-72 70,-72 70,-108"/>
<text text-anchor="middle" x="43" y="-87.5" font-family="Helvetica,sans-Serif" font-size="10.00">tests</text>
</a>
</g>
</g>
</g>
</svg>
