<?xml version="1.0" encoding="UTF-8" standalone="no"?>
<!DOCTYPE svg PUBLIC "-//W3C//DTD SVG 1.1//EN"
 "http://www.w3.org/Graphics/SVG/1.1/DTD/svg11.dtd">
<!-- Generated by graphviz version 2.43.0 (0)
 -->
<!-- Title: Server/src/Network Pages: 1 -->
<svg width="109pt" height="223pt"
 viewBox="0.00 0.00 108.50 223.00" xmlns="http://www.w3.org/2000/svg" xmlns:xlink="http://www.w3.org/1999/xlink">
<g id="graph0" class="graph" transform="scale(1 1) rotate(0) translate(4 219)">
<title>Server/src/Network</title>
<polygon fill="white" stroke="transparent" points="-4,4 -4,-219 104.5,-219 104.5,4 -4,4"/>
<g id="clust1" class="cluster">
<title>clusterdir_e21a975877c3b6a07268dea683df1add</title>
<g id="a_clust1"><a xlink:href="dir_e21a975877c3b6a07268dea683df1add.html" target="_top" xlink:title="src">
<polygon fill="#ddddee" stroke="black" points="8,-136 8,-207 82,-207 82,-136 8,-136"/>
<text text-anchor="middle" x="45" y="-195" font-family="Helvetica,sans-Serif" font-size="10.00">src</text>
</a>
</g>
</g>
<!-- dir_fd11d887081bfa2dc4e5837411275801 -->
<g id="node1" class="node">
<title>dir_fd11d887081bfa2dc4e5837411275801</title>
<g id="a_node1"><a xlink:href="dir_fd11d887081bfa2dc4e5837411275801.html" target="_top" xlink:title="Network">
<polygon fill="#eeeeff" stroke="black" points="74,-180 16,-180 16,-144 74,-144 74,-180"/>
<text text-anchor="middle" x="45" y="-159.5" font-family="Helvetica,sans-Serif" font-size="10.00">Network</text>
</a>
</g>
</g>
<!-- dir_4ab6b4cc6a7edbff49100e9123df213f -->
<g id="node2" class="node">
<title>dir_4ab6b4cc6a7edbff49100e9123df213f</title>
<g id="a_node2"><a xlink:href="dir_4ab6b4cc6a7edbff49100e9123df213f.html" target="_top" xlink:title="Common">
<polygon fill="white" stroke="red" points="75.5,-36 14.5,-36 14.5,0 75.5,0 75.5,-36"/>
<text text-anchor="middle" x="45" y="-15.5" font-family="Helvetica,sans-Serif" font-size="10.00">Common</text>
</a>
</g>
</g>
<!-- dir_fd11d887081bfa2dc4e5837411275801&#45;&gt;dir_4ab6b4cc6a7edbff49100e9123df213f -->
<g id="edge1" class="edge">
<title>dir_fd11d887081bfa2dc4e5837411275801&#45;&gt;dir_4ab6b4cc6a7edbff49100e9123df213f</title>
<path fill="none" stroke="black" d="M41.75,-143.89C39.95,-133.54 37.91,-120.06 37,-108 35.8,-92.04 35.8,-87.96 37,-72 37.64,-63.52 38.84,-54.34 40.12,-46.04"/>
<polygon fill="black" stroke="black" points="43.58,-46.55 41.75,-36.11 36.68,-45.41 43.58,-46.55"/>
<g id="a_edge1&#45;headlabel"><a xlink:href="dir_000016_000011.html" target="_top" xlink:title="10">
<text text-anchor="middle" x="45.8" y="-48.05" font-family="Helvetica,sans-Serif" font-size="10.00">10</text>
</a>
</g>
</g>
<!-- dir_58b8768debf90dbb062b87531ae1468e -->
<g id="node3" class="node">
<title>dir_58b8768debf90dbb062b87531ae1468e</title>
<g id="a_node3"><a xlink:href="dir_58b8768debf90dbb062b87531ae1468e.html" target="_top" xlink:title="Utilities">
<polygon fill="none" stroke="black" points="100.5,-108 45.5,-108 45.5,-72 100.5,-72 100.5,-108"/>
<text text-anchor="middle" x="73" y="-87.5" font-family="Helvetica,sans-Serif" font-size="10.00">Utilities</text>
</a>
</g>
</g>
<!-- dir_fd11d887081bfa2dc4e5837411275801&#45;&gt;dir_58b8768debf90dbb062b87531ae1468e -->
<g id="edge2" class="edge">
<title>dir_fd11d887081bfa2dc4e5837411275801&#45;&gt;dir_58b8768debf90dbb062b87531ae1468e</title>
<path fill="none" stroke="black" d="M51.92,-143.7C55.07,-135.81 58.88,-126.3 62.38,-117.55"/>
<polygon fill="black" stroke="black" points="65.69,-118.69 66.16,-108.1 59.19,-116.09 65.69,-118.69"/>
<g id="a_edge2&#45;headlabel"><a xlink:href="dir_000016_000017.html" target="_top" xlink:title="1">
<text text-anchor="middle" x="67" y="-120.58" font-family="Helvetica,sans-Serif" font-size="10.00">1</text>
</a>
</g>
</g>
<!-- dir_58b8768debf90dbb062b87531ae1468e&#45;&gt;dir_4ab6b4cc6a7edbff49100e9123df213f -->
<g id="edge3" class="edge">
<title>dir_58b8768debf90dbb062b87531ae1468e&#45;&gt;dir_4ab6b4cc6a7edbff49100e9123df213f</title>
<path fill="none" stroke="black" d="M66.08,-71.7C62.93,-63.81 59.12,-54.3 55.62,-45.55"/>
<polygon fill="black" stroke="black" points="58.81,-44.09 51.84,-36.1 52.31,-46.69 58.81,-44.09"/>
<g id="a_edge3&#45;headlabel"><a xlink:href="dir_000017_000011.html" target="_top" xlink:title="3">
<text text-anchor="middle" x="62.78" y="-43.87" font-family="Helvetica,sans-Serif" font-size="10.00">3</text>
</a>
</g>
</g>
</g>
</svg>
