<?xml version="1.0" encoding="UTF-8" standalone="no"?>
<!DOCTYPE svg PUBLIC "-//W3C//DTD SVG 1.1//EN"
 "http://www.w3.org/Graphics/SVG/1.1/DTD/svg11.dtd">
<!-- Generated by graphviz version 2.43.0 (0)
 -->
<!-- Title: Server Pages: 1 -->
<svg width="166pt" height="204pt"
 viewBox="0.00 0.00 166.00 204.00" xmlns="http://www.w3.org/2000/svg" xmlns:xlink="http://www.w3.org/1999/xlink">
<g id="graph0" class="graph" transform="scale(1 1) rotate(0) translate(4 200)">
<title>Server</title>
<polygon fill="white" stroke="transparent" points="-4,4 -4,-200 162,-200 162,4 -4,4"/>
<g id="clust1" class="cluster">
<title>clusterdir_1a445cb237d74f7a5f8d11ec3b0585cc</title>
<g id="a_clust1"><a xlink:href="dir_1a445cb237d74f7a5f8d11ec3b0585cc.html" target="_top">
<polygon fill="#eeeeff" stroke="black" points="8,-64 8,-188 150,-188 150,-64 8,-64"/>
</a>
</g>
</g>
<!-- dir_1a445cb237d74f7a5f8d11ec3b0585cc -->
<g id="node1" class="node">
<title>dir_1a445cb237d74f7a5f8d11ec3b0585cc</title>
<text text-anchor="middle" x="115" y="-159.5" font-family="Helvetica,sans-Serif" font-size="10.00">Server</text>
</g>
<!-- dir_e21a975877c3b6a07268dea683df1add -->
<g id="node2" class="node">
<title>dir_e21a975877c3b6a07268dea683df1add</title>
<g id="a_node2"><a xlink:href="dir_e21a975877c3b6a07268dea683df1add.html" target="_top" xlink:title="src">
<polygon fill="white" stroke="red" points="70,-108 16,-108 16,-72 70,-72 70,-108"/>
<text text-anchor="middle" x="43" y="-87.5" font-family="Helvetica,sans-Serif" font-size="10.00">src</text>
</a>
</g>
</g>
<!-- dir_4ab6b4cc6a7edbff49100e9123df213f -->
<g id="node4" class="node">
<title>dir_4ab6b4cc6a7edbff49100e9123df213f</title>
<g id="a_node4"><a xlink:href="dir_4ab6b4cc6a7edbff49100e9123df213f.html" target="_top" xlink:title="Common">
<polygon fill="white" stroke="red" points="100.5,-36 39.5,-36 39.5,0 100.5,0 100.5,-36"/>
<text text-anchor="middle" x="70" y="-15.5" font-family="Helvetica,sans-Serif" font-size="10.00">Common</text>
</a>
</g>
</g>
<!-- dir_e21a975877c3b6a07268dea683df1add&#45;&gt;dir_4ab6b4cc6a7edbff49100e9123df213f -->
<g id="edge3" class="edge">
<title>dir_e21a975877c3b6a07268dea683df1add&#45;&gt;dir_4ab6b4cc6a7edbff49100e9123df213f</title>
<path fill="none" stroke="black" d="M49.67,-71.7C52.71,-63.81 56.38,-54.3 59.76,-45.55"/>
<polygon fill="black" stroke="black" points="63.07,-46.69 63.4,-36.1 56.54,-44.17 63.07,-46.69"/>
<g id="a_edge3&#45;headlabel"><a xlink:href="dir_000005_000011.html" target="_top" xlink:title="17">
<text text-anchor="middle" x="64.42" y="-48.57" font-family="Helvetica,sans-Serif" font-size="10.00">17</text>
</a>
</g>
</g>
<!-- dir_77995404301d053134606dd88585fa19 -->
<g id="node3" class="node">
<title>dir_77995404301d053134606dd88585fa19</title>
<g id="a_node3"><a xlink:href="dir_77995404301d053134606dd88585fa19.html" target="_top" xlink:title="tests">
<polygon fill="white" stroke="red" points="70,-180 16,-180 16,-144 70,-144 70,-180"/>
<text text-anchor="middle" x="43" y="-159.5" font-family="Helvetica,sans-Serif" font-size="10.00">tests</text>
</a>
</g>
</g>
<!-- dir_77995404301d053134606dd88585fa19&#45;&gt;dir_e21a975877c3b6a07268dea683df1add -->
<g id="edge1" class="edge">
<title>dir_77995404301d053134606dd88585fa19&#45;&gt;dir_e21a975877c3b6a07268dea683df1add</title>
<path fill="none" stroke="black" d="M43,-143.7C43,-135.98 43,-126.71 43,-118.11"/>
<polygon fill="black" stroke="black" points="46.5,-118.1 43,-108.1 39.5,-118.1 46.5,-118.1"/>
<g id="a_edge1&#45;headlabel"><a xlink:href="dir_000010_000005.html" target="_top" xlink:title="1">
<text text-anchor="middle" x="49.34" y="-119.2" font-family="Helvetica,sans-Serif" font-size="10.00">1</text>
</a>
</g>
</g>
<!-- dir_77995404301d053134606dd88585fa19&#45;&gt;dir_4ab6b4cc6a7edbff49100e9123df213f -->
<g id="edge2" class="edge">
<title>dir_77995404301d053134606dd88585fa19&#45;&gt;dir_4ab6b4cc6a7edbff49100e9123df213f</title>
<path fill="none" stroke="black" d="M58.61,-143.77C66.37,-134.03 74.95,-121.18 79,-108 85.22,-87.77 82.27,-63.87 78.15,-45.92"/>
<polygon fill="black" stroke="black" points="81.51,-44.95 75.65,-36.12 74.73,-46.68 81.51,-44.95"/>
<g id="a_edge2&#45;headlabel"><a xlink:href="dir_000010_000011.html" target="_top" xlink:title="4">
<text text-anchor="middle" x="85.15" y="-45.23" font-family="Helvetica,sans-Serif" font-size="10.00">4</text>
</a>
</g>
</g>
</g>
</svg>
