<?xml version="1.0" encoding="UTF-8" standalone="no"?>
<!DOCTYPE svg PUBLIC "-//W3C//DTD SVG 1.1//EN"
 "http://www.w3.org/Graphics/SVG/1.1/DTD/svg11.dtd">
<!-- Generated by graphviz version 2.43.0 (0)
 -->
<!-- Title: Common/Network Pages: 1 -->
<svg width="152pt" height="151pt"
 viewBox="0.00 0.00 151.50 151.00" xmlns="http://www.w3.org/2000/svg" xmlns:xlink="http://www.w3.org/1999/xlink">
<g id="graph0" class="graph" transform="scale(1 1) rotate(0) translate(4 147)">
<title>Common/Network</title>
<polygon fill="white" stroke="transparent" points="-4,4 -4,-147 147.5,-147 147.5,4 -4,4"/>
<g id="clust1" class="cluster">
<title>clusterdir_4ab6b4cc6a7edbff49100e9123df213f</title>
<g id="a_clust1"><a xlink:href="dir_4ab6b4cc6a7edbff49100e9123df213f.html" target="_top" xlink:title="Common">
<polygon fill="#ddddee" stroke="black" points="38,-64 38,-135 112,-135 112,-64 38,-64"/>
<text text-anchor="middle" x="75" y="-123" font-family="Helvetica,sans-Serif" font-size="10.00">Common</text>
</a>
</g>
</g>
<!-- dir_066e450fb9d99b92d5ff49ec5d3774e9 -->
<g id="node1" class="node">
<title>dir_066e450fb9d99b92d5ff49ec5d3774e9</title>
<g id="a_node1"><a xlink:href="dir_066e450fb9d99b92d5ff49ec5d3774e9.html" target="_top" xlink:title="Network">
<polygon fill="#eeeeff" stroke="black" points="104,-108 46,-108 46,-72 104,-72 104,-108"/>
<text text-anchor="middle" x="75" y="-87.5" font-family="Helvetica,sans-Serif" font-size="10.00">Network</text>
</a>
</g>
</g>
<!-- dir_bb149bbd1f8de3f197d923bd567d5435 -->
<g id="node2" class="node">
<title>dir_bb149bbd1f8de3f197d923bd567d5435</title>
<g id="a_node2"><a xlink:href="dir_bb149bbd1f8de3f197d923bd567d5435.html" target="_top" xlink:title="Exceptions">
<polygon fill="none" stroke="black" points="70,-36 0,-36 0,0 70,0 70,-36"/>
<text text-anchor="middle" x="35" y="-15.5" font-family="Helvetica,sans-Serif" font-size="10.00">Exceptions</text>
</a>
</g>
</g>
<!-- dir_066e450fb9d99b92d5ff49ec5d3774e9&#45;&gt;dir_bb149bbd1f8de3f197d923bd567d5435 -->
<g id="edge1" class="edge">
<title>dir_066e450fb9d99b92d5ff49ec5d3774e9&#45;&gt;dir_bb149bbd1f8de3f197d923bd567d5435</title>
<path fill="none" stroke="black" d="M65.11,-71.7C60.51,-63.64 54.94,-53.89 49.85,-44.98"/>
<polygon fill="black" stroke="black" points="52.77,-43.05 44.77,-36.1 46.7,-46.52 52.77,-43.05"/>
<g id="a_edge1&#45;headlabel"><a xlink:href="dir_000013_000012.html" target="_top" xlink:title="1">
<text text-anchor="middle" x="57.02" y="-42.26" font-family="Helvetica,sans-Serif" font-size="10.00">1</text>
</a>
</g>
</g>
<!-- dir_8b7f97eedd9e6c5cc9cac680c60deb54 -->
<g id="node3" class="node">
<title>dir_8b7f97eedd9e6c5cc9cac680c60deb54</title>
<g id="a_node3"><a xlink:href="dir_8b7f97eedd9e6c5cc9cac680c60deb54.html" target="_top" xlink:title="Utilities">
<polygon fill="none" stroke="black" points="143.5,-36 88.5,-36 88.5,0 143.5,0 143.5,-36"/>
<text text-anchor="middle" x="116" y="-15.5" font-family="Helvetica,sans-Serif" font-size="10.00">Utilities</text>
</a>
</g>
</g>
<!-- dir_066e450fb9d99b92d5ff49ec5d3774e9&#45;&gt;dir_8b7f97eedd9e6c5cc9cac680c60deb54 -->
<g id="edge2" class="edge">
<title>dir_066e450fb9d99b92d5ff49ec5d3774e9&#45;&gt;dir_8b7f97eedd9e6c5cc9cac680c60deb54</title>
<path fill="none" stroke="black" d="M79.22,-71.7C83.15,-63.56 88.72,-53.69 94.41,-44.7"/>
<polygon fill="black" stroke="black" points="97.5,-46.38 100.09,-36.1 91.66,-42.52 97.5,-46.38"/>
<g id="a_edge2&#45;headlabel"><a xlink:href="dir_000013_000014.html" target="_top" xlink:title="3">
<text text-anchor="middle" x="97.89" y="-48.44" font-family="Helvetica,sans-Serif" font-size="10.00">3</text>
</a>
</g>
</g>
<!-- dir_8b7f97eedd9e6c5cc9cac680c60deb54&#45;&gt;dir_066e450fb9d99b92d5ff49ec5d3774e9 -->
<g id="edge3" class="edge">
<title>dir_8b7f97eedd9e6c5cc9cac680c60deb54&#45;&gt;dir_066e450fb9d99b92d5ff49ec5d3774e9</title>
<path fill="none" stroke="black" d="M111.88,-36.1C107.98,-44.21 102.42,-54.08 96.73,-63.08"/>
<polygon fill="black" stroke="black" points="93.63,-61.42 91.05,-71.7 99.47,-65.27 93.63,-61.42"/>
<g id="a_edge3&#45;headlabel"><a xlink:href="dir_000014_000013.html" target="_top" xlink:title="2">
<text text-anchor="middle" x="93.23" y="-54.36" font-family="Helvetica,sans-Serif" font-size="10.00">2</text>
</a>
</g>
</g>
</g>
</svg>
