<?xml version="1.0" encoding="UTF-8" standalone="no"?>
<!DOCTYPE svg PUBLIC "-//W3C//DTD SVG 1.1//EN"
 "http://www.w3.org/Graphics/SVG/1.1/DTD/svg11.dtd">
<!-- Generated by graphviz version 2.43.0 (0)
 -->
<!-- Title: Client/src Pages: 1 -->
<svg width="186pt" height="375pt"
 viewBox="0.00 0.00 186.00 375.00" xmlns="http://www.w3.org/2000/svg" xmlns:xlink="http://www.w3.org/1999/xlink">
<g id="graph0" class="graph" transform="scale(1 1) rotate(0) translate(4 371)">
<title>Client/src</title>
<polygon fill="white" stroke="transparent" points="-4,4 -4,-371 182,-371 182,4 -4,4"/>
<g id="clust1" class="cluster">
<title>clusterdir_922c588100a187620fdc1533bc178f73</title>
<g id="a_clust1"><a xlink:href="dir_922c588100a187620fdc1533bc178f73.html" target="_top" xlink:title="Client">
<polygon fill="#ddddee" stroke="black" points="8,-56 8,-359 170,-359 170,-56 8,-56"/>
<text text-anchor="middle" x="89" y="-347" font-family="Helvetica,sans-Serif" font-size="10.00">Client</text>
</a>
</g>
</g>
<g id="clust2" class="cluster">
<title>clusterdir_71db3c9ac669ad0e48d6cd88f7e1e924</title>
<g id="a_clust2"><a xlink:href="dir_71db3c9ac669ad0e48d6cd88f7e1e924.html" target="_top">
<polygon fill="#eeeeff" stroke="black" points="16,-64 16,-332 162,-332 162,-64 16,-64"/>
</a>
</g>
</g>
<!-- dir_71db3c9ac669ad0e48d6cd88f7e1e924 -->
<g id="node1" class="node">
<title>dir_71db3c9ac669ad0e48d6cd88f7e1e924</title>
<text text-anchor="middle" x="83" y="-303.5" font-family="Helvetica,sans-Serif" font-size="10.00">src</text>
</g>
<!-- dir_1923d69e804aa8c43539fd83ce969c83 -->
<g id="node3" class="node">
<title>dir_1923d69e804aa8c43539fd83ce969c83</title>
<g id="a_node3"><a xlink:href="dir_1923d69e804aa8c43539fd83ce969c83.html" target="_top" xlink:title="Network">
<polygon fill="white" stroke="black" points="82,-180 24,-180 24,-144 82,-144 82,-180"/>
<text text-anchor="middle" x="53" y="-159.5" font-family="Helvetica,sans-Serif" font-size="10.00">Network</text>
</a>
</g>
</g>
<!-- dir_71db3c9ac669ad0e48d6cd88f7e1e924&#45;&gt;dir_1923d69e804aa8c43539fd83ce969c83 -->
<g id="edge8" class="edge">
<title>dir_71db3c9ac669ad0e48d6cd88f7e1e924&#45;&gt;dir_1923d69e804aa8c43539fd83ce969c83</title>
<path fill="none" stroke="black" d="M79.38,-287.87C74.25,-263.56 64.79,-218.82 58.71,-190.01"/>
<polygon fill="black" stroke="black" points="62.12,-189.25 56.63,-180.19 55.27,-190.7 62.12,-189.25"/>
<g id="a_edge8&#45;headlabel"><a xlink:href="dir_000002_000006.html" target="_top" xlink:title="9">
<text text-anchor="middle" x="65.64" y="-189.68" font-family="Helvetica,sans-Serif" font-size="10.00">9</text>
</a>
</g>
</g>
<!-- dir_6959e366bd0fef198c8a0033535e29d3 -->
<g id="node5" class="node">
<title>dir_6959e366bd0fef198c8a0033535e29d3</title>
<g id="a_node5"><a xlink:href="dir_6959e366bd0fef198c8a0033535e29d3.html" target="_top" xlink:title="Windows">
<polygon fill="white" stroke="black" points="148.5,-252 87.5,-252 87.5,-216 148.5,-216 148.5,-252"/>
<text text-anchor="middle" x="118" y="-231.5" font-family="Helvetica,sans-Serif" font-size="10.00">Windows</text>
</a>
</g>
</g>
<!-- dir_71db3c9ac669ad0e48d6cd88f7e1e924&#45;&gt;dir_6959e366bd0fef198c8a0033535e29d3 -->
<g id="edge7" class="edge">
<title>dir_71db3c9ac669ad0e48d6cd88f7e1e924&#45;&gt;dir_6959e366bd0fef198c8a0033535e29d3</title>
<path fill="none" stroke="black" d="M91.65,-287.7C95.64,-279.73 100.45,-270.1 104.87,-261.26"/>
<polygon fill="black" stroke="black" points="108.11,-262.61 109.45,-252.1 101.85,-259.48 108.11,-262.61"/>
<g id="a_edge7&#45;headlabel"><a xlink:href="dir_000002_000008.html" target="_top" xlink:title="1">
<text text-anchor="middle" x="109.04" y="-264.6" font-family="Helvetica,sans-Serif" font-size="10.00">1</text>
</a>
</g>
</g>
<!-- dir_a9188690bf897ece0bb6b1ea1c7f336a -->
<g id="node2" class="node">
<title>dir_a9188690bf897ece0bb6b1ea1c7f336a</title>
<g id="a_node2"><a xlink:href="dir_a9188690bf897ece0bb6b1ea1c7f336a.html" target="_top" xlink:title="Audio">
<polygon fill="white" stroke="red" points="80,-108 26,-108 26,-72 80,-72 80,-108"/>
<text text-anchor="middle" x="53" y="-87.5" font-family="Helvetica,sans-Serif" font-size="10.00">Audio</text>
</a>
</g>
</g>
<!-- dir_4ab6b4cc6a7edbff49100e9123df213f -->
<g id="node6" class="node">
<title>dir_4ab6b4cc6a7edbff49100e9123df213f</title>
<g id="a_node6"><a xlink:href="dir_4ab6b4cc6a7edbff49100e9123df213f.html" target="_top" xlink:title="Common">
<polygon fill="white" stroke="red" points="138.5,-36 77.5,-36 77.5,0 138.5,0 138.5,-36"/>
<text text-anchor="middle" x="108" y="-15.5" font-family="Helvetica,sans-Serif" font-size="10.00">Common</text>
</a>
</g>
</g>
<!-- dir_a9188690bf897ece0bb6b1ea1c7f336a&#45;&gt;dir_4ab6b4cc6a7edbff49100e9123df213f -->
<g id="edge6" class="edge">
<title>dir_a9188690bf897ece0bb6b1ea1c7f336a&#45;&gt;dir_4ab6b4cc6a7edbff49100e9123df213f</title>
<path fill="none" stroke="black" d="M66.6,-71.7C73.12,-63.39 81.07,-53.28 88.25,-44.14"/>
<polygon fill="black" stroke="black" points="91.13,-46.13 94.56,-36.1 85.63,-41.81 91.13,-46.13"/>
<g id="a_edge6&#45;headlabel"><a xlink:href="dir_000003_000011.html" target="_top" xlink:title="2">
<text text-anchor="middle" x="91.15" y="-48.21" font-family="Helvetica,sans-Serif" font-size="10.00">2</text>
</a>
</g>
</g>
<!-- dir_1923d69e804aa8c43539fd83ce969c83&#45;&gt;dir_a9188690bf897ece0bb6b1ea1c7f336a -->
<g id="edge5" class="edge">
<title>dir_1923d69e804aa8c43539fd83ce969c83&#45;&gt;dir_a9188690bf897ece0bb6b1ea1c7f336a</title>
<path fill="none" stroke="black" d="M53,-143.7C53,-135.98 53,-126.71 53,-118.11"/>
<polygon fill="black" stroke="black" points="56.5,-118.1 53,-108.1 49.5,-118.1 56.5,-118.1"/>
<g id="a_edge5&#45;headlabel"><a xlink:href="dir_000006_000003.html" target="_top" xlink:title="4">
<text text-anchor="middle" x="59.34" y="-119.2" font-family="Helvetica,sans-Serif" font-size="10.00">4</text>
</a>
</g>
</g>
<!-- dir_1923d69e804aa8c43539fd83ce969c83&#45;&gt;dir_4ab6b4cc6a7edbff49100e9123df213f -->
<g id="edge4" class="edge">
<title>dir_1923d69e804aa8c43539fd83ce969c83&#45;&gt;dir_4ab6b4cc6a7edbff49100e9123df213f</title>
<path fill="none" stroke="black" d="M67.16,-143.85C74.69,-133.93 83.5,-120.89 89,-108 97.41,-88.29 102.24,-64.49 104.93,-46.46"/>
<polygon fill="black" stroke="black" points="108.43,-46.71 106.3,-36.33 101.49,-45.76 108.43,-46.71"/>
<g id="a_edge4&#45;headlabel"><a xlink:href="dir_000006_000011.html" target="_top" xlink:title="3">
<text text-anchor="middle" x="110.76" y="-48.15" font-family="Helvetica,sans-Serif" font-size="10.00">3</text>
</a>
</g>
</g>
<!-- dir_02683dce87073e38599149b83eee6b80 -->
<g id="node4" class="node">
<title>dir_02683dce87073e38599149b83eee6b80</title>
<g id="a_node4"><a xlink:href="dir_02683dce87073e38599149b83eee6b80.html" target="_top" xlink:title="ui">
<polygon fill="white" stroke="black" points="154,-180 100,-180 100,-144 154,-144 154,-180"/>
<text text-anchor="middle" x="127" y="-159.5" font-family="Helvetica,sans-Serif" font-size="10.00">ui</text>
</a>
</g>
</g>
<!-- dir_6959e366bd0fef198c8a0033535e29d3&#45;&gt;dir_1923d69e804aa8c43539fd83ce969c83 -->
<g id="edge2" class="edge">
<title>dir_6959e366bd0fef198c8a0033535e29d3&#45;&gt;dir_1923d69e804aa8c43539fd83ce969c83</title>
<path fill="none" stroke="black" d="M101.93,-215.7C94.06,-207.22 84.44,-196.86 75.83,-187.58"/>
<polygon fill="black" stroke="black" points="78.25,-185.05 68.88,-180.1 73.12,-189.81 78.25,-185.05"/>
<g id="a_edge2&#45;headlabel"><a xlink:href="dir_000008_000006.html" target="_top" xlink:title="1">
<text text-anchor="middle" x="82.78" y="-183.25" font-family="Helvetica,sans-Serif" font-size="10.00">1</text>
</a>
</g>
</g>
<!-- dir_6959e366bd0fef198c8a0033535e29d3&#45;&gt;dir_02683dce87073e38599149b83eee6b80 -->
<g id="edge3" class="edge">
<title>dir_6959e366bd0fef198c8a0033535e29d3&#45;&gt;dir_02683dce87073e38599149b83eee6b80</title>
<path fill="none" stroke="black" d="M120.22,-215.7C121.22,-207.98 122.41,-198.71 123.51,-190.11"/>
<polygon fill="black" stroke="black" points="127,-190.47 124.8,-180.1 120.05,-189.58 127,-190.47"/>
<g id="a_edge3&#45;headlabel"><a xlink:href="dir_000008_000007.html" target="_top" xlink:title="1">
<text text-anchor="middle" x="129.35" y="-191.9" font-family="Helvetica,sans-Serif" font-size="10.00">1</text>
</a>
</g>
</g>
<!-- dir_6959e366bd0fef198c8a0033535e29d3&#45;&gt;dir_4ab6b4cc6a7edbff49100e9123df213f -->
<g id="edge1" class="edge">
<title>dir_6959e366bd0fef198c8a0033535e29d3&#45;&gt;dir_4ab6b4cc6a7edbff49100e9123df213f</title>
<path fill="none" stroke="black" d="M138.38,-215.53C147.81,-206.09 158.01,-193.6 163,-180 168.52,-164.98 166.29,-159.66 163,-144 155.42,-107.95 136.78,-69.61 123.3,-45.05"/>
<polygon fill="black" stroke="black" points="126.19,-43.04 118.24,-36.03 120.08,-46.46 126.19,-43.04"/>
<g id="a_edge1&#45;headlabel"><a xlink:href="dir_000008_000011.html" target="_top" xlink:title="3">
<text text-anchor="middle" x="130.42" y="-42.28" font-family="Helvetica,sans-Serif" font-size="10.00">3</text>
</a>
</g>
</g>
</g>
</svg>
