<?xml version="1.0" encoding="UTF-8" standalone="no"?>
<!DOCTYPE svg PUBLIC "-//W3C//DTD SVG 1.1//EN"
 "http://www.w3.org/Graphics/SVG/1.1/DTD/svg11.dtd">
<!-- Generated by graphviz version 2.43.0 (0)
 -->
<!-- Title: Client/src/Network Pages: 1 -->
<svg width="107pt" height="223pt"
 viewBox="0.00 0.00 107.00 223.00" xmlns="http://www.w3.org/2000/svg" xmlns:xlink="http://www.w3.org/1999/xlink">
<g id="graph0" class="graph" transform="scale(1 1) rotate(0) translate(4 219)">
<title>Client/src/Network</title>
<polygon fill="white" stroke="transparent" points="-4,4 -4,-219 103,-219 103,4 -4,4"/>
<g id="clust1" class="cluster">
<title>clusterdir_71db3c9ac669ad0e48d6cd88f7e1e924</title>
<g id="a_clust1"><a xlink:href="dir_71db3c9ac669ad0e48d6cd88f7e1e924.html" target="_top" xlink:title="src">
<polygon fill="#ddddee" stroke="black" points="8,-136 8,-207 82,-207 82,-136 8,-136"/>
<text text-anchor="middle" x="45" y="-195" font-family="Helvetica,sans-Serif" font-size="10.00">src</text>
</a>
</g>
</g>
<!-- dir_1923d69e804aa8c43539fd83ce969c83 -->
<g id="node1" class="node">
<title>dir_1923d69e804aa8c43539fd83ce969c83</title>
<g id="a_node1"><a xlink:href="dir_1923d69e804aa8c43539fd83ce969c83.html" target="_top" xlink:title="Network">
<polygon fill="#eeeeff" stroke="black" points="74,-180 16,-180 16,-144 74,-144 74,-180"/>
<text text-anchor="middle" x="45" y="-159.5" font-family="Helvetica,sans-Serif" font-size="10.00">Network</text>
</a>
</g>
</g>
<!-- dir_4ab6b4cc6a7edbff49100e9123df213f -->
<g id="node2" class="node">
<title>dir_4ab6b4cc6a7edbff49100e9123df213f</title>
<g id="a_node2"><a xlink:href="dir_4ab6b4cc6a7edbff49100e9123df213f.html" target="_top" xlink:title="Common">
<polygon fill="white" stroke="red" points="74.5,-36 13.5,-36 13.5,0 74.5,0 74.5,-36"/>
<text text-anchor="middle" x="44" y="-15.5" font-family="Helvetica,sans-Serif" font-size="10.00">Common</text>
</a>
</g>
</g>
<!-- dir_1923d69e804aa8c43539fd83ce969c83&#45;&gt;dir_4ab6b4cc6a7edbff49100e9123df213f -->
<g id="edge1" class="edge">
<title>dir_1923d69e804aa8c43539fd83ce969c83&#45;&gt;dir_4ab6b4cc6a7edbff49100e9123df213f</title>
<path fill="none" stroke="black" d="M41.35,-143.91C39.32,-133.57 37.02,-120.09 36,-108 34.66,-92.06 34.8,-87.96 36,-72 36.64,-63.52 37.84,-54.34 39.12,-46.04"/>
<polygon fill="black" stroke="black" points="42.58,-46.55 40.75,-36.11 35.68,-45.41 42.58,-46.55"/>
<g id="a_edge1&#45;headlabel"><a xlink:href="dir_000006_000011.html" target="_top" xlink:title="3">
<text text-anchor="middle" x="44.8" y="-48.05" font-family="Helvetica,sans-Serif" font-size="10.00">3</text>
</a>
</g>
</g>
<!-- dir_a9188690bf897ece0bb6b1ea1c7f336a -->
<g id="node3" class="node">
<title>dir_a9188690bf897ece0bb6b1ea1c7f336a</title>
<g id="a_node3"><a xlink:href="dir_a9188690bf897ece0bb6b1ea1c7f336a.html" target="_top" xlink:title="Audio">
<polygon fill="white" stroke="red" points="99,-108 45,-108 45,-72 99,-72 99,-108"/>
<text text-anchor="middle" x="72" y="-87.5" font-family="Helvetica,sans-Serif" font-size="10.00">Audio</text>
</a>
</g>
</g>
<!-- dir_1923d69e804aa8c43539fd83ce969c83&#45;&gt;dir_a9188690bf897ece0bb6b1ea1c7f336a -->
<g id="edge2" class="edge">
<title>dir_1923d69e804aa8c43539fd83ce969c83&#45;&gt;dir_a9188690bf897ece0bb6b1ea1c7f336a</title>
<path fill="none" stroke="black" d="M51.67,-143.7C54.71,-135.81 58.38,-126.3 61.76,-117.55"/>
<polygon fill="black" stroke="black" points="65.07,-118.69 65.4,-108.1 58.54,-116.17 65.07,-118.69"/>
<g id="a_edge2&#45;headlabel"><a xlink:href="dir_000006_000003.html" target="_top" xlink:title="4">
<text text-anchor="middle" x="66.42" y="-120.57" font-family="Helvetica,sans-Serif" font-size="10.00">4</text>
</a>
</g>
</g>
<!-- dir_a9188690bf897ece0bb6b1ea1c7f336a&#45;&gt;dir_4ab6b4cc6a7edbff49100e9123df213f -->
<g id="edge3" class="edge">
<title>dir_a9188690bf897ece0bb6b1ea1c7f336a&#45;&gt;dir_4ab6b4cc6a7edbff49100e9123df213f</title>
<path fill="none" stroke="black" d="M65.08,-71.7C61.93,-63.81 58.12,-54.3 54.62,-45.55"/>
<polygon fill="black" stroke="black" points="57.81,-44.09 50.84,-36.1 51.31,-46.69 57.81,-44.09"/>
<g id="a_edge3&#45;headlabel"><a xlink:href="dir_000003_000011.html" target="_top" xlink:title="2">
<text text-anchor="middle" x="61.78" y="-43.87" font-family="Helvetica,sans-Serif" font-size="10.00">2</text>
</a>
</g>
</g>
</g>
</svg>
