<?xml version="1.0" encoding="UTF-8" standalone="no"?>
<!DOCTYPE svg PUBLIC "-//W3C//DTD SVG 1.1//EN"
 "http://www.w3.org/Graphics/SVG/1.1/DTD/svg11.dtd">
<!-- Generated by graphviz version 2.43.0 (0)
 -->
<!-- Title: Client/src/Windows Pages: 1 -->
<svg width="169pt" height="223pt"
 viewBox="0.00 0.00 168.50 223.00" xmlns="http://www.w3.org/2000/svg" xmlns:xlink="http://www.w3.org/1999/xlink">
<g id="graph0" class="graph" transform="scale(1 1) rotate(0) translate(4 219)">
<title>Client/src/Windows</title>
<polygon fill="white" stroke="transparent" points="-4,4 -4,-219 164.5,-219 164.5,4 -4,4"/>
<g id="clust1" class="cluster">
<title>clusterdir_71db3c9ac669ad0e48d6cd88f7e1e924</title>
<g id="a_clust1"><a xlink:href="dir_71db3c9ac669ad0e48d6cd88f7e1e924.html" target="_top" xlink:title="src">
<polygon fill="#ddddee" stroke="black" points="20.5,-136 20.5,-207 98.5,-207 98.5,-136 20.5,-136"/>
<text text-anchor="middle" x="59.5" y="-195" font-family="Helvetica,sans-Serif" font-size="10.00">src</text>
</a>
</g>
</g>
<!-- dir_6959e366bd0fef198c8a0033535e29d3 -->
<g id="node1" class="node">
<title>dir_6959e366bd0fef198c8a0033535e29d3</title>
<g id="a_node1"><a xlink:href="dir_6959e366bd0fef198c8a0033535e29d3.html" target="_top" xlink:title="Windows">
<polygon fill="#eeeeff" stroke="black" points="90,-180 29,-180 29,-144 90,-144 90,-180"/>
<text text-anchor="middle" x="59.5" y="-159.5" font-family="Helvetica,sans-Serif" font-size="10.00">Windows</text>
</a>
</g>
</g>
<!-- dir_4ab6b4cc6a7edbff49100e9123df213f -->
<g id="node2" class="node">
<title>dir_4ab6b4cc6a7edbff49100e9123df213f</title>
<g id="a_node2"><a xlink:href="dir_4ab6b4cc6a7edbff49100e9123df213f.html" target="_top" xlink:title="Common">
<polygon fill="white" stroke="red" points="61,-36 0,-36 0,0 61,0 61,-36"/>
<text text-anchor="middle" x="30.5" y="-15.5" font-family="Helvetica,sans-Serif" font-size="10.00">Common</text>
</a>
</g>
</g>
<!-- dir_6959e366bd0fef198c8a0033535e29d3&#45;&gt;dir_4ab6b4cc6a7edbff49100e9123df213f -->
<g id="edge1" class="edge">
<title>dir_6959e366bd0fef198c8a0033535e29d3&#45;&gt;dir_4ab6b4cc6a7edbff49100e9123df213f</title>
<path fill="none" stroke="black" d="M43.04,-143.92C34.85,-134.22 25.8,-121.37 21.5,-108 15.02,-87.85 17.99,-63.94 22.18,-45.98"/>
<polygon fill="black" stroke="black" points="25.61,-46.72 24.73,-36.16 18.83,-44.96 25.61,-46.72"/>
<g id="a_edge1&#45;headlabel"><a xlink:href="dir_000008_000011.html" target="_top" xlink:title="3">
<text text-anchor="middle" x="27.45" y="-48.41" font-family="Helvetica,sans-Serif" font-size="10.00">3</text>
</a>
</g>
</g>
<!-- dir_1923d69e804aa8c43539fd83ce969c83 -->
<g id="node3" class="node">
<title>dir_1923d69e804aa8c43539fd83ce969c83</title>
<g id="a_node3"><a xlink:href="dir_1923d69e804aa8c43539fd83ce969c83.html" target="_top" xlink:title="Network">
<polygon fill="none" stroke="black" points="88.5,-108 30.5,-108 30.5,-72 88.5,-72 88.5,-108"/>
<text text-anchor="middle" x="59.5" y="-87.5" font-family="Helvetica,sans-Serif" font-size="10.00">Network</text>
</a>
</g>
</g>
<!-- dir_6959e366bd0fef198c8a0033535e29d3&#45;&gt;dir_1923d69e804aa8c43539fd83ce969c83 -->
<g id="edge2" class="edge">
<title>dir_6959e366bd0fef198c8a0033535e29d3&#45;&gt;dir_1923d69e804aa8c43539fd83ce969c83</title>
<path fill="none" stroke="black" d="M59.5,-143.7C59.5,-135.98 59.5,-126.71 59.5,-118.11"/>
<polygon fill="black" stroke="black" points="63,-118.1 59.5,-108.1 56,-118.1 63,-118.1"/>
<g id="a_edge2&#45;headlabel"><a xlink:href="dir_000008_000006.html" target="_top" xlink:title="1">
<text text-anchor="middle" x="65.84" y="-119.2" font-family="Helvetica,sans-Serif" font-size="10.00">1</text>
</a>
</g>
</g>
<!-- dir_02683dce87073e38599149b83eee6b80 -->
<g id="node4" class="node">
<title>dir_02683dce87073e38599149b83eee6b80</title>
<g id="a_node4"><a xlink:href="dir_02683dce87073e38599149b83eee6b80.html" target="_top" xlink:title="ui">
<polygon fill="none" stroke="black" points="160.5,-108 106.5,-108 106.5,-72 160.5,-72 160.5,-108"/>
<text text-anchor="middle" x="133.5" y="-87.5" font-family="Helvetica,sans-Serif" font-size="10.00">ui</text>
</a>
</g>
</g>
<!-- dir_6959e366bd0fef198c8a0033535e29d3&#45;&gt;dir_02683dce87073e38599149b83eee6b80 -->
<g id="edge3" class="edge">
<title>dir_6959e366bd0fef198c8a0033535e29d3&#45;&gt;dir_02683dce87073e38599149b83eee6b80</title>
<path fill="none" stroke="black" d="M77.79,-143.7C86.93,-135.05 98.14,-124.45 108.1,-115.03"/>
<polygon fill="black" stroke="black" points="110.56,-117.52 115.42,-108.1 105.75,-112.43 110.56,-117.52"/>
<g id="a_edge3&#45;headlabel"><a xlink:href="dir_000008_000007.html" target="_top" xlink:title="1">
<text text-anchor="middle" x="109.9" y="-119.55" font-family="Helvetica,sans-Serif" font-size="10.00">1</text>
</a>
</g>
</g>
<!-- dir_1923d69e804aa8c43539fd83ce969c83&#45;&gt;dir_4ab6b4cc6a7edbff49100e9123df213f -->
<g id="edge4" class="edge">
<title>dir_1923d69e804aa8c43539fd83ce969c83&#45;&gt;dir_4ab6b4cc6a7edbff49100e9123df213f</title>
<path fill="none" stroke="black" d="M52.33,-71.7C49.07,-63.81 45.13,-54.3 41.5,-45.55"/>
<polygon fill="black" stroke="black" points="44.65,-44 37.59,-36.1 38.18,-46.68 44.65,-44"/>
<g id="a_edge4&#45;headlabel"><a xlink:href="dir_000006_000011.html" target="_top" xlink:title="3">
<text text-anchor="middle" x="48.65" y="-43.74" font-family="Helvetica,sans-Serif" font-size="10.00">3</text>
</a>
</g>
</g>
</g>
</svg>
