<?xml version="1.0" encoding="UTF-8" standalone="no"?>
<!DOCTYPE svg PUBLIC "-//W3C//DTD SVG 1.1//EN"
 "http://www.w3.org/Graphics/SVG/1.1/DTD/svg11.dtd">
<!-- Generated by graphviz version 2.43.0 (0)
 -->
<!-- Title: Client/src/Windows/HomePage.cpp Pages: 1 -->
<svg width="3586pt" height="431pt"
 viewBox="0.00 0.00 3586.14 431.00" xmlns="http://www.w3.org/2000/svg" xmlns:xlink="http://www.w3.org/1999/xlink">
<g id="graph0" class="graph" transform="scale(1 1) rotate(0) translate(4 427)">
<title>Client/src/Windows/HomePage.cpp</title>
<polygon fill="white" stroke="transparent" points="-4,4 -4,-427 3582.14,-427 3582.14,4 -4,4"/>
<!-- Node1 -->
<g id="node1" class="node">
<title>Node1</title>
<g id="a_node1"><a xlink:title=" ">
<polygon fill="#bfbfbf" stroke="black" points="3113.64,-392.5 3113.64,-422.5 3223.64,-422.5 3223.64,-392.5 3113.64,-392.5"/>
<text text-anchor="start" x="3121.64" y="-410.5" font-family="Helvetica,sans-Serif" font-size="10.00">Client/src/Windows</text>
<text text-anchor="middle" x="3168.64" y="-399.5" font-family="Helvetica,sans-Serif" font-size="10.00">/HomePage.cpp</text>
</a>
</g>
</g>
<!-- Node2 -->
<g id="node2" class="node">
<title>Node2</title>
<g id="a_node2"><a xlink:href="HomePage_8hpp.html" target="_top" xlink:title=" ">
<polygon fill="white" stroke="black" points="2159.64,-336.5 2159.64,-355.5 2249.64,-355.5 2249.64,-336.5 2159.64,-336.5"/>
<text text-anchor="middle" x="2204.64" y="-343.5" font-family="Helvetica,sans-Serif" font-size="10.00">HomePage.hpp</text>
</a>
</g>
</g>
<!-- Node1&#45;&gt;Node2 -->
<g id="edge1" class="edge">
<title>Node1&#45;&gt;Node2</title>
<path fill="none" stroke="midnightblue" d="M3113.35,-403.09C2943.38,-392.6 2429.79,-360.9 2259.88,-350.41"/>
<polygon fill="midnightblue" stroke="midnightblue" points="2259.87,-346.9 2249.67,-349.78 2259.44,-353.89 2259.87,-346.9"/>
</g>
<!-- Node24 -->
<g id="node24" class="node">
<title>Node24</title>
<g id="a_node24"><a xlink:href="Message_8hpp.html" target="_top" xlink:title=" ">
<polygon fill="white" stroke="black" points="2804.14,-112.5 2804.14,-131.5 2929.14,-131.5 2929.14,-112.5 2804.14,-112.5"/>
<text text-anchor="middle" x="2866.64" y="-119.5" font-family="Helvetica,sans-Serif" font-size="10.00">Network/Message.hpp</text>
</a>
</g>
</g>
<!-- Node1&#45;&gt;Node24 -->
<g id="edge63" class="edge">
<title>Node1&#45;&gt;Node24</title>
<path fill="none" stroke="midnightblue" d="M3164.64,-392.29C3154.59,-358.87 3125.32,-274.35 3073.64,-224 3046.86,-197.9 2948.72,-156.03 2897.79,-135.36"/>
<polygon fill="midnightblue" stroke="midnightblue" points="2898.85,-132.01 2888.27,-131.52 2896.23,-138.51 2898.85,-132.01"/>
</g>
<!-- Node31 -->
<g id="node29" class="node">
<title>Node31</title>
<g id="a_node29"><a xlink:title=" ">
<polygon fill="white" stroke="#bfbfbf" points="3039.64,-56.5 3039.64,-75.5 3099.64,-75.5 3099.64,-56.5 3039.64,-56.5"/>
<text text-anchor="middle" x="3069.64" y="-63.5" font-family="Helvetica,sans-Serif" font-size="10.00">iostream</text>
</a>
</g>
</g>
<!-- Node1&#45;&gt;Node31 -->
<g id="edge65" class="edge">
<title>Node1&#45;&gt;Node31</title>
<path fill="none" stroke="midnightblue" d="M3223.7,-394.43C3274.67,-379.63 3342.64,-349.01 3342.64,-291 3342.64,-291 3342.64,-291 3342.64,-177 3342.64,-127.46 3186.06,-89.87 3110.06,-74.54"/>
<polygon fill="midnightblue" stroke="midnightblue" points="3110.39,-71.03 3099.9,-72.52 3109.03,-77.9 3110.39,-71.03"/>
</g>
<!-- Node38 -->
<g id="node31" class="node">
<title>Node38</title>
<g id="a_node31"><a xlink:href="RFCCodes_8hpp.html" target="_top" xlink:title=" ">
<polygon fill="white" stroke="black" points="3033.14,-168.5 3033.14,-187.5 3164.14,-187.5 3164.14,-168.5 3033.14,-168.5"/>
<text text-anchor="middle" x="3098.64" y="-175.5" font-family="Helvetica,sans-Serif" font-size="10.00">Network/RFCCodes.hpp</text>
</a>
</g>
</g>
<!-- Node1&#45;&gt;Node38 -->
<g id="edge64" class="edge">
<title>Node1&#45;&gt;Node38</title>
<path fill="none" stroke="midnightblue" d="M3169.8,-392.33C3171.79,-360.4 3173.22,-281.17 3144.64,-224 3138.83,-212.37 3128.8,-202.02 3119.58,-194.18"/>
<polygon fill="midnightblue" stroke="midnightblue" points="3121.49,-191.23 3111.49,-187.73 3117.13,-196.7 3121.49,-191.23"/>
</g>
<!-- Node43 -->
<g id="node35" class="node">
<title>Node43</title>
<g id="a_node35"><a xlink:title=" ">
<polygon fill="white" stroke="#bfbfbf" points="2834.14,-280.5 2834.14,-299.5 2921.14,-299.5 2921.14,-280.5 2834.14,-280.5"/>
<text text-anchor="middle" x="2877.64" y="-287.5" font-family="Helvetica,sans-Serif" font-size="10.00">QMainWindow</text>
</a>
</g>
</g>
<!-- Node1&#45;&gt;Node43 -->
<g id="edge66" class="edge">
<title>Node1&#45;&gt;Node43</title>
<path fill="none" stroke="midnightblue" d="M3133.25,-392.45C3075.79,-369.64 2963.14,-324.93 2908.64,-303.3"/>
<polygon fill="midnightblue" stroke="midnightblue" points="2909.75,-299.98 2899.16,-299.54 2907.17,-306.48 2909.75,-299.98"/>
</g>
<!-- Node45 -->
<g id="node37" class="node">
<title>Node45</title>
<g id="a_node37"><a xlink:href="SoundHandler_8hpp.html" target="_top" xlink:title=" ">
<polygon fill="white" stroke="black" points="2577.14,-280.5 2577.14,-299.5 2682.14,-299.5 2682.14,-280.5 2577.14,-280.5"/>
<text text-anchor="middle" x="2629.64" y="-287.5" font-family="Helvetica,sans-Serif" font-size="10.00">SoundHandler.hpp</text>
</a>
</g>
</g>
<!-- Node1&#45;&gt;Node45 -->
<g id="edge74" class="edge">
<title>Node1&#45;&gt;Node45</title>
<path fill="none" stroke="midnightblue" d="M3113.49,-394.68C3008.31,-372.14 2780.53,-323.33 2679.56,-301.7"/>
<polygon fill="midnightblue" stroke="midnightblue" points="2680.13,-298.24 2669.62,-299.57 2678.66,-305.08 2680.13,-298.24"/>
</g>
<!-- Node56 -->
<g id="node47" class="node">
<title>Node56</title>
<g id="a_node47"><a xlink:href="Utilities_8hpp.html" target="_top" xlink:title=" ">
<polygon fill="white" stroke="black" points="3197.14,-224.5 3197.14,-243.5 3314.14,-243.5 3314.14,-224.5 3197.14,-224.5"/>
<text text-anchor="middle" x="3255.64" y="-231.5" font-family="Helvetica,sans-Serif" font-size="10.00">Utilities/Utilities.hpp</text>
</a>
</g>
</g>
<!-- Node1&#45;&gt;Node56 -->
<g id="edge67" class="edge">
<title>Node1&#45;&gt;Node56</title>
<path fill="none" stroke="midnightblue" d="M3175.76,-392.47C3191.5,-361.44 3229.24,-287.05 3246.61,-252.81"/>
<polygon fill="midnightblue" stroke="midnightblue" points="3249.9,-254.06 3251.3,-243.56 3243.66,-250.89 3249.9,-254.06"/>
</g>
<!-- Node58 -->
<g id="node49" class="node">
<title>Node58</title>
<g id="a_node49"><a xlink:title=" ">
<polygon fill="white" stroke="#bfbfbf" points="3370.64,-336.5 3370.64,-355.5 3450.64,-355.5 3450.64,-336.5 3370.64,-336.5"/>
<text text-anchor="middle" x="3410.64" y="-343.5" font-family="Helvetica,sans-Serif" font-size="10.00">QPushButton</text>
</a>
</g>
</g>
<!-- Node1&#45;&gt;Node58 -->
<g id="edge72" class="edge">
<title>Node1&#45;&gt;Node58</title>
<path fill="none" stroke="midnightblue" d="M3223.86,-392.92C3266.94,-382.33 3326.01,-367.81 3366.1,-357.95"/>
<polygon fill="midnightblue" stroke="midnightblue" points="3366.99,-361.34 3375.86,-355.55 3365.32,-354.54 3366.99,-361.34"/>
</g>
<!-- Node59 -->
<g id="node50" class="node">
<title>Node59</title>
<g id="a_node50"><a xlink:title=" ">
<polygon fill="white" stroke="#bfbfbf" points="3469.14,-336.5 3469.14,-355.5 3578.14,-355.5 3578.14,-336.5 3469.14,-336.5"/>
<text text-anchor="middle" x="3523.64" y="-343.5" font-family="Helvetica,sans-Serif" font-size="10.00">QNetworkInterface</text>
</a>
</g>
</g>
<!-- Node1&#45;&gt;Node59 -->
<g id="edge73" class="edge">
<title>Node1&#45;&gt;Node59</title>
<path fill="none" stroke="midnightblue" d="M3223.72,-397.27C3288.46,-386.42 3395.57,-368.47 3462.74,-357.21"/>
<polygon fill="midnightblue" stroke="midnightblue" points="3463.47,-360.63 3472.75,-355.53 3462.31,-353.73 3463.47,-360.63"/>
</g>
<!-- Node3 -->
<g id="node3" class="node">
<title>Node3</title>
<g id="a_node3"><a xlink:href="UIHomePage_8hpp.html" target="_top" xlink:title=" ">
<polygon fill="white" stroke="black" points="1042.14,-280.5 1042.14,-299.5 1155.14,-299.5 1155.14,-280.5 1042.14,-280.5"/>
<text text-anchor="middle" x="1098.64" y="-287.5" font-family="Helvetica,sans-Serif" font-size="10.00">ui/UIHomePage.hpp</text>
</a>
</g>
</g>
<!-- Node2&#45;&gt;Node3 -->
<g id="edge2" class="edge">
<title>Node2&#45;&gt;Node3</title>
<path fill="none" stroke="midnightblue" d="M2159.57,-342.8C1987.38,-334.39 1370.52,-304.27 1165.46,-294.26"/>
<polygon fill="midnightblue" stroke="midnightblue" points="1165.59,-290.76 1155.43,-293.77 1165.25,-297.76 1165.59,-290.76"/>
</g>
<!-- Node18 -->
<g id="node18" class="node">
<title>Node18</title>
<g id="a_node18"><a xlink:href="QtTCPConnection_8hpp.html" target="_top" xlink:title=" ">
<polygon fill="white" stroke="red" points="2029.64,-224.5 2029.64,-243.5 2195.64,-243.5 2195.64,-224.5 2029.64,-224.5"/>
<text text-anchor="middle" x="2112.64" y="-231.5" font-family="Helvetica,sans-Serif" font-size="10.00">Network/QtTCPConnection.hpp</text>
</a>
</g>
</g>
<!-- Node2&#45;&gt;Node18 -->
<g id="edge17" class="edge">
<title>Node2&#45;&gt;Node18</title>
<path fill="none" stroke="midnightblue" d="M2197.42,-336.37C2182.11,-318.05 2146.14,-275.05 2126.33,-251.36"/>
<polygon fill="midnightblue" stroke="midnightblue" points="2128.93,-249.02 2119.83,-243.59 2123.56,-253.51 2128.93,-249.02"/>
</g>
<!-- Node23 -->
<g id="node23" class="node">
<title>Node23</title>
<g id="a_node23"><a xlink:title=" ">
<polygon fill="white" stroke="#bfbfbf" points="2006.14,-112.5 2006.14,-131.5 2071.14,-131.5 2071.14,-112.5 2006.14,-112.5"/>
<text text-anchor="middle" x="2038.64" y="-119.5" font-family="Helvetica,sans-Serif" font-size="10.00">functional</text>
</a>
</g>
</g>
<!-- Node2&#45;&gt;Node23 -->
<g id="edge40" class="edge">
<title>Node2&#45;&gt;Node23</title>
<path fill="none" stroke="midnightblue" d="M2159.64,-344.76C1880.31,-343.18 388.85,-333.21 188.64,-300 107.24,-286.5 60.4,-310.56 11.64,-244 -104.6,-85.29 697.18,-178.1 893.64,-168 1323.4,-145.92 1844.38,-129.02 1995.6,-124.32"/>
<polygon fill="midnightblue" stroke="midnightblue" points="1995.95,-127.81 2005.84,-124 1995.74,-120.81 1995.95,-127.81"/>
</g>
<!-- Node42 -->
<g id="node34" class="node">
<title>Node42</title>
<g id="a_node34"><a xlink:title=" ">
<polygon fill="white" stroke="#bfbfbf" points="902.64,-168.5 902.64,-187.5 958.64,-187.5 958.64,-168.5 902.64,-168.5"/>
<text text-anchor="middle" x="930.64" y="-175.5" font-family="Helvetica,sans-Serif" font-size="10.00">QObject</text>
</a>
</g>
</g>
<!-- Node2&#45;&gt;Node42 -->
<g id="edge42" class="edge">
<title>Node2&#45;&gt;Node42</title>
<path fill="none" stroke="midnightblue" d="M2159.23,-344.67C1852.71,-342.2 95.86,-324.55 19.64,-244 13.53,-237.54 13.51,-230.44 19.64,-224 50.17,-191.93 722.98,-181.55 892.26,-179.44"/>
<polygon fill="midnightblue" stroke="midnightblue" points="892.49,-182.93 902.44,-179.31 892.4,-175.93 892.49,-182.93"/>
</g>
<!-- Node2&#45;&gt;Node43 -->
<g id="edge39" class="edge">
<title>Node2&#45;&gt;Node43</title>
<path fill="none" stroke="midnightblue" d="M2249.85,-341.37C2369.65,-331.76 2694.94,-305.66 2823.91,-295.31"/>
<polygon fill="midnightblue" stroke="midnightblue" points="2824.26,-298.79 2833.95,-294.51 2823.7,-291.82 2824.26,-298.79"/>
</g>
<!-- Node44 -->
<g id="node36" class="node">
<title>Node44</title>
<g id="a_node36"><a xlink:title=" ">
<polygon fill="white" stroke="#bfbfbf" points="2341.64,-168.5 2341.64,-187.5 2379.64,-187.5 2379.64,-168.5 2341.64,-168.5"/>
<text text-anchor="middle" x="2360.64" y="-175.5" font-family="Helvetica,sans-Serif" font-size="10.00">map</text>
</a>
</g>
</g>
<!-- Node2&#45;&gt;Node44 -->
<g id="edge41" class="edge">
<title>Node2&#45;&gt;Node44</title>
<path fill="none" stroke="midnightblue" d="M2211.51,-336.48C2227.93,-316.28 2271.02,-264.16 2310.64,-224 2320.79,-213.71 2332.81,-202.86 2342.53,-194.38"/>
<polygon fill="midnightblue" stroke="midnightblue" points="2345.07,-196.81 2350.36,-187.63 2340.5,-191.51 2345.07,-196.81"/>
</g>
<!-- Node2&#45;&gt;Node45 -->
<g id="edge43" class="edge">
<title>Node2&#45;&gt;Node45</title>
<path fill="none" stroke="midnightblue" d="M2249.72,-339.27C2325.96,-329.59 2480.5,-309.95 2567.14,-298.94"/>
<polygon fill="midnightblue" stroke="midnightblue" points="2567.63,-302.41 2577.11,-297.68 2566.74,-295.46 2567.63,-302.41"/>
</g>
<!-- Node4 -->
<g id="node4" class="node">
<title>Node4</title>
<g id="a_node4"><a xlink:title=" ">
<polygon fill="white" stroke="#bfbfbf" points="1316.14,-224.5 1316.14,-243.5 1411.14,-243.5 1411.14,-224.5 1316.14,-224.5"/>
<text text-anchor="middle" x="1363.64" y="-231.5" font-family="Helvetica,sans-Serif" font-size="10.00">QtCore/QVariant</text>
</a>
</g>
</g>
<!-- Node3&#45;&gt;Node4 -->
<g id="edge3" class="edge">
<title>Node3&#45;&gt;Node4</title>
<path fill="none" stroke="midnightblue" d="M1140.63,-280.44C1187.06,-270.98 1261.87,-255.74 1311.88,-245.55"/>
<polygon fill="midnightblue" stroke="midnightblue" points="1312.75,-248.94 1321.85,-243.52 1311.35,-242.08 1312.75,-248.94"/>
</g>
<!-- Node5 -->
<g id="node5" class="node">
<title>Node5</title>
<g id="a_node5"><a xlink:title=" ">
<polygon fill="white" stroke="#bfbfbf" points="1429.14,-224.5 1429.14,-243.5 1562.14,-243.5 1562.14,-224.5 1429.14,-224.5"/>
<text text-anchor="middle" x="1495.64" y="-231.5" font-family="Helvetica,sans-Serif" font-size="10.00">QtWidgets/QApplication</text>
</a>
</g>
</g>
<!-- Node3&#45;&gt;Node5 -->
<g id="edge4" class="edge">
<title>Node3&#45;&gt;Node5</title>
<path fill="none" stroke="midnightblue" d="M1155.52,-281.26C1225.9,-271.69 1345.85,-255.38 1422.87,-244.9"/>
<polygon fill="midnightblue" stroke="midnightblue" points="1423.54,-248.34 1432.97,-243.52 1422.59,-241.4 1423.54,-248.34"/>
</g>
<!-- Node6 -->
<g id="node6" class="node">
<title>Node6</title>
<g id="a_node6"><a xlink:title=" ">
<polygon fill="white" stroke="#bfbfbf" points="1580.14,-224.5 1580.14,-243.5 1707.14,-243.5 1707.14,-224.5 1580.14,-224.5"/>
<text text-anchor="middle" x="1643.64" y="-231.5" font-family="Helvetica,sans-Serif" font-size="10.00">QtWidgets/QCheckBox</text>
</a>
</g>
</g>
<!-- Node3&#45;&gt;Node6 -->
<g id="edge5" class="edge">
<title>Node3&#45;&gt;Node6</title>
<path fill="none" stroke="midnightblue" d="M1155.37,-284.1C1242.14,-276.5 1413.34,-261.05 1569.68,-244.08"/>
<polygon fill="midnightblue" stroke="midnightblue" points="1570.39,-247.52 1579.95,-242.96 1569.63,-240.56 1570.39,-247.52"/>
</g>
<!-- Node7 -->
<g id="node7" class="node">
<title>Node7</title>
<g id="a_node7"><a xlink:title=" ">
<polygon fill="white" stroke="#bfbfbf" points="1725.64,-224.5 1725.64,-243.5 1861.64,-243.5 1861.64,-224.5 1725.64,-224.5"/>
<text text-anchor="middle" x="1793.64" y="-231.5" font-family="Helvetica,sans-Serif" font-size="10.00">QtWidgets/QFormLayout</text>
</a>
</g>
</g>
<!-- Node3&#45;&gt;Node7 -->
<g id="edge6" class="edge">
<title>Node3&#45;&gt;Node7</title>
<path fill="none" stroke="midnightblue" d="M1155.28,-285.67C1264.02,-279.1 1509.54,-263.4 1715.64,-244 1715.74,-243.99 1715.85,-243.98 1715.95,-243.97"/>
<polygon fill="midnightblue" stroke="midnightblue" points="1715.99,-247.48 1725.6,-243.02 1715.3,-240.52 1715.99,-247.48"/>
</g>
<!-- Node8 -->
<g id="node8" class="node">
<title>Node8</title>
<g id="a_node8"><a xlink:title=" ">
<polygon fill="white" stroke="#bfbfbf" points="1880.14,-224.5 1880.14,-243.5 2011.14,-243.5 2011.14,-224.5 1880.14,-224.5"/>
<text text-anchor="middle" x="1945.64" y="-231.5" font-family="Helvetica,sans-Serif" font-size="10.00">QtWidgets/QGridLayout</text>
</a>
</g>
</g>
<!-- Node3&#45;&gt;Node8 -->
<g id="edge7" class="edge">
<title>Node3&#45;&gt;Node8</title>
<path fill="none" stroke="midnightblue" d="M1155.39,-286.88C1281.68,-281.91 1595.73,-268.13 1869.68,-244.03"/>
<polygon fill="midnightblue" stroke="midnightblue" points="1870.16,-247.5 1879.82,-243.13 1869.55,-240.53 1870.16,-247.5"/>
</g>
<!-- Node9 -->
<g id="node9" class="node">
<title>Node9</title>
<g id="a_node9"><a xlink:title=" ">
<polygon fill="white" stroke="#bfbfbf" points="28.64,-224.5 28.64,-243.5 132.64,-243.5 132.64,-224.5 28.64,-224.5"/>
<text text-anchor="middle" x="80.64" y="-231.5" font-family="Helvetica,sans-Serif" font-size="10.00">QtWidgets/QLabel</text>
</a>
</g>
</g>
<!-- Node3&#45;&gt;Node9 -->
<g id="edge8" class="edge">
<title>Node3&#45;&gt;Node9</title>
<path fill="none" stroke="midnightblue" d="M1042.14,-288.3C895.45,-286.08 490.29,-277.24 142.85,-244.02"/>
<polygon fill="midnightblue" stroke="midnightblue" points="143.13,-240.53 132.84,-243.05 142.46,-247.49 143.13,-240.53"/>
</g>
<!-- Node10 -->
<g id="node10" class="node">
<title>Node10</title>
<g id="a_node10"><a xlink:title=" ">
<polygon fill="white" stroke="#bfbfbf" points="151.14,-224.5 151.14,-243.5 268.14,-243.5 268.14,-224.5 151.14,-224.5"/>
<text text-anchor="middle" x="209.64" y="-231.5" font-family="Helvetica,sans-Serif" font-size="10.00">QtWidgets/QLineEdit</text>
</a>
</g>
</g>
<!-- Node3&#45;&gt;Node10 -->
<g id="edge9" class="edge">
<title>Node3&#45;&gt;Node10</title>
<path fill="none" stroke="midnightblue" d="M1041.8,-287.39C909.73,-283.32 571.74,-271.04 278.2,-243.97"/>
<polygon fill="midnightblue" stroke="midnightblue" points="278.5,-240.48 268.22,-243.04 277.85,-247.45 278.5,-240.48"/>
</g>
<!-- Node11 -->
<g id="node11" class="node">
<title>Node11</title>
<g id="a_node11"><a xlink:title=" ">
<polygon fill="white" stroke="#bfbfbf" points="286.64,-224.5 286.64,-243.5 416.64,-243.5 416.64,-224.5 286.64,-224.5"/>
<text text-anchor="middle" x="351.64" y="-231.5" font-family="Helvetica,sans-Serif" font-size="10.00">QtWidgets/QListWidget</text>
</a>
</g>
</g>
<!-- Node3&#45;&gt;Node11 -->
<g id="edge10" class="edge">
<title>Node3&#45;&gt;Node11</title>
<path fill="none" stroke="midnightblue" d="M1041.84,-286.24C927.5,-280.47 661.25,-265.89 427.06,-244.09"/>
<polygon fill="midnightblue" stroke="midnightblue" points="427.28,-240.59 416.99,-243.14 426.62,-247.56 427.28,-240.59"/>
</g>
<!-- Node12 -->
<g id="node12" class="node">
<title>Node12</title>
<g id="a_node12"><a xlink:title=" ">
<polygon fill="white" stroke="#bfbfbf" points="435.14,-224.5 435.14,-243.5 576.14,-243.5 576.14,-224.5 435.14,-224.5"/>
<text text-anchor="middle" x="505.64" y="-231.5" font-family="Helvetica,sans-Serif" font-size="10.00">QtWidgets/QMainWindow</text>
</a>
</g>
</g>
<!-- Node3&#45;&gt;Node12 -->
<g id="edge11" class="edge">
<title>Node3&#45;&gt;Node12</title>
<path fill="none" stroke="midnightblue" d="M1042.05,-284.49C949.27,-277 758.76,-261.2 586.32,-244.05"/>
<polygon fill="midnightblue" stroke="midnightblue" points="586.6,-240.56 576.3,-243.04 585.91,-247.52 586.6,-240.56"/>
</g>
<!-- Node13 -->
<g id="node13" class="node">
<title>Node13</title>
<g id="a_node13"><a xlink:title=" ">
<polygon fill="white" stroke="#bfbfbf" points="594.64,-224.5 594.64,-243.5 728.64,-243.5 728.64,-224.5 594.64,-224.5"/>
<text text-anchor="middle" x="661.64" y="-231.5" font-family="Helvetica,sans-Serif" font-size="10.00">QtWidgets/QPushButton</text>
</a>
</g>
</g>
<!-- Node3&#45;&gt;Node13 -->
<g id="edge12" class="edge">
<title>Node3&#45;&gt;Node13</title>
<path fill="none" stroke="midnightblue" d="M1041.96,-282C964.65,-272.44 825.86,-255.29 739.03,-244.56"/>
<polygon fill="midnightblue" stroke="midnightblue" points="739.32,-241.07 728.97,-243.32 738.47,-248.02 739.32,-241.07"/>
</g>
<!-- Node14 -->
<g id="node14" class="node">
<title>Node14</title>
<g id="a_node14"><a xlink:title=" ">
<polygon fill="white" stroke="#bfbfbf" points="746.64,-224.5 746.64,-243.5 864.64,-243.5 864.64,-224.5 746.64,-224.5"/>
<text text-anchor="middle" x="805.64" y="-231.5" font-family="Helvetica,sans-Serif" font-size="10.00">QtWidgets/QSpinBox</text>
</a>
</g>
</g>
<!-- Node3&#45;&gt;Node14 -->
<g id="edge13" class="edge">
<title>Node3&#45;&gt;Node14</title>
<path fill="none" stroke="midnightblue" d="M1052.22,-280.44C1000.57,-270.92 917.13,-255.55 861.84,-245.36"/>
<polygon fill="midnightblue" stroke="midnightblue" points="862.32,-241.89 851.85,-243.52 861.05,-248.77 862.32,-241.89"/>
</g>
<!-- Node15 -->
<g id="node15" class="node">
<title>Node15</title>
<g id="a_node15"><a xlink:title=" ">
<polygon fill="white" stroke="#bfbfbf" points="883.14,-224.5 883.14,-243.5 1012.14,-243.5 1012.14,-224.5 883.14,-224.5"/>
<text text-anchor="middle" x="947.64" y="-231.5" font-family="Helvetica,sans-Serif" font-size="10.00">QtWidgets/QTabWidget</text>
</a>
</g>
</g>
<!-- Node3&#45;&gt;Node15 -->
<g id="edge14" class="edge">
<title>Node3&#45;&gt;Node15</title>
<path fill="none" stroke="midnightblue" d="M1074.72,-280.44C1049.42,-271.4 1009.34,-257.06 980.96,-246.92"/>
<polygon fill="midnightblue" stroke="midnightblue" points="982.05,-243.59 971.46,-243.52 979.69,-250.18 982.05,-243.59"/>
</g>
<!-- Node16 -->
<g id="node16" class="node">
<title>Node16</title>
<g id="a_node16"><a xlink:title=" ">
<polygon fill="white" stroke="#bfbfbf" points="1030.14,-224.5 1030.14,-243.5 1167.14,-243.5 1167.14,-224.5 1030.14,-224.5"/>
<text text-anchor="middle" x="1098.64" y="-231.5" font-family="Helvetica,sans-Serif" font-size="10.00">QtWidgets/QVBoxLayout</text>
</a>
</g>
</g>
<!-- Node3&#45;&gt;Node16 -->
<g id="edge15" class="edge">
<title>Node3&#45;&gt;Node16</title>
<path fill="none" stroke="midnightblue" d="M1098.64,-280.08C1098.64,-273.01 1098.64,-262.86 1098.64,-253.99"/>
<polygon fill="midnightblue" stroke="midnightblue" points="1102.14,-253.75 1098.64,-243.75 1095.14,-253.75 1102.14,-253.75"/>
</g>
<!-- Node17 -->
<g id="node17" class="node">
<title>Node17</title>
<g id="a_node17"><a xlink:title=" ">
<polygon fill="white" stroke="#bfbfbf" points="1185.14,-224.5 1185.14,-243.5 1298.14,-243.5 1298.14,-224.5 1185.14,-224.5"/>
<text text-anchor="middle" x="1241.64" y="-231.5" font-family="Helvetica,sans-Serif" font-size="10.00">QtWidgets/QWidget</text>
</a>
</g>
</g>
<!-- Node3&#45;&gt;Node17 -->
<g id="edge16" class="edge">
<title>Node3&#45;&gt;Node17</title>
<path fill="none" stroke="midnightblue" d="M1121.3,-280.44C1145.04,-271.48 1182.55,-257.31 1209.38,-247.18"/>
<polygon fill="midnightblue" stroke="midnightblue" points="1210.97,-250.32 1219.09,-243.52 1208.5,-243.77 1210.97,-250.32"/>
</g>
<!-- Node19 -->
<g id="node19" class="node">
<title>Node19</title>
<g id="a_node19"><a xlink:title=" ">
<polygon fill="white" stroke="#bfbfbf" points="2691.64,-0.5 2691.64,-19.5 2741.64,-19.5 2741.64,-0.5 2691.64,-0.5"/>
<text text-anchor="middle" x="2716.64" y="-7.5" font-family="Helvetica,sans-Serif" font-size="10.00">cstdint</text>
</a>
</g>
</g>
<!-- Node18&#45;&gt;Node19 -->
<g id="edge18" class="edge">
<title>Node18&#45;&gt;Node19</title>
<path fill="none" stroke="midnightblue" d="M2110.91,-224.48C2108.69,-211.09 2106.45,-184.92 2118.64,-168 2191.02,-67.58 2254.42,-89.27 2373.64,-56 2483.29,-25.4 2618.59,-15.44 2681.46,-12.34"/>
<polygon fill="midnightblue" stroke="midnightblue" points="2681.8,-15.83 2691.62,-11.86 2681.47,-8.83 2681.8,-15.83"/>
</g>
<!-- Node20 -->
<g id="node20" class="node">
<title>Node20</title>
<g id="a_node20"><a xlink:href="ITCPConnection_8hpp.html" target="_top" xlink:title=" ">
<polygon fill="white" stroke="red" points="2127.64,-168.5 2127.64,-187.5 2285.64,-187.5 2285.64,-168.5 2127.64,-168.5"/>
<text text-anchor="middle" x="2206.64" y="-175.5" font-family="Helvetica,sans-Serif" font-size="10.00">Network/ITCPConnection.hpp</text>
</a>
</g>
</g>
<!-- Node18&#45;&gt;Node20 -->
<g id="edge19" class="edge">
<title>Node18&#45;&gt;Node20</title>
<path fill="none" stroke="midnightblue" d="M2127.75,-224.32C2142.55,-215.82 2165.34,-202.73 2182.63,-192.8"/>
<polygon fill="midnightblue" stroke="midnightblue" points="2184.65,-195.67 2191.58,-187.65 2181.16,-189.6 2184.65,-195.67"/>
</g>
<!-- Node18&#45;&gt;Node23 -->
<g id="edge37" class="edge">
<title>Node18&#45;&gt;Node23</title>
<path fill="none" stroke="midnightblue" d="M2106.84,-224.37C2094.62,-206.22 2066.09,-163.8 2050.07,-139.99"/>
<polygon fill="midnightblue" stroke="midnightblue" points="2052.91,-137.94 2044.42,-131.59 2047.1,-141.84 2052.91,-137.94"/>
</g>
<!-- Node18&#45;&gt;Node38 -->
<g id="edge33" class="edge">
<title>Node18&#45;&gt;Node38</title>
<path fill="none" stroke="midnightblue" d="M2195.86,-228.44C2384.3,-218.12 2841.29,-193.09 3022.65,-183.16"/>
<polygon fill="midnightblue" stroke="midnightblue" points="3023.1,-186.64 3032.89,-182.6 3022.71,-179.65 3023.1,-186.64"/>
</g>
<!-- Node39 -->
<g id="node32" class="node">
<title>Node39</title>
<g id="a_node32"><a xlink:title=" ">
<polygon fill="white" stroke="#bfbfbf" points="1875.64,-168.5 1875.64,-187.5 1947.64,-187.5 1947.64,-168.5 1875.64,-168.5"/>
<text text-anchor="middle" x="1911.64" y="-175.5" font-family="Helvetica,sans-Serif" font-size="10.00">QTcpSocket</text>
</a>
</g>
</g>
<!-- Node18&#45;&gt;Node39 -->
<g id="edge35" class="edge">
<title>Node18&#45;&gt;Node39</title>
<path fill="none" stroke="midnightblue" d="M2080.79,-224.44C2046.24,-215.16 1990.96,-200.31 1953.06,-190.13"/>
<polygon fill="midnightblue" stroke="midnightblue" points="1953.91,-186.73 1943.34,-187.52 1952.09,-193.49 1953.91,-186.73"/>
</g>
<!-- Node40 -->
<g id="node33" class="node">
<title>Node40</title>
<g id="a_node33"><a xlink:title=" ">
<polygon fill="white" stroke="#bfbfbf" points="1965.64,-168.5 1965.64,-187.5 2033.64,-187.5 2033.64,-168.5 1965.64,-168.5"/>
<text text-anchor="middle" x="1999.64" y="-175.5" font-family="Helvetica,sans-Serif" font-size="10.00">QtWidgets</text>
</a>
</g>
</g>
<!-- Node18&#45;&gt;Node40 -->
<g id="edge36" class="edge">
<title>Node18&#45;&gt;Node40</title>
<path fill="none" stroke="midnightblue" d="M2094.74,-224.44C2076.39,-215.68 2047.64,-201.94 2026.55,-191.86"/>
<polygon fill="midnightblue" stroke="midnightblue" points="2028,-188.67 2017.46,-187.52 2024.98,-194.99 2028,-188.67"/>
</g>
<!-- Node18&#45;&gt;Node42 -->
<g id="edge38" class="edge">
<title>Node18&#45;&gt;Node42</title>
<path fill="none" stroke="midnightblue" d="M2029.51,-224.73C2026.18,-224.47 2022.88,-224.22 2019.64,-224 1608.9,-195.66 1109.69,-182.99 969.11,-179.82"/>
<polygon fill="midnightblue" stroke="midnightblue" points="968.93,-176.32 958.86,-179.59 968.78,-183.32 968.93,-176.32"/>
</g>
<!-- Node21 -->
<g id="node21" class="node">
<title>Node21</title>
<g id="a_node21"><a xlink:title=" ">
<polygon fill="white" stroke="#bfbfbf" points="2721.64,-112.5 2721.64,-131.5 2765.64,-131.5 2765.64,-112.5 2721.64,-112.5"/>
<text text-anchor="middle" x="2743.64" y="-119.5" font-family="Helvetica,sans-Serif" font-size="10.00">string</text>
</a>
</g>
</g>
<!-- Node20&#45;&gt;Node21 -->
<g id="edge20" class="edge">
<title>Node20&#45;&gt;Node21</title>
<path fill="none" stroke="midnightblue" d="M2285.88,-169.03C2405.92,-156.96 2628.66,-134.56 2711.51,-126.23"/>
<polygon fill="midnightblue" stroke="midnightblue" points="2711.98,-129.7 2721.58,-125.22 2711.28,-122.74 2711.98,-129.7"/>
</g>
<!-- Node22 -->
<g id="node22" class="node">
<title>Node22</title>
<g id="a_node22"><a xlink:title=" ">
<polygon fill="white" stroke="#bfbfbf" points="2394.14,-56.5 2394.14,-75.5 2441.14,-75.5 2441.14,-56.5 2394.14,-56.5"/>
<text text-anchor="middle" x="2417.64" y="-63.5" font-family="Helvetica,sans-Serif" font-size="10.00">vector</text>
</a>
</g>
</g>
<!-- Node20&#45;&gt;Node22 -->
<g id="edge21" class="edge">
<title>Node20&#45;&gt;Node22</title>
<path fill="none" stroke="midnightblue" d="M2218.2,-168.43C2236.38,-155.21 2273.05,-129.52 2306.64,-112 2332.02,-98.76 2362.19,-86.75 2384.67,-78.48"/>
<polygon fill="midnightblue" stroke="midnightblue" points="2385.9,-81.75 2394.1,-75.05 2383.51,-75.17 2385.9,-81.75"/>
</g>
<!-- Node20&#45;&gt;Node23 -->
<g id="edge22" class="edge">
<title>Node20&#45;&gt;Node23</title>
<path fill="none" stroke="midnightblue" d="M2180.02,-168.44C2151.64,-159.32 2106.51,-144.81 2074.89,-134.65"/>
<polygon fill="midnightblue" stroke="midnightblue" points="2075.73,-131.24 2065.14,-131.52 2073.59,-137.91 2075.73,-131.24"/>
</g>
<!-- Node20&#45;&gt;Node24 -->
<g id="edge23" class="edge">
<title>Node20&#45;&gt;Node24</title>
<path fill="none" stroke="midnightblue" d="M2285.7,-171.2C2395.47,-163.04 2600.24,-147.44 2774.64,-132 2780.83,-131.45 2787.25,-130.86 2793.7,-130.26"/>
<polygon fill="midnightblue" stroke="midnightblue" points="2794.18,-133.73 2803.81,-129.3 2793.52,-126.76 2794.18,-133.73"/>
</g>
<!-- Node24&#45;&gt;Node19 -->
<g id="edge28" class="edge">
<title>Node24&#45;&gt;Node19</title>
<path fill="none" stroke="midnightblue" d="M2858.29,-112.37C2845.36,-99.28 2819.43,-74.03 2794.64,-56 2778.2,-44.04 2758.34,-32.63 2742.78,-24.28"/>
<polygon fill="midnightblue" stroke="midnightblue" points="2744.19,-21.07 2733.71,-19.51 2740.93,-27.26 2744.19,-21.07"/>
</g>
<!-- Node24&#45;&gt;Node22 -->
<g id="edge29" class="edge">
<title>Node24&#45;&gt;Node22</title>
<path fill="none" stroke="midnightblue" d="M2803.86,-114.76C2702.89,-104.66 2510.51,-85.05 2451.33,-75.68"/>
<polygon fill="midnightblue" stroke="midnightblue" points="2451.78,-72.2 2441.33,-73.94 2450.59,-79.1 2451.78,-72.2"/>
</g>
<!-- Node25 -->
<g id="node25" class="node">
<title>Node25</title>
<g id="a_node25"><a xlink:href="BabelException_8hpp.html" target="_top" xlink:title=" ">
<polygon fill="white" stroke="red" points="2459.64,-56.5 2459.64,-75.5 2629.64,-75.5 2629.64,-56.5 2459.64,-56.5"/>
<text text-anchor="middle" x="2544.64" y="-63.5" font-family="Helvetica,sans-Serif" font-size="10.00">Exceptions/BabelException.hpp</text>
</a>
</g>
</g>
<!-- Node24&#45;&gt;Node25 -->
<g id="edge24" class="edge">
<title>Node24&#45;&gt;Node25</title>
<path fill="none" stroke="midnightblue" d="M2815.62,-112.44C2758.62,-102.89 2666.4,-87.42 2605.64,-77.23"/>
<polygon fill="midnightblue" stroke="midnightblue" points="2605.87,-73.72 2595.43,-75.52 2604.71,-80.62 2605.87,-73.72"/>
</g>
<!-- Node27 -->
<g id="node26" class="node">
<title>Node27</title>
<g id="a_node26"><a xlink:href="SwapEndian_8hpp.html" target="_top" xlink:title=" ">
<polygon fill="white" stroke="red" points="2647.64,-56.5 2647.64,-75.5 2785.64,-75.5 2785.64,-56.5 2647.64,-56.5"/>
<text text-anchor="middle" x="2716.64" y="-63.5" font-family="Helvetica,sans-Serif" font-size="10.00">Utilities/SwapEndian.hpp</text>
</a>
</g>
</g>
<!-- Node24&#45;&gt;Node27 -->
<g id="edge25" class="edge">
<title>Node24&#45;&gt;Node27</title>
<path fill="none" stroke="midnightblue" d="M2842.87,-112.44C2817.75,-103.4 2777.93,-89.06 2749.74,-78.92"/>
<polygon fill="midnightblue" stroke="midnightblue" points="2750.89,-75.61 2740.3,-75.52 2748.52,-82.2 2750.89,-75.61"/>
</g>
<!-- Node29 -->
<g id="node27" class="node">
<title>Node29</title>
<g id="a_node27"><a xlink:title=" ">
<polygon fill="white" stroke="#bfbfbf" points="2841.64,-56.5 2841.64,-75.5 2891.64,-75.5 2891.64,-56.5 2841.64,-56.5"/>
<text text-anchor="middle" x="2866.64" y="-63.5" font-family="Helvetica,sans-Serif" font-size="10.00">cstring</text>
</a>
</g>
</g>
<!-- Node24&#45;&gt;Node29 -->
<g id="edge27" class="edge">
<title>Node24&#45;&gt;Node29</title>
<path fill="none" stroke="midnightblue" d="M2866.64,-112.08C2866.64,-105.01 2866.64,-94.86 2866.64,-85.99"/>
<polygon fill="midnightblue" stroke="midnightblue" points="2870.14,-85.75 2866.64,-75.75 2863.14,-85.75 2870.14,-85.75"/>
</g>
<!-- Node30 -->
<g id="node28" class="node">
<title>Node30</title>
<g id="a_node28"><a xlink:title=" ">
<polygon fill="white" stroke="#bfbfbf" points="2909.64,-56.5 2909.64,-75.5 2973.64,-75.5 2973.64,-56.5 2909.64,-56.5"/>
<text text-anchor="middle" x="2941.64" y="-63.5" font-family="Helvetica,sans-Serif" font-size="10.00">algorithm</text>
</a>
</g>
</g>
<!-- Node24&#45;&gt;Node30 -->
<g id="edge30" class="edge">
<title>Node24&#45;&gt;Node30</title>
<path fill="none" stroke="midnightblue" d="M2878.69,-112.32C2890.11,-104.11 2907.47,-91.6 2921.08,-81.81"/>
<polygon fill="midnightblue" stroke="midnightblue" points="2923.3,-84.52 2929.37,-75.83 2919.21,-78.84 2923.3,-84.52"/>
</g>
<!-- Node24&#45;&gt;Node31 -->
<g id="edge31" class="edge">
<title>Node24&#45;&gt;Node31</title>
<path fill="none" stroke="midnightblue" d="M2898.81,-112.44C2934.32,-103 2991.51,-87.78 3029.82,-77.59"/>
<polygon fill="midnightblue" stroke="midnightblue" points="3030.85,-80.94 3039.61,-74.99 3029.05,-74.18 3030.85,-80.94"/>
</g>
<!-- Node32 -->
<g id="node30" class="node">
<title>Node32</title>
<g id="a_node30"><a xlink:title=" ">
<polygon fill="white" stroke="#bfbfbf" points="2992.14,-56.5 2992.14,-75.5 3021.14,-75.5 3021.14,-56.5 2992.14,-56.5"/>
<text text-anchor="middle" x="3006.64" y="-63.5" font-family="Helvetica,sans-Serif" font-size="10.00">bit</text>
</a>
</g>
</g>
<!-- Node24&#45;&gt;Node32 -->
<g id="edge32" class="edge">
<title>Node24&#45;&gt;Node32</title>
<path fill="none" stroke="midnightblue" d="M2888.83,-112.44C2914.28,-102.62 2955.9,-86.57 2982.25,-76.41"/>
<polygon fill="midnightblue" stroke="midnightblue" points="2983.79,-79.56 2991.86,-72.7 2981.27,-73.03 2983.79,-79.56"/>
</g>
<!-- Node27&#45;&gt;Node19 -->
<g id="edge26" class="edge">
<title>Node27&#45;&gt;Node19</title>
<path fill="none" stroke="midnightblue" d="M2716.64,-56.08C2716.64,-49.01 2716.64,-38.86 2716.64,-29.99"/>
<polygon fill="midnightblue" stroke="midnightblue" points="2720.14,-29.75 2716.64,-19.75 2713.14,-29.75 2720.14,-29.75"/>
</g>
<!-- Node38&#45;&gt;Node19 -->
<g id="edge34" class="edge">
<title>Node38&#45;&gt;Node19</title>
<path fill="none" stroke="midnightblue" d="M3103.1,-168.35C3113.69,-146.44 3137.4,-88.25 3108.64,-56 3085.07,-29.57 2843.75,-16.47 2751.89,-12.42"/>
<polygon fill="midnightblue" stroke="midnightblue" points="2751.84,-8.91 2741.7,-11.98 2751.54,-15.91 2751.84,-8.91"/>
</g>
<!-- Node45&#45;&gt;Node18 -->
<g id="edge56" class="edge">
<title>Node45&#45;&gt;Node18</title>
<path fill="none" stroke="midnightblue" d="M2576.74,-283.47C2489.11,-274.32 2312.76,-255.9 2204.46,-244.59"/>
<polygon fill="midnightblue" stroke="midnightblue" points="2204.51,-241.08 2194.2,-243.52 2203.78,-248.04 2204.51,-241.08"/>
</g>
<!-- Node45&#45;&gt;Node38 -->
<g id="edge57" class="edge">
<title>Node45&#45;&gt;Node38</title>
<path fill="none" stroke="midnightblue" d="M2682.15,-286.74C2792.97,-281.54 3043.09,-267.34 3073.64,-244 3087.88,-233.12 3094.01,-213.05 3096.65,-198.08"/>
<polygon fill="midnightblue" stroke="midnightblue" points="3100.16,-198.25 3098.07,-187.86 3093.23,-197.29 3100.16,-198.25"/>
</g>
<!-- Node45&#45;&gt;Node44 -->
<g id="edge45" class="edge">
<title>Node45&#45;&gt;Node44</title>
<path fill="none" stroke="midnightblue" d="M2576.82,-289.32C2496.99,-288.56 2351.4,-281.84 2318.64,-244 2305.01,-228.26 2323.28,-207.75 2339.82,-194.02"/>
<polygon fill="midnightblue" stroke="midnightblue" points="2342.41,-196.44 2348.13,-187.52 2338.1,-190.92 2342.41,-196.44"/>
</g>
<!-- Node46 -->
<g id="node38" class="node">
<title>Node46</title>
<g id="a_node38"><a xlink:title=" ">
<polygon fill="white" stroke="#bfbfbf" points="2481.64,-224.5 2481.64,-243.5 2539.64,-243.5 2539.64,-224.5 2481.64,-224.5"/>
<text text-anchor="middle" x="2510.64" y="-231.5" font-family="Helvetica,sans-Serif" font-size="10.00">memory</text>
</a>
</g>
</g>
<!-- Node45&#45;&gt;Node46 -->
<g id="edge44" class="edge">
<title>Node45&#45;&gt;Node46</title>
<path fill="none" stroke="midnightblue" d="M2610.79,-280.44C2591.38,-271.64 2560.91,-257.81 2538.68,-247.72"/>
<polygon fill="midnightblue" stroke="midnightblue" points="2539.96,-244.46 2529.41,-243.52 2537.07,-250.84 2539.96,-244.46"/>
</g>
<!-- Node47 -->
<g id="node39" class="node">
<title>Node47</title>
<g id="a_node39"><a xlink:title=" ">
<polygon fill="white" stroke="#bfbfbf" points="2557.64,-224.5 2557.64,-243.5 2605.64,-243.5 2605.64,-224.5 2557.64,-224.5"/>
<text text-anchor="middle" x="2581.64" y="-231.5" font-family="Helvetica,sans-Serif" font-size="10.00">thread</text>
</a>
</g>
</g>
<!-- Node45&#45;&gt;Node47 -->
<g id="edge46" class="edge">
<title>Node45&#45;&gt;Node47</title>
<path fill="none" stroke="midnightblue" d="M2621.72,-280.08C2614.8,-272.3 2604.58,-260.8 2596.19,-251.37"/>
<polygon fill="midnightblue" stroke="midnightblue" points="2598.68,-248.9 2589.42,-243.75 2593.45,-253.55 2598.68,-248.9"/>
</g>
<!-- Node35 -->
<g id="node40" class="node">
<title>Node35</title>
<g id="a_node40"><a xlink:title=" ">
<polygon fill="white" stroke="#bfbfbf" points="2624.14,-224.5 2624.14,-243.5 2731.14,-243.5 2731.14,-224.5 2624.14,-224.5"/>
<text text-anchor="middle" x="2677.64" y="-231.5" font-family="Helvetica,sans-Serif" font-size="10.00">condition_variable</text>
</a>
</g>
</g>
<!-- Node45&#45;&gt;Node35 -->
<g id="edge47" class="edge">
<title>Node45&#45;&gt;Node35</title>
<path fill="none" stroke="midnightblue" d="M2637.57,-280.08C2644.49,-272.3 2654.71,-260.8 2663.09,-251.37"/>
<polygon fill="midnightblue" stroke="midnightblue" points="2665.84,-253.55 2669.86,-243.75 2660.6,-248.9 2665.84,-253.55"/>
</g>
<!-- Node48 -->
<g id="node41" class="node">
<title>Node48</title>
<g id="a_node41"><a xlink:title=" ">
<polygon fill="white" stroke="#bfbfbf" points="2749.14,-224.5 2749.14,-243.5 2828.14,-243.5 2828.14,-224.5 2749.14,-224.5"/>
<text text-anchor="middle" x="2788.64" y="-231.5" font-family="Helvetica,sans-Serif" font-size="10.00">QApplication</text>
</a>
</g>
</g>
<!-- Node45&#45;&gt;Node48 -->
<g id="edge48" class="edge">
<title>Node45&#45;&gt;Node48</title>
<path fill="none" stroke="midnightblue" d="M2654.84,-280.44C2681.59,-271.36 2724.05,-256.94 2753.95,-246.78"/>
<polygon fill="midnightblue" stroke="midnightblue" points="2755.22,-250.05 2763.57,-243.52 2752.97,-243.42 2755.22,-250.05"/>
</g>
<!-- Node49 -->
<g id="node42" class="node">
<title>Node49</title>
<g id="a_node42"><a xlink:href="ICodec_8hpp.html" target="_top" xlink:title=" ">
<polygon fill="white" stroke="black" points="2474.14,-168.5 2474.14,-187.5 2603.14,-187.5 2603.14,-168.5 2474.14,-168.5"/>
<text text-anchor="middle" x="2538.64" y="-175.5" font-family="Helvetica,sans-Serif" font-size="10.00">Audio/Opus/ICodec.hpp</text>
</a>
</g>
</g>
<!-- Node45&#45;&gt;Node49 -->
<g id="edge49" class="edge">
<title>Node45&#45;&gt;Node49</title>
<path fill="none" stroke="midnightblue" d="M2682.43,-288.88C2757.53,-286.93 2881.41,-276.04 2836.64,-224 2822.21,-207.23 2696.79,-192.98 2613.32,-185.24"/>
<polygon fill="midnightblue" stroke="midnightblue" points="2613.64,-181.75 2603.36,-184.32 2613,-188.72 2613.64,-181.75"/>
</g>
<!-- Node50 -->
<g id="node43" class="node">
<title>Node50</title>
<g id="a_node43"><a xlink:href="IAudioManager_8hpp.html" target="_top" xlink:title=" ">
<polygon fill="white" stroke="black" points="2316.14,-112.5 2316.14,-131.5 2457.14,-131.5 2457.14,-112.5 2316.14,-112.5"/>
<text text-anchor="middle" x="2386.64" y="-119.5" font-family="Helvetica,sans-Serif" font-size="10.00">Audio/IAudioManager.hpp</text>
</a>
</g>
</g>
<!-- Node45&#45;&gt;Node50 -->
<g id="edge50" class="edge">
<title>Node45&#45;&gt;Node50</title>
<path fill="none" stroke="midnightblue" d="M2577.14,-289.55C2495.65,-289.15 2344.53,-283 2310.64,-244 2280.45,-209.25 2333.96,-161.31 2365.69,-137.55"/>
<polygon fill="midnightblue" stroke="midnightblue" points="2367.95,-140.24 2373.97,-131.52 2363.83,-134.58 2367.95,-140.24"/>
</g>
<!-- Node51 -->
<g id="node44" class="node">
<title>Node51</title>
<g id="a_node44"><a xlink:href="PortAudioException_8hpp.html" target="_top" xlink:title=" ">
<polygon fill="white" stroke="black" points="2661.64,-168.5 2661.64,-187.5 2825.64,-187.5 2825.64,-168.5 2661.64,-168.5"/>
<text text-anchor="middle" x="2743.64" y="-175.5" font-family="Helvetica,sans-Serif" font-size="10.00">Audio/PortAudioException.hpp</text>
</a>
</g>
</g>
<!-- Node45&#45;&gt;Node51 -->
<g id="edge53" class="edge">
<title>Node45&#45;&gt;Node51</title>
<path fill="none" stroke="midnightblue" d="M2682.28,-285.98C2741.81,-281.34 2833.27,-270.07 2854.64,-244 2875.7,-218.32 2834.83,-200.54 2796.88,-190.15"/>
<polygon fill="midnightblue" stroke="midnightblue" points="2797.39,-186.66 2786.83,-187.54 2795.63,-193.44 2797.39,-186.66"/>
</g>
<!-- Node52 -->
<g id="node45" class="node">
<title>Node52</title>
<g id="a_node45"><a xlink:href="UDPSocket_8hpp.html" target="_top" xlink:title=" ">
<polygon fill="white" stroke="red" points="2328.14,-224.5 2328.14,-243.5 2463.14,-243.5 2463.14,-224.5 2328.14,-224.5"/>
<text text-anchor="middle" x="2395.64" y="-231.5" font-family="Helvetica,sans-Serif" font-size="10.00">Network/UDPSocket.hpp</text>
</a>
</g>
</g>
<!-- Node45&#45;&gt;Node52 -->
<g id="edge58" class="edge">
<title>Node45&#45;&gt;Node52</title>
<path fill="none" stroke="midnightblue" d="M2592.56,-280.44C2551.92,-271.06 2486.61,-255.99 2442.46,-245.8"/>
<polygon fill="midnightblue" stroke="midnightblue" points="2443.08,-242.35 2432.55,-243.52 2441.5,-249.18 2443.08,-242.35"/>
</g>
<!-- Node54 -->
<g id="node46" class="node">
<title>Node54</title>
<g id="a_node46"><a xlink:href="AudioPacket_8hpp.html" target="_top" xlink:title=" ">
<polygon fill="white" stroke="red" points="2923.14,-224.5 2923.14,-243.5 3064.14,-243.5 3064.14,-224.5 2923.14,-224.5"/>
<text text-anchor="middle" x="2993.64" y="-231.5" font-family="Helvetica,sans-Serif" font-size="10.00">Network/AudioPacket.hpp</text>
</a>
</g>
</g>
<!-- Node45&#45;&gt;Node54 -->
<g id="edge62" class="edge">
<title>Node45&#45;&gt;Node54</title>
<path fill="none" stroke="midnightblue" d="M2682.18,-281.21C2746.55,-271.66 2855.7,-255.46 2926.2,-245"/>
<polygon fill="midnightblue" stroke="midnightblue" points="2926.94,-248.43 2936.31,-243.5 2925.91,-241.51 2926.94,-248.43"/>
</g>
<!-- Node50&#45;&gt;Node19 -->
<g id="edge52" class="edge">
<title>Node50&#45;&gt;Node19</title>
<path fill="none" stroke="midnightblue" d="M2383.01,-112.18C2377.99,-98.38 2370.98,-71.64 2384.64,-56 2422.88,-12.23 2603.75,-9.37 2681.25,-10.23"/>
<polygon fill="midnightblue" stroke="midnightblue" points="2681.43,-13.73 2691.48,-10.37 2681.53,-6.73 2681.43,-13.73"/>
</g>
<!-- Node50&#45;&gt;Node22 -->
<g id="edge51" class="edge">
<title>Node50&#45;&gt;Node22</title>
<path fill="none" stroke="midnightblue" d="M2391.76,-112.08C2396.05,-104.61 2402.3,-93.72 2407.59,-84.52"/>
<polygon fill="midnightblue" stroke="midnightblue" points="2410.68,-86.17 2412.62,-75.75 2404.61,-82.68 2410.68,-86.17"/>
</g>
<!-- Node51&#45;&gt;Node21 -->
<g id="edge54" class="edge">
<title>Node51&#45;&gt;Node21</title>
<path fill="none" stroke="midnightblue" d="M2743.64,-168.08C2743.64,-161.01 2743.64,-150.86 2743.64,-141.99"/>
<polygon fill="midnightblue" stroke="midnightblue" points="2747.14,-141.75 2743.64,-131.75 2740.14,-141.75 2747.14,-141.75"/>
</g>
<!-- Node51&#45;&gt;Node25 -->
<g id="edge55" class="edge">
<title>Node51&#45;&gt;Node25</title>
<path fill="none" stroke="midnightblue" d="M2728.03,-168.37C2693.52,-149.29 2610.53,-103.42 2569.08,-80.51"/>
<polygon fill="midnightblue" stroke="midnightblue" points="2570.63,-77.37 2560.19,-75.59 2567.24,-83.49 2570.63,-77.37"/>
</g>
<!-- Node52&#45;&gt;Node44 -->
<g id="edge59" class="edge">
<title>Node52&#45;&gt;Node44</title>
<path fill="none" stroke="midnightblue" d="M2389.86,-224.08C2384.97,-216.53 2377.82,-205.49 2371.81,-196.23"/>
<polygon fill="midnightblue" stroke="midnightblue" points="2374.69,-194.24 2366.31,-187.75 2368.82,-198.05 2374.69,-194.24"/>
</g>
<!-- Node52&#45;&gt;Node49 -->
<g id="edge60" class="edge">
<title>Node52&#45;&gt;Node49</title>
<path fill="none" stroke="midnightblue" d="M2418.3,-224.44C2442.04,-215.48 2479.55,-201.31 2506.38,-191.18"/>
<polygon fill="midnightblue" stroke="midnightblue" points="2507.97,-194.32 2516.09,-187.52 2505.5,-187.77 2507.97,-194.32"/>
</g>
<!-- Node52&#45;&gt;Node50 -->
<g id="edge61" class="edge">
<title>Node52&#45;&gt;Node50</title>
<path fill="none" stroke="midnightblue" d="M2394.94,-224.37C2393.48,-206.62 2390.13,-165.67 2388.16,-141.6"/>
<polygon fill="midnightblue" stroke="midnightblue" points="2391.65,-141.27 2387.35,-131.59 2384.67,-141.84 2391.65,-141.27"/>
</g>
<!-- Node56&#45;&gt;Node21 -->
<g id="edge68" class="edge">
<title>Node56&#45;&gt;Node21</title>
<path fill="none" stroke="midnightblue" d="M3246.14,-224.32C3228.25,-208.17 3189.91,-174.54 3173.64,-168 3017.09,-104.99 2962.91,-154.41 2795.64,-132 2789.21,-131.14 2782.35,-130.06 2775.8,-128.96"/>
<polygon fill="midnightblue" stroke="midnightblue" points="2776.31,-125.5 2765.85,-127.23 2775.1,-132.39 2776.31,-125.5"/>
</g>
<!-- Node56&#45;&gt;Node24 -->
<g id="edge70" class="edge">
<title>Node56&#45;&gt;Node24</title>
<path fill="none" stroke="midnightblue" d="M3251.75,-224.05C3244.93,-209.56 3229.35,-181.25 3206.64,-168 3162.66,-142.34 3025.67,-130.88 2939.59,-126.1"/>
<polygon fill="midnightblue" stroke="midnightblue" points="2939.53,-122.59 2929.35,-125.55 2939.15,-129.58 2939.53,-122.59"/>
</g>
<!-- Node56&#45;&gt;Node38 -->
<g id="edge71" class="edge">
<title>Node56&#45;&gt;Node38</title>
<path fill="none" stroke="midnightblue" d="M3230.77,-224.44C3204.35,-215.36 3162.43,-200.94 3132.9,-190.78"/>
<polygon fill="midnightblue" stroke="midnightblue" points="3134,-187.46 3123.4,-187.52 3131.72,-194.08 3134,-187.46"/>
</g>
<!-- Node57 -->
<g id="node48" class="node">
<title>Node57</title>
<g id="a_node48"><a xlink:title=" ">
<polygon fill="white" stroke="#bfbfbf" points="3258.64,-168.5 3258.64,-187.5 3314.64,-187.5 3314.64,-168.5 3258.64,-168.5"/>
<text text-anchor="middle" x="3286.64" y="-175.5" font-family="Helvetica,sans-Serif" font-size="10.00">sstream</text>
</a>
</g>
</g>
<!-- Node56&#45;&gt;Node57 -->
<g id="edge69" class="edge">
<title>Node56&#45;&gt;Node57</title>
<path fill="none" stroke="midnightblue" d="M3260.76,-224.08C3265.05,-216.61 3271.3,-205.72 3276.59,-196.52"/>
<polygon fill="midnightblue" stroke="midnightblue" points="3279.68,-198.17 3281.62,-187.75 3273.61,-194.68 3279.68,-198.17"/>
</g>
</g>
</svg>
