<?xml version="1.0" encoding="UTF-8" standalone="no"?>
<!DOCTYPE svg PUBLIC "-//W3C//DTD SVG 1.1//EN"
 "http://www.w3.org/Graphics/SVG/1.1/DTD/svg11.dtd">
<!-- Generated by graphviz version 2.43.0 (0)
 -->
<!-- Title: Client/src/Windows/HomePage.hpp Pages: 1 -->
<svg width="3583pt" height="375pt"
 viewBox="0.00 0.00 3583.17 375.00" xmlns="http://www.w3.org/2000/svg" xmlns:xlink="http://www.w3.org/1999/xlink">
<g id="graph0" class="graph" transform="scale(1 1) rotate(0) translate(4 371)">
<title>Client/src/Windows/HomePage.hpp</title>
<polygon fill="white" stroke="transparent" points="-4,4 -4,-371 3579.17,-371 3579.17,4 -4,4"/>
<!-- Node1 -->
<g id="node1" class="node">
<title>Node1</title>
<g id="a_node1"><a xlink:title=" ">
<polygon fill="#bfbfbf" stroke="black" points="2179,-336.5 2179,-366.5 2289,-366.5 2289,-336.5 2179,-336.5"/>
<text text-anchor="start" x="2187" y="-354.5" font-family="Helvetica,sans-Serif" font-size="10.00">Client/src/Windows</text>
<text text-anchor="middle" x="2234" y="-343.5" font-family="Helvetica,sans-Serif" font-size="10.00">/HomePage.hpp</text>
</a>
</g>
</g>
<!-- Node2 -->
<g id="node2" class="node">
<title>Node2</title>
<g id="a_node2"><a xlink:href="UIHomePage_8hpp.html" target="_top" xlink:title=" ">
<polygon fill="white" stroke="black" points="1024.5,-280.5 1024.5,-299.5 1137.5,-299.5 1137.5,-280.5 1024.5,-280.5"/>
<text text-anchor="middle" x="1081" y="-287.5" font-family="Helvetica,sans-Serif" font-size="10.00">ui/UIHomePage.hpp</text>
</a>
</g>
</g>
<!-- Node1&#45;&gt;Node2 -->
<g id="edge1" class="edge">
<title>Node1&#45;&gt;Node2</title>
<path fill="none" stroke="midnightblue" d="M2178.78,-347.65C1987.83,-337.8 1355.89,-305.19 1147.97,-294.46"/>
<polygon fill="midnightblue" stroke="midnightblue" points="1147.97,-290.95 1137.81,-293.93 1147.61,-297.94 1147.97,-290.95"/>
</g>
<!-- Node17 -->
<g id="node17" class="node">
<title>Node17</title>
<g id="a_node17"><a xlink:href="QtTCPConnection_8hpp.html" target="_top" xlink:title=" ">
<polygon fill="white" stroke="black" points="2232,-224.5 2232,-243.5 2398,-243.5 2398,-224.5 2232,-224.5"/>
<text text-anchor="middle" x="2315" y="-231.5" font-family="Helvetica,sans-Serif" font-size="10.00">Network/QtTCPConnection.hpp</text>
</a>
</g>
</g>
<!-- Node1&#45;&gt;Node17 -->
<g id="edge16" class="edge">
<title>Node1&#45;&gt;Node17</title>
<path fill="none" stroke="midnightblue" d="M2235.03,-336.36C2236.73,-321.24 2241.21,-297.12 2253,-280 2261.98,-266.95 2276.03,-256.31 2288.48,-248.65"/>
<polygon fill="midnightblue" stroke="midnightblue" points="2290.27,-251.66 2297.17,-243.61 2286.76,-245.6 2290.27,-251.66"/>
</g>
<!-- Node22 -->
<g id="node22" class="node">
<title>Node22</title>
<g id="a_node22"><a xlink:title=" ">
<polygon fill="white" stroke="#bfbfbf" points="2090.5,-112.5 2090.5,-131.5 2155.5,-131.5 2155.5,-112.5 2090.5,-112.5"/>
<text text-anchor="middle" x="2123" y="-119.5" font-family="Helvetica,sans-Serif" font-size="10.00">functional</text>
</a>
</g>
</g>
<!-- Node1&#45;&gt;Node22 -->
<g id="edge43" class="edge">
<title>Node1&#45;&gt;Node22</title>
<path fill="none" stroke="midnightblue" d="M2201.5,-336.31C2153.36,-313.26 2065.04,-262.59 2030,-188 2017.61,-161.61 2050.62,-144.01 2080.68,-133.86"/>
<polygon fill="midnightblue" stroke="midnightblue" points="2081.8,-137.18 2090.28,-130.82 2079.69,-130.5 2081.8,-137.18"/>
</g>
<!-- Node41 -->
<g id="node37" class="node">
<title>Node41</title>
<g id="a_node37"><a xlink:title=" ">
<polygon fill="white" stroke="#bfbfbf" points="2039,-168.5 2039,-187.5 2095,-187.5 2095,-168.5 2039,-168.5"/>
<text text-anchor="middle" x="2067" y="-175.5" font-family="Helvetica,sans-Serif" font-size="10.00">QObject</text>
</a>
</g>
</g>
<!-- Node1&#45;&gt;Node41 -->
<g id="edge45" class="edge">
<title>Node1&#45;&gt;Node41</title>
<path fill="none" stroke="midnightblue" d="M2220.33,-336.47C2189.6,-304.9 2115.17,-228.47 2082.65,-195.07"/>
<polygon fill="midnightblue" stroke="midnightblue" points="2084.82,-192.28 2075.34,-187.56 2079.8,-197.17 2084.82,-192.28"/>
</g>
<!-- Node42 -->
<g id="node38" class="node">
<title>Node42</title>
<g id="a_node38"><a xlink:title=" ">
<polygon fill="white" stroke="#bfbfbf" points="2262.5,-280.5 2262.5,-299.5 2349.5,-299.5 2349.5,-280.5 2262.5,-280.5"/>
<text text-anchor="middle" x="2306" y="-287.5" font-family="Helvetica,sans-Serif" font-size="10.00">QMainWindow</text>
</a>
</g>
</g>
<!-- Node1&#45;&gt;Node42 -->
<g id="edge42" class="edge">
<title>Node1&#45;&gt;Node42</title>
<path fill="none" stroke="midnightblue" d="M2251.06,-336.4C2262.06,-327.31 2276.37,-315.49 2287.62,-306.19"/>
<polygon fill="midnightblue" stroke="midnightblue" points="2290.04,-308.73 2295.52,-299.66 2285.59,-303.33 2290.04,-308.73"/>
</g>
<!-- Node43 -->
<g id="node39" class="node">
<title>Node43</title>
<g id="a_node39"><a xlink:title=" ">
<polygon fill="white" stroke="#bfbfbf" points="3324,-168.5 3324,-187.5 3362,-187.5 3362,-168.5 3324,-168.5"/>
<text text-anchor="middle" x="3343" y="-175.5" font-family="Helvetica,sans-Serif" font-size="10.00">map</text>
</a>
</g>
</g>
<!-- Node1&#45;&gt;Node43 -->
<g id="edge44" class="edge">
<title>Node1&#45;&gt;Node43</title>
<path fill="none" stroke="midnightblue" d="M2289.39,-349.82C2423.56,-347.58 2776.39,-338.22 3068,-300 3192.1,-283.73 3264.78,-340.91 3344,-244 3354.47,-231.19 3352.62,-211.73 3349.13,-197.44"/>
<polygon fill="midnightblue" stroke="midnightblue" points="3352.46,-196.35 3346.31,-187.72 3345.73,-198.3 3352.46,-196.35"/>
</g>
<!-- Node44 -->
<g id="node40" class="node">
<title>Node44</title>
<g id="a_node40"><a xlink:href="SoundHandler_8hpp.html" target="_top" xlink:title=" ">
<polygon fill="white" stroke="black" points="2954.5,-280.5 2954.5,-299.5 3059.5,-299.5 3059.5,-280.5 2954.5,-280.5"/>
<text text-anchor="middle" x="3007" y="-287.5" font-family="Helvetica,sans-Serif" font-size="10.00">SoundHandler.hpp</text>
</a>
</g>
</g>
<!-- Node1&#45;&gt;Node44 -->
<g id="edge46" class="edge">
<title>Node1&#45;&gt;Node44</title>
<path fill="none" stroke="midnightblue" d="M2289.28,-346.24C2429.16,-335.48 2796.47,-307.21 2944.17,-295.84"/>
<polygon fill="midnightblue" stroke="midnightblue" points="2944.71,-299.3 2954.41,-295.05 2944.17,-292.33 2944.71,-299.3"/>
</g>
<!-- Node3 -->
<g id="node3" class="node">
<title>Node3</title>
<g id="a_node3"><a xlink:title=" ">
<polygon fill="white" stroke="#bfbfbf" points="1591.5,-224.5 1591.5,-243.5 1686.5,-243.5 1686.5,-224.5 1591.5,-224.5"/>
<text text-anchor="middle" x="1639" y="-231.5" font-family="Helvetica,sans-Serif" font-size="10.00">QtCore/QVariant</text>
</a>
</g>
</g>
<!-- Node2&#45;&gt;Node3 -->
<g id="edge2" class="edge">
<title>Node2&#45;&gt;Node3</title>
<path fill="none" stroke="midnightblue" d="M1137.86,-285.14C1229.09,-278.67 1414.04,-264.43 1581.46,-243.98"/>
<polygon fill="midnightblue" stroke="midnightblue" points="1581.95,-247.45 1591.45,-242.75 1581.1,-240.5 1581.95,-247.45"/>
</g>
<!-- Node4 -->
<g id="node4" class="node">
<title>Node4</title>
<g id="a_node4"><a xlink:title=" ">
<polygon fill="white" stroke="#bfbfbf" points="1704.5,-224.5 1704.5,-243.5 1837.5,-243.5 1837.5,-224.5 1704.5,-224.5"/>
<text text-anchor="middle" x="1771" y="-231.5" font-family="Helvetica,sans-Serif" font-size="10.00">QtWidgets/QApplication</text>
</a>
</g>
</g>
<!-- Node2&#45;&gt;Node4 -->
<g id="edge3" class="edge">
<title>Node2&#45;&gt;Node4</title>
<path fill="none" stroke="midnightblue" d="M1137.79,-285.69C1244.52,-279.28 1482.6,-264.11 1694.23,-244.03"/>
<polygon fill="midnightblue" stroke="midnightblue" points="1694.67,-247.5 1704.29,-243.07 1694,-240.54 1694.67,-247.5"/>
</g>
<!-- Node5 -->
<g id="node5" class="node">
<title>Node5</title>
<g id="a_node5"><a xlink:title=" ">
<polygon fill="white" stroke="#bfbfbf" points="1855.5,-224.5 1855.5,-243.5 1982.5,-243.5 1982.5,-224.5 1855.5,-224.5"/>
<text text-anchor="middle" x="1919" y="-231.5" font-family="Helvetica,sans-Serif" font-size="10.00">QtWidgets/QCheckBox</text>
</a>
</g>
</g>
<!-- Node2&#45;&gt;Node5 -->
<g id="edge4" class="edge">
<title>Node2&#45;&gt;Node5</title>
<path fill="none" stroke="midnightblue" d="M1137.71,-286.91C1263.19,-282 1573.96,-268.38 1845.28,-244"/>
<polygon fill="midnightblue" stroke="midnightblue" points="1845.68,-247.48 1855.32,-243.09 1845.05,-240.51 1845.68,-247.48"/>
</g>
<!-- Node6 -->
<g id="node6" class="node">
<title>Node6</title>
<g id="a_node6"><a xlink:title=" ">
<polygon fill="white" stroke="#bfbfbf" points="0,-224.5 0,-243.5 136,-243.5 136,-224.5 0,-224.5"/>
<text text-anchor="middle" x="68" y="-231.5" font-family="Helvetica,sans-Serif" font-size="10.00">QtWidgets/QFormLayout</text>
</a>
</g>
</g>
<!-- Node2&#45;&gt;Node6 -->
<g id="edge5" class="edge">
<title>Node2&#45;&gt;Node6</title>
<path fill="none" stroke="midnightblue" d="M1024.47,-287.63C880.05,-283.83 485.59,-271.66 146.43,-244.06"/>
<polygon fill="midnightblue" stroke="midnightblue" points="146.66,-240.57 136.41,-243.24 146.09,-247.55 146.66,-240.57"/>
</g>
<!-- Node7 -->
<g id="node7" class="node">
<title>Node7</title>
<g id="a_node7"><a xlink:title=" ">
<polygon fill="white" stroke="#bfbfbf" points="154.5,-224.5 154.5,-243.5 285.5,-243.5 285.5,-224.5 154.5,-224.5"/>
<text text-anchor="middle" x="220" y="-231.5" font-family="Helvetica,sans-Serif" font-size="10.00">QtWidgets/QGridLayout</text>
</a>
</g>
</g>
<!-- Node2&#45;&gt;Node7 -->
<g id="edge6" class="edge">
<title>Node2&#45;&gt;Node7</title>
<path fill="none" stroke="midnightblue" d="M1024.2,-286.96C896.26,-282.11 575.59,-268.48 296.17,-244.04"/>
<polygon fill="midnightblue" stroke="midnightblue" points="296.09,-240.53 285.83,-243.13 295.48,-247.5 296.09,-240.53"/>
</g>
<!-- Node8 -->
<g id="node8" class="node">
<title>Node8</title>
<g id="a_node8"><a xlink:title=" ">
<polygon fill="white" stroke="#bfbfbf" points="304,-224.5 304,-243.5 408,-243.5 408,-224.5 304,-224.5"/>
<text text-anchor="middle" x="356" y="-231.5" font-family="Helvetica,sans-Serif" font-size="10.00">QtWidgets/QLabel</text>
</a>
</g>
</g>
<!-- Node2&#45;&gt;Node8 -->
<g id="edge7" class="edge">
<title>Node2&#45;&gt;Node8</title>
<path fill="none" stroke="midnightblue" d="M1024.46,-286.67C911.39,-281.69 649.13,-268.5 418.47,-244.08"/>
<polygon fill="midnightblue" stroke="midnightblue" points="418.52,-240.56 408.21,-242.98 417.78,-247.52 418.52,-240.56"/>
</g>
<!-- Node9 -->
<g id="node9" class="node">
<title>Node9</title>
<g id="a_node9"><a xlink:title=" ">
<polygon fill="white" stroke="#bfbfbf" points="426.5,-224.5 426.5,-243.5 543.5,-243.5 543.5,-224.5 426.5,-224.5"/>
<text text-anchor="middle" x="485" y="-231.5" font-family="Helvetica,sans-Serif" font-size="10.00">QtWidgets/QLineEdit</text>
</a>
</g>
</g>
<!-- Node2&#45;&gt;Node9 -->
<g id="edge8" class="edge">
<title>Node2&#45;&gt;Node9</title>
<path fill="none" stroke="midnightblue" d="M1024.27,-285.04C929.27,-278.21 731.76,-263.19 553.66,-244.02"/>
<polygon fill="midnightblue" stroke="midnightblue" points="553.9,-240.53 543.58,-242.93 553.15,-247.49 553.9,-240.53"/>
</g>
<!-- Node10 -->
<g id="node10" class="node">
<title>Node10</title>
<g id="a_node10"><a xlink:title=" ">
<polygon fill="white" stroke="#bfbfbf" points="562,-224.5 562,-243.5 692,-243.5 692,-224.5 562,-224.5"/>
<text text-anchor="middle" x="627" y="-231.5" font-family="Helvetica,sans-Serif" font-size="10.00">QtWidgets/QListWidget</text>
</a>
</g>
</g>
<!-- Node2&#45;&gt;Node10 -->
<g id="edge9" class="edge">
<title>Node2&#45;&gt;Node10</title>
<path fill="none" stroke="midnightblue" d="M1024.34,-282.35C952.11,-273.85 823.07,-258.64 702.51,-244.18"/>
<polygon fill="midnightblue" stroke="midnightblue" points="702.71,-240.68 692.37,-242.96 701.88,-247.63 702.71,-240.68"/>
</g>
<!-- Node11 -->
<g id="node11" class="node">
<title>Node11</title>
<g id="a_node11"><a xlink:title=" ">
<polygon fill="white" stroke="#bfbfbf" points="710.5,-224.5 710.5,-243.5 851.5,-243.5 851.5,-224.5 710.5,-224.5"/>
<text text-anchor="middle" x="781" y="-231.5" font-family="Helvetica,sans-Serif" font-size="10.00">QtWidgets/QMainWindow</text>
</a>
</g>
</g>
<!-- Node2&#45;&gt;Node11 -->
<g id="edge10" class="edge">
<title>Node2&#45;&gt;Node11</title>
<path fill="none" stroke="midnightblue" d="M1033.46,-280.44C980.47,-270.9 894.8,-255.48 838.18,-245.29"/>
<polygon fill="midnightblue" stroke="midnightblue" points="838.78,-241.84 828.31,-243.52 837.54,-248.73 838.78,-241.84"/>
</g>
<!-- Node12 -->
<g id="node12" class="node">
<title>Node12</title>
<g id="a_node12"><a xlink:title=" ">
<polygon fill="white" stroke="#bfbfbf" points="870,-224.5 870,-243.5 1004,-243.5 1004,-224.5 870,-224.5"/>
<text text-anchor="middle" x="937" y="-231.5" font-family="Helvetica,sans-Serif" font-size="10.00">QtWidgets/QPushButton</text>
</a>
</g>
</g>
<!-- Node2&#45;&gt;Node12 -->
<g id="edge11" class="edge">
<title>Node2&#45;&gt;Node12</title>
<path fill="none" stroke="midnightblue" d="M1058.18,-280.44C1034.17,-271.44 996.17,-257.19 969.13,-247.05"/>
<polygon fill="midnightblue" stroke="midnightblue" points="970.3,-243.75 959.71,-243.52 967.84,-250.3 970.3,-243.75"/>
</g>
<!-- Node13 -->
<g id="node13" class="node">
<title>Node13</title>
<g id="a_node13"><a xlink:title=" ">
<polygon fill="white" stroke="#bfbfbf" points="1022,-224.5 1022,-243.5 1140,-243.5 1140,-224.5 1022,-224.5"/>
<text text-anchor="middle" x="1081" y="-231.5" font-family="Helvetica,sans-Serif" font-size="10.00">QtWidgets/QSpinBox</text>
</a>
</g>
</g>
<!-- Node2&#45;&gt;Node13 -->
<g id="edge12" class="edge">
<title>Node2&#45;&gt;Node13</title>
<path fill="none" stroke="midnightblue" d="M1081,-280.08C1081,-273.01 1081,-262.86 1081,-253.99"/>
<polygon fill="midnightblue" stroke="midnightblue" points="1084.5,-253.75 1081,-243.75 1077.5,-253.75 1084.5,-253.75"/>
</g>
<!-- Node14 -->
<g id="node14" class="node">
<title>Node14</title>
<g id="a_node14"><a xlink:title=" ">
<polygon fill="white" stroke="#bfbfbf" points="1158.5,-224.5 1158.5,-243.5 1287.5,-243.5 1287.5,-224.5 1158.5,-224.5"/>
<text text-anchor="middle" x="1223" y="-231.5" font-family="Helvetica,sans-Serif" font-size="10.00">QtWidgets/QTabWidget</text>
</a>
</g>
</g>
<!-- Node2&#45;&gt;Node14 -->
<g id="edge13" class="edge">
<title>Node2&#45;&gt;Node14</title>
<path fill="none" stroke="midnightblue" d="M1103.5,-280.44C1127.08,-271.48 1164.32,-257.31 1190.96,-247.18"/>
<polygon fill="midnightblue" stroke="midnightblue" points="1192.5,-250.34 1200.6,-243.52 1190.01,-243.8 1192.5,-250.34"/>
</g>
<!-- Node15 -->
<g id="node15" class="node">
<title>Node15</title>
<g id="a_node15"><a xlink:title=" ">
<polygon fill="white" stroke="#bfbfbf" points="1305.5,-224.5 1305.5,-243.5 1442.5,-243.5 1442.5,-224.5 1305.5,-224.5"/>
<text text-anchor="middle" x="1374" y="-231.5" font-family="Helvetica,sans-Serif" font-size="10.00">QtWidgets/QVBoxLayout</text>
</a>
</g>
</g>
<!-- Node2&#45;&gt;Node15 -->
<g id="edge14" class="edge">
<title>Node2&#45;&gt;Node15</title>
<path fill="none" stroke="midnightblue" d="M1127.43,-280.44C1179.08,-270.92 1262.51,-255.55 1317.81,-245.36"/>
<polygon fill="midnightblue" stroke="midnightblue" points="1318.59,-248.77 1327.79,-243.52 1317.32,-241.89 1318.59,-248.77"/>
</g>
<!-- Node16 -->
<g id="node16" class="node">
<title>Node16</title>
<g id="a_node16"><a xlink:title=" ">
<polygon fill="white" stroke="#bfbfbf" points="1460.5,-224.5 1460.5,-243.5 1573.5,-243.5 1573.5,-224.5 1460.5,-224.5"/>
<text text-anchor="middle" x="1517" y="-231.5" font-family="Helvetica,sans-Serif" font-size="10.00">QtWidgets/QWidget</text>
</a>
</g>
</g>
<!-- Node2&#45;&gt;Node16 -->
<g id="edge15" class="edge">
<title>Node2&#45;&gt;Node16</title>
<path fill="none" stroke="midnightblue" d="M1137.76,-282.36C1208.35,-274.03 1332.83,-259.17 1450.24,-244.08"/>
<polygon fill="midnightblue" stroke="midnightblue" points="1451.01,-247.51 1460.48,-242.76 1450.12,-240.57 1451.01,-247.51"/>
</g>
<!-- Node18 -->
<g id="node18" class="node">
<title>Node18</title>
<g id="a_node18"><a xlink:title=" ">
<polygon fill="white" stroke="#bfbfbf" points="2756,-0.5 2756,-19.5 2806,-19.5 2806,-0.5 2756,-0.5"/>
<text text-anchor="middle" x="2781" y="-7.5" font-family="Helvetica,sans-Serif" font-size="10.00">cstdint</text>
</a>
</g>
</g>
<!-- Node17&#45;&gt;Node18 -->
<g id="edge17" class="edge">
<title>Node17&#45;&gt;Node18</title>
<path fill="none" stroke="midnightblue" d="M2398.04,-229.62C2516.31,-224.01 2721.86,-211.07 2747,-188 2791.73,-146.96 2788.19,-66.47 2783.85,-29.89"/>
<polygon fill="midnightblue" stroke="midnightblue" points="2787.28,-29.11 2782.48,-19.67 2780.34,-30.04 2787.28,-29.11"/>
</g>
<!-- Node19 -->
<g id="node19" class="node">
<title>Node19</title>
<g id="a_node19"><a xlink:href="ITCPConnection_8hpp.html" target="_top" xlink:title=" ">
<polygon fill="white" stroke="black" points="2398,-168.5 2398,-187.5 2556,-187.5 2556,-168.5 2398,-168.5"/>
<text text-anchor="middle" x="2477" y="-175.5" font-family="Helvetica,sans-Serif" font-size="10.00">Network/ITCPConnection.hpp</text>
</a>
</g>
</g>
<!-- Node17&#45;&gt;Node19 -->
<g id="edge18" class="edge">
<title>Node17&#45;&gt;Node19</title>
<path fill="none" stroke="midnightblue" d="M2340.67,-224.44C2367.92,-215.36 2411.18,-200.94 2441.65,-190.78"/>
<polygon fill="midnightblue" stroke="midnightblue" points="2443.07,-194 2451.45,-187.52 2440.86,-187.36 2443.07,-194"/>
</g>
<!-- Node17&#45;&gt;Node22 -->
<g id="edge39" class="edge">
<title>Node17&#45;&gt;Node22</title>
<path fill="none" stroke="midnightblue" d="M2231.62,-228.52C2199.96,-222.78 2165.83,-211.13 2142,-188 2129.62,-175.98 2125.19,-156.38 2123.66,-141.84"/>
<polygon fill="midnightblue" stroke="midnightblue" points="2127.13,-141.25 2122.97,-131.51 2120.15,-141.72 2127.13,-141.25"/>
</g>
<!-- Node37 -->
<g id="node33" class="node">
<title>Node37</title>
<g id="a_node33"><a xlink:href="RFCCodes_8hpp.html" target="_top" xlink:title=" ">
<polygon fill="white" stroke="black" points="2832.5,-168.5 2832.5,-187.5 2963.5,-187.5 2963.5,-168.5 2832.5,-168.5"/>
<text text-anchor="middle" x="2898" y="-175.5" font-family="Helvetica,sans-Serif" font-size="10.00">Network/RFCCodes.hpp</text>
</a>
</g>
</g>
<!-- Node17&#45;&gt;Node37 -->
<g id="edge35" class="edge">
<title>Node17&#45;&gt;Node37</title>
<path fill="none" stroke="midnightblue" d="M2398.22,-225.29C2511.56,-214.79 2712.83,-196.15 2822.19,-186.02"/>
<polygon fill="midnightblue" stroke="midnightblue" points="2822.52,-189.51 2832.15,-185.1 2821.87,-182.54 2822.52,-189.51"/>
</g>
<!-- Node38 -->
<g id="node34" class="node">
<title>Node38</title>
<g id="a_node34"><a xlink:title=" ">
<polygon fill="white" stroke="#bfbfbf" points="2151,-168.5 2151,-187.5 2223,-187.5 2223,-168.5 2151,-168.5"/>
<text text-anchor="middle" x="2187" y="-175.5" font-family="Helvetica,sans-Serif" font-size="10.00">QTcpSocket</text>
</a>
</g>
</g>
<!-- Node17&#45;&gt;Node38 -->
<g id="edge37" class="edge">
<title>Node17&#45;&gt;Node38</title>
<path fill="none" stroke="midnightblue" d="M2294.72,-224.44C2273.65,-215.56 2240.48,-201.56 2216.51,-191.45"/>
<polygon fill="midnightblue" stroke="midnightblue" points="2217.76,-188.18 2207.19,-187.52 2215.04,-194.63 2217.76,-188.18"/>
</g>
<!-- Node39 -->
<g id="node35" class="node">
<title>Node39</title>
<g id="a_node35"><a xlink:title=" ">
<polygon fill="white" stroke="#bfbfbf" points="2241,-168.5 2241,-187.5 2309,-187.5 2309,-168.5 2241,-168.5"/>
<text text-anchor="middle" x="2275" y="-175.5" font-family="Helvetica,sans-Serif" font-size="10.00">QtWidgets</text>
</a>
</g>
</g>
<!-- Node17&#45;&gt;Node39 -->
<g id="edge38" class="edge">
<title>Node17&#45;&gt;Node39</title>
<path fill="none" stroke="midnightblue" d="M2308.39,-224.08C2302.74,-216.46 2294.46,-205.26 2287.55,-195.94"/>
<polygon fill="midnightblue" stroke="midnightblue" points="2290.25,-193.7 2281.48,-187.75 2284.62,-197.87 2290.25,-193.7"/>
</g>
<!-- Node40 -->
<g id="node36" class="node">
<title>Node40</title>
<g id="a_node36"><a xlink:title=" ">
<polygon fill="white" stroke="#bfbfbf" points="2327.5,-168.5 2327.5,-187.5 2380.5,-187.5 2380.5,-168.5 2327.5,-168.5"/>
<text text-anchor="middle" x="2354" y="-175.5" font-family="Helvetica,sans-Serif" font-size="10.00">QString</text>
</a>
</g>
</g>
<!-- Node17&#45;&gt;Node40 -->
<g id="edge40" class="edge">
<title>Node17&#45;&gt;Node40</title>
<path fill="none" stroke="midnightblue" d="M2321.44,-224.08C2326.95,-216.46 2335.03,-205.26 2341.76,-195.94"/>
<polygon fill="midnightblue" stroke="midnightblue" points="2344.66,-197.91 2347.68,-187.75 2338.99,-193.81 2344.66,-197.91"/>
</g>
<!-- Node17&#45;&gt;Node41 -->
<g id="edge41" class="edge">
<title>Node17&#45;&gt;Node41</title>
<path fill="none" stroke="midnightblue" d="M2275.7,-224.44C2228.98,-214.27 2151.51,-197.4 2105.25,-187.33"/>
<polygon fill="midnightblue" stroke="midnightblue" points="2105.83,-183.87 2095.31,-185.16 2104.34,-190.71 2105.83,-183.87"/>
</g>
<!-- Node20 -->
<g id="node20" class="node">
<title>Node20</title>
<g id="a_node20"><a xlink:title=" ">
<polygon fill="white" stroke="#bfbfbf" points="2539,-112.5 2539,-131.5 2583,-131.5 2583,-112.5 2539,-112.5"/>
<text text-anchor="middle" x="2561" y="-119.5" font-family="Helvetica,sans-Serif" font-size="10.00">string</text>
</a>
</g>
</g>
<!-- Node19&#45;&gt;Node20 -->
<g id="edge19" class="edge">
<title>Node19&#45;&gt;Node20</title>
<path fill="none" stroke="midnightblue" d="M2490.5,-168.32C2503.6,-159.9 2523.71,-146.97 2539.11,-137.07"/>
<polygon fill="midnightblue" stroke="midnightblue" points="2541.02,-140.01 2547.54,-131.65 2537.23,-134.12 2541.02,-140.01"/>
</g>
<!-- Node21 -->
<g id="node21" class="node">
<title>Node21</title>
<g id="a_node21"><a xlink:title=" ">
<polygon fill="white" stroke="#bfbfbf" points="2705.5,-56.5 2705.5,-75.5 2752.5,-75.5 2752.5,-56.5 2705.5,-56.5"/>
<text text-anchor="middle" x="2729" y="-63.5" font-family="Helvetica,sans-Serif" font-size="10.00">vector</text>
</a>
</g>
</g>
<!-- Node19&#45;&gt;Node21 -->
<g id="edge20" class="edge">
<title>Node19&#45;&gt;Node21</title>
<path fill="none" stroke="midnightblue" d="M2481.54,-168.25C2489.4,-154.06 2506.91,-126.16 2530,-112 2591.71,-74.15 2620.29,-92.28 2695.35,-75.93"/>
<polygon fill="midnightblue" stroke="midnightblue" points="2696.3,-79.31 2705.25,-73.64 2694.71,-72.49 2696.3,-79.31"/>
</g>
<!-- Node19&#45;&gt;Node22 -->
<g id="edge21" class="edge">
<title>Node19&#45;&gt;Node22</title>
<path fill="none" stroke="midnightblue" d="M2420.91,-168.44C2349.99,-157.63 2229.47,-139.24 2165.63,-129.5"/>
<polygon fill="midnightblue" stroke="midnightblue" points="2165.92,-126.01 2155.51,-127.96 2164.87,-132.93 2165.92,-126.01"/>
</g>
<!-- Node23 -->
<g id="node23" class="node">
<title>Node23</title>
<g id="a_node23"><a xlink:href="Message_8hpp.html" target="_top" xlink:title=" ">
<polygon fill="white" stroke="black" points="2270.5,-112.5 2270.5,-131.5 2395.5,-131.5 2395.5,-112.5 2270.5,-112.5"/>
<text text-anchor="middle" x="2333" y="-119.5" font-family="Helvetica,sans-Serif" font-size="10.00">Network/Message.hpp</text>
</a>
</g>
</g>
<!-- Node19&#45;&gt;Node23 -->
<g id="edge22" class="edge">
<title>Node19&#45;&gt;Node23</title>
<path fill="none" stroke="midnightblue" d="M2454.18,-168.44C2430.17,-159.44 2392.17,-145.19 2365.13,-135.05"/>
<polygon fill="midnightblue" stroke="midnightblue" points="2366.3,-131.75 2355.71,-131.52 2363.84,-138.3 2366.3,-131.75"/>
</g>
<!-- Node32 -->
<g id="node30" class="node">
<title>Node32</title>
<g id="a_node30"><a xlink:href="TSQueue_8hpp.html" target="_top" xlink:title=" ">
<polygon fill="white" stroke="red" points="3299,-112.5 3299,-131.5 3421,-131.5 3421,-112.5 3299,-112.5"/>
<text text-anchor="middle" x="3360" y="-119.5" font-family="Helvetica,sans-Serif" font-size="10.00">Utilities/TSQueue.hpp</text>
</a>
</g>
</g>
<!-- Node19&#45;&gt;Node32 -->
<g id="edge32" class="edge">
<title>Node19&#45;&gt;Node32</title>
<path fill="none" stroke="midnightblue" d="M2556.14,-168.74C2559.13,-168.48 2562.09,-168.23 2565,-168 2831.7,-146.82 3149.51,-131.95 3288.73,-125.95"/>
<polygon fill="midnightblue" stroke="midnightblue" points="3289,-129.44 3298.84,-125.51 3288.7,-122.45 3289,-129.44"/>
</g>
<!-- Node23&#45;&gt;Node18 -->
<g id="edge27" class="edge">
<title>Node23&#45;&gt;Node18</title>
<path fill="none" stroke="midnightblue" d="M2332.72,-112.22C2332.79,-97.98 2335.21,-70.01 2352,-56 2382,-30.97 2648.14,-16.84 2745.52,-12.48"/>
<polygon fill="midnightblue" stroke="midnightblue" points="2745.9,-15.97 2755.73,-12.03 2745.59,-8.97 2745.9,-15.97"/>
</g>
<!-- Node23&#45;&gt;Node21 -->
<g id="edge28" class="edge">
<title>Node23&#45;&gt;Node21</title>
<path fill="none" stroke="midnightblue" d="M2395.74,-115.97C2466.32,-109.69 2584.47,-97.34 2695.29,-75.87"/>
<polygon fill="midnightblue" stroke="midnightblue" points="2696.17,-79.26 2705.3,-73.9 2694.82,-72.39 2696.17,-79.26"/>
</g>
<!-- Node24 -->
<g id="node24" class="node">
<title>Node24</title>
<g id="a_node24"><a xlink:href="BabelException_8hpp.html" target="_top" xlink:title=" ">
<polygon fill="white" stroke="red" points="2517,-56.5 2517,-75.5 2687,-75.5 2687,-56.5 2517,-56.5"/>
<text text-anchor="middle" x="2602" y="-63.5" font-family="Helvetica,sans-Serif" font-size="10.00">Exceptions/BabelException.hpp</text>
</a>
</g>
</g>
<!-- Node23&#45;&gt;Node24 -->
<g id="edge23" class="edge">
<title>Node23&#45;&gt;Node24</title>
<path fill="none" stroke="midnightblue" d="M2375.62,-112.44C2422.75,-102.98 2498.69,-87.74 2549.46,-77.55"/>
<polygon fill="midnightblue" stroke="midnightblue" points="2550.46,-80.92 2559.58,-75.52 2549.08,-74.05 2550.46,-80.92"/>
</g>
<!-- Node26 -->
<g id="node25" class="node">
<title>Node26</title>
<g id="a_node25"><a xlink:href="SwapEndian_8hpp.html" target="_top" xlink:title=" ">
<polygon fill="white" stroke="red" points="2361,-56.5 2361,-75.5 2499,-75.5 2499,-56.5 2361,-56.5"/>
<text text-anchor="middle" x="2430" y="-63.5" font-family="Helvetica,sans-Serif" font-size="10.00">Utilities/SwapEndian.hpp</text>
</a>
</g>
</g>
<!-- Node23&#45;&gt;Node26 -->
<g id="edge24" class="edge">
<title>Node23&#45;&gt;Node26</title>
<path fill="none" stroke="midnightblue" d="M2348.58,-112.32C2364,-103.74 2387.81,-90.49 2405.71,-80.52"/>
<polygon fill="midnightblue" stroke="midnightblue" points="2407.42,-83.58 2414.45,-75.65 2404.01,-77.46 2407.42,-83.58"/>
</g>
<!-- Node28 -->
<g id="node26" class="node">
<title>Node28</title>
<g id="a_node26"><a xlink:title=" ">
<polygon fill="white" stroke="#bfbfbf" points="2095,-56.5 2095,-75.5 2145,-75.5 2145,-56.5 2095,-56.5"/>
<text text-anchor="middle" x="2120" y="-63.5" font-family="Helvetica,sans-Serif" font-size="10.00">cstring</text>
</a>
</g>
</g>
<!-- Node23&#45;&gt;Node28 -->
<g id="edge26" class="edge">
<title>Node23&#45;&gt;Node28</title>
<path fill="none" stroke="midnightblue" d="M2298.32,-112.42C2264.28,-103.96 2210.62,-90.56 2155.23,-76.3"/>
<polygon fill="midnightblue" stroke="midnightblue" points="2155.8,-72.83 2145.24,-73.72 2154.05,-79.61 2155.8,-72.83"/>
</g>
<!-- Node29 -->
<g id="node27" class="node">
<title>Node29</title>
<g id="a_node27"><a xlink:title=" ">
<polygon fill="white" stroke="#bfbfbf" points="2163,-56.5 2163,-75.5 2227,-75.5 2227,-56.5 2163,-56.5"/>
<text text-anchor="middle" x="2195" y="-63.5" font-family="Helvetica,sans-Serif" font-size="10.00">algorithm</text>
</a>
</g>
</g>
<!-- Node23&#45;&gt;Node29 -->
<g id="edge29" class="edge">
<title>Node23&#45;&gt;Node29</title>
<path fill="none" stroke="midnightblue" d="M2311.13,-112.44C2288.22,-103.48 2252.02,-89.31 2226.13,-79.18"/>
<polygon fill="midnightblue" stroke="midnightblue" points="2227.35,-75.9 2216.76,-75.52 2224.8,-82.42 2227.35,-75.9"/>
</g>
<!-- Node30 -->
<g id="node28" class="node">
<title>Node30</title>
<g id="a_node28"><a xlink:title=" ">
<polygon fill="white" stroke="#bfbfbf" points="2245,-56.5 2245,-75.5 2305,-75.5 2305,-56.5 2245,-56.5"/>
<text text-anchor="middle" x="2275" y="-63.5" font-family="Helvetica,sans-Serif" font-size="10.00">iostream</text>
</a>
</g>
</g>
<!-- Node23&#45;&gt;Node30 -->
<g id="edge30" class="edge">
<title>Node23&#45;&gt;Node30</title>
<path fill="none" stroke="midnightblue" d="M2323.68,-112.32C2315.11,-104.34 2302.19,-92.31 2291.81,-82.65"/>
<polygon fill="midnightblue" stroke="midnightblue" points="2294.19,-80.09 2284.49,-75.83 2289.42,-85.21 2294.19,-80.09"/>
</g>
<!-- Node31 -->
<g id="node29" class="node">
<title>Node31</title>
<g id="a_node29"><a xlink:title=" ">
<polygon fill="white" stroke="#bfbfbf" points="2047.5,-56.5 2047.5,-75.5 2076.5,-75.5 2076.5,-56.5 2047.5,-56.5"/>
<text text-anchor="middle" x="2062" y="-63.5" font-family="Helvetica,sans-Serif" font-size="10.00">bit</text>
</a>
</g>
</g>
<!-- Node23&#45;&gt;Node31 -->
<g id="edge31" class="edge">
<title>Node23&#45;&gt;Node31</title>
<path fill="none" stroke="midnightblue" d="M2270.39,-112.75C2222.4,-105.71 2154.49,-94.2 2086.6,-75.72"/>
<polygon fill="midnightblue" stroke="midnightblue" points="2087.16,-72.24 2076.59,-72.94 2085.29,-78.99 2087.16,-72.24"/>
</g>
<!-- Node26&#45;&gt;Node18 -->
<g id="edge25" class="edge">
<title>Node26&#45;&gt;Node18</title>
<path fill="none" stroke="midnightblue" d="M2485.62,-56.44C2558.71,-45.2 2684.95,-25.78 2745.97,-16.39"/>
<polygon fill="midnightblue" stroke="midnightblue" points="2746.53,-19.84 2755.88,-14.86 2745.46,-12.93 2746.53,-19.84"/>
</g>
<!-- Node33 -->
<g id="node31" class="node">
<title>Node33</title>
<g id="a_node31"><a xlink:title=" ">
<polygon fill="white" stroke="#bfbfbf" points="3292,-56.5 3292,-75.5 3340,-75.5 3340,-56.5 3292,-56.5"/>
<text text-anchor="middle" x="3316" y="-63.5" font-family="Helvetica,sans-Serif" font-size="10.00">mutex</text>
</a>
</g>
</g>
<!-- Node32&#45;&gt;Node33 -->
<g id="edge33" class="edge">
<title>Node32&#45;&gt;Node33</title>
<path fill="none" stroke="midnightblue" d="M3352.73,-112.08C3346.46,-104.38 3337.21,-93.03 3329.57,-83.65"/>
<polygon fill="midnightblue" stroke="midnightblue" points="3332.16,-81.29 3323.13,-75.75 3326.73,-85.71 3332.16,-81.29"/>
</g>
<!-- Node34 -->
<g id="node32" class="node">
<title>Node34</title>
<g id="a_node32"><a xlink:title=" ">
<polygon fill="white" stroke="#bfbfbf" points="3441.5,-56.5 3441.5,-75.5 3548.5,-75.5 3548.5,-56.5 3441.5,-56.5"/>
<text text-anchor="middle" x="3495" y="-63.5" font-family="Helvetica,sans-Serif" font-size="10.00">condition_variable</text>
</a>
</g>
</g>
<!-- Node32&#45;&gt;Node34 -->
<g id="edge34" class="edge">
<title>Node32&#45;&gt;Node34</title>
<path fill="none" stroke="midnightblue" d="M3381.39,-112.44C3403.71,-103.52 3438.9,-89.44 3464.21,-79.32"/>
<polygon fill="midnightblue" stroke="midnightblue" points="3465.72,-82.48 3473.71,-75.52 3463.12,-75.98 3465.72,-82.48"/>
</g>
<!-- Node37&#45;&gt;Node18 -->
<g id="edge36" class="edge">
<title>Node37&#45;&gt;Node18</title>
<path fill="none" stroke="midnightblue" d="M2911.84,-168.36C2929.36,-156.27 2955.9,-133.38 2944,-112 2916.81,-63.17 2855.18,-34.95 2815.98,-21.3"/>
<polygon fill="midnightblue" stroke="midnightblue" points="2816.88,-17.92 2806.28,-18.07 2814.66,-24.56 2816.88,-17.92"/>
</g>
<!-- Node44&#45;&gt;Node17 -->
<g id="edge59" class="edge">
<title>Node44&#45;&gt;Node17</title>
<path fill="none" stroke="midnightblue" d="M2954.42,-284.9C2837.76,-275.79 2555.96,-253.8 2408.49,-242.3"/>
<polygon fill="midnightblue" stroke="midnightblue" points="2408.35,-238.77 2398.11,-241.49 2407.81,-245.75 2408.35,-238.77"/>
</g>
<!-- Node44&#45;&gt;Node34 -->
<g id="edge50" class="edge">
<title>Node44&#45;&gt;Node34</title>
<path fill="none" stroke="midnightblue" d="M3059.63,-288.68C3191.24,-287.33 3526.5,-280.34 3560,-244 3603.77,-196.52 3541.48,-117.1 3510.6,-83.17"/>
<polygon fill="midnightblue" stroke="midnightblue" points="3512.89,-80.49 3503.51,-75.57 3507.77,-85.27 3512.89,-80.49"/>
</g>
<!-- Node44&#45;&gt;Node37 -->
<g id="edge60" class="edge">
<title>Node44&#45;&gt;Node37</title>
<path fill="none" stroke="midnightblue" d="M2980.33,-280.35C2962.01,-273.2 2938.33,-261.37 2923,-244 2911.38,-230.84 2904.9,-211.7 2901.47,-197.6"/>
<polygon fill="midnightblue" stroke="midnightblue" points="2904.84,-196.62 2899.33,-187.57 2897.99,-198.09 2904.84,-196.62"/>
</g>
<!-- Node44&#45;&gt;Node43 -->
<g id="edge48" class="edge">
<title>Node44&#45;&gt;Node43</title>
<path fill="none" stroke="midnightblue" d="M3059.6,-288.25C3139.29,-286.03 3285.45,-277.39 3324,-244 3337.17,-232.59 3341.46,-212.61 3342.74,-197.8"/>
<polygon fill="midnightblue" stroke="midnightblue" points="3346.24,-197.87 3343.22,-187.71 3339.25,-197.53 3346.24,-197.87"/>
</g>
<!-- Node45 -->
<g id="node41" class="node">
<title>Node45</title>
<g id="a_node41"><a xlink:title=" ">
<polygon fill="white" stroke="#bfbfbf" points="3093,-224.5 3093,-243.5 3151,-243.5 3151,-224.5 3093,-224.5"/>
<text text-anchor="middle" x="3122" y="-231.5" font-family="Helvetica,sans-Serif" font-size="10.00">memory</text>
</a>
</g>
</g>
<!-- Node44&#45;&gt;Node45 -->
<g id="edge47" class="edge">
<title>Node44&#45;&gt;Node45</title>
<path fill="none" stroke="midnightblue" d="M3025.22,-280.44C3043.9,-271.68 3073.16,-257.94 3094.62,-247.86"/>
<polygon fill="midnightblue" stroke="midnightblue" points="3096.3,-250.93 3103.86,-243.52 3093.32,-244.6 3096.3,-250.93"/>
</g>
<!-- Node46 -->
<g id="node42" class="node">
<title>Node46</title>
<g id="a_node42"><a xlink:title=" ">
<polygon fill="white" stroke="#bfbfbf" points="3169,-224.5 3169,-243.5 3217,-243.5 3217,-224.5 3169,-224.5"/>
<text text-anchor="middle" x="3193" y="-231.5" font-family="Helvetica,sans-Serif" font-size="10.00">thread</text>
</a>
</g>
</g>
<!-- Node44&#45;&gt;Node46 -->
<g id="edge49" class="edge">
<title>Node44&#45;&gt;Node46</title>
<path fill="none" stroke="midnightblue" d="M3036.47,-280.44C3069.85,-270.75 3124.14,-254.99 3159.2,-244.81"/>
<polygon fill="midnightblue" stroke="midnightblue" points="3160.36,-248.12 3168.99,-241.97 3158.41,-241.4 3160.36,-248.12"/>
</g>
<!-- Node47 -->
<g id="node43" class="node">
<title>Node47</title>
<g id="a_node43"><a xlink:title=" ">
<polygon fill="white" stroke="#bfbfbf" points="3235.5,-224.5 3235.5,-243.5 3314.5,-243.5 3314.5,-224.5 3235.5,-224.5"/>
<text text-anchor="middle" x="3275" y="-231.5" font-family="Helvetica,sans-Serif" font-size="10.00">QApplication</text>
</a>
</g>
</g>
<!-- Node44&#45;&gt;Node47 -->
<g id="edge51" class="edge">
<title>Node44&#45;&gt;Node47</title>
<path fill="none" stroke="midnightblue" d="M3049.47,-280.44C3097.24,-270.82 3174.76,-255.2 3225.31,-245.01"/>
<polygon fill="midnightblue" stroke="midnightblue" points="3226.24,-248.39 3235.35,-242.99 3224.86,-241.53 3226.24,-248.39"/>
</g>
<!-- Node48 -->
<g id="node44" class="node">
<title>Node48</title>
<g id="a_node44"><a xlink:href="ICodec_8hpp.html" target="_top" xlink:title=" ">
<polygon fill="white" stroke="black" points="2981.5,-168.5 2981.5,-187.5 3110.5,-187.5 3110.5,-168.5 2981.5,-168.5"/>
<text text-anchor="middle" x="3046" y="-175.5" font-family="Helvetica,sans-Serif" font-size="10.00">Audio/Opus/ICodec.hpp</text>
</a>
</g>
</g>
<!-- Node44&#45;&gt;Node48 -->
<g id="edge52" class="edge">
<title>Node44&#45;&gt;Node48</title>
<path fill="none" stroke="midnightblue" d="M2981.58,-280.42C2953.13,-269.39 2913.1,-248.68 2930,-224 2941.17,-207.68 2959.19,-197.28 2977.72,-190.65"/>
<polygon fill="midnightblue" stroke="midnightblue" points="2978.99,-193.92 2987.43,-187.52 2976.84,-187.26 2978.99,-193.92"/>
</g>
<!-- Node49 -->
<g id="node45" class="node">
<title>Node49</title>
<g id="a_node45"><a xlink:href="IAudioManager_8hpp.html" target="_top" xlink:title=" ">
<polygon fill="white" stroke="black" points="2794.5,-112.5 2794.5,-131.5 2935.5,-131.5 2935.5,-112.5 2794.5,-112.5"/>
<text text-anchor="middle" x="2865" y="-119.5" font-family="Helvetica,sans-Serif" font-size="10.00">Audio/IAudioManager.hpp</text>
</a>
</g>
</g>
<!-- Node44&#45;&gt;Node49 -->
<g id="edge53" class="edge">
<title>Node44&#45;&gt;Node49</title>
<path fill="none" stroke="midnightblue" d="M2966.56,-280.43C2921.68,-268.45 2851.8,-241.82 2823,-188 2813.48,-170.21 2829.58,-150.92 2844.53,-138.02"/>
<polygon fill="midnightblue" stroke="midnightblue" points="2846.95,-140.56 2852.54,-131.55 2842.56,-135.11 2846.95,-140.56"/>
</g>
<!-- Node50 -->
<g id="node46" class="node">
<title>Node50</title>
<g id="a_node46"><a xlink:href="PortAudioException_8hpp.html" target="_top" xlink:title=" ">
<polygon fill="white" stroke="black" points="2574,-168.5 2574,-187.5 2738,-187.5 2738,-168.5 2574,-168.5"/>
<text text-anchor="middle" x="2656" y="-175.5" font-family="Helvetica,sans-Serif" font-size="10.00">Audio/PortAudioException.hpp</text>
</a>
</g>
</g>
<!-- Node44&#45;&gt;Node50 -->
<g id="edge56" class="edge">
<title>Node44&#45;&gt;Node50</title>
<path fill="none" stroke="midnightblue" d="M2954.3,-281.81C2909.75,-274.85 2844.63,-262.6 2790,-244 2749.67,-230.27 2705.75,-207.29 2679.56,-192.65"/>
<polygon fill="midnightblue" stroke="midnightblue" points="2681.18,-189.55 2670.75,-187.67 2677.73,-195.64 2681.18,-189.55"/>
</g>
<!-- Node51 -->
<g id="node47" class="node">
<title>Node51</title>
<g id="a_node47"><a xlink:href="UDPSocket_8hpp.html" target="_top" xlink:title=" ">
<polygon fill="white" stroke="black" points="2939.5,-224.5 2939.5,-243.5 3074.5,-243.5 3074.5,-224.5 2939.5,-224.5"/>
<text text-anchor="middle" x="3007" y="-231.5" font-family="Helvetica,sans-Serif" font-size="10.00">Network/UDPSocket.hpp</text>
</a>
</g>
</g>
<!-- Node44&#45;&gt;Node51 -->
<g id="edge61" class="edge">
<title>Node44&#45;&gt;Node51</title>
<path fill="none" stroke="midnightblue" d="M3007,-280.08C3007,-273.01 3007,-262.86 3007,-253.99"/>
<polygon fill="midnightblue" stroke="midnightblue" points="3010.5,-253.75 3007,-243.75 3003.5,-253.75 3010.5,-253.75"/>
</g>
<!-- Node53 -->
<g id="node49" class="node">
<title>Node53</title>
<g id="a_node49"><a xlink:href="AudioPacket_8hpp.html" target="_top" xlink:title=" ">
<polygon fill="white" stroke="black" points="3409.5,-224.5 3409.5,-243.5 3550.5,-243.5 3550.5,-224.5 3409.5,-224.5"/>
<text text-anchor="middle" x="3480" y="-231.5" font-family="Helvetica,sans-Serif" font-size="10.00">Network/AudioPacket.hpp</text>
</a>
</g>
</g>
<!-- Node44&#45;&gt;Node53 -->
<g id="edge67" class="edge">
<title>Node44&#45;&gt;Node53</title>
<path fill="none" stroke="midnightblue" d="M3059.88,-282.96C3142.42,-273.54 3302.44,-255.27 3399.4,-244.2"/>
<polygon fill="midnightblue" stroke="midnightblue" points="3399.92,-247.67 3409.45,-243.05 3399.12,-240.71 3399.92,-247.67"/>
</g>
<!-- Node49&#45;&gt;Node18 -->
<g id="edge55" class="edge">
<title>Node49&#45;&gt;Node18</title>
<path fill="none" stroke="midnightblue" d="M2858.41,-112.37C2844.48,-94.14 2811.87,-51.43 2793.73,-27.68"/>
<polygon fill="midnightblue" stroke="midnightblue" points="2796.41,-25.41 2787.56,-19.59 2790.85,-29.66 2796.41,-25.41"/>
</g>
<!-- Node49&#45;&gt;Node21 -->
<g id="edge54" class="edge">
<title>Node49&#45;&gt;Node21</title>
<path fill="none" stroke="midnightblue" d="M2843.45,-112.44C2820.97,-103.52 2785.51,-89.44 2760.02,-79.32"/>
<polygon fill="midnightblue" stroke="midnightblue" points="2761.03,-75.95 2750.45,-75.52 2758.45,-82.46 2761.03,-75.95"/>
</g>
<!-- Node50&#45;&gt;Node20 -->
<g id="edge57" class="edge">
<title>Node50&#45;&gt;Node20</title>
<path fill="none" stroke="midnightblue" d="M2640.74,-168.32C2625.78,-159.82 2602.75,-146.73 2585.27,-136.8"/>
<polygon fill="midnightblue" stroke="midnightblue" points="2586.65,-133.55 2576.23,-131.65 2583.19,-139.64 2586.65,-133.55"/>
</g>
<!-- Node50&#45;&gt;Node24 -->
<g id="edge58" class="edge">
<title>Node50&#45;&gt;Node24</title>
<path fill="none" stroke="midnightblue" d="M2651.76,-168.37C2642.93,-150.38 2622.4,-108.55 2610.65,-84.63"/>
<polygon fill="midnightblue" stroke="midnightblue" points="2613.77,-83.03 2606.22,-75.59 2607.48,-86.11 2613.77,-83.03"/>
</g>
<!-- Node51&#45;&gt;Node33 -->
<g id="edge64" class="edge">
<title>Node51&#45;&gt;Node33</title>
<path fill="none" stroke="midnightblue" d="M3069.41,-224.48C3137.1,-214.79 3237.52,-198.88 3252,-188 3282.19,-165.31 3272.1,-145.25 3290,-112 3294.98,-102.75 3300.81,-92.6 3305.68,-84.29"/>
<polygon fill="midnightblue" stroke="midnightblue" points="3308.78,-85.93 3310.86,-75.54 3302.76,-82.37 3308.78,-85.93"/>
</g>
<!-- Node51&#45;&gt;Node43 -->
<g id="edge63" class="edge">
<title>Node51&#45;&gt;Node43</title>
<path fill="none" stroke="midnightblue" d="M3060.24,-224.44C3132.04,-212.9 3257.4,-192.76 3313.91,-183.68"/>
<polygon fill="midnightblue" stroke="midnightblue" points="3314.63,-187.1 3323.94,-182.06 3313.52,-180.19 3314.63,-187.1"/>
</g>
<!-- Node51&#45;&gt;Node48 -->
<g id="edge65" class="edge">
<title>Node51&#45;&gt;Node48</title>
<path fill="none" stroke="midnightblue" d="M3013.44,-224.08C3018.95,-216.46 3027.03,-205.26 3033.76,-195.94"/>
<polygon fill="midnightblue" stroke="midnightblue" points="3036.66,-197.91 3039.68,-187.75 3030.99,-193.81 3036.66,-197.91"/>
</g>
<!-- Node51&#45;&gt;Node49 -->
<g id="edge66" class="edge">
<title>Node51&#45;&gt;Node49</title>
<path fill="none" stroke="midnightblue" d="M3050.68,-224.43C3091.33,-214.53 3142.4,-195.91 3119,-168 3097.15,-141.94 3011.83,-130.96 2946.04,-126.34"/>
<polygon fill="midnightblue" stroke="midnightblue" points="2945.87,-122.83 2935.66,-125.66 2945.4,-129.81 2945.87,-122.83"/>
</g>
<!-- Node52 -->
<g id="node48" class="node">
<title>Node52</title>
<g id="a_node48"><a xlink:title=" ">
<polygon fill="white" stroke="#bfbfbf" points="3167,-168.5 3167,-187.5 3243,-187.5 3243,-168.5 3167,-168.5"/>
<text text-anchor="middle" x="3205" y="-175.5" font-family="Helvetica,sans-Serif" font-size="10.00">QUdpSocket</text>
</a>
</g>
</g>
<!-- Node51&#45;&gt;Node52 -->
<g id="edge62" class="edge">
<title>Node51&#45;&gt;Node52</title>
<path fill="none" stroke="midnightblue" d="M3038.37,-224.44C3072.26,-215.2 3126.4,-200.44 3163.72,-190.26"/>
<polygon fill="midnightblue" stroke="midnightblue" points="3165.05,-193.52 3173.77,-187.52 3163.2,-186.77 3165.05,-193.52"/>
</g>
<!-- Node54 -->
<g id="node50" class="node">
<title>Node54</title>
<g id="a_node50"><a xlink:title=" ">
<polygon fill="white" stroke="#bfbfbf" points="3459,-168.5 3459,-187.5 3501,-187.5 3501,-168.5 3459,-168.5"/>
<text text-anchor="middle" x="3480" y="-175.5" font-family="Helvetica,sans-Serif" font-size="10.00">array</text>
</a>
</g>
</g>
<!-- Node53&#45;&gt;Node54 -->
<g id="edge68" class="edge">
<title>Node53&#45;&gt;Node54</title>
<path fill="none" stroke="midnightblue" d="M3480,-224.08C3480,-217.01 3480,-206.86 3480,-197.99"/>
<polygon fill="midnightblue" stroke="midnightblue" points="3483.5,-197.75 3480,-187.75 3476.5,-197.75 3483.5,-197.75"/>
</g>
</g>
</svg>
