<?xml version="1.0" encoding="UTF-8" standalone="no"?>
<!DOCTYPE svg PUBLIC "-//W3C//DTD SVG 1.1//EN"
 "http://www.w3.org/Graphics/SVG/1.1/DTD/svg11.dtd">
<!-- Generated by graphviz version 2.43.0 (0)
 -->
<!-- Title: Client/src/Audio/IAudioManager.hpp Pages: 1 -->
<svg width="568pt" height="285pt"
 viewBox="0.00 0.00 567.50 285.00" xmlns="http://www.w3.org/2000/svg" xmlns:xlink="http://www.w3.org/1999/xlink">
<g id="graph0" class="graph" transform="scale(1 1) rotate(0) translate(4 281)">
<title>Client/src/Audio/IAudioManager.hpp</title>
<polygon fill="white" stroke="transparent" points="-4,4 -4,-281 563.5,-281 563.5,4 -4,4"/>
<!-- Node1 -->
<g id="node1" class="node">
<title>Node1</title>
<g id="a_node1"><a xlink:title=" ">
<polygon fill="#bfbfbf" stroke="black" points="294,-257.5 294,-276.5 484,-276.5 484,-257.5 294,-257.5"/>
<text text-anchor="middle" x="389" y="-264.5" font-family="Helvetica,sans-Serif" font-size="10.00">Client/src/Audio/IAudioManager.hpp</text>
</a>
</g>
</g>
<!-- Node2 -->
<g id="node2" class="node">
<title>Node2</title>
<g id="a_node2"><a xlink:href="PortAudio_8hpp.html" target="_top" xlink:title=" ">
<polygon fill="white" stroke="black" points="110,-196 110,-215 274,-215 274,-196 110,-196"/>
<text text-anchor="middle" x="192" y="-203" font-family="Helvetica,sans-Serif" font-size="10.00">Client/src/Audio/PortAudio.hpp</text>
</a>
</g>
</g>
<!-- Node1&#45;&gt;Node2 -->
<g id="edge1" class="edge">
<title>Node1&#45;&gt;Node2</title>
<path fill="none" stroke="midnightblue" d="M351.02,-254.53C312.73,-242.96 254.53,-225.38 220.17,-215.01"/>
<polygon fill="midnightblue" stroke="midnightblue" points="350.19,-257.93 360.77,-257.48 352.21,-251.23 350.19,-257.93"/>
</g>
<!-- Node5 -->
<g id="node5" class="node">
<title>Node5</title>
<g id="a_node5"><a xlink:href="UDPSocket_8cpp.html" target="_top" xlink:title=" ">
<polygon fill="white" stroke="black" points="452.5,-67.5 452.5,-97.5 559.5,-97.5 559.5,-67.5 452.5,-67.5"/>
<text text-anchor="start" x="460.5" y="-85.5" font-family="Helvetica,sans-Serif" font-size="10.00">Client/src/Network</text>
<text text-anchor="middle" x="506" y="-74.5" font-family="Helvetica,sans-Serif" font-size="10.00">/UDPSocket.cpp</text>
</a>
</g>
</g>
<!-- Node1&#45;&gt;Node5 -->
<g id="edge4" class="edge">
<title>Node1&#45;&gt;Node5</title>
<path fill="none" stroke="midnightblue" d="M403.59,-249.57C410.69,-241.26 419.14,-230.86 426,-221 455.95,-177.92 485.51,-123.04 498.76,-97.61"/>
<polygon fill="midnightblue" stroke="midnightblue" points="400.73,-247.52 396.81,-257.37 406.01,-252.12 400.73,-247.52"/>
</g>
<!-- Node6 -->
<g id="node6" class="node">
<title>Node6</title>
<g id="a_node6"><a xlink:href="UDPSocket_8hpp.html" target="_top" xlink:title=" ">
<polygon fill="white" stroke="black" points="294.5,-190.5 294.5,-220.5 401.5,-220.5 401.5,-190.5 294.5,-190.5"/>
<text text-anchor="start" x="302.5" y="-208.5" font-family="Helvetica,sans-Serif" font-size="10.00">Client/src/Network</text>
<text text-anchor="middle" x="348" y="-197.5" font-family="Helvetica,sans-Serif" font-size="10.00">/UDPSocket.hpp</text>
</a>
</g>
</g>
<!-- Node1&#45;&gt;Node6 -->
<g id="edge5" class="edge">
<title>Node1&#45;&gt;Node6</title>
<path fill="none" stroke="midnightblue" d="M377.26,-248.96C371.05,-239.96 363.53,-229.03 357.66,-220.52"/>
<polygon fill="midnightblue" stroke="midnightblue" points="374.57,-251.23 383.13,-257.48 380.33,-247.25 374.57,-251.23"/>
</g>
<!-- Node7 -->
<g id="node7" class="node">
<title>Node7</title>
<g id="a_node7"><a xlink:href="SoundHandler_8hpp.html" target="_top" xlink:title=" ">
<polygon fill="white" stroke="black" points="272,-134.5 272,-153.5 426,-153.5 426,-134.5 272,-134.5"/>
<text text-anchor="middle" x="349" y="-141.5" font-family="Helvetica,sans-Serif" font-size="10.00">Client/src/SoundHandler.hpp</text>
</a>
</g>
</g>
<!-- Node1&#45;&gt;Node7 -->
<g id="edge15" class="edge">
<title>Node1&#45;&gt;Node7</title>
<path fill="none" stroke="midnightblue" d="M401.26,-248.4C410.69,-232.53 420.61,-208.85 411,-190 402.3,-172.94 383.77,-160.83 369.22,-153.51"/>
<polygon fill="midnightblue" stroke="midnightblue" points="398.1,-246.86 395.64,-257.17 403.99,-250.64 398.1,-246.86"/>
</g>
<!-- Node3 -->
<g id="node3" class="node">
<title>Node3</title>
<g id="a_node3"><a xlink:href="PortAudio_8cpp.html" target="_top" xlink:title=" ">
<polygon fill="white" stroke="black" points="0,-134.5 0,-153.5 164,-153.5 164,-134.5 0,-134.5"/>
<text text-anchor="middle" x="82" y="-141.5" font-family="Helvetica,sans-Serif" font-size="10.00">Client/src/Audio/PortAudio.cpp</text>
</a>
</g>
</g>
<!-- Node2&#45;&gt;Node3 -->
<g id="edge2" class="edge">
<title>Node2&#45;&gt;Node3</title>
<path fill="none" stroke="midnightblue" d="M167.43,-191.21C146.13,-179.69 115.93,-163.36 97.73,-153.51"/>
<polygon fill="midnightblue" stroke="midnightblue" points="165.78,-194.3 176.24,-195.98 169.11,-188.14 165.78,-194.3"/>
</g>
<!-- Node4 -->
<g id="node4" class="node">
<title>Node4</title>
<g id="a_node4"><a xlink:href="SoundHandler_8cpp.html" target="_top" xlink:title=" ">
<polygon fill="white" stroke="black" points="114.5,-73 114.5,-92 267.5,-92 267.5,-73 114.5,-73"/>
<text text-anchor="middle" x="191" y="-80" font-family="Helvetica,sans-Serif" font-size="10.00">Client/src/SoundHandler.cpp</text>
</a>
</g>
</g>
<!-- Node2&#45;&gt;Node4 -->
<g id="edge3" class="edge">
<title>Node2&#45;&gt;Node4</title>
<path fill="none" stroke="midnightblue" d="M191.84,-185.49C191.62,-158.85 191.23,-111.5 191.07,-92.12"/>
<polygon fill="midnightblue" stroke="midnightblue" points="188.35,-185.83 191.93,-195.8 195.35,-185.77 188.35,-185.83"/>
</g>
<!-- Node6&#45;&gt;Node4 -->
<g id="edge7" class="edge">
<title>Node6&#45;&gt;Node4</title>
<path fill="none" stroke="midnightblue" d="M311.7,-185.47C296.15,-176.69 278.13,-165.63 263,-154 237.48,-134.38 211.45,-106.54 198.83,-92.44"/>
<polygon fill="midnightblue" stroke="midnightblue" points="310.08,-188.58 320.52,-190.37 313.48,-182.45 310.08,-188.58"/>
</g>
<!-- Node6&#45;&gt;Node5 -->
<g id="edge6" class="edge">
<title>Node6&#45;&gt;Node5</title>
<path fill="none" stroke="midnightblue" d="M385.59,-185.44C401.43,-176.72 419.7,-165.72 435,-154 457.61,-136.67 480.39,-112.61 493.84,-97.56"/>
<polygon fill="midnightblue" stroke="midnightblue" points="383.72,-182.47 376.58,-190.3 387.05,-188.63 383.72,-182.47"/>
</g>
<!-- Node6&#45;&gt;Node7 -->
<g id="edge8" class="edge">
<title>Node6&#45;&gt;Node7</title>
<path fill="none" stroke="midnightblue" d="M348.41,-180.29C348.57,-170.86 348.74,-160.65 348.85,-153.66"/>
<polygon fill="midnightblue" stroke="midnightblue" points="344.91,-180.34 348.24,-190.4 351.9,-180.46 344.91,-180.34"/>
</g>
<!-- Node7&#45;&gt;Node4 -->
<g id="edge13" class="edge">
<title>Node7&#45;&gt;Node4</title>
<path fill="none" stroke="midnightblue" d="M316.96,-130.93C286.25,-119.37 240.68,-102.21 213.6,-92.01"/>
<polygon fill="midnightblue" stroke="midnightblue" points="315.77,-134.23 326.36,-134.48 318.24,-127.68 315.77,-134.23"/>
</g>
<!-- Node7&#45;&gt;Node5 -->
<g id="edge12" class="edge">
<title>Node7&#45;&gt;Node5</title>
<path fill="none" stroke="midnightblue" d="M381.07,-130.85C406.57,-121.18 442.28,-107.65 469,-97.52"/>
<polygon fill="midnightblue" stroke="midnightblue" points="379.6,-127.66 371.49,-134.48 382.09,-134.2 379.6,-127.66"/>
</g>
<!-- Node8 -->
<g id="node8" class="node">
<title>Node8</title>
<g id="a_node8"><a xlink:href="HomePage_8hpp.html" target="_top" xlink:title=" ">
<polygon fill="white" stroke="black" points="324,-67.5 324,-97.5 434,-97.5 434,-67.5 324,-67.5"/>
<text text-anchor="start" x="332" y="-85.5" font-family="Helvetica,sans-Serif" font-size="10.00">Client/src/Windows</text>
<text text-anchor="middle" x="379" y="-74.5" font-family="Helvetica,sans-Serif" font-size="10.00">/HomePage.hpp</text>
</a>
</g>
</g>
<!-- Node7&#45;&gt;Node8 -->
<g id="edge9" class="edge">
<title>Node7&#45;&gt;Node8</title>
<path fill="none" stroke="midnightblue" d="M357.88,-125.39C362.36,-116.5 367.73,-105.86 371.93,-97.52"/>
<polygon fill="midnightblue" stroke="midnightblue" points="354.68,-123.97 353.3,-134.48 360.93,-127.12 354.68,-123.97"/>
</g>
<!-- Node10 -->
<g id="node10" class="node">
<title>Node10</title>
<g id="a_node10"><a xlink:href="HomePage_8cpp.html" target="_top" xlink:title=" ">
<polygon fill="white" stroke="black" points="241,-0.5 241,-30.5 351,-30.5 351,-0.5 241,-0.5"/>
<text text-anchor="start" x="249" y="-18.5" font-family="Helvetica,sans-Serif" font-size="10.00">Client/src/Windows</text>
<text text-anchor="middle" x="296" y="-7.5" font-family="Helvetica,sans-Serif" font-size="10.00">/HomePage.cpp</text>
</a>
</g>
</g>
<!-- Node7&#45;&gt;Node10 -->
<g id="edge14" class="edge">
<title>Node7&#45;&gt;Node10</title>
<path fill="none" stroke="midnightblue" d="M334.16,-126.84C327.41,-118.71 319.87,-108.4 315,-98 304.59,-75.76 299.64,-47.37 297.48,-30.64"/>
<polygon fill="midnightblue" stroke="midnightblue" points="331.55,-129.17 340.75,-134.42 336.83,-124.58 331.55,-129.17"/>
</g>
<!-- Node9 -->
<g id="node9" class="node">
<title>Node9</title>
<g id="a_node9"><a xlink:href="Client_2src_2main_8cpp.html" target="_top" xlink:title=" ">
<polygon fill="white" stroke="black" points="369,-6 369,-25 479,-25 479,-6 369,-6"/>
<text text-anchor="middle" x="424" y="-13" font-family="Helvetica,sans-Serif" font-size="10.00">Client/src/main.cpp</text>
</a>
</g>
</g>
<!-- Node8&#45;&gt;Node9 -->
<g id="edge10" class="edge">
<title>Node8&#45;&gt;Node9</title>
<path fill="none" stroke="midnightblue" d="M394.59,-58.97C402.65,-47.33 412.02,-33.8 417.98,-25.19"/>
<polygon fill="midnightblue" stroke="midnightblue" points="391.58,-57.18 388.76,-67.4 397.33,-61.17 391.58,-57.18"/>
</g>
<!-- Node8&#45;&gt;Node10 -->
<g id="edge11" class="edge">
<title>Node8&#45;&gt;Node10</title>
<path fill="none" stroke="midnightblue" d="M353.04,-61.17C340.35,-51.23 325.39,-39.51 313.97,-30.58"/>
<polygon fill="midnightblue" stroke="midnightblue" points="350.96,-63.99 360.99,-67.4 355.28,-58.47 350.96,-63.99"/>
</g>
</g>
</svg>
