<?xml version="1.0" encoding="UTF-8" standalone="no"?>
<!DOCTYPE svg PUBLIC "-//W3C//DTD SVG 1.1//EN"
 "http://www.w3.org/Graphics/SVG/1.1/DTD/svg11.dtd">
<!-- Generated by graphviz version 2.43.0 (0)
 -->
<!-- Title: Client/src/Audio/Opus/ICodec.hpp Pages: 1 -->
<svg width="525pt" height="307pt"
 viewBox="0.00 0.00 525.00 307.00" xmlns="http://www.w3.org/2000/svg" xmlns:xlink="http://www.w3.org/1999/xlink">
<g id="graph0" class="graph" transform="scale(1 1) rotate(0) translate(4 303)">
<title>Client/src/Audio/Opus/ICodec.hpp</title>
<polygon fill="white" stroke="transparent" points="-4,4 -4,-303 521,-303 521,4 -4,4"/>
<!-- Node1 -->
<g id="node1" class="node">
<title>Node1</title>
<g id="a_node1"><a xlink:title=" ">
<polygon fill="#bfbfbf" stroke="black" points="278,-268.5 278,-298.5 399,-298.5 399,-268.5 278,-268.5"/>
<text text-anchor="start" x="286" y="-286.5" font-family="Helvetica,sans-Serif" font-size="10.00">Client/src/Audio/Opus</text>
<text text-anchor="middle" x="338.5" y="-275.5" font-family="Helvetica,sans-Serif" font-size="10.00">/ICodec.hpp</text>
</a>
</g>
</g>
<!-- Node2 -->
<g id="node2" class="node">
<title>Node2</title>
<g id="a_node2"><a xlink:href="Opus_8hpp.html" target="_top" xlink:title=" ">
<polygon fill="white" stroke="black" points="89,-201.5 89,-231.5 210,-231.5 210,-201.5 89,-201.5"/>
<text text-anchor="start" x="97" y="-219.5" font-family="Helvetica,sans-Serif" font-size="10.00">Client/src/Audio/Opus</text>
<text text-anchor="middle" x="149.5" y="-208.5" font-family="Helvetica,sans-Serif" font-size="10.00">/Opus.hpp</text>
</a>
</g>
</g>
<!-- Node1&#45;&gt;Node2 -->
<g id="edge1" class="edge">
<title>Node1&#45;&gt;Node2</title>
<path fill="none" stroke="midnightblue" d="M287.88,-265.09C257.37,-254.6 219.02,-241.41 190.43,-231.58"/>
<polygon fill="midnightblue" stroke="midnightblue" points="286.9,-268.45 297.49,-268.4 289.17,-261.83 286.9,-268.45"/>
</g>
<!-- Node5 -->
<g id="node5" class="node">
<title>Node5</title>
<g id="a_node5"><a xlink:href="UDPSocket_8cpp.html" target="_top" xlink:title=" ">
<polygon fill="white" stroke="black" points="410,-67.5 410,-97.5 517,-97.5 517,-67.5 410,-67.5"/>
<text text-anchor="start" x="418" y="-85.5" font-family="Helvetica,sans-Serif" font-size="10.00">Client/src/Network</text>
<text text-anchor="middle" x="463.5" y="-74.5" font-family="Helvetica,sans-Serif" font-size="10.00">/UDPSocket.cpp</text>
</a>
</g>
</g>
<!-- Node1&#45;&gt;Node5 -->
<g id="edge4" class="edge">
<title>Node1&#45;&gt;Node5</title>
<path fill="none" stroke="midnightblue" d="M357.46,-260.72C376.71,-237.92 406.57,-200.55 427.5,-165 440.76,-142.47 452.2,-114.17 458.45,-97.54"/>
<polygon fill="midnightblue" stroke="midnightblue" points="354.71,-258.55 350.89,-268.43 360.04,-263.09 354.71,-258.55"/>
</g>
<!-- Node6 -->
<g id="node6" class="node">
<title>Node6</title>
<g id="a_node6"><a xlink:href="UDPSocket_8hpp.html" target="_top" xlink:title=" ">
<polygon fill="white" stroke="black" points="244,-201.5 244,-231.5 351,-231.5 351,-201.5 244,-201.5"/>
<text text-anchor="start" x="252" y="-219.5" font-family="Helvetica,sans-Serif" font-size="10.00">Client/src/Network</text>
<text text-anchor="middle" x="297.5" y="-208.5" font-family="Helvetica,sans-Serif" font-size="10.00">/UDPSocket.hpp</text>
</a>
</g>
</g>
<!-- Node1&#45;&gt;Node6 -->
<g id="edge5" class="edge">
<title>Node1&#45;&gt;Node6</title>
<path fill="none" stroke="midnightblue" d="M324.22,-259.87C318.29,-250.46 311.59,-239.83 306.38,-231.58"/>
<polygon fill="midnightblue" stroke="midnightblue" points="321.31,-261.81 329.6,-268.4 327.23,-258.07 321.31,-261.81"/>
</g>
<!-- Node7 -->
<g id="node7" class="node">
<title>Node7</title>
<g id="a_node7"><a xlink:href="SoundHandler_8hpp.html" target="_top" xlink:title=" ">
<polygon fill="white" stroke="black" points="236.5,-140 236.5,-159 390.5,-159 390.5,-140 236.5,-140"/>
<text text-anchor="middle" x="313.5" y="-147" font-family="Helvetica,sans-Serif" font-size="10.00">Client/src/SoundHandler.hpp</text>
</a>
</g>
</g>
<!-- Node1&#45;&gt;Node7 -->
<g id="edge15" class="edge">
<title>Node1&#45;&gt;Node7</title>
<path fill="none" stroke="midnightblue" d="M352.51,-259.38C360.68,-242.82 368.03,-220.15 360.5,-201 353.57,-183.39 337.29,-168.28 325.84,-159.29"/>
<polygon fill="midnightblue" stroke="midnightblue" points="349.34,-257.88 347.71,-268.35 355.51,-261.19 349.34,-257.88"/>
</g>
<!-- Node3 -->
<g id="node3" class="node">
<title>Node3</title>
<g id="a_node3"><a xlink:href="Opus_8cpp.html" target="_top" xlink:title=" ">
<polygon fill="white" stroke="black" points="0,-134.5 0,-164.5 121,-164.5 121,-134.5 0,-134.5"/>
<text text-anchor="start" x="8" y="-152.5" font-family="Helvetica,sans-Serif" font-size="10.00">Client/src/Audio/Opus</text>
<text text-anchor="middle" x="60.5" y="-141.5" font-family="Helvetica,sans-Serif" font-size="10.00">/Opus.cpp</text>
</a>
</g>
</g>
<!-- Node2&#45;&gt;Node3 -->
<g id="edge2" class="edge">
<title>Node2&#45;&gt;Node3</title>
<path fill="none" stroke="midnightblue" d="M122.05,-195.45C108.36,-185.45 92.13,-173.6 79.77,-164.58"/>
<polygon fill="midnightblue" stroke="midnightblue" points="120.05,-198.32 130.19,-201.4 124.18,-192.67 120.05,-198.32"/>
</g>
<!-- Node4 -->
<g id="node4" class="node">
<title>Node4</title>
<g id="a_node4"><a xlink:href="SoundHandler_8cpp.html" target="_top" xlink:title=" ">
<polygon fill="white" stroke="black" points="72,-73 72,-92 225,-92 225,-73 72,-73"/>
<text text-anchor="middle" x="148.5" y="-80" font-family="Helvetica,sans-Serif" font-size="10.00">Client/src/SoundHandler.cpp</text>
</a>
</g>
</g>
<!-- Node2&#45;&gt;Node4 -->
<g id="edge3" class="edge">
<title>Node2&#45;&gt;Node4</title>
<path fill="none" stroke="midnightblue" d="M149.32,-191.32C149.09,-161.38 148.72,-111.91 148.57,-92.1"/>
<polygon fill="midnightblue" stroke="midnightblue" points="145.82,-191.4 149.39,-201.37 152.82,-191.35 145.82,-191.4"/>
</g>
<!-- Node6&#45;&gt;Node4 -->
<g id="edge7" class="edge">
<title>Node6&#45;&gt;Node4</title>
<path fill="none" stroke="midnightblue" d="M267.51,-195.6C254.78,-186.72 240.03,-175.83 227.5,-165 199.18,-140.51 169.38,-107.48 155.9,-92.07"/>
<polygon fill="midnightblue" stroke="midnightblue" points="265.72,-198.62 275.94,-201.4 269.68,-192.85 265.72,-198.62"/>
</g>
<!-- Node6&#45;&gt;Node5 -->
<g id="edge6" class="edge">
<title>Node6&#45;&gt;Node5</title>
<path fill="none" stroke="midnightblue" d="M344.99,-197.31C363.12,-189.05 383.31,-178.16 399.5,-165 423.51,-145.48 444.15,-115.4 455.11,-97.76"/>
<polygon fill="midnightblue" stroke="midnightblue" points="343.47,-194.16 335.72,-201.39 346.29,-200.57 343.47,-194.16"/>
</g>
<!-- Node6&#45;&gt;Node7 -->
<g id="edge8" class="edge">
<title>Node6&#45;&gt;Node7</title>
<path fill="none" stroke="midnightblue" d="M303.38,-191.6C306.17,-180.28 309.32,-167.46 311.36,-159.19"/>
<polygon fill="midnightblue" stroke="midnightblue" points="299.96,-190.85 300.97,-201.4 306.76,-192.52 299.96,-190.85"/>
</g>
<!-- Node7&#45;&gt;Node4 -->
<g id="edge13" class="edge">
<title>Node7&#45;&gt;Node4</title>
<path fill="none" stroke="midnightblue" d="M282.03,-136.1C249.27,-123.2 198.83,-103.33 170.24,-92.06"/>
<polygon fill="midnightblue" stroke="midnightblue" points="281,-139.46 291.59,-139.87 283.57,-132.95 281,-139.46"/>
</g>
<!-- Node7&#45;&gt;Node5 -->
<g id="edge12" class="edge">
<title>Node7&#45;&gt;Node5</title>
<path fill="none" stroke="midnightblue" d="M342.88,-135.77C368.27,-124.77 404.9,-108.89 431.13,-97.53"/>
<polygon fill="midnightblue" stroke="midnightblue" points="341.2,-132.68 333.42,-139.87 343.99,-139.1 341.2,-132.68"/>
</g>
<!-- Node8 -->
<g id="node8" class="node">
<title>Node8</title>
<g id="a_node8"><a xlink:href="HomePage_8hpp.html" target="_top" xlink:title=" ">
<polygon fill="white" stroke="black" points="281.5,-67.5 281.5,-97.5 391.5,-97.5 391.5,-67.5 281.5,-67.5"/>
<text text-anchor="start" x="289.5" y="-85.5" font-family="Helvetica,sans-Serif" font-size="10.00">Client/src/Windows</text>
<text text-anchor="middle" x="336.5" y="-74.5" font-family="Helvetica,sans-Serif" font-size="10.00">/HomePage.hpp</text>
</a>
</g>
</g>
<!-- Node7&#45;&gt;Node8 -->
<g id="edge9" class="edge">
<title>Node7&#45;&gt;Node8</title>
<path fill="none" stroke="midnightblue" d="M320.02,-130.06C323.67,-119.75 328.15,-107.1 331.51,-97.59"/>
<polygon fill="midnightblue" stroke="midnightblue" points="316.64,-129.14 316.6,-139.73 323.24,-131.47 316.64,-129.14"/>
</g>
<!-- Node10 -->
<g id="node10" class="node">
<title>Node10</title>
<g id="a_node10"><a xlink:href="HomePage_8cpp.html" target="_top" xlink:title=" ">
<polygon fill="white" stroke="black" points="198.5,-0.5 198.5,-30.5 308.5,-30.5 308.5,-0.5 198.5,-0.5"/>
<text text-anchor="start" x="206.5" y="-18.5" font-family="Helvetica,sans-Serif" font-size="10.00">Client/src/Windows</text>
<text text-anchor="middle" x="253.5" y="-7.5" font-family="Helvetica,sans-Serif" font-size="10.00">/HomePage.cpp</text>
</a>
</g>
</g>
<!-- Node7&#45;&gt;Node10 -->
<g id="edge14" class="edge">
<title>Node7&#45;&gt;Node10</title>
<path fill="none" stroke="midnightblue" d="M297.22,-132.39C288.68,-123.07 278.72,-110.71 272.5,-98 261.7,-75.95 256.88,-47.49 254.85,-30.7"/>
<polygon fill="midnightblue" stroke="midnightblue" points="294.79,-134.91 304.23,-139.72 299.85,-130.07 294.79,-134.91"/>
</g>
<!-- Node9 -->
<g id="node9" class="node">
<title>Node9</title>
<g id="a_node9"><a xlink:href="Client_2src_2main_8cpp.html" target="_top" xlink:title=" ">
<polygon fill="white" stroke="black" points="326.5,-6 326.5,-25 436.5,-25 436.5,-6 326.5,-6"/>
<text text-anchor="middle" x="381.5" y="-13" font-family="Helvetica,sans-Serif" font-size="10.00">Client/src/main.cpp</text>
</a>
</g>
</g>
<!-- Node8&#45;&gt;Node9 -->
<g id="edge10" class="edge">
<title>Node8&#45;&gt;Node9</title>
<path fill="none" stroke="midnightblue" d="M352.09,-58.97C360.15,-47.33 369.52,-33.8 375.48,-25.19"/>
<polygon fill="midnightblue" stroke="midnightblue" points="349.08,-57.18 346.26,-67.4 354.83,-61.17 349.08,-57.18"/>
</g>
<!-- Node8&#45;&gt;Node10 -->
<g id="edge11" class="edge">
<title>Node8&#45;&gt;Node10</title>
<path fill="none" stroke="midnightblue" d="M310.54,-61.17C297.85,-51.23 282.89,-39.51 271.47,-30.58"/>
<polygon fill="midnightblue" stroke="midnightblue" points="308.46,-63.99 318.49,-67.4 312.78,-58.47 308.46,-63.99"/>
</g>
</g>
</svg>
