<?xml version="1.0" encoding="UTF-8" standalone="no"?>
<!DOCTYPE svg PUBLIC "-//W3C//DTD SVG 1.1//EN"
 "http://www.w3.org/Graphics/SVG/1.1/DTD/svg11.dtd">
<!-- Generated by graphviz version 2.43.0 (0)
 -->
<!-- Title: Graphical Class Hierarchy Pages: 1 -->
<svg width="304pt" height="114pt"
 viewBox="0.00 0.00 304.00 113.50" xmlns="http://www.w3.org/2000/svg" xmlns:xlink="http://www.w3.org/1999/xlink">
<g id="graph0" class="graph" transform="scale(1 1) rotate(0) translate(4 109.5)">
<title>Graphical Class Hierarchy</title>
<polygon fill="white" stroke="transparent" points="-4,4 -4,-109.5 300,-109.5 300,4 -4,4"/>
<!-- Node35 -->
<g id="node1" class="node">
<title>Node35</title>
<g id="a_node1"><a xlink:href="classBabel_1_1ITCPConnection.html" target="_top" xlink:title=" ">
<polygon fill="white" stroke="black" points="0,-75 0,-105 126,-105 126,-75 0,-75"/>
<text text-anchor="start" x="8" y="-93" font-family="Helvetica,sans-Serif" font-size="10.00">Babel::ITCPConnection</text>
<text text-anchor="middle" x="63" y="-82" font-family="Helvetica,sans-Serif" font-size="10.00">&lt; RFCCodes &gt;</text>
</a>
</g>
</g>
<!-- Node20 -->
<g id="node2" class="node">
<title>Node20</title>
<g id="a_node2"><a xlink:href="classBabel_1_1QtTCPConnection.html" target="_top" xlink:title=" ">
<polygon fill="white" stroke="black" points="162,-79.5 162,-98.5 296,-98.5 296,-79.5 162,-79.5"/>
<text text-anchor="middle" x="229" y="-86.5" font-family="Helvetica,sans-Serif" font-size="10.00">Babel::QtTCPConnection</text>
</a>
</g>
</g>
<!-- Node35&#45;&gt;Node20 -->
<g id="edge1" class="edge">
<title>Node35&#45;&gt;Node20</title>
<path fill="none" stroke="midnightblue" d="M136.27,-89.56C144.76,-89.51 153.4,-89.45 161.81,-89.4"/>
<polygon fill="midnightblue" stroke="midnightblue" points="135.98,-86.06 126,-89.62 136.02,-93.06 135.98,-86.06"/>
</g>
<!-- Node18 -->
<g id="node3" class="node">
<title>Node18</title>
<g id="a_node3"><a xlink:title=" ">
<polygon fill="white" stroke="#bfbfbf" points="35,-36.5 35,-55.5 91,-55.5 91,-36.5 35,-36.5"/>
<text text-anchor="middle" x="63" y="-43.5" font-family="Helvetica,sans-Serif" font-size="10.00">QObject</text>
</a>
</g>
</g>
<!-- Node18&#45;&gt;Node20 -->
<g id="edge3" class="edge">
<title>Node18&#45;&gt;Node20</title>
<path fill="none" stroke="midnightblue" d="M100.96,-55.69C128.07,-62.8 164.7,-72.4 191.66,-79.47"/>
<polygon fill="midnightblue" stroke="midnightblue" points="101.64,-52.25 91.08,-53.1 99.87,-59.02 101.64,-52.25"/>
</g>
<!-- Node0 -->
<g id="node4" class="node">
<title>Node0</title>
<g id="a_node4"><a xlink:href="classBabel_1_1HomePage.html" target="_top" xlink:title="Main client Class.">
<polygon fill="white" stroke="black" points="177.5,-38.5 177.5,-57.5 280.5,-57.5 280.5,-38.5 177.5,-38.5"/>
<text text-anchor="middle" x="229" y="-45.5" font-family="Helvetica,sans-Serif" font-size="10.00">Babel::HomePage</text>
</a>
</g>
</g>
<!-- Node18&#45;&gt;Node0 -->
<g id="edge2" class="edge">
<title>Node18&#45;&gt;Node0</title>
<path fill="none" stroke="midnightblue" d="M101.25,-46.45C123.76,-46.73 152.76,-47.08 177.34,-47.38"/>
<polygon fill="midnightblue" stroke="midnightblue" points="101.12,-42.95 91.08,-46.33 101.04,-49.95 101.12,-42.95"/>
</g>
<!-- Node21 -->
<g id="node5" class="node">
<title>Node21</title>
<g id="a_node5"><a xlink:href="classBabel_1_1UDPSocket.html" target="_top" xlink:title="wrapper around Qt UDP socket, ICodec and Portaudio">
<polygon fill="white" stroke="black" points="177,-0.5 177,-19.5 281,-19.5 281,-0.5 177,-0.5"/>
<text text-anchor="middle" x="229" y="-7.5" font-family="Helvetica,sans-Serif" font-size="10.00">Babel::UDPSocket</text>
</a>
</g>
</g>
<!-- Node18&#45;&gt;Node21 -->
<g id="edge4" class="edge">
<title>Node18&#45;&gt;Node21</title>
<path fill="none" stroke="midnightblue" d="M101.17,-37.84C125.92,-32.41 158.55,-25.25 184.51,-19.55"/>
<polygon fill="midnightblue" stroke="midnightblue" points="100.1,-34.49 91.08,-40.06 101.6,-41.33 100.1,-34.49"/>
</g>
</g>
</svg>
