<?xml version="1.0" encoding="UTF-8" standalone="no"?>
<!DOCTYPE svg PUBLIC "-//W3C//DTD SVG 1.1//EN"
 "http://www.w3.org/Graphics/SVG/1.1/DTD/svg11.dtd">
<!-- Generated by graphviz version 2.43.0 (0)
 -->
<!-- Title: Graphical Class Hierarchy Pages: 1 -->
<svg width="489pt" height="104pt"
 viewBox="0.00 0.00 489.00 104.00" xmlns="http://www.w3.org/2000/svg" xmlns:xlink="http://www.w3.org/1999/xlink">
<g id="graph0" class="graph" transform="scale(1 1) rotate(0) translate(4 100)">
<title>Graphical Class Hierarchy</title>
<polygon fill="white" stroke="transparent" points="-4,4 -4,-100 485,-100 485,4 -4,4"/>
<!-- Node12 -->
<g id="node1" class="node">
<title>Node12</title>
<g id="a_node1"><a xlink:title=" ">
<polygon fill="white" stroke="#bfbfbf" points="0,-38.5 0,-57.5 83,-57.5 83,-38.5 0,-38.5"/>
<text text-anchor="middle" x="41.5" y="-45.5" font-family="Helvetica,sans-Serif" font-size="10.00">runtime_error</text>
</a>
</g>
</g>
<!-- Node0 -->
<g id="node2" class="node">
<title>Node0</title>
<g id="a_node2"><a xlink:href="classBabel_1_1Exception_1_1BabelException.html" target="_top" xlink:title="Base Project Exception.">
<polygon fill="white" stroke="black" points="119,-38.5 119,-57.5 299,-57.5 299,-38.5 119,-38.5"/>
<text text-anchor="middle" x="209" y="-45.5" font-family="Helvetica,sans-Serif" font-size="10.00">Babel::Exception::BabelException</text>
</a>
</g>
</g>
<!-- Node12&#45;&gt;Node0 -->
<g id="edge1" class="edge">
<title>Node12&#45;&gt;Node0</title>
<path fill="none" stroke="midnightblue" d="M93.45,-48C101.6,-48 110.24,-48 118.97,-48"/>
<polygon fill="midnightblue" stroke="midnightblue" points="93.41,-44.5 83.41,-48 93.41,-51.5 93.41,-44.5"/>
</g>
<!-- Node1 -->
<g id="node3" class="node">
<title>Node1</title>
<g id="a_node3"><a xlink:href="classBabel_1_1NetworkException.html" target="_top" xlink:title=" ">
<polygon fill="white" stroke="black" points="338,-76.5 338,-95.5 478,-95.5 478,-76.5 338,-76.5"/>
<text text-anchor="middle" x="408" y="-83.5" font-family="Helvetica,sans-Serif" font-size="10.00">Babel::NetworkException</text>
</a>
</g>
</g>
<!-- Node0&#45;&gt;Node1 -->
<g id="edge2" class="edge">
<title>Node0&#45;&gt;Node1</title>
<path fill="none" stroke="midnightblue" d="M269.56,-59.49C297.67,-64.91 330.82,-71.31 357.52,-76.46"/>
<polygon fill="midnightblue" stroke="midnightblue" points="269.94,-56 259.46,-57.54 268.61,-62.87 269.94,-56"/>
</g>
<!-- Node2 -->
<g id="node4" class="node">
<title>Node2</title>
<g id="a_node4"><a xlink:href="classBabel_1_1OpusException.html" target="_top" xlink:title=" ">
<polygon fill="white" stroke="black" points="346.5,-38.5 346.5,-57.5 469.5,-57.5 469.5,-38.5 346.5,-38.5"/>
<text text-anchor="middle" x="408" y="-45.5" font-family="Helvetica,sans-Serif" font-size="10.00">Babel::OpusException</text>
</a>
</g>
</g>
<!-- Node0&#45;&gt;Node2 -->
<g id="edge3" class="edge">
<title>Node0&#45;&gt;Node2</title>
<path fill="none" stroke="midnightblue" d="M309.36,-48C321.94,-48 334.5,-48 346.22,-48"/>
<polygon fill="midnightblue" stroke="midnightblue" points="309.28,-44.5 299.28,-48 309.28,-51.5 309.28,-44.5"/>
</g>
<!-- Node3 -->
<g id="node5" class="node">
<title>Node3</title>
<g id="a_node5"><a xlink:href="classBabel_1_1PortAudioException.html" target="_top" xlink:title=" ">
<polygon fill="white" stroke="black" points="335,-0.5 335,-19.5 481,-19.5 481,-0.5 335,-0.5"/>
<text text-anchor="middle" x="408" y="-7.5" font-family="Helvetica,sans-Serif" font-size="10.00">Babel::PortAudioException</text>
</a>
</g>
</g>
<!-- Node0&#45;&gt;Node3 -->
<g id="edge4" class="edge">
<title>Node0&#45;&gt;Node3</title>
<path fill="none" stroke="midnightblue" d="M269.56,-36.51C297.67,-31.09 330.82,-24.69 357.52,-19.54"/>
<polygon fill="midnightblue" stroke="midnightblue" points="268.61,-33.13 259.46,-38.46 269.94,-40 268.61,-33.13"/>
</g>
</g>
</svg>
