<?xml version="1.0" encoding="UTF-8" standalone="no"?>
<!DOCTYPE svg PUBLIC "-//W3C//DTD SVG 1.1//EN"
 "http://www.w3.org/Graphics/SVG/1.1/DTD/svg11.dtd">
<!-- Generated by graphviz version 2.43.0 (0)
 -->
<!-- Title: Common/Network/ITCPServer.hpp Pages: 1 -->
<svg width="1063pt" height="252pt"
 viewBox="0.00 0.00 1063.44 252.00" xmlns="http://www.w3.org/2000/svg" xmlns:xlink="http://www.w3.org/1999/xlink">
<g id="graph0" class="graph" transform="scale(1 1) rotate(0) translate(4 248)">
<title>Common/Network/ITCPServer.hpp</title>
<polygon fill="white" stroke="transparent" points="-4,4 -4,-248 1059.44,-248 1059.44,4 -4,4"/>
<!-- Node1 -->
<g id="node1" class="node">
<title>Node1</title>
<g id="a_node1"><a xlink:title=" ">
<polygon fill="#bfbfbf" stroke="black" points="158.44,-224.5 158.44,-243.5 339.44,-243.5 339.44,-224.5 158.44,-224.5"/>
<text text-anchor="middle" x="248.94" y="-231.5" font-family="Helvetica,sans-Serif" font-size="10.00">Common/Network/ITCPServer.hpp</text>
</a>
</g>
</g>
<!-- Node2 -->
<g id="node2" class="node">
<title>Node2</title>
<g id="a_node2"><a xlink:title=" ">
<polygon fill="white" stroke="#bfbfbf" points="330.94,-0.5 330.94,-19.5 380.94,-19.5 380.94,-0.5 330.94,-0.5"/>
<text text-anchor="middle" x="355.94" y="-7.5" font-family="Helvetica,sans-Serif" font-size="10.00">cstdint</text>
</a>
</g>
</g>
<!-- Node1&#45;&gt;Node2 -->
<g id="edge1" class="edge">
<title>Node1&#45;&gt;Node2</title>
<path fill="none" stroke="midnightblue" d="M218.02,-224.49C139.91,-201.59 -54.31,-135 14.94,-56 34.91,-33.23 237.35,-18.29 320.54,-13.07"/>
<polygon fill="midnightblue" stroke="midnightblue" points="321,-16.55 330.77,-12.44 320.57,-9.56 321,-16.55"/>
</g>
<!-- Node3 -->
<g id="node3" class="node">
<title>Node3</title>
<g id="a_node3"><a xlink:title=" ">
<polygon fill="white" stroke="#bfbfbf" points="421.94,-168.5 421.94,-187.5 479.94,-187.5 479.94,-168.5 421.94,-168.5"/>
<text text-anchor="middle" x="450.94" y="-175.5" font-family="Helvetica,sans-Serif" font-size="10.00">memory</text>
</a>
</g>
</g>
<!-- Node1&#45;&gt;Node3 -->
<g id="edge2" class="edge">
<title>Node1&#45;&gt;Node3</title>
<path fill="none" stroke="midnightblue" d="M280.95,-224.44C316.49,-214.94 373.86,-199.61 411.98,-189.42"/>
<polygon fill="midnightblue" stroke="midnightblue" points="412.95,-192.78 421.71,-186.82 411.15,-186.02 412.95,-192.78"/>
</g>
<!-- Node4 -->
<g id="node4" class="node">
<title>Node4</title>
<g id="a_node4"><a xlink:title=" ">
<polygon fill="white" stroke="#bfbfbf" points="119.94,-112.5 119.94,-131.5 163.94,-131.5 163.94,-112.5 119.94,-112.5"/>
<text text-anchor="middle" x="141.94" y="-119.5" font-family="Helvetica,sans-Serif" font-size="10.00">string</text>
</a>
</g>
</g>
<!-- Node1&#45;&gt;Node4 -->
<g id="edge3" class="edge">
<title>Node1&#45;&gt;Node4</title>
<path fill="none" stroke="midnightblue" d="M218.87,-224.46C199.73,-217.56 175.82,-205.98 160.94,-188 150.06,-174.85 145.41,-155.71 143.43,-141.6"/>
<polygon fill="midnightblue" stroke="midnightblue" points="146.9,-141.14 142.34,-131.58 139.94,-141.9 146.9,-141.14"/>
</g>
<!-- Node5 -->
<g id="node5" class="node">
<title>Node5</title>
<g id="a_node5"><a xlink:title=" ">
<polygon fill="white" stroke="#bfbfbf" points="24.44,-56.5 24.44,-75.5 71.44,-75.5 71.44,-56.5 24.44,-56.5"/>
<text text-anchor="middle" x="47.94" y="-63.5" font-family="Helvetica,sans-Serif" font-size="10.00">vector</text>
</a>
</g>
</g>
<!-- Node1&#45;&gt;Node5 -->
<g id="edge4" class="edge">
<title>Node1&#45;&gt;Node5</title>
<path fill="none" stroke="midnightblue" d="M220.2,-224.39C198.63,-217 169.13,-204.87 146.94,-188 107.87,-158.28 74.58,-110.14 58.42,-84.46"/>
<polygon fill="midnightblue" stroke="midnightblue" points="61.31,-82.48 53.08,-75.8 55.35,-86.15 61.31,-82.48"/>
</g>
<!-- Node6 -->
<g id="node6" class="node">
<title>Node6</title>
<g id="a_node6"><a xlink:href="Message_8hpp.html" target="_top" xlink:title=" ">
<polygon fill="white" stroke="black" points="315.44,-112.5 315.44,-131.5 396.44,-131.5 396.44,-112.5 315.44,-112.5"/>
<text text-anchor="middle" x="355.94" y="-119.5" font-family="Helvetica,sans-Serif" font-size="10.00">Message.hpp</text>
</a>
</g>
</g>
<!-- Node1&#45;&gt;Node6 -->
<g id="edge5" class="edge">
<title>Node1&#45;&gt;Node6</title>
<path fill="none" stroke="midnightblue" d="M279.02,-224.46C298.16,-217.56 322.07,-205.98 336.94,-188 347.83,-174.85 352.48,-155.71 354.46,-141.6"/>
<polygon fill="midnightblue" stroke="midnightblue" points="357.95,-141.9 355.55,-131.58 350.99,-141.14 357.95,-141.9"/>
</g>
<!-- Node15 -->
<g id="node15" class="node">
<title>Node15</title>
<g id="a_node15"><a xlink:href="TSQueue_8hpp.html" target="_top" xlink:title=" ">
<polygon fill="white" stroke="black" points="743.94,-112.5 743.94,-131.5 865.94,-131.5 865.94,-112.5 743.94,-112.5"/>
<text text-anchor="middle" x="804.94" y="-119.5" font-family="Helvetica,sans-Serif" font-size="10.00">Utilities/TSQueue.hpp</text>
</a>
</g>
</g>
<!-- Node1&#45;&gt;Node15 -->
<g id="edge17" class="edge">
<title>Node1&#45;&gt;Node15</title>
<path fill="none" stroke="midnightblue" d="M269.66,-224.44C310.44,-207.63 398.43,-171.64 412.94,-168 522.63,-140.48 653.87,-129.74 733.25,-125.58"/>
<polygon fill="midnightblue" stroke="midnightblue" points="733.81,-129.06 743.62,-125.06 733.46,-122.07 733.81,-129.06"/>
</g>
<!-- Node20 -->
<g id="node20" class="node">
<title>Node20</title>
<g id="a_node20"><a xlink:href="ITCPConnection_8hpp.html" target="_top" xlink:title=" ">
<polygon fill="white" stroke="black" points="169.94,-168.5 169.94,-187.5 327.94,-187.5 327.94,-168.5 169.94,-168.5"/>
<text text-anchor="middle" x="248.94" y="-175.5" font-family="Helvetica,sans-Serif" font-size="10.00">Network/ITCPConnection.hpp</text>
</a>
</g>
</g>
<!-- Node1&#45;&gt;Node20 -->
<g id="edge22" class="edge">
<title>Node1&#45;&gt;Node20</title>
<path fill="none" stroke="midnightblue" d="M248.94,-224.08C248.94,-217.01 248.94,-206.86 248.94,-197.99"/>
<polygon fill="midnightblue" stroke="midnightblue" points="252.44,-197.75 248.94,-187.75 245.44,-197.75 252.44,-197.75"/>
</g>
<!-- Node6&#45;&gt;Node2 -->
<g id="edge12" class="edge">
<title>Node6&#45;&gt;Node2</title>
<path fill="none" stroke="midnightblue" d="M355.94,-112.37C355.94,-94.62 355.94,-53.67 355.94,-29.6"/>
<polygon fill="midnightblue" stroke="midnightblue" points="359.44,-29.59 355.94,-19.59 352.44,-29.59 359.44,-29.59"/>
</g>
<!-- Node6&#45;&gt;Node5 -->
<g id="edge13" class="edge">
<title>Node6&#45;&gt;Node5</title>
<path fill="none" stroke="midnightblue" d="M315.37,-114.89C253.98,-105.57 139.38,-87.81 81.74,-75.93"/>
<polygon fill="midnightblue" stroke="midnightblue" points="82.17,-72.45 71.67,-73.79 80.72,-79.29 82.17,-72.45"/>
</g>
<!-- Node7 -->
<g id="node7" class="node">
<title>Node7</title>
<g id="a_node7"><a xlink:href="BabelException_8hpp.html" target="_top" xlink:title=" ">
<polygon fill="white" stroke="black" points="89.94,-56.5 89.94,-75.5 259.94,-75.5 259.94,-56.5 89.94,-56.5"/>
<text text-anchor="middle" x="174.94" y="-63.5" font-family="Helvetica,sans-Serif" font-size="10.00">Exceptions/BabelException.hpp</text>
</a>
</g>
</g>
<!-- Node6&#45;&gt;Node7 -->
<g id="edge6" class="edge">
<title>Node6&#45;&gt;Node7</title>
<path fill="none" stroke="midnightblue" d="M327.26,-112.44C296.42,-103.24 247.22,-88.56 213.12,-78.39"/>
<polygon fill="midnightblue" stroke="midnightblue" points="214.07,-75.02 203.49,-75.52 212.07,-81.73 214.07,-75.02"/>
</g>
<!-- Node9 -->
<g id="node9" class="node">
<title>Node9</title>
<g id="a_node9"><a xlink:href="SwapEndian_8hpp.html" target="_top" xlink:title=" ">
<polygon fill="white" stroke="black" points="591.94,-56.5 591.94,-75.5 729.94,-75.5 729.94,-56.5 591.94,-56.5"/>
<text text-anchor="middle" x="660.94" y="-63.5" font-family="Helvetica,sans-Serif" font-size="10.00">Utilities/SwapEndian.hpp</text>
</a>
</g>
</g>
<!-- Node6&#45;&gt;Node9 -->
<g id="edge8" class="edge">
<title>Node6&#45;&gt;Node9</title>
<path fill="none" stroke="midnightblue" d="M396.45,-113.83C449.29,-104.47 542.13,-88.04 602.58,-77.33"/>
<polygon fill="midnightblue" stroke="midnightblue" points="603.49,-80.73 612.73,-75.54 602.27,-73.83 603.49,-80.73"/>
</g>
<!-- Node11 -->
<g id="node11" class="node">
<title>Node11</title>
<g id="a_node11"><a xlink:title=" ">
<polygon fill="white" stroke="#bfbfbf" points="277.94,-56.5 277.94,-75.5 327.94,-75.5 327.94,-56.5 277.94,-56.5"/>
<text text-anchor="middle" x="302.94" y="-63.5" font-family="Helvetica,sans-Serif" font-size="10.00">cstring</text>
</a>
</g>
</g>
<!-- Node6&#45;&gt;Node11 -->
<g id="edge11" class="edge">
<title>Node6&#45;&gt;Node11</title>
<path fill="none" stroke="midnightblue" d="M347.19,-112.08C339.48,-104.22 328.04,-92.57 318.73,-83.08"/>
<polygon fill="midnightblue" stroke="midnightblue" points="321.04,-80.44 311.53,-75.75 316.04,-85.34 321.04,-80.44"/>
</g>
<!-- Node12 -->
<g id="node12" class="node">
<title>Node12</title>
<g id="a_node12"><a xlink:title=" ">
<polygon fill="white" stroke="#bfbfbf" points="383.94,-56.5 383.94,-75.5 447.94,-75.5 447.94,-56.5 383.94,-56.5"/>
<text text-anchor="middle" x="415.94" y="-63.5" font-family="Helvetica,sans-Serif" font-size="10.00">algorithm</text>
</a>
</g>
</g>
<!-- Node6&#45;&gt;Node12 -->
<g id="edge14" class="edge">
<title>Node6&#45;&gt;Node12</title>
<path fill="none" stroke="midnightblue" d="M365.58,-112.32C374.45,-104.34 387.82,-92.31 398.55,-82.65"/>
<polygon fill="midnightblue" stroke="midnightblue" points="401.04,-85.13 406.13,-75.83 396.36,-79.92 401.04,-85.13"/>
</g>
<!-- Node13 -->
<g id="node13" class="node">
<title>Node13</title>
<g id="a_node13"><a xlink:title=" ">
<polygon fill="white" stroke="#bfbfbf" points="465.94,-56.5 465.94,-75.5 525.94,-75.5 525.94,-56.5 465.94,-56.5"/>
<text text-anchor="middle" x="495.94" y="-63.5" font-family="Helvetica,sans-Serif" font-size="10.00">iostream</text>
</a>
</g>
</g>
<!-- Node6&#45;&gt;Node13 -->
<g id="edge15" class="edge">
<title>Node6&#45;&gt;Node13</title>
<path fill="none" stroke="midnightblue" d="M378.13,-112.44C401.37,-103.48 438.09,-89.31 464.36,-79.18"/>
<polygon fill="midnightblue" stroke="midnightblue" points="465.79,-82.38 473.87,-75.52 463.28,-75.85 465.79,-82.38"/>
</g>
<!-- Node14 -->
<g id="node14" class="node">
<title>Node14</title>
<g id="a_node14"><a xlink:title=" ">
<polygon fill="white" stroke="#bfbfbf" points="544.44,-56.5 544.44,-75.5 573.44,-75.5 573.44,-56.5 544.44,-56.5"/>
<text text-anchor="middle" x="558.94" y="-63.5" font-family="Helvetica,sans-Serif" font-size="10.00">bit</text>
</a>
</g>
</g>
<!-- Node6&#45;&gt;Node14 -->
<g id="edge16" class="edge">
<title>Node6&#45;&gt;Node14</title>
<path fill="none" stroke="midnightblue" d="M395.41,-112.42C429.85,-104.64 481.29,-92.3 534.68,-75.8"/>
<polygon fill="midnightblue" stroke="midnightblue" points="535.81,-79.11 544.31,-72.79 533.72,-72.43 535.81,-79.11"/>
</g>
<!-- Node8 -->
<g id="node8" class="node">
<title>Node8</title>
<g id="a_node8"><a xlink:title=" ">
<polygon fill="white" stroke="#bfbfbf" points="142.44,-0.5 142.44,-19.5 207.44,-19.5 207.44,-0.5 142.44,-0.5"/>
<text text-anchor="middle" x="174.94" y="-7.5" font-family="Helvetica,sans-Serif" font-size="10.00">stdexcept</text>
</a>
</g>
</g>
<!-- Node7&#45;&gt;Node8 -->
<g id="edge7" class="edge">
<title>Node7&#45;&gt;Node8</title>
<path fill="none" stroke="midnightblue" d="M174.94,-56.08C174.94,-49.01 174.94,-38.86 174.94,-29.99"/>
<polygon fill="midnightblue" stroke="midnightblue" points="178.44,-29.75 174.94,-19.75 171.44,-29.75 178.44,-29.75"/>
</g>
<!-- Node9&#45;&gt;Node2 -->
<g id="edge10" class="edge">
<title>Node9&#45;&gt;Node2</title>
<path fill="none" stroke="midnightblue" d="M612.62,-56.44C550.92,-45.52 445.64,-26.88 391.06,-17.22"/>
<polygon fill="midnightblue" stroke="midnightblue" points="391.63,-13.76 381.17,-15.47 390.41,-20.66 391.63,-13.76"/>
</g>
<!-- Node10 -->
<g id="node10" class="node">
<title>Node10</title>
<g id="a_node10"><a xlink:title=" ">
<polygon fill="white" stroke="#bfbfbf" points="635.94,-0.5 635.94,-19.5 685.94,-19.5 685.94,-0.5 635.94,-0.5"/>
<text text-anchor="middle" x="660.94" y="-7.5" font-family="Helvetica,sans-Serif" font-size="10.00">climits</text>
</a>
</g>
</g>
<!-- Node9&#45;&gt;Node10 -->
<g id="edge9" class="edge">
<title>Node9&#45;&gt;Node10</title>
<path fill="none" stroke="midnightblue" d="M660.94,-56.08C660.94,-49.01 660.94,-38.86 660.94,-29.99"/>
<polygon fill="midnightblue" stroke="midnightblue" points="664.44,-29.75 660.94,-19.75 657.44,-29.75 664.44,-29.75"/>
</g>
<!-- Node16 -->
<g id="node16" class="node">
<title>Node16</title>
<g id="a_node16"><a xlink:title=" ">
<polygon fill="white" stroke="#bfbfbf" points="881.94,-56.5 881.94,-75.5 929.94,-75.5 929.94,-56.5 881.94,-56.5"/>
<text text-anchor="middle" x="905.94" y="-63.5" font-family="Helvetica,sans-Serif" font-size="10.00">mutex</text>
</a>
</g>
</g>
<!-- Node15&#45;&gt;Node16 -->
<g id="edge18" class="edge">
<title>Node15&#45;&gt;Node16</title>
<path fill="none" stroke="midnightblue" d="M821.17,-112.32C837.3,-103.7 862.24,-90.36 880.91,-80.39"/>
<polygon fill="midnightblue" stroke="midnightblue" points="882.59,-83.46 889.76,-75.65 879.29,-77.28 882.59,-83.46"/>
</g>
<!-- Node17 -->
<g id="node17" class="node">
<title>Node17</title>
<g id="a_node17"><a xlink:title=" ">
<polygon fill="white" stroke="#bfbfbf" points="948.44,-56.5 948.44,-75.5 1055.44,-75.5 1055.44,-56.5 948.44,-56.5"/>
<text text-anchor="middle" x="1001.94" y="-63.5" font-family="Helvetica,sans-Serif" font-size="10.00">condition_variable</text>
</a>
</g>
</g>
<!-- Node15&#45;&gt;Node17 -->
<g id="edge19" class="edge">
<title>Node15&#45;&gt;Node17</title>
<path fill="none" stroke="midnightblue" d="M836.16,-112.44C869.88,-103.2 923.74,-88.44 960.88,-78.26"/>
<polygon fill="midnightblue" stroke="midnightblue" points="962.16,-81.54 970.88,-75.52 960.31,-74.78 962.16,-81.54"/>
</g>
<!-- Node18 -->
<g id="node18" class="node">
<title>Node18</title>
<g id="a_node18"><a xlink:title=" ">
<polygon fill="white" stroke="#bfbfbf" points="748.44,-56.5 748.44,-75.5 795.44,-75.5 795.44,-56.5 748.44,-56.5"/>
<text text-anchor="middle" x="771.94" y="-63.5" font-family="Helvetica,sans-Serif" font-size="10.00">deque</text>
</a>
</g>
</g>
<!-- Node15&#45;&gt;Node18 -->
<g id="edge20" class="edge">
<title>Node15&#45;&gt;Node18</title>
<path fill="none" stroke="midnightblue" d="M799.5,-112.08C794.93,-104.61 788.28,-93.72 782.65,-84.52"/>
<polygon fill="midnightblue" stroke="midnightblue" points="785.49,-82.46 777.29,-75.75 779.52,-86.11 785.49,-82.46"/>
</g>
<!-- Node19 -->
<g id="node19" class="node">
<title>Node19</title>
<g id="a_node19"><a xlink:title=" ">
<polygon fill="white" stroke="#bfbfbf" points="813.94,-56.5 813.94,-75.5 863.94,-75.5 863.94,-56.5 813.94,-56.5"/>
<text text-anchor="middle" x="838.94" y="-63.5" font-family="Helvetica,sans-Serif" font-size="10.00">chrono</text>
</a>
</g>
</g>
<!-- Node15&#45;&gt;Node19 -->
<g id="edge21" class="edge">
<title>Node15&#45;&gt;Node19</title>
<path fill="none" stroke="midnightblue" d="M810.56,-112.08C815.31,-104.53 822.26,-93.49 828.1,-84.23"/>
<polygon fill="midnightblue" stroke="midnightblue" points="831.07,-86.08 833.43,-75.75 825.14,-82.35 831.07,-86.08"/>
</g>
<!-- Node20&#45;&gt;Node4 -->
<g id="edge23" class="edge">
<title>Node20&#45;&gt;Node4</title>
<path fill="none" stroke="midnightblue" d="M231.75,-168.32C214.59,-159.66 188,-146.24 168.2,-136.25"/>
<polygon fill="midnightblue" stroke="midnightblue" points="169.6,-133.04 159.09,-131.65 166.44,-139.28 169.6,-133.04"/>
</g>
<!-- Node20&#45;&gt;Node5 -->
<g id="edge24" class="edge">
<title>Node20&#45;&gt;Node5</title>
<path fill="none" stroke="midnightblue" d="M240.85,-168.28C227.74,-154.61 200.56,-128.05 172.94,-112 157.07,-102.77 112.56,-87.61 81.2,-77.47"/>
<polygon fill="midnightblue" stroke="midnightblue" points="82.12,-74.09 71.53,-74.36 79.98,-80.75 82.12,-74.09"/>
</g>
<!-- Node20&#45;&gt;Node6 -->
<g id="edge26" class="edge">
<title>Node20&#45;&gt;Node6</title>
<path fill="none" stroke="midnightblue" d="M266.14,-168.32C283.3,-159.66 309.89,-146.24 329.69,-136.25"/>
<polygon fill="midnightblue" stroke="midnightblue" points="331.45,-139.28 338.8,-131.65 328.29,-133.04 331.45,-139.28"/>
</g>
<!-- Node20&#45;&gt;Node15 -->
<g id="edge27" class="edge">
<title>Node20&#45;&gt;Node15</title>
<path fill="none" stroke="midnightblue" d="M328.02,-169.32C436.39,-158.8 629.45,-140.04 733.61,-129.93"/>
<polygon fill="midnightblue" stroke="midnightblue" points="734.1,-133.4 743.71,-128.95 733.42,-126.43 734.1,-133.4"/>
</g>
<!-- Node21 -->
<g id="node21" class="node">
<title>Node21</title>
<g id="a_node21"><a xlink:title=" ">
<polygon fill="white" stroke="#bfbfbf" points="220.44,-112.5 220.44,-131.5 285.44,-131.5 285.44,-112.5 220.44,-112.5"/>
<text text-anchor="middle" x="252.94" y="-119.5" font-family="Helvetica,sans-Serif" font-size="10.00">functional</text>
</a>
</g>
</g>
<!-- Node20&#45;&gt;Node21 -->
<g id="edge25" class="edge">
<title>Node20&#45;&gt;Node21</title>
<path fill="none" stroke="midnightblue" d="M249.61,-168.08C250.13,-161.01 250.88,-150.86 251.54,-141.99"/>
<polygon fill="midnightblue" stroke="midnightblue" points="255.05,-141.98 252.3,-131.75 248.07,-141.47 255.05,-141.98"/>
</g>
</g>
</svg>
