<?xml version="1.0" encoding="UTF-8" standalone="no"?>
<!DOCTYPE svg PUBLIC "-//W3C//DTD SVG 1.1//EN"
 "http://www.w3.org/Graphics/SVG/1.1/DTD/svg11.dtd">
<!-- Generated by graphviz version 2.43.0 (0)
 -->
<!-- Title: Common/Network/ITCPConnection.hpp Pages: 1 -->
<svg width="1039pt" height="196pt"
 viewBox="0.00 0.00 1038.50 196.00" xmlns="http://www.w3.org/2000/svg" xmlns:xlink="http://www.w3.org/1999/xlink">
<g id="graph0" class="graph" transform="scale(1 1) rotate(0) translate(4 192)">
<title>Common/Network/ITCPConnection.hpp</title>
<polygon fill="white" stroke="transparent" points="-4,4 -4,-192 1034.5,-192 1034.5,4 -4,4"/>
<!-- Node1 -->
<g id="node1" class="node">
<title>Node1</title>
<g id="a_node1"><a xlink:title=" ">
<polygon fill="#bfbfbf" stroke="black" points="230,-168.5 230,-187.5 435,-187.5 435,-168.5 230,-168.5"/>
<text text-anchor="middle" x="332.5" y="-175.5" font-family="Helvetica,sans-Serif" font-size="10.00">Common/Network/ITCPConnection.hpp</text>
</a>
</g>
</g>
<!-- Node2 -->
<g id="node2" class="node">
<title>Node2</title>
<g id="a_node2"><a xlink:title=" ">
<polygon fill="white" stroke="#bfbfbf" points="199.5,-112.5 199.5,-131.5 243.5,-131.5 243.5,-112.5 199.5,-112.5"/>
<text text-anchor="middle" x="221.5" y="-119.5" font-family="Helvetica,sans-Serif" font-size="10.00">string</text>
</a>
</g>
</g>
<!-- Node1&#45;&gt;Node2 -->
<g id="edge1" class="edge">
<title>Node1&#45;&gt;Node2</title>
<path fill="none" stroke="midnightblue" d="M314.67,-168.32C296.78,-159.62 269.02,-146.12 248.45,-136.11"/>
<polygon fill="midnightblue" stroke="midnightblue" points="249.81,-132.88 239.29,-131.65 246.75,-139.18 249.81,-132.88"/>
</g>
<!-- Node3 -->
<g id="node3" class="node">
<title>Node3</title>
<g id="a_node3"><a xlink:title=" ">
<polygon fill="white" stroke="#bfbfbf" points="0,-56.5 0,-75.5 47,-75.5 47,-56.5 0,-56.5"/>
<text text-anchor="middle" x="23.5" y="-63.5" font-family="Helvetica,sans-Serif" font-size="10.00">vector</text>
</a>
</g>
</g>
<!-- Node1&#45;&gt;Node3 -->
<g id="edge2" class="edge">
<title>Node1&#45;&gt;Node3</title>
<path fill="none" stroke="midnightblue" d="M324.61,-168.2C311.26,-153.93 282.73,-125.94 252.5,-112 174.9,-76.22 144.97,-94.28 57.08,-75.89"/>
<polygon fill="midnightblue" stroke="midnightblue" points="57.75,-72.45 47.23,-73.73 56.25,-79.29 57.75,-72.45"/>
</g>
<!-- Node4 -->
<g id="node4" class="node">
<title>Node4</title>
<g id="a_node4"><a xlink:title=" ">
<polygon fill="white" stroke="#bfbfbf" points="300,-112.5 300,-131.5 365,-131.5 365,-112.5 300,-112.5"/>
<text text-anchor="middle" x="332.5" y="-119.5" font-family="Helvetica,sans-Serif" font-size="10.00">functional</text>
</a>
</g>
</g>
<!-- Node1&#45;&gt;Node4 -->
<g id="edge3" class="edge">
<title>Node1&#45;&gt;Node4</title>
<path fill="none" stroke="midnightblue" d="M332.5,-168.08C332.5,-161.01 332.5,-150.86 332.5,-141.99"/>
<polygon fill="midnightblue" stroke="midnightblue" points="336,-141.75 332.5,-131.75 329,-141.75 336,-141.75"/>
</g>
<!-- Node5 -->
<g id="node5" class="node">
<title>Node5</title>
<g id="a_node5"><a xlink:href="Message_8hpp.html" target="_top" xlink:title=" ">
<polygon fill="white" stroke="black" points="383,-112.5 383,-131.5 508,-131.5 508,-112.5 383,-112.5"/>
<text text-anchor="middle" x="445.5" y="-119.5" font-family="Helvetica,sans-Serif" font-size="10.00">Network/Message.hpp</text>
</a>
</g>
</g>
<!-- Node1&#45;&gt;Node5 -->
<g id="edge4" class="edge">
<title>Node1&#45;&gt;Node5</title>
<path fill="none" stroke="midnightblue" d="M350.41,-168.44C368.75,-159.68 397.51,-145.94 418.59,-135.86"/>
<polygon fill="midnightblue" stroke="midnightblue" points="420.17,-138.99 427.68,-131.52 417.15,-132.67 420.17,-138.99"/>
</g>
<!-- Node15 -->
<g id="node15" class="node">
<title>Node15</title>
<g id="a_node15"><a xlink:href="TSQueue_8hpp.html" target="_top" xlink:title=" ">
<polygon fill="white" stroke="black" points="782.5,-112.5 782.5,-131.5 904.5,-131.5 904.5,-112.5 782.5,-112.5"/>
<text text-anchor="middle" x="843.5" y="-119.5" font-family="Helvetica,sans-Serif" font-size="10.00">Utilities/TSQueue.hpp</text>
</a>
</g>
</g>
<!-- Node1&#45;&gt;Node15 -->
<g id="edge16" class="edge">
<title>Node1&#45;&gt;Node15</title>
<path fill="none" stroke="midnightblue" d="M413.19,-168.47C512.1,-158.02 678.15,-140.47 772.45,-130.51"/>
<polygon fill="midnightblue" stroke="midnightblue" points="772.88,-133.98 782.46,-129.45 772.15,-127.02 772.88,-133.98"/>
</g>
<!-- Node5&#45;&gt;Node3 -->
<g id="edge12" class="edge">
<title>Node5&#45;&gt;Node3</title>
<path fill="none" stroke="midnightblue" d="M382.68,-113.1C379.57,-112.73 376.5,-112.36 373.5,-112 235.87,-95.58 197.46,-102.41 57.04,-75.81"/>
<polygon fill="midnightblue" stroke="midnightblue" points="57.67,-72.37 47.19,-73.93 56.35,-79.25 57.67,-72.37"/>
</g>
<!-- Node6 -->
<g id="node6" class="node">
<title>Node6</title>
<g id="a_node6"><a xlink:href="BabelException_8hpp.html" target="_top" xlink:title=" ">
<polygon fill="white" stroke="black" points="65.5,-56.5 65.5,-75.5 235.5,-75.5 235.5,-56.5 65.5,-56.5"/>
<text text-anchor="middle" x="150.5" y="-63.5" font-family="Helvetica,sans-Serif" font-size="10.00">Exceptions/BabelException.hpp</text>
</a>
</g>
</g>
<!-- Node5&#45;&gt;Node6 -->
<g id="edge5" class="edge">
<title>Node5&#45;&gt;Node6</title>
<path fill="none" stroke="midnightblue" d="M398.76,-112.44C346.75,-102.92 262.75,-87.55 207.08,-77.36"/>
<polygon fill="midnightblue" stroke="midnightblue" points="207.49,-73.87 197.02,-75.52 206.23,-80.76 207.49,-73.87"/>
</g>
<!-- Node8 -->
<g id="node8" class="node">
<title>Node8</title>
<g id="a_node8"><a xlink:href="SwapEndian_8hpp.html" target="_top" xlink:title=" ">
<polygon fill="white" stroke="black" points="253.5,-56.5 253.5,-75.5 391.5,-75.5 391.5,-56.5 253.5,-56.5"/>
<text text-anchor="middle" x="322.5" y="-63.5" font-family="Helvetica,sans-Serif" font-size="10.00">Utilities/SwapEndian.hpp</text>
</a>
</g>
</g>
<!-- Node5&#45;&gt;Node8 -->
<g id="edge7" class="edge">
<title>Node5&#45;&gt;Node8</title>
<path fill="none" stroke="midnightblue" d="M426.01,-112.44C405.86,-103.6 374.18,-89.69 351.17,-79.59"/>
<polygon fill="midnightblue" stroke="midnightblue" points="352.46,-76.33 341.9,-75.52 349.65,-82.74 352.46,-76.33"/>
</g>
<!-- Node10 -->
<g id="node10" class="node">
<title>Node10</title>
<g id="a_node10"><a xlink:title=" ">
<polygon fill="white" stroke="#bfbfbf" points="379.5,-0.5 379.5,-19.5 429.5,-19.5 429.5,-0.5 379.5,-0.5"/>
<text text-anchor="middle" x="404.5" y="-7.5" font-family="Helvetica,sans-Serif" font-size="10.00">cstdint</text>
</a>
</g>
</g>
<!-- Node5&#45;&gt;Node10 -->
<g id="edge11" class="edge">
<title>Node5&#45;&gt;Node10</title>
<path fill="none" stroke="midnightblue" d="M442.28,-112.37C435.64,-94.54 420.26,-53.3 411.31,-29.27"/>
<polygon fill="midnightblue" stroke="midnightblue" points="414.47,-27.74 407.7,-19.59 407.92,-30.18 414.47,-27.74"/>
</g>
<!-- Node11 -->
<g id="node11" class="node">
<title>Node11</title>
<g id="a_node11"><a xlink:title=" ">
<polygon fill="white" stroke="#bfbfbf" points="447.5,-56.5 447.5,-75.5 497.5,-75.5 497.5,-56.5 447.5,-56.5"/>
<text text-anchor="middle" x="472.5" y="-63.5" font-family="Helvetica,sans-Serif" font-size="10.00">cstring</text>
</a>
</g>
</g>
<!-- Node5&#45;&gt;Node11 -->
<g id="edge10" class="edge">
<title>Node5&#45;&gt;Node11</title>
<path fill="none" stroke="midnightblue" d="M449.96,-112.08C453.65,-104.69 459.02,-93.95 463.59,-84.81"/>
<polygon fill="midnightblue" stroke="midnightblue" points="466.78,-86.26 468.12,-75.75 460.52,-83.13 466.78,-86.26"/>
</g>
<!-- Node12 -->
<g id="node12" class="node">
<title>Node12</title>
<g id="a_node12"><a xlink:title=" ">
<polygon fill="white" stroke="#bfbfbf" points="515.5,-56.5 515.5,-75.5 579.5,-75.5 579.5,-56.5 515.5,-56.5"/>
<text text-anchor="middle" x="547.5" y="-63.5" font-family="Helvetica,sans-Serif" font-size="10.00">algorithm</text>
</a>
</g>
</g>
<!-- Node5&#45;&gt;Node12 -->
<g id="edge13" class="edge">
<title>Node5&#45;&gt;Node12</title>
<path fill="none" stroke="midnightblue" d="M461.89,-112.32C478.17,-103.7 503.37,-90.36 522.22,-80.39"/>
<polygon fill="midnightblue" stroke="midnightblue" points="523.95,-83.43 531.15,-75.65 520.68,-77.24 523.95,-83.43"/>
</g>
<!-- Node13 -->
<g id="node13" class="node">
<title>Node13</title>
<g id="a_node13"><a xlink:title=" ">
<polygon fill="white" stroke="#bfbfbf" points="597.5,-56.5 597.5,-75.5 657.5,-75.5 657.5,-56.5 597.5,-56.5"/>
<text text-anchor="middle" x="627.5" y="-63.5" font-family="Helvetica,sans-Serif" font-size="10.00">iostream</text>
</a>
</g>
</g>
<!-- Node5&#45;&gt;Node13 -->
<g id="edge14" class="edge">
<title>Node5&#45;&gt;Node13</title>
<path fill="none" stroke="midnightblue" d="M474.34,-112.44C505.36,-103.24 554.83,-88.56 589.12,-78.39"/>
<polygon fill="midnightblue" stroke="midnightblue" points="590.21,-81.72 598.8,-75.52 588.21,-75.01 590.21,-81.72"/>
</g>
<!-- Node14 -->
<g id="node14" class="node">
<title>Node14</title>
<g id="a_node14"><a xlink:title=" ">
<polygon fill="white" stroke="#bfbfbf" points="676,-56.5 676,-75.5 705,-75.5 705,-56.5 676,-56.5"/>
<text text-anchor="middle" x="690.5" y="-63.5" font-family="Helvetica,sans-Serif" font-size="10.00">bit</text>
</a>
</g>
</g>
<!-- Node5&#45;&gt;Node14 -->
<g id="edge15" class="edge">
<title>Node5&#45;&gt;Node14</title>
<path fill="none" stroke="midnightblue" d="M499.66,-112.43C542.47,-105.11 603.81,-93.38 665.93,-75.77"/>
<polygon fill="midnightblue" stroke="midnightblue" points="667.26,-79.03 675.9,-72.89 665.32,-72.3 667.26,-79.03"/>
</g>
<!-- Node7 -->
<g id="node7" class="node">
<title>Node7</title>
<g id="a_node7"><a xlink:title=" ">
<polygon fill="white" stroke="#bfbfbf" points="118,-0.5 118,-19.5 183,-19.5 183,-0.5 118,-0.5"/>
<text text-anchor="middle" x="150.5" y="-7.5" font-family="Helvetica,sans-Serif" font-size="10.00">stdexcept</text>
</a>
</g>
</g>
<!-- Node6&#45;&gt;Node7 -->
<g id="edge6" class="edge">
<title>Node6&#45;&gt;Node7</title>
<path fill="none" stroke="midnightblue" d="M150.5,-56.08C150.5,-49.01 150.5,-38.86 150.5,-29.99"/>
<polygon fill="midnightblue" stroke="midnightblue" points="154,-29.75 150.5,-19.75 147,-29.75 154,-29.75"/>
</g>
<!-- Node9 -->
<g id="node9" class="node">
<title>Node9</title>
<g id="a_node9"><a xlink:title=" ">
<polygon fill="white" stroke="#bfbfbf" points="297.5,-0.5 297.5,-19.5 347.5,-19.5 347.5,-0.5 297.5,-0.5"/>
<text text-anchor="middle" x="322.5" y="-7.5" font-family="Helvetica,sans-Serif" font-size="10.00">climits</text>
</a>
</g>
</g>
<!-- Node8&#45;&gt;Node9 -->
<g id="edge8" class="edge">
<title>Node8&#45;&gt;Node9</title>
<path fill="none" stroke="midnightblue" d="M322.5,-56.08C322.5,-49.01 322.5,-38.86 322.5,-29.99"/>
<polygon fill="midnightblue" stroke="midnightblue" points="326,-29.75 322.5,-19.75 319,-29.75 326,-29.75"/>
</g>
<!-- Node8&#45;&gt;Node10 -->
<g id="edge9" class="edge">
<title>Node8&#45;&gt;Node10</title>
<path fill="none" stroke="midnightblue" d="M335.67,-56.32C348.35,-47.98 367.73,-35.21 382.71,-25.35"/>
<polygon fill="midnightblue" stroke="midnightblue" points="384.93,-28.08 391.36,-19.65 381.08,-22.23 384.93,-28.08"/>
</g>
<!-- Node16 -->
<g id="node16" class="node">
<title>Node16</title>
<g id="a_node16"><a xlink:title=" ">
<polygon fill="white" stroke="#bfbfbf" points="723.5,-56.5 723.5,-75.5 771.5,-75.5 771.5,-56.5 723.5,-56.5"/>
<text text-anchor="middle" x="747.5" y="-63.5" font-family="Helvetica,sans-Serif" font-size="10.00">mutex</text>
</a>
</g>
</g>
<!-- Node15&#45;&gt;Node16 -->
<g id="edge17" class="edge">
<title>Node15&#45;&gt;Node16</title>
<path fill="none" stroke="midnightblue" d="M828.08,-112.32C812.96,-103.82 789.68,-90.73 772.03,-80.8"/>
<polygon fill="midnightblue" stroke="midnightblue" points="773.32,-77.51 762.89,-75.65 769.89,-83.61 773.32,-77.51"/>
</g>
<!-- Node17 -->
<g id="node17" class="node">
<title>Node17</title>
<g id="a_node17"><a xlink:title=" ">
<polygon fill="white" stroke="#bfbfbf" points="790,-56.5 790,-75.5 897,-75.5 897,-56.5 790,-56.5"/>
<text text-anchor="middle" x="843.5" y="-63.5" font-family="Helvetica,sans-Serif" font-size="10.00">condition_variable</text>
</a>
</g>
</g>
<!-- Node15&#45;&gt;Node17 -->
<g id="edge18" class="edge">
<title>Node15&#45;&gt;Node17</title>
<path fill="none" stroke="midnightblue" d="M843.5,-112.08C843.5,-105.01 843.5,-94.86 843.5,-85.99"/>
<polygon fill="midnightblue" stroke="midnightblue" points="847,-85.75 843.5,-75.75 840,-85.75 847,-85.75"/>
</g>
<!-- Node18 -->
<g id="node18" class="node">
<title>Node18</title>
<g id="a_node18"><a xlink:title=" ">
<polygon fill="white" stroke="#bfbfbf" points="915,-56.5 915,-75.5 962,-75.5 962,-56.5 915,-56.5"/>
<text text-anchor="middle" x="938.5" y="-63.5" font-family="Helvetica,sans-Serif" font-size="10.00">deque</text>
</a>
</g>
</g>
<!-- Node15&#45;&gt;Node18 -->
<g id="edge19" class="edge">
<title>Node15&#45;&gt;Node18</title>
<path fill="none" stroke="midnightblue" d="M858.76,-112.32C873.72,-103.82 896.75,-90.73 914.23,-80.8"/>
<polygon fill="midnightblue" stroke="midnightblue" points="916.31,-83.64 923.27,-75.65 912.85,-77.55 916.31,-83.64"/>
</g>
<!-- Node19 -->
<g id="node19" class="node">
<title>Node19</title>
<g id="a_node19"><a xlink:title=" ">
<polygon fill="white" stroke="#bfbfbf" points="980.5,-56.5 980.5,-75.5 1030.5,-75.5 1030.5,-56.5 980.5,-56.5"/>
<text text-anchor="middle" x="1005.5" y="-63.5" font-family="Helvetica,sans-Serif" font-size="10.00">chrono</text>
</a>
</g>
</g>
<!-- Node15&#45;&gt;Node19 -->
<g id="edge20" class="edge">
<title>Node15&#45;&gt;Node19</title>
<path fill="none" stroke="midnightblue" d="M869.17,-112.44C896.58,-103.31 940.19,-88.77 970.69,-78.6"/>
<polygon fill="midnightblue" stroke="midnightblue" points="972.1,-81.82 980.48,-75.34 969.89,-75.18 972.1,-81.82"/>
</g>
</g>
</svg>
