<?xml version="1.0" encoding="UTF-8" standalone="no"?>
<!DOCTYPE svg PUBLIC "-//W3C//DTD SVG 1.1//EN"
 "http://www.w3.org/Graphics/SVG/1.1/DTD/svg11.dtd">
<!-- Generated by graphviz version 2.43.0 (0)
 -->
<!-- Title: Common/Network/ITCPConnection.hpp Pages: 1 -->
<svg width="1156pt" height="296pt"
 viewBox="0.00 0.00 1155.50 296.00" xmlns="http://www.w3.org/2000/svg" xmlns:xlink="http://www.w3.org/1999/xlink">
<g id="graph0" class="graph" transform="scale(1 1) rotate(0) translate(4 292)">
<title>Common/Network/ITCPConnection.hpp</title>
<polygon fill="white" stroke="transparent" points="-4,4 -4,-292 1151.5,-292 1151.5,4 -4,4"/>
<!-- Node1 -->
<g id="node1" class="node">
<title>Node1</title>
<g id="a_node1"><a xlink:title=" ">
<polygon fill="#bfbfbf" stroke="black" points="607.5,-268.5 607.5,-287.5 812.5,-287.5 812.5,-268.5 607.5,-268.5"/>
<text text-anchor="middle" x="710" y="-275.5" font-family="Helvetica,sans-Serif" font-size="10.00">Common/Network/ITCPConnection.hpp</text>
</a>
</g>
</g>
<!-- Node2 -->
<g id="node2" class="node">
<title>Node2</title>
<g id="a_node2"><a xlink:href="QtTCPConnection_8hpp.html" target="_top" xlink:title=" ">
<polygon fill="white" stroke="black" points="170.5,-201.5 170.5,-231.5 295.5,-231.5 295.5,-201.5 170.5,-201.5"/>
<text text-anchor="start" x="178.5" y="-219.5" font-family="Helvetica,sans-Serif" font-size="10.00">Client/src/Network</text>
<text text-anchor="middle" x="233" y="-208.5" font-family="Helvetica,sans-Serif" font-size="10.00">/QtTCPConnection.hpp</text>
</a>
</g>
</g>
<!-- Node1&#45;&gt;Node2 -->
<g id="edge1" class="edge">
<title>Node1&#45;&gt;Node2</title>
<path fill="none" stroke="midnightblue" d="M599.9,-267.53C518.02,-259.83 403.7,-247.67 304,-232 301.27,-231.57 298.48,-231.11 295.66,-230.62"/>
<polygon fill="midnightblue" stroke="midnightblue" points="599.69,-271.03 609.97,-268.47 600.34,-264.06 599.69,-271.03"/>
</g>
<!-- Node10 -->
<g id="node10" class="node">
<title>Node10</title>
<g id="a_node10"><a xlink:href="ITCPServer_8hpp.html" target="_top" xlink:title=" ">
<polygon fill="white" stroke="black" points="313.5,-207 313.5,-226 494.5,-226 494.5,-207 313.5,-207"/>
<text text-anchor="middle" x="404" y="-214" font-family="Helvetica,sans-Serif" font-size="10.00">Common/Network/ITCPServer.hpp</text>
</a>
</g>
</g>
<!-- Node1&#45;&gt;Node10 -->
<g id="edge13" class="edge">
<title>Node1&#45;&gt;Node10</title>
<path fill="none" stroke="midnightblue" d="M656.23,-266.55C596.95,-255.02 502.71,-236.69 447.76,-226.01"/>
<polygon fill="midnightblue" stroke="midnightblue" points="655.67,-270 666.16,-268.48 657.01,-263.13 655.67,-270"/>
</g>
<!-- Node16 -->
<g id="node16" class="node">
<title>Node16</title>
<g id="a_node16"><a xlink:href="OwnedMessage_8hpp.html" target="_top" xlink:title=" ">
<polygon fill="white" stroke="black" points="513,-207 513,-226 719,-226 719,-207 513,-207"/>
<text text-anchor="middle" x="616" y="-214" font-family="Helvetica,sans-Serif" font-size="10.00">Common/Network/OwnedMessage.hpp</text>
</a>
</g>
</g>
<!-- Node1&#45;&gt;Node16 -->
<g id="edge19" class="edge">
<title>Node1&#45;&gt;Node16</title>
<path fill="none" stroke="midnightblue" d="M687.77,-262.93C669.65,-251.46 644.65,-235.63 629.44,-226.01"/>
<polygon fill="midnightblue" stroke="midnightblue" points="686.21,-266.08 696.53,-268.48 689.95,-260.17 686.21,-266.08"/>
</g>
<!-- Node17 -->
<g id="node17" class="node">
<title>Node17</title>
<g id="a_node17"><a xlink:href="Call_8hpp.html" target="_top" xlink:title=" ">
<polygon fill="white" stroke="black" points="808,-140 808,-159 916,-159 916,-140 808,-140"/>
<text text-anchor="middle" x="862" y="-147" font-family="Helvetica,sans-Serif" font-size="10.00">Server/src/Call.hpp</text>
</a>
</g>
</g>
<!-- Node1&#45;&gt;Node17 -->
<g id="edge21" class="edge">
<title>Node1&#45;&gt;Node17</title>
<path fill="none" stroke="midnightblue" d="M782.69,-266.73C823.14,-259.37 867.74,-247.92 880,-232 896.97,-209.95 878.36,-175.13 867.99,-159.1"/>
<polygon fill="midnightblue" stroke="midnightblue" points="782.04,-263.3 772.79,-268.47 783.25,-270.19 782.04,-263.3"/>
</g>
<!-- Node19 -->
<g id="node19" class="node">
<title>Node19</title>
<g id="a_node19"><a xlink:href="Utils_8hpp.html" target="_top" xlink:title=" ">
<polygon fill="white" stroke="black" points="939.5,-134.5 939.5,-164.5 1046.5,-164.5 1046.5,-134.5 939.5,-134.5"/>
<text text-anchor="start" x="947.5" y="-152.5" font-family="Helvetica,sans-Serif" font-size="10.00">Server/src/Utilities</text>
<text text-anchor="middle" x="993" y="-141.5" font-family="Helvetica,sans-Serif" font-size="10.00">/Utils.hpp</text>
</a>
</g>
</g>
<!-- Node1&#45;&gt;Node19 -->
<g id="edge25" class="edge">
<title>Node1&#45;&gt;Node19</title>
<path fill="none" stroke="midnightblue" d="M788.08,-266.62C822.76,-259.92 863.27,-249.14 897,-232 931.11,-214.67 963.45,-182.95 980.49,-164.61"/>
<polygon fill="midnightblue" stroke="midnightblue" points="787.19,-263.22 777.99,-268.48 788.46,-270.1 787.19,-263.22"/>
</g>
<!-- Node21 -->
<g id="node21" class="node">
<title>Node21</title>
<g id="a_node21"><a xlink:href="AsioTCPConnection_8hpp.html" target="_top" xlink:title=" ">
<polygon fill="white" stroke="black" points="737,-201.5 737,-231.5 871,-231.5 871,-201.5 737,-201.5"/>
<text text-anchor="start" x="745" y="-219.5" font-family="Helvetica,sans-Serif" font-size="10.00">Server/src/Network</text>
<text text-anchor="middle" x="804" y="-208.5" font-family="Helvetica,sans-Serif" font-size="10.00">/AsioTCPConnection.hpp</text>
</a>
</g>
</g>
<!-- Node1&#45;&gt;Node21 -->
<g id="edge29" class="edge">
<title>Node1&#45;&gt;Node21</title>
<path fill="none" stroke="midnightblue" d="M732.1,-263.01C747.1,-253.52 766.84,-241.02 781.85,-231.52"/>
<polygon fill="midnightblue" stroke="midnightblue" points="730.05,-260.17 723.47,-268.48 733.79,-266.08 730.05,-260.17"/>
</g>
<!-- Node3 -->
<g id="node3" class="node">
<title>Node3</title>
<g id="a_node3"><a xlink:href="Client_2src_2main_8cpp.html" target="_top" xlink:title=" ">
<polygon fill="white" stroke="black" points="0,-6 0,-25 110,-25 110,-6 0,-6"/>
<text text-anchor="middle" x="55" y="-13" font-family="Helvetica,sans-Serif" font-size="10.00">Client/src/main.cpp</text>
</a>
</g>
</g>
<!-- Node2&#45;&gt;Node3 -->
<g id="edge2" class="edge">
<title>Node2&#45;&gt;Node3</title>
<path fill="none" stroke="midnightblue" d="M183.66,-197.42C142.64,-179.34 87.35,-147.1 64,-98 52.38,-73.57 53.05,-40.51 54.17,-25.09"/>
<polygon fill="midnightblue" stroke="midnightblue" points="182.39,-200.68 192.96,-201.39 185.14,-194.24 182.39,-200.68"/>
</g>
<!-- Node4 -->
<g id="node4" class="node">
<title>Node4</title>
<g id="a_node4"><a xlink:href="HomePage_8hpp.html" target="_top" xlink:title=" ">
<polygon fill="white" stroke="black" points="73,-67.5 73,-97.5 183,-97.5 183,-67.5 73,-67.5"/>
<text text-anchor="start" x="81" y="-85.5" font-family="Helvetica,sans-Serif" font-size="10.00">Client/src/Windows</text>
<text text-anchor="middle" x="128" y="-74.5" font-family="Helvetica,sans-Serif" font-size="10.00">/HomePage.hpp</text>
</a>
</g>
</g>
<!-- Node2&#45;&gt;Node4 -->
<g id="edge3" class="edge">
<title>Node2&#45;&gt;Node4</title>
<path fill="none" stroke="midnightblue" d="M186.16,-196.88C171.68,-189.03 156.94,-178.51 147,-165 132.19,-144.87 128.7,-115 128.01,-97.57"/>
<polygon fill="midnightblue" stroke="midnightblue" points="184.59,-200.01 195.09,-201.43 187.77,-193.78 184.59,-200.01"/>
</g>
<!-- Node6 -->
<g id="node6" class="node">
<title>Node6</title>
<g id="a_node6"><a xlink:href="QtTCPConnection_8cpp.html" target="_top" xlink:title=" ">
<polygon fill="white" stroke="black" points="366,-134.5 366,-164.5 490,-164.5 490,-134.5 366,-134.5"/>
<text text-anchor="start" x="374" y="-152.5" font-family="Helvetica,sans-Serif" font-size="10.00">Client/src/Network</text>
<text text-anchor="middle" x="428" y="-141.5" font-family="Helvetica,sans-Serif" font-size="10.00">/QtTCPConnection.cpp</text>
</a>
</g>
</g>
<!-- Node2&#45;&gt;Node6 -->
<g id="edge6" class="edge">
<title>Node2&#45;&gt;Node6</title>
<path fill="none" stroke="midnightblue" d="M284.82,-198.23C316.36,-187.71 356.15,-174.45 385.77,-164.58"/>
<polygon fill="midnightblue" stroke="midnightblue" points="283.69,-194.91 275.31,-201.4 285.91,-201.55 283.69,-194.91"/>
</g>
<!-- Node7 -->
<g id="node7" class="node">
<title>Node7</title>
<g id="a_node7"><a xlink:href="SoundHandler_8cpp.html" target="_top" xlink:title=" ">
<polygon fill="white" stroke="black" points="364.5,-73 364.5,-92 517.5,-92 517.5,-73 364.5,-73"/>
<text text-anchor="middle" x="441" y="-80" font-family="Helvetica,sans-Serif" font-size="10.00">Client/src/SoundHandler.cpp</text>
</a>
</g>
</g>
<!-- Node2&#45;&gt;Node7 -->
<g id="edge7" class="edge">
<title>Node2&#45;&gt;Node7</title>
<path fill="none" stroke="midnightblue" d="M268.2,-196.45C284.07,-187.45 302.84,-176.24 319,-165 336.89,-152.56 339.17,-146.54 357,-134 379.83,-117.95 407.88,-101.74 425.1,-92.16"/>
<polygon fill="midnightblue" stroke="midnightblue" points="266.24,-193.54 259.23,-201.48 269.67,-199.64 266.24,-193.54"/>
</g>
<!-- Node8 -->
<g id="node8" class="node">
<title>Node8</title>
<g id="a_node8"><a xlink:href="SoundHandler_8hpp.html" target="_top" xlink:title=" ">
<polygon fill="white" stroke="black" points="156,-140 156,-159 310,-159 310,-140 156,-140"/>
<text text-anchor="middle" x="233" y="-147" font-family="Helvetica,sans-Serif" font-size="10.00">Client/src/SoundHandler.hpp</text>
</a>
</g>
</g>
<!-- Node2&#45;&gt;Node8 -->
<g id="edge8" class="edge">
<title>Node2&#45;&gt;Node8</title>
<path fill="none" stroke="midnightblue" d="M233,-191.25C233,-180.02 233,-167.38 233,-159.19"/>
<polygon fill="midnightblue" stroke="midnightblue" points="229.5,-191.4 233,-201.4 236.5,-191.4 229.5,-191.4"/>
</g>
<!-- Node4&#45;&gt;Node3 -->
<g id="edge4" class="edge">
<title>Node4&#45;&gt;Node3</title>
<path fill="none" stroke="midnightblue" d="M104.61,-60.67C91.13,-48.67 74.9,-34.22 64.76,-25.19"/>
<polygon fill="midnightblue" stroke="midnightblue" points="102.36,-63.36 112.16,-67.4 107.02,-58.13 102.36,-63.36"/>
</g>
<!-- Node5 -->
<g id="node5" class="node">
<title>Node5</title>
<g id="a_node5"><a xlink:href="HomePage_8cpp.html" target="_top" xlink:title=" ">
<polygon fill="white" stroke="black" points="147,-0.5 147,-30.5 257,-30.5 257,-0.5 147,-0.5"/>
<text text-anchor="start" x="155" y="-18.5" font-family="Helvetica,sans-Serif" font-size="10.00">Client/src/Windows</text>
<text text-anchor="middle" x="202" y="-7.5" font-family="Helvetica,sans-Serif" font-size="10.00">/HomePage.cpp</text>
</a>
</g>
</g>
<!-- Node4&#45;&gt;Node5 -->
<g id="edge5" class="edge">
<title>Node4&#45;&gt;Node5</title>
<path fill="none" stroke="midnightblue" d="M151.8,-60.6C162.97,-50.78 175.99,-39.34 185.97,-30.58"/>
<polygon fill="midnightblue" stroke="midnightblue" points="149.26,-58.17 144.06,-67.4 153.88,-63.43 149.26,-58.17"/>
</g>
<!-- Node8&#45;&gt;Node4 -->
<g id="edge9" class="edge">
<title>Node8&#45;&gt;Node4</title>
<path fill="none" stroke="midnightblue" d="M210.31,-134.45C192.7,-123.55 168.39,-108.5 150.76,-97.59"/>
<polygon fill="midnightblue" stroke="midnightblue" points="208.49,-137.45 218.84,-139.73 212.18,-131.49 208.49,-137.45"/>
</g>
<!-- Node8&#45;&gt;Node5 -->
<g id="edge12" class="edge">
<title>Node8&#45;&gt;Node5</title>
<path fill="none" stroke="midnightblue" d="M228.63,-129.89C222.37,-103.24 210.99,-54.8 205.35,-30.78"/>
<polygon fill="midnightblue" stroke="midnightblue" points="225.27,-130.9 230.97,-139.84 232.09,-129.3 225.27,-130.9"/>
</g>
<!-- Node8&#45;&gt;Node7 -->
<g id="edge11" class="edge">
<title>Node8&#45;&gt;Node7</title>
<path fill="none" stroke="midnightblue" d="M270.29,-136.85C311.49,-123.97 376.85,-103.55 413.6,-92.06"/>
<polygon fill="midnightblue" stroke="midnightblue" points="269.12,-133.55 260.62,-139.87 271.21,-140.23 269.12,-133.55"/>
</g>
<!-- Node9 -->
<g id="node9" class="node">
<title>Node9</title>
<g id="a_node9"><a xlink:href="UDPSocket_8cpp.html" target="_top" xlink:title=" ">
<polygon fill="white" stroke="black" points="239.5,-67.5 239.5,-97.5 346.5,-97.5 346.5,-67.5 239.5,-67.5"/>
<text text-anchor="start" x="247.5" y="-85.5" font-family="Helvetica,sans-Serif" font-size="10.00">Client/src/Network</text>
<text text-anchor="middle" x="293" y="-74.5" font-family="Helvetica,sans-Serif" font-size="10.00">/UDPSocket.cpp</text>
</a>
</g>
</g>
<!-- Node8&#45;&gt;Node9 -->
<g id="edge10" class="edge">
<title>Node8&#45;&gt;Node9</title>
<path fill="none" stroke="midnightblue" d="M247.95,-132.3C257.8,-121.63 270.57,-107.8 279.99,-97.59"/>
<polygon fill="midnightblue" stroke="midnightblue" points="245.3,-130.01 241.09,-139.73 250.45,-134.76 245.3,-130.01"/>
</g>
<!-- Node11 -->
<g id="node11" class="node">
<title>Node11</title>
<g id="a_node11"><a xlink:href="AsioTCPServer_8hpp.html" target="_top" xlink:title=" ">
<polygon fill="white" stroke="black" points="589,-134.5 589,-164.5 699,-164.5 699,-134.5 589,-134.5"/>
<text text-anchor="start" x="597" y="-152.5" font-family="Helvetica,sans-Serif" font-size="10.00">Server/src/Network</text>
<text text-anchor="middle" x="644" y="-141.5" font-family="Helvetica,sans-Serif" font-size="10.00">/AsioTCPServer.hpp</text>
</a>
</g>
</g>
<!-- Node10&#45;&gt;Node11 -->
<g id="edge14" class="edge">
<title>Node10&#45;&gt;Node11</title>
<path fill="none" stroke="midnightblue" d="M445.73,-204.2C486.42,-193.18 548.39,-176.39 592.2,-164.53"/>
<polygon fill="midnightblue" stroke="midnightblue" points="444.61,-200.88 435.87,-206.87 446.44,-207.63 444.61,-200.88"/>
</g>
<!-- Node12 -->
<g id="node12" class="node">
<title>Node12</title>
<g id="a_node12"><a xlink:href="BabelServer_8hpp.html" target="_top" xlink:title=" ">
<polygon fill="white" stroke="black" points="710,-67.5 710,-97.5 820,-97.5 820,-67.5 710,-67.5"/>
<text text-anchor="start" x="718" y="-85.5" font-family="Helvetica,sans-Serif" font-size="10.00">Server/src/Network</text>
<text text-anchor="middle" x="765" y="-74.5" font-family="Helvetica,sans-Serif" font-size="10.00">/BabelServer.hpp</text>
</a>
</g>
</g>
<!-- Node11&#45;&gt;Node12 -->
<g id="edge15" class="edge">
<title>Node11&#45;&gt;Node12</title>
<path fill="none" stroke="midnightblue" d="M679.23,-129.57C698.26,-119.35 721.37,-106.94 738.8,-97.58"/>
<polygon fill="midnightblue" stroke="midnightblue" points="677.41,-126.58 670.26,-134.4 680.72,-132.75 677.41,-126.58"/>
</g>
<!-- Node13 -->
<g id="node13" class="node">
<title>Node13</title>
<g id="a_node13"><a xlink:href="Server_2src_2main_8cpp.html" target="_top" xlink:title=" ">
<polygon fill="white" stroke="black" points="574.5,-6 574.5,-25 687.5,-25 687.5,-6 574.5,-6"/>
<text text-anchor="middle" x="631" y="-13" font-family="Helvetica,sans-Serif" font-size="10.00">Server/src/main.cpp</text>
</a>
</g>
</g>
<!-- Node12&#45;&gt;Node13 -->
<g id="edge16" class="edge">
<title>Node12&#45;&gt;Node13</title>
<path fill="none" stroke="midnightblue" d="M726.79,-62.97C701.05,-50.48 668.31,-34.6 648.54,-25.01"/>
<polygon fill="midnightblue" stroke="midnightblue" points="725.4,-66.18 735.92,-67.4 728.45,-59.88 725.4,-66.18"/>
</g>
<!-- Node14 -->
<g id="node14" class="node">
<title>Node14</title>
<g id="a_node14"><a xlink:href="BabelServer_8cpp.html" target="_top" xlink:title=" ">
<polygon fill="white" stroke="black" points="843,-0.5 843,-30.5 953,-30.5 953,-0.5 843,-0.5"/>
<text text-anchor="start" x="851" y="-18.5" font-family="Helvetica,sans-Serif" font-size="10.00">Server/src/Network</text>
<text text-anchor="middle" x="898" y="-7.5" font-family="Helvetica,sans-Serif" font-size="10.00">/BabelServer.cpp</text>
</a>
</g>
</g>
<!-- Node12&#45;&gt;Node14 -->
<g id="edge17" class="edge">
<title>Node12&#45;&gt;Node14</title>
<path fill="none" stroke="midnightblue" d="M802.87,-62.99C823.95,-52.69 849.78,-40.07 869.2,-30.58"/>
<polygon fill="midnightblue" stroke="midnightblue" points="801.31,-59.86 793.86,-67.4 804.38,-66.15 801.31,-59.86"/>
</g>
<!-- Node15 -->
<g id="node15" class="node">
<title>Node15</title>
<g id="a_node15"><a xlink:href="testRequests_8cpp.html" target="_top" xlink:title=" ">
<polygon fill="white" stroke="black" points="705.5,-0.5 705.5,-30.5 824.5,-30.5 824.5,-0.5 705.5,-0.5"/>
<text text-anchor="start" x="713.5" y="-18.5" font-family="Helvetica,sans-Serif" font-size="10.00">Server/tests/Network</text>
<text text-anchor="middle" x="765" y="-7.5" font-family="Helvetica,sans-Serif" font-size="10.00">/testRequests.cpp</text>
</a>
</g>
</g>
<!-- Node12&#45;&gt;Node15 -->
<g id="edge18" class="edge">
<title>Node12&#45;&gt;Node15</title>
<path fill="none" stroke="midnightblue" d="M765,-57.11C765,-48.15 765,-38.32 765,-30.58"/>
<polygon fill="midnightblue" stroke="midnightblue" points="761.5,-57.4 765,-67.4 768.5,-57.4 761.5,-57.4"/>
</g>
<!-- Node16&#45;&gt;Node11 -->
<g id="edge20" class="edge">
<title>Node16&#45;&gt;Node11</title>
<path fill="none" stroke="midnightblue" d="M623.8,-197.39C628.27,-187.02 633.79,-174.2 637.93,-164.59"/>
<polygon fill="midnightblue" stroke="midnightblue" points="620.52,-196.16 619.78,-206.73 626.95,-198.93 620.52,-196.16"/>
</g>
<!-- Node17&#45;&gt;Node12 -->
<g id="edge23" class="edge">
<title>Node17&#45;&gt;Node12</title>
<path fill="none" stroke="midnightblue" d="M840.59,-134.15C824.36,-123.27 802.16,-108.4 786.03,-97.59"/>
<polygon fill="midnightblue" stroke="midnightblue" points="838.66,-137.07 848.92,-139.73 842.56,-131.26 838.66,-137.07"/>
</g>
<!-- Node17&#45;&gt;Node14 -->
<g id="edge24" class="edge">
<title>Node17&#45;&gt;Node14</title>
<path fill="none" stroke="midnightblue" d="M860.97,-129.51C860.62,-112.69 861.5,-87.67 868,-67 872.16,-53.77 880.37,-40.34 887.15,-30.67"/>
<polygon fill="midnightblue" stroke="midnightblue" points="857.48,-129.83 861.35,-139.69 864.47,-129.56 857.48,-129.83"/>
</g>
<!-- Node18 -->
<g id="node18" class="node">
<title>Node18</title>
<g id="a_node18"><a xlink:href="Call_8cpp.html" target="_top" xlink:title=" ">
<polygon fill="white" stroke="black" points="876.5,-73 876.5,-92 983.5,-92 983.5,-73 876.5,-73"/>
<text text-anchor="middle" x="930" y="-80" font-family="Helvetica,sans-Serif" font-size="10.00">Server/src/Call.cpp</text>
</a>
</g>
</g>
<!-- Node17&#45;&gt;Node18 -->
<g id="edge22" class="edge">
<title>Node17&#45;&gt;Node18</title>
<path fill="none" stroke="midnightblue" d="M878.74,-132.5C892.08,-119.75 910.23,-102.39 920.97,-92.13"/>
<polygon fill="midnightblue" stroke="midnightblue" points="875.98,-130.29 871.17,-139.73 880.82,-135.35 875.98,-130.29"/>
</g>
<!-- Node19&#45;&gt;Node14 -->
<g id="edge27" class="edge">
<title>Node19&#45;&gt;Node14</title>
<path fill="none" stroke="midnightblue" d="M999.18,-124.51C1002.22,-107.29 1003.32,-84.17 993,-67 982.8,-50.03 964.76,-38.45 947.12,-30.72"/>
<polygon fill="midnightblue" stroke="midnightblue" points="995.74,-123.87 997.12,-134.37 1002.59,-125.3 995.74,-123.87"/>
</g>
<!-- Node19&#45;&gt;Node18 -->
<g id="edge26" class="edge">
<title>Node19&#45;&gt;Node18</title>
<path fill="none" stroke="midnightblue" d="M972.16,-127C960.66,-115.13 947.01,-101.05 938.43,-92.19"/>
<polygon fill="midnightblue" stroke="midnightblue" points="969.86,-129.65 979.33,-134.4 974.88,-124.78 969.86,-129.65"/>
</g>
<!-- Node20 -->
<g id="node20" class="node">
<title>Node20</title>
<g id="a_node20"><a xlink:href="Utils_8cpp.html" target="_top" xlink:title=" ">
<polygon fill="white" stroke="black" points="1040.5,-67.5 1040.5,-97.5 1147.5,-97.5 1147.5,-67.5 1040.5,-67.5"/>
<text text-anchor="start" x="1048.5" y="-85.5" font-family="Helvetica,sans-Serif" font-size="10.00">Server/src/Utilities</text>
<text text-anchor="middle" x="1094" y="-74.5" font-family="Helvetica,sans-Serif" font-size="10.00">/Utils.cpp</text>
</a>
</g>
</g>
<!-- Node19&#45;&gt;Node20 -->
<g id="edge28" class="edge">
<title>Node19&#45;&gt;Node20</title>
<path fill="none" stroke="midnightblue" d="M1023.71,-128.73C1039.34,-118.68 1057.97,-106.68 1072.13,-97.58"/>
<polygon fill="midnightblue" stroke="midnightblue" points="1021.43,-126.04 1014.92,-134.4 1025.22,-131.93 1021.43,-126.04"/>
</g>
<!-- Node21&#45;&gt;Node11 -->
<g id="edge30" class="edge">
<title>Node21&#45;&gt;Node11</title>
<path fill="none" stroke="midnightblue" d="M759.8,-197.54C734.2,-187.14 702.43,-174.24 678.65,-164.58"/>
<polygon fill="midnightblue" stroke="midnightblue" points="758.7,-200.87 769.28,-201.4 761.34,-194.39 758.7,-200.87"/>
</g>
<!-- Node21&#45;&gt;Node12 -->
<g id="edge31" class="edge">
<title>Node21&#45;&gt;Node12</title>
<path fill="none" stroke="midnightblue" d="M796.98,-191.75C788.87,-164.29 775.78,-119.99 769.14,-97.52"/>
<polygon fill="midnightblue" stroke="midnightblue" points="793.64,-192.78 799.83,-201.37 800.35,-190.79 793.64,-192.78"/>
</g>
</g>
</svg>
