<?xml version="1.0" encoding="UTF-8" standalone="no"?>
<!DOCTYPE svg PUBLIC "-//W3C//DTD SVG 1.1//EN"
 "http://www.w3.org/Graphics/SVG/1.1/DTD/svg11.dtd">
<!-- Generated by graphviz version 2.43.0 (0)
 -->
<!-- Title: Common/Network/Message.hpp Pages: 1 -->
<svg width="1472pt" height="363pt"
 viewBox="0.00 0.00 1471.50 363.00" xmlns="http://www.w3.org/2000/svg" xmlns:xlink="http://www.w3.org/1999/xlink">
<g id="graph0" class="graph" transform="scale(1 1) rotate(0) translate(4 359)">
<title>Common/Network/Message.hpp</title>
<polygon fill="white" stroke="transparent" points="-4,4 -4,-359 1467.5,-359 1467.5,4 -4,4"/>
<!-- Node1 -->
<g id="node1" class="node">
<title>Node1</title>
<g id="a_node1"><a xlink:title=" ">
<polygon fill="#bfbfbf" stroke="black" points="915.5,-335.5 915.5,-354.5 1088.5,-354.5 1088.5,-335.5 915.5,-335.5"/>
<text text-anchor="middle" x="1002" y="-342.5" font-family="Helvetica,sans-Serif" font-size="10.00">Common/Network/Message.hpp</text>
</a>
</g>
</g>
<!-- Node2 -->
<g id="node2" class="node">
<title>Node2</title>
<g id="a_node2"><a xlink:href="HomePage_8cpp.html" target="_top" xlink:title=" ">
<polygon fill="white" stroke="black" points="25,-0.5 25,-30.5 135,-30.5 135,-0.5 25,-0.5"/>
<text text-anchor="start" x="33" y="-18.5" font-family="Helvetica,sans-Serif" font-size="10.00">Client/src/Windows</text>
<text text-anchor="middle" x="80" y="-7.5" font-family="Helvetica,sans-Serif" font-size="10.00">/HomePage.cpp</text>
</a>
</g>
</g>
<!-- Node1&#45;&gt;Node2 -->
<g id="edge1" class="edge">
<title>Node1&#45;&gt;Node2</title>
<path fill="none" stroke="midnightblue" d="M905.05,-341.82C653.61,-334.88 0,-308.13 0,-217.5 0,-217.5 0,-217.5 0,-148.5 0,-99.46 40.88,-53.08 64.19,-30.62"/>
<polygon fill="midnightblue" stroke="midnightblue" points="905.18,-345.32 915.27,-342.1 905.37,-338.33 905.18,-345.32"/>
</g>
<!-- Node3 -->
<g id="node3" class="node">
<title>Node3</title>
<g id="a_node3"><a xlink:href="ITCPConnection_8hpp.html" target="_top" xlink:title=" ">
<polygon fill="white" stroke="black" points="768.5,-274 768.5,-293 973.5,-293 973.5,-274 768.5,-274"/>
<text text-anchor="middle" x="871" y="-281" font-family="Helvetica,sans-Serif" font-size="10.00">Common/Network/ITCPConnection.hpp</text>
</a>
</g>
</g>
<!-- Node1&#45;&gt;Node3 -->
<g id="edge2" class="edge">
<title>Node1&#45;&gt;Node3</title>
<path fill="none" stroke="midnightblue" d="M974.1,-331.33C948.67,-319.78 911.8,-303.03 889.73,-293.01"/>
<polygon fill="midnightblue" stroke="midnightblue" points="972.68,-334.53 983.23,-335.48 975.57,-328.15 972.68,-334.53"/>
</g>
<!-- Node11 -->
<g id="node11" class="node">
<title>Node11</title>
<g id="a_node11"><a xlink:href="ITCPServer_8hpp.html" target="_top" xlink:title=" ">
<polygon fill="white" stroke="black" points="454.5,-207 454.5,-226 635.5,-226 635.5,-207 454.5,-207"/>
<text text-anchor="middle" x="545" y="-214" font-family="Helvetica,sans-Serif" font-size="10.00">Common/Network/ITCPServer.hpp</text>
</a>
</g>
</g>
<!-- Node1&#45;&gt;Node11 -->
<g id="edge34" class="edge">
<title>Node1&#45;&gt;Node11</title>
<path fill="none" stroke="midnightblue" d="M918.49,-334.1C867.47,-326.9 801.24,-315.5 744,-299 674.59,-278.99 596.41,-242.67 562.38,-226.12"/>
<polygon fill="midnightblue" stroke="midnightblue" points="918.1,-337.57 928.48,-335.48 919.06,-330.64 918.1,-337.57"/>
</g>
<!-- Node13 -->
<g id="node13" class="node">
<title>Node13</title>
<g id="a_node13"><a xlink:href="BabelServer_8hpp.html" target="_top" xlink:title=" ">
<polygon fill="white" stroke="black" points="936,-67.5 936,-97.5 1046,-97.5 1046,-67.5 936,-67.5"/>
<text text-anchor="start" x="944" y="-85.5" font-family="Helvetica,sans-Serif" font-size="10.00">Server/src/Network</text>
<text text-anchor="middle" x="991" y="-74.5" font-family="Helvetica,sans-Serif" font-size="10.00">/BabelServer.hpp</text>
</a>
</g>
</g>
<!-- Node1&#45;&gt;Node13 -->
<g id="edge45" class="edge">
<title>Node1&#45;&gt;Node13</title>
<path fill="none" stroke="midnightblue" d="M1007.49,-325.58C1014.92,-298.36 1026.63,-245.77 1021,-201 1016.22,-162.98 1003.08,-119.63 995.87,-97.75"/>
<polygon fill="midnightblue" stroke="midnightblue" points="1004.1,-324.72 1004.72,-335.3 1010.83,-326.64 1004.1,-324.72"/>
</g>
<!-- Node17 -->
<g id="node17" class="node">
<title>Node17</title>
<g id="a_node17"><a xlink:href="OwnedMessage_8hpp.html" target="_top" xlink:title=" ">
<polygon fill="white" stroke="black" points="654,-207 654,-226 860,-226 860,-207 654,-207"/>
<text text-anchor="middle" x="757" y="-214" font-family="Helvetica,sans-Serif" font-size="10.00">Common/Network/OwnedMessage.hpp</text>
</a>
</g>
</g>
<!-- Node1&#45;&gt;Node17 -->
<g id="edge36" class="edge">
<title>Node1&#45;&gt;Node17</title>
<path fill="none" stroke="midnightblue" d="M905.31,-338.16C846.45,-332.39 779.03,-321.06 760,-299 742.24,-278.42 749.43,-242.86 754.14,-226.38"/>
<polygon fill="midnightblue" stroke="midnightblue" points="905.15,-341.66 915.43,-339.1 905.8,-334.69 905.15,-341.66"/>
</g>
<!-- Node18 -->
<g id="node18" class="node">
<title>Node18</title>
<g id="a_node18"><a xlink:href="Call_8hpp.html" target="_top" xlink:title=" ">
<polygon fill="white" stroke="black" points="1068,-207 1068,-226 1176,-226 1176,-207 1068,-207"/>
<text text-anchor="middle" x="1122" y="-214" font-family="Helvetica,sans-Serif" font-size="10.00">Server/src/Call.hpp</text>
</a>
</g>
</g>
<!-- Node1&#45;&gt;Node18 -->
<g id="edge42" class="edge">
<title>Node1&#45;&gt;Node18</title>
<path fill="none" stroke="midnightblue" d="M1021.08,-328.76C1031.22,-320.35 1043.67,-309.51 1054,-299 1078.28,-274.28 1103.57,-241.92 1115.29,-226.46"/>
<polygon fill="midnightblue" stroke="midnightblue" points="1018.75,-326.14 1013.22,-335.18 1023.17,-331.57 1018.75,-326.14"/>
</g>
<!-- Node20 -->
<g id="node20" class="node">
<title>Node20</title>
<g id="a_node20"><a xlink:href="Utils_8hpp.html" target="_top" xlink:title=" ">
<polygon fill="white" stroke="black" points="1194.5,-201.5 1194.5,-231.5 1301.5,-231.5 1301.5,-201.5 1194.5,-201.5"/>
<text text-anchor="start" x="1202.5" y="-219.5" font-family="Helvetica,sans-Serif" font-size="10.00">Server/src/Utilities</text>
<text text-anchor="middle" x="1248" y="-208.5" font-family="Helvetica,sans-Serif" font-size="10.00">/Utils.hpp</text>
</a>
</g>
</g>
<!-- Node1&#45;&gt;Node20 -->
<g id="edge43" class="edge">
<title>Node1&#45;&gt;Node20</title>
<path fill="none" stroke="midnightblue" d="M1026.16,-330.27C1041.81,-321.36 1062.62,-309.51 1081,-299 1105.02,-285.26 1110.34,-280.55 1135,-268 1161.05,-254.75 1191.31,-241.32 1213.96,-231.65"/>
<polygon fill="midnightblue" stroke="midnightblue" points="1024.12,-327.4 1017.15,-335.39 1027.58,-333.49 1024.12,-327.4"/>
</g>
<!-- Node22 -->
<g id="node22" class="node">
<title>Node22</title>
<g id="a_node22"><a xlink:href="AsioTCPConnection_8hpp.html" target="_top" xlink:title=" ">
<polygon fill="white" stroke="black" points="878,-201.5 878,-231.5 1012,-231.5 1012,-201.5 878,-201.5"/>
<text text-anchor="start" x="886" y="-219.5" font-family="Helvetica,sans-Serif" font-size="10.00">Server/src/Network</text>
<text text-anchor="middle" x="945" y="-208.5" font-family="Helvetica,sans-Serif" font-size="10.00">/AsioTCPConnection.hpp</text>
</a>
</g>
</g>
<!-- Node1&#45;&gt;Node22 -->
<g id="edge44" class="edge">
<title>Node1&#45;&gt;Node22</title>
<path fill="none" stroke="midnightblue" d="M999.42,-325.07C996.77,-309.24 991.76,-286.37 983,-268 976.58,-254.53 966.25,-241.12 957.99,-231.51"/>
<polygon fill="midnightblue" stroke="midnightblue" points="996,-325.82 1000.96,-335.18 1002.92,-324.77 996,-325.82"/>
</g>
<!-- Node23 -->
<g id="node23" class="node">
<title>Node23</title>
<g id="a_node23"><a xlink:href="IUDPClient_8hpp.html" target="_top" xlink:title=" ">
<polygon fill="white" stroke="black" points="1144,-274 1144,-293 1326,-293 1326,-274 1144,-274"/>
<text text-anchor="middle" x="1235" y="-281" font-family="Helvetica,sans-Serif" font-size="10.00">Common/Network/IUDPClient.hpp</text>
</a>
</g>
</g>
<!-- Node1&#45;&gt;Node23 -->
<g id="edge35" class="edge">
<title>Node1&#45;&gt;Node23</title>
<path fill="none" stroke="midnightblue" d="M1045.2,-332.97C1090.44,-321.41 1160.53,-303.52 1201.68,-293.01"/>
<polygon fill="midnightblue" stroke="midnightblue" points="1044.21,-329.61 1035.38,-335.48 1045.94,-336.39 1044.21,-329.61"/>
</g>
<!-- Node24 -->
<g id="node24" class="node">
<title>Node24</title>
<g id="a_node24"><a xlink:href="Utilities_8hpp.html" target="_top" xlink:title=" ">
<polygon fill="white" stroke="black" points="194,-73 194,-92 358,-92 358,-73 194,-73"/>
<text text-anchor="middle" x="276" y="-80" font-family="Helvetica,sans-Serif" font-size="10.00">Common/Utilities/Utilities.hpp</text>
</a>
</g>
</g>
<!-- Node1&#45;&gt;Node24 -->
<g id="edge37" class="edge">
<title>Node1&#45;&gt;Node24</title>
<path fill="none" stroke="midnightblue" d="M905.35,-342.18C733.38,-336.83 384.51,-315.65 302,-232 263.22,-192.68 270.7,-117.3 274.53,-92.01"/>
<polygon fill="midnightblue" stroke="midnightblue" points="905.31,-345.68 915.41,-342.49 905.52,-338.69 905.31,-345.68"/>
</g>
<!-- Node26 -->
<g id="node26" class="node">
<title>Node26</title>
<g id="a_node26"><a xlink:href="testsMessage_8cpp.html" target="_top" xlink:title=" ">
<polygon fill="white" stroke="black" points="1344.5,-268.5 1344.5,-298.5 1463.5,-298.5 1463.5,-268.5 1344.5,-268.5"/>
<text text-anchor="start" x="1352.5" y="-286.5" font-family="Helvetica,sans-Serif" font-size="10.00">Server/tests/Network</text>
<text text-anchor="middle" x="1404" y="-275.5" font-family="Helvetica,sans-Serif" font-size="10.00">/testsMessage.cpp</text>
</a>
</g>
</g>
<!-- Node1&#45;&gt;Node26 -->
<g id="edge46" class="edge">
<title>Node1&#45;&gt;Node26</title>
<path fill="none" stroke="midnightblue" d="M1086.78,-334.27C1154.24,-326.11 1250.93,-313.49 1335,-299 1338.02,-298.48 1341.1,-297.92 1344.21,-297.34"/>
<polygon fill="midnightblue" stroke="midnightblue" points="1086.14,-330.82 1076.63,-335.49 1086.98,-337.77 1086.14,-330.82"/>
</g>
<!-- Node4 -->
<g id="node4" class="node">
<title>Node4</title>
<g id="a_node4"><a xlink:href="QtTCPConnection_8hpp.html" target="_top" xlink:title=" ">
<polygon fill="white" stroke="black" points="311.5,-201.5 311.5,-231.5 436.5,-231.5 436.5,-201.5 311.5,-201.5"/>
<text text-anchor="start" x="319.5" y="-219.5" font-family="Helvetica,sans-Serif" font-size="10.00">Client/src/Network</text>
<text text-anchor="middle" x="374" y="-208.5" font-family="Helvetica,sans-Serif" font-size="10.00">/QtTCPConnection.hpp</text>
</a>
</g>
</g>
<!-- Node3&#45;&gt;Node4 -->
<g id="edge3" class="edge">
<title>Node3&#45;&gt;Node4</title>
<path fill="none" stroke="midnightblue" d="M770.45,-272.97C683.92,-264.2 555.87,-249.86 445,-232 442.27,-231.56 439.48,-231.09 436.67,-230.59"/>
<polygon fill="midnightblue" stroke="midnightblue" points="770.23,-276.47 780.53,-273.99 770.93,-269.5 770.23,-276.47"/>
</g>
<!-- Node3&#45;&gt;Node11 -->
<g id="edge15" class="edge">
<title>Node3&#45;&gt;Node11</title>
<path fill="none" stroke="midnightblue" d="M818.13,-271.96C753.97,-259.16 647.03,-237.84 587.79,-226.03"/>
<polygon fill="midnightblue" stroke="midnightblue" points="817.55,-275.41 828.05,-273.94 818.92,-268.55 817.55,-275.41"/>
</g>
<!-- Node3&#45;&gt;Node17 -->
<g id="edge21" class="edge">
<title>Node3&#45;&gt;Node17</title>
<path fill="none" stroke="midnightblue" d="M846.65,-268.62C824.06,-255.74 791.16,-236.98 772.13,-226.13"/>
<polygon fill="midnightblue" stroke="midnightblue" points="845.2,-271.82 855.63,-273.73 848.67,-265.74 845.2,-271.82"/>
</g>
<!-- Node3&#45;&gt;Node18 -->
<g id="edge23" class="edge">
<title>Node3&#45;&gt;Node18</title>
<path fill="none" stroke="midnightblue" d="M913.85,-271.4C963.38,-258.58 1043.86,-237.74 1088.85,-226.08"/>
<polygon fill="midnightblue" stroke="midnightblue" points="912.88,-268.04 904.07,-273.94 914.63,-274.82 912.88,-268.04"/>
</g>
<!-- Node3&#45;&gt;Node20 -->
<g id="edge27" class="edge">
<title>Node3&#45;&gt;Node20</title>
<path fill="none" stroke="midnightblue" d="M941.65,-272.51C1005.45,-263.17 1101.8,-248.25 1185,-232 1188.08,-231.4 1191.25,-230.75 1194.44,-230.08"/>
<polygon fill="midnightblue" stroke="midnightblue" points="941.09,-269.06 931.7,-273.97 942.1,-275.99 941.09,-269.06"/>
</g>
<!-- Node3&#45;&gt;Node22 -->
<g id="edge31" class="edge">
<title>Node3&#45;&gt;Node22</title>
<path fill="none" stroke="midnightblue" d="M888.73,-266.93C900.97,-256.18 917.1,-242 928.96,-231.59"/>
<polygon fill="midnightblue" stroke="midnightblue" points="886.18,-264.5 880.98,-273.73 890.8,-269.76 886.18,-264.5"/>
</g>
<!-- Node5 -->
<g id="node5" class="node">
<title>Node5</title>
<g id="a_node5"><a xlink:href="Client_2src_2main_8cpp.html" target="_top" xlink:title=" ">
<polygon fill="white" stroke="black" points="502,-6 502,-25 612,-25 612,-6 502,-6"/>
<text text-anchor="middle" x="557" y="-13" font-family="Helvetica,sans-Serif" font-size="10.00">Client/src/main.cpp</text>
</a>
</g>
</g>
<!-- Node4&#45;&gt;Node5 -->
<g id="edge4" class="edge">
<title>Node4&#45;&gt;Node5</title>
<path fill="none" stroke="midnightblue" d="M437.65,-198.73C514.86,-176.94 637.95,-137.06 664,-98 671.65,-86.54 671.38,-78.64 664,-67 649.87,-44.71 622.97,-32.07 599.67,-25.01"/>
<polygon fill="midnightblue" stroke="midnightblue" points="436.7,-195.36 428.01,-201.42 438.58,-202.1 436.7,-195.36"/>
</g>
<!-- Node6 -->
<g id="node6" class="node">
<title>Node6</title>
<g id="a_node6"><a xlink:href="HomePage_8hpp.html" target="_top" xlink:title=" ">
<polygon fill="white" stroke="black" points="66,-67.5 66,-97.5 176,-97.5 176,-67.5 66,-67.5"/>
<text text-anchor="start" x="74" y="-85.5" font-family="Helvetica,sans-Serif" font-size="10.00">Client/src/Windows</text>
<text text-anchor="middle" x="121" y="-74.5" font-family="Helvetica,sans-Serif" font-size="10.00">/HomePage.hpp</text>
</a>
</g>
</g>
<!-- Node4&#45;&gt;Node6 -->
<g id="edge5" class="edge">
<title>Node4&#45;&gt;Node6</title>
<path fill="none" stroke="midnightblue" d="M337.84,-196.63C286.48,-169.84 193.59,-121.37 147.88,-97.52"/>
<polygon fill="midnightblue" stroke="midnightblue" points="336.44,-199.85 346.92,-201.37 339.68,-193.64 336.44,-199.85"/>
</g>
<!-- Node7 -->
<g id="node7" class="node">
<title>Node7</title>
<g id="a_node7"><a xlink:href="QtTCPConnection_8cpp.html" target="_top" xlink:title=" ">
<polygon fill="white" stroke="black" points="711,-134.5 711,-164.5 835,-164.5 835,-134.5 711,-134.5"/>
<text text-anchor="start" x="719" y="-152.5" font-family="Helvetica,sans-Serif" font-size="10.00">Client/src/Network</text>
<text text-anchor="middle" x="773" y="-141.5" font-family="Helvetica,sans-Serif" font-size="10.00">/QtTCPConnection.cpp</text>
</a>
</g>
</g>
<!-- Node4&#45;&gt;Node7 -->
<g id="edge8" class="edge">
<title>Node4&#45;&gt;Node7</title>
<path fill="none" stroke="midnightblue" d="M446.64,-200.77C558.18,-181.77 588.56,-183.08 697,-165 701.5,-164.25 706.15,-163.44 710.83,-162.61"/>
<polygon fill="midnightblue" stroke="midnightblue" points="445.94,-197.34 436.68,-202.49 447.13,-204.24 445.94,-197.34"/>
</g>
<!-- Node8 -->
<g id="node8" class="node">
<title>Node8</title>
<g id="a_node8"><a xlink:href="SoundHandler_8cpp.html" target="_top" xlink:title=" ">
<polygon fill="white" stroke="black" points="501.5,-73 501.5,-92 654.5,-92 654.5,-73 501.5,-73"/>
<text text-anchor="middle" x="578" y="-80" font-family="Helvetica,sans-Serif" font-size="10.00">Client/src/SoundHandler.cpp</text>
</a>
</g>
</g>
<!-- Node4&#45;&gt;Node8 -->
<g id="edge9" class="edge">
<title>Node4&#45;&gt;Node8</title>
<path fill="none" stroke="midnightblue" d="M411.44,-196.66C428.67,-187.61 449.2,-176.3 467,-165 505.36,-140.66 547.92,-107.56 567.32,-92.11"/>
<polygon fill="midnightblue" stroke="midnightblue" points="409.5,-193.72 402.24,-201.44 412.73,-199.93 409.5,-193.72"/>
</g>
<!-- Node9 -->
<g id="node9" class="node">
<title>Node9</title>
<g id="a_node9"><a xlink:href="SoundHandler_8hpp.html" target="_top" xlink:title=" ">
<polygon fill="white" stroke="black" points="304,-140 304,-159 458,-159 458,-140 304,-140"/>
<text text-anchor="middle" x="381" y="-147" font-family="Helvetica,sans-Serif" font-size="10.00">Client/src/SoundHandler.hpp</text>
</a>
</g>
</g>
<!-- Node4&#45;&gt;Node9 -->
<g id="edge10" class="edge">
<title>Node4&#45;&gt;Node9</title>
<path fill="none" stroke="midnightblue" d="M376.61,-191.25C377.82,-180.02 379.18,-167.38 380.06,-159.19"/>
<polygon fill="midnightblue" stroke="midnightblue" points="373.11,-191.08 375.52,-201.4 380.07,-191.83 373.11,-191.08"/>
</g>
<!-- Node6&#45;&gt;Node2 -->
<g id="edge7" class="edge">
<title>Node6&#45;&gt;Node2</title>
<path fill="none" stroke="midnightblue" d="M106.72,-58.87C100.79,-49.46 94.09,-38.83 88.88,-30.58"/>
<polygon fill="midnightblue" stroke="midnightblue" points="103.81,-60.81 112.1,-67.4 109.73,-57.07 103.81,-60.81"/>
</g>
<!-- Node6&#45;&gt;Node5 -->
<g id="edge6" class="edge">
<title>Node6&#45;&gt;Node5</title>
<path fill="none" stroke="midnightblue" d="M186.03,-66.91C304.1,-45.89 431.09,-30.43 501.93,-22.44"/>
<polygon fill="midnightblue" stroke="midnightblue" points="185.32,-63.48 176.1,-68.69 186.56,-70.37 185.32,-63.48"/>
</g>
<!-- Node9&#45;&gt;Node2 -->
<g id="edge14" class="edge">
<title>Node9&#45;&gt;Node2</title>
<path fill="none" stroke="midnightblue" d="M293.65,-147.22C208.29,-143.9 86.93,-132.96 57,-98 40.46,-78.68 56.78,-48.25 69.1,-30.55"/>
<polygon fill="midnightblue" stroke="midnightblue" points="293.75,-150.73 303.87,-147.59 294.01,-143.73 293.75,-150.73"/>
</g>
<!-- Node9&#45;&gt;Node6 -->
<g id="edge11" class="edge">
<title>Node9&#45;&gt;Node6</title>
<path fill="none" stroke="midnightblue" d="M336.85,-137.46C292.53,-126.38 224.14,-109.28 176.25,-97.31"/>
<polygon fill="midnightblue" stroke="midnightblue" points="336.19,-140.91 346.74,-139.94 337.89,-134.11 336.19,-140.91"/>
</g>
<!-- Node9&#45;&gt;Node8 -->
<g id="edge13" class="edge">
<title>Node9&#45;&gt;Node8</title>
<path fill="none" stroke="midnightblue" d="M417.06,-136.6C456.12,-123.71 517.47,-103.47 552.05,-92.06"/>
<polygon fill="midnightblue" stroke="midnightblue" points="415.56,-133.41 407.16,-139.87 417.75,-140.06 415.56,-133.41"/>
</g>
<!-- Node10 -->
<g id="node10" class="node">
<title>Node10</title>
<g id="a_node10"><a xlink:href="UDPSocket_8cpp.html" target="_top" xlink:title=" ">
<polygon fill="white" stroke="black" points="376.5,-67.5 376.5,-97.5 483.5,-97.5 483.5,-67.5 376.5,-67.5"/>
<text text-anchor="start" x="384.5" y="-85.5" font-family="Helvetica,sans-Serif" font-size="10.00">Client/src/Network</text>
<text text-anchor="middle" x="430" y="-74.5" font-family="Helvetica,sans-Serif" font-size="10.00">/UDPSocket.cpp</text>
</a>
</g>
</g>
<!-- Node9&#45;&gt;Node10 -->
<g id="edge12" class="edge">
<title>Node9&#45;&gt;Node10</title>
<path fill="none" stroke="midnightblue" d="M393.69,-131.67C401.66,-121.09 411.83,-107.6 419.38,-97.59"/>
<polygon fill="midnightblue" stroke="midnightblue" points="390.83,-129.64 387.61,-139.73 396.42,-133.86 390.83,-129.64"/>
</g>
<!-- Node12 -->
<g id="node12" class="node">
<title>Node12</title>
<g id="a_node12"><a xlink:href="AsioTCPServer_8hpp.html" target="_top" xlink:title=" ">
<polygon fill="white" stroke="black" points="853,-134.5 853,-164.5 963,-164.5 963,-134.5 853,-134.5"/>
<text text-anchor="start" x="861" y="-152.5" font-family="Helvetica,sans-Serif" font-size="10.00">Server/src/Network</text>
<text text-anchor="middle" x="908" y="-141.5" font-family="Helvetica,sans-Serif" font-size="10.00">/AsioTCPServer.hpp</text>
</a>
</g>
</g>
<!-- Node11&#45;&gt;Node12 -->
<g id="edge16" class="edge">
<title>Node11&#45;&gt;Node12</title>
<path fill="none" stroke="midnightblue" d="M611.32,-205.38C672.03,-195.86 764.3,-180.75 844,-165 846.91,-164.43 849.88,-163.82 852.88,-163.19"/>
<polygon fill="midnightblue" stroke="midnightblue" points="610.44,-201.97 601.1,-206.98 611.52,-208.89 610.44,-201.97"/>
</g>
<!-- Node12&#45;&gt;Node13 -->
<g id="edge17" class="edge">
<title>Node12&#45;&gt;Node13</title>
<path fill="none" stroke="midnightblue" d="M933.96,-128.17C946.65,-118.23 961.61,-106.51 973.03,-97.58"/>
<polygon fill="midnightblue" stroke="midnightblue" points="931.72,-125.47 926.01,-134.4 936.04,-130.99 931.72,-125.47"/>
</g>
<!-- Node14 -->
<g id="node14" class="node">
<title>Node14</title>
<g id="a_node14"><a xlink:href="Server_2src_2main_8cpp.html" target="_top" xlink:title=" ">
<polygon fill="white" stroke="black" points="774.5,-6 774.5,-25 887.5,-25 887.5,-6 774.5,-6"/>
<text text-anchor="middle" x="831" y="-13" font-family="Helvetica,sans-Serif" font-size="10.00">Server/src/main.cpp</text>
</a>
</g>
</g>
<!-- Node13&#45;&gt;Node14 -->
<g id="edge18" class="edge">
<title>Node13&#45;&gt;Node14</title>
<path fill="none" stroke="midnightblue" d="M946.99,-63.62C916.02,-51.04 875.96,-34.77 851.94,-25.01"/>
<polygon fill="midnightblue" stroke="midnightblue" points="945.7,-66.87 956.28,-67.4 948.34,-60.39 945.7,-66.87"/>
</g>
<!-- Node15 -->
<g id="node15" class="node">
<title>Node15</title>
<g id="a_node15"><a xlink:href="BabelServer_8cpp.html" target="_top" xlink:title=" ">
<polygon fill="white" stroke="black" points="1061,-0.5 1061,-30.5 1171,-30.5 1171,-0.5 1061,-0.5"/>
<text text-anchor="start" x="1069" y="-18.5" font-family="Helvetica,sans-Serif" font-size="10.00">Server/src/Network</text>
<text text-anchor="middle" x="1116" y="-7.5" font-family="Helvetica,sans-Serif" font-size="10.00">/BabelServer.cpp</text>
</a>
</g>
</g>
<!-- Node13&#45;&gt;Node15 -->
<g id="edge19" class="edge">
<title>Node13&#45;&gt;Node15</title>
<path fill="none" stroke="midnightblue" d="M1027.13,-62.71C1046.84,-52.46 1070.84,-39.98 1088.93,-30.58"/>
<polygon fill="midnightblue" stroke="midnightblue" points="1025.38,-59.68 1018.12,-67.4 1028.61,-65.89 1025.38,-59.68"/>
</g>
<!-- Node16 -->
<g id="node16" class="node">
<title>Node16</title>
<g id="a_node16"><a xlink:href="testRequests_8cpp.html" target="_top" xlink:title=" ">
<polygon fill="white" stroke="black" points="923.5,-0.5 923.5,-30.5 1042.5,-30.5 1042.5,-0.5 923.5,-0.5"/>
<text text-anchor="start" x="931.5" y="-18.5" font-family="Helvetica,sans-Serif" font-size="10.00">Server/tests/Network</text>
<text text-anchor="middle" x="983" y="-7.5" font-family="Helvetica,sans-Serif" font-size="10.00">/testRequests.cpp</text>
</a>
</g>
</g>
<!-- Node13&#45;&gt;Node16 -->
<g id="edge20" class="edge">
<title>Node13&#45;&gt;Node16</title>
<path fill="none" stroke="midnightblue" d="M988.03,-57.4C986.92,-48.37 985.7,-38.41 984.73,-30.58"/>
<polygon fill="midnightblue" stroke="midnightblue" points="984.57,-57.9 989.26,-67.4 991.52,-57.04 984.57,-57.9"/>
</g>
<!-- Node17&#45;&gt;Node12 -->
<g id="edge22" class="edge">
<title>Node17&#45;&gt;Node12</title>
<path fill="none" stroke="midnightblue" d="M786.24,-202.91C811.81,-191.91 848.9,-175.94 875.41,-164.53"/>
<polygon fill="midnightblue" stroke="midnightblue" points="784.85,-199.7 777.05,-206.87 787.62,-206.13 784.85,-199.7"/>
</g>
<!-- Node18&#45;&gt;Node13 -->
<g id="edge25" class="edge">
<title>Node18&#45;&gt;Node13</title>
<path fill="none" stroke="midnightblue" d="M1109.44,-198.52C1096.43,-181.42 1075.09,-154.68 1054,-134 1040.39,-120.65 1023.46,-107.23 1010.58,-97.59"/>
<polygon fill="midnightblue" stroke="midnightblue" points="1106.95,-201.04 1115.76,-206.93 1112.55,-196.83 1106.95,-201.04"/>
</g>
<!-- Node18&#45;&gt;Node15 -->
<g id="edge26" class="edge">
<title>Node18&#45;&gt;Node15</title>
<path fill="none" stroke="midnightblue" d="M1121.44,-196.86C1120.24,-157.28 1117.48,-65.64 1116.42,-30.53"/>
<polygon fill="midnightblue" stroke="midnightblue" points="1117.94,-197.06 1121.74,-206.95 1124.94,-196.85 1117.94,-197.06"/>
</g>
<!-- Node19 -->
<g id="node19" class="node">
<title>Node19</title>
<g id="a_node19"><a xlink:href="Call_8cpp.html" target="_top" xlink:title=" ">
<polygon fill="white" stroke="black" points="1144.5,-140 1144.5,-159 1251.5,-159 1251.5,-140 1144.5,-140"/>
<text text-anchor="middle" x="1198" y="-147" font-family="Helvetica,sans-Serif" font-size="10.00">Server/src/Call.cpp</text>
</a>
</g>
</g>
<!-- Node18&#45;&gt;Node19 -->
<g id="edge24" class="edge">
<title>Node18&#45;&gt;Node19</title>
<path fill="none" stroke="midnightblue" d="M1139.87,-200.21C1154.85,-187.41 1175.68,-169.59 1187.91,-159.13"/>
<polygon fill="midnightblue" stroke="midnightblue" points="1137.57,-197.57 1132.25,-206.73 1142.12,-202.89 1137.57,-197.57"/>
</g>
<!-- Node20&#45;&gt;Node15 -->
<g id="edge29" class="edge">
<title>Node20&#45;&gt;Node15</title>
<path fill="none" stroke="midnightblue" d="M1311.3,-203.07C1357.68,-190.84 1408.85,-168.87 1386,-134 1338.43,-61.42 1235.23,-33.43 1171.09,-22.81"/>
<polygon fill="midnightblue" stroke="midnightblue" points="1310.35,-199.7 1301.51,-205.53 1312.06,-206.49 1310.35,-199.7"/>
</g>
<!-- Node20&#45;&gt;Node19 -->
<g id="edge28" class="edge">
<title>Node20&#45;&gt;Node19</title>
<path fill="none" stroke="midnightblue" d="M1230.94,-193.32C1221.92,-181.6 1211.37,-167.88 1204.69,-159.19"/>
<polygon fill="midnightblue" stroke="midnightblue" points="1228.28,-195.6 1237.15,-201.4 1233.83,-191.34 1228.28,-195.6"/>
</g>
<!-- Node21 -->
<g id="node21" class="node">
<title>Node21</title>
<g id="a_node21"><a xlink:href="Utils_8cpp.html" target="_top" xlink:title=" ">
<polygon fill="white" stroke="black" points="1269.5,-134.5 1269.5,-164.5 1376.5,-164.5 1376.5,-134.5 1269.5,-134.5"/>
<text text-anchor="start" x="1277.5" y="-152.5" font-family="Helvetica,sans-Serif" font-size="10.00">Server/src/Utilities</text>
<text text-anchor="middle" x="1323" y="-141.5" font-family="Helvetica,sans-Serif" font-size="10.00">/Utils.cpp</text>
</a>
</g>
</g>
<!-- Node20&#45;&gt;Node21 -->
<g id="edge30" class="edge">
<title>Node20&#45;&gt;Node21</title>
<path fill="none" stroke="midnightblue" d="M1272.12,-194.6C1283.44,-184.78 1296.64,-173.34 1306.76,-164.58"/>
<polygon fill="midnightblue" stroke="midnightblue" points="1269.54,-192.2 1264.27,-201.4 1274.12,-197.49 1269.54,-192.2"/>
</g>
<!-- Node22&#45;&gt;Node12 -->
<g id="edge32" class="edge">
<title>Node22&#45;&gt;Node12</title>
<path fill="none" stroke="midnightblue" d="M931.95,-192.58C926.64,-183.24 920.66,-172.75 916.01,-164.58"/>
<polygon fill="midnightblue" stroke="midnightblue" points="928.98,-194.44 936.97,-201.4 935.07,-190.97 928.98,-194.44"/>
</g>
<!-- Node22&#45;&gt;Node13 -->
<g id="edge33" class="edge">
<title>Node22&#45;&gt;Node13</title>
<path fill="none" stroke="midnightblue" d="M958.92,-192.53C963.59,-184.1 968.49,-174.33 972,-165 980.6,-142.16 986.09,-114.2 988.86,-97.67"/>
<polygon fill="midnightblue" stroke="midnightblue" points="955.78,-190.97 953.84,-201.39 961.85,-194.45 955.78,-190.97"/>
</g>
<!-- Node24&#45;&gt;Node2 -->
<g id="edge38" class="edge">
<title>Node24&#45;&gt;Node2</title>
<path fill="none" stroke="midnightblue" d="M240.22,-69.63C206.98,-58.61 157.48,-42.19 122.3,-30.53"/>
<polygon fill="midnightblue" stroke="midnightblue" points="239.38,-73.04 249.97,-72.87 241.58,-66.4 239.38,-73.04"/>
</g>
<!-- Node24&#45;&gt;Node14 -->
<g id="edge40" class="edge">
<title>Node24&#45;&gt;Node14</title>
<path fill="none" stroke="midnightblue" d="M336.88,-71.37C346.93,-69.82 357.25,-68.31 367,-67 513.57,-47.36 686.98,-30.06 774.46,-21.74"/>
<polygon fill="midnightblue" stroke="midnightblue" points="336.29,-67.92 326.95,-72.92 337.37,-74.84 336.29,-67.92"/>
</g>
<!-- Node24&#45;&gt;Node15 -->
<g id="edge41" class="edge">
<title>Node24&#45;&gt;Node15</title>
<path fill="none" stroke="midnightblue" d="M333.58,-71.39C344.64,-69.71 356.16,-68.15 367,-67 670.18,-34.97 750.02,-72.83 1052,-31 1054.93,-30.59 1057.93,-30.12 1060.95,-29.6"/>
<polygon fill="midnightblue" stroke="midnightblue" points="332.91,-67.95 323.57,-72.95 334,-74.86 332.91,-67.95"/>
</g>
<!-- Node25 -->
<g id="node25" class="node">
<title>Node25</title>
<g id="a_node25"><a xlink:href="Utilities_8cpp.html" target="_top" xlink:title=" ">
<polygon fill="white" stroke="black" points="194,-6 194,-25 358,-25 358,-6 194,-6"/>
<text text-anchor="middle" x="276" y="-13" font-family="Helvetica,sans-Serif" font-size="10.00">Common/Utilities/Utilities.cpp</text>
</a>
</g>
</g>
<!-- Node24&#45;&gt;Node25 -->
<g id="edge39" class="edge">
<title>Node24&#45;&gt;Node25</title>
<path fill="none" stroke="midnightblue" d="M276,-62.54C276,-50.17 276,-34.62 276,-25.13"/>
<polygon fill="midnightblue" stroke="midnightblue" points="272.5,-62.73 276,-72.73 279.5,-62.73 272.5,-62.73"/>
</g>
</g>
</svg>
