<?xml version="1.0" encoding="UTF-8" standalone="no"?>
<!DOCTYPE svg PUBLIC "-//W3C//DTD SVG 1.1//EN"
 "http://www.w3.org/Graphics/SVG/1.1/DTD/svg11.dtd">
<!-- Generated by graphviz version 2.43.0 (0)
 -->
<!-- Title: Client/src/Audio/Opus/Opus.hpp Pages: 1 -->
<svg width="300pt" height="106pt"
 viewBox="0.00 0.00 300.00 106.00" xmlns="http://www.w3.org/2000/svg" xmlns:xlink="http://www.w3.org/1999/xlink">
<g id="graph0" class="graph" transform="scale(1 1) rotate(0) translate(4 102)">
<title>Client/src/Audio/Opus/Opus.hpp</title>
<polygon fill="white" stroke="transparent" points="-4,4 -4,-102 296,-102 296,4 -4,4"/>
<!-- Node1 -->
<g id="node1" class="node">
<title>Node1</title>
<g id="a_node1"><a xlink:title=" ">
<polygon fill="#bfbfbf" stroke="black" points="77,-67.5 77,-97.5 198,-97.5 198,-67.5 77,-67.5"/>
<text text-anchor="start" x="85" y="-85.5" font-family="Helvetica,sans-Serif" font-size="10.00">Client/src/Audio/Opus</text>
<text text-anchor="middle" x="137.5" y="-74.5" font-family="Helvetica,sans-Serif" font-size="10.00">/Opus.hpp</text>
</a>
</g>
</g>
<!-- Node2 -->
<g id="node2" class="node">
<title>Node2</title>
<g id="a_node2"><a xlink:href="Opus_8cpp.html" target="_top" xlink:title=" ">
<polygon fill="white" stroke="black" points="0,-0.5 0,-30.5 121,-30.5 121,-0.5 0,-0.5"/>
<text text-anchor="start" x="8" y="-18.5" font-family="Helvetica,sans-Serif" font-size="10.00">Client/src/Audio/Opus</text>
<text text-anchor="middle" x="60.5" y="-7.5" font-family="Helvetica,sans-Serif" font-size="10.00">/Opus.cpp</text>
</a>
</g>
</g>
<!-- Node1&#45;&gt;Node2 -->
<g id="edge1" class="edge">
<title>Node1&#45;&gt;Node2</title>
<path fill="none" stroke="midnightblue" d="M113.08,-60.88C101.38,-51.01 87.66,-39.43 77.18,-30.58"/>
<polygon fill="midnightblue" stroke="midnightblue" points="110.89,-63.62 120.79,-67.4 115.41,-58.27 110.89,-63.62"/>
</g>
<!-- Node3 -->
<g id="node3" class="node">
<title>Node3</title>
<g id="a_node3"><a xlink:href="SoundHandler_8cpp.html" target="_top" xlink:title=" ">
<polygon fill="white" stroke="black" points="139,-6 139,-25 292,-25 292,-6 139,-6"/>
<text text-anchor="middle" x="215.5" y="-13" font-family="Helvetica,sans-Serif" font-size="10.00">Client/src/SoundHandler.cpp</text>
</a>
</g>
</g>
<!-- Node1&#45;&gt;Node3 -->
<g id="edge2" class="edge">
<title>Node1&#45;&gt;Node3</title>
<path fill="none" stroke="midnightblue" d="M162.49,-60.67C176.9,-48.67 194.24,-34.22 205.07,-25.19"/>
<polygon fill="midnightblue" stroke="midnightblue" points="159.87,-58.31 154.42,-67.4 164.35,-63.68 159.87,-58.31"/>
</g>
</g>
</svg>
