<?xml version="1.0" encoding="UTF-8" standalone="no"?>
<!DOCTYPE svg PUBLIC "-//W3C//DTD SVG 1.1//EN"
 "http://www.w3.org/Graphics/SVG/1.1/DTD/svg11.dtd">
<!-- Generated by graphviz version 2.43.0 (0)
 -->
<!-- Title: Client/src/Audio/Opus/Opus.cpp Pages: 1 -->
<svg width="558pt" height="207pt"
 viewBox="0.00 0.00 558.00 207.00" xmlns="http://www.w3.org/2000/svg" xmlns:xlink="http://www.w3.org/1999/xlink">
<g id="graph0" class="graph" transform="scale(1 1) rotate(0) translate(4 203)">
<title>Client/src/Audio/Opus/Opus.cpp</title>
<polygon fill="white" stroke="transparent" points="-4,4 -4,-203 554,-203 554,4 -4,4"/>
<!-- Node1 -->
<g id="node1" class="node">
<title>Node1</title>
<g id="a_node1"><a xlink:title=" ">
<polygon fill="#bfbfbf" stroke="black" points="202.5,-168.5 202.5,-198.5 323.5,-198.5 323.5,-168.5 202.5,-168.5"/>
<text text-anchor="start" x="210.5" y="-186.5" font-family="Helvetica,sans-Serif" font-size="10.00">Client/src/Audio/Opus</text>
<text text-anchor="middle" x="263" y="-175.5" font-family="Helvetica,sans-Serif" font-size="10.00">/Opus.cpp</text>
</a>
</g>
</g>
<!-- Node2 -->
<g id="node2" class="node">
<title>Node2</title>
<g id="a_node2"><a xlink:href="Opus_8hpp.html" target="_top" xlink:title=" ">
<polygon fill="white" stroke="black" points="155,-112.5 155,-131.5 217,-131.5 217,-112.5 155,-112.5"/>
<text text-anchor="middle" x="186" y="-119.5" font-family="Helvetica,sans-Serif" font-size="10.00">Opus.hpp</text>
</a>
</g>
</g>
<!-- Node1&#45;&gt;Node2 -->
<g id="edge1" class="edge">
<title>Node1&#45;&gt;Node2</title>
<path fill="none" stroke="midnightblue" d="M244.75,-168.4C232.87,-159.22 217.39,-147.26 205.31,-137.92"/>
<polygon fill="midnightblue" stroke="midnightblue" points="207.26,-135 197.2,-131.66 202.98,-140.54 207.26,-135"/>
</g>
<!-- Node7 -->
<g id="node7" class="node">
<title>Node7</title>
<g id="a_node7"><a xlink:href="OpusException_8hpp.html" target="_top" xlink:title=" ">
<polygon fill="white" stroke="black" points="285,-112.5 285,-131.5 395,-131.5 395,-112.5 285,-112.5"/>
<text text-anchor="middle" x="340" y="-119.5" font-family="Helvetica,sans-Serif" font-size="10.00">OpusException.hpp</text>
</a>
</g>
</g>
<!-- Node1&#45;&gt;Node7 -->
<g id="edge6" class="edge">
<title>Node1&#45;&gt;Node7</title>
<path fill="none" stroke="midnightblue" d="M281.25,-168.4C293.13,-159.22 308.61,-147.26 320.69,-137.92"/>
<polygon fill="midnightblue" stroke="midnightblue" points="323.02,-140.54 328.8,-131.66 318.74,-135 323.02,-140.54"/>
</g>
<!-- Node3 -->
<g id="node3" class="node">
<title>Node3</title>
<g id="a_node3"><a xlink:title=" ">
<polygon fill="white" stroke="#bfbfbf" points="0,-56.5 0,-75.5 50,-75.5 50,-56.5 0,-56.5"/>
<text text-anchor="middle" x="25" y="-63.5" font-family="Helvetica,sans-Serif" font-size="10.00">cstdint</text>
</a>
</g>
</g>
<!-- Node2&#45;&gt;Node3 -->
<g id="edge2" class="edge">
<title>Node2&#45;&gt;Node3</title>
<path fill="none" stroke="midnightblue" d="M160.49,-112.44C133.32,-103.33 90.16,-88.85 59.86,-78.69"/>
<polygon fill="midnightblue" stroke="midnightblue" points="60.72,-75.29 50.13,-75.43 58.49,-81.93 60.72,-75.29"/>
</g>
<!-- Node4 -->
<g id="node4" class="node">
<title>Node4</title>
<g id="a_node4"><a xlink:title=" ">
<polygon fill="white" stroke="#bfbfbf" points="68.5,-56.5 68.5,-75.5 143.5,-75.5 143.5,-56.5 68.5,-56.5"/>
<text text-anchor="middle" x="106" y="-63.5" font-family="Helvetica,sans-Serif" font-size="10.00">opus/opus.h</text>
</a>
</g>
</g>
<!-- Node2&#45;&gt;Node4 -->
<g id="edge3" class="edge">
<title>Node2&#45;&gt;Node4</title>
<path fill="none" stroke="midnightblue" d="M173.15,-112.32C160.78,-103.98 141.87,-91.21 127.26,-81.35"/>
<polygon fill="midnightblue" stroke="midnightblue" points="129.07,-78.35 118.82,-75.65 125.15,-84.15 129.07,-78.35"/>
</g>
<!-- Node5 -->
<g id="node5" class="node">
<title>Node5</title>
<g id="a_node5"><a xlink:title=" ">
<polygon fill="white" stroke="#bfbfbf" points="162,-56.5 162,-75.5 210,-75.5 210,-56.5 162,-56.5"/>
<text text-anchor="middle" x="186" y="-63.5" font-family="Helvetica,sans-Serif" font-size="10.00">mutex</text>
</a>
</g>
</g>
<!-- Node2&#45;&gt;Node5 -->
<g id="edge4" class="edge">
<title>Node2&#45;&gt;Node5</title>
<path fill="none" stroke="midnightblue" d="M186,-112.08C186,-105.01 186,-94.86 186,-85.99"/>
<polygon fill="midnightblue" stroke="midnightblue" points="189.5,-85.75 186,-75.75 182.5,-85.75 189.5,-85.75"/>
</g>
<!-- Node6 -->
<g id="node6" class="node">
<title>Node6</title>
<g id="a_node6"><a xlink:href="ICodec_8hpp.html" target="_top" xlink:title=" ">
<polygon fill="white" stroke="black" points="228.5,-56.5 228.5,-75.5 299.5,-75.5 299.5,-56.5 228.5,-56.5"/>
<text text-anchor="middle" x="264" y="-63.5" font-family="Helvetica,sans-Serif" font-size="10.00">ICodec.hpp</text>
</a>
</g>
</g>
<!-- Node2&#45;&gt;Node6 -->
<g id="edge5" class="edge">
<title>Node2&#45;&gt;Node6</title>
<path fill="none" stroke="midnightblue" d="M198.53,-112.32C210.59,-103.98 229.03,-91.21 243.27,-81.35"/>
<polygon fill="midnightblue" stroke="midnightblue" points="245.27,-84.22 251.5,-75.65 241.28,-78.47 245.27,-84.22"/>
</g>
<!-- Node8 -->
<g id="node8" class="node">
<title>Node8</title>
<g id="a_node8"><a xlink:title=" ">
<polygon fill="white" stroke="#bfbfbf" points="318,-56.5 318,-75.5 362,-75.5 362,-56.5 318,-56.5"/>
<text text-anchor="middle" x="340" y="-63.5" font-family="Helvetica,sans-Serif" font-size="10.00">string</text>
</a>
</g>
</g>
<!-- Node7&#45;&gt;Node8 -->
<g id="edge7" class="edge">
<title>Node7&#45;&gt;Node8</title>
<path fill="none" stroke="midnightblue" d="M340,-112.08C340,-105.01 340,-94.86 340,-85.99"/>
<polygon fill="midnightblue" stroke="midnightblue" points="343.5,-85.75 340,-75.75 336.5,-85.75 343.5,-85.75"/>
</g>
<!-- Node9 -->
<g id="node9" class="node">
<title>Node9</title>
<g id="a_node9"><a xlink:href="BabelException_8hpp.html" target="_top" xlink:title=" ">
<polygon fill="white" stroke="black" points="380,-56.5 380,-75.5 550,-75.5 550,-56.5 380,-56.5"/>
<text text-anchor="middle" x="465" y="-63.5" font-family="Helvetica,sans-Serif" font-size="10.00">Exceptions/BabelException.hpp</text>
</a>
</g>
</g>
<!-- Node7&#45;&gt;Node9 -->
<g id="edge8" class="edge">
<title>Node7&#45;&gt;Node9</title>
<path fill="none" stroke="midnightblue" d="M359.81,-112.44C380.29,-103.6 412.48,-89.69 435.86,-79.59"/>
<polygon fill="midnightblue" stroke="midnightblue" points="437.49,-82.7 445.29,-75.52 434.72,-76.27 437.49,-82.7"/>
</g>
<!-- Node10 -->
<g id="node10" class="node">
<title>Node10</title>
<g id="a_node10"><a xlink:title=" ">
<polygon fill="white" stroke="#bfbfbf" points="432.5,-0.5 432.5,-19.5 497.5,-19.5 497.5,-0.5 432.5,-0.5"/>
<text text-anchor="middle" x="465" y="-7.5" font-family="Helvetica,sans-Serif" font-size="10.00">stdexcept</text>
</a>
</g>
</g>
<!-- Node9&#45;&gt;Node10 -->
<g id="edge9" class="edge">
<title>Node9&#45;&gt;Node10</title>
<path fill="none" stroke="midnightblue" d="M465,-56.08C465,-49.01 465,-38.86 465,-29.99"/>
<polygon fill="midnightblue" stroke="midnightblue" points="468.5,-29.75 465,-19.75 461.5,-29.75 468.5,-29.75"/>
</g>
</g>
</svg>
