<?xml version="1.0" encoding="UTF-8" standalone="no"?>
<!DOCTYPE svg PUBLIC "-//W3C//DTD SVG 1.1//EN"
 "http://www.w3.org/Graphics/SVG/1.1/DTD/svg11.dtd">
<!-- Generated by graphviz version 2.43.0 (0)
 -->
<!-- Title: Common/Network/OwnedMessage.hpp Pages: 1 -->
<svg width="1038pt" height="252pt"
 viewBox="0.00 0.00 1038.00 252.00" xmlns="http://www.w3.org/2000/svg" xmlns:xlink="http://www.w3.org/1999/xlink">
<g id="graph0" class="graph" transform="scale(1 1) rotate(0) translate(4 248)">
<title>Common/Network/OwnedMessage.hpp</title>
<polygon fill="white" stroke="transparent" points="-4,4 -4,-248 1034,-248 1034,4 -4,4"/>
<!-- Node1 -->
<g id="node1" class="node">
<title>Node1</title>
<g id="a_node1"><a xlink:title=" ">
<polygon fill="#bfbfbf" stroke="black" points="382,-224.5 382,-243.5 588,-243.5 588,-224.5 382,-224.5"/>
<text text-anchor="middle" x="485" y="-231.5" font-family="Helvetica,sans-Serif" font-size="10.00">Common/Network/OwnedMessage.hpp</text>
</a>
</g>
</g>
<!-- Node2 -->
<g id="node2" class="node">
<title>Node2</title>
<g id="a_node2"><a xlink:title=" ">
<polygon fill="white" stroke="#bfbfbf" points="0,-56.5 0,-75.5 60,-75.5 60,-56.5 0,-56.5"/>
<text text-anchor="middle" x="30" y="-63.5" font-family="Helvetica,sans-Serif" font-size="10.00">iostream</text>
</a>
</g>
</g>
<!-- Node1&#45;&gt;Node2 -->
<g id="edge1" class="edge">
<title>Node1&#45;&gt;Node2</title>
<path fill="none" stroke="midnightblue" d="M461.5,-224.42C386.06,-196.9 149.94,-110.76 62.76,-78.95"/>
<polygon fill="midnightblue" stroke="midnightblue" points="63.96,-75.66 53.36,-75.52 61.56,-82.24 63.96,-75.66"/>
</g>
<!-- Node3 -->
<g id="node3" class="node">
<title>Node3</title>
<g id="a_node3"><a xlink:href="Message_8hpp.html" target="_top" xlink:title=" ">
<polygon fill="white" stroke="black" points="444.5,-112.5 444.5,-131.5 525.5,-131.5 525.5,-112.5 444.5,-112.5"/>
<text text-anchor="middle" x="485" y="-119.5" font-family="Helvetica,sans-Serif" font-size="10.00">Message.hpp</text>
</a>
</g>
</g>
<!-- Node1&#45;&gt;Node3 -->
<g id="edge2" class="edge">
<title>Node1&#45;&gt;Node3</title>
<path fill="none" stroke="midnightblue" d="M485,-224.37C485,-206.62 485,-165.67 485,-141.6"/>
<polygon fill="midnightblue" stroke="midnightblue" points="488.5,-141.59 485,-131.59 481.5,-141.59 488.5,-141.59"/>
</g>
<!-- Node13 -->
<g id="node13" class="node">
<title>Node13</title>
<g id="a_node13"><a xlink:href="ITCPConnection_8hpp.html" target="_top" xlink:title=" ">
<polygon fill="white" stroke="black" points="557.5,-168.5 557.5,-187.5 670.5,-187.5 670.5,-168.5 557.5,-168.5"/>
<text text-anchor="middle" x="614" y="-175.5" font-family="Helvetica,sans-Serif" font-size="10.00">ITCPConnection.hpp</text>
</a>
</g>
</g>
<!-- Node1&#45;&gt;Node13 -->
<g id="edge14" class="edge">
<title>Node1&#45;&gt;Node13</title>
<path fill="none" stroke="midnightblue" d="M505.44,-224.44C526.67,-215.56 560.1,-201.56 584.25,-191.45"/>
<polygon fill="midnightblue" stroke="midnightblue" points="585.78,-194.61 593.66,-187.52 583.08,-188.15 585.78,-194.61"/>
</g>
<!-- Node3&#45;&gt;Node2 -->
<g id="edge12" class="edge">
<title>Node3&#45;&gt;Node2</title>
<path fill="none" stroke="midnightblue" d="M444.33,-118.22C371.37,-112.87 213.27,-99.71 70.42,-76.06"/>
<polygon fill="midnightblue" stroke="midnightblue" points="70.6,-72.54 60.16,-74.33 69.45,-79.44 70.6,-72.54"/>
</g>
<!-- Node4 -->
<g id="node4" class="node">
<title>Node4</title>
<g id="a_node4"><a xlink:href="BabelException_8hpp.html" target="_top" xlink:title=" ">
<polygon fill="white" stroke="black" points="78,-56.5 78,-75.5 248,-75.5 248,-56.5 78,-56.5"/>
<text text-anchor="middle" x="163" y="-63.5" font-family="Helvetica,sans-Serif" font-size="10.00">Exceptions/BabelException.hpp</text>
</a>
</g>
</g>
<!-- Node3&#45;&gt;Node4 -->
<g id="edge3" class="edge">
<title>Node3&#45;&gt;Node4</title>
<path fill="none" stroke="midnightblue" d="M444.22,-114.16C388.56,-104.83 288.36,-88.02 223.81,-77.2"/>
<polygon fill="midnightblue" stroke="midnightblue" points="224.21,-73.72 213.77,-75.51 223.06,-80.62 224.21,-73.72"/>
</g>
<!-- Node6 -->
<g id="node6" class="node">
<title>Node6</title>
<g id="a_node6"><a xlink:href="SwapEndian_8hpp.html" target="_top" xlink:title=" ">
<polygon fill="white" stroke="black" points="266,-56.5 266,-75.5 404,-75.5 404,-56.5 266,-56.5"/>
<text text-anchor="middle" x="335" y="-63.5" font-family="Helvetica,sans-Serif" font-size="10.00">Utilities/SwapEndian.hpp</text>
</a>
</g>
</g>
<!-- Node3&#45;&gt;Node6 -->
<g id="edge5" class="edge">
<title>Node3&#45;&gt;Node6</title>
<path fill="none" stroke="midnightblue" d="M461.23,-112.44C436.11,-103.4 396.29,-89.06 368.1,-78.92"/>
<polygon fill="midnightblue" stroke="midnightblue" points="369.25,-75.61 358.66,-75.52 366.88,-82.2 369.25,-75.61"/>
</g>
<!-- Node8 -->
<g id="node8" class="node">
<title>Node8</title>
<g id="a_node8"><a xlink:title=" ">
<polygon fill="white" stroke="#bfbfbf" points="392,-0.5 392,-19.5 442,-19.5 442,-0.5 392,-0.5"/>
<text text-anchor="middle" x="417" y="-7.5" font-family="Helvetica,sans-Serif" font-size="10.00">cstdint</text>
</a>
</g>
</g>
<!-- Node3&#45;&gt;Node8 -->
<g id="edge9" class="edge">
<title>Node3&#45;&gt;Node8</title>
<path fill="none" stroke="midnightblue" d="M477.78,-112.35C470.57,-103.51 459.38,-89.24 451,-76 441.23,-60.57 431.73,-42.02 425.27,-28.7"/>
<polygon fill="midnightblue" stroke="midnightblue" points="428.43,-27.19 420.97,-19.66 422.11,-30.2 428.43,-27.19"/>
</g>
<!-- Node9 -->
<g id="node9" class="node">
<title>Node9</title>
<g id="a_node9"><a xlink:title=" ">
<polygon fill="white" stroke="#bfbfbf" points="460,-56.5 460,-75.5 510,-75.5 510,-56.5 460,-56.5"/>
<text text-anchor="middle" x="485" y="-63.5" font-family="Helvetica,sans-Serif" font-size="10.00">cstring</text>
</a>
</g>
</g>
<!-- Node3&#45;&gt;Node9 -->
<g id="edge8" class="edge">
<title>Node3&#45;&gt;Node9</title>
<path fill="none" stroke="midnightblue" d="M485,-112.08C485,-105.01 485,-94.86 485,-85.99"/>
<polygon fill="midnightblue" stroke="midnightblue" points="488.5,-85.75 485,-75.75 481.5,-85.75 488.5,-85.75"/>
</g>
<!-- Node10 -->
<g id="node10" class="node">
<title>Node10</title>
<g id="a_node10"><a xlink:title=" ">
<polygon fill="white" stroke="#bfbfbf" points="657.5,-56.5 657.5,-75.5 704.5,-75.5 704.5,-56.5 657.5,-56.5"/>
<text text-anchor="middle" x="681" y="-63.5" font-family="Helvetica,sans-Serif" font-size="10.00">vector</text>
</a>
</g>
</g>
<!-- Node3&#45;&gt;Node10 -->
<g id="edge10" class="edge">
<title>Node3&#45;&gt;Node10</title>
<path fill="none" stroke="midnightblue" d="M516.06,-112.44C551.97,-102.55 610.86,-86.32 647.7,-76.17"/>
<polygon fill="midnightblue" stroke="midnightblue" points="648.76,-79.51 657.47,-73.48 646.9,-72.76 648.76,-79.51"/>
</g>
<!-- Node11 -->
<g id="node11" class="node">
<title>Node11</title>
<g id="a_node11"><a xlink:title=" ">
<polygon fill="white" stroke="#bfbfbf" points="528,-56.5 528,-75.5 592,-75.5 592,-56.5 528,-56.5"/>
<text text-anchor="middle" x="560" y="-63.5" font-family="Helvetica,sans-Serif" font-size="10.00">algorithm</text>
</a>
</g>
</g>
<!-- Node3&#45;&gt;Node11 -->
<g id="edge11" class="edge">
<title>Node3&#45;&gt;Node11</title>
<path fill="none" stroke="midnightblue" d="M497.05,-112.32C508.46,-104.11 525.83,-91.6 539.43,-81.81"/>
<polygon fill="midnightblue" stroke="midnightblue" points="541.66,-84.52 547.73,-75.83 537.57,-78.84 541.66,-84.52"/>
</g>
<!-- Node12 -->
<g id="node12" class="node">
<title>Node12</title>
<g id="a_node12"><a xlink:title=" ">
<polygon fill="white" stroke="#bfbfbf" points="610.5,-56.5 610.5,-75.5 639.5,-75.5 639.5,-56.5 610.5,-56.5"/>
<text text-anchor="middle" x="625" y="-63.5" font-family="Helvetica,sans-Serif" font-size="10.00">bit</text>
</a>
</g>
</g>
<!-- Node3&#45;&gt;Node12 -->
<g id="edge13" class="edge">
<title>Node3&#45;&gt;Node12</title>
<path fill="none" stroke="midnightblue" d="M507.18,-112.44C532.64,-102.62 574.26,-86.57 600.61,-76.41"/>
<polygon fill="midnightblue" stroke="midnightblue" points="602.15,-79.56 610.22,-72.7 599.63,-73.03 602.15,-79.56"/>
</g>
<!-- Node5 -->
<g id="node5" class="node">
<title>Node5</title>
<g id="a_node5"><a xlink:title=" ">
<polygon fill="white" stroke="#bfbfbf" points="130.5,-0.5 130.5,-19.5 195.5,-19.5 195.5,-0.5 130.5,-0.5"/>
<text text-anchor="middle" x="163" y="-7.5" font-family="Helvetica,sans-Serif" font-size="10.00">stdexcept</text>
</a>
</g>
</g>
<!-- Node4&#45;&gt;Node5 -->
<g id="edge4" class="edge">
<title>Node4&#45;&gt;Node5</title>
<path fill="none" stroke="midnightblue" d="M163,-56.08C163,-49.01 163,-38.86 163,-29.99"/>
<polygon fill="midnightblue" stroke="midnightblue" points="166.5,-29.75 163,-19.75 159.5,-29.75 166.5,-29.75"/>
</g>
<!-- Node7 -->
<g id="node7" class="node">
<title>Node7</title>
<g id="a_node7"><a xlink:title=" ">
<polygon fill="white" stroke="#bfbfbf" points="310,-0.5 310,-19.5 360,-19.5 360,-0.5 310,-0.5"/>
<text text-anchor="middle" x="335" y="-7.5" font-family="Helvetica,sans-Serif" font-size="10.00">climits</text>
</a>
</g>
</g>
<!-- Node6&#45;&gt;Node7 -->
<g id="edge6" class="edge">
<title>Node6&#45;&gt;Node7</title>
<path fill="none" stroke="midnightblue" d="M335,-56.08C335,-49.01 335,-38.86 335,-29.99"/>
<polygon fill="midnightblue" stroke="midnightblue" points="338.5,-29.75 335,-19.75 331.5,-29.75 338.5,-29.75"/>
</g>
<!-- Node6&#45;&gt;Node8 -->
<g id="edge7" class="edge">
<title>Node6&#45;&gt;Node8</title>
<path fill="none" stroke="midnightblue" d="M348.17,-56.32C360.85,-47.98 380.23,-35.21 395.21,-25.35"/>
<polygon fill="midnightblue" stroke="midnightblue" points="397.43,-28.08 403.86,-19.65 393.58,-22.23 397.43,-28.08"/>
</g>
<!-- Node13&#45;&gt;Node3 -->
<g id="edge18" class="edge">
<title>Node13&#45;&gt;Node3</title>
<path fill="none" stroke="midnightblue" d="M593.56,-168.44C572.33,-159.56 538.9,-145.56 514.75,-135.45"/>
<polygon fill="midnightblue" stroke="midnightblue" points="515.92,-132.15 505.34,-131.52 513.22,-138.61 515.92,-132.15"/>
</g>
<!-- Node13&#45;&gt;Node10 -->
<g id="edge16" class="edge">
<title>Node13&#45;&gt;Node10</title>
<path fill="none" stroke="midnightblue" d="M610.27,-168.36C605.22,-155.26 597.95,-130.01 608,-112 616.57,-96.64 632.78,-85.88 647.74,-78.74"/>
<polygon fill="midnightblue" stroke="midnightblue" points="649.55,-81.77 657.31,-74.55 646.74,-75.35 649.55,-81.77"/>
</g>
<!-- Node14 -->
<g id="node14" class="node">
<title>Node14</title>
<g id="a_node14"><a xlink:title=" ">
<polygon fill="white" stroke="#bfbfbf" points="617,-112.5 617,-131.5 661,-131.5 661,-112.5 617,-112.5"/>
<text text-anchor="middle" x="639" y="-119.5" font-family="Helvetica,sans-Serif" font-size="10.00">string</text>
</a>
</g>
</g>
<!-- Node13&#45;&gt;Node14 -->
<g id="edge15" class="edge">
<title>Node13&#45;&gt;Node14</title>
<path fill="none" stroke="midnightblue" d="M618.13,-168.08C621.51,-160.77 626.42,-150.18 630.62,-141.1"/>
<polygon fill="midnightblue" stroke="midnightblue" points="633.92,-142.3 634.95,-131.75 627.57,-139.36 633.92,-142.3"/>
</g>
<!-- Node15 -->
<g id="node15" class="node">
<title>Node15</title>
<g id="a_node15"><a xlink:title=" ">
<polygon fill="white" stroke="#bfbfbf" points="679.5,-112.5 679.5,-131.5 744.5,-131.5 744.5,-112.5 679.5,-112.5"/>
<text text-anchor="middle" x="712" y="-119.5" font-family="Helvetica,sans-Serif" font-size="10.00">functional</text>
</a>
</g>
</g>
<!-- Node13&#45;&gt;Node15 -->
<g id="edge17" class="edge">
<title>Node13&#45;&gt;Node15</title>
<path fill="none" stroke="midnightblue" d="M629.75,-168.32C645.32,-159.74 669.38,-146.49 687.46,-136.52"/>
<polygon fill="midnightblue" stroke="midnightblue" points="689.22,-139.55 696.29,-131.65 685.85,-133.42 689.22,-139.55"/>
</g>
<!-- Node16 -->
<g id="node16" class="node">
<title>Node16</title>
<g id="a_node16"><a xlink:href="TSQueue_8hpp.html" target="_top" xlink:title=" ">
<polygon fill="white" stroke="black" points="782,-112.5 782,-131.5 904,-131.5 904,-112.5 782,-112.5"/>
<text text-anchor="middle" x="843" y="-119.5" font-family="Helvetica,sans-Serif" font-size="10.00">Utilities/TSQueue.hpp</text>
</a>
</g>
</g>
<!-- Node13&#45;&gt;Node16 -->
<g id="edge19" class="edge">
<title>Node13&#45;&gt;Node16</title>
<path fill="none" stroke="midnightblue" d="M650.29,-168.44C689.98,-159.08 753.71,-144.06 796.91,-133.87"/>
<polygon fill="midnightblue" stroke="midnightblue" points="797.95,-137.22 806.88,-131.52 796.35,-130.41 797.95,-137.22"/>
</g>
<!-- Node17 -->
<g id="node17" class="node">
<title>Node17</title>
<g id="a_node17"><a xlink:title=" ">
<polygon fill="white" stroke="#bfbfbf" points="723,-56.5 723,-75.5 771,-75.5 771,-56.5 723,-56.5"/>
<text text-anchor="middle" x="747" y="-63.5" font-family="Helvetica,sans-Serif" font-size="10.00">mutex</text>
</a>
</g>
</g>
<!-- Node16&#45;&gt;Node17 -->
<g id="edge20" class="edge">
<title>Node16&#45;&gt;Node17</title>
<path fill="none" stroke="midnightblue" d="M827.58,-112.32C812.46,-103.82 789.18,-90.73 771.53,-80.8"/>
<polygon fill="midnightblue" stroke="midnightblue" points="772.82,-77.51 762.39,-75.65 769.39,-83.61 772.82,-77.51"/>
</g>
<!-- Node18 -->
<g id="node18" class="node">
<title>Node18</title>
<g id="a_node18"><a xlink:title=" ">
<polygon fill="white" stroke="#bfbfbf" points="789.5,-56.5 789.5,-75.5 896.5,-75.5 896.5,-56.5 789.5,-56.5"/>
<text text-anchor="middle" x="843" y="-63.5" font-family="Helvetica,sans-Serif" font-size="10.00">condition_variable</text>
</a>
</g>
</g>
<!-- Node16&#45;&gt;Node18 -->
<g id="edge21" class="edge">
<title>Node16&#45;&gt;Node18</title>
<path fill="none" stroke="midnightblue" d="M843,-112.08C843,-105.01 843,-94.86 843,-85.99"/>
<polygon fill="midnightblue" stroke="midnightblue" points="846.5,-85.75 843,-75.75 839.5,-85.75 846.5,-85.75"/>
</g>
<!-- Node19 -->
<g id="node19" class="node">
<title>Node19</title>
<g id="a_node19"><a xlink:title=" ">
<polygon fill="white" stroke="#bfbfbf" points="914.5,-56.5 914.5,-75.5 961.5,-75.5 961.5,-56.5 914.5,-56.5"/>
<text text-anchor="middle" x="938" y="-63.5" font-family="Helvetica,sans-Serif" font-size="10.00">deque</text>
</a>
</g>
</g>
<!-- Node16&#45;&gt;Node19 -->
<g id="edge22" class="edge">
<title>Node16&#45;&gt;Node19</title>
<path fill="none" stroke="midnightblue" d="M858.26,-112.32C873.22,-103.82 896.25,-90.73 913.73,-80.8"/>
<polygon fill="midnightblue" stroke="midnightblue" points="915.81,-83.64 922.77,-75.65 912.35,-77.55 915.81,-83.64"/>
</g>
<!-- Node20 -->
<g id="node20" class="node">
<title>Node20</title>
<g id="a_node20"><a xlink:title=" ">
<polygon fill="white" stroke="#bfbfbf" points="980,-56.5 980,-75.5 1030,-75.5 1030,-56.5 980,-56.5"/>
<text text-anchor="middle" x="1005" y="-63.5" font-family="Helvetica,sans-Serif" font-size="10.00">chrono</text>
</a>
</g>
</g>
<!-- Node16&#45;&gt;Node20 -->
<g id="edge23" class="edge">
<title>Node16&#45;&gt;Node20</title>
<path fill="none" stroke="midnightblue" d="M868.67,-112.44C896.08,-103.31 939.69,-88.77 970.19,-78.6"/>
<polygon fill="midnightblue" stroke="midnightblue" points="971.6,-81.82 979.98,-75.34 969.39,-75.18 971.6,-81.82"/>
</g>
</g>
</svg>
