<?xml version="1.0" encoding="UTF-8" standalone="no"?>
<!DOCTYPE svg PUBLIC "-//W3C//DTD SVG 1.1//EN"
 "http://www.w3.org/Graphics/SVG/1.1/DTD/svg11.dtd">
<!-- Generated by graphviz version 2.43.0 (0)
 -->
<!-- Title: Client/src/Audio/PortAudio.hpp Pages: 1 -->
<svg width="276pt" height="140pt"
 viewBox="0.00 0.00 275.50 140.00" xmlns="http://www.w3.org/2000/svg" xmlns:xlink="http://www.w3.org/1999/xlink">
<g id="graph0" class="graph" transform="scale(1 1) rotate(0) translate(4 136)">
<title>Client/src/Audio/PortAudio.hpp</title>
<polygon fill="white" stroke="transparent" points="-4,4 -4,-136 271.5,-136 271.5,4 -4,4"/>
<!-- Node1 -->
<g id="node1" class="node">
<title>Node1</title>
<g id="a_node1"><a xlink:title=" ">
<polygon fill="#bfbfbf" stroke="black" points="83.5,-112.5 83.5,-131.5 247.5,-131.5 247.5,-112.5 83.5,-112.5"/>
<text text-anchor="middle" x="165.5" y="-119.5" font-family="Helvetica,sans-Serif" font-size="10.00">Client/src/Audio/PortAudio.hpp</text>
</a>
</g>
</g>
<!-- Node2 -->
<g id="node2" class="node">
<title>Node2</title>
<g id="a_node2"><a xlink:href="IAudioManager_8hpp.html" target="_top" xlink:title=" ">
<polygon fill="white" stroke="black" points="1.5,-56.5 1.5,-75.5 111.5,-75.5 111.5,-56.5 1.5,-56.5"/>
<text text-anchor="middle" x="56.5" y="-63.5" font-family="Helvetica,sans-Serif" font-size="10.00">IAudioManager.hpp</text>
</a>
</g>
</g>
<!-- Node1&#45;&gt;Node2 -->
<g id="edge1" class="edge">
<title>Node1&#45;&gt;Node2</title>
<path fill="none" stroke="midnightblue" d="M147.99,-112.32C130.43,-103.62 103.17,-90.12 82.97,-80.11"/>
<polygon fill="midnightblue" stroke="midnightblue" points="84.48,-76.96 73.97,-75.65 81.38,-83.23 84.48,-76.96"/>
</g>
<!-- Node5 -->
<g id="node5" class="node">
<title>Node5</title>
<g id="a_node5"><a xlink:title=" ">
<polygon fill="white" stroke="#bfbfbf" points="129.5,-56.5 129.5,-75.5 201.5,-75.5 201.5,-56.5 129.5,-56.5"/>
<text text-anchor="middle" x="165.5" y="-63.5" font-family="Helvetica,sans-Serif" font-size="10.00">portaudio.h</text>
</a>
</g>
</g>
<!-- Node1&#45;&gt;Node5 -->
<g id="edge4" class="edge">
<title>Node1&#45;&gt;Node5</title>
<path fill="none" stroke="midnightblue" d="M165.5,-112.08C165.5,-105.01 165.5,-94.86 165.5,-85.99"/>
<polygon fill="midnightblue" stroke="midnightblue" points="169,-85.75 165.5,-75.75 162,-85.75 169,-85.75"/>
</g>
<!-- Node6 -->
<g id="node6" class="node">
<title>Node6</title>
<g id="a_node6"><a xlink:title=" ">
<polygon fill="white" stroke="#bfbfbf" points="219.5,-56.5 219.5,-75.5 267.5,-75.5 267.5,-56.5 219.5,-56.5"/>
<text text-anchor="middle" x="243.5" y="-63.5" font-family="Helvetica,sans-Serif" font-size="10.00">mutex</text>
</a>
</g>
</g>
<!-- Node1&#45;&gt;Node6 -->
<g id="edge5" class="edge">
<title>Node1&#45;&gt;Node6</title>
<path fill="none" stroke="midnightblue" d="M178.03,-112.32C190.09,-103.98 208.53,-91.21 222.77,-81.35"/>
<polygon fill="midnightblue" stroke="midnightblue" points="224.77,-84.22 231,-75.65 220.78,-78.47 224.77,-84.22"/>
</g>
<!-- Node3 -->
<g id="node3" class="node">
<title>Node3</title>
<g id="a_node3"><a xlink:title=" ">
<polygon fill="white" stroke="#bfbfbf" points="0,-0.5 0,-19.5 47,-19.5 47,-0.5 0,-0.5"/>
<text text-anchor="middle" x="23.5" y="-7.5" font-family="Helvetica,sans-Serif" font-size="10.00">vector</text>
</a>
</g>
</g>
<!-- Node2&#45;&gt;Node3 -->
<g id="edge2" class="edge">
<title>Node2&#45;&gt;Node3</title>
<path fill="none" stroke="midnightblue" d="M51.05,-56.08C46.49,-48.61 39.83,-37.72 34.21,-28.52"/>
<polygon fill="midnightblue" stroke="midnightblue" points="37.05,-26.46 28.85,-19.75 31.08,-30.11 37.05,-26.46"/>
</g>
<!-- Node4 -->
<g id="node4" class="node">
<title>Node4</title>
<g id="a_node4"><a xlink:title=" ">
<polygon fill="white" stroke="#bfbfbf" points="65.5,-0.5 65.5,-19.5 115.5,-19.5 115.5,-0.5 65.5,-0.5"/>
<text text-anchor="middle" x="90.5" y="-7.5" font-family="Helvetica,sans-Serif" font-size="10.00">cstdint</text>
</a>
</g>
</g>
<!-- Node2&#45;&gt;Node4 -->
<g id="edge3" class="edge">
<title>Node2&#45;&gt;Node4</title>
<path fill="none" stroke="midnightblue" d="M62.11,-56.08C66.87,-48.53 73.82,-37.49 79.65,-28.23"/>
<polygon fill="midnightblue" stroke="midnightblue" points="82.62,-30.08 84.99,-19.75 76.7,-26.35 82.62,-30.08"/>
</g>
</g>
</svg>
