<?xml version="1.0" encoding="UTF-8" standalone="no"?>
<!DOCTYPE svg PUBLIC "-//W3C//DTD SVG 1.1//EN"
 "http://www.w3.org/Graphics/SVG/1.1/DTD/svg11.dtd">
<!-- Generated by graphviz version 2.43.0 (0)
 -->
<!-- Title: Client/src/Audio/PortAudioException.hpp Pages: 1 -->
<svg width="673pt" height="229pt"
 viewBox="0.00 0.00 672.50 229.00" xmlns="http://www.w3.org/2000/svg" xmlns:xlink="http://www.w3.org/1999/xlink">
<g id="graph0" class="graph" transform="scale(1 1) rotate(0) translate(4 225)">
<title>Client/src/Audio/PortAudioException.hpp</title>
<polygon fill="white" stroke="transparent" points="-4,4 -4,-225 668.5,-225 668.5,4 -4,4"/>
<!-- Node1 -->
<g id="node1" class="node">
<title>Node1</title>
<g id="a_node1"><a xlink:title=" ">
<polygon fill="#bfbfbf" stroke="black" points="120.5,-190.5 120.5,-220.5 263.5,-220.5 263.5,-190.5 120.5,-190.5"/>
<text text-anchor="start" x="128.5" y="-208.5" font-family="Helvetica,sans-Serif" font-size="10.00">Client/src/Audio/PortAudio</text>
<text text-anchor="middle" x="192" y="-197.5" font-family="Helvetica,sans-Serif" font-size="10.00">Exception.hpp</text>
</a>
</g>
</g>
<!-- Node2 -->
<g id="node2" class="node">
<title>Node2</title>
<g id="a_node2"><a xlink:href="PortAudio_8cpp.html" target="_top" xlink:title=" ">
<polygon fill="white" stroke="black" points="0,-134.5 0,-153.5 164,-153.5 164,-134.5 0,-134.5"/>
<text text-anchor="middle" x="82" y="-141.5" font-family="Helvetica,sans-Serif" font-size="10.00">Client/src/Audio/PortAudio.cpp</text>
</a>
</g>
</g>
<!-- Node1&#45;&gt;Node2 -->
<g id="edge1" class="edge">
<title>Node1&#45;&gt;Node2</title>
<path fill="none" stroke="midnightblue" d="M156.88,-185.51C137.11,-174.81 113.38,-161.97 98.01,-153.66"/>
<polygon fill="midnightblue" stroke="midnightblue" points="155.47,-188.72 165.93,-190.4 158.8,-182.56 155.47,-188.72"/>
</g>
<!-- Node3 -->
<g id="node3" class="node">
<title>Node3</title>
<g id="a_node3"><a xlink:href="Client_2src_2main_8cpp.html" target="_top" xlink:title=" ">
<polygon fill="white" stroke="black" points="156,-6 156,-25 266,-25 266,-6 156,-6"/>
<text text-anchor="middle" x="211" y="-13" font-family="Helvetica,sans-Serif" font-size="10.00">Client/src/main.cpp</text>
</a>
</g>
</g>
<!-- Node1&#45;&gt;Node3 -->
<g id="edge2" class="edge">
<title>Node1&#45;&gt;Node3</title>
<path fill="none" stroke="midnightblue" d="M194.44,-180.39C198.7,-138.16 207.34,-52.67 210.12,-25.21"/>
<polygon fill="midnightblue" stroke="midnightblue" points="190.95,-180.07 193.43,-190.37 197.92,-180.77 190.95,-180.07"/>
</g>
<!-- Node4 -->
<g id="node4" class="node">
<title>Node4</title>
<g id="a_node4"><a xlink:href="SoundHandler_8hpp.html" target="_top" xlink:title=" ">
<polygon fill="white" stroke="black" points="281,-134.5 281,-153.5 435,-153.5 435,-134.5 281,-134.5"/>
<text text-anchor="middle" x="358" y="-141.5" font-family="Helvetica,sans-Serif" font-size="10.00">Client/src/SoundHandler.hpp</text>
</a>
</g>
</g>
<!-- Node1&#45;&gt;Node4 -->
<g id="edge3" class="edge">
<title>Node1&#45;&gt;Node4</title>
<path fill="none" stroke="midnightblue" d="M240.98,-186.94C271.57,-175.98 309.6,-162.35 333.85,-153.66"/>
<polygon fill="midnightblue" stroke="midnightblue" points="239.57,-183.73 231.34,-190.4 241.93,-190.32 239.57,-183.73"/>
</g>
<!-- Node5 -->
<g id="node5" class="node">
<title>Node5</title>
<g id="a_node5"><a xlink:href="HomePage_8hpp.html" target="_top" xlink:title=" ">
<polygon fill="white" stroke="black" points="220,-67.5 220,-97.5 330,-97.5 330,-67.5 220,-67.5"/>
<text text-anchor="start" x="228" y="-85.5" font-family="Helvetica,sans-Serif" font-size="10.00">Client/src/Windows</text>
<text text-anchor="middle" x="275" y="-74.5" font-family="Helvetica,sans-Serif" font-size="10.00">/HomePage.hpp</text>
</a>
</g>
</g>
<!-- Node4&#45;&gt;Node5 -->
<g id="edge4" class="edge">
<title>Node4&#45;&gt;Node5</title>
<path fill="none" stroke="midnightblue" d="M337.73,-128.47C324.59,-119.05 307.56,-106.84 294.56,-97.52"/>
<polygon fill="midnightblue" stroke="midnightblue" points="335.94,-131.49 346.11,-134.48 340.02,-125.8 335.94,-131.49"/>
</g>
<!-- Node6 -->
<g id="node6" class="node">
<title>Node6</title>
<g id="a_node6"><a xlink:href="HomePage_8cpp.html" target="_top" xlink:title=" ">
<polygon fill="white" stroke="black" points="293,-0.5 293,-30.5 403,-30.5 403,-0.5 293,-0.5"/>
<text text-anchor="start" x="301" y="-18.5" font-family="Helvetica,sans-Serif" font-size="10.00">Client/src/Windows</text>
<text text-anchor="middle" x="348" y="-7.5" font-family="Helvetica,sans-Serif" font-size="10.00">/HomePage.cpp</text>
</a>
</g>
</g>
<!-- Node4&#45;&gt;Node6 -->
<g id="edge9" class="edge">
<title>Node4&#45;&gt;Node6</title>
<path fill="none" stroke="midnightblue" d="M356.51,-124.11C354.49,-98.63 350.95,-53.81 349.14,-30.89"/>
<polygon fill="midnightblue" stroke="midnightblue" points="353.04,-124.61 357.31,-134.31 360.01,-124.06 353.04,-124.61"/>
</g>
<!-- Node7 -->
<g id="node7" class="node">
<title>Node7</title>
<g id="a_node7"><a xlink:href="UDPSocket_8cpp.html" target="_top" xlink:title=" ">
<polygon fill="white" stroke="black" points="386.5,-67.5 386.5,-97.5 493.5,-97.5 493.5,-67.5 386.5,-67.5"/>
<text text-anchor="start" x="394.5" y="-85.5" font-family="Helvetica,sans-Serif" font-size="10.00">Client/src/Network</text>
<text text-anchor="middle" x="440" y="-74.5" font-family="Helvetica,sans-Serif" font-size="10.00">/UDPSocket.cpp</text>
</a>
</g>
</g>
<!-- Node4&#45;&gt;Node7 -->
<g id="edge7" class="edge">
<title>Node4&#45;&gt;Node7</title>
<path fill="none" stroke="midnightblue" d="M378.03,-128.47C391.01,-119.05 407.83,-106.84 420.67,-97.52"/>
<polygon fill="midnightblue" stroke="midnightblue" points="375.79,-125.77 369.75,-134.48 379.9,-131.43 375.79,-125.77"/>
</g>
<!-- Node8 -->
<g id="node8" class="node">
<title>Node8</title>
<g id="a_node8"><a xlink:href="SoundHandler_8cpp.html" target="_top" xlink:title=" ">
<polygon fill="white" stroke="black" points="511.5,-73 511.5,-92 664.5,-92 664.5,-73 511.5,-73"/>
<text text-anchor="middle" x="588" y="-80" font-family="Helvetica,sans-Serif" font-size="10.00">Client/src/SoundHandler.cpp</text>
</a>
</g>
</g>
<!-- Node4&#45;&gt;Node8 -->
<g id="edge8" class="edge">
<title>Node4&#45;&gt;Node8</title>
<path fill="none" stroke="midnightblue" d="M400.64,-131.97C445.3,-120.41 514.49,-102.52 555.11,-92.01"/>
<polygon fill="midnightblue" stroke="midnightblue" points="399.76,-128.58 390.95,-134.48 401.51,-135.36 399.76,-128.58"/>
</g>
<!-- Node5&#45;&gt;Node3 -->
<g id="edge5" class="edge">
<title>Node5&#45;&gt;Node3</title>
<path fill="none" stroke="midnightblue" d="M253.83,-60C242.15,-48.13 228.28,-34.05 219.56,-25.19"/>
<polygon fill="midnightblue" stroke="midnightblue" points="251.6,-62.73 261.11,-67.4 256.59,-57.81 251.6,-62.73"/>
</g>
<!-- Node5&#45;&gt;Node6 -->
<g id="edge6" class="edge">
<title>Node5&#45;&gt;Node6</title>
<path fill="none" stroke="midnightblue" d="M298.47,-60.6C309.5,-50.78 322.34,-39.34 332.19,-30.58"/>
<polygon fill="midnightblue" stroke="midnightblue" points="295.98,-58.13 290.84,-67.4 300.64,-63.36 295.98,-58.13"/>
</g>
</g>
</svg>
