<?xml version="1.0" encoding="UTF-8" standalone="no"?>
<!DOCTYPE svg PUBLIC "-//W3C//DTD SVG 1.1//EN"
 "http://www.w3.org/Graphics/SVG/1.1/DTD/svg11.dtd">
<!-- Generated by graphviz version 2.43.0 (0)
 -->
<!-- Title: Client/src/Audio/PortAudioException.hpp Pages: 1 -->
<svg width="240pt" height="151pt"
 viewBox="0.00 0.00 240.00 151.00" xmlns="http://www.w3.org/2000/svg" xmlns:xlink="http://www.w3.org/1999/xlink">
<g id="graph0" class="graph" transform="scale(1 1) rotate(0) translate(4 147)">
<title>Client/src/Audio/PortAudioException.hpp</title>
<polygon fill="white" stroke="transparent" points="-4,4 -4,-147 236,-147 236,4 -4,4"/>
<!-- Node1 -->
<g id="node1" class="node">
<title>Node1</title>
<g id="a_node1"><a xlink:title=" ">
<polygon fill="#bfbfbf" stroke="black" points="12.5,-112.5 12.5,-142.5 155.5,-142.5 155.5,-112.5 12.5,-112.5"/>
<text text-anchor="start" x="20.5" y="-130.5" font-family="Helvetica,sans-Serif" font-size="10.00">Client/src/Audio/PortAudio</text>
<text text-anchor="middle" x="84" y="-119.5" font-family="Helvetica,sans-Serif" font-size="10.00">Exception.hpp</text>
</a>
</g>
</g>
<!-- Node2 -->
<g id="node2" class="node">
<title>Node2</title>
<g id="a_node2"><a xlink:title=" ">
<polygon fill="white" stroke="#bfbfbf" points="0,-56.5 0,-75.5 44,-75.5 44,-56.5 0,-56.5"/>
<text text-anchor="middle" x="22" y="-63.5" font-family="Helvetica,sans-Serif" font-size="10.00">string</text>
</a>
</g>
</g>
<!-- Node1&#45;&gt;Node2 -->
<g id="edge1" class="edge">
<title>Node1&#45;&gt;Node2</title>
<path fill="none" stroke="midnightblue" d="M69.31,-112.4C60.02,-103.49 48,-91.95 38.4,-82.74"/>
<polygon fill="midnightblue" stroke="midnightblue" points="40.66,-80.06 31.02,-75.66 35.81,-85.11 40.66,-80.06"/>
</g>
<!-- Node3 -->
<g id="node3" class="node">
<title>Node3</title>
<g id="a_node3"><a xlink:href="BabelException_8hpp.html" target="_top" xlink:title=" ">
<polygon fill="white" stroke="black" points="62,-56.5 62,-75.5 232,-75.5 232,-56.5 62,-56.5"/>
<text text-anchor="middle" x="147" y="-63.5" font-family="Helvetica,sans-Serif" font-size="10.00">Exceptions/BabelException.hpp</text>
</a>
</g>
</g>
<!-- Node1&#45;&gt;Node3 -->
<g id="edge2" class="edge">
<title>Node1&#45;&gt;Node3</title>
<path fill="none" stroke="midnightblue" d="M98.93,-112.4C108.37,-103.49 120.58,-91.95 130.33,-82.74"/>
<polygon fill="midnightblue" stroke="midnightblue" points="132.97,-85.07 137.83,-75.66 128.16,-79.98 132.97,-85.07"/>
</g>
<!-- Node4 -->
<g id="node4" class="node">
<title>Node4</title>
<g id="a_node4"><a xlink:title=" ">
<polygon fill="white" stroke="#bfbfbf" points="114.5,-0.5 114.5,-19.5 179.5,-19.5 179.5,-0.5 114.5,-0.5"/>
<text text-anchor="middle" x="147" y="-7.5" font-family="Helvetica,sans-Serif" font-size="10.00">stdexcept</text>
</a>
</g>
</g>
<!-- Node3&#45;&gt;Node4 -->
<g id="edge3" class="edge">
<title>Node3&#45;&gt;Node4</title>
<path fill="none" stroke="midnightblue" d="M147,-56.08C147,-49.01 147,-38.86 147,-29.99"/>
<polygon fill="midnightblue" stroke="midnightblue" points="150.5,-29.75 147,-19.75 143.5,-29.75 150.5,-29.75"/>
</g>
</g>
</svg>
