<?xml version="1.0" encoding="UTF-8" standalone="no"?>
<!DOCTYPE svg PUBLIC "-//W3C//DTD SVG 1.1//EN"
 "http://www.w3.org/Graphics/SVG/1.1/DTD/svg11.dtd">
<!-- Generated by graphviz version 2.43.0 (0)
 -->
<!-- Title: Client/src/Network/QtTCPConnection.cpp Pages: 1 -->
<svg width="1304pt" height="319pt"
 viewBox="0.00 0.00 1304.00 319.00" xmlns="http://www.w3.org/2000/svg" xmlns:xlink="http://www.w3.org/1999/xlink">
<g id="graph0" class="graph" transform="scale(1 1) rotate(0) translate(4 315)">
<title>Client/src/Network/QtTCPConnection.cpp</title>
<polygon fill="white" stroke="transparent" points="-4,4 -4,-315 1300,-315 1300,4 -4,4"/>
<!-- Node1 -->
<g id="node1" class="node">
<title>Node1</title>
<g id="a_node1"><a xlink:title=" ">
<polygon fill="#bfbfbf" stroke="black" points="866.5,-280.5 866.5,-310.5 990.5,-310.5 990.5,-280.5 866.5,-280.5"/>
<text text-anchor="start" x="874.5" y="-298.5" font-family="Helvetica,sans-Serif" font-size="10.00">Client/src/Network</text>
<text text-anchor="middle" x="928.5" y="-287.5" font-family="Helvetica,sans-Serif" font-size="10.00">/QtTCPConnection.cpp</text>
</a>
</g>
</g>
<!-- Node2 -->
<g id="node2" class="node">
<title>Node2</title>
<g id="a_node2"><a xlink:href="QtTCPConnection_8hpp.html" target="_top" xlink:title=" ">
<polygon fill="white" stroke="black" points="867.5,-224.5 867.5,-243.5 989.5,-243.5 989.5,-224.5 867.5,-224.5"/>
<text text-anchor="middle" x="928.5" y="-231.5" font-family="Helvetica,sans-Serif" font-size="10.00">QtTCPConnection.hpp</text>
</a>
</g>
</g>
<!-- Node1&#45;&gt;Node2 -->
<g id="edge1" class="edge">
<title>Node1&#45;&gt;Node2</title>
<path fill="none" stroke="midnightblue" d="M928.5,-280.4C928.5,-272.47 928.5,-262.46 928.5,-253.86"/>
<polygon fill="midnightblue" stroke="midnightblue" points="932,-253.66 928.5,-243.66 925,-253.66 932,-253.66"/>
</g>
<!-- Node15 -->
<g id="node15" class="node">
<title>Node15</title>
<g id="a_node15"><a xlink:title=" ">
<polygon fill="white" stroke="#bfbfbf" points="970.5,-56.5 970.5,-75.5 1030.5,-75.5 1030.5,-56.5 970.5,-56.5"/>
<text text-anchor="middle" x="1000.5" y="-63.5" font-family="Helvetica,sans-Serif" font-size="10.00">iostream</text>
</a>
</g>
</g>
<!-- Node1&#45;&gt;Node15 -->
<g id="edge32" class="edge">
<title>Node1&#45;&gt;Node15</title>
<path fill="none" stroke="midnightblue" d="M896.7,-280.35C833.5,-250.34 702.69,-177.67 757.5,-112 786.16,-77.67 911.57,-84.39 955.5,-76 957.17,-75.68 958.87,-75.35 960.59,-75.02"/>
<polygon fill="midnightblue" stroke="midnightblue" points="961.36,-78.44 970.5,-73.08 960.01,-71.57 961.36,-78.44"/>
</g>
<!-- Node27 -->
<g id="node27" class="node">
<title>Node27</title>
<g id="a_node27"><a xlink:title=" ">
<polygon fill="white" stroke="#bfbfbf" points="1007.5,-224.5 1007.5,-243.5 1093.5,-243.5 1093.5,-224.5 1007.5,-224.5"/>
<text text-anchor="middle" x="1050.5" y="-231.5" font-family="Helvetica,sans-Serif" font-size="10.00">QHostAddress</text>
</a>
</g>
</g>
<!-- Node1&#45;&gt;Node27 -->
<g id="edge31" class="edge">
<title>Node1&#45;&gt;Node27</title>
<path fill="none" stroke="midnightblue" d="M957.41,-280.4C977.52,-270.59 1004.12,-257.62 1023.74,-248.05"/>
<polygon fill="midnightblue" stroke="midnightblue" points="1025.29,-251.19 1032.75,-243.66 1022.23,-244.9 1025.29,-251.19"/>
</g>
<!-- Node3 -->
<g id="node3" class="node">
<title>Node3</title>
<g id="a_node3"><a xlink:title=" ">
<polygon fill="white" stroke="#bfbfbf" points="1014.5,-0.5 1014.5,-19.5 1064.5,-19.5 1064.5,-0.5 1014.5,-0.5"/>
<text text-anchor="middle" x="1039.5" y="-7.5" font-family="Helvetica,sans-Serif" font-size="10.00">cstdint</text>
</a>
</g>
</g>
<!-- Node2&#45;&gt;Node3 -->
<g id="edge2" class="edge">
<title>Node2&#45;&gt;Node3</title>
<path fill="none" stroke="midnightblue" d="M977.98,-224.47C1031,-214.83 1108.77,-199.05 1117.5,-188 1158.54,-136.04 1090.08,-59.11 1056.46,-26.5"/>
<polygon fill="midnightblue" stroke="midnightblue" points="1058.78,-23.89 1049.12,-19.55 1053.97,-28.97 1058.78,-23.89"/>
</g>
<!-- Node4 -->
<g id="node4" class="node">
<title>Node4</title>
<g id="a_node4"><a xlink:href="ITCPConnection_8hpp.html" target="_top" xlink:title=" ">
<polygon fill="white" stroke="black" points="515.5,-168.5 515.5,-187.5 673.5,-187.5 673.5,-168.5 515.5,-168.5"/>
<text text-anchor="middle" x="594.5" y="-175.5" font-family="Helvetica,sans-Serif" font-size="10.00">Network/ITCPConnection.hpp</text>
</a>
</g>
</g>
<!-- Node2&#45;&gt;Node4 -->
<g id="edge3" class="edge">
<title>Node2&#45;&gt;Node4</title>
<path fill="none" stroke="midnightblue" d="M875.58,-224.44C816.33,-214.87 720.4,-199.36 657.38,-189.17"/>
<polygon fill="midnightblue" stroke="midnightblue" points="657.61,-185.66 647.18,-187.52 656.49,-192.57 657.61,-185.66"/>
</g>
<!-- Node7 -->
<g id="node7" class="node">
<title>Node7</title>
<g id="a_node7"><a xlink:title=" ">
<polygon fill="white" stroke="#bfbfbf" points="767,-112.5 767,-131.5 832,-131.5 832,-112.5 767,-112.5"/>
<text text-anchor="middle" x="799.5" y="-119.5" font-family="Helvetica,sans-Serif" font-size="10.00">functional</text>
</a>
</g>
</g>
<!-- Node2&#45;&gt;Node7 -->
<g id="edge28" class="edge">
<title>Node2&#45;&gt;Node7</title>
<path fill="none" stroke="midnightblue" d="M867.46,-227.96C840.83,-222.37 811.98,-210.98 795.5,-188 785.84,-174.53 788.56,-155.17 792.64,-141.08"/>
<polygon fill="midnightblue" stroke="midnightblue" points="795.99,-142.12 795.85,-131.52 789.35,-139.89 795.99,-142.12"/>
</g>
<!-- Node22 -->
<g id="node22" class="node">
<title>Node22</title>
<g id="a_node22"><a xlink:href="RFCCodes_8hpp.html" target="_top" xlink:title=" ">
<polygon fill="white" stroke="black" points="1165,-112.5 1165,-131.5 1296,-131.5 1296,-112.5 1165,-112.5"/>
<text text-anchor="middle" x="1230.5" y="-119.5" font-family="Helvetica,sans-Serif" font-size="10.00">Network/RFCCodes.hpp</text>
</a>
</g>
</g>
<!-- Node2&#45;&gt;Node22 -->
<g id="edge24" class="edge">
<title>Node2&#45;&gt;Node22</title>
<path fill="none" stroke="midnightblue" d="M986.48,-224.47C1042.2,-215.7 1122.01,-201.45 1150.5,-188 1175.9,-176.01 1200.22,-154.29 1215.24,-139.28"/>
<polygon fill="midnightblue" stroke="midnightblue" points="1218.12,-141.34 1222.58,-131.73 1213.1,-136.46 1218.12,-141.34"/>
</g>
<!-- Node23 -->
<g id="node23" class="node">
<title>Node23</title>
<g id="a_node23"><a xlink:title=" ">
<polygon fill="white" stroke="#bfbfbf" points="804.5,-168.5 804.5,-187.5 876.5,-187.5 876.5,-168.5 804.5,-168.5"/>
<text text-anchor="middle" x="840.5" y="-175.5" font-family="Helvetica,sans-Serif" font-size="10.00">QTcpSocket</text>
</a>
</g>
</g>
<!-- Node2&#45;&gt;Node23 -->
<g id="edge26" class="edge">
<title>Node2&#45;&gt;Node23</title>
<path fill="none" stroke="midnightblue" d="M914.36,-224.32C900.63,-215.9 879.56,-202.97 863.44,-193.07"/>
<polygon fill="midnightblue" stroke="midnightblue" points="864.96,-189.9 854.6,-187.65 861.3,-195.87 864.96,-189.9"/>
</g>
<!-- Node24 -->
<g id="node24" class="node">
<title>Node24</title>
<g id="a_node24"><a xlink:title=" ">
<polygon fill="white" stroke="#bfbfbf" points="894.5,-168.5 894.5,-187.5 962.5,-187.5 962.5,-168.5 894.5,-168.5"/>
<text text-anchor="middle" x="928.5" y="-175.5" font-family="Helvetica,sans-Serif" font-size="10.00">QtWidgets</text>
</a>
</g>
</g>
<!-- Node2&#45;&gt;Node24 -->
<g id="edge27" class="edge">
<title>Node2&#45;&gt;Node24</title>
<path fill="none" stroke="midnightblue" d="M928.5,-224.08C928.5,-217.01 928.5,-206.86 928.5,-197.99"/>
<polygon fill="midnightblue" stroke="midnightblue" points="932,-197.75 928.5,-187.75 925,-197.75 932,-197.75"/>
</g>
<!-- Node25 -->
<g id="node25" class="node">
<title>Node25</title>
<g id="a_node25"><a xlink:title=" ">
<polygon fill="white" stroke="#bfbfbf" points="981,-168.5 981,-187.5 1034,-187.5 1034,-168.5 981,-168.5"/>
<text text-anchor="middle" x="1007.5" y="-175.5" font-family="Helvetica,sans-Serif" font-size="10.00">QString</text>
</a>
</g>
</g>
<!-- Node2&#45;&gt;Node25 -->
<g id="edge29" class="edge">
<title>Node2&#45;&gt;Node25</title>
<path fill="none" stroke="midnightblue" d="M941.19,-224.32C953.4,-215.98 972.08,-203.21 986.5,-193.35"/>
<polygon fill="midnightblue" stroke="midnightblue" points="988.56,-196.19 994.84,-187.65 984.61,-190.41 988.56,-196.19"/>
</g>
<!-- Node26 -->
<g id="node26" class="node">
<title>Node26</title>
<g id="a_node26"><a xlink:title=" ">
<polygon fill="white" stroke="#bfbfbf" points="1052.5,-168.5 1052.5,-187.5 1108.5,-187.5 1108.5,-168.5 1052.5,-168.5"/>
<text text-anchor="middle" x="1080.5" y="-175.5" font-family="Helvetica,sans-Serif" font-size="10.00">QObject</text>
</a>
</g>
</g>
<!-- Node2&#45;&gt;Node26 -->
<g id="edge30" class="edge">
<title>Node2&#45;&gt;Node26</title>
<path fill="none" stroke="midnightblue" d="M952.58,-224.44C978.04,-215.4 1018.39,-201.06 1046.96,-190.92"/>
<polygon fill="midnightblue" stroke="midnightblue" points="1048.28,-194.16 1056.53,-187.52 1045.93,-187.57 1048.28,-194.16"/>
</g>
<!-- Node5 -->
<g id="node5" class="node">
<title>Node5</title>
<g id="a_node5"><a xlink:title=" ">
<polygon fill="white" stroke="#bfbfbf" points="484.5,-112.5 484.5,-131.5 528.5,-131.5 528.5,-112.5 484.5,-112.5"/>
<text text-anchor="middle" x="506.5" y="-119.5" font-family="Helvetica,sans-Serif" font-size="10.00">string</text>
</a>
</g>
</g>
<!-- Node4&#45;&gt;Node5 -->
<g id="edge4" class="edge">
<title>Node4&#45;&gt;Node5</title>
<path fill="none" stroke="midnightblue" d="M580.36,-168.32C566.63,-159.9 545.56,-146.97 529.44,-137.07"/>
<polygon fill="midnightblue" stroke="midnightblue" points="530.96,-133.9 520.6,-131.65 527.3,-139.87 530.96,-133.9"/>
</g>
<!-- Node6 -->
<g id="node6" class="node">
<title>Node6</title>
<g id="a_node6"><a xlink:title=" ">
<polygon fill="white" stroke="#bfbfbf" points="325,-56.5 325,-75.5 372,-75.5 372,-56.5 325,-56.5"/>
<text text-anchor="middle" x="348.5" y="-63.5" font-family="Helvetica,sans-Serif" font-size="10.00">vector</text>
</a>
</g>
</g>
<!-- Node4&#45;&gt;Node6 -->
<g id="edge5" class="edge">
<title>Node4&#45;&gt;Node6</title>
<path fill="none" stroke="midnightblue" d="M589.42,-168.29C580.69,-154.15 561.46,-126.33 537.5,-112 479.05,-77.06 452.8,-91.93 382.07,-75.95"/>
<polygon fill="midnightblue" stroke="midnightblue" points="382.8,-72.53 372.26,-73.6 381.17,-79.33 382.8,-72.53"/>
</g>
<!-- Node4&#45;&gt;Node7 -->
<g id="edge6" class="edge">
<title>Node4&#45;&gt;Node7</title>
<path fill="none" stroke="midnightblue" d="M626.98,-168.44C662.22,-159.16 718.6,-144.31 757.26,-134.13"/>
<polygon fill="midnightblue" stroke="midnightblue" points="758.39,-137.45 767.17,-131.52 756.61,-130.68 758.39,-137.45"/>
</g>
<!-- Node8 -->
<g id="node8" class="node">
<title>Node8</title>
<g id="a_node8"><a xlink:href="Message_8hpp.html" target="_top" xlink:title=" ">
<polygon fill="white" stroke="black" points="585,-112.5 585,-131.5 710,-131.5 710,-112.5 585,-112.5"/>
<text text-anchor="middle" x="647.5" y="-119.5" font-family="Helvetica,sans-Serif" font-size="10.00">Network/Message.hpp</text>
</a>
</g>
</g>
<!-- Node4&#45;&gt;Node8 -->
<g id="edge7" class="edge">
<title>Node4&#45;&gt;Node8</title>
<path fill="none" stroke="midnightblue" d="M603.25,-168.08C610.97,-160.22 622.4,-148.57 631.72,-139.08"/>
<polygon fill="midnightblue" stroke="midnightblue" points="634.4,-141.34 638.91,-131.75 629.41,-136.44 634.4,-141.34"/>
</g>
<!-- Node17 -->
<g id="node17" class="node">
<title>Node17</title>
<g id="a_node17"><a xlink:href="TSQueue_8hpp.html" target="_top" xlink:title=" ">
<polygon fill="white" stroke="black" points="154.5,-112.5 154.5,-131.5 276.5,-131.5 276.5,-112.5 154.5,-112.5"/>
<text text-anchor="middle" x="215.5" y="-119.5" font-family="Helvetica,sans-Serif" font-size="10.00">Utilities/TSQueue.hpp</text>
</a>
</g>
</g>
<!-- Node4&#45;&gt;Node17 -->
<g id="edge19" class="edge">
<title>Node4&#45;&gt;Node17</title>
<path fill="none" stroke="midnightblue" d="M534.45,-168.44C466.81,-158.81 357.02,-143.16 285.53,-132.98"/>
<polygon fill="midnightblue" stroke="midnightblue" points="285.67,-129.46 275.27,-131.52 284.68,-136.39 285.67,-129.46"/>
</g>
<!-- Node8&#45;&gt;Node3 -->
<g id="edge14" class="edge">
<title>Node8&#45;&gt;Node3</title>
<path fill="none" stroke="midnightblue" d="M710.27,-113.28C778.94,-104.37 884.35,-89.27 922.5,-76 932.2,-72.63 984.26,-42.94 1015.58,-24.87"/>
<polygon fill="midnightblue" stroke="midnightblue" points="1017.65,-27.71 1024.56,-19.68 1014.15,-21.65 1017.65,-27.71"/>
</g>
<!-- Node8&#45;&gt;Node6 -->
<g id="edge15" class="edge">
<title>Node8&#45;&gt;Node6</title>
<path fill="none" stroke="midnightblue" d="M586.95,-112.5C535.15,-104.83 458.42,-92.54 382.45,-76.02"/>
<polygon fill="midnightblue" stroke="midnightblue" points="382.74,-72.5 372.22,-73.77 381.24,-79.34 382.74,-72.5"/>
</g>
<!-- Node9 -->
<g id="node9" class="node">
<title>Node9</title>
<g id="a_node9"><a xlink:href="BabelException_8hpp.html" target="_top" xlink:title=" ">
<polygon fill="white" stroke="black" points="390.5,-56.5 390.5,-75.5 560.5,-75.5 560.5,-56.5 390.5,-56.5"/>
<text text-anchor="middle" x="475.5" y="-63.5" font-family="Helvetica,sans-Serif" font-size="10.00">Exceptions/BabelException.hpp</text>
</a>
</g>
</g>
<!-- Node8&#45;&gt;Node9 -->
<g id="edge8" class="edge">
<title>Node8&#45;&gt;Node9</title>
<path fill="none" stroke="midnightblue" d="M620.25,-112.44C591.06,-103.28 544.58,-88.69 512.19,-78.52"/>
<polygon fill="midnightblue" stroke="midnightblue" points="513.22,-75.17 502.63,-75.52 511.12,-81.85 513.22,-75.17"/>
</g>
<!-- Node11 -->
<g id="node11" class="node">
<title>Node11</title>
<g id="a_node11"><a xlink:href="SwapEndian_8hpp.html" target="_top" xlink:title=" ">
<polygon fill="white" stroke="black" points="578.5,-56.5 578.5,-75.5 716.5,-75.5 716.5,-56.5 578.5,-56.5"/>
<text text-anchor="middle" x="647.5" y="-63.5" font-family="Helvetica,sans-Serif" font-size="10.00">Utilities/SwapEndian.hpp</text>
</a>
</g>
</g>
<!-- Node8&#45;&gt;Node11 -->
<g id="edge10" class="edge">
<title>Node8&#45;&gt;Node11</title>
<path fill="none" stroke="midnightblue" d="M647.5,-112.08C647.5,-105.01 647.5,-94.86 647.5,-85.99"/>
<polygon fill="midnightblue" stroke="midnightblue" points="651,-85.75 647.5,-75.75 644,-85.75 651,-85.75"/>
</g>
<!-- Node13 -->
<g id="node13" class="node">
<title>Node13</title>
<g id="a_node13"><a xlink:title=" ">
<polygon fill="white" stroke="#bfbfbf" points="734.5,-56.5 734.5,-75.5 784.5,-75.5 784.5,-56.5 734.5,-56.5"/>
<text text-anchor="middle" x="759.5" y="-63.5" font-family="Helvetica,sans-Serif" font-size="10.00">cstring</text>
</a>
</g>
</g>
<!-- Node8&#45;&gt;Node13 -->
<g id="edge13" class="edge">
<title>Node8&#45;&gt;Node13</title>
<path fill="none" stroke="midnightblue" d="M665.49,-112.32C683.54,-103.62 711.55,-90.12 732.3,-80.11"/>
<polygon fill="midnightblue" stroke="midnightblue" points="734.06,-83.15 741.55,-75.65 731.02,-76.84 734.06,-83.15"/>
</g>
<!-- Node14 -->
<g id="node14" class="node">
<title>Node14</title>
<g id="a_node14"><a xlink:title=" ">
<polygon fill="white" stroke="#bfbfbf" points="802.5,-56.5 802.5,-75.5 866.5,-75.5 866.5,-56.5 802.5,-56.5"/>
<text text-anchor="middle" x="834.5" y="-63.5" font-family="Helvetica,sans-Serif" font-size="10.00">algorithm</text>
</a>
</g>
</g>
<!-- Node8&#45;&gt;Node14 -->
<g id="edge16" class="edge">
<title>Node8&#45;&gt;Node14</title>
<path fill="none" stroke="midnightblue" d="M677.13,-112.44C709,-103.24 759.83,-88.56 795.06,-78.39"/>
<polygon fill="midnightblue" stroke="midnightblue" points="796.37,-81.65 805.01,-75.52 794.43,-74.93 796.37,-81.65"/>
</g>
<!-- Node8&#45;&gt;Node15 -->
<g id="edge17" class="edge">
<title>Node8&#45;&gt;Node15</title>
<path fill="none" stroke="midnightblue" d="M710.11,-112.95C772.65,-104.66 871.46,-90.88 956.5,-76 957.75,-75.78 959.02,-75.55 960.31,-75.32"/>
<polygon fill="midnightblue" stroke="midnightblue" points="961.08,-78.73 970.25,-73.42 959.77,-71.86 961.08,-78.73"/>
</g>
<!-- Node16 -->
<g id="node16" class="node">
<title>Node16</title>
<g id="a_node16"><a xlink:title=" ">
<polygon fill="white" stroke="#bfbfbf" points="885,-56.5 885,-75.5 914,-75.5 914,-56.5 885,-56.5"/>
<text text-anchor="middle" x="899.5" y="-63.5" font-family="Helvetica,sans-Serif" font-size="10.00">bit</text>
</a>
</g>
</g>
<!-- Node8&#45;&gt;Node16 -->
<g id="edge18" class="edge">
<title>Node8&#45;&gt;Node16</title>
<path fill="none" stroke="midnightblue" d="M704.33,-112.44C748.56,-105.18 811.54,-93.53 875.11,-75.7"/>
<polygon fill="midnightblue" stroke="midnightblue" points="876.25,-79.02 884.9,-72.91 874.33,-72.29 876.25,-79.02"/>
</g>
<!-- Node10 -->
<g id="node10" class="node">
<title>Node10</title>
<g id="a_node10"><a xlink:title=" ">
<polygon fill="white" stroke="#bfbfbf" points="443,-0.5 443,-19.5 508,-19.5 508,-0.5 443,-0.5"/>
<text text-anchor="middle" x="475.5" y="-7.5" font-family="Helvetica,sans-Serif" font-size="10.00">stdexcept</text>
</a>
</g>
</g>
<!-- Node9&#45;&gt;Node10 -->
<g id="edge9" class="edge">
<title>Node9&#45;&gt;Node10</title>
<path fill="none" stroke="midnightblue" d="M475.5,-56.08C475.5,-49.01 475.5,-38.86 475.5,-29.99"/>
<polygon fill="midnightblue" stroke="midnightblue" points="479,-29.75 475.5,-19.75 472,-29.75 479,-29.75"/>
</g>
<!-- Node11&#45;&gt;Node3 -->
<g id="edge12" class="edge">
<title>Node11&#45;&gt;Node3</title>
<path fill="none" stroke="midnightblue" d="M709.61,-56.44C792.81,-44.98 937.66,-25.03 1004.22,-15.86"/>
<polygon fill="midnightblue" stroke="midnightblue" points="1004.78,-19.32 1014.21,-14.48 1003.82,-12.38 1004.78,-19.32"/>
</g>
<!-- Node12 -->
<g id="node12" class="node">
<title>Node12</title>
<g id="a_node12"><a xlink:title=" ">
<polygon fill="white" stroke="#bfbfbf" points="622.5,-0.5 622.5,-19.5 672.5,-19.5 672.5,-0.5 622.5,-0.5"/>
<text text-anchor="middle" x="647.5" y="-7.5" font-family="Helvetica,sans-Serif" font-size="10.00">climits</text>
</a>
</g>
</g>
<!-- Node11&#45;&gt;Node12 -->
<g id="edge11" class="edge">
<title>Node11&#45;&gt;Node12</title>
<path fill="none" stroke="midnightblue" d="M647.5,-56.08C647.5,-49.01 647.5,-38.86 647.5,-29.99"/>
<polygon fill="midnightblue" stroke="midnightblue" points="651,-29.75 647.5,-19.75 644,-29.75 651,-29.75"/>
</g>
<!-- Node18 -->
<g id="node18" class="node">
<title>Node18</title>
<g id="a_node18"><a xlink:title=" ">
<polygon fill="white" stroke="#bfbfbf" points="258.5,-56.5 258.5,-75.5 306.5,-75.5 306.5,-56.5 258.5,-56.5"/>
<text text-anchor="middle" x="282.5" y="-63.5" font-family="Helvetica,sans-Serif" font-size="10.00">mutex</text>
</a>
</g>
</g>
<!-- Node17&#45;&gt;Node18 -->
<g id="edge20" class="edge">
<title>Node17&#45;&gt;Node18</title>
<path fill="none" stroke="midnightblue" d="M226.26,-112.32C236.27,-104.26 251.39,-92.08 263.43,-82.37"/>
<polygon fill="midnightblue" stroke="midnightblue" points="265.95,-84.83 271.54,-75.83 261.56,-79.38 265.95,-84.83"/>
</g>
<!-- Node19 -->
<g id="node19" class="node">
<title>Node19</title>
<g id="a_node19"><a xlink:title=" ">
<polygon fill="white" stroke="#bfbfbf" points="0,-56.5 0,-75.5 107,-75.5 107,-56.5 0,-56.5"/>
<text text-anchor="middle" x="53.5" y="-63.5" font-family="Helvetica,sans-Serif" font-size="10.00">condition_variable</text>
</a>
</g>
</g>
<!-- Node17&#45;&gt;Node19 -->
<g id="edge21" class="edge">
<title>Node17&#45;&gt;Node19</title>
<path fill="none" stroke="midnightblue" d="M189.83,-112.44C162.58,-103.36 119.32,-88.94 88.85,-78.78"/>
<polygon fill="midnightblue" stroke="midnightblue" points="89.64,-75.36 79.05,-75.52 87.43,-82 89.64,-75.36"/>
</g>
<!-- Node20 -->
<g id="node20" class="node">
<title>Node20</title>
<g id="a_node20"><a xlink:title=" ">
<polygon fill="white" stroke="#bfbfbf" points="125,-56.5 125,-75.5 172,-75.5 172,-56.5 125,-56.5"/>
<text text-anchor="middle" x="148.5" y="-63.5" font-family="Helvetica,sans-Serif" font-size="10.00">deque</text>
</a>
</g>
</g>
<!-- Node17&#45;&gt;Node20 -->
<g id="edge22" class="edge">
<title>Node17&#45;&gt;Node20</title>
<path fill="none" stroke="midnightblue" d="M204.74,-112.32C194.73,-104.26 179.61,-92.08 167.57,-82.37"/>
<polygon fill="midnightblue" stroke="midnightblue" points="169.44,-79.38 159.46,-75.83 165.05,-84.83 169.44,-79.38"/>
</g>
<!-- Node21 -->
<g id="node21" class="node">
<title>Node21</title>
<g id="a_node21"><a xlink:title=" ">
<polygon fill="white" stroke="#bfbfbf" points="190.5,-56.5 190.5,-75.5 240.5,-75.5 240.5,-56.5 190.5,-56.5"/>
<text text-anchor="middle" x="215.5" y="-63.5" font-family="Helvetica,sans-Serif" font-size="10.00">chrono</text>
</a>
</g>
</g>
<!-- Node17&#45;&gt;Node21 -->
<g id="edge23" class="edge">
<title>Node17&#45;&gt;Node21</title>
<path fill="none" stroke="midnightblue" d="M215.5,-112.08C215.5,-105.01 215.5,-94.86 215.5,-85.99"/>
<polygon fill="midnightblue" stroke="midnightblue" points="219,-85.75 215.5,-75.75 212,-85.75 219,-85.75"/>
</g>
<!-- Node22&#45;&gt;Node3 -->
<g id="edge25" class="edge">
<title>Node22&#45;&gt;Node3</title>
<path fill="none" stroke="midnightblue" d="M1221.8,-112.44C1207.77,-99 1178.85,-72.75 1150.5,-56 1126.33,-41.72 1096.78,-29.98 1074.24,-22.08"/>
<polygon fill="midnightblue" stroke="midnightblue" points="1075.34,-18.76 1064.74,-18.83 1073.07,-25.38 1075.34,-18.76"/>
</g>
</g>
</svg>
