<?xml version="1.0" encoding="UTF-8" standalone="no"?>
<!DOCTYPE svg PUBLIC "-//W3C//DTD SVG 1.1//EN"
 "http://www.w3.org/Graphics/SVG/1.1/DTD/svg11.dtd">
<!-- Generated by graphviz version 2.43.0 (0)
 -->
<!-- Title: Client/src/Network/QtTCPConnection.hpp Pages: 1 -->
<svg width="1437pt" height="263pt"
 viewBox="0.00 0.00 1436.50 263.00" xmlns="http://www.w3.org/2000/svg" xmlns:xlink="http://www.w3.org/1999/xlink">
<g id="graph0" class="graph" transform="scale(1 1) rotate(0) translate(4 259)">
<title>Client/src/Network/QtTCPConnection.hpp</title>
<polygon fill="white" stroke="transparent" points="-4,4 -4,-259 1432.5,-259 1432.5,4 -4,4"/>
<!-- Node1 -->
<g id="node1" class="node">
<title>Node1</title>
<g id="a_node1"><a xlink:title=" ">
<polygon fill="#bfbfbf" stroke="black" points="1066,-224.5 1066,-254.5 1191,-254.5 1191,-224.5 1066,-224.5"/>
<text text-anchor="start" x="1074" y="-242.5" font-family="Helvetica,sans-Serif" font-size="10.00">Client/src/Network</text>
<text text-anchor="middle" x="1128.5" y="-231.5" font-family="Helvetica,sans-Serif" font-size="10.00">/QtTCPConnection.hpp</text>
</a>
</g>
</g>
<!-- Node2 -->
<g id="node2" class="node">
<title>Node2</title>
<g id="a_node2"><a xlink:title=" ">
<polygon fill="white" stroke="#bfbfbf" points="1014.5,-0.5 1014.5,-19.5 1064.5,-19.5 1064.5,-0.5 1014.5,-0.5"/>
<text text-anchor="middle" x="1039.5" y="-7.5" font-family="Helvetica,sans-Serif" font-size="10.00">cstdint</text>
</a>
</g>
</g>
<!-- Node1&#45;&gt;Node2 -->
<g id="edge1" class="edge">
<title>Node1&#45;&gt;Node2</title>
<path fill="none" stroke="midnightblue" d="M1120.91,-224.32C1110.31,-204.18 1090.88,-165.95 1077.5,-132 1063.49,-96.45 1051.01,-53.5 1044.43,-29.52"/>
<polygon fill="midnightblue" stroke="midnightblue" points="1047.75,-28.39 1041.76,-19.65 1040.99,-30.22 1047.75,-28.39"/>
</g>
<!-- Node3 -->
<g id="node3" class="node">
<title>Node3</title>
<g id="a_node3"><a xlink:href="ITCPConnection_8hpp.html" target="_top" xlink:title=" ">
<polygon fill="white" stroke="black" points="660.5,-168.5 660.5,-187.5 818.5,-187.5 818.5,-168.5 660.5,-168.5"/>
<text text-anchor="middle" x="739.5" y="-175.5" font-family="Helvetica,sans-Serif" font-size="10.00">Network/ITCPConnection.hpp</text>
</a>
</g>
</g>
<!-- Node1&#45;&gt;Node3 -->
<g id="edge2" class="edge">
<title>Node1&#45;&gt;Node3</title>
<path fill="none" stroke="midnightblue" d="M1065.57,-228.87C994,-217.93 877.68,-200.14 805.04,-189.02"/>
<polygon fill="midnightblue" stroke="midnightblue" points="805.51,-185.56 795.09,-187.5 804.45,-192.47 805.51,-185.56"/>
</g>
<!-- Node6 -->
<g id="node6" class="node">
<title>Node6</title>
<g id="a_node6"><a xlink:title=" ">
<polygon fill="white" stroke="#bfbfbf" points="903,-112.5 903,-131.5 968,-131.5 968,-112.5 903,-112.5"/>
<text text-anchor="middle" x="935.5" y="-119.5" font-family="Helvetica,sans-Serif" font-size="10.00">functional</text>
</a>
</g>
</g>
<!-- Node1&#45;&gt;Node6 -->
<g id="edge27" class="edge">
<title>Node1&#45;&gt;Node6</title>
<path fill="none" stroke="midnightblue" d="M1104.83,-224.34C1067.53,-202.01 995.51,-158.91 958.58,-136.81"/>
<polygon fill="midnightblue" stroke="midnightblue" points="960.36,-133.8 949.99,-131.67 956.77,-139.81 960.36,-133.8"/>
</g>
<!-- Node21 -->
<g id="node21" class="node">
<title>Node21</title>
<g id="a_node21"><a xlink:href="RFCCodes_8hpp.html" target="_top" xlink:title=" ">
<polygon fill="white" stroke="black" points="1087,-112.5 1087,-131.5 1218,-131.5 1218,-112.5 1087,-112.5"/>
<text text-anchor="middle" x="1152.5" y="-119.5" font-family="Helvetica,sans-Serif" font-size="10.00">Network/RFCCodes.hpp</text>
</a>
</g>
</g>
<!-- Node1&#45;&gt;Node21 -->
<g id="edge23" class="edge">
<title>Node1&#45;&gt;Node21</title>
<path fill="none" stroke="midnightblue" d="M1121.67,-224.37C1115.63,-209.88 1108.74,-186.86 1115.5,-168 1119.44,-157 1127.36,-146.77 1134.86,-138.85"/>
<polygon fill="midnightblue" stroke="midnightblue" points="1137.39,-141.27 1142.06,-131.76 1132.48,-136.28 1137.39,-141.27"/>
</g>
<!-- Node22 -->
<g id="node22" class="node">
<title>Node22</title>
<g id="a_node22"><a xlink:title=" ">
<polygon fill="white" stroke="#bfbfbf" points="1124.5,-168.5 1124.5,-187.5 1196.5,-187.5 1196.5,-168.5 1124.5,-168.5"/>
<text text-anchor="middle" x="1160.5" y="-175.5" font-family="Helvetica,sans-Serif" font-size="10.00">QTcpSocket</text>
</a>
</g>
</g>
<!-- Node1&#45;&gt;Node22 -->
<g id="edge25" class="edge">
<title>Node1&#45;&gt;Node22</title>
<path fill="none" stroke="midnightblue" d="M1136.08,-224.4C1140.54,-216.11 1146.22,-205.55 1150.98,-196.71"/>
<polygon fill="midnightblue" stroke="midnightblue" points="1154.19,-198.12 1155.84,-187.66 1148.02,-194.81 1154.19,-198.12"/>
</g>
<!-- Node23 -->
<g id="node23" class="node">
<title>Node23</title>
<g id="a_node23"><a xlink:title=" ">
<polygon fill="white" stroke="#bfbfbf" points="1214.5,-168.5 1214.5,-187.5 1282.5,-187.5 1282.5,-168.5 1214.5,-168.5"/>
<text text-anchor="middle" x="1248.5" y="-175.5" font-family="Helvetica,sans-Serif" font-size="10.00">QtWidgets</text>
</a>
</g>
</g>
<!-- Node1&#45;&gt;Node23 -->
<g id="edge26" class="edge">
<title>Node1&#45;&gt;Node23</title>
<path fill="none" stroke="midnightblue" d="M1156.94,-224.4C1176.62,-214.64 1202.64,-201.74 1221.91,-192.18"/>
<polygon fill="midnightblue" stroke="midnightblue" points="1223.63,-195.24 1231.04,-187.66 1220.52,-188.96 1223.63,-195.24"/>
</g>
<!-- Node24 -->
<g id="node24" class="node">
<title>Node24</title>
<g id="a_node24"><a xlink:title=" ">
<polygon fill="white" stroke="#bfbfbf" points="1301,-168.5 1301,-187.5 1354,-187.5 1354,-168.5 1301,-168.5"/>
<text text-anchor="middle" x="1327.5" y="-175.5" font-family="Helvetica,sans-Serif" font-size="10.00">QString</text>
</a>
</g>
</g>
<!-- Node1&#45;&gt;Node24 -->
<g id="edge28" class="edge">
<title>Node1&#45;&gt;Node24</title>
<path fill="none" stroke="midnightblue" d="M1175.41,-224.47C1210.66,-213.93 1258.28,-199.7 1290.78,-189.98"/>
<polygon fill="midnightblue" stroke="midnightblue" points="1292.19,-193.21 1300.77,-186.99 1290.18,-186.5 1292.19,-193.21"/>
</g>
<!-- Node25 -->
<g id="node25" class="node">
<title>Node25</title>
<g id="a_node25"><a xlink:title=" ">
<polygon fill="white" stroke="#bfbfbf" points="1372.5,-168.5 1372.5,-187.5 1428.5,-187.5 1428.5,-168.5 1372.5,-168.5"/>
<text text-anchor="middle" x="1400.5" y="-175.5" font-family="Helvetica,sans-Serif" font-size="10.00">QObject</text>
</a>
</g>
</g>
<!-- Node1&#45;&gt;Node25 -->
<g id="edge29" class="edge">
<title>Node1&#45;&gt;Node25</title>
<path fill="none" stroke="midnightblue" d="M1191.15,-225.34C1238.31,-215.34 1304.53,-201.12 1362.5,-188 1362.6,-187.98 1362.7,-187.96 1362.8,-187.93"/>
<polygon fill="midnightblue" stroke="midnightblue" points="1363.33,-191.4 1372.29,-185.75 1361.76,-184.58 1363.33,-191.4"/>
</g>
<!-- Node4 -->
<g id="node4" class="node">
<title>Node4</title>
<g id="a_node4"><a xlink:title=" ">
<polygon fill="white" stroke="#bfbfbf" points="665.5,-112.5 665.5,-131.5 709.5,-131.5 709.5,-112.5 665.5,-112.5"/>
<text text-anchor="middle" x="687.5" y="-119.5" font-family="Helvetica,sans-Serif" font-size="10.00">string</text>
</a>
</g>
</g>
<!-- Node3&#45;&gt;Node4 -->
<g id="edge3" class="edge">
<title>Node3&#45;&gt;Node4</title>
<path fill="none" stroke="midnightblue" d="M730.91,-168.08C723.34,-160.22 712.12,-148.57 702.99,-139.08"/>
<polygon fill="midnightblue" stroke="midnightblue" points="705.38,-136.53 695.93,-131.75 700.34,-141.38 705.38,-136.53"/>
</g>
<!-- Node5 -->
<g id="node5" class="node">
<title>Node5</title>
<g id="a_node5"><a xlink:title=" ">
<polygon fill="white" stroke="#bfbfbf" points="325,-56.5 325,-75.5 372,-75.5 372,-56.5 325,-56.5"/>
<text text-anchor="middle" x="348.5" y="-63.5" font-family="Helvetica,sans-Serif" font-size="10.00">vector</text>
</a>
</g>
</g>
<!-- Node3&#45;&gt;Node5 -->
<g id="edge4" class="edge">
<title>Node3&#45;&gt;Node5</title>
<path fill="none" stroke="midnightblue" d="M709.14,-168.46C637.34,-148.26 457.46,-97.66 382.32,-76.51"/>
<polygon fill="midnightblue" stroke="midnightblue" points="383.01,-73.07 372.43,-73.73 381.11,-79.81 383.01,-73.07"/>
</g>
<!-- Node3&#45;&gt;Node6 -->
<g id="edge5" class="edge">
<title>Node3&#45;&gt;Node6</title>
<path fill="none" stroke="midnightblue" d="M770.56,-168.44C804.1,-159.2 857.7,-144.44 894.64,-134.26"/>
<polygon fill="midnightblue" stroke="midnightblue" points="895.88,-137.55 904.59,-131.52 894.02,-130.8 895.88,-137.55"/>
</g>
<!-- Node7 -->
<g id="node7" class="node">
<title>Node7</title>
<g id="a_node7"><a xlink:href="Message_8hpp.html" target="_top" xlink:title=" ">
<polygon fill="white" stroke="black" points="728,-112.5 728,-131.5 853,-131.5 853,-112.5 728,-112.5"/>
<text text-anchor="middle" x="790.5" y="-119.5" font-family="Helvetica,sans-Serif" font-size="10.00">Network/Message.hpp</text>
</a>
</g>
</g>
<!-- Node3&#45;&gt;Node7 -->
<g id="edge6" class="edge">
<title>Node3&#45;&gt;Node7</title>
<path fill="none" stroke="midnightblue" d="M747.92,-168.08C755.35,-160.22 766.35,-148.57 775.31,-139.08"/>
<polygon fill="midnightblue" stroke="midnightblue" points="777.91,-141.42 782.24,-131.75 772.82,-136.62 777.91,-141.42"/>
</g>
<!-- Node16 -->
<g id="node16" class="node">
<title>Node16</title>
<g id="a_node16"><a xlink:href="TSQueue_8hpp.html" target="_top" xlink:title=" ">
<polygon fill="white" stroke="black" points="96.5,-112.5 96.5,-131.5 218.5,-131.5 218.5,-112.5 96.5,-112.5"/>
<text text-anchor="middle" x="157.5" y="-119.5" font-family="Helvetica,sans-Serif" font-size="10.00">Utilities/TSQueue.hpp</text>
</a>
</g>
</g>
<!-- Node3&#45;&gt;Node16 -->
<g id="edge18" class="edge">
<title>Node3&#45;&gt;Node16</title>
<path fill="none" stroke="midnightblue" d="M660.4,-169.66C546.59,-159.1 338.33,-139.78 228.94,-129.63"/>
<polygon fill="midnightblue" stroke="midnightblue" points="228.95,-126.11 218.67,-128.68 228.3,-133.08 228.95,-126.11"/>
</g>
<!-- Node7&#45;&gt;Node2 -->
<g id="edge13" class="edge">
<title>Node7&#45;&gt;Node2</title>
<path fill="none" stroke="midnightblue" d="M853.08,-113.18C906.13,-105.55 977.18,-92.67 1000.5,-76 1016.52,-64.54 1027.14,-44.26 1033.2,-29.4"/>
<polygon fill="midnightblue" stroke="midnightblue" points="1036.59,-30.32 1036.81,-19.73 1030.03,-27.87 1036.59,-30.32"/>
</g>
<!-- Node7&#45;&gt;Node5 -->
<g id="edge14" class="edge">
<title>Node7&#45;&gt;Node5</title>
<path fill="none" stroke="midnightblue" d="M727.68,-113.08C724.58,-112.71 721.5,-112.35 718.5,-112 572.09,-95.03 531.26,-103.52 382.17,-75.82"/>
<polygon fill="midnightblue" stroke="midnightblue" points="382.66,-72.36 372.19,-73.95 381.37,-79.24 382.66,-72.36"/>
</g>
<!-- Node8 -->
<g id="node8" class="node">
<title>Node8</title>
<g id="a_node8"><a xlink:href="BabelException_8hpp.html" target="_top" xlink:title=" ">
<polygon fill="white" stroke="black" points="390.5,-56.5 390.5,-75.5 560.5,-75.5 560.5,-56.5 390.5,-56.5"/>
<text text-anchor="middle" x="475.5" y="-63.5" font-family="Helvetica,sans-Serif" font-size="10.00">Exceptions/BabelException.hpp</text>
</a>
</g>
</g>
<!-- Node7&#45;&gt;Node8 -->
<g id="edge7" class="edge">
<title>Node7&#45;&gt;Node8</title>
<path fill="none" stroke="midnightblue" d="M740.59,-112.44C684.83,-102.89 594.61,-87.42 535.17,-77.23"/>
<polygon fill="midnightblue" stroke="midnightblue" points="535.63,-73.76 525.18,-75.52 534.44,-80.66 535.63,-73.76"/>
</g>
<!-- Node10 -->
<g id="node10" class="node">
<title>Node10</title>
<g id="a_node10"><a xlink:href="SwapEndian_8hpp.html" target="_top" xlink:title=" ">
<polygon fill="white" stroke="black" points="578.5,-56.5 578.5,-75.5 716.5,-75.5 716.5,-56.5 578.5,-56.5"/>
<text text-anchor="middle" x="647.5" y="-63.5" font-family="Helvetica,sans-Serif" font-size="10.00">Utilities/SwapEndian.hpp</text>
</a>
</g>
</g>
<!-- Node7&#45;&gt;Node10 -->
<g id="edge9" class="edge">
<title>Node7&#45;&gt;Node10</title>
<path fill="none" stroke="midnightblue" d="M767.84,-112.44C744.1,-103.48 706.59,-89.31 679.76,-79.18"/>
<polygon fill="midnightblue" stroke="midnightblue" points="680.64,-75.77 670.05,-75.52 678.17,-82.32 680.64,-75.77"/>
</g>
<!-- Node12 -->
<g id="node12" class="node">
<title>Node12</title>
<g id="a_node12"><a xlink:title=" ">
<polygon fill="white" stroke="#bfbfbf" points="734.5,-56.5 734.5,-75.5 784.5,-75.5 784.5,-56.5 734.5,-56.5"/>
<text text-anchor="middle" x="759.5" y="-63.5" font-family="Helvetica,sans-Serif" font-size="10.00">cstring</text>
</a>
</g>
</g>
<!-- Node7&#45;&gt;Node12 -->
<g id="edge12" class="edge">
<title>Node7&#45;&gt;Node12</title>
<path fill="none" stroke="midnightblue" d="M785.38,-112.08C781.09,-104.61 774.84,-93.72 769.56,-84.52"/>
<polygon fill="midnightblue" stroke="midnightblue" points="772.54,-82.68 764.52,-75.75 766.47,-86.17 772.54,-82.68"/>
</g>
<!-- Node13 -->
<g id="node13" class="node">
<title>Node13</title>
<g id="a_node13"><a xlink:title=" ">
<polygon fill="white" stroke="#bfbfbf" points="802.5,-56.5 802.5,-75.5 866.5,-75.5 866.5,-56.5 802.5,-56.5"/>
<text text-anchor="middle" x="834.5" y="-63.5" font-family="Helvetica,sans-Serif" font-size="10.00">algorithm</text>
</a>
</g>
</g>
<!-- Node7&#45;&gt;Node13 -->
<g id="edge15" class="edge">
<title>Node7&#45;&gt;Node13</title>
<path fill="none" stroke="midnightblue" d="M797.77,-112.08C804.04,-104.38 813.29,-93.03 820.93,-83.65"/>
<polygon fill="midnightblue" stroke="midnightblue" points="823.77,-85.71 827.37,-75.75 818.34,-81.29 823.77,-85.71"/>
</g>
<!-- Node14 -->
<g id="node14" class="node">
<title>Node14</title>
<g id="a_node14"><a xlink:title=" ">
<polygon fill="white" stroke="#bfbfbf" points="884.5,-56.5 884.5,-75.5 944.5,-75.5 944.5,-56.5 884.5,-56.5"/>
<text text-anchor="middle" x="914.5" y="-63.5" font-family="Helvetica,sans-Serif" font-size="10.00">iostream</text>
</a>
</g>
</g>
<!-- Node7&#45;&gt;Node14 -->
<g id="edge16" class="edge">
<title>Node7&#45;&gt;Node14</title>
<path fill="none" stroke="midnightblue" d="M810.15,-112.44C830.46,-103.6 862.4,-89.69 885.6,-79.59"/>
<polygon fill="midnightblue" stroke="midnightblue" points="887.17,-82.72 894.94,-75.52 884.38,-76.3 887.17,-82.72"/>
</g>
<!-- Node15 -->
<g id="node15" class="node">
<title>Node15</title>
<g id="a_node15"><a xlink:title=" ">
<polygon fill="white" stroke="#bfbfbf" points="963,-56.5 963,-75.5 992,-75.5 992,-56.5 963,-56.5"/>
<text text-anchor="middle" x="977.5" y="-63.5" font-family="Helvetica,sans-Serif" font-size="10.00">bit</text>
</a>
</g>
</g>
<!-- Node7&#45;&gt;Node15 -->
<g id="edge17" class="edge">
<title>Node7&#45;&gt;Node15</title>
<path fill="none" stroke="midnightblue" d="M824.79,-112.48C855.95,-104.54 903.35,-91.93 953.19,-75.88"/>
<polygon fill="midnightblue" stroke="midnightblue" points="954.43,-79.15 962.85,-72.73 952.26,-72.5 954.43,-79.15"/>
</g>
<!-- Node9 -->
<g id="node9" class="node">
<title>Node9</title>
<g id="a_node9"><a xlink:title=" ">
<polygon fill="white" stroke="#bfbfbf" points="443,-0.5 443,-19.5 508,-19.5 508,-0.5 443,-0.5"/>
<text text-anchor="middle" x="475.5" y="-7.5" font-family="Helvetica,sans-Serif" font-size="10.00">stdexcept</text>
</a>
</g>
</g>
<!-- Node8&#45;&gt;Node9 -->
<g id="edge8" class="edge">
<title>Node8&#45;&gt;Node9</title>
<path fill="none" stroke="midnightblue" d="M475.5,-56.08C475.5,-49.01 475.5,-38.86 475.5,-29.99"/>
<polygon fill="midnightblue" stroke="midnightblue" points="479,-29.75 475.5,-19.75 472,-29.75 479,-29.75"/>
</g>
<!-- Node10&#45;&gt;Node2 -->
<g id="edge11" class="edge">
<title>Node10&#45;&gt;Node2</title>
<path fill="none" stroke="midnightblue" d="M709.61,-56.44C792.81,-44.98 937.66,-25.03 1004.22,-15.86"/>
<polygon fill="midnightblue" stroke="midnightblue" points="1004.78,-19.32 1014.21,-14.48 1003.82,-12.38 1004.78,-19.32"/>
</g>
<!-- Node11 -->
<g id="node11" class="node">
<title>Node11</title>
<g id="a_node11"><a xlink:title=" ">
<polygon fill="white" stroke="#bfbfbf" points="622.5,-0.5 622.5,-19.5 672.5,-19.5 672.5,-0.5 622.5,-0.5"/>
<text text-anchor="middle" x="647.5" y="-7.5" font-family="Helvetica,sans-Serif" font-size="10.00">climits</text>
</a>
</g>
</g>
<!-- Node10&#45;&gt;Node11 -->
<g id="edge10" class="edge">
<title>Node10&#45;&gt;Node11</title>
<path fill="none" stroke="midnightblue" d="M647.5,-56.08C647.5,-49.01 647.5,-38.86 647.5,-29.99"/>
<polygon fill="midnightblue" stroke="midnightblue" points="651,-29.75 647.5,-19.75 644,-29.75 651,-29.75"/>
</g>
<!-- Node17 -->
<g id="node17" class="node">
<title>Node17</title>
<g id="a_node17"><a xlink:title=" ">
<polygon fill="white" stroke="#bfbfbf" points="133.5,-56.5 133.5,-75.5 181.5,-75.5 181.5,-56.5 133.5,-56.5"/>
<text text-anchor="middle" x="157.5" y="-63.5" font-family="Helvetica,sans-Serif" font-size="10.00">mutex</text>
</a>
</g>
</g>
<!-- Node16&#45;&gt;Node17 -->
<g id="edge19" class="edge">
<title>Node16&#45;&gt;Node17</title>
<path fill="none" stroke="midnightblue" d="M157.5,-112.08C157.5,-105.01 157.5,-94.86 157.5,-85.99"/>
<polygon fill="midnightblue" stroke="midnightblue" points="161,-85.75 157.5,-75.75 154,-85.75 161,-85.75"/>
</g>
<!-- Node18 -->
<g id="node18" class="node">
<title>Node18</title>
<g id="a_node18"><a xlink:title=" ">
<polygon fill="white" stroke="#bfbfbf" points="200,-56.5 200,-75.5 307,-75.5 307,-56.5 200,-56.5"/>
<text text-anchor="middle" x="253.5" y="-63.5" font-family="Helvetica,sans-Serif" font-size="10.00">condition_variable</text>
</a>
</g>
</g>
<!-- Node16&#45;&gt;Node18 -->
<g id="edge20" class="edge">
<title>Node16&#45;&gt;Node18</title>
<path fill="none" stroke="midnightblue" d="M172.92,-112.32C188.04,-103.82 211.32,-90.73 228.97,-80.8"/>
<polygon fill="midnightblue" stroke="midnightblue" points="231.11,-83.61 238.11,-75.65 227.68,-77.51 231.11,-83.61"/>
</g>
<!-- Node19 -->
<g id="node19" class="node">
<title>Node19</title>
<g id="a_node19"><a xlink:title=" ">
<polygon fill="white" stroke="#bfbfbf" points="0,-56.5 0,-75.5 47,-75.5 47,-56.5 0,-56.5"/>
<text text-anchor="middle" x="23.5" y="-63.5" font-family="Helvetica,sans-Serif" font-size="10.00">deque</text>
</a>
</g>
</g>
<!-- Node16&#45;&gt;Node19 -->
<g id="edge21" class="edge">
<title>Node16&#45;&gt;Node19</title>
<path fill="none" stroke="midnightblue" d="M136.27,-112.44C114.12,-103.52 79.18,-89.44 54.06,-79.32"/>
<polygon fill="midnightblue" stroke="midnightblue" points="55.22,-76.01 44.63,-75.52 52.6,-82.5 55.22,-76.01"/>
</g>
<!-- Node20 -->
<g id="node20" class="node">
<title>Node20</title>
<g id="a_node20"><a xlink:title=" ">
<polygon fill="white" stroke="#bfbfbf" points="65.5,-56.5 65.5,-75.5 115.5,-75.5 115.5,-56.5 65.5,-56.5"/>
<text text-anchor="middle" x="90.5" y="-63.5" font-family="Helvetica,sans-Serif" font-size="10.00">chrono</text>
</a>
</g>
</g>
<!-- Node16&#45;&gt;Node20 -->
<g id="edge22" class="edge">
<title>Node16&#45;&gt;Node20</title>
<path fill="none" stroke="midnightblue" d="M146.74,-112.32C136.73,-104.26 121.61,-92.08 109.57,-82.37"/>
<polygon fill="midnightblue" stroke="midnightblue" points="111.44,-79.38 101.46,-75.83 107.05,-84.83 111.44,-79.38"/>
</g>
<!-- Node21&#45;&gt;Node2 -->
<g id="edge24" class="edge">
<title>Node21&#45;&gt;Node2</title>
<path fill="none" stroke="midnightblue" d="M1143.63,-112.37C1124.65,-93.89 1079.86,-50.29 1055.67,-26.74"/>
<polygon fill="midnightblue" stroke="midnightblue" points="1057.93,-24.06 1048.33,-19.59 1053.05,-29.07 1057.93,-24.06"/>
</g>
</g>
</svg>
