<?xml version="1.0" encoding="UTF-8" standalone="no"?>
<!DOCTYPE svg PUBLIC "-//W3C//DTD SVG 1.1//EN"
 "http://www.w3.org/Graphics/SVG/1.1/DTD/svg11.dtd">
<!-- Generated by graphviz version 2.43.0 (0)
 -->
<!-- Title: Client/src/Network/QtTCPConnection.hpp Pages: 1 -->
<svg width="517pt" height="240pt"
 viewBox="0.00 0.00 516.50 240.00" xmlns="http://www.w3.org/2000/svg" xmlns:xlink="http://www.w3.org/1999/xlink">
<g id="graph0" class="graph" transform="scale(1 1) rotate(0) translate(4 236)">
<title>Client/src/Network/QtTCPConnection.hpp</title>
<polygon fill="white" stroke="transparent" points="-4,4 -4,-236 512.5,-236 512.5,4 -4,4"/>
<!-- Node1 -->
<g id="node1" class="node">
<title>Node1</title>
<g id="a_node1"><a xlink:title=" ">
<polygon fill="#bfbfbf" stroke="black" points="161.5,-201.5 161.5,-231.5 286.5,-231.5 286.5,-201.5 161.5,-201.5"/>
<text text-anchor="start" x="169.5" y="-219.5" font-family="Helvetica,sans-Serif" font-size="10.00">Client/src/Network</text>
<text text-anchor="middle" x="224" y="-208.5" font-family="Helvetica,sans-Serif" font-size="10.00">/QtTCPConnection.hpp</text>
</a>
</g>
</g>
<!-- Node2 -->
<g id="node2" class="node">
<title>Node2</title>
<g id="a_node2"><a xlink:href="Client_2src_2main_8cpp.html" target="_top" xlink:title=" ">
<polygon fill="white" stroke="black" points="0,-6 0,-25 110,-25 110,-6 0,-6"/>
<text text-anchor="middle" x="55" y="-13" font-family="Helvetica,sans-Serif" font-size="10.00">Client/src/main.cpp</text>
</a>
</g>
</g>
<!-- Node1&#45;&gt;Node2 -->
<g id="edge1" class="edge">
<title>Node1&#45;&gt;Node2</title>
<path fill="none" stroke="midnightblue" d="M172.16,-197.53C130.41,-179.74 75.43,-147.85 55,-98 44.91,-73.39 49.64,-40.97 52.86,-25.49"/>
<polygon fill="midnightblue" stroke="midnightblue" points="171.07,-200.86 181.65,-201.43 173.73,-194.39 171.07,-200.86"/>
</g>
<!-- Node3 -->
<g id="node3" class="node">
<title>Node3</title>
<g id="a_node3"><a xlink:href="HomePage_8hpp.html" target="_top" xlink:title=" ">
<polygon fill="white" stroke="black" points="64,-67.5 64,-97.5 174,-97.5 174,-67.5 64,-67.5"/>
<text text-anchor="start" x="72" y="-85.5" font-family="Helvetica,sans-Serif" font-size="10.00">Client/src/Windows</text>
<text text-anchor="middle" x="119" y="-74.5" font-family="Helvetica,sans-Serif" font-size="10.00">/HomePage.hpp</text>
</a>
</g>
</g>
<!-- Node1&#45;&gt;Node3 -->
<g id="edge2" class="edge">
<title>Node1&#45;&gt;Node3</title>
<path fill="none" stroke="midnightblue" d="M177.16,-196.88C162.68,-189.03 147.94,-178.51 138,-165 123.19,-144.87 119.7,-115 119.01,-97.57"/>
<polygon fill="midnightblue" stroke="midnightblue" points="175.59,-200.01 186.09,-201.43 178.77,-193.78 175.59,-200.01"/>
</g>
<!-- Node5 -->
<g id="node5" class="node">
<title>Node5</title>
<g id="a_node5"><a xlink:href="QtTCPConnection_8cpp.html" target="_top" xlink:title=" ">
<polygon fill="white" stroke="black" points="357,-134.5 357,-164.5 481,-164.5 481,-134.5 357,-134.5"/>
<text text-anchor="start" x="365" y="-152.5" font-family="Helvetica,sans-Serif" font-size="10.00">Client/src/Network</text>
<text text-anchor="middle" x="419" y="-141.5" font-family="Helvetica,sans-Serif" font-size="10.00">/QtTCPConnection.cpp</text>
</a>
</g>
</g>
<!-- Node1&#45;&gt;Node5 -->
<g id="edge5" class="edge">
<title>Node1&#45;&gt;Node5</title>
<path fill="none" stroke="midnightblue" d="M275.82,-198.23C307.36,-187.71 347.15,-174.45 376.77,-164.58"/>
<polygon fill="midnightblue" stroke="midnightblue" points="274.69,-194.91 266.31,-201.4 276.91,-201.55 274.69,-194.91"/>
</g>
<!-- Node6 -->
<g id="node6" class="node">
<title>Node6</title>
<g id="a_node6"><a xlink:href="SoundHandler_8cpp.html" target="_top" xlink:title=" ">
<polygon fill="white" stroke="black" points="355.5,-73 355.5,-92 508.5,-92 508.5,-73 355.5,-73"/>
<text text-anchor="middle" x="432" y="-80" font-family="Helvetica,sans-Serif" font-size="10.00">Client/src/SoundHandler.cpp</text>
</a>
</g>
</g>
<!-- Node1&#45;&gt;Node6 -->
<g id="edge6" class="edge">
<title>Node1&#45;&gt;Node6</title>
<path fill="none" stroke="midnightblue" d="M259.2,-196.45C275.07,-187.45 293.84,-176.24 310,-165 327.89,-152.56 330.17,-146.54 348,-134 370.83,-117.95 398.88,-101.74 416.1,-92.16"/>
<polygon fill="midnightblue" stroke="midnightblue" points="257.24,-193.54 250.23,-201.48 260.67,-199.64 257.24,-193.54"/>
</g>
<!-- Node7 -->
<g id="node7" class="node">
<title>Node7</title>
<g id="a_node7"><a xlink:href="SoundHandler_8hpp.html" target="_top" xlink:title=" ">
<polygon fill="white" stroke="black" points="147,-140 147,-159 301,-159 301,-140 147,-140"/>
<text text-anchor="middle" x="224" y="-147" font-family="Helvetica,sans-Serif" font-size="10.00">Client/src/SoundHandler.hpp</text>
</a>
</g>
</g>
<!-- Node1&#45;&gt;Node7 -->
<g id="edge7" class="edge">
<title>Node1&#45;&gt;Node7</title>
<path fill="none" stroke="midnightblue" d="M224,-191.25C224,-180.02 224,-167.38 224,-159.19"/>
<polygon fill="midnightblue" stroke="midnightblue" points="220.5,-191.4 224,-201.4 227.5,-191.4 220.5,-191.4"/>
</g>
<!-- Node3&#45;&gt;Node2 -->
<g id="edge3" class="edge">
<title>Node3&#45;&gt;Node2</title>
<path fill="none" stroke="midnightblue" d="M97.83,-60C86.15,-48.13 72.28,-34.05 63.56,-25.19"/>
<polygon fill="midnightblue" stroke="midnightblue" points="95.6,-62.73 105.11,-67.4 100.59,-57.81 95.6,-62.73"/>
</g>
<!-- Node4 -->
<g id="node4" class="node">
<title>Node4</title>
<g id="a_node4"><a xlink:href="HomePage_8cpp.html" target="_top" xlink:title=" ">
<polygon fill="white" stroke="black" points="137,-0.5 137,-30.5 247,-30.5 247,-0.5 137,-0.5"/>
<text text-anchor="start" x="145" y="-18.5" font-family="Helvetica,sans-Serif" font-size="10.00">Client/src/Windows</text>
<text text-anchor="middle" x="192" y="-7.5" font-family="Helvetica,sans-Serif" font-size="10.00">/HomePage.cpp</text>
</a>
</g>
</g>
<!-- Node3&#45;&gt;Node4 -->
<g id="edge4" class="edge">
<title>Node3&#45;&gt;Node4</title>
<path fill="none" stroke="midnightblue" d="M142.47,-60.6C153.5,-50.78 166.34,-39.34 176.19,-30.58"/>
<polygon fill="midnightblue" stroke="midnightblue" points="139.98,-58.13 134.84,-67.4 144.64,-63.36 139.98,-58.13"/>
</g>
<!-- Node7&#45;&gt;Node3 -->
<g id="edge8" class="edge">
<title>Node7&#45;&gt;Node3</title>
<path fill="none" stroke="midnightblue" d="M201.31,-134.45C183.7,-123.55 159.39,-108.5 141.76,-97.59"/>
<polygon fill="midnightblue" stroke="midnightblue" points="199.49,-137.45 209.84,-139.73 203.18,-131.49 199.49,-137.45"/>
</g>
<!-- Node7&#45;&gt;Node4 -->
<g id="edge11" class="edge">
<title>Node7&#45;&gt;Node4</title>
<path fill="none" stroke="midnightblue" d="M219.49,-129.89C213.03,-103.24 201.28,-54.8 195.46,-30.78"/>
<polygon fill="midnightblue" stroke="midnightblue" points="216.14,-130.95 221.9,-139.84 222.95,-129.3 216.14,-130.95"/>
</g>
<!-- Node7&#45;&gt;Node6 -->
<g id="edge10" class="edge">
<title>Node7&#45;&gt;Node6</title>
<path fill="none" stroke="midnightblue" d="M261.29,-136.85C302.49,-123.97 367.85,-103.55 404.6,-92.06"/>
<polygon fill="midnightblue" stroke="midnightblue" points="260.12,-133.55 251.62,-139.87 262.21,-140.23 260.12,-133.55"/>
</g>
<!-- Node8 -->
<g id="node8" class="node">
<title>Node8</title>
<g id="a_node8"><a xlink:href="UDPSocket_8cpp.html" target="_top" xlink:title=" ">
<polygon fill="white" stroke="black" points="230.5,-67.5 230.5,-97.5 337.5,-97.5 337.5,-67.5 230.5,-67.5"/>
<text text-anchor="start" x="238.5" y="-85.5" font-family="Helvetica,sans-Serif" font-size="10.00">Client/src/Network</text>
<text text-anchor="middle" x="284" y="-74.5" font-family="Helvetica,sans-Serif" font-size="10.00">/UDPSocket.cpp</text>
</a>
</g>
</g>
<!-- Node7&#45;&gt;Node8 -->
<g id="edge9" class="edge">
<title>Node7&#45;&gt;Node8</title>
<path fill="none" stroke="midnightblue" d="M238.95,-132.3C248.8,-121.63 261.57,-107.8 270.99,-97.59"/>
<polygon fill="midnightblue" stroke="midnightblue" points="236.3,-130.01 232.09,-139.73 241.45,-134.76 236.3,-130.01"/>
</g>
</g>
</svg>
