<?xml version="1.0" encoding="UTF-8" standalone="no"?>
<!DOCTYPE svg PUBLIC "-//W3C//DTD SVG 1.1//EN"
 "http://www.w3.org/Graphics/SVG/1.1/DTD/svg11.dtd">
<!-- Generated by graphviz version 2.43.0 (0)
 -->
<!-- Title: Common/Network/RFCCodes.hpp Pages: 1 -->
<svg width="1211pt" height="296pt"
 viewBox="0.00 0.00 1210.50 296.00" xmlns="http://www.w3.org/2000/svg" xmlns:xlink="http://www.w3.org/1999/xlink">
<g id="graph0" class="graph" transform="scale(1 1) rotate(0) translate(4 292)">
<title>Common/Network/RFCCodes.hpp</title>
<polygon fill="white" stroke="transparent" points="-4,4 -4,-292 1206.5,-292 1206.5,4 -4,4"/>
<!-- Node1 -->
<g id="node1" class="node">
<title>Node1</title>
<g id="a_node1"><a xlink:title=" ">
<polygon fill="#bfbfbf" stroke="black" points="574.5,-268.5 574.5,-287.5 753.5,-287.5 753.5,-268.5 574.5,-268.5"/>
<text text-anchor="middle" x="664" y="-275.5" font-family="Helvetica,sans-Serif" font-size="10.00">Common/Network/RFCCodes.hpp</text>
</a>
</g>
</g>
<!-- Node2 -->
<g id="node2" class="node">
<title>Node2</title>
<g id="a_node2"><a xlink:href="QtTCPConnection_8hpp.html" target="_top" xlink:title=" ">
<polygon fill="white" stroke="black" points="164.5,-201.5 164.5,-231.5 289.5,-231.5 289.5,-201.5 164.5,-201.5"/>
<text text-anchor="start" x="172.5" y="-219.5" font-family="Helvetica,sans-Serif" font-size="10.00">Client/src/Network</text>
<text text-anchor="middle" x="227" y="-208.5" font-family="Helvetica,sans-Serif" font-size="10.00">/QtTCPConnection.hpp</text>
</a>
</g>
</g>
<!-- Node1&#45;&gt;Node2 -->
<g id="edge1" class="edge">
<title>Node1&#45;&gt;Node2</title>
<path fill="none" stroke="midnightblue" d="M591.39,-267.11C507.16,-255.65 369.68,-236.93 289.85,-226.06"/>
<polygon fill="midnightblue" stroke="midnightblue" points="591.01,-270.59 601.39,-268.48 591.95,-263.66 591.01,-270.59"/>
</g>
<!-- Node5 -->
<g id="node5" class="node">
<title>Node5</title>
<g id="a_node5"><a xlink:href="HomePage_8cpp.html" target="_top" xlink:title=" ">
<polygon fill="white" stroke="black" points="355,-0.5 355,-30.5 465,-30.5 465,-0.5 355,-0.5"/>
<text text-anchor="start" x="363" y="-18.5" font-family="Helvetica,sans-Serif" font-size="10.00">Client/src/Windows</text>
<text text-anchor="middle" x="410" y="-7.5" font-family="Helvetica,sans-Serif" font-size="10.00">/HomePage.cpp</text>
</a>
</g>
</g>
<!-- Node1&#45;&gt;Node5 -->
<g id="edge15" class="edge">
<title>Node1&#45;&gt;Node5</title>
<path fill="none" stroke="midnightblue" d="M650.35,-260.38C632.48,-238.57 600.22,-199.06 573,-165 538.42,-121.73 537.72,-103.44 496,-67 479.18,-52.31 457.47,-39.6 440.08,-30.61"/>
<polygon fill="midnightblue" stroke="midnightblue" points="647.82,-262.81 656.87,-268.33 653.24,-258.37 647.82,-262.81"/>
</g>
<!-- Node7 -->
<g id="node7" class="node">
<title>Node7</title>
<g id="a_node7"><a xlink:href="SoundHandler_8cpp.html" target="_top" xlink:title=" ">
<polygon fill="white" stroke="black" points="333.5,-73 333.5,-92 486.5,-92 486.5,-73 333.5,-73"/>
<text text-anchor="middle" x="410" y="-80" font-family="Helvetica,sans-Serif" font-size="10.00">Client/src/SoundHandler.cpp</text>
</a>
</g>
</g>
<!-- Node1&#45;&gt;Node7 -->
<g id="edge13" class="edge">
<title>Node1&#45;&gt;Node7</title>
<path fill="none" stroke="midnightblue" d="M579.49,-266.23C552.45,-259.65 523.67,-249.06 501,-232 450.02,-193.63 421.26,-117.63 412.72,-92.1"/>
<polygon fill="midnightblue" stroke="midnightblue" points="578.84,-269.67 589.37,-268.47 580.39,-262.84 578.84,-269.67"/>
</g>
<!-- Node8 -->
<g id="node8" class="node">
<title>Node8</title>
<g id="a_node8"><a xlink:href="SoundHandler_8hpp.html" target="_top" xlink:title=" ">
<polygon fill="white" stroke="black" points="228,-140 228,-159 382,-159 382,-140 228,-140"/>
<text text-anchor="middle" x="305" y="-147" font-family="Helvetica,sans-Serif" font-size="10.00">Client/src/SoundHandler.hpp</text>
</a>
</g>
</g>
<!-- Node1&#45;&gt;Node8 -->
<g id="edge14" class="edge">
<title>Node1&#45;&gt;Node8</title>
<path fill="none" stroke="midnightblue" d="M586.16,-266.82C544.32,-259.85 492.35,-248.78 448,-232 396.15,-212.38 340.76,-175.69 316.98,-159.07"/>
<polygon fill="midnightblue" stroke="midnightblue" points="585.87,-270.31 596.3,-268.46 586.98,-263.4 585.87,-270.31"/>
</g>
<!-- Node10 -->
<g id="node10" class="node">
<title>Node10</title>
<g id="a_node10"><a xlink:href="Utilities_8hpp.html" target="_top" xlink:title=" ">
<polygon fill="white" stroke="black" points="582,-140 582,-159 746,-159 746,-140 582,-140"/>
<text text-anchor="middle" x="664" y="-147" font-family="Helvetica,sans-Serif" font-size="10.00">Common/Utilities/Utilities.hpp</text>
</a>
</g>
</g>
<!-- Node1&#45;&gt;Node10 -->
<g id="edge16" class="edge">
<title>Node1&#45;&gt;Node10</title>
<path fill="none" stroke="midnightblue" d="M664,-257.94C664,-230.12 664,-179.54 664,-159.26"/>
<polygon fill="midnightblue" stroke="midnightblue" points="660.5,-258.31 664,-268.31 667.5,-258.31 660.5,-258.31"/>
</g>
<!-- Node14 -->
<g id="node14" class="node">
<title>Node14</title>
<g id="a_node14"><a xlink:href="Call_8hpp.html" target="_top" xlink:title=" ">
<polygon fill="white" stroke="black" points="785,-207 785,-226 893,-226 893,-207 785,-207"/>
<text text-anchor="middle" x="839" y="-214" font-family="Helvetica,sans-Serif" font-size="10.00">Server/src/Call.hpp</text>
</a>
</g>
</g>
<!-- Node1&#45;&gt;Node14 -->
<g id="edge21" class="edge">
<title>Node1&#45;&gt;Node14</title>
<path fill="none" stroke="midnightblue" d="M698.61,-265.23C732.63,-253.67 783.72,-236.3 813.97,-226.01"/>
<polygon fill="midnightblue" stroke="midnightblue" points="697.41,-261.94 689.07,-268.48 699.67,-268.57 697.41,-261.94"/>
</g>
<!-- Node16 -->
<g id="node16" class="node">
<title>Node16</title>
<g id="a_node16"><a xlink:href="BabelServer_8hpp.html" target="_top" xlink:title=" ">
<polygon fill="white" stroke="black" points="765,-134.5 765,-164.5 875,-164.5 875,-134.5 765,-134.5"/>
<text text-anchor="start" x="773" y="-152.5" font-family="Helvetica,sans-Serif" font-size="10.00">Server/src/Network</text>
<text text-anchor="middle" x="820" y="-141.5" font-family="Helvetica,sans-Serif" font-size="10.00">/BabelServer.hpp</text>
</a>
</g>
</g>
<!-- Node1&#45;&gt;Node16 -->
<g id="edge32" class="edge">
<title>Node1&#45;&gt;Node16</title>
<path fill="none" stroke="midnightblue" d="M682.83,-261.73C713.29,-237.03 772.93,-188.67 802.51,-164.68"/>
<polygon fill="midnightblue" stroke="midnightblue" points="680.29,-259.29 674.72,-268.31 684.69,-264.73 680.29,-259.29"/>
</g>
<!-- Node18 -->
<g id="node18" class="node">
<title>Node18</title>
<g id="a_node18"><a xlink:href="Utils_8hpp.html" target="_top" xlink:title=" ">
<polygon fill="white" stroke="black" points="931.5,-201.5 931.5,-231.5 1038.5,-231.5 1038.5,-201.5 931.5,-201.5"/>
<text text-anchor="start" x="939.5" y="-219.5" font-family="Helvetica,sans-Serif" font-size="10.00">Server/src/Utilities</text>
<text text-anchor="middle" x="985" y="-208.5" font-family="Helvetica,sans-Serif" font-size="10.00">/Utils.hpp</text>
</a>
</g>
</g>
<!-- Node1&#45;&gt;Node18 -->
<g id="edge28" class="edge">
<title>Node1&#45;&gt;Node18</title>
<path fill="none" stroke="midnightblue" d="M719.96,-266.63C779.42,-255.61 872.76,-238.31 931.33,-227.45"/>
<polygon fill="midnightblue" stroke="midnightblue" points="719.19,-263.21 709.99,-268.48 720.46,-270.09 719.19,-263.21"/>
</g>
<!-- Node20 -->
<g id="node20" class="node">
<title>Node20</title>
<g id="a_node20"><a xlink:href="testsMessage_8cpp.html" target="_top" xlink:title=" ">
<polygon fill="white" stroke="black" points="1056.5,-201.5 1056.5,-231.5 1175.5,-231.5 1175.5,-201.5 1056.5,-201.5"/>
<text text-anchor="start" x="1064.5" y="-219.5" font-family="Helvetica,sans-Serif" font-size="10.00">Server/tests/Network</text>
<text text-anchor="middle" x="1116" y="-208.5" font-family="Helvetica,sans-Serif" font-size="10.00">/testsMessage.cpp</text>
</a>
</g>
</g>
<!-- Node1&#45;&gt;Node20 -->
<g id="edge33" class="edge">
<title>Node1&#45;&gt;Node20</title>
<path fill="none" stroke="midnightblue" d="M763.83,-267.88C841.54,-260.16 951.97,-247.83 1048,-232 1050.74,-231.55 1053.54,-231.06 1056.36,-230.55"/>
<polygon fill="midnightblue" stroke="midnightblue" points="763.17,-264.43 753.56,-268.89 763.86,-271.4 763.17,-264.43"/>
</g>
<!-- Node3 -->
<g id="node3" class="node">
<title>Node3</title>
<g id="a_node3"><a xlink:href="Client_2src_2main_8cpp.html" target="_top" xlink:title=" ">
<polygon fill="white" stroke="black" points="0,-6 0,-25 110,-25 110,-6 0,-6"/>
<text text-anchor="middle" x="55" y="-13" font-family="Helvetica,sans-Serif" font-size="10.00">Client/src/main.cpp</text>
</a>
</g>
</g>
<!-- Node2&#45;&gt;Node3 -->
<g id="edge2" class="edge">
<title>Node2&#45;&gt;Node3</title>
<path fill="none" stroke="midnightblue" d="M154.25,-205.05C124.59,-197.81 91.57,-185.59 67,-165 31.55,-135.29 22.19,-112.2 32,-67 35.39,-51.37 44.06,-34.78 49.73,-25.04"/>
<polygon fill="midnightblue" stroke="midnightblue" points="153.63,-208.5 164.16,-207.32 155.19,-201.68 153.63,-208.5"/>
</g>
<!-- Node4 -->
<g id="node4" class="node">
<title>Node4</title>
<g id="a_node4"><a xlink:href="HomePage_8hpp.html" target="_top" xlink:title=" ">
<polygon fill="white" stroke="black" points="41,-67.5 41,-97.5 151,-97.5 151,-67.5 41,-67.5"/>
<text text-anchor="start" x="49" y="-85.5" font-family="Helvetica,sans-Serif" font-size="10.00">Client/src/Windows</text>
<text text-anchor="middle" x="96" y="-74.5" font-family="Helvetica,sans-Serif" font-size="10.00">/HomePage.hpp</text>
</a>
</g>
</g>
<!-- Node2&#45;&gt;Node4 -->
<g id="edge3" class="edge">
<title>Node2&#45;&gt;Node4</title>
<path fill="none" stroke="midnightblue" d="M154.21,-209.08C125.32,-202.54 94.78,-189.75 77,-165 62.42,-144.71 76.01,-114.89 86.5,-97.51"/>
<polygon fill="midnightblue" stroke="midnightblue" points="153.85,-212.57 164.34,-211.14 155.24,-205.71 153.85,-212.57"/>
</g>
<!-- Node6 -->
<g id="node6" class="node">
<title>Node6</title>
<g id="a_node6"><a xlink:href="QtTCPConnection_8cpp.html" target="_top" xlink:title=" ">
<polygon fill="white" stroke="black" points="86,-134.5 86,-164.5 210,-164.5 210,-134.5 86,-134.5"/>
<text text-anchor="start" x="94" y="-152.5" font-family="Helvetica,sans-Serif" font-size="10.00">Client/src/Network</text>
<text text-anchor="middle" x="148" y="-141.5" font-family="Helvetica,sans-Serif" font-size="10.00">/QtTCPConnection.cpp</text>
</a>
</g>
</g>
<!-- Node2&#45;&gt;Node6 -->
<g id="edge6" class="edge">
<title>Node2&#45;&gt;Node6</title>
<path fill="none" stroke="midnightblue" d="M201.94,-194.88C189.94,-185.01 175.87,-173.43 165.11,-164.58"/>
<polygon fill="midnightblue" stroke="midnightblue" points="199.91,-197.75 209.86,-201.4 204.36,-192.34 199.91,-197.75"/>
</g>
<!-- Node2&#45;&gt;Node7 -->
<g id="edge7" class="edge">
<title>Node2&#45;&gt;Node7</title>
<path fill="none" stroke="midnightblue" d="M300.14,-209.23C332.13,-202.8 367.62,-190.07 391,-165 410.03,-144.6 411.2,-108.96 410.6,-92.41"/>
<polygon fill="midnightblue" stroke="midnightblue" points="299.11,-205.86 289.9,-211.1 300.36,-212.74 299.11,-205.86"/>
</g>
<!-- Node2&#45;&gt;Node8 -->
<g id="edge8" class="edge">
<title>Node2&#45;&gt;Node8</title>
<path fill="none" stroke="midnightblue" d="M251.99,-194.67C266.4,-182.67 283.74,-168.22 294.57,-159.19"/>
<polygon fill="midnightblue" stroke="midnightblue" points="249.37,-192.31 243.92,-201.4 253.85,-197.68 249.37,-192.31"/>
</g>
<!-- Node4&#45;&gt;Node3 -->
<g id="edge4" class="edge">
<title>Node4&#45;&gt;Node3</title>
<path fill="none" stroke="midnightblue" d="M81.58,-58.63C74.28,-47.07 65.86,-33.71 60.48,-25.19"/>
<polygon fill="midnightblue" stroke="midnightblue" points="78.81,-60.81 87.1,-67.4 84.73,-57.07 78.81,-60.81"/>
</g>
<!-- Node4&#45;&gt;Node5 -->
<g id="edge5" class="edge">
<title>Node4&#45;&gt;Node5</title>
<path fill="none" stroke="midnightblue" d="M161.12,-67C233.97,-51.54 306.22,-37.02 354.55,-27.43"/>
<polygon fill="midnightblue" stroke="midnightblue" points="160.36,-63.58 151.3,-69.09 161.81,-70.43 160.36,-63.58"/>
</g>
<!-- Node8&#45;&gt;Node4 -->
<g id="edge9" class="edge">
<title>Node8&#45;&gt;Node4</title>
<path fill="none" stroke="midnightblue" d="M267.3,-136.77C231.86,-125.75 178.78,-109.24 141.11,-97.53"/>
<polygon fill="midnightblue" stroke="midnightblue" points="266.66,-140.24 277.25,-139.87 268.74,-133.56 266.66,-140.24"/>
</g>
<!-- Node8&#45;&gt;Node5 -->
<g id="edge12" class="edge">
<title>Node8&#45;&gt;Node5</title>
<path fill="none" stroke="midnightblue" d="M305.54,-129.78C306.92,-112.04 311.34,-85.44 325,-67 337.06,-50.73 356.06,-38.73 373.04,-30.52"/>
<polygon fill="midnightblue" stroke="midnightblue" points="302.03,-129.81 305,-139.98 309.02,-130.18 302.03,-129.81"/>
</g>
<!-- Node8&#45;&gt;Node7 -->
<g id="edge11" class="edge">
<title>Node8&#45;&gt;Node7</title>
<path fill="none" stroke="midnightblue" d="M327.71,-134.44C348.5,-121.57 378.62,-102.93 396.06,-92.13"/>
<polygon fill="midnightblue" stroke="midnightblue" points="325.82,-131.49 319.16,-139.73 329.51,-137.45 325.82,-131.49"/>
</g>
<!-- Node9 -->
<g id="node9" class="node">
<title>Node9</title>
<g id="a_node9"><a xlink:href="UDPSocket_8cpp.html" target="_top" xlink:title=" ">
<polygon fill="white" stroke="black" points="169.5,-67.5 169.5,-97.5 276.5,-97.5 276.5,-67.5 169.5,-67.5"/>
<text text-anchor="start" x="177.5" y="-85.5" font-family="Helvetica,sans-Serif" font-size="10.00">Client/src/Network</text>
<text text-anchor="middle" x="223" y="-74.5" font-family="Helvetica,sans-Serif" font-size="10.00">/UDPSocket.cpp</text>
</a>
</g>
</g>
<!-- Node8&#45;&gt;Node9 -->
<g id="edge10" class="edge">
<title>Node8&#45;&gt;Node9</title>
<path fill="none" stroke="midnightblue" d="M285.75,-133.24C272.14,-122.45 254.04,-108.1 240.77,-97.59"/>
<polygon fill="midnightblue" stroke="midnightblue" points="283.93,-136.26 293.94,-139.73 288.28,-130.78 283.93,-136.26"/>
</g>
<!-- Node10&#45;&gt;Node5 -->
<g id="edge17" class="edge">
<title>Node10&#45;&gt;Node5</title>
<path fill="none" stroke="midnightblue" d="M637.94,-135.29C619.24,-125.55 593.65,-111.67 572,-98 552.08,-85.42 549.53,-78.56 529,-67 503.38,-52.57 472.82,-39.69 449.09,-30.54"/>
<polygon fill="midnightblue" stroke="midnightblue" points="636.53,-138.5 647.03,-139.98 639.75,-132.28 636.53,-138.5"/>
</g>
<!-- Node11 -->
<g id="node11" class="node">
<title>Node11</title>
<g id="a_node11"><a xlink:href="Utilities_8cpp.html" target="_top" xlink:title=" ">
<polygon fill="white" stroke="black" points="581,-73 581,-92 745,-92 745,-73 581,-73"/>
<text text-anchor="middle" x="663" y="-80" font-family="Helvetica,sans-Serif" font-size="10.00">Common/Utilities/Utilities.cpp</text>
</a>
</g>
</g>
<!-- Node10&#45;&gt;Node11 -->
<g id="edge18" class="edge">
<title>Node10&#45;&gt;Node11</title>
<path fill="none" stroke="midnightblue" d="M663.71,-129.54C663.52,-117.17 663.28,-101.62 663.13,-92.13"/>
<polygon fill="midnightblue" stroke="midnightblue" points="660.21,-129.79 663.87,-139.73 667.21,-129.68 660.21,-129.79"/>
</g>
<!-- Node12 -->
<g id="node12" class="node">
<title>Node12</title>
<g id="a_node12"><a xlink:href="Server_2src_2main_8cpp.html" target="_top" xlink:title=" ">
<polygon fill="white" stroke="black" points="763.5,-73 763.5,-92 876.5,-92 876.5,-73 763.5,-73"/>
<text text-anchor="middle" x="820" y="-80" font-family="Helvetica,sans-Serif" font-size="10.00">Server/src/main.cpp</text>
</a>
</g>
</g>
<!-- Node10&#45;&gt;Node12 -->
<g id="edge19" class="edge">
<title>Node10&#45;&gt;Node12</title>
<path fill="none" stroke="midnightblue" d="M694.12,-135.95C725.01,-123.08 772.23,-103.4 799.2,-92.17"/>
<polygon fill="midnightblue" stroke="midnightblue" points="692.6,-132.79 684.72,-139.87 695.29,-139.25 692.6,-132.79"/>
</g>
<!-- Node13 -->
<g id="node13" class="node">
<title>Node13</title>
<g id="a_node13"><a xlink:href="BabelServer_8cpp.html" target="_top" xlink:title=" ">
<polygon fill="white" stroke="black" points="1032,-67.5 1032,-97.5 1142,-97.5 1142,-67.5 1032,-67.5"/>
<text text-anchor="start" x="1040" y="-85.5" font-family="Helvetica,sans-Serif" font-size="10.00">Server/src/Network</text>
<text text-anchor="middle" x="1087" y="-74.5" font-family="Helvetica,sans-Serif" font-size="10.00">/BabelServer.cpp</text>
</a>
</g>
</g>
<!-- Node10&#45;&gt;Node13 -->
<g id="edge20" class="edge">
<title>Node10&#45;&gt;Node13</title>
<path fill="none" stroke="midnightblue" d="M727.01,-138.38C736.71,-136.88 746.62,-135.37 756,-134 874.48,-116.68 905.16,-119.25 1023,-98 1025.92,-97.47 1028.9,-96.91 1031.91,-96.31"/>
<polygon fill="midnightblue" stroke="midnightblue" points="726.34,-134.94 717,-139.94 727.42,-141.86 726.34,-134.94"/>
</g>
<!-- Node14&#45;&gt;Node13 -->
<g id="edge27" class="edge">
<title>Node14&#45;&gt;Node13</title>
<path fill="none" stroke="midnightblue" d="M853.79,-199.47C873.46,-178.44 907.56,-143.14 923,-134 941.59,-123 991.73,-108.26 1031.72,-97.54"/>
<polygon fill="midnightblue" stroke="midnightblue" points="851.04,-197.29 846.79,-206.99 856.16,-202.05 851.04,-197.29"/>
</g>
<!-- Node15 -->
<g id="node15" class="node">
<title>Node15</title>
<g id="a_node15"><a xlink:href="Call_8cpp.html" target="_top" xlink:title=" ">
<polygon fill="white" stroke="black" points="931.5,-140 931.5,-159 1038.5,-159 1038.5,-140 931.5,-140"/>
<text text-anchor="middle" x="985" y="-147" font-family="Helvetica,sans-Serif" font-size="10.00">Server/src/Call.cpp</text>
</a>
</g>
</g>
<!-- Node14&#45;&gt;Node15 -->
<g id="edge22" class="edge">
<title>Node14&#45;&gt;Node15</title>
<path fill="none" stroke="midnightblue" d="M867.57,-202.78C896.48,-189.91 940.4,-170.35 965.53,-159.17"/>
<polygon fill="midnightblue" stroke="midnightblue" points="866.1,-199.6 858.39,-206.87 868.95,-206 866.1,-199.6"/>
</g>
<!-- Node14&#45;&gt;Node16 -->
<g id="edge23" class="edge">
<title>Node14&#45;&gt;Node16</title>
<path fill="none" stroke="midnightblue" d="M833.61,-197.06C830.6,-186.75 826.9,-174.1 824.12,-164.59"/>
<polygon fill="midnightblue" stroke="midnightblue" points="830.27,-198.12 836.44,-206.73 836.99,-196.15 830.27,-198.12"/>
</g>
<!-- Node16&#45;&gt;Node12 -->
<g id="edge24" class="edge">
<title>Node16&#45;&gt;Node12</title>
<path fill="none" stroke="midnightblue" d="M820,-124.25C820,-113.02 820,-100.38 820,-92.19"/>
<polygon fill="midnightblue" stroke="midnightblue" points="816.5,-124.4 820,-134.4 823.5,-124.4 816.5,-124.4"/>
</g>
<!-- Node16&#45;&gt;Node13 -->
<g id="edge25" class="edge">
<title>Node16&#45;&gt;Node13</title>
<path fill="none" stroke="midnightblue" d="M885.26,-132.61C930.16,-121.68 989.16,-107.32 1031.75,-96.95"/>
<polygon fill="midnightblue" stroke="midnightblue" points="884.21,-129.27 875.32,-135.03 885.87,-136.07 884.21,-129.27"/>
</g>
<!-- Node17 -->
<g id="node17" class="node">
<title>Node17</title>
<g id="a_node17"><a xlink:href="testRequests_8cpp.html" target="_top" xlink:title=" ">
<polygon fill="white" stroke="black" points="894.5,-67.5 894.5,-97.5 1013.5,-97.5 1013.5,-67.5 894.5,-67.5"/>
<text text-anchor="start" x="902.5" y="-85.5" font-family="Helvetica,sans-Serif" font-size="10.00">Server/tests/Network</text>
<text text-anchor="middle" x="954" y="-74.5" font-family="Helvetica,sans-Serif" font-size="10.00">/testRequests.cpp</text>
</a>
</g>
</g>
<!-- Node16&#45;&gt;Node17 -->
<g id="edge26" class="edge">
<title>Node16&#45;&gt;Node17</title>
<path fill="none" stroke="midnightblue" d="M858.15,-129.99C879.39,-119.69 905.41,-107.07 924.98,-97.58"/>
<polygon fill="midnightblue" stroke="midnightblue" points="856.55,-126.88 849.08,-134.4 859.6,-133.18 856.55,-126.88"/>
</g>
<!-- Node18&#45;&gt;Node13 -->
<g id="edge30" class="edge">
<title>Node18&#45;&gt;Node13</title>
<path fill="none" stroke="midnightblue" d="M1015.55,-195.4C1026.75,-186.97 1038.9,-176.46 1048,-165 1064.67,-143.99 1076.47,-114.68 1082.47,-97.54"/>
<polygon fill="midnightblue" stroke="midnightblue" points="1013.28,-192.73 1007.23,-201.43 1017.38,-198.4 1013.28,-192.73"/>
</g>
<!-- Node18&#45;&gt;Node15 -->
<g id="edge29" class="edge">
<title>Node18&#45;&gt;Node15</title>
<path fill="none" stroke="midnightblue" d="M985,-191.25C985,-180.02 985,-167.38 985,-159.19"/>
<polygon fill="midnightblue" stroke="midnightblue" points="981.5,-191.4 985,-201.4 988.5,-191.4 981.5,-191.4"/>
</g>
<!-- Node19 -->
<g id="node19" class="node">
<title>Node19</title>
<g id="a_node19"><a xlink:href="Utils_8cpp.html" target="_top" xlink:title=" ">
<polygon fill="white" stroke="black" points="1095.5,-134.5 1095.5,-164.5 1202.5,-164.5 1202.5,-134.5 1095.5,-134.5"/>
<text text-anchor="start" x="1103.5" y="-152.5" font-family="Helvetica,sans-Serif" font-size="10.00">Server/src/Utilities</text>
<text text-anchor="middle" x="1149" y="-141.5" font-family="Helvetica,sans-Serif" font-size="10.00">/Utils.cpp</text>
</a>
</g>
</g>
<!-- Node18&#45;&gt;Node19 -->
<g id="edge31" class="edge">
<title>Node18&#45;&gt;Node19</title>
<path fill="none" stroke="midnightblue" d="M1029.96,-197.68C1056.26,-187.26 1089,-174.28 1113.48,-164.58"/>
<polygon fill="midnightblue" stroke="midnightblue" points="1028.59,-194.46 1020.59,-201.4 1031.17,-200.97 1028.59,-194.46"/>
</g>
</g>
</svg>
