<?xml version="1.0" encoding="UTF-8" standalone="no"?>
<!DOCTYPE svg PUBLIC "-//W3C//DTD SVG 1.1//EN"
 "http://www.w3.org/Graphics/SVG/1.1/DTD/svg11.dtd">
<!-- Generated by graphviz version 2.43.0 (0)
 -->
<!-- Title: Server/src/main.cpp Pages: 1 -->
<svg width="1664pt" height="420pt"
 viewBox="0.00 0.00 1664.00 420.00" xmlns="http://www.w3.org/2000/svg" xmlns:xlink="http://www.w3.org/1999/xlink">
<g id="graph0" class="graph" transform="scale(1 1) rotate(0) translate(4 416)">
<title>Server/src/main.cpp</title>
<polygon fill="white" stroke="transparent" points="-4,4 -4,-416 1660,-416 1660,4 -4,4"/>
<!-- Node1 -->
<g id="node1" class="node">
<title>Node1</title>
<g id="a_node1"><a xlink:title=" ">
<polygon fill="#bfbfbf" stroke="black" points="273.5,-392.5 273.5,-411.5 386.5,-411.5 386.5,-392.5 273.5,-392.5"/>
<text text-anchor="middle" x="330" y="-399.5" font-family="Helvetica,sans-Serif" font-size="10.00">Server/src/main.cpp</text>
</a>
</g>
</g>
<!-- Node2 -->
<g id="node2" class="node">
<title>Node2</title>
<g id="a_node2"><a xlink:title=" ">
<polygon fill="white" stroke="#bfbfbf" points="1588,-56.5 1588,-75.5 1648,-75.5 1648,-56.5 1588,-56.5"/>
<text text-anchor="middle" x="1618" y="-63.5" font-family="Helvetica,sans-Serif" font-size="10.00">iostream</text>
</a>
</g>
</g>
<!-- Node1&#45;&gt;Node2 -->
<g id="edge1" class="edge">
<title>Node1&#45;&gt;Node2</title>
<path fill="none" stroke="midnightblue" d="M386.55,-399.32C639.65,-391.43 1656,-355.72 1656,-291 1656,-291 1656,-291 1656,-177 1656,-142.81 1639.4,-105.76 1628.14,-84.57"/>
<polygon fill="midnightblue" stroke="midnightblue" points="1631.18,-82.83 1623.28,-75.77 1625.05,-86.22 1631.18,-82.83"/>
</g>
<!-- Node3 -->
<g id="node3" class="node">
<title>Node3</title>
<g id="a_node3"><a xlink:title=" ">
<polygon fill="white" stroke="#bfbfbf" points="543,-0.5 543,-19.5 593,-19.5 593,-0.5 543,-0.5"/>
<text text-anchor="middle" x="568" y="-7.5" font-family="Helvetica,sans-Serif" font-size="10.00">cstdint</text>
</a>
</g>
</g>
<!-- Node1&#45;&gt;Node3 -->
<g id="edge2" class="edge">
<title>Node1&#45;&gt;Node3</title>
<path fill="none" stroke="midnightblue" d="M273.27,-393.96C178.92,-380.66 0,-347.92 0,-291 0,-291 0,-291 0,-121 0,-11.93 408.76,-8.75 532.76,-10.3"/>
<polygon fill="midnightblue" stroke="midnightblue" points="532.81,-13.8 542.86,-10.44 532.91,-6.8 532.81,-13.8"/>
</g>
<!-- Node4 -->
<g id="node4" class="node">
<title>Node4</title>
<g id="a_node4"><a xlink:href="Utilities_8hpp.html" target="_top" xlink:title=" ">
<polygon fill="white" stroke="black" points="76.5,-224.5 76.5,-243.5 193.5,-243.5 193.5,-224.5 76.5,-224.5"/>
<text text-anchor="middle" x="135" y="-231.5" font-family="Helvetica,sans-Serif" font-size="10.00">Utilities/Utilities.hpp</text>
</a>
</g>
</g>
<!-- Node1&#45;&gt;Node4 -->
<g id="edge3" class="edge">
<title>Node1&#45;&gt;Node4</title>
<path fill="none" stroke="midnightblue" d="M310.63,-392.44C278.56,-377.51 213.82,-344.02 172,-300 159.03,-286.35 148.88,-267.3 142.52,-253.36"/>
<polygon fill="midnightblue" stroke="midnightblue" points="145.59,-251.65 138.41,-243.86 139.17,-254.43 145.59,-251.65"/>
</g>
<!-- Node17 -->
<g id="node17" class="node">
<title>Node17</title>
<g id="a_node17"><a xlink:href="BabelServer_8hpp.html" target="_top" xlink:title=" ">
<polygon fill="white" stroke="black" points="433,-336.5 433,-355.5 573,-355.5 573,-336.5 433,-336.5"/>
<text text-anchor="middle" x="503" y="-343.5" font-family="Helvetica,sans-Serif" font-size="10.00">Network/BabelServer.hpp</text>
</a>
</g>
</g>
<!-- Node1&#45;&gt;Node17 -->
<g id="edge20" class="edge">
<title>Node1&#45;&gt;Node17</title>
<path fill="none" stroke="midnightblue" d="M357.41,-392.44C386.77,-383.28 433.52,-368.69 466.1,-358.52"/>
<polygon fill="midnightblue" stroke="midnightblue" points="467.21,-361.84 475.72,-355.52 465.13,-355.16 467.21,-361.84"/>
</g>
<!-- Node5 -->
<g id="node5" class="node">
<title>Node5</title>
<g id="a_node5"><a xlink:title=" ">
<polygon fill="white" stroke="#bfbfbf" points="382,-112.5 382,-131.5 426,-131.5 426,-112.5 382,-112.5"/>
<text text-anchor="middle" x="404" y="-119.5" font-family="Helvetica,sans-Serif" font-size="10.00">string</text>
</a>
</g>
</g>
<!-- Node4&#45;&gt;Node5 -->
<g id="edge4" class="edge">
<title>Node4&#45;&gt;Node5</title>
<path fill="none" stroke="midnightblue" d="M132.63,-224.12C129.52,-210.23 125.97,-183.39 140,-168 170.58,-134.47 308.03,-125.91 371.58,-123.74"/>
<polygon fill="midnightblue" stroke="midnightblue" points="371.95,-127.23 381.83,-123.42 371.73,-120.23 371.95,-127.23"/>
</g>
<!-- Node6 -->
<g id="node6" class="node">
<title>Node6</title>
<g id="a_node6"><a xlink:title=" ">
<polygon fill="white" stroke="#bfbfbf" points="182,-168.5 182,-187.5 238,-187.5 238,-168.5 182,-168.5"/>
<text text-anchor="middle" x="210" y="-175.5" font-family="Helvetica,sans-Serif" font-size="10.00">sstream</text>
</a>
</g>
</g>
<!-- Node4&#45;&gt;Node6 -->
<g id="edge5" class="edge">
<title>Node4&#45;&gt;Node6</title>
<path fill="none" stroke="midnightblue" d="M147.05,-224.32C158.46,-216.11 175.83,-203.6 189.43,-193.81"/>
<polygon fill="midnightblue" stroke="midnightblue" points="191.66,-196.52 197.73,-187.83 187.57,-190.84 191.66,-196.52"/>
</g>
<!-- Node7 -->
<g id="node7" class="node">
<title>Node7</title>
<g id="a_node7"><a xlink:href="Message_8hpp.html" target="_top" xlink:title=" ">
<polygon fill="white" stroke="black" points="864.5,-112.5 864.5,-131.5 989.5,-131.5 989.5,-112.5 864.5,-112.5"/>
<text text-anchor="middle" x="927" y="-119.5" font-family="Helvetica,sans-Serif" font-size="10.00">Network/Message.hpp</text>
</a>
</g>
</g>
<!-- Node4&#45;&gt;Node7 -->
<g id="edge6" class="edge">
<title>Node4&#45;&gt;Node7</title>
<path fill="none" stroke="midnightblue" d="M137.19,-224.4C141.38,-209.89 152.06,-180.86 173,-168 187.4,-159.16 667.91,-135.36 854.21,-126.44"/>
<polygon fill="midnightblue" stroke="midnightblue" points="854.63,-129.92 864.45,-125.95 854.3,-122.93 854.63,-129.92"/>
</g>
<!-- Node16 -->
<g id="node16" class="node">
<title>Node16</title>
<g id="a_node16"><a xlink:href="RFCCodes_8hpp.html" target="_top" xlink:title=" ">
<polygon fill="white" stroke="black" points="256.5,-168.5 256.5,-187.5 387.5,-187.5 387.5,-168.5 256.5,-168.5"/>
<text text-anchor="middle" x="322" y="-175.5" font-family="Helvetica,sans-Serif" font-size="10.00">Network/RFCCodes.hpp</text>
</a>
</g>
</g>
<!-- Node4&#45;&gt;Node16 -->
<g id="edge18" class="edge">
<title>Node4&#45;&gt;Node16</title>
<path fill="none" stroke="midnightblue" d="M164.63,-224.44C196.5,-215.24 247.33,-200.56 282.56,-190.39"/>
<polygon fill="midnightblue" stroke="midnightblue" points="283.87,-193.65 292.51,-187.52 281.93,-186.93 283.87,-193.65"/>
</g>
<!-- Node7&#45;&gt;Node2 -->
<g id="edge16" class="edge">
<title>Node7&#45;&gt;Node2</title>
<path fill="none" stroke="midnightblue" d="M989.84,-119.96C1104.77,-117.33 1356.6,-108.25 1577.68,-75.96"/>
<polygon fill="midnightblue" stroke="midnightblue" points="1578.48,-79.38 1587.86,-74.45 1577.45,-72.45 1578.48,-79.38"/>
</g>
<!-- Node7&#45;&gt;Node3 -->
<g id="edge13" class="edge">
<title>Node7&#45;&gt;Node3</title>
<path fill="none" stroke="midnightblue" d="M876.42,-112.47C837.57,-105.1 782.96,-92.94 737,-76 718.72,-69.26 715.91,-63.65 698,-56 666.45,-42.53 629.37,-30.01 602.91,-21.61"/>
<polygon fill="midnightblue" stroke="midnightblue" points="603.91,-18.26 593.32,-18.6 601.81,-24.93 603.91,-18.26"/>
</g>
<!-- Node8 -->
<g id="node8" class="node">
<title>Node8</title>
<g id="a_node8"><a xlink:href="BabelException_8hpp.html" target="_top" xlink:title=" ">
<polygon fill="white" stroke="black" points="970,-56.5 970,-75.5 1140,-75.5 1140,-56.5 970,-56.5"/>
<text text-anchor="middle" x="1055" y="-63.5" font-family="Helvetica,sans-Serif" font-size="10.00">Exceptions/BabelException.hpp</text>
</a>
</g>
</g>
<!-- Node7&#45;&gt;Node8 -->
<g id="edge7" class="edge">
<title>Node7&#45;&gt;Node8</title>
<path fill="none" stroke="midnightblue" d="M947.28,-112.44C968.35,-103.56 1001.52,-89.56 1025.49,-79.45"/>
<polygon fill="midnightblue" stroke="midnightblue" points="1026.96,-82.63 1034.81,-75.52 1024.24,-76.18 1026.96,-82.63"/>
</g>
<!-- Node10 -->
<g id="node10" class="node">
<title>Node10</title>
<g id="a_node10"><a xlink:href="SwapEndian_8hpp.html" target="_top" xlink:title=" ">
<polygon fill="white" stroke="black" points="746,-56.5 746,-75.5 884,-75.5 884,-56.5 746,-56.5"/>
<text text-anchor="middle" x="815" y="-63.5" font-family="Helvetica,sans-Serif" font-size="10.00">Utilities/SwapEndian.hpp</text>
</a>
</g>
</g>
<!-- Node7&#45;&gt;Node10 -->
<g id="edge9" class="edge">
<title>Node7&#45;&gt;Node10</title>
<path fill="none" stroke="midnightblue" d="M909.01,-112.32C890.96,-103.62 862.95,-90.12 842.2,-80.11"/>
<polygon fill="midnightblue" stroke="midnightblue" points="843.48,-76.84 832.95,-75.65 840.44,-83.15 843.48,-76.84"/>
</g>
<!-- Node12 -->
<g id="node12" class="node">
<title>Node12</title>
<g id="a_node12"><a xlink:title=" ">
<polygon fill="white" stroke="#bfbfbf" points="902,-56.5 902,-75.5 952,-75.5 952,-56.5 902,-56.5"/>
<text text-anchor="middle" x="927" y="-63.5" font-family="Helvetica,sans-Serif" font-size="10.00">cstring</text>
</a>
</g>
</g>
<!-- Node7&#45;&gt;Node12 -->
<g id="edge12" class="edge">
<title>Node7&#45;&gt;Node12</title>
<path fill="none" stroke="midnightblue" d="M927,-112.08C927,-105.01 927,-94.86 927,-85.99"/>
<polygon fill="midnightblue" stroke="midnightblue" points="930.5,-85.75 927,-75.75 923.5,-85.75 930.5,-85.75"/>
</g>
<!-- Node13 -->
<g id="node13" class="node">
<title>Node13</title>
<g id="a_node13"><a xlink:title=" ">
<polygon fill="white" stroke="#bfbfbf" points="1158.5,-56.5 1158.5,-75.5 1205.5,-75.5 1205.5,-56.5 1158.5,-56.5"/>
<text text-anchor="middle" x="1182" y="-63.5" font-family="Helvetica,sans-Serif" font-size="10.00">vector</text>
</a>
</g>
</g>
<!-- Node7&#45;&gt;Node13 -->
<g id="edge14" class="edge">
<title>Node7&#45;&gt;Node13</title>
<path fill="none" stroke="midnightblue" d="M973.54,-112.5C1016.48,-104.44 1082.22,-91.58 1148.48,-76"/>
<polygon fill="midnightblue" stroke="midnightblue" points="1149.33,-79.39 1158.26,-73.68 1147.72,-72.58 1149.33,-79.39"/>
</g>
<!-- Node14 -->
<g id="node14" class="node">
<title>Node14</title>
<g id="a_node14"><a xlink:title=" ">
<polygon fill="white" stroke="#bfbfbf" points="449,-56.5 449,-75.5 513,-75.5 513,-56.5 449,-56.5"/>
<text text-anchor="middle" x="481" y="-63.5" font-family="Helvetica,sans-Serif" font-size="10.00">algorithm</text>
</a>
</g>
</g>
<!-- Node7&#45;&gt;Node14 -->
<g id="edge15" class="edge">
<title>Node7&#45;&gt;Node14</title>
<path fill="none" stroke="midnightblue" d="M864.05,-113.38C771.67,-102.19 601.84,-81.63 523.12,-72.1"/>
<polygon fill="midnightblue" stroke="midnightblue" points="523.43,-68.61 513.08,-70.88 522.58,-75.56 523.43,-68.61"/>
</g>
<!-- Node15 -->
<g id="node15" class="node">
<title>Node15</title>
<g id="a_node15"><a xlink:title=" ">
<polygon fill="white" stroke="#bfbfbf" points="660.5,-56.5 660.5,-75.5 689.5,-75.5 689.5,-56.5 660.5,-56.5"/>
<text text-anchor="middle" x="675" y="-63.5" font-family="Helvetica,sans-Serif" font-size="10.00">bit</text>
</a>
</g>
</g>
<!-- Node7&#45;&gt;Node15 -->
<g id="edge17" class="edge">
<title>Node7&#45;&gt;Node15</title>
<path fill="none" stroke="midnightblue" d="M877.07,-112.43C831.66,-104.28 762.93,-91.05 704,-76 702.53,-75.63 701.03,-75.22 699.51,-74.8"/>
<polygon fill="midnightblue" stroke="midnightblue" points="700.25,-71.37 689.67,-71.87 698.26,-78.08 700.25,-71.37"/>
</g>
<!-- Node9 -->
<g id="node9" class="node">
<title>Node9</title>
<g id="a_node9"><a xlink:title=" ">
<polygon fill="white" stroke="#bfbfbf" points="1022.5,-0.5 1022.5,-19.5 1087.5,-19.5 1087.5,-0.5 1022.5,-0.5"/>
<text text-anchor="middle" x="1055" y="-7.5" font-family="Helvetica,sans-Serif" font-size="10.00">stdexcept</text>
</a>
</g>
</g>
<!-- Node8&#45;&gt;Node9 -->
<g id="edge8" class="edge">
<title>Node8&#45;&gt;Node9</title>
<path fill="none" stroke="midnightblue" d="M1055,-56.08C1055,-49.01 1055,-38.86 1055,-29.99"/>
<polygon fill="midnightblue" stroke="midnightblue" points="1058.5,-29.75 1055,-19.75 1051.5,-29.75 1058.5,-29.75"/>
</g>
<!-- Node10&#45;&gt;Node3 -->
<g id="edge11" class="edge">
<title>Node10&#45;&gt;Node3</title>
<path fill="none" stroke="midnightblue" d="M775.86,-56.44C728.28,-46.04 648.71,-28.65 603.06,-18.66"/>
<polygon fill="midnightblue" stroke="midnightblue" points="603.55,-15.19 593.04,-16.47 602.06,-22.03 603.55,-15.19"/>
</g>
<!-- Node11 -->
<g id="node11" class="node">
<title>Node11</title>
<g id="a_node11"><a xlink:title=" ">
<polygon fill="white" stroke="#bfbfbf" points="790,-0.5 790,-19.5 840,-19.5 840,-0.5 790,-0.5"/>
<text text-anchor="middle" x="815" y="-7.5" font-family="Helvetica,sans-Serif" font-size="10.00">climits</text>
</a>
</g>
</g>
<!-- Node10&#45;&gt;Node11 -->
<g id="edge10" class="edge">
<title>Node10&#45;&gt;Node11</title>
<path fill="none" stroke="midnightblue" d="M815,-56.08C815,-49.01 815,-38.86 815,-29.99"/>
<polygon fill="midnightblue" stroke="midnightblue" points="818.5,-29.75 815,-19.75 811.5,-29.75 818.5,-29.75"/>
</g>
<!-- Node16&#45;&gt;Node3 -->
<g id="edge19" class="edge">
<title>Node16&#45;&gt;Node3</title>
<path fill="none" stroke="midnightblue" d="M328.06,-168.12C337.12,-155.14 355.03,-130.54 373,-112 400.01,-84.14 406.27,-75.19 440,-56 469.46,-39.24 506.25,-27.11 532.81,-19.69"/>
<polygon fill="midnightblue" stroke="midnightblue" points="534.07,-22.98 542.81,-16.99 532.24,-16.22 534.07,-22.98"/>
</g>
<!-- Node17&#45;&gt;Node2 -->
<g id="edge73" class="edge">
<title>Node17&#45;&gt;Node2</title>
<path fill="none" stroke="midnightblue" d="M573.17,-345.47C817.77,-346.18 1618,-340.46 1618,-235 1618,-235 1618,-235 1618,-177 1618,-144.95 1618,-107.64 1618,-85.75"/>
<polygon fill="midnightblue" stroke="midnightblue" points="1621.5,-85.56 1618,-75.56 1614.5,-85.56 1621.5,-85.56"/>
</g>
<!-- Node17&#45;&gt;Node5 -->
<g id="edge75" class="edge">
<title>Node17&#45;&gt;Node5</title>
<path fill="none" stroke="midnightblue" d="M432.93,-342.72C364.36,-338.83 266.86,-328.34 243,-300 237.28,-293.2 238.62,-287.74 243,-280 282.06,-210.93 352.79,-254.55 396,-188 404.8,-174.44 406.3,-155.89 405.88,-142.08"/>
<polygon fill="midnightblue" stroke="midnightblue" points="409.36,-141.55 405.21,-131.8 402.37,-142.01 409.36,-141.55"/>
</g>
<!-- Node17&#45;&gt;Node6 -->
<g id="edge78" class="edge">
<title>Node17&#45;&gt;Node6</title>
<path fill="none" stroke="midnightblue" d="M432.92,-344.33C355.54,-341.93 238.15,-332.81 210,-300 197.26,-285.16 203.06,-227.89 207.16,-197.77"/>
<polygon fill="midnightblue" stroke="midnightblue" points="210.65,-198.09 208.61,-187.7 203.72,-197.09 210.65,-198.09"/>
</g>
<!-- Node17&#45;&gt;Node7 -->
<g id="edge58" class="edge">
<title>Node17&#45;&gt;Node7</title>
<path fill="none" stroke="midnightblue" d="M573.11,-345.03C767.99,-344.59 1306.44,-339.76 1375,-300 1426.19,-270.31 1430.32,-244.78 1447,-188 1449.5,-179.47 1453.01,-174.55 1447,-168 1417.41,-135.74 1136.27,-126.54 1000.15,-123.97"/>
<polygon fill="midnightblue" stroke="midnightblue" points="999.88,-120.47 989.81,-123.78 999.75,-127.47 999.88,-120.47"/>
</g>
<!-- Node17&#45;&gt;Node14 -->
<g id="edge74" class="edge">
<title>Node17&#45;&gt;Node14</title>
<path fill="none" stroke="midnightblue" d="M512.04,-336.38C523.73,-324.14 541.74,-300.86 534,-280 526.65,-260.21 511.56,-263.3 503,-244 479.2,-190.32 478.59,-119.04 479.87,-85.69"/>
<polygon fill="midnightblue" stroke="midnightblue" points="483.37,-85.73 480.37,-75.57 476.38,-85.39 483.37,-85.73"/>
</g>
<!-- Node17&#45;&gt;Node16 -->
<g id="edge59" class="edge">
<title>Node17&#45;&gt;Node16</title>
<path fill="none" stroke="midnightblue" d="M432.91,-342.35C400.43,-337.39 364.01,-325.83 341,-300 315.74,-271.65 316.48,-223.97 319.23,-197.73"/>
<polygon fill="midnightblue" stroke="midnightblue" points="322.73,-197.98 320.51,-187.62 315.78,-197.1 322.73,-197.98"/>
</g>
<!-- Node18 -->
<g id="node18" class="node">
<title>Node18</title>
<g id="a_node18"><a xlink:href="AsioTCPServer_8hpp.html" target="_top" xlink:title=" ">
<polygon fill="white" stroke="black" points="1259.5,-280.5 1259.5,-299.5 1366.5,-299.5 1366.5,-280.5 1259.5,-280.5"/>
<text text-anchor="middle" x="1313" y="-287.5" font-family="Helvetica,sans-Serif" font-size="10.00">AsioTCPServer.hpp</text>
</a>
</g>
</g>
<!-- Node17&#45;&gt;Node18 -->
<g id="edge21" class="edge">
<title>Node17&#45;&gt;Node18</title>
<path fill="none" stroke="midnightblue" d="M573.11,-340.33C728.4,-329.97 1099.38,-305.24 1248.91,-295.27"/>
<polygon fill="midnightblue" stroke="midnightblue" points="1249.54,-298.74 1259.29,-294.58 1249.08,-291.75 1249.54,-298.74"/>
</g>
<!-- Node23 -->
<g id="node23" class="node">
<title>Node23</title>
<g id="a_node23"><a xlink:href="AsioTCPConnection_8hpp.html" target="_top" xlink:title=" ">
<polygon fill="white" stroke="black" points="753,-224.5 753,-243.5 929,-243.5 929,-224.5 753,-224.5"/>
<text text-anchor="middle" x="841" y="-231.5" font-family="Helvetica,sans-Serif" font-size="10.00">Network/AsioTCPConnection.hpp</text>
</a>
</g>
</g>
<!-- Node17&#45;&gt;Node23 -->
<g id="edge57" class="edge">
<title>Node17&#45;&gt;Node23</title>
<path fill="none" stroke="midnightblue" d="M573.03,-339.24C644.15,-332.43 748.7,-319.51 784,-300 804.23,-288.82 820.75,-267.56 830.71,-252.4"/>
<polygon fill="midnightblue" stroke="midnightblue" points="833.69,-254.23 836.03,-243.89 827.76,-250.52 833.69,-254.23"/>
</g>
<!-- Node24 -->
<g id="node24" class="node">
<title>Node24</title>
<g id="a_node24"><a xlink:title=" ">
<polygon fill="white" stroke="#bfbfbf" points="637.5,-112.5 637.5,-131.5 702.5,-131.5 702.5,-112.5 637.5,-112.5"/>
<text text-anchor="middle" x="670" y="-119.5" font-family="Helvetica,sans-Serif" font-size="10.00">functional</text>
</a>
</g>
</g>
<!-- Node17&#45;&gt;Node24 -->
<g id="edge66" class="edge">
<title>Node17&#45;&gt;Node24</title>
<path fill="none" stroke="midnightblue" d="M526.8,-336.36C544.44,-328.96 568.07,-316.82 584,-300 629.14,-252.31 654.98,-176.46 665.05,-141.62"/>
<polygon fill="midnightblue" stroke="midnightblue" points="668.46,-142.4 667.77,-131.83 661.72,-140.53 668.46,-142.4"/>
</g>
<!-- Node32 -->
<g id="node32" class="node">
<title>Node32</title>
<g id="a_node32"><a xlink:href="FreeList_8hpp.html" target="_top" xlink:title=" ">
<polygon fill="white" stroke="black" points="658.5,-280.5 658.5,-299.5 775.5,-299.5 775.5,-280.5 658.5,-280.5"/>
<text text-anchor="middle" x="717" y="-287.5" font-family="Helvetica,sans-Serif" font-size="10.00">Utilities/FreeList.hpp</text>
</a>
</g>
</g>
<!-- Node17&#45;&gt;Node32 -->
<g id="edge60" class="edge">
<title>Node17&#45;&gt;Node32</title>
<path fill="none" stroke="midnightblue" d="M536.91,-336.44C573.85,-327.12 633.05,-312.18 673.42,-302"/>
<polygon fill="midnightblue" stroke="midnightblue" points="674.41,-305.36 683.25,-299.52 672.7,-298.57 674.41,-305.36"/>
</g>
<!-- Node33 -->
<g id="node33" class="node">
<title>Node33</title>
<g id="a_node33"><a xlink:href="User_8hpp.html" target="_top" xlink:title=" ">
<polygon fill="white" stroke="black" points="28.5,-168.5 28.5,-187.5 87.5,-187.5 87.5,-168.5 28.5,-168.5"/>
<text text-anchor="middle" x="58" y="-175.5" font-family="Helvetica,sans-Serif" font-size="10.00">User.hpp</text>
</a>
</g>
</g>
<!-- Node17&#45;&gt;Node33 -->
<g id="edge62" class="edge">
<title>Node17&#45;&gt;Node33</title>
<path fill="none" stroke="midnightblue" d="M432.76,-339.6C370.67,-333.65 278.1,-321.87 200,-300 138.24,-282.71 106.07,-294.87 67,-244 56.93,-230.88 55.38,-211.74 55.94,-197.62"/>
<polygon fill="midnightblue" stroke="midnightblue" points="59.43,-197.83 56.71,-187.59 52.45,-197.29 59.43,-197.83"/>
</g>
<!-- Node34 -->
<g id="node34" class="node">
<title>Node34</title>
<g id="a_node34"><a xlink:title=" ">
<polygon fill="white" stroke="#bfbfbf" points="252,-280.5 252,-299.5 294,-299.5 294,-280.5 252,-280.5"/>
<text text-anchor="middle" x="273" y="-287.5" font-family="Helvetica,sans-Serif" font-size="10.00">array</text>
</a>
</g>
</g>
<!-- Node17&#45;&gt;Node34 -->
<g id="edge65" class="edge">
<title>Node17&#45;&gt;Node34</title>
<path fill="none" stroke="midnightblue" d="M464.82,-336.48C425.46,-327.64 362.34,-313.26 308,-300 306.73,-299.69 305.44,-299.37 304.13,-299.05"/>
<polygon fill="midnightblue" stroke="midnightblue" points="304.63,-295.56 294.08,-296.51 302.92,-302.35 304.63,-295.56"/>
</g>
<!-- Node35 -->
<g id="node35" class="node">
<title>Node35</title>
<g id="a_node35"><a xlink:href="Call_8hpp.html" target="_top" xlink:title=" ">
<polygon fill="white" stroke="black" points="512,-224.5 512,-243.5 568,-243.5 568,-224.5 512,-224.5"/>
<text text-anchor="middle" x="540" y="-231.5" font-family="Helvetica,sans-Serif" font-size="10.00">Call.hpp</text>
</a>
</g>
</g>
<!-- Node17&#45;&gt;Node35 -->
<g id="edge67" class="edge">
<title>Node17&#45;&gt;Node35</title>
<path fill="none" stroke="midnightblue" d="M524.81,-336.45C539.94,-329.22 558.95,-317.26 568,-300 576.42,-283.93 565.81,-264.77 555.33,-251.44"/>
<polygon fill="midnightblue" stroke="midnightblue" points="557.8,-248.95 548.65,-243.6 552.47,-253.49 557.8,-248.95"/>
</g>
<!-- Node36 -->
<g id="node36" class="node">
<title>Node36</title>
<g id="a_node36"><a xlink:title=" ">
<polygon fill="white" stroke="#bfbfbf" points="350,-280.5 350,-299.5 388,-299.5 388,-280.5 350,-280.5"/>
<text text-anchor="middle" x="369" y="-287.5" font-family="Helvetica,sans-Serif" font-size="10.00">map</text>
</a>
</g>
</g>
<!-- Node17&#45;&gt;Node36 -->
<g id="edge76" class="edge">
<title>Node17&#45;&gt;Node36</title>
<path fill="none" stroke="midnightblue" d="M481.77,-336.44C459.1,-327.31 423.03,-312.77 397.81,-302.61"/>
<polygon fill="midnightblue" stroke="midnightblue" points="398.98,-299.31 388.39,-298.82 396.36,-305.8 398.98,-299.31"/>
</g>
<!-- Node37 -->
<g id="node37" class="node">
<title>Node37</title>
<g id="a_node37"><a xlink:title=" ">
<polygon fill="white" stroke="#bfbfbf" points="406,-280.5 406,-299.5 462,-299.5 462,-280.5 406,-280.5"/>
<text text-anchor="middle" x="434" y="-287.5" font-family="Helvetica,sans-Serif" font-size="10.00">iomanip</text>
</a>
</g>
</g>
<!-- Node17&#45;&gt;Node37 -->
<g id="edge77" class="edge">
<title>Node17&#45;&gt;Node37</title>
<path fill="none" stroke="midnightblue" d="M491.91,-336.32C481.51,-328.18 465.74,-315.84 453.28,-306.09"/>
<polygon fill="midnightblue" stroke="midnightblue" points="455.32,-303.24 445.29,-299.83 451.01,-308.75 455.32,-303.24"/>
</g>
<!-- Node38 -->
<g id="node38" class="node">
<title>Node38</title>
<g id="a_node38"><a xlink:title=" ">
<polygon fill="white" stroke="#bfbfbf" points="480.5,-280.5 480.5,-299.5 525.5,-299.5 525.5,-280.5 480.5,-280.5"/>
<text text-anchor="middle" x="503" y="-287.5" font-family="Helvetica,sans-Serif" font-size="10.00">utility</text>
</a>
</g>
</g>
<!-- Node17&#45;&gt;Node38 -->
<g id="edge79" class="edge">
<title>Node17&#45;&gt;Node38</title>
<path fill="none" stroke="midnightblue" d="M503,-336.08C503,-329.01 503,-318.86 503,-309.99"/>
<polygon fill="midnightblue" stroke="midnightblue" points="506.5,-309.75 503,-299.75 499.5,-309.75 506.5,-309.75"/>
</g>
<!-- Node18&#45;&gt;Node2 -->
<g id="edge26" class="edge">
<title>Node18&#45;&gt;Node2</title>
<path fill="none" stroke="midnightblue" d="M1343.49,-280.38C1367.33,-272.86 1400.71,-260.55 1427,-244 1502.17,-196.7 1574.44,-117.77 1604,-83.6"/>
<polygon fill="midnightblue" stroke="midnightblue" points="1607.03,-85.44 1610.88,-75.57 1601.72,-80.89 1607.03,-85.44"/>
</g>
<!-- Node18&#45;&gt;Node3 -->
<g id="edge25" class="edge">
<title>Node18&#45;&gt;Node3</title>
<path fill="none" stroke="midnightblue" d="M1259.45,-289.33C1136.02,-289.35 835.13,-285.07 744,-244 648.81,-201.1 592.87,-76.42 574.63,-29.31"/>
<polygon fill="midnightblue" stroke="midnightblue" points="577.85,-27.92 571.06,-19.79 571.3,-30.38 577.85,-27.92"/>
</g>
<!-- Node19 -->
<g id="node19" class="node">
<title>Node19</title>
<g id="a_node19"><a xlink:title=" ">
<polygon fill="white" stroke="#bfbfbf" points="1380,-168.5 1380,-187.5 1438,-187.5 1438,-168.5 1380,-168.5"/>
<text text-anchor="middle" x="1409" y="-175.5" font-family="Helvetica,sans-Serif" font-size="10.00">memory</text>
</a>
</g>
</g>
<!-- Node18&#45;&gt;Node19 -->
<g id="edge22" class="edge">
<title>Node18&#45;&gt;Node19</title>
<path fill="none" stroke="midnightblue" d="M1330.66,-280.41C1345.21,-272.6 1365.56,-259.88 1379,-244 1390.53,-230.38 1398.57,-211.58 1403.4,-197.71"/>
<polygon fill="midnightblue" stroke="midnightblue" points="1406.85,-198.42 1406.59,-187.83 1400.19,-196.26 1406.85,-198.42"/>
</g>
<!-- Node20 -->
<g id="node20" class="node">
<title>Node20</title>
<g id="a_node20"><a xlink:title=" ">
<polygon fill="white" stroke="#bfbfbf" points="1522.5,-56.5 1522.5,-75.5 1569.5,-75.5 1569.5,-56.5 1522.5,-56.5"/>
<text text-anchor="middle" x="1546" y="-63.5" font-family="Helvetica,sans-Serif" font-size="10.00">deque</text>
</a>
</g>
</g>
<!-- Node18&#45;&gt;Node20 -->
<g id="edge23" class="edge">
<title>Node18&#45;&gt;Node20</title>
<path fill="none" stroke="midnightblue" d="M1350.06,-280.49C1373.91,-273.62 1404.53,-262.07 1427,-244 1482.96,-198.99 1522.43,-120.59 1538.28,-85.23"/>
<polygon fill="midnightblue" stroke="midnightblue" points="1541.63,-86.28 1542.43,-75.72 1535.22,-83.48 1541.63,-86.28"/>
</g>
<!-- Node21 -->
<g id="node21" class="node">
<title>Node21</title>
<g id="a_node21"><a xlink:title=" ">
<polygon fill="white" stroke="#bfbfbf" points="1289,-224.5 1289,-243.5 1337,-243.5 1337,-224.5 1289,-224.5"/>
<text text-anchor="middle" x="1313" y="-231.5" font-family="Helvetica,sans-Serif" font-size="10.00">thread</text>
</a>
</g>
</g>
<!-- Node18&#45;&gt;Node21 -->
<g id="edge24" class="edge">
<title>Node18&#45;&gt;Node21</title>
<path fill="none" stroke="midnightblue" d="M1313,-280.08C1313,-273.01 1313,-262.86 1313,-253.99"/>
<polygon fill="midnightblue" stroke="midnightblue" points="1316.5,-253.75 1313,-243.75 1309.5,-253.75 1316.5,-253.75"/>
</g>
<!-- Node22 -->
<g id="node22" class="node">
<title>Node22</title>
<g id="a_node22"><a xlink:title=" ">
<polygon fill="white" stroke="#bfbfbf" points="1152,-168.5 1152,-187.5 1210,-187.5 1210,-168.5 1152,-168.5"/>
<text text-anchor="middle" x="1181" y="-175.5" font-family="Helvetica,sans-Serif" font-size="10.00">asio.hpp</text>
</a>
</g>
</g>
<!-- Node18&#45;&gt;Node22 -->
<g id="edge27" class="edge">
<title>Node18&#45;&gt;Node22</title>
<path fill="none" stroke="midnightblue" d="M1323.18,-280.43C1337.4,-267.44 1359.98,-242.3 1346,-224 1330.82,-204.12 1264.14,-190.92 1220.34,-184.21"/>
<polygon fill="midnightblue" stroke="midnightblue" points="1220.68,-180.72 1210.28,-182.72 1219.66,-187.65 1220.68,-180.72"/>
</g>
<!-- Node18&#45;&gt;Node23 -->
<g id="edge28" class="edge">
<title>Node18&#45;&gt;Node23</title>
<path fill="none" stroke="midnightblue" d="M1259.32,-282.86C1177.87,-273.54 1022.36,-255.75 925.6,-244.68"/>
<polygon fill="midnightblue" stroke="midnightblue" points="925.89,-241.19 915.56,-243.53 925.09,-248.14 925.89,-241.19"/>
</g>
<!-- Node26 -->
<g id="node26" class="node">
<title>Node26</title>
<g id="a_node26"><a xlink:href="TSQueue_8hpp.html" target="_top" xlink:title=" ">
<polygon fill="white" stroke="black" points="1342,-112.5 1342,-131.5 1464,-131.5 1464,-112.5 1342,-112.5"/>
<text text-anchor="middle" x="1403" y="-119.5" font-family="Helvetica,sans-Serif" font-size="10.00">Utilities/TSQueue.hpp</text>
</a>
</g>
</g>
<!-- Node18&#45;&gt;Node26 -->
<g id="edge52" class="edge">
<title>Node18&#45;&gt;Node26</title>
<path fill="none" stroke="midnightblue" d="M1336.95,-280.5C1370.43,-267.02 1429.11,-237.14 1447,-188 1450.04,-179.65 1450.36,-176.23 1447,-168 1442.2,-156.23 1432.67,-145.86 1423.71,-138.05"/>
<polygon fill="midnightblue" stroke="midnightblue" points="1425.75,-135.2 1415.78,-131.63 1421.35,-140.64 1425.75,-135.2"/>
</g>
<!-- Node30 -->
<g id="node30" class="node">
<title>Node30</title>
<g id="a_node30"><a xlink:href="ITCPServer_8hpp.html" target="_top" xlink:title=" ">
<polygon fill="white" stroke="black" points="1137,-224.5 1137,-243.5 1271,-243.5 1271,-224.5 1137,-224.5"/>
<text text-anchor="middle" x="1204" y="-231.5" font-family="Helvetica,sans-Serif" font-size="10.00">Network/ITCPServer.hpp</text>
</a>
</g>
</g>
<!-- Node18&#45;&gt;Node30 -->
<g id="edge44" class="edge">
<title>Node18&#45;&gt;Node30</title>
<path fill="none" stroke="midnightblue" d="M1295.49,-280.32C1277.93,-271.62 1250.67,-258.12 1230.47,-248.11"/>
<polygon fill="midnightblue" stroke="midnightblue" points="1231.98,-244.96 1221.47,-243.65 1228.88,-251.23 1231.98,-244.96"/>
</g>
<!-- Node31 -->
<g id="node31" class="node">
<title>Node31</title>
<g id="a_node31"><a xlink:href="OwnedMessage_8hpp.html" target="_top" xlink:title=" ">
<polygon fill="white" stroke="black" points="959.5,-224.5 959.5,-243.5 1118.5,-243.5 1118.5,-224.5 959.5,-224.5"/>
<text text-anchor="middle" x="1039" y="-231.5" font-family="Helvetica,sans-Serif" font-size="10.00">Network/OwnedMessage.hpp</text>
</a>
</g>
</g>
<!-- Node18&#45;&gt;Node31 -->
<g id="edge53" class="edge">
<title>Node18&#45;&gt;Node31</title>
<path fill="none" stroke="midnightblue" d="M1269.58,-280.44C1221.48,-270.96 1143.91,-255.67 1092.19,-245.48"/>
<polygon fill="midnightblue" stroke="midnightblue" points="1092.7,-242.02 1082.21,-243.52 1091.35,-248.88 1092.7,-242.02"/>
</g>
<!-- Node23&#45;&gt;Node7 -->
<g id="edge43" class="edge">
<title>Node23&#45;&gt;Node7</title>
<path fill="none" stroke="midnightblue" d="M847.74,-224.13C857.3,-211.58 875.36,-187.94 891,-168 898.42,-158.54 906.82,-148.04 913.63,-139.56"/>
<polygon fill="midnightblue" stroke="midnightblue" points="916.5,-141.57 920.05,-131.59 911.05,-137.18 916.5,-141.57"/>
</g>
<!-- Node23&#45;&gt;Node10 -->
<g id="edge32" class="edge">
<title>Node23&#45;&gt;Node10</title>
<path fill="none" stroke="midnightblue" d="M839.6,-224.08C835.51,-197.95 823.49,-121.21 817.91,-85.58"/>
<polygon fill="midnightblue" stroke="midnightblue" points="821.35,-84.91 816.34,-75.57 814.43,-85.99 821.35,-84.91"/>
</g>
<!-- Node23&#45;&gt;Node15 -->
<g id="edge31" class="edge">
<title>Node23&#45;&gt;Node15</title>
<path fill="none" stroke="midnightblue" d="M832.08,-224.08C805.27,-197.27 725.19,-117.19 690.89,-82.89"/>
<polygon fill="midnightblue" stroke="midnightblue" points="693.11,-80.16 683.57,-75.57 688.16,-85.11 693.11,-80.16"/>
</g>
<!-- Node23&#45;&gt;Node22 -->
<g id="edge30" class="edge">
<title>Node23&#45;&gt;Node22</title>
<path fill="none" stroke="midnightblue" d="M894.87,-224.44C963.55,-213.54 1080.67,-194.93 1141.58,-185.26"/>
<polygon fill="midnightblue" stroke="midnightblue" points="1142.24,-188.7 1151.57,-183.67 1141.14,-181.79 1142.24,-188.7"/>
</g>
<!-- Node23&#45;&gt;Node24 -->
<g id="edge29" class="edge">
<title>Node23&#45;&gt;Node24</title>
<path fill="none" stroke="midnightblue" d="M817.69,-224.38C797.4,-216.38 767.64,-203.41 744,-188 722,-173.66 699.77,-153.14 685.5,-139.01"/>
<polygon fill="midnightblue" stroke="midnightblue" points="687.97,-136.53 678.44,-131.89 683,-141.46 687.97,-136.53"/>
</g>
<!-- Node25 -->
<g id="node25" class="node">
<title>Node25</title>
<g id="a_node25"><a xlink:href="ITCPConnection_8hpp.html" target="_top" xlink:title=" ">
<polygon fill="white" stroke="black" points="900,-168.5 900,-187.5 1058,-187.5 1058,-168.5 900,-168.5"/>
<text text-anchor="middle" x="979" y="-175.5" font-family="Helvetica,sans-Serif" font-size="10.00">Network/ITCPConnection.hpp</text>
</a>
</g>
</g>
<!-- Node23&#45;&gt;Node25 -->
<g id="edge33" class="edge">
<title>Node23&#45;&gt;Node25</title>
<path fill="none" stroke="midnightblue" d="M862.87,-224.44C885.78,-215.48 921.98,-201.31 947.87,-191.18"/>
<polygon fill="midnightblue" stroke="midnightblue" points="949.2,-194.42 957.24,-187.52 946.65,-187.9 949.2,-194.42"/>
</g>
<!-- Node25&#45;&gt;Node5 -->
<g id="edge34" class="edge">
<title>Node25&#45;&gt;Node5</title>
<path fill="none" stroke="midnightblue" d="M899.95,-169.58C772,-157.56 524.93,-134.36 436.48,-126.05"/>
<polygon fill="midnightblue" stroke="midnightblue" points="436.54,-122.54 426.26,-125.09 435.89,-129.51 436.54,-122.54"/>
</g>
<!-- Node25&#45;&gt;Node7 -->
<g id="edge37" class="edge">
<title>Node25&#45;&gt;Node7</title>
<path fill="none" stroke="midnightblue" d="M970.41,-168.08C962.84,-160.22 951.62,-148.57 942.49,-139.08"/>
<polygon fill="midnightblue" stroke="midnightblue" points="944.88,-136.53 935.43,-131.75 939.84,-141.38 944.88,-136.53"/>
</g>
<!-- Node25&#45;&gt;Node13 -->
<g id="edge35" class="edge">
<title>Node25&#45;&gt;Node13</title>
<path fill="none" stroke="midnightblue" d="M994.93,-168.37C1030.21,-149.25 1115.14,-103.23 1157.34,-80.36"/>
<polygon fill="midnightblue" stroke="midnightblue" points="1159.02,-83.43 1166.14,-75.59 1155.69,-77.28 1159.02,-83.43"/>
</g>
<!-- Node25&#45;&gt;Node24 -->
<g id="edge36" class="edge">
<title>Node25&#45;&gt;Node24</title>
<path fill="none" stroke="midnightblue" d="M930.04,-168.44C870.12,-157.97 769.64,-140.41 712.72,-130.47"/>
<polygon fill="midnightblue" stroke="midnightblue" points="713.07,-126.97 702.62,-128.7 711.87,-133.87 713.07,-126.97"/>
</g>
<!-- Node25&#45;&gt;Node26 -->
<g id="edge38" class="edge">
<title>Node25&#45;&gt;Node26</title>
<path fill="none" stroke="midnightblue" d="M1046.18,-168.44C1124.22,-158.5 1252.41,-142.18 1332.03,-132.04"/>
<polygon fill="midnightblue" stroke="midnightblue" points="1332.5,-135.51 1341.98,-130.77 1331.61,-128.56 1332.5,-135.51"/>
</g>
<!-- Node26&#45;&gt;Node20 -->
<g id="edge41" class="edge">
<title>Node26&#45;&gt;Node20</title>
<path fill="none" stroke="midnightblue" d="M1425.66,-112.44C1449.4,-103.48 1486.91,-89.31 1513.74,-79.18"/>
<polygon fill="midnightblue" stroke="midnightblue" points="1515.33,-82.32 1523.45,-75.52 1512.86,-75.77 1515.33,-82.32"/>
</g>
<!-- Node27 -->
<g id="node27" class="node">
<title>Node27</title>
<g id="a_node27"><a xlink:title=" ">
<polygon fill="white" stroke="#bfbfbf" points="1331,-56.5 1331,-75.5 1379,-75.5 1379,-56.5 1331,-56.5"/>
<text text-anchor="middle" x="1355" y="-63.5" font-family="Helvetica,sans-Serif" font-size="10.00">mutex</text>
</a>
</g>
</g>
<!-- Node26&#45;&gt;Node27 -->
<g id="edge39" class="edge">
<title>Node26&#45;&gt;Node27</title>
<path fill="none" stroke="midnightblue" d="M1395.07,-112.08C1388.15,-104.3 1377.93,-92.8 1369.55,-83.37"/>
<polygon fill="midnightblue" stroke="midnightblue" points="1372.04,-80.9 1362.78,-75.75 1366.81,-85.55 1372.04,-80.9"/>
</g>
<!-- Node28 -->
<g id="node28" class="node">
<title>Node28</title>
<g id="a_node28"><a xlink:title=" ">
<polygon fill="white" stroke="#bfbfbf" points="1397.5,-56.5 1397.5,-75.5 1504.5,-75.5 1504.5,-56.5 1397.5,-56.5"/>
<text text-anchor="middle" x="1451" y="-63.5" font-family="Helvetica,sans-Serif" font-size="10.00">condition_variable</text>
</a>
</g>
</g>
<!-- Node26&#45;&gt;Node28 -->
<g id="edge40" class="edge">
<title>Node26&#45;&gt;Node28</title>
<path fill="none" stroke="midnightblue" d="M1410.93,-112.08C1417.85,-104.3 1428.07,-92.8 1436.45,-83.37"/>
<polygon fill="midnightblue" stroke="midnightblue" points="1439.19,-85.55 1443.22,-75.75 1433.96,-80.9 1439.19,-85.55"/>
</g>
<!-- Node29 -->
<g id="node29" class="node">
<title>Node29</title>
<g id="a_node29"><a xlink:title=" ">
<polygon fill="white" stroke="#bfbfbf" points="1263,-56.5 1263,-75.5 1313,-75.5 1313,-56.5 1263,-56.5"/>
<text text-anchor="middle" x="1288" y="-63.5" font-family="Helvetica,sans-Serif" font-size="10.00">chrono</text>
</a>
</g>
</g>
<!-- Node26&#45;&gt;Node29 -->
<g id="edge42" class="edge">
<title>Node26&#45;&gt;Node29</title>
<path fill="none" stroke="midnightblue" d="M1384.78,-112.44C1366.1,-103.68 1336.84,-89.94 1315.38,-79.86"/>
<polygon fill="midnightblue" stroke="midnightblue" points="1316.68,-76.6 1306.14,-75.52 1313.7,-82.93 1316.68,-76.6"/>
</g>
<!-- Node30&#45;&gt;Node3 -->
<g id="edge45" class="edge">
<title>Node30&#45;&gt;Node3</title>
<path fill="none" stroke="midnightblue" d="M1218.08,-224.26C1229.35,-216.35 1244.35,-203.58 1251,-188 1269.98,-143.55 1273.83,-102.5 1214,-56 1189.72,-37.13 734.85,-17.64 603.33,-12.38"/>
<polygon fill="midnightblue" stroke="midnightblue" points="603.16,-8.87 593.03,-11.97 602.88,-15.86 603.16,-8.87"/>
</g>
<!-- Node30&#45;&gt;Node5 -->
<g id="edge47" class="edge">
<title>Node30&#45;&gt;Node5</title>
<path fill="none" stroke="midnightblue" d="M1141.89,-224.46C981.35,-202.39 556.76,-144 436.28,-127.44"/>
<polygon fill="midnightblue" stroke="midnightblue" points="436.61,-123.95 426.22,-126.06 435.65,-130.89 436.61,-123.95"/>
</g>
<!-- Node30&#45;&gt;Node7 -->
<g id="edge49" class="edge">
<title>Node30&#45;&gt;Node7</title>
<path fill="none" stroke="midnightblue" d="M1210.18,-224.31C1219.05,-210.68 1232.87,-184.18 1219,-168 1191.32,-135.72 1077,-126.38 999.89,-123.8"/>
<polygon fill="midnightblue" stroke="midnightblue" points="999.84,-120.3 989.74,-123.49 999.63,-127.3 999.84,-120.3"/>
</g>
<!-- Node30&#45;&gt;Node13 -->
<g id="edge48" class="edge">
<title>Node30&#45;&gt;Node13</title>
<path fill="none" stroke="midnightblue" d="M1212.75,-224.29C1220.56,-215.84 1231.45,-202.25 1236,-188 1238.7,-179.53 1238.16,-176.62 1236,-168 1227.99,-136.01 1207.69,-103.08 1194.39,-83.85"/>
<polygon fill="midnightblue" stroke="midnightblue" points="1197.15,-81.7 1188.51,-75.58 1191.45,-85.75 1197.15,-81.7"/>
</g>
<!-- Node30&#45;&gt;Node19 -->
<g id="edge46" class="edge">
<title>Node30&#45;&gt;Node19</title>
<path fill="none" stroke="midnightblue" d="M1236.48,-224.44C1272.76,-214.89 1331.44,-199.43 1370.12,-189.24"/>
<polygon fill="midnightblue" stroke="midnightblue" points="1371.21,-192.58 1379.98,-186.64 1369.42,-185.81 1371.21,-192.58"/>
</g>
<!-- Node30&#45;&gt;Node25 -->
<g id="edge51" class="edge">
<title>Node30&#45;&gt;Node25</title>
<path fill="none" stroke="midnightblue" d="M1168.35,-224.44C1129.34,-215.08 1066.73,-200.06 1024.28,-189.87"/>
<polygon fill="midnightblue" stroke="midnightblue" points="1025.03,-186.45 1014.49,-187.52 1023.39,-193.25 1025.03,-186.45"/>
</g>
<!-- Node30&#45;&gt;Node26 -->
<g id="edge50" class="edge">
<title>Node30&#45;&gt;Node26</title>
<path fill="none" stroke="midnightblue" d="M1237.57,-224.44C1263.39,-217.02 1299.37,-204.82 1328,-188 1351.07,-174.45 1373.74,-153.43 1388.01,-138.98"/>
<polygon fill="midnightblue" stroke="midnightblue" points="1390.6,-141.35 1395.03,-131.72 1385.56,-136.48 1390.6,-141.35"/>
</g>
<!-- Node31&#45;&gt;Node2 -->
<g id="edge54" class="edge">
<title>Node31&#45;&gt;Node2</title>
<path fill="none" stroke="midnightblue" d="M1049.11,-224.45C1066.82,-210.02 1105.18,-181.11 1143,-168 1282.4,-119.69 1330.61,-170.65 1473,-132 1517.54,-119.91 1565.78,-95.87 1593.87,-80.65"/>
<polygon fill="midnightblue" stroke="midnightblue" points="1595.85,-83.56 1602.93,-75.68 1592.48,-77.43 1595.85,-83.56"/>
</g>
<!-- Node31&#45;&gt;Node7 -->
<g id="edge55" class="edge">
<title>Node31&#45;&gt;Node7</title>
<path fill="none" stroke="midnightblue" d="M1047.97,-224.38C1060.46,-211.3 1080.17,-186.07 1067,-168 1051.33,-146.51 1025.24,-135.06 999.79,-129.03"/>
<polygon fill="midnightblue" stroke="midnightblue" points="1000.22,-125.55 989.72,-126.91 998.78,-132.4 1000.22,-125.55"/>
</g>
<!-- Node31&#45;&gt;Node25 -->
<g id="edge56" class="edge">
<title>Node31&#45;&gt;Node25</title>
<path fill="none" stroke="midnightblue" d="M1029.36,-224.32C1020.49,-216.34 1007.13,-204.31 996.39,-194.65"/>
<polygon fill="midnightblue" stroke="midnightblue" points="998.59,-191.92 988.82,-187.83 993.91,-197.13 998.59,-191.92"/>
</g>
<!-- Node32&#45;&gt;Node24 -->
<g id="edge61" class="edge">
<title>Node32&#45;&gt;Node24</title>
<path fill="none" stroke="midnightblue" d="M714.47,-280.08C707.07,-253.95 685.35,-177.21 675.26,-141.58"/>
<polygon fill="midnightblue" stroke="midnightblue" points="678.52,-140.24 672.43,-131.57 671.78,-142.14 678.52,-140.24"/>
</g>
<!-- Node33&#45;&gt;Node3 -->
<g id="edge64" class="edge">
<title>Node33&#45;&gt;Node3</title>
<path fill="none" stroke="midnightblue" d="M81.04,-168.42C136.58,-147.85 282.36,-94.62 406,-56 449.37,-42.45 499.89,-28.74 532.83,-20.08"/>
<polygon fill="midnightblue" stroke="midnightblue" points="534.09,-23.37 542.88,-17.45 532.32,-16.59 534.09,-23.37"/>
</g>
<!-- Node33&#45;&gt;Node5 -->
<g id="edge63" class="edge">
<title>Node33&#45;&gt;Node5</title>
<path fill="none" stroke="midnightblue" d="M87.78,-170.68C92.53,-169.74 97.39,-168.81 102,-168 199.88,-150.71 316.39,-134.61 371.73,-127.23"/>
<polygon fill="midnightblue" stroke="midnightblue" points="372.5,-130.66 381.96,-125.87 371.58,-123.72 372.5,-130.66"/>
</g>
<!-- Node35&#45;&gt;Node5 -->
<g id="edge69" class="edge">
<title>Node35&#45;&gt;Node5</title>
<path fill="none" stroke="midnightblue" d="M529.33,-224.37C506.29,-205.73 451.64,-161.53 422.71,-138.13"/>
<polygon fill="midnightblue" stroke="midnightblue" points="424.6,-135.16 414.62,-131.59 420.2,-140.6 424.6,-135.16"/>
</g>
<!-- Node35&#45;&gt;Node7 -->
<g id="edge70" class="edge">
<title>Node35&#45;&gt;Node7</title>
<path fill="none" stroke="midnightblue" d="M568.14,-225C635.89,-205.74 808.25,-156.75 886.84,-134.41"/>
<polygon fill="midnightblue" stroke="midnightblue" points="888.18,-137.67 896.84,-131.57 886.27,-130.94 888.18,-137.67"/>
</g>
<!-- Node35&#45;&gt;Node13 -->
<g id="edge68" class="edge">
<title>Node35&#45;&gt;Node13</title>
<path fill="none" stroke="midnightblue" d="M543.27,-224.26C552.45,-201.08 580.96,-138.04 628,-112 726.86,-57.28 1018.63,-93.34 1148.17,-75.62"/>
<polygon fill="midnightblue" stroke="midnightblue" points="1148.98,-79.03 1158.33,-74.06 1147.92,-72.11 1148.98,-79.03"/>
</g>
<!-- Node35&#45;&gt;Node16 -->
<g id="edge71" class="edge">
<title>Node35&#45;&gt;Node16</title>
<path fill="none" stroke="midnightblue" d="M511.95,-226.05C475.03,-216.91 409.74,-200.73 366.17,-189.94"/>
<polygon fill="midnightblue" stroke="midnightblue" points="366.95,-186.53 356.41,-187.52 365.27,-193.32 366.95,-186.53"/>
</g>
<!-- Node35&#45;&gt;Node25 -->
<g id="edge72" class="edge">
<title>Node35&#45;&gt;Node25</title>
<path fill="none" stroke="midnightblue" d="M568.13,-229.54C633.99,-221.44 800.18,-201 899.85,-188.74"/>
<polygon fill="midnightblue" stroke="midnightblue" points="900.38,-192.2 909.88,-187.5 899.53,-185.25 900.38,-192.2"/>
</g>
</g>
</svg>
