<?xml version="1.0" encoding="UTF-8" standalone="no"?>
<!DOCTYPE svg PUBLIC "-//W3C//DTD SVG 1.1//EN"
 "http://www.w3.org/Graphics/SVG/1.1/DTD/svg11.dtd">
<!-- Generated by graphviz version 2.43.0 (0)
 -->
<!-- Title: Client/src/SoundHandler.cpp Pages: 1 -->
<svg width="2034pt" height="364pt"
 viewBox="0.00 0.00 2034.00 364.00" xmlns="http://www.w3.org/2000/svg" xmlns:xlink="http://www.w3.org/1999/xlink">
<g id="graph0" class="graph" transform="scale(1 1) rotate(0) translate(4 360)">
<title>Client/src/SoundHandler.cpp</title>
<polygon fill="white" stroke="transparent" points="-4,4 -4,-360 2030,-360 2030,4 -4,4"/>
<!-- Node1 -->
<g id="node1" class="node">
<title>Node1</title>
<g id="a_node1"><a xlink:title=" ">
<polygon fill="#bfbfbf" stroke="black" points="1267,-336.5 1267,-355.5 1420,-355.5 1420,-336.5 1267,-336.5"/>
<text text-anchor="middle" x="1343.5" y="-343.5" font-family="Helvetica,sans-Serif" font-size="10.00">Client/src/SoundHandler.cpp</text>
</a>
</g>
</g>
<!-- Node2 -->
<g id="node2" class="node">
<title>Node2</title>
<g id="a_node2"><a xlink:href="NetworkException_8hpp.html" target="_top" xlink:title=" ">
<polygon fill="white" stroke="black" points="0,-168.5 0,-187.5 171,-187.5 171,-168.5 0,-168.5"/>
<text text-anchor="middle" x="85.5" y="-175.5" font-family="Helvetica,sans-Serif" font-size="10.00">Network/NetworkException.hpp</text>
</a>
</g>
</g>
<!-- Node1&#45;&gt;Node2 -->
<g id="edge1" class="edge">
<title>Node1&#45;&gt;Node2</title>
<path fill="none" stroke="midnightblue" d="M1266.91,-337.37C1184.29,-328.97 1048.94,-314.69 932.5,-300 640.64,-263.18 293.44,-210.92 151.2,-189.14"/>
<polygon fill="midnightblue" stroke="midnightblue" points="151.33,-185.61 140.91,-187.56 150.27,-192.53 151.33,-185.61"/>
</g>
<!-- Node6 -->
<g id="node6" class="node">
<title>Node6</title>
<g id="a_node6"><a xlink:href="QtTCPConnection_8hpp.html" target="_top" xlink:title=" ">
<polygon fill="white" stroke="black" points="767.5,-224.5 767.5,-243.5 933.5,-243.5 933.5,-224.5 767.5,-224.5"/>
<text text-anchor="middle" x="850.5" y="-231.5" font-family="Helvetica,sans-Serif" font-size="10.00">Network/QtTCPConnection.hpp</text>
</a>
</g>
</g>
<!-- Node1&#45;&gt;Node6 -->
<g id="edge5" class="edge">
<title>Node1&#45;&gt;Node6</title>
<path fill="none" stroke="midnightblue" d="M1266.96,-342.52C1193.47,-338.48 1079.98,-327.87 985.5,-300 943.95,-287.74 899.32,-263.92 873.21,-248.77"/>
<polygon fill="midnightblue" stroke="midnightblue" points="874.86,-245.68 864.47,-243.62 871.31,-251.71 874.86,-245.68"/>
</g>
<!-- Node23 -->
<g id="node23" class="node">
<title>Node23</title>
<g id="a_node23"><a xlink:href="RFCCodes_8hpp.html" target="_top" xlink:title=" ">
<polygon fill="white" stroke="black" points="946,-168.5 946,-187.5 1077,-187.5 1077,-168.5 946,-168.5"/>
<text text-anchor="middle" x="1011.5" y="-175.5" font-family="Helvetica,sans-Serif" font-size="10.00">Network/RFCCodes.hpp</text>
</a>
</g>
</g>
<!-- Node1&#45;&gt;Node23 -->
<g id="edge34" class="edge">
<title>Node1&#45;&gt;Node23</title>
<path fill="none" stroke="midnightblue" d="M1266.91,-342.38C1193.43,-335.56 1084.84,-313.41 1023.5,-244 1012.47,-231.52 1010.09,-212.29 1010.1,-197.98"/>
<polygon fill="midnightblue" stroke="midnightblue" points="1013.6,-197.91 1010.5,-187.78 1006.61,-197.63 1013.6,-197.91"/>
</g>
<!-- Node28 -->
<g id="node28" class="node">
<title>Node28</title>
<g id="a_node28"><a xlink:href="UDPSocket_8hpp.html" target="_top" xlink:title=" ">
<polygon fill="white" stroke="black" points="1554,-224.5 1554,-243.5 1689,-243.5 1689,-224.5 1554,-224.5"/>
<text text-anchor="middle" x="1621.5" y="-231.5" font-family="Helvetica,sans-Serif" font-size="10.00">Network/UDPSocket.hpp</text>
</a>
</g>
</g>
<!-- Node1&#45;&gt;Node28 -->
<g id="edge35" class="edge">
<title>Node1&#45;&gt;Node28</title>
<path fill="none" stroke="midnightblue" d="M1354.84,-336.38C1373.44,-322.6 1412.04,-295.61 1448.5,-280 1485.37,-264.22 1529.11,-252.9 1563.38,-245.57"/>
<polygon fill="midnightblue" stroke="midnightblue" points="1564.16,-248.98 1573.24,-243.51 1562.73,-242.12 1564.16,-248.98"/>
</g>
<!-- Node33 -->
<g id="node33" class="node">
<title>Node33</title>
<g id="a_node33"><a xlink:href="AudioPacket_8hpp.html" target="_top" xlink:title=" ">
<polygon fill="white" stroke="black" points="1746,-224.5 1746,-243.5 1887,-243.5 1887,-224.5 1746,-224.5"/>
<text text-anchor="middle" x="1816.5" y="-231.5" font-family="Helvetica,sans-Serif" font-size="10.00">Network/AudioPacket.hpp</text>
</a>
</g>
</g>
<!-- Node1&#45;&gt;Node33 -->
<g id="edge43" class="edge">
<title>Node1&#45;&gt;Node33</title>
<path fill="none" stroke="midnightblue" d="M1363.31,-336.35C1383.72,-327.4 1416.43,-312.93 1444.5,-300 1463.28,-291.35 1466.69,-285.91 1486.5,-280 1531.71,-266.51 1653.38,-251.93 1735.66,-243.14"/>
<polygon fill="midnightblue" stroke="midnightblue" points="1736.17,-246.6 1745.74,-242.07 1735.43,-239.64 1736.17,-246.6"/>
</g>
<!-- Node35 -->
<g id="node35" class="node">
<title>Node35</title>
<g id="a_node35"><a xlink:href="PortAudio_8hpp.html" target="_top" xlink:title=" ">
<polygon fill="white" stroke="black" points="1065.5,-224.5 1065.5,-243.5 1181.5,-243.5 1181.5,-224.5 1065.5,-224.5"/>
<text text-anchor="middle" x="1123.5" y="-231.5" font-family="Helvetica,sans-Serif" font-size="10.00">Audio/PortAudio.hpp</text>
</a>
</g>
</g>
<!-- Node1&#45;&gt;Node35 -->
<g id="edge45" class="edge">
<title>Node1&#45;&gt;Node35</title>
<path fill="none" stroke="midnightblue" d="M1326.24,-336.37C1287.84,-317.17 1195.18,-270.84 1149.65,-248.07"/>
<polygon fill="midnightblue" stroke="midnightblue" points="1151.19,-244.93 1140.68,-243.59 1148.06,-251.19 1151.19,-244.93"/>
</g>
<!-- Node37 -->
<g id="node37" class="node">
<title>Node37</title>
<g id="a_node37"><a xlink:href="Opus_8hpp.html" target="_top" xlink:title=" ">
<polygon fill="white" stroke="black" points="1905,-224.5 1905,-243.5 2026,-243.5 2026,-224.5 1905,-224.5"/>
<text text-anchor="middle" x="1965.5" y="-231.5" font-family="Helvetica,sans-Serif" font-size="10.00">Audio/Opus/Opus.hpp</text>
</a>
</g>
</g>
<!-- Node1&#45;&gt;Node37 -->
<g id="edge49" class="edge">
<title>Node1&#45;&gt;Node37</title>
<path fill="none" stroke="midnightblue" d="M1373.4,-336.46C1401.26,-328.19 1443.75,-314.76 1479.5,-300 1497.87,-292.41 1500.4,-285.48 1519.5,-280 1677.71,-234.58 1726.76,-261.6 1894.63,-244.03"/>
<polygon fill="midnightblue" stroke="midnightblue" points="1895.24,-247.48 1904.81,-242.93 1894.49,-240.52 1895.24,-247.48"/>
</g>
<!-- Node39 -->
<g id="node39" class="node">
<title>Node39</title>
<g id="a_node39"><a xlink:href="SoundHandler_8hpp.html" target="_top" xlink:title=" ">
<polygon fill="white" stroke="black" points="1291,-280.5 1291,-299.5 1396,-299.5 1396,-280.5 1291,-280.5"/>
<text text-anchor="middle" x="1343.5" y="-287.5" font-family="Helvetica,sans-Serif" font-size="10.00">SoundHandler.hpp</text>
</a>
</g>
</g>
<!-- Node1&#45;&gt;Node39 -->
<g id="edge54" class="edge">
<title>Node1&#45;&gt;Node39</title>
<path fill="none" stroke="midnightblue" d="M1343.5,-336.08C1343.5,-329.01 1343.5,-318.86 1343.5,-309.99"/>
<polygon fill="midnightblue" stroke="midnightblue" points="1347,-309.75 1343.5,-299.75 1340,-309.75 1347,-309.75"/>
</g>
<!-- Node44 -->
<g id="node44" class="node">
<title>Node44</title>
<g id="a_node44"><a xlink:title=" ">
<polygon fill="white" stroke="#bfbfbf" points="1529,-280.5 1529,-299.5 1594,-299.5 1594,-280.5 1529,-280.5"/>
<text text-anchor="middle" x="1561.5" y="-287.5" font-family="Helvetica,sans-Serif" font-size="10.00">exception</text>
</a>
</g>
</g>
<!-- Node1&#45;&gt;Node44 -->
<g id="edge69" class="edge">
<title>Node1&#45;&gt;Node44</title>
<path fill="none" stroke="midnightblue" d="M1378.04,-336.44C1416.31,-326.96 1478.02,-311.68 1519.17,-301.49"/>
<polygon fill="midnightblue" stroke="midnightblue" points="1520.03,-304.88 1528.9,-299.08 1518.35,-298.08 1520.03,-304.88"/>
</g>
<!-- Node3 -->
<g id="node3" class="node">
<title>Node3</title>
<g id="a_node3"><a xlink:title=" ">
<polygon fill="white" stroke="#bfbfbf" points="256.5,-112.5 256.5,-131.5 300.5,-131.5 300.5,-112.5 256.5,-112.5"/>
<text text-anchor="middle" x="278.5" y="-119.5" font-family="Helvetica,sans-Serif" font-size="10.00">string</text>
</a>
</g>
</g>
<!-- Node2&#45;&gt;Node3 -->
<g id="edge2" class="edge">
<title>Node2&#45;&gt;Node3</title>
<path fill="none" stroke="midnightblue" d="M116.08,-168.44C151.68,-158.48 210.21,-142.11 246.43,-131.97"/>
<polygon fill="midnightblue" stroke="midnightblue" points="247.78,-135.23 256.47,-129.16 245.89,-128.49 247.78,-135.23"/>
</g>
<!-- Node4 -->
<g id="node4" class="node">
<title>Node4</title>
<g id="a_node4"><a xlink:href="BabelException_8hpp.html" target="_top" xlink:title=" ">
<polygon fill="white" stroke="black" points="143.5,-56.5 143.5,-75.5 313.5,-75.5 313.5,-56.5 143.5,-56.5"/>
<text text-anchor="middle" x="228.5" y="-63.5" font-family="Helvetica,sans-Serif" font-size="10.00">Exceptions/BabelException.hpp</text>
</a>
</g>
</g>
<!-- Node2&#45;&gt;Node4 -->
<g id="edge3" class="edge">
<title>Node2&#45;&gt;Node4</title>
<path fill="none" stroke="midnightblue" d="M96.72,-168.37C121.05,-149.65 178.9,-105.15 209.22,-81.83"/>
<polygon fill="midnightblue" stroke="midnightblue" points="211.54,-84.46 217.33,-75.59 207.27,-78.91 211.54,-84.46"/>
</g>
<!-- Node5 -->
<g id="node5" class="node">
<title>Node5</title>
<g id="a_node5"><a xlink:title=" ">
<polygon fill="white" stroke="#bfbfbf" points="196,-0.5 196,-19.5 261,-19.5 261,-0.5 196,-0.5"/>
<text text-anchor="middle" x="228.5" y="-7.5" font-family="Helvetica,sans-Serif" font-size="10.00">stdexcept</text>
</a>
</g>
</g>
<!-- Node4&#45;&gt;Node5 -->
<g id="edge4" class="edge">
<title>Node4&#45;&gt;Node5</title>
<path fill="none" stroke="midnightblue" d="M228.5,-56.08C228.5,-49.01 228.5,-38.86 228.5,-29.99"/>
<polygon fill="midnightblue" stroke="midnightblue" points="232,-29.75 228.5,-19.75 225,-29.75 232,-29.75"/>
</g>
<!-- Node7 -->
<g id="node7" class="node">
<title>Node7</title>
<g id="a_node7"><a xlink:title=" ">
<polygon fill="white" stroke="#bfbfbf" points="1074.5,-0.5 1074.5,-19.5 1124.5,-19.5 1124.5,-0.5 1074.5,-0.5"/>
<text text-anchor="middle" x="1099.5" y="-7.5" font-family="Helvetica,sans-Serif" font-size="10.00">cstdint</text>
</a>
</g>
</g>
<!-- Node6&#45;&gt;Node7 -->
<g id="edge6" class="edge">
<title>Node6&#45;&gt;Node7</title>
<path fill="none" stroke="midnightblue" d="M861.06,-224.36C876.98,-211.48 908.29,-186.75 936.5,-168 963.04,-150.36 976.68,-155.22 998.5,-132 1024.36,-104.48 1011.97,-84.71 1036.5,-56 1047.18,-43.5 1062.04,-32.67 1074.64,-24.77"/>
<polygon fill="midnightblue" stroke="midnightblue" points="1076.56,-27.7 1083.33,-19.56 1072.95,-21.7 1076.56,-27.7"/>
</g>
<!-- Node8 -->
<g id="node8" class="node">
<title>Node8</title>
<g id="a_node8"><a xlink:href="ITCPConnection_8hpp.html" target="_top" xlink:title=" ">
<polygon fill="white" stroke="black" points="693.5,-168.5 693.5,-187.5 851.5,-187.5 851.5,-168.5 693.5,-168.5"/>
<text text-anchor="middle" x="772.5" y="-175.5" font-family="Helvetica,sans-Serif" font-size="10.00">Network/ITCPConnection.hpp</text>
</a>
</g>
</g>
<!-- Node6&#45;&gt;Node8 -->
<g id="edge7" class="edge">
<title>Node6&#45;&gt;Node8</title>
<path fill="none" stroke="midnightblue" d="M837.97,-224.32C825.91,-215.98 807.47,-203.21 793.23,-193.35"/>
<polygon fill="midnightblue" stroke="midnightblue" points="795.22,-190.47 785,-187.65 791.23,-196.22 795.22,-190.47"/>
</g>
<!-- Node10 -->
<g id="node10" class="node">
<title>Node10</title>
<g id="a_node10"><a xlink:title=" ">
<polygon fill="white" stroke="#bfbfbf" points="746,-112.5 746,-131.5 811,-131.5 811,-112.5 746,-112.5"/>
<text text-anchor="middle" x="778.5" y="-119.5" font-family="Helvetica,sans-Serif" font-size="10.00">functional</text>
</a>
</g>
</g>
<!-- Node6&#45;&gt;Node10 -->
<g id="edge31" class="edge">
<title>Node6&#45;&gt;Node10</title>
<path fill="none" stroke="midnightblue" d="M855.18,-224.33C861.56,-211.19 871.08,-185.88 860.5,-168 851.53,-152.84 835.43,-142.45 819.87,-135.5"/>
<polygon fill="midnightblue" stroke="midnightblue" points="820.89,-132.14 810.31,-131.62 818.25,-138.63 820.89,-132.14"/>
</g>
<!-- Node6&#45;&gt;Node23 -->
<g id="edge27" class="edge">
<title>Node6&#45;&gt;Node23</title>
<path fill="none" stroke="midnightblue" d="M876.01,-224.44C903.1,-215.36 946.09,-200.94 976.37,-190.78"/>
<polygon fill="midnightblue" stroke="midnightblue" points="977.74,-194.01 986.11,-187.52 975.51,-187.38 977.74,-194.01"/>
</g>
<!-- Node24 -->
<g id="node24" class="node">
<title>Node24</title>
<g id="a_node24"><a xlink:title=" ">
<polygon fill="white" stroke="#bfbfbf" points="517.5,-168.5 517.5,-187.5 589.5,-187.5 589.5,-168.5 517.5,-168.5"/>
<text text-anchor="middle" x="553.5" y="-175.5" font-family="Helvetica,sans-Serif" font-size="10.00">QTcpSocket</text>
</a>
</g>
</g>
<!-- Node6&#45;&gt;Node24 -->
<g id="edge29" class="edge">
<title>Node6&#45;&gt;Node24</title>
<path fill="none" stroke="midnightblue" d="M800.72,-224.42C752.03,-215.96 675.51,-202.49 600,-188.26"/>
<polygon fill="midnightblue" stroke="midnightblue" points="600.31,-184.75 589.84,-186.33 599.01,-191.63 600.31,-184.75"/>
</g>
<!-- Node25 -->
<g id="node25" class="node">
<title>Node25</title>
<g id="a_node25"><a xlink:title=" ">
<polygon fill="white" stroke="#bfbfbf" points="607.5,-168.5 607.5,-187.5 675.5,-187.5 675.5,-168.5 607.5,-168.5"/>
<text text-anchor="middle" x="641.5" y="-175.5" font-family="Helvetica,sans-Serif" font-size="10.00">QtWidgets</text>
</a>
</g>
</g>
<!-- Node6&#45;&gt;Node25 -->
<g id="edge30" class="edge">
<title>Node6&#45;&gt;Node25</title>
<path fill="none" stroke="midnightblue" d="M817.38,-224.44C781.38,-215.14 723.73,-200.25 684.31,-190.06"/>
<polygon fill="midnightblue" stroke="midnightblue" points="685.02,-186.63 674.46,-187.52 683.27,-193.41 685.02,-186.63"/>
</g>
<!-- Node26 -->
<g id="node26" class="node">
<title>Node26</title>
<g id="a_node26"><a xlink:title=" ">
<polygon fill="white" stroke="#bfbfbf" points="372,-168.5 372,-187.5 425,-187.5 425,-168.5 372,-168.5"/>
<text text-anchor="middle" x="398.5" y="-175.5" font-family="Helvetica,sans-Serif" font-size="10.00">QString</text>
</a>
</g>
</g>
<!-- Node6&#45;&gt;Node26 -->
<g id="edge32" class="edge">
<title>Node6&#45;&gt;Node26</title>
<path fill="none" stroke="midnightblue" d="M767.15,-227.36C685.13,-221.05 556.21,-209.07 435.32,-187.9"/>
<polygon fill="midnightblue" stroke="midnightblue" points="435.61,-184.4 425.15,-186.09 434.38,-191.29 435.61,-184.4"/>
</g>
<!-- Node27 -->
<g id="node27" class="node">
<title>Node27</title>
<g id="a_node27"><a xlink:title=" ">
<polygon fill="white" stroke="#bfbfbf" points="443.5,-168.5 443.5,-187.5 499.5,-187.5 499.5,-168.5 443.5,-168.5"/>
<text text-anchor="middle" x="471.5" y="-175.5" font-family="Helvetica,sans-Serif" font-size="10.00">QObject</text>
</a>
</g>
</g>
<!-- Node6&#45;&gt;Node27 -->
<g id="edge33" class="edge">
<title>Node6&#45;&gt;Node27</title>
<path fill="none" stroke="midnightblue" d="M767.17,-224.58C700.05,-217.21 603.11,-205.24 509.62,-188.04"/>
<polygon fill="midnightblue" stroke="midnightblue" points="510.19,-184.58 499.71,-186.19 508.9,-191.47 510.19,-184.58"/>
</g>
<!-- Node8&#45;&gt;Node3 -->
<g id="edge8" class="edge">
<title>Node8&#45;&gt;Node3</title>
<path fill="none" stroke="midnightblue" d="M694.5,-168.47C584.4,-156.44 388.23,-134.99 311.01,-126.55"/>
<polygon fill="midnightblue" stroke="midnightblue" points="311.25,-123.06 300.93,-125.45 310.49,-130.02 311.25,-123.06"/>
</g>
<!-- Node9 -->
<g id="node9" class="node">
<title>Node9</title>
<g id="a_node9"><a xlink:title=" ">
<polygon fill="white" stroke="#bfbfbf" points="809,-56.5 809,-75.5 856,-75.5 856,-56.5 809,-56.5"/>
<text text-anchor="middle" x="832.5" y="-63.5" font-family="Helvetica,sans-Serif" font-size="10.00">vector</text>
</a>
</g>
</g>
<!-- Node8&#45;&gt;Node9 -->
<g id="edge9" class="edge">
<title>Node8&#45;&gt;Node9</title>
<path fill="none" stroke="midnightblue" d="M761.57,-168.4C746.9,-155.77 724.04,-131.6 736.5,-112 743.78,-100.55 774.51,-87.36 799.27,-78.24"/>
<polygon fill="midnightblue" stroke="midnightblue" points="800.52,-81.51 808.75,-74.83 798.15,-74.92 800.52,-81.51"/>
</g>
<!-- Node8&#45;&gt;Node10 -->
<g id="edge10" class="edge">
<title>Node8&#45;&gt;Node10</title>
<path fill="none" stroke="midnightblue" d="M773.49,-168.08C774.29,-160.93 775.43,-150.64 776.42,-141.69"/>
<polygon fill="midnightblue" stroke="midnightblue" points="779.9,-142.08 777.53,-131.75 772.94,-141.3 779.9,-142.08"/>
</g>
<!-- Node11 -->
<g id="node11" class="node">
<title>Node11</title>
<g id="a_node11"><a xlink:href="Message_8hpp.html" target="_top" xlink:title=" ">
<polygon fill="white" stroke="black" points="564,-112.5 564,-131.5 689,-131.5 689,-112.5 564,-112.5"/>
<text text-anchor="middle" x="626.5" y="-119.5" font-family="Helvetica,sans-Serif" font-size="10.00">Network/Message.hpp</text>
</a>
</g>
</g>
<!-- Node8&#45;&gt;Node11 -->
<g id="edge11" class="edge">
<title>Node8&#45;&gt;Node11</title>
<path fill="none" stroke="midnightblue" d="M749.37,-168.44C725.02,-159.44 686.49,-145.19 659.08,-135.05"/>
<polygon fill="midnightblue" stroke="midnightblue" points="660.12,-131.7 649.53,-131.52 657.69,-138.27 660.12,-131.7"/>
</g>
<!-- Node18 -->
<g id="node18" class="node">
<title>Node18</title>
<g id="a_node18"><a xlink:href="TSQueue_8hpp.html" target="_top" xlink:title=" ">
<polygon fill="white" stroke="black" points="867.5,-112.5 867.5,-131.5 989.5,-131.5 989.5,-112.5 867.5,-112.5"/>
<text text-anchor="middle" x="928.5" y="-119.5" font-family="Helvetica,sans-Serif" font-size="10.00">Utilities/TSQueue.hpp</text>
</a>
</g>
</g>
<!-- Node8&#45;&gt;Node18 -->
<g id="edge22" class="edge">
<title>Node8&#45;&gt;Node18</title>
<path fill="none" stroke="midnightblue" d="M797.22,-168.44C823.35,-159.4 864.76,-145.06 894.08,-134.92"/>
<polygon fill="midnightblue" stroke="midnightblue" points="895.59,-138.1 903.9,-131.52 893.3,-131.48 895.59,-138.1"/>
</g>
<!-- Node11&#45;&gt;Node4 -->
<g id="edge12" class="edge">
<title>Node11&#45;&gt;Node4</title>
<path fill="none" stroke="midnightblue" d="M563.87,-112.5C492.79,-102.86 376.97,-87.14 301.75,-76.94"/>
<polygon fill="midnightblue" stroke="midnightblue" points="301.8,-73.41 291.42,-75.54 300.86,-80.35 301.8,-73.41"/>
</g>
<!-- Node11&#45;&gt;Node7 -->
<g id="edge17" class="edge">
<title>Node11&#45;&gt;Node7</title>
<path fill="none" stroke="midnightblue" d="M590.14,-112.42C551.96,-101.8 500.55,-81.9 524.5,-56 561.21,-16.31 945.26,-11.56 1064.43,-11.05"/>
<polygon fill="midnightblue" stroke="midnightblue" points="1064.49,-14.55 1074.48,-11.01 1064.47,-7.55 1064.49,-14.55"/>
</g>
<!-- Node11&#45;&gt;Node9 -->
<g id="edge18" class="edge">
<title>Node11&#45;&gt;Node9</title>
<path fill="none" stroke="midnightblue" d="M659.7,-112.49C692.57,-104.03 744.6,-90.58 798.91,-76.13"/>
<polygon fill="midnightblue" stroke="midnightblue" points="799.95,-79.48 808.72,-73.52 798.15,-72.71 799.95,-79.48"/>
</g>
<!-- Node12 -->
<g id="node12" class="node">
<title>Node12</title>
<g id="a_node12"><a xlink:href="SwapEndian_8hpp.html" target="_top" xlink:title=" ">
<polygon fill="white" stroke="black" points="339.5,-56.5 339.5,-75.5 477.5,-75.5 477.5,-56.5 339.5,-56.5"/>
<text text-anchor="middle" x="408.5" y="-63.5" font-family="Helvetica,sans-Serif" font-size="10.00">Utilities/SwapEndian.hpp</text>
</a>
</g>
</g>
<!-- Node11&#45;&gt;Node12 -->
<g id="edge13" class="edge">
<title>Node11&#45;&gt;Node12</title>
<path fill="none" stroke="midnightblue" d="M591.96,-112.44C554.25,-103.1 493.76,-88.12 452.64,-77.93"/>
<polygon fill="midnightblue" stroke="midnightblue" points="453.43,-74.52 442.88,-75.52 451.75,-81.32 453.43,-74.52"/>
</g>
<!-- Node14 -->
<g id="node14" class="node">
<title>Node14</title>
<g id="a_node14"><a xlink:title=" ">
<polygon fill="white" stroke="#bfbfbf" points="533.5,-56.5 533.5,-75.5 583.5,-75.5 583.5,-56.5 533.5,-56.5"/>
<text text-anchor="middle" x="558.5" y="-63.5" font-family="Helvetica,sans-Serif" font-size="10.00">cstring</text>
</a>
</g>
</g>
<!-- Node11&#45;&gt;Node14 -->
<g id="edge16" class="edge">
<title>Node11&#45;&gt;Node14</title>
<path fill="none" stroke="midnightblue" d="M615.57,-112.32C605.33,-104.18 589.78,-91.84 577.5,-82.09"/>
<polygon fill="midnightblue" stroke="midnightblue" points="579.63,-79.31 569.62,-75.83 575.28,-84.79 579.63,-79.31"/>
</g>
<!-- Node15 -->
<g id="node15" class="node">
<title>Node15</title>
<g id="a_node15"><a xlink:title=" ">
<polygon fill="white" stroke="#bfbfbf" points="601.5,-56.5 601.5,-75.5 665.5,-75.5 665.5,-56.5 601.5,-56.5"/>
<text text-anchor="middle" x="633.5" y="-63.5" font-family="Helvetica,sans-Serif" font-size="10.00">algorithm</text>
</a>
</g>
</g>
<!-- Node11&#45;&gt;Node15 -->
<g id="edge19" class="edge">
<title>Node11&#45;&gt;Node15</title>
<path fill="none" stroke="midnightblue" d="M627.66,-112.08C628.58,-104.93 629.92,-94.64 631.08,-85.69"/>
<polygon fill="midnightblue" stroke="midnightblue" points="634.55,-86.12 632.37,-75.75 627.61,-85.22 634.55,-86.12"/>
</g>
<!-- Node16 -->
<g id="node16" class="node">
<title>Node16</title>
<g id="a_node16"><a xlink:title=" ">
<polygon fill="white" stroke="#bfbfbf" points="683.5,-56.5 683.5,-75.5 743.5,-75.5 743.5,-56.5 683.5,-56.5"/>
<text text-anchor="middle" x="713.5" y="-63.5" font-family="Helvetica,sans-Serif" font-size="10.00">iostream</text>
</a>
</g>
</g>
<!-- Node11&#45;&gt;Node16 -->
<g id="edge20" class="edge">
<title>Node11&#45;&gt;Node16</title>
<path fill="none" stroke="midnightblue" d="M640.48,-112.32C654.05,-103.9 674.88,-90.97 690.82,-81.07"/>
<polygon fill="midnightblue" stroke="midnightblue" points="692.91,-83.9 699.56,-75.65 689.21,-77.95 692.91,-83.9"/>
</g>
<!-- Node17 -->
<g id="node17" class="node">
<title>Node17</title>
<g id="a_node17"><a xlink:title=" ">
<polygon fill="white" stroke="#bfbfbf" points="762,-56.5 762,-75.5 791,-75.5 791,-56.5 762,-56.5"/>
<text text-anchor="middle" x="776.5" y="-63.5" font-family="Helvetica,sans-Serif" font-size="10.00">bit</text>
</a>
</g>
</g>
<!-- Node11&#45;&gt;Node17 -->
<g id="edge21" class="edge">
<title>Node11&#45;&gt;Node17</title>
<path fill="none" stroke="midnightblue" d="M650.7,-112.49C674.26,-104.17 711.31,-91.01 752.18,-76.08"/>
<polygon fill="midnightblue" stroke="midnightblue" points="753.6,-79.28 761.79,-72.56 751.2,-72.71 753.6,-79.28"/>
</g>
<!-- Node12&#45;&gt;Node7 -->
<g id="edge15" class="edge">
<title>Node12&#45;&gt;Node7</title>
<path fill="none" stroke="midnightblue" d="M477.77,-57.31C482.42,-56.85 487.03,-56.41 491.5,-56 708.95,-36.17 970.77,-19.08 1064.24,-13.19"/>
<polygon fill="midnightblue" stroke="midnightblue" points="1064.52,-16.68 1074.28,-12.56 1064.08,-9.69 1064.52,-16.68"/>
</g>
<!-- Node13 -->
<g id="node13" class="node">
<title>Node13</title>
<g id="a_node13"><a xlink:title=" ">
<polygon fill="white" stroke="#bfbfbf" points="383.5,-0.5 383.5,-19.5 433.5,-19.5 433.5,-0.5 383.5,-0.5"/>
<text text-anchor="middle" x="408.5" y="-7.5" font-family="Helvetica,sans-Serif" font-size="10.00">climits</text>
</a>
</g>
</g>
<!-- Node12&#45;&gt;Node13 -->
<g id="edge14" class="edge">
<title>Node12&#45;&gt;Node13</title>
<path fill="none" stroke="midnightblue" d="M408.5,-56.08C408.5,-49.01 408.5,-38.86 408.5,-29.99"/>
<polygon fill="midnightblue" stroke="midnightblue" points="412,-29.75 408.5,-19.75 405,-29.75 412,-29.75"/>
</g>
<!-- Node19 -->
<g id="node19" class="node">
<title>Node19</title>
<g id="a_node19"><a xlink:title=" ">
<polygon fill="white" stroke="#bfbfbf" points="1463.5,-56.5 1463.5,-75.5 1511.5,-75.5 1511.5,-56.5 1463.5,-56.5"/>
<text text-anchor="middle" x="1487.5" y="-63.5" font-family="Helvetica,sans-Serif" font-size="10.00">mutex</text>
</a>
</g>
</g>
<!-- Node18&#45;&gt;Node19 -->
<g id="edge23" class="edge">
<title>Node18&#45;&gt;Node19</title>
<path fill="none" stroke="midnightblue" d="M989.65,-115.09C1107.1,-103.75 1360.77,-79.24 1453.05,-70.33"/>
<polygon fill="midnightblue" stroke="midnightblue" points="1453.61,-73.79 1463.23,-69.34 1452.94,-66.82 1453.61,-73.79"/>
</g>
<!-- Node20 -->
<g id="node20" class="node">
<title>Node20</title>
<g id="a_node20"><a xlink:title=" ">
<polygon fill="white" stroke="#bfbfbf" points="1046,-56.5 1046,-75.5 1153,-75.5 1153,-56.5 1046,-56.5"/>
<text text-anchor="middle" x="1099.5" y="-63.5" font-family="Helvetica,sans-Serif" font-size="10.00">condition_variable</text>
</a>
</g>
</g>
<!-- Node18&#45;&gt;Node20 -->
<g id="edge24" class="edge">
<title>Node18&#45;&gt;Node20</title>
<path fill="none" stroke="midnightblue" d="M955.6,-112.44C984.49,-103.32 1030.42,-88.81 1062.61,-78.65"/>
<polygon fill="midnightblue" stroke="midnightblue" points="1064.05,-81.87 1072.53,-75.52 1061.94,-75.19 1064.05,-81.87"/>
</g>
<!-- Node21 -->
<g id="node21" class="node">
<title>Node21</title>
<g id="a_node21"><a xlink:title=" ">
<polygon fill="white" stroke="#bfbfbf" points="874,-56.5 874,-75.5 921,-75.5 921,-56.5 874,-56.5"/>
<text text-anchor="middle" x="897.5" y="-63.5" font-family="Helvetica,sans-Serif" font-size="10.00">deque</text>
</a>
</g>
</g>
<!-- Node18&#45;&gt;Node21 -->
<g id="edge25" class="edge">
<title>Node18&#45;&gt;Node21</title>
<path fill="none" stroke="midnightblue" d="M923.38,-112.08C919.09,-104.61 912.84,-93.72 907.56,-84.52"/>
<polygon fill="midnightblue" stroke="midnightblue" points="910.54,-82.68 902.52,-75.75 904.47,-86.17 910.54,-82.68"/>
</g>
<!-- Node22 -->
<g id="node22" class="node">
<title>Node22</title>
<g id="a_node22"><a xlink:title=" ">
<polygon fill="white" stroke="#bfbfbf" points="939.5,-56.5 939.5,-75.5 989.5,-75.5 989.5,-56.5 939.5,-56.5"/>
<text text-anchor="middle" x="964.5" y="-63.5" font-family="Helvetica,sans-Serif" font-size="10.00">chrono</text>
</a>
</g>
</g>
<!-- Node18&#45;&gt;Node22 -->
<g id="edge26" class="edge">
<title>Node18&#45;&gt;Node22</title>
<path fill="none" stroke="midnightblue" d="M934.44,-112.08C939.48,-104.53 946.84,-93.49 953.01,-84.23"/>
<polygon fill="midnightblue" stroke="midnightblue" points="956.03,-86.01 958.67,-75.75 950.21,-82.13 956.03,-86.01"/>
</g>
<!-- Node23&#45;&gt;Node7 -->
<g id="edge28" class="edge">
<title>Node23&#45;&gt;Node7</title>
<path fill="none" stroke="midnightblue" d="M1037.18,-168.44C1072.63,-155.06 1135.17,-125.47 1161.5,-76 1172.59,-55.16 1148.89,-36.24 1127.66,-24.25"/>
<polygon fill="midnightblue" stroke="midnightblue" points="1129.3,-21.16 1118.82,-19.56 1126.01,-27.34 1129.3,-21.16"/>
</g>
<!-- Node28&#45;&gt;Node19 -->
<g id="edge38" class="edge">
<title>Node28&#45;&gt;Node19</title>
<path fill="none" stroke="midnightblue" d="M1620.37,-224.37C1618.33,-211.3 1613.13,-186.07 1601.5,-168 1577.42,-130.61 1535.78,-98.76 1510.05,-81.31"/>
<polygon fill="midnightblue" stroke="midnightblue" points="1511.93,-78.35 1501.66,-75.75 1508.06,-84.19 1511.93,-78.35"/>
</g>
<!-- Node29 -->
<g id="node29" class="node">
<title>Node29</title>
<g id="a_node29"><a xlink:title=" ">
<polygon fill="white" stroke="#bfbfbf" points="1516.5,-168.5 1516.5,-187.5 1592.5,-187.5 1592.5,-168.5 1516.5,-168.5"/>
<text text-anchor="middle" x="1554.5" y="-175.5" font-family="Helvetica,sans-Serif" font-size="10.00">QUdpSocket</text>
</a>
</g>
</g>
<!-- Node28&#45;&gt;Node29 -->
<g id="edge36" class="edge">
<title>Node28&#45;&gt;Node29</title>
<path fill="none" stroke="midnightblue" d="M1610.74,-224.32C1600.73,-216.26 1585.61,-204.08 1573.57,-194.37"/>
<polygon fill="midnightblue" stroke="midnightblue" points="1575.44,-191.38 1565.46,-187.83 1571.05,-196.83 1575.44,-191.38"/>
</g>
<!-- Node30 -->
<g id="node30" class="node">
<title>Node30</title>
<g id="a_node30"><a xlink:title=" ">
<polygon fill="white" stroke="#bfbfbf" points="1447.5,-168.5 1447.5,-187.5 1485.5,-187.5 1485.5,-168.5 1447.5,-168.5"/>
<text text-anchor="middle" x="1466.5" y="-175.5" font-family="Helvetica,sans-Serif" font-size="10.00">map</text>
</a>
</g>
</g>
<!-- Node28&#45;&gt;Node30 -->
<g id="edge37" class="edge">
<title>Node28&#45;&gt;Node30</title>
<path fill="none" stroke="midnightblue" d="M1596.94,-224.44C1569.3,-214.81 1524.44,-199.19 1495.21,-189"/>
<polygon fill="midnightblue" stroke="midnightblue" points="1496.17,-185.63 1485.57,-185.64 1493.86,-192.24 1496.17,-185.63"/>
</g>
<!-- Node31 -->
<g id="node31" class="node">
<title>Node31</title>
<g id="a_node31"><a xlink:href="ICodec_8hpp.html" target="_top" xlink:title=" ">
<polygon fill="white" stroke="black" points="1649,-168.5 1649,-187.5 1778,-187.5 1778,-168.5 1649,-168.5"/>
<text text-anchor="middle" x="1713.5" y="-175.5" font-family="Helvetica,sans-Serif" font-size="10.00">Audio/Opus/ICodec.hpp</text>
</a>
</g>
</g>
<!-- Node28&#45;&gt;Node31 -->
<g id="edge39" class="edge">
<title>Node28&#45;&gt;Node31</title>
<path fill="none" stroke="midnightblue" d="M1636.28,-224.32C1650.77,-215.82 1673.07,-202.73 1689.99,-192.8"/>
<polygon fill="midnightblue" stroke="midnightblue" points="1691.9,-195.74 1698.76,-187.65 1688.36,-189.7 1691.9,-195.74"/>
</g>
<!-- Node32 -->
<g id="node32" class="node">
<title>Node32</title>
<g id="a_node32"><a xlink:href="IAudioManager_8hpp.html" target="_top" xlink:title=" ">
<polygon fill="white" stroke="black" points="1262,-168.5 1262,-187.5 1403,-187.5 1403,-168.5 1262,-168.5"/>
<text text-anchor="middle" x="1332.5" y="-175.5" font-family="Helvetica,sans-Serif" font-size="10.00">Audio/IAudioManager.hpp</text>
</a>
</g>
</g>
<!-- Node28&#45;&gt;Node32 -->
<g id="edge40" class="edge">
<title>Node28&#45;&gt;Node32</title>
<path fill="none" stroke="midnightblue" d="M1575.71,-224.44C1524.76,-214.92 1442.47,-199.55 1387.93,-189.36"/>
<polygon fill="midnightblue" stroke="midnightblue" points="1388.55,-185.91 1378.08,-187.52 1387.27,-192.79 1388.55,-185.91"/>
</g>
<!-- Node32&#45;&gt;Node7 -->
<g id="edge42" class="edge">
<title>Node32&#45;&gt;Node7</title>
<path fill="none" stroke="midnightblue" d="M1322.35,-168.26C1298.13,-147.6 1234.68,-94.54 1177.5,-56 1160.43,-44.5 1140.28,-32.92 1124.74,-24.39"/>
<polygon fill="midnightblue" stroke="midnightblue" points="1126.19,-21.19 1115.73,-19.5 1122.85,-27.35 1126.19,-21.19"/>
</g>
<!-- Node32&#45;&gt;Node9 -->
<g id="edge41" class="edge">
<title>Node32&#45;&gt;Node9</title>
<path fill="none" stroke="midnightblue" d="M1261.96,-171.25C1131.84,-160.52 866.48,-137.97 858.5,-132 844.08,-121.21 837.64,-101.12 834.78,-86.12"/>
<polygon fill="midnightblue" stroke="midnightblue" points="838.18,-85.24 833.21,-75.88 831.26,-86.3 838.18,-85.24"/>
</g>
<!-- Node34 -->
<g id="node34" class="node">
<title>Node34</title>
<g id="a_node34"><a xlink:title=" ">
<polygon fill="white" stroke="#bfbfbf" points="1796.5,-168.5 1796.5,-187.5 1838.5,-187.5 1838.5,-168.5 1796.5,-168.5"/>
<text text-anchor="middle" x="1817.5" y="-175.5" font-family="Helvetica,sans-Serif" font-size="10.00">array</text>
</a>
</g>
</g>
<!-- Node33&#45;&gt;Node34 -->
<g id="edge44" class="edge">
<title>Node33&#45;&gt;Node34</title>
<path fill="none" stroke="midnightblue" d="M1816.67,-224.08C1816.8,-217.01 1816.98,-206.86 1817.15,-197.99"/>
<polygon fill="midnightblue" stroke="midnightblue" points="1820.65,-197.81 1817.34,-187.75 1813.65,-197.68 1820.65,-197.81"/>
</g>
<!-- Node35&#45;&gt;Node19 -->
<g id="edge48" class="edge">
<title>Node35&#45;&gt;Node19</title>
<path fill="none" stroke="midnightblue" d="M1141.35,-224.34C1159.75,-215.37 1189.22,-200.9 1214.5,-188 1231.5,-179.32 1235.28,-176.22 1252.5,-168 1324.6,-133.6 1411.41,-97.67 1456.66,-79.35"/>
<polygon fill="midnightblue" stroke="midnightblue" points="1458.22,-82.49 1466.19,-75.5 1455.6,-76 1458.22,-82.49"/>
</g>
<!-- Node35&#45;&gt;Node32 -->
<g id="edge46" class="edge">
<title>Node35&#45;&gt;Node32</title>
<path fill="none" stroke="midnightblue" d="M1156.62,-224.44C1192.62,-215.14 1250.27,-200.25 1289.69,-190.06"/>
<polygon fill="midnightblue" stroke="midnightblue" points="1290.73,-193.41 1299.54,-187.52 1288.98,-186.63 1290.73,-193.41"/>
</g>
<!-- Node36 -->
<g id="node36" class="node">
<title>Node36</title>
<g id="a_node36"><a xlink:title=" ">
<polygon fill="white" stroke="#bfbfbf" points="1133.5,-168.5 1133.5,-187.5 1205.5,-187.5 1205.5,-168.5 1133.5,-168.5"/>
<text text-anchor="middle" x="1169.5" y="-175.5" font-family="Helvetica,sans-Serif" font-size="10.00">portaudio.h</text>
</a>
</g>
</g>
<!-- Node35&#45;&gt;Node36 -->
<g id="edge47" class="edge">
<title>Node35&#45;&gt;Node36</title>
<path fill="none" stroke="midnightblue" d="M1131.1,-224.08C1137.73,-216.3 1147.52,-204.8 1155.56,-195.37"/>
<polygon fill="midnightblue" stroke="midnightblue" points="1158.23,-197.63 1162.05,-187.75 1152.9,-193.09 1158.23,-197.63"/>
</g>
<!-- Node37&#45;&gt;Node7 -->
<g id="edge50" class="edge">
<title>Node37&#45;&gt;Node7</title>
<path fill="none" stroke="midnightblue" d="M1956.49,-224.34C1941.95,-210.75 1911.96,-184.31 1882.5,-168 1818.41,-132.53 1797.36,-134.03 1727.5,-112 1636.6,-83.34 1614.17,-73.56 1520.5,-56 1378.99,-29.47 1207.57,-17.19 1134.85,-12.89"/>
<polygon fill="midnightblue" stroke="midnightblue" points="1135.04,-9.4 1124.85,-12.31 1134.63,-16.38 1135.04,-9.4"/>
</g>
<!-- Node37&#45;&gt;Node19 -->
<g id="edge52" class="edge">
<title>Node37&#45;&gt;Node19</title>
<path fill="none" stroke="midnightblue" d="M1952.2,-224.34C1930.86,-210.75 1887.33,-184.3 1847.5,-168 1731.98,-120.72 1586.88,-87.48 1521.82,-73.87"/>
<polygon fill="midnightblue" stroke="midnightblue" points="1522.22,-70.37 1511.72,-71.78 1520.8,-77.23 1522.22,-70.37"/>
</g>
<!-- Node37&#45;&gt;Node31 -->
<g id="edge53" class="edge">
<title>Node37&#45;&gt;Node31</title>
<path fill="none" stroke="midnightblue" d="M1925.57,-224.44C1881.61,-215.02 1810.87,-199.87 1763.32,-189.68"/>
<polygon fill="midnightblue" stroke="midnightblue" points="1763.75,-186.19 1753.24,-187.52 1762.29,-193.03 1763.75,-186.19"/>
</g>
<!-- Node38 -->
<g id="node38" class="node">
<title>Node38</title>
<g id="a_node38"><a xlink:title=" ">
<polygon fill="white" stroke="#bfbfbf" points="1933,-168.5 1933,-187.5 2008,-187.5 2008,-168.5 1933,-168.5"/>
<text text-anchor="middle" x="1970.5" y="-175.5" font-family="Helvetica,sans-Serif" font-size="10.00">opus/opus.h</text>
</a>
</g>
</g>
<!-- Node37&#45;&gt;Node38 -->
<g id="edge51" class="edge">
<title>Node37&#45;&gt;Node38</title>
<path fill="none" stroke="midnightblue" d="M1966.33,-224.08C1966.98,-217.01 1967.92,-206.86 1968.74,-197.99"/>
<polygon fill="midnightblue" stroke="midnightblue" points="1972.25,-198.03 1969.69,-187.75 1965.28,-197.39 1972.25,-198.03"/>
</g>
<!-- Node39&#45;&gt;Node6 -->
<g id="edge65" class="edge">
<title>Node39&#45;&gt;Node6</title>
<path fill="none" stroke="midnightblue" d="M1290.74,-283.22C1206.48,-273.99 1040.64,-255.83 938.29,-244.62"/>
<polygon fill="midnightblue" stroke="midnightblue" points="938.61,-241.13 928.29,-243.52 937.85,-248.09 938.61,-241.13"/>
</g>
<!-- Node39&#45;&gt;Node20 -->
<g id="edge58" class="edge">
<title>Node39&#45;&gt;Node20</title>
<path fill="none" stroke="midnightblue" d="M1290.75,-288.58C1216.27,-286.75 1086.05,-278.54 1056.5,-244 1037.06,-221.27 1084.8,-189.67 1085.5,-188 1099.75,-153.99 1101.08,-110.17 1100.48,-85.68"/>
<polygon fill="midnightblue" stroke="midnightblue" points="1103.98,-85.48 1100.1,-75.62 1096.98,-85.75 1103.98,-85.48"/>
</g>
<!-- Node39&#45;&gt;Node23 -->
<g id="edge66" class="edge">
<title>Node39&#45;&gt;Node23</title>
<path fill="none" stroke="midnightblue" d="M1357.79,-280.42C1377.39,-267.61 1408.37,-242.98 1391.5,-224 1381.51,-212.75 1195.37,-194.89 1087.39,-185.41"/>
<polygon fill="midnightblue" stroke="midnightblue" points="1087.46,-181.9 1077.19,-184.52 1086.85,-188.87 1087.46,-181.9"/>
</g>
<!-- Node39&#45;&gt;Node28 -->
<g id="edge67" class="edge">
<title>Node39&#45;&gt;Node28</title>
<path fill="none" stroke="midnightblue" d="M1387.55,-280.44C1436.35,-270.96 1515.06,-255.67 1567.53,-245.48"/>
<polygon fill="midnightblue" stroke="midnightblue" points="1568.51,-248.86 1577.66,-243.52 1567.17,-241.99 1568.51,-248.86"/>
</g>
<!-- Node39&#45;&gt;Node30 -->
<g id="edge56" class="edge">
<title>Node39&#45;&gt;Node30</title>
<path fill="none" stroke="midnightblue" d="M1365.98,-280.37C1383.66,-272.77 1408.12,-260.36 1425.5,-244 1439.89,-230.46 1451.35,-210.84 1458.45,-196.7"/>
<polygon fill="midnightblue" stroke="midnightblue" points="1461.68,-198.07 1462.84,-187.54 1455.36,-195.05 1461.68,-198.07"/>
</g>
<!-- Node39&#45;&gt;Node31 -->
<g id="edge60" class="edge">
<title>Node39&#45;&gt;Node31</title>
<path fill="none" stroke="midnightblue" d="M1396.36,-283.86C1492.32,-274.31 1686.39,-253.91 1697.5,-244 1710.36,-232.54 1713.69,-212.56 1714.22,-197.77"/>
<polygon fill="midnightblue" stroke="midnightblue" points="1717.72,-197.68 1714.19,-187.7 1710.72,-197.71 1717.72,-197.68"/>
</g>
<!-- Node39&#45;&gt;Node32 -->
<g id="edge61" class="edge">
<title>Node39&#45;&gt;Node32</title>
<path fill="none" stroke="midnightblue" d="M1290.81,-281.85C1267.66,-275.8 1242.58,-264.63 1228.5,-244 1210.84,-218.12 1247.85,-200.51 1282.51,-190.22"/>
<polygon fill="midnightblue" stroke="midnightblue" points="1283.5,-193.58 1292.18,-187.51 1281.61,-186.84 1283.5,-193.58"/>
</g>
<!-- Node39&#45;&gt;Node33 -->
<g id="edge68" class="edge">
<title>Node39&#45;&gt;Node33</title>
<path fill="none" stroke="midnightblue" d="M1396.38,-282.96C1478.92,-273.54 1638.94,-255.27 1735.9,-244.2"/>
<polygon fill="midnightblue" stroke="midnightblue" points="1736.42,-247.67 1745.95,-243.05 1735.62,-240.71 1736.42,-247.67"/>
</g>
<!-- Node40 -->
<g id="node40" class="node">
<title>Node40</title>
<g id="a_node40"><a xlink:title=" ">
<polygon fill="white" stroke="#bfbfbf" points="1477.5,-224.5 1477.5,-243.5 1535.5,-243.5 1535.5,-224.5 1477.5,-224.5"/>
<text text-anchor="middle" x="1506.5" y="-231.5" font-family="Helvetica,sans-Serif" font-size="10.00">memory</text>
</a>
</g>
</g>
<!-- Node39&#45;&gt;Node40 -->
<g id="edge55" class="edge">
<title>Node39&#45;&gt;Node40</title>
<path fill="none" stroke="midnightblue" d="M1369.33,-280.44C1396.75,-271.36 1440.28,-256.94 1470.93,-246.78"/>
<polygon fill="midnightblue" stroke="midnightblue" points="1472.4,-249.98 1480.79,-243.52 1470.2,-243.34 1472.4,-249.98"/>
</g>
<!-- Node41 -->
<g id="node41" class="node">
<title>Node41</title>
<g id="a_node41"><a xlink:title=" ">
<polygon fill="white" stroke="#bfbfbf" points="1237.5,-224.5 1237.5,-243.5 1285.5,-243.5 1285.5,-224.5 1237.5,-224.5"/>
<text text-anchor="middle" x="1261.5" y="-231.5" font-family="Helvetica,sans-Serif" font-size="10.00">thread</text>
</a>
</g>
</g>
<!-- Node39&#45;&gt;Node41 -->
<g id="edge57" class="edge">
<title>Node39&#45;&gt;Node41</title>
<path fill="none" stroke="midnightblue" d="M1330.33,-280.32C1317.65,-271.98 1298.27,-259.21 1283.29,-249.35"/>
<polygon fill="midnightblue" stroke="midnightblue" points="1284.92,-246.23 1274.64,-243.65 1281.07,-252.08 1284.92,-246.23"/>
</g>
<!-- Node42 -->
<g id="node42" class="node">
<title>Node42</title>
<g id="a_node42"><a xlink:title=" ">
<polygon fill="white" stroke="#bfbfbf" points="1304,-224.5 1304,-243.5 1383,-243.5 1383,-224.5 1304,-224.5"/>
<text text-anchor="middle" x="1343.5" y="-231.5" font-family="Helvetica,sans-Serif" font-size="10.00">QApplication</text>
</a>
</g>
</g>
<!-- Node39&#45;&gt;Node42 -->
<g id="edge59" class="edge">
<title>Node39&#45;&gt;Node42</title>
<path fill="none" stroke="midnightblue" d="M1343.5,-280.08C1343.5,-273.01 1343.5,-262.86 1343.5,-253.99"/>
<polygon fill="midnightblue" stroke="midnightblue" points="1347,-253.75 1343.5,-243.75 1340,-253.75 1347,-253.75"/>
</g>
<!-- Node43 -->
<g id="node43" class="node">
<title>Node43</title>
<g id="a_node43"><a xlink:href="PortAudioException_8hpp.html" target="_top" xlink:title=" ">
<polygon fill="white" stroke="black" points="189.5,-168.5 189.5,-187.5 353.5,-187.5 353.5,-168.5 189.5,-168.5"/>
<text text-anchor="middle" x="271.5" y="-175.5" font-family="Helvetica,sans-Serif" font-size="10.00">Audio/PortAudioException.hpp</text>
</a>
</g>
</g>
<!-- Node39&#45;&gt;Node43 -->
<g id="edge62" class="edge">
<title>Node39&#45;&gt;Node43</title>
<path fill="none" stroke="midnightblue" d="M1290.97,-285.95C1188.44,-279.77 954.52,-264.6 758.5,-244 607.64,-228.14 431.37,-202.95 337.79,-189.04"/>
<polygon fill="midnightblue" stroke="midnightblue" points="338.03,-185.54 327.62,-187.53 337,-192.46 338.03,-185.54"/>
</g>
<!-- Node43&#45;&gt;Node3 -->
<g id="edge63" class="edge">
<title>Node43&#45;&gt;Node3</title>
<path fill="none" stroke="midnightblue" d="M272.66,-168.08C273.58,-160.93 274.92,-150.64 276.08,-141.69"/>
<polygon fill="midnightblue" stroke="midnightblue" points="279.55,-142.12 277.37,-131.75 272.61,-141.22 279.55,-142.12"/>
</g>
<!-- Node43&#45;&gt;Node4 -->
<g id="edge64" class="edge">
<title>Node43&#45;&gt;Node4</title>
<path fill="none" stroke="midnightblue" d="M266.16,-168.3C260.89,-159.42 252.85,-145.12 247.5,-132 241.26,-116.69 236.14,-98.59 232.8,-85.38"/>
<polygon fill="midnightblue" stroke="midnightblue" points="236.18,-84.49 230.42,-75.6 229.38,-86.15 236.18,-84.49"/>
</g>
</g>
</svg>
