<?xml version="1.0" encoding="UTF-8" standalone="no"?>
<!DOCTYPE svg PUBLIC "-//W3C//DTD SVG 1.1//EN"
 "http://www.w3.org/Graphics/SVG/1.1/DTD/svg11.dtd">
<!-- Generated by graphviz version 2.43.0 (0)
 -->
<!-- Title: Client/src/SoundHandler.hpp Pages: 1 -->
<svg width="1645pt" height="308pt"
 viewBox="0.00 0.00 1644.50 308.00" xmlns="http://www.w3.org/2000/svg" xmlns:xlink="http://www.w3.org/1999/xlink">
<g id="graph0" class="graph" transform="scale(1 1) rotate(0) translate(4 304)">
<title>Client/src/SoundHandler.hpp</title>
<polygon fill="white" stroke="transparent" points="-4,4 -4,-304 1640.5,-304 1640.5,4 -4,4"/>
<!-- Node1 -->
<g id="node1" class="node">
<title>Node1</title>
<g id="a_node1"><a xlink:title=" ">
<polygon fill="#bfbfbf" stroke="black" points="582,-280.5 582,-299.5 736,-299.5 736,-280.5 582,-280.5"/>
<text text-anchor="middle" x="659" y="-287.5" font-family="Helvetica,sans-Serif" font-size="10.00">Client/src/SoundHandler.hpp</text>
</a>
</g>
</g>
<!-- Node2 -->
<g id="node2" class="node">
<title>Node2</title>
<g id="a_node2"><a xlink:title=" ">
<polygon fill="white" stroke="#bfbfbf" points="0,-224.5 0,-243.5 58,-243.5 58,-224.5 0,-224.5"/>
<text text-anchor="middle" x="29" y="-231.5" font-family="Helvetica,sans-Serif" font-size="10.00">memory</text>
</a>
</g>
</g>
<!-- Node1&#45;&gt;Node2 -->
<g id="edge1" class="edge">
<title>Node1&#45;&gt;Node2</title>
<path fill="none" stroke="midnightblue" d="M581.73,-286.27C469.15,-281.58 253.63,-269.86 72,-244 70.73,-243.82 69.43,-243.62 68.13,-243.41"/>
<polygon fill="midnightblue" stroke="midnightblue" points="68.51,-239.93 58.05,-241.61 67.28,-246.82 68.51,-239.93"/>
</g>
<!-- Node3 -->
<g id="node3" class="node">
<title>Node3</title>
<g id="a_node3"><a xlink:title=" ">
<polygon fill="white" stroke="#bfbfbf" points="114,-168.5 114,-187.5 152,-187.5 152,-168.5 114,-168.5"/>
<text text-anchor="middle" x="133" y="-175.5" font-family="Helvetica,sans-Serif" font-size="10.00">map</text>
</a>
</g>
</g>
<!-- Node1&#45;&gt;Node3 -->
<g id="edge2" class="edge">
<title>Node1&#45;&gt;Node3</title>
<path fill="none" stroke="midnightblue" d="M581.73,-284.92C477.78,-278.72 298.81,-265.34 237,-244 204.04,-232.62 170.69,-209.2 150.94,-193.8"/>
<polygon fill="midnightblue" stroke="midnightblue" points="153.11,-191.06 143.11,-187.56 148.74,-196.53 153.11,-191.06"/>
</g>
<!-- Node4 -->
<g id="node4" class="node">
<title>Node4</title>
<g id="a_node4"><a xlink:title=" ">
<polygon fill="white" stroke="#bfbfbf" points="1332,-224.5 1332,-243.5 1380,-243.5 1380,-224.5 1332,-224.5"/>
<text text-anchor="middle" x="1356" y="-231.5" font-family="Helvetica,sans-Serif" font-size="10.00">thread</text>
</a>
</g>
</g>
<!-- Node1&#45;&gt;Node4 -->
<g id="edge3" class="edge">
<title>Node1&#45;&gt;Node4</title>
<path fill="none" stroke="midnightblue" d="M736.05,-287.84C859.53,-285.05 1109.09,-275.65 1318,-244 1319.28,-243.81 1320.58,-243.59 1321.9,-243.36"/>
<polygon fill="midnightblue" stroke="midnightblue" points="1322.89,-246.73 1331.99,-241.31 1321.5,-239.87 1322.89,-246.73"/>
</g>
<!-- Node5 -->
<g id="node5" class="node">
<title>Node5</title>
<g id="a_node5"><a xlink:title=" ">
<polygon fill="white" stroke="#bfbfbf" points="1336.5,-56.5 1336.5,-75.5 1443.5,-75.5 1443.5,-56.5 1336.5,-56.5"/>
<text text-anchor="middle" x="1390" y="-63.5" font-family="Helvetica,sans-Serif" font-size="10.00">condition_variable</text>
</a>
</g>
</g>
<!-- Node1&#45;&gt;Node5 -->
<g id="edge4" class="edge">
<title>Node1&#45;&gt;Node5</title>
<path fill="none" stroke="midnightblue" d="M736.26,-287.79C839.81,-284.95 1028.88,-275.48 1187,-244 1267.51,-227.97 1303.5,-244.55 1363,-188 1390.99,-161.39 1393.01,-112.63 1391.71,-85.85"/>
<polygon fill="midnightblue" stroke="midnightblue" points="1395.18,-85.28 1390.99,-75.55 1388.2,-85.77 1395.18,-85.28"/>
</g>
<!-- Node6 -->
<g id="node6" class="node">
<title>Node6</title>
<g id="a_node6"><a xlink:title=" ">
<polygon fill="white" stroke="#bfbfbf" points="1398.5,-224.5 1398.5,-243.5 1477.5,-243.5 1477.5,-224.5 1398.5,-224.5"/>
<text text-anchor="middle" x="1438" y="-231.5" font-family="Helvetica,sans-Serif" font-size="10.00">QApplication</text>
</a>
</g>
</g>
<!-- Node1&#45;&gt;Node6 -->
<g id="edge5" class="edge">
<title>Node1&#45;&gt;Node6</title>
<path fill="none" stroke="midnightblue" d="M736,-287.29C867.6,-283.7 1144.35,-273.25 1388.35,-243.91"/>
<polygon fill="midnightblue" stroke="midnightblue" points="1388.98,-247.36 1398.48,-242.68 1388.13,-240.41 1388.98,-247.36"/>
</g>
<!-- Node7 -->
<g id="node7" class="node">
<title>Node7</title>
<g id="a_node7"><a xlink:href="ICodec_8hpp.html" target="_top" xlink:title=" ">
<polygon fill="white" stroke="black" points="302.5,-168.5 302.5,-187.5 431.5,-187.5 431.5,-168.5 302.5,-168.5"/>
<text text-anchor="middle" x="367" y="-175.5" font-family="Helvetica,sans-Serif" font-size="10.00">Audio/Opus/ICodec.hpp</text>
</a>
</g>
</g>
<!-- Node1&#45;&gt;Node7 -->
<g id="edge6" class="edge">
<title>Node1&#45;&gt;Node7</title>
<path fill="none" stroke="midnightblue" d="M636.09,-280.37C584.49,-260.93 459.04,-213.67 399.46,-191.23"/>
<polygon fill="midnightblue" stroke="midnightblue" points="400.4,-187.84 389.81,-187.59 397.93,-194.39 400.4,-187.84"/>
</g>
<!-- Node8 -->
<g id="node8" class="node">
<title>Node8</title>
<g id="a_node8"><a xlink:href="IAudioManager_8hpp.html" target="_top" xlink:title=" ">
<polygon fill="white" stroke="black" points="133.5,-112.5 133.5,-131.5 274.5,-131.5 274.5,-112.5 133.5,-112.5"/>
<text text-anchor="middle" x="204" y="-119.5" font-family="Helvetica,sans-Serif" font-size="10.00">Audio/IAudioManager.hpp</text>
</a>
</g>
</g>
<!-- Node1&#45;&gt;Node8 -->
<g id="edge7" class="edge">
<title>Node1&#45;&gt;Node8</title>
<path fill="none" stroke="midnightblue" d="M581.94,-285.85C468.84,-280.5 263.75,-267.82 194,-244 144.78,-227.19 76.84,-211.73 105,-168 115.31,-151.99 132.85,-141.62 150.33,-134.92"/>
<polygon fill="midnightblue" stroke="midnightblue" points="151.7,-138.15 159.99,-131.56 149.4,-131.54 151.7,-138.15"/>
</g>
<!-- Node11 -->
<g id="node11" class="node">
<title>Node11</title>
<g id="a_node11"><a xlink:href="PortAudioException_8hpp.html" target="_top" xlink:title=" ">
<polygon fill="white" stroke="black" points="450,-168.5 450,-187.5 614,-187.5 614,-168.5 450,-168.5"/>
<text text-anchor="middle" x="532" y="-175.5" font-family="Helvetica,sans-Serif" font-size="10.00">Audio/PortAudioException.hpp</text>
</a>
</g>
</g>
<!-- Node1&#45;&gt;Node11 -->
<g id="edge10" class="edge">
<title>Node1&#45;&gt;Node11</title>
<path fill="none" stroke="midnightblue" d="M649.03,-280.37C627.61,-261.81 576.93,-217.91 549.82,-194.44"/>
<polygon fill="midnightblue" stroke="midnightblue" points="551.77,-191.49 541.92,-187.59 547.19,-196.78 551.77,-191.49"/>
</g>
<!-- Node15 -->
<g id="node15" class="node">
<title>Node15</title>
<g id="a_node15"><a xlink:href="QtTCPConnection_8hpp.html" target="_top" xlink:title=" ">
<polygon fill="white" stroke="black" points="1012,-224.5 1012,-243.5 1178,-243.5 1178,-224.5 1012,-224.5"/>
<text text-anchor="middle" x="1095" y="-231.5" font-family="Helvetica,sans-Serif" font-size="10.00">Network/QtTCPConnection.hpp</text>
</a>
</g>
</g>
<!-- Node1&#45;&gt;Node15 -->
<g id="edge14" class="edge">
<title>Node1&#45;&gt;Node15</title>
<path fill="none" stroke="midnightblue" d="M728.09,-280.44C806.46,-270.74 934.01,-254.94 1016.2,-244.76"/>
<polygon fill="midnightblue" stroke="midnightblue" points="1016.74,-248.22 1026.24,-243.52 1015.88,-241.27 1016.74,-248.22"/>
</g>
<!-- Node29 -->
<g id="node29" class="node">
<title>Node29</title>
<g id="a_node29"><a xlink:href="RFCCodes_8hpp.html" target="_top" xlink:title=" ">
<polygon fill="white" stroke="black" points="670.5,-168.5 670.5,-187.5 801.5,-187.5 801.5,-168.5 670.5,-168.5"/>
<text text-anchor="middle" x="736" y="-175.5" font-family="Helvetica,sans-Serif" font-size="10.00">Network/RFCCodes.hpp</text>
</a>
</g>
</g>
<!-- Node1&#45;&gt;Node29 -->
<g id="edge43" class="edge">
<title>Node1&#45;&gt;Node29</title>
<path fill="none" stroke="midnightblue" d="M665.04,-280.37C677.75,-262.22 707.44,-219.8 724.11,-195.99"/>
<polygon fill="midnightblue" stroke="midnightblue" points="727.12,-197.79 729.99,-187.59 721.38,-193.78 727.12,-197.79"/>
</g>
<!-- Node34 -->
<g id="node34" class="node">
<title>Node34</title>
<g id="a_node34"><a xlink:href="UDPSocket_8hpp.html" target="_top" xlink:title=" ">
<polygon fill="white" stroke="black" points="246.5,-224.5 246.5,-243.5 381.5,-243.5 381.5,-224.5 246.5,-224.5"/>
<text text-anchor="middle" x="314" y="-231.5" font-family="Helvetica,sans-Serif" font-size="10.00">Network/UDPSocket.hpp</text>
</a>
</g>
</g>
<!-- Node1&#45;&gt;Node34 -->
<g id="edge44" class="edge">
<title>Node1&#45;&gt;Node34</title>
<path fill="none" stroke="midnightblue" d="M604.33,-280.44C543.01,-270.85 443.64,-255.29 378.55,-245.1"/>
<polygon fill="midnightblue" stroke="midnightblue" points="378.83,-241.61 368.41,-243.52 377.75,-248.52 378.83,-241.61"/>
</g>
<!-- Node36 -->
<g id="node36" class="node">
<title>Node36</title>
<g id="a_node36"><a xlink:href="AudioPacket_8hpp.html" target="_top" xlink:title=" ">
<polygon fill="white" stroke="black" points="1495.5,-224.5 1495.5,-243.5 1636.5,-243.5 1636.5,-224.5 1495.5,-224.5"/>
<text text-anchor="middle" x="1566" y="-231.5" font-family="Helvetica,sans-Serif" font-size="10.00">Network/AudioPacket.hpp</text>
</a>
</g>
</g>
<!-- Node1&#45;&gt;Node36 -->
<g id="edge50" class="edge">
<title>Node1&#45;&gt;Node36</title>
<path fill="none" stroke="midnightblue" d="M736.16,-286.33C880.96,-280.99 1203.53,-267.5 1485.38,-244.09"/>
<polygon fill="midnightblue" stroke="midnightblue" points="1485.71,-247.58 1495.39,-243.25 1485.13,-240.6 1485.71,-247.58"/>
</g>
<!-- Node9 -->
<g id="node9" class="node">
<title>Node9</title>
<g id="a_node9"><a xlink:title=" ">
<polygon fill="white" stroke="#bfbfbf" points="529.5,-56.5 529.5,-75.5 576.5,-75.5 576.5,-56.5 529.5,-56.5"/>
<text text-anchor="middle" x="553" y="-63.5" font-family="Helvetica,sans-Serif" font-size="10.00">vector</text>
</a>
</g>
</g>
<!-- Node8&#45;&gt;Node9 -->
<g id="edge8" class="edge">
<title>Node8&#45;&gt;Node9</title>
<path fill="none" stroke="midnightblue" d="M259.3,-112.44C332.37,-101.14 458.86,-81.57 519.15,-72.24"/>
<polygon fill="midnightblue" stroke="midnightblue" points="519.92,-75.66 529.27,-70.67 518.85,-68.74 519.92,-75.66"/>
</g>
<!-- Node10 -->
<g id="node10" class="node">
<title>Node10</title>
<g id="a_node10"><a xlink:title=" ">
<polygon fill="white" stroke="#bfbfbf" points="580,-0.5 580,-19.5 630,-19.5 630,-0.5 580,-0.5"/>
<text text-anchor="middle" x="605" y="-7.5" font-family="Helvetica,sans-Serif" font-size="10.00">cstdint</text>
</a>
</g>
</g>
<!-- Node8&#45;&gt;Node10 -->
<g id="edge9" class="edge">
<title>Node8&#45;&gt;Node10</title>
<path fill="none" stroke="midnightblue" d="M213.05,-112.09C228.32,-97.67 260.77,-69.45 294,-56 388.26,-17.85 510.13,-11.4 569.44,-10.71"/>
<polygon fill="midnightblue" stroke="midnightblue" points="569.78,-14.21 579.76,-10.64 569.74,-7.21 569.78,-14.21"/>
</g>
<!-- Node12 -->
<g id="node12" class="node">
<title>Node12</title>
<g id="a_node12"><a xlink:title=" ">
<polygon fill="white" stroke="#bfbfbf" points="429,-112.5 429,-131.5 473,-131.5 473,-112.5 429,-112.5"/>
<text text-anchor="middle" x="451" y="-119.5" font-family="Helvetica,sans-Serif" font-size="10.00">string</text>
</a>
</g>
</g>
<!-- Node11&#45;&gt;Node12 -->
<g id="edge11" class="edge">
<title>Node11&#45;&gt;Node12</title>
<path fill="none" stroke="midnightblue" d="M518.99,-168.32C506.47,-159.98 487.32,-147.21 472.53,-137.35"/>
<polygon fill="midnightblue" stroke="midnightblue" points="474.24,-134.29 463.98,-131.65 470.36,-140.11 474.24,-134.29"/>
</g>
<!-- Node13 -->
<g id="node13" class="node">
<title>Node13</title>
<g id="a_node13"><a xlink:href="BabelException_8hpp.html" target="_top" xlink:title=" ">
<polygon fill="white" stroke="black" points="303,-56.5 303,-75.5 473,-75.5 473,-56.5 303,-56.5"/>
<text text-anchor="middle" x="388" y="-63.5" font-family="Helvetica,sans-Serif" font-size="10.00">Exceptions/BabelException.hpp</text>
</a>
</g>
</g>
<!-- Node11&#45;&gt;Node13 -->
<g id="edge12" class="edge">
<title>Node11&#45;&gt;Node13</title>
<path fill="none" stroke="midnightblue" d="M491.83,-168.49C468.55,-161.84 439.98,-150.52 420,-132 406.48,-119.46 397.95,-99.96 393.13,-85.59"/>
<polygon fill="midnightblue" stroke="midnightblue" points="396.41,-84.34 390.14,-75.8 389.71,-86.38 396.41,-84.34"/>
</g>
<!-- Node14 -->
<g id="node14" class="node">
<title>Node14</title>
<g id="a_node14"><a xlink:title=" ">
<polygon fill="white" stroke="#bfbfbf" points="355.5,-0.5 355.5,-19.5 420.5,-19.5 420.5,-0.5 355.5,-0.5"/>
<text text-anchor="middle" x="388" y="-7.5" font-family="Helvetica,sans-Serif" font-size="10.00">stdexcept</text>
</a>
</g>
</g>
<!-- Node13&#45;&gt;Node14 -->
<g id="edge13" class="edge">
<title>Node13&#45;&gt;Node14</title>
<path fill="none" stroke="midnightblue" d="M388,-56.08C388,-49.01 388,-38.86 388,-29.99"/>
<polygon fill="midnightblue" stroke="midnightblue" points="391.5,-29.75 388,-19.75 384.5,-29.75 391.5,-29.75"/>
</g>
<!-- Node15&#45;&gt;Node10 -->
<g id="edge15" class="edge">
<title>Node15&#45;&gt;Node10</title>
<path fill="none" stroke="midnightblue" d="M1105.44,-224.24C1114.42,-215.97 1126.75,-202.66 1132,-188 1145.47,-150.42 1183.58,-117.44 1122,-56 1087.98,-22.05 751.44,-13.43 640.37,-11.5"/>
<polygon fill="midnightblue" stroke="midnightblue" points="640.1,-8 630.04,-11.33 639.98,-15 640.1,-8"/>
</g>
<!-- Node16 -->
<g id="node16" class="node">
<title>Node16</title>
<g id="a_node16"><a xlink:href="ITCPConnection_8hpp.html" target="_top" xlink:title=" ">
<polygon fill="white" stroke="black" points="820,-168.5 820,-187.5 978,-187.5 978,-168.5 820,-168.5"/>
<text text-anchor="middle" x="899" y="-175.5" font-family="Helvetica,sans-Serif" font-size="10.00">Network/ITCPConnection.hpp</text>
</a>
</g>
</g>
<!-- Node15&#45;&gt;Node16 -->
<g id="edge16" class="edge">
<title>Node15&#45;&gt;Node16</title>
<path fill="none" stroke="midnightblue" d="M1063.94,-224.44C1030.4,-215.2 976.8,-200.44 939.86,-190.26"/>
<polygon fill="midnightblue" stroke="midnightblue" points="940.48,-186.8 929.91,-187.52 938.62,-193.55 940.48,-186.8"/>
</g>
<!-- Node17 -->
<g id="node17" class="node">
<title>Node17</title>
<g id="a_node17"><a xlink:title=" ">
<polygon fill="white" stroke="#bfbfbf" points="1309.5,-112.5 1309.5,-131.5 1374.5,-131.5 1374.5,-112.5 1309.5,-112.5"/>
<text text-anchor="middle" x="1342" y="-119.5" font-family="Helvetica,sans-Serif" font-size="10.00">functional</text>
</a>
</g>
</g>
<!-- Node15&#45;&gt;Node17 -->
<g id="edge40" class="edge">
<title>Node15&#45;&gt;Node17</title>
<path fill="none" stroke="midnightblue" d="M1178.15,-229.29C1242.73,-224.46 1324.76,-213.38 1346,-188 1356.64,-175.29 1353.78,-155.81 1349.39,-141.49"/>
<polygon fill="midnightblue" stroke="midnightblue" points="1352.58,-140 1345.94,-131.75 1345.98,-142.34 1352.58,-140"/>
</g>
<!-- Node15&#45;&gt;Node29 -->
<g id="edge36" class="edge">
<title>Node15&#45;&gt;Node29</title>
<path fill="none" stroke="midnightblue" d="M1038.12,-224.44C974.18,-214.83 870.48,-199.23 802.75,-189.04"/>
<polygon fill="midnightblue" stroke="midnightblue" points="803.03,-185.54 792.62,-187.52 801.99,-192.47 803.03,-185.54"/>
</g>
<!-- Node30 -->
<g id="node30" class="node">
<title>Node30</title>
<g id="a_node30"><a xlink:title=" ">
<polygon fill="white" stroke="#bfbfbf" points="1179,-168.5 1179,-187.5 1251,-187.5 1251,-168.5 1179,-168.5"/>
<text text-anchor="middle" x="1215" y="-175.5" font-family="Helvetica,sans-Serif" font-size="10.00">QTcpSocket</text>
</a>
</g>
</g>
<!-- Node15&#45;&gt;Node30 -->
<g id="edge38" class="edge">
<title>Node15&#45;&gt;Node30</title>
<path fill="none" stroke="midnightblue" d="M1114.01,-224.44C1133.59,-215.64 1164.31,-201.81 1186.73,-191.72"/>
<polygon fill="midnightblue" stroke="midnightblue" points="1188.39,-194.81 1196.07,-187.52 1185.52,-188.43 1188.39,-194.81"/>
</g>
<!-- Node31 -->
<g id="node31" class="node">
<title>Node31</title>
<g id="a_node31"><a xlink:title=" ">
<polygon fill="white" stroke="#bfbfbf" points="1269,-168.5 1269,-187.5 1337,-187.5 1337,-168.5 1269,-168.5"/>
<text text-anchor="middle" x="1303" y="-175.5" font-family="Helvetica,sans-Serif" font-size="10.00">QtWidgets</text>
</a>
</g>
</g>
<!-- Node15&#45;&gt;Node31 -->
<g id="edge39" class="edge">
<title>Node15&#45;&gt;Node31</title>
<path fill="none" stroke="midnightblue" d="M1127.96,-224.44C1163.79,-215.14 1221.16,-200.25 1260.39,-190.06"/>
<polygon fill="midnightblue" stroke="midnightblue" points="1261.4,-193.42 1270.2,-187.52 1259.64,-186.64 1261.4,-193.42"/>
</g>
<!-- Node32 -->
<g id="node32" class="node">
<title>Node32</title>
<g id="a_node32"><a xlink:title=" ">
<polygon fill="white" stroke="#bfbfbf" points="995.5,-168.5 995.5,-187.5 1048.5,-187.5 1048.5,-168.5 995.5,-168.5"/>
<text text-anchor="middle" x="1022" y="-175.5" font-family="Helvetica,sans-Serif" font-size="10.00">QString</text>
</a>
</g>
</g>
<!-- Node15&#45;&gt;Node32 -->
<g id="edge41" class="edge">
<title>Node15&#45;&gt;Node32</title>
<path fill="none" stroke="midnightblue" d="M1083.27,-224.32C1072.16,-216.11 1055.26,-203.6 1042.02,-193.81"/>
<polygon fill="midnightblue" stroke="midnightblue" points="1044.06,-190.97 1033.94,-187.83 1039.9,-196.59 1044.06,-190.97"/>
</g>
<!-- Node33 -->
<g id="node33" class="node">
<title>Node33</title>
<g id="a_node33"><a xlink:title=" ">
<polygon fill="white" stroke="#bfbfbf" points="1067,-168.5 1067,-187.5 1123,-187.5 1123,-168.5 1067,-168.5"/>
<text text-anchor="middle" x="1095" y="-175.5" font-family="Helvetica,sans-Serif" font-size="10.00">QObject</text>
</a>
</g>
</g>
<!-- Node15&#45;&gt;Node33 -->
<g id="edge42" class="edge">
<title>Node15&#45;&gt;Node33</title>
<path fill="none" stroke="midnightblue" d="M1095,-224.08C1095,-217.01 1095,-206.86 1095,-197.99"/>
<polygon fill="midnightblue" stroke="midnightblue" points="1098.5,-197.75 1095,-187.75 1091.5,-197.75 1098.5,-197.75"/>
</g>
<!-- Node16&#45;&gt;Node9 -->
<g id="edge18" class="edge">
<title>Node16&#45;&gt;Node9</title>
<path fill="none" stroke="midnightblue" d="M826.4,-168.49C735.87,-157.61 591.69,-139.31 582,-132 567.38,-120.97 559.96,-100.93 556.32,-86"/>
<polygon fill="midnightblue" stroke="midnightblue" points="559.66,-84.9 554.2,-75.82 552.81,-86.32 559.66,-84.9"/>
</g>
<!-- Node16&#45;&gt;Node12 -->
<g id="edge17" class="edge">
<title>Node16&#45;&gt;Node12</title>
<path fill="none" stroke="midnightblue" d="M828.01,-168.44C729.45,-156.56 555.17,-135.56 483.34,-126.9"/>
<polygon fill="midnightblue" stroke="midnightblue" points="483.45,-123.39 473.11,-125.66 482.62,-130.34 483.45,-123.39"/>
</g>
<!-- Node16&#45;&gt;Node17 -->
<g id="edge19" class="edge">
<title>Node16&#45;&gt;Node17</title>
<path fill="none" stroke="midnightblue" d="M978.06,-168.55C1078.48,-157.77 1244.4,-139.72 1298.91,-131.93"/>
<polygon fill="midnightblue" stroke="midnightblue" points="1299.68,-135.35 1309.04,-130.39 1298.63,-128.43 1299.68,-135.35"/>
</g>
<!-- Node18 -->
<g id="node18" class="node">
<title>Node18</title>
<g id="a_node18"><a xlink:href="Message_8hpp.html" target="_top" xlink:title=" ">
<polygon fill="white" stroke="black" points="591.5,-112.5 591.5,-131.5 716.5,-131.5 716.5,-112.5 591.5,-112.5"/>
<text text-anchor="middle" x="654" y="-119.5" font-family="Helvetica,sans-Serif" font-size="10.00">Network/Message.hpp</text>
</a>
</g>
</g>
<!-- Node16&#45;&gt;Node18 -->
<g id="edge20" class="edge">
<title>Node16&#45;&gt;Node18</title>
<path fill="none" stroke="midnightblue" d="M860.18,-168.44C817.44,-159.02 748.67,-143.87 702.43,-133.68"/>
<polygon fill="midnightblue" stroke="midnightblue" points="703.16,-130.25 692.64,-131.52 701.65,-137.09 703.16,-130.25"/>
</g>
<!-- Node25 -->
<g id="node25" class="node">
<title>Node25</title>
<g id="a_node25"><a xlink:href="TSQueue_8hpp.html" target="_top" xlink:title=" ">
<polygon fill="white" stroke="black" points="1169,-112.5 1169,-131.5 1291,-131.5 1291,-112.5 1169,-112.5"/>
<text text-anchor="middle" x="1230" y="-119.5" font-family="Helvetica,sans-Serif" font-size="10.00">Utilities/TSQueue.hpp</text>
</a>
</g>
</g>
<!-- Node16&#45;&gt;Node25 -->
<g id="edge31" class="edge">
<title>Node16&#45;&gt;Node25</title>
<path fill="none" stroke="midnightblue" d="M951.45,-168.44C1010.16,-158.87 1105.23,-143.36 1167.68,-133.17"/>
<polygon fill="midnightblue" stroke="midnightblue" points="1168.49,-136.58 1177.8,-131.52 1167.36,-129.67 1168.49,-136.58"/>
</g>
<!-- Node18&#45;&gt;Node9 -->
<g id="edge27" class="edge">
<title>Node18&#45;&gt;Node9</title>
<path fill="none" stroke="midnightblue" d="M637.77,-112.32C621.65,-103.7 596.7,-90.36 578.04,-80.39"/>
<polygon fill="midnightblue" stroke="midnightblue" points="579.66,-77.28 569.19,-75.65 576.36,-83.46 579.66,-77.28"/>
</g>
<!-- Node18&#45;&gt;Node10 -->
<g id="edge26" class="edge">
<title>Node18&#45;&gt;Node10</title>
<path fill="none" stroke="midnightblue" d="M646.93,-112.18C640.23,-103.44 630.27,-89.45 624,-76 617.01,-61.01 611.97,-42.88 608.84,-29.58"/>
<polygon fill="midnightblue" stroke="midnightblue" points="612.24,-28.72 606.67,-19.71 605.4,-30.23 612.24,-28.72"/>
</g>
<!-- Node18&#45;&gt;Node13 -->
<g id="edge21" class="edge">
<title>Node18&#45;&gt;Node13</title>
<path fill="none" stroke="midnightblue" d="M611.85,-112.44C565.25,-102.98 490.16,-87.74 439.95,-77.55"/>
<polygon fill="midnightblue" stroke="midnightblue" points="440.45,-74.08 429.95,-75.52 439.06,-80.94 440.45,-74.08"/>
</g>
<!-- Node19 -->
<g id="node19" class="node">
<title>Node19</title>
<g id="a_node19"><a xlink:href="SwapEndian_8hpp.html" target="_top" xlink:title=" ">
<polygon fill="white" stroke="black" points="909,-56.5 909,-75.5 1047,-75.5 1047,-56.5 909,-56.5"/>
<text text-anchor="middle" x="978" y="-63.5" font-family="Helvetica,sans-Serif" font-size="10.00">Utilities/SwapEndian.hpp</text>
</a>
</g>
</g>
<!-- Node18&#45;&gt;Node19 -->
<g id="edge22" class="edge">
<title>Node18&#45;&gt;Node19</title>
<path fill="none" stroke="midnightblue" d="M705.34,-112.44C762.81,-102.87 855.87,-87.36 917,-77.17"/>
<polygon fill="midnightblue" stroke="midnightblue" points="917.61,-80.61 926.9,-75.52 916.46,-73.71 917.61,-80.61"/>
</g>
<!-- Node21 -->
<g id="node21" class="node">
<title>Node21</title>
<g id="a_node21"><a xlink:title=" ">
<polygon fill="white" stroke="#bfbfbf" points="633,-56.5 633,-75.5 683,-75.5 683,-56.5 633,-56.5"/>
<text text-anchor="middle" x="658" y="-63.5" font-family="Helvetica,sans-Serif" font-size="10.00">cstring</text>
</a>
</g>
</g>
<!-- Node18&#45;&gt;Node21 -->
<g id="edge25" class="edge">
<title>Node18&#45;&gt;Node21</title>
<path fill="none" stroke="midnightblue" d="M654.66,-112.08C655.18,-105.01 655.94,-94.86 656.59,-85.99"/>
<polygon fill="midnightblue" stroke="midnightblue" points="660.1,-85.98 657.35,-75.75 653.12,-85.47 660.1,-85.98"/>
</g>
<!-- Node22 -->
<g id="node22" class="node">
<title>Node22</title>
<g id="a_node22"><a xlink:title=" ">
<polygon fill="white" stroke="#bfbfbf" points="701,-56.5 701,-75.5 765,-75.5 765,-56.5 701,-56.5"/>
<text text-anchor="middle" x="733" y="-63.5" font-family="Helvetica,sans-Serif" font-size="10.00">algorithm</text>
</a>
</g>
</g>
<!-- Node18&#45;&gt;Node22 -->
<g id="edge28" class="edge">
<title>Node18&#45;&gt;Node22</title>
<path fill="none" stroke="midnightblue" d="M666.69,-112.32C678.9,-103.98 697.58,-91.21 712,-81.35"/>
<polygon fill="midnightblue" stroke="midnightblue" points="714.06,-84.19 720.34,-75.65 710.11,-78.41 714.06,-84.19"/>
</g>
<!-- Node23 -->
<g id="node23" class="node">
<title>Node23</title>
<g id="a_node23"><a xlink:title=" ">
<polygon fill="white" stroke="#bfbfbf" points="783,-56.5 783,-75.5 843,-75.5 843,-56.5 783,-56.5"/>
<text text-anchor="middle" x="813" y="-63.5" font-family="Helvetica,sans-Serif" font-size="10.00">iostream</text>
</a>
</g>
</g>
<!-- Node18&#45;&gt;Node23 -->
<g id="edge29" class="edge">
<title>Node18&#45;&gt;Node23</title>
<path fill="none" stroke="midnightblue" d="M679.19,-112.44C705.94,-103.36 748.4,-88.94 778.31,-78.78"/>
<polygon fill="midnightblue" stroke="midnightblue" points="779.58,-82.05 787.92,-75.52 777.33,-75.42 779.58,-82.05"/>
</g>
<!-- Node24 -->
<g id="node24" class="node">
<title>Node24</title>
<g id="a_node24"><a xlink:title=" ">
<polygon fill="white" stroke="#bfbfbf" points="861.5,-56.5 861.5,-75.5 890.5,-75.5 890.5,-56.5 861.5,-56.5"/>
<text text-anchor="middle" x="876" y="-63.5" font-family="Helvetica,sans-Serif" font-size="10.00">bit</text>
</a>
</g>
</g>
<!-- Node18&#45;&gt;Node24 -->
<g id="edge30" class="edge">
<title>Node18&#45;&gt;Node24</title>
<path fill="none" stroke="midnightblue" d="M699.67,-112.45C737.97,-104.87 794.19,-92.79 851.76,-75.73"/>
<polygon fill="midnightblue" stroke="midnightblue" points="852.82,-79.07 861.38,-72.84 850.8,-72.37 852.82,-79.07"/>
</g>
<!-- Node19&#45;&gt;Node10 -->
<g id="edge24" class="edge">
<title>Node19&#45;&gt;Node10</title>
<path fill="none" stroke="midnightblue" d="M918.9,-56.44C840.48,-45.09 704.5,-25.4 640.38,-16.12"/>
<polygon fill="midnightblue" stroke="midnightblue" points="640.76,-12.64 630.37,-14.67 639.76,-19.57 640.76,-12.64"/>
</g>
<!-- Node20 -->
<g id="node20" class="node">
<title>Node20</title>
<g id="a_node20"><a xlink:title=" ">
<polygon fill="white" stroke="#bfbfbf" points="953,-0.5 953,-19.5 1003,-19.5 1003,-0.5 953,-0.5"/>
<text text-anchor="middle" x="978" y="-7.5" font-family="Helvetica,sans-Serif" font-size="10.00">climits</text>
</a>
</g>
</g>
<!-- Node19&#45;&gt;Node20 -->
<g id="edge23" class="edge">
<title>Node19&#45;&gt;Node20</title>
<path fill="none" stroke="midnightblue" d="M978,-56.08C978,-49.01 978,-38.86 978,-29.99"/>
<polygon fill="midnightblue" stroke="midnightblue" points="981.5,-29.75 978,-19.75 974.5,-29.75 981.5,-29.75"/>
</g>
<!-- Node25&#45;&gt;Node5 -->
<g id="edge33" class="edge">
<title>Node25&#45;&gt;Node5</title>
<path fill="none" stroke="midnightblue" d="M1255.35,-112.44C1282.27,-103.36 1325,-88.94 1355.09,-78.78"/>
<polygon fill="midnightblue" stroke="midnightblue" points="1356.41,-82.03 1364.77,-75.52 1354.17,-75.4 1356.41,-82.03"/>
</g>
<!-- Node26 -->
<g id="node26" class="node">
<title>Node26</title>
<g id="a_node26"><a xlink:title=" ">
<polygon fill="white" stroke="#bfbfbf" points="1065,-56.5 1065,-75.5 1113,-75.5 1113,-56.5 1065,-56.5"/>
<text text-anchor="middle" x="1089" y="-63.5" font-family="Helvetica,sans-Serif" font-size="10.00">mutex</text>
</a>
</g>
</g>
<!-- Node25&#45;&gt;Node26 -->
<g id="edge32" class="edge">
<title>Node25&#45;&gt;Node26</title>
<path fill="none" stroke="midnightblue" d="M1207.66,-112.44C1184.25,-103.48 1147.26,-89.31 1120.81,-79.18"/>
<polygon fill="midnightblue" stroke="midnightblue" points="1121.83,-75.82 1111.24,-75.52 1119.32,-82.36 1121.83,-75.82"/>
</g>
<!-- Node27 -->
<g id="node27" class="node">
<title>Node27</title>
<g id="a_node27"><a xlink:title=" ">
<polygon fill="white" stroke="#bfbfbf" points="1188.5,-56.5 1188.5,-75.5 1235.5,-75.5 1235.5,-56.5 1188.5,-56.5"/>
<text text-anchor="middle" x="1212" y="-63.5" font-family="Helvetica,sans-Serif" font-size="10.00">deque</text>
</a>
</g>
</g>
<!-- Node25&#45;&gt;Node27 -->
<g id="edge34" class="edge">
<title>Node25&#45;&gt;Node27</title>
<path fill="none" stroke="midnightblue" d="M1227.03,-112.08C1224.62,-104.85 1221.14,-94.41 1218.13,-85.4"/>
<polygon fill="midnightblue" stroke="midnightblue" points="1221.4,-84.13 1214.92,-75.75 1214.76,-86.34 1221.4,-84.13"/>
</g>
<!-- Node28 -->
<g id="node28" class="node">
<title>Node28</title>
<g id="a_node28"><a xlink:title=" ">
<polygon fill="white" stroke="#bfbfbf" points="1254,-56.5 1254,-75.5 1304,-75.5 1304,-56.5 1254,-56.5"/>
<text text-anchor="middle" x="1279" y="-63.5" font-family="Helvetica,sans-Serif" font-size="10.00">chrono</text>
</a>
</g>
</g>
<!-- Node25&#45;&gt;Node28 -->
<g id="edge35" class="edge">
<title>Node25&#45;&gt;Node28</title>
<path fill="none" stroke="midnightblue" d="M1238.09,-112.08C1245.16,-104.3 1255.59,-92.8 1264.15,-83.37"/>
<polygon fill="midnightblue" stroke="midnightblue" points="1266.93,-85.51 1271.06,-75.75 1261.75,-80.8 1266.93,-85.51"/>
</g>
<!-- Node29&#45;&gt;Node10 -->
<g id="edge37" class="edge">
<title>Node29&#45;&gt;Node10</title>
<path fill="none" stroke="midnightblue" d="M670.2,-170.26C636,-164.3 594.82,-153.09 563,-132 536.84,-114.67 530.09,-105.71 520,-76 517.14,-67.58 515.42,-63.62 520,-56 530.95,-37.81 551.99,-26.59 570.4,-19.9"/>
<polygon fill="midnightblue" stroke="midnightblue" points="571.6,-23.19 579.99,-16.72 569.4,-16.54 571.6,-23.19"/>
</g>
<!-- Node34&#45;&gt;Node3 -->
<g id="edge46" class="edge">
<title>Node34&#45;&gt;Node3</title>
<path fill="none" stroke="midnightblue" d="M285.32,-224.44C251.53,-214.36 195.73,-197.71 161.86,-187.61"/>
<polygon fill="midnightblue" stroke="midnightblue" points="162.69,-184.21 152.11,-184.7 160.69,-190.91 162.69,-184.21"/>
</g>
<!-- Node34&#45;&gt;Node7 -->
<g id="edge48" class="edge">
<title>Node34&#45;&gt;Node7</title>
<path fill="none" stroke="midnightblue" d="M322.75,-224.08C330.47,-216.22 341.9,-204.57 351.22,-195.08"/>
<polygon fill="midnightblue" stroke="midnightblue" points="353.9,-197.34 358.41,-187.75 348.91,-192.44 353.9,-197.34"/>
</g>
<!-- Node34&#45;&gt;Node8 -->
<g id="edge49" class="edge">
<title>Node34&#45;&gt;Node8</title>
<path fill="none" stroke="midnightblue" d="M256.22,-224.45C234.56,-218.12 212.05,-207.12 199,-188 189.75,-174.44 192.58,-155.38 196.78,-141.41"/>
<polygon fill="midnightblue" stroke="midnightblue" points="200.11,-142.48 200.08,-131.89 193.5,-140.19 200.11,-142.48"/>
</g>
<!-- Node34&#45;&gt;Node26 -->
<g id="edge47" class="edge">
<title>Node34&#45;&gt;Node26</title>
<path fill="none" stroke="midnightblue" d="M381.8,-229.74C445.43,-225.15 542.58,-214.16 623,-188 641.15,-182.1 643.12,-174.66 661,-168 826.86,-106.2 879.35,-119.65 1055.05,-76.15"/>
<polygon fill="midnightblue" stroke="midnightblue" points="1056.03,-79.51 1064.88,-73.69 1054.33,-72.72 1056.03,-79.51"/>
</g>
<!-- Node35 -->
<g id="node35" class="node">
<title>Node35</title>
<g id="a_node35"><a xlink:title=" ">
<polygon fill="white" stroke="#bfbfbf" points="208,-168.5 208,-187.5 284,-187.5 284,-168.5 208,-168.5"/>
<text text-anchor="middle" x="246" y="-175.5" font-family="Helvetica,sans-Serif" font-size="10.00">QUdpSocket</text>
</a>
</g>
</g>
<!-- Node34&#45;&gt;Node35 -->
<g id="edge45" class="edge">
<title>Node34&#45;&gt;Node35</title>
<path fill="none" stroke="midnightblue" d="M303.07,-224.32C292.83,-216.18 277.28,-203.84 265,-194.09"/>
<polygon fill="midnightblue" stroke="midnightblue" points="267.13,-191.31 257.12,-187.83 262.78,-196.79 267.13,-191.31"/>
</g>
<!-- Node37 -->
<g id="node37" class="node">
<title>Node37</title>
<g id="a_node37"><a xlink:title=" ">
<polygon fill="white" stroke="#bfbfbf" points="1545,-168.5 1545,-187.5 1587,-187.5 1587,-168.5 1545,-168.5"/>
<text text-anchor="middle" x="1566" y="-175.5" font-family="Helvetica,sans-Serif" font-size="10.00">array</text>
</a>
</g>
</g>
<!-- Node36&#45;&gt;Node37 -->
<g id="edge51" class="edge">
<title>Node36&#45;&gt;Node37</title>
<path fill="none" stroke="midnightblue" d="M1566,-224.08C1566,-217.01 1566,-206.86 1566,-197.99"/>
<polygon fill="midnightblue" stroke="midnightblue" points="1569.5,-197.75 1566,-187.75 1562.5,-197.75 1569.5,-197.75"/>
</g>
</g>
</svg>
