<?xml version="1.0" encoding="UTF-8" standalone="no"?>
<!DOCTYPE svg PUBLIC "-//W3C//DTD SVG 1.1//EN"
 "http://www.w3.org/Graphics/SVG/1.1/DTD/svg11.dtd">
<!-- Generated by graphviz version 2.43.0 (0)
 -->
<!-- Title: Common/Utilities/SwapEndian.hpp Pages: 1 -->
<svg width="1504pt" height="419pt"
 viewBox="0.00 0.00 1503.91 419.00" xmlns="http://www.w3.org/2000/svg" xmlns:xlink="http://www.w3.org/1999/xlink">
<g id="graph0" class="graph" transform="scale(1 1) rotate(0) translate(4 415)">
<title>Common/Utilities/SwapEndian.hpp</title>
<polygon fill="white" stroke="transparent" points="-4,4 -4,-415 1499.91,-415 1499.91,4 -4,4"/>
<!-- Node1 -->
<g id="node1" class="node">
<title>Node1</title>
<g id="a_node1"><a xlink:title=" ">
<polygon fill="#bfbfbf" stroke="black" points="1190.5,-391.5 1190.5,-410.5 1375.5,-410.5 1375.5,-391.5 1190.5,-391.5"/>
<text text-anchor="middle" x="1283" y="-398.5" font-family="Helvetica,sans-Serif" font-size="10.00">Common/Utilities/SwapEndian.hpp</text>
</a>
</g>
</g>
<!-- Node2 -->
<g id="node2" class="node">
<title>Node2</title>
<g id="a_node2"><a xlink:href="Message_8hpp.html" target="_top" xlink:title=" ">
<polygon fill="white" stroke="black" points="989.5,-335.5 989.5,-354.5 1162.5,-354.5 1162.5,-335.5 989.5,-335.5"/>
<text text-anchor="middle" x="1076" y="-342.5" font-family="Helvetica,sans-Serif" font-size="10.00">Common/Network/Message.hpp</text>
</a>
</g>
</g>
<!-- Node1&#45;&gt;Node2 -->
<g id="edge1" class="edge">
<title>Node1&#45;&gt;Node2</title>
<path fill="none" stroke="midnightblue" d="M1240.18,-388.83C1201.09,-378.63 1144.17,-363.78 1108.65,-354.52"/>
<polygon fill="midnightblue" stroke="midnightblue" points="1239.64,-392.31 1250.2,-391.44 1241.41,-385.53 1239.64,-392.31"/>
</g>
<!-- Node23 -->
<g id="node23" class="node">
<title>Node23</title>
<g id="a_node23"><a xlink:href="AsioTCPConnection_8hpp.html" target="_top" xlink:title=" ">
<polygon fill="white" stroke="black" points="1335,-201.5 1335,-231.5 1469,-231.5 1469,-201.5 1335,-201.5"/>
<text text-anchor="start" x="1343" y="-219.5" font-family="Helvetica,sans-Serif" font-size="10.00">Server/src/Network</text>
<text text-anchor="middle" x="1402" y="-208.5" font-family="Helvetica,sans-Serif" font-size="10.00">/AsioTCPConnection.hpp</text>
</a>
</g>
</g>
<!-- Node1&#45;&gt;Node23 -->
<g id="edge48" class="edge">
<title>Node1&#45;&gt;Node23</title>
<path fill="none" stroke="midnightblue" d="M1331.6,-388.64C1376.14,-375.37 1439.48,-348.62 1469,-299 1476.04,-287.16 1475.15,-280.33 1469,-268 1461.14,-252.23 1445.74,-240.08 1431.69,-231.66"/>
<polygon fill="midnightblue" stroke="midnightblue" points="1330.5,-385.32 1321.84,-391.43 1332.42,-392.05 1330.5,-385.32"/>
</g>
<!-- Node3 -->
<g id="node3" class="node">
<title>Node3</title>
<g id="a_node3"><a xlink:href="HomePage_8cpp.html" target="_top" xlink:title=" ">
<polygon fill="white" stroke="black" points="147,-0.5 147,-30.5 257,-30.5 257,-0.5 147,-0.5"/>
<text text-anchor="start" x="155" y="-18.5" font-family="Helvetica,sans-Serif" font-size="10.00">Client/src/Windows</text>
<text text-anchor="middle" x="202" y="-7.5" font-family="Helvetica,sans-Serif" font-size="10.00">/HomePage.cpp</text>
</a>
</g>
</g>
<!-- Node2&#45;&gt;Node3 -->
<g id="edge2" class="edge">
<title>Node2&#45;&gt;Node3</title>
<path fill="none" stroke="midnightblue" d="M979.06,-336.46C795.07,-321.16 402.42,-283.5 277,-232 230.21,-212.79 207.94,-210.08 185,-165 162.17,-120.13 183.7,-57.99 195.47,-30.52"/>
<polygon fill="midnightblue" stroke="midnightblue" points="979.01,-339.97 989.26,-337.3 979.59,-332.99 979.01,-339.97"/>
</g>
<!-- Node4 -->
<g id="node4" class="node">
<title>Node4</title>
<g id="a_node4"><a xlink:href="ITCPConnection_8hpp.html" target="_top" xlink:title=" ">
<polygon fill="white" stroke="black" points="823.5,-274 823.5,-293 1028.5,-293 1028.5,-274 823.5,-274"/>
<text text-anchor="middle" x="926" y="-281" font-family="Helvetica,sans-Serif" font-size="10.00">Common/Network/ITCPConnection.hpp</text>
</a>
</g>
</g>
<!-- Node2&#45;&gt;Node4 -->
<g id="edge3" class="edge">
<title>Node2&#45;&gt;Node4</title>
<path fill="none" stroke="midnightblue" d="M1045.2,-331.78C1016.05,-320.22 973.05,-303.16 947.45,-293.01"/>
<polygon fill="midnightblue" stroke="midnightblue" points="1043.92,-335.04 1054.51,-335.48 1046.5,-328.53 1043.92,-335.04"/>
</g>
<!-- Node12 -->
<g id="node12" class="node">
<title>Node12</title>
<g id="a_node12"><a xlink:href="ITCPServer_8hpp.html" target="_top" xlink:title=" ">
<polygon fill="white" stroke="black" points="1135.5,-207 1135.5,-226 1316.5,-226 1316.5,-207 1135.5,-207"/>
<text text-anchor="middle" x="1226" y="-214" font-family="Helvetica,sans-Serif" font-size="10.00">Common/Network/ITCPServer.hpp</text>
</a>
</g>
</g>
<!-- Node2&#45;&gt;Node12 -->
<g id="edge35" class="edge">
<title>Node2&#45;&gt;Node12</title>
<path fill="none" stroke="midnightblue" d="M1081.28,-325.52C1086.94,-308.63 1097.42,-283.93 1114,-268 1135.92,-246.94 1168.14,-233.68 1192.4,-226.06"/>
<polygon fill="midnightblue" stroke="midnightblue" points="1077.86,-324.73 1078.24,-335.32 1084.55,-326.81 1077.86,-324.73"/>
</g>
<!-- Node14 -->
<g id="node14" class="node">
<title>Node14</title>
<g id="a_node14"><a xlink:href="BabelServer_8hpp.html" target="_top" xlink:title=" ">
<polygon fill="white" stroke="black" points="847,-67.5 847,-97.5 957,-97.5 957,-67.5 847,-67.5"/>
<text text-anchor="start" x="855" y="-85.5" font-family="Helvetica,sans-Serif" font-size="10.00">Server/src/Network</text>
<text text-anchor="middle" x="902" y="-74.5" font-family="Helvetica,sans-Serif" font-size="10.00">/BabelServer.hpp</text>
</a>
</g>
</g>
<!-- Node2&#45;&gt;Node14 -->
<g id="edge46" class="edge">
<title>Node2&#45;&gt;Node14</title>
<path fill="none" stroke="midnightblue" d="M979.25,-340.1C913.64,-335.19 835.15,-324.09 814,-299 805.12,-288.47 807.72,-280.26 814,-268 826.48,-243.63 847.68,-253.98 864,-232 882.77,-206.72 879.02,-195.45 887,-165 893.09,-141.76 897.62,-114.16 900.03,-97.78"/>
<polygon fill="midnightblue" stroke="midnightblue" points="979.02,-343.6 989.24,-340.81 979.51,-336.61 979.02,-343.6"/>
</g>
<!-- Node18 -->
<g id="node18" class="node">
<title>Node18</title>
<g id="a_node18"><a xlink:href="OwnedMessage_8hpp.html" target="_top" xlink:title=" ">
<polygon fill="white" stroke="black" points="911,-207 911,-226 1117,-226 1117,-207 911,-207"/>
<text text-anchor="middle" x="1014" y="-214" font-family="Helvetica,sans-Serif" font-size="10.00">Common/Network/OwnedMessage.hpp</text>
</a>
</g>
</g>
<!-- Node2&#45;&gt;Node18 -->
<g id="edge37" class="edge">
<title>Node2&#45;&gt;Node18</title>
<path fill="none" stroke="midnightblue" d="M1067.2,-326.04C1053.69,-298.48 1028.36,-246.81 1018.29,-226.26"/>
<polygon fill="midnightblue" stroke="midnightblue" points="1064.19,-327.87 1071.74,-335.31 1070.48,-324.79 1064.19,-327.87"/>
</g>
<!-- Node19 -->
<g id="node19" class="node">
<title>Node19</title>
<g id="a_node19"><a xlink:href="Call_8hpp.html" target="_top" xlink:title=" ">
<polygon fill="white" stroke="black" points="747,-207 747,-226 855,-226 855,-207 747,-207"/>
<text text-anchor="middle" x="801" y="-214" font-family="Helvetica,sans-Serif" font-size="10.00">Server/src/Call.hpp</text>
</a>
</g>
</g>
<!-- Node2&#45;&gt;Node19 -->
<g id="edge43" class="edge">
<title>Node2&#45;&gt;Node19</title>
<path fill="none" stroke="midnightblue" d="M979.2,-342.4C903.27,-338.86 806.32,-328.48 781,-299 762.77,-277.78 783.14,-242.55 794.46,-226.26"/>
<polygon fill="midnightblue" stroke="midnightblue" points="979.15,-345.91 989.29,-342.84 979.45,-338.91 979.15,-345.91"/>
</g>
<!-- Node21 -->
<g id="node21" class="node">
<title>Node21</title>
<g id="a_node21"><a xlink:href="Utils_8hpp.html" target="_top" xlink:title=" ">
<polygon fill="white" stroke="black" points="621.5,-201.5 621.5,-231.5 728.5,-231.5 728.5,-201.5 621.5,-201.5"/>
<text text-anchor="start" x="629.5" y="-219.5" font-family="Helvetica,sans-Serif" font-size="10.00">Server/src/Utilities</text>
<text text-anchor="middle" x="675" y="-208.5" font-family="Helvetica,sans-Serif" font-size="10.00">/Utils.hpp</text>
</a>
</g>
</g>
<!-- Node2&#45;&gt;Node21 -->
<g id="edge44" class="edge">
<title>Node2&#45;&gt;Node21</title>
<path fill="none" stroke="midnightblue" d="M979.48,-335.69C904.17,-328.12 806.42,-315.59 770,-299 735.2,-283.14 703.35,-250.57 686.84,-231.76"/>
<polygon fill="midnightblue" stroke="midnightblue" points="979.19,-339.18 989.48,-336.68 979.87,-332.21 979.19,-339.18"/>
</g>
<!-- Node2&#45;&gt;Node23 -->
<g id="edge45" class="edge">
<title>Node2&#45;&gt;Node23</title>
<path fill="none" stroke="midnightblue" d="M1172.55,-339.01C1277.77,-332.55 1433.69,-319.63 1452,-299 1470.73,-277.89 1442.54,-248.88 1421.48,-231.77"/>
<polygon fill="midnightblue" stroke="midnightblue" points="1172.31,-335.51 1162.54,-339.61 1172.73,-342.5 1172.31,-335.51"/>
</g>
<!-- Node24 -->
<g id="node24" class="node">
<title>Node24</title>
<g id="a_node24"><a xlink:href="IUDPClient_8hpp.html" target="_top" xlink:title=" ">
<polygon fill="white" stroke="black" points="1123,-274 1123,-293 1305,-293 1305,-274 1123,-274"/>
<text text-anchor="middle" x="1214" y="-281" font-family="Helvetica,sans-Serif" font-size="10.00">Common/Network/IUDPClient.hpp</text>
</a>
</g>
</g>
<!-- Node2&#45;&gt;Node24 -->
<g id="edge36" class="edge">
<title>Node2&#45;&gt;Node24</title>
<path fill="none" stroke="midnightblue" d="M1105.04,-331.48C1131.84,-319.92 1170.92,-303.08 1194.26,-293.01"/>
<polygon fill="midnightblue" stroke="midnightblue" points="1103.57,-328.3 1095.77,-335.48 1106.34,-334.73 1103.57,-328.3"/>
</g>
<!-- Node25 -->
<g id="node25" class="node">
<title>Node25</title>
<g id="a_node25"><a xlink:href="Utilities_8hpp.html" target="_top" xlink:title=" ">
<polygon fill="white" stroke="black" points="975,-73 975,-92 1139,-92 1139,-73 975,-73"/>
<text text-anchor="middle" x="1057" y="-80" font-family="Helvetica,sans-Serif" font-size="10.00">Common/Utilities/Utilities.hpp</text>
</a>
</g>
</g>
<!-- Node2&#45;&gt;Node25 -->
<g id="edge38" class="edge">
<title>Node2&#45;&gt;Node25</title>
<path fill="none" stroke="midnightblue" d="M1172.78,-339.06C1282.28,-332.53 1448.2,-319.4 1469,-299 1500.23,-268.38 1504.35,-235.91 1478,-201 1435.14,-144.22 1229.22,-107.58 1122.09,-92.04"/>
<polygon fill="midnightblue" stroke="midnightblue" points="1172.47,-335.57 1162.69,-339.65 1172.88,-342.56 1172.47,-335.57"/>
</g>
<!-- Node27 -->
<g id="node27" class="node">
<title>Node27</title>
<g id="a_node27"><a xlink:href="testsMessage_8cpp.html" target="_top" xlink:title=" ">
<polygon fill="white" stroke="black" points="1323.5,-268.5 1323.5,-298.5 1442.5,-298.5 1442.5,-268.5 1323.5,-268.5"/>
<text text-anchor="start" x="1331.5" y="-286.5" font-family="Helvetica,sans-Serif" font-size="10.00">Server/tests/Network</text>
<text text-anchor="middle" x="1383" y="-275.5" font-family="Helvetica,sans-Serif" font-size="10.00">/testsMessage.cpp</text>
</a>
</g>
</g>
<!-- Node2&#45;&gt;Node27 -->
<g id="edge47" class="edge">
<title>Node2&#45;&gt;Node27</title>
<path fill="none" stroke="midnightblue" d="M1132.51,-333.65C1180.77,-324.73 1252.02,-311.37 1314,-299 1317,-298.4 1320.07,-297.78 1323.18,-297.15"/>
<polygon fill="midnightblue" stroke="midnightblue" points="1131.77,-330.23 1122.57,-335.48 1133.04,-337.11 1131.77,-330.23"/>
</g>
<!-- Node5 -->
<g id="node5" class="node">
<title>Node5</title>
<g id="a_node5"><a xlink:href="QtTCPConnection_8hpp.html" target="_top" xlink:title=" ">
<polygon fill="white" stroke="black" points="286.5,-201.5 286.5,-231.5 411.5,-231.5 411.5,-201.5 286.5,-201.5"/>
<text text-anchor="start" x="294.5" y="-219.5" font-family="Helvetica,sans-Serif" font-size="10.00">Client/src/Network</text>
<text text-anchor="middle" x="349" y="-208.5" font-family="Helvetica,sans-Serif" font-size="10.00">/QtTCPConnection.hpp</text>
</a>
</g>
</g>
<!-- Node4&#45;&gt;Node5 -->
<g id="edge4" class="edge">
<title>Node4&#45;&gt;Node5</title>
<path fill="none" stroke="midnightblue" d="M840.25,-272.84C722.96,-259.63 515.26,-236.23 411.56,-224.55"/>
<polygon fill="midnightblue" stroke="midnightblue" points="839.94,-276.33 850.27,-273.97 840.73,-269.37 839.94,-276.33"/>
</g>
<!-- Node4&#45;&gt;Node12 -->
<g id="edge16" class="edge">
<title>Node4&#45;&gt;Node12</title>
<path fill="none" stroke="midnightblue" d="M975.37,-271.8C1034.41,-259.01 1132.04,-237.86 1186.38,-226.08"/>
<polygon fill="midnightblue" stroke="midnightblue" points="974.56,-268.4 965.53,-273.94 976.04,-275.24 974.56,-268.4"/>
</g>
<!-- Node4&#45;&gt;Node18 -->
<g id="edge22" class="edge">
<title>Node4&#45;&gt;Node18</title>
<path fill="none" stroke="midnightblue" d="M946.22,-267.57C963.59,-254.74 988.03,-236.69 1002.32,-226.13"/>
<polygon fill="midnightblue" stroke="midnightblue" points="943.83,-264.98 937.87,-273.73 947.99,-270.61 943.83,-264.98"/>
</g>
<!-- Node4&#45;&gt;Node19 -->
<g id="edge24" class="edge">
<title>Node4&#45;&gt;Node19</title>
<path fill="none" stroke="midnightblue" d="M900.24,-269.1C875.48,-256.23 838.81,-237.16 817.67,-226.17"/>
<polygon fill="midnightblue" stroke="midnightblue" points="898.91,-272.36 909.4,-273.87 902.14,-266.15 898.91,-272.36"/>
</g>
<!-- Node4&#45;&gt;Node21 -->
<g id="edge28" class="edge">
<title>Node4&#45;&gt;Node21</title>
<path fill="none" stroke="midnightblue" d="M883.14,-271.4C840.49,-260.36 774.94,-243.38 728.81,-231.44"/>
<polygon fill="midnightblue" stroke="midnightblue" points="882.37,-274.82 892.93,-273.94 884.12,-268.04 882.37,-274.82"/>
</g>
<!-- Node4&#45;&gt;Node23 -->
<g id="edge32" class="edge">
<title>Node4&#45;&gt;Node23</title>
<path fill="none" stroke="midnightblue" d="M1015.33,-272.85C1096.54,-263.69 1219.59,-248.85 1326,-232 1328.92,-231.54 1331.9,-231.05 1334.9,-230.54"/>
<polygon fill="midnightblue" stroke="midnightblue" points="1014.69,-269.4 1005.14,-274 1015.47,-276.36 1014.69,-269.4"/>
</g>
<!-- Node6 -->
<g id="node6" class="node">
<title>Node6</title>
<g id="a_node6"><a xlink:href="Client_2src_2main_8cpp.html" target="_top" xlink:title=" ">
<polygon fill="white" stroke="black" points="0,-6 0,-25 110,-25 110,-6 0,-6"/>
<text text-anchor="middle" x="55" y="-13" font-family="Helvetica,sans-Serif" font-size="10.00">Client/src/main.cpp</text>
</a>
</g>
</g>
<!-- Node5&#45;&gt;Node6 -->
<g id="edge5" class="edge">
<title>Node5&#45;&gt;Node6</title>
<path fill="none" stroke="midnightblue" d="M276.49,-214.37C196.69,-208.6 73.09,-185.16 23,-98 8.76,-73.22 32.69,-40.88 46.41,-25.45"/>
<polygon fill="midnightblue" stroke="midnightblue" points="276.28,-217.86 286.48,-215.01 276.73,-210.87 276.28,-217.86"/>
</g>
<!-- Node7 -->
<g id="node7" class="node">
<title>Node7</title>
<g id="a_node7"><a xlink:href="HomePage_8hpp.html" target="_top" xlink:title=" ">
<polygon fill="white" stroke="black" points="32,-67.5 32,-97.5 142,-97.5 142,-67.5 32,-67.5"/>
<text text-anchor="start" x="40" y="-85.5" font-family="Helvetica,sans-Serif" font-size="10.00">Client/src/Windows</text>
<text text-anchor="middle" x="87" y="-74.5" font-family="Helvetica,sans-Serif" font-size="10.00">/HomePage.hpp</text>
</a>
</g>
</g>
<!-- Node5&#45;&gt;Node7 -->
<g id="edge6" class="edge">
<title>Node5&#45;&gt;Node7</title>
<path fill="none" stroke="midnightblue" d="M276.52,-199.8C247.07,-191.76 213.36,-180.36 185,-165 151.14,-146.67 118.04,-115.61 100.3,-97.59"/>
<polygon fill="midnightblue" stroke="midnightblue" points="275.77,-203.22 286.33,-202.4 277.56,-196.45 275.77,-203.22"/>
</g>
<!-- Node8 -->
<g id="node8" class="node">
<title>Node8</title>
<g id="a_node8"><a xlink:href="QtTCPConnection_8cpp.html" target="_top" xlink:title=" ">
<polygon fill="white" stroke="black" points="366,-134.5 366,-164.5 490,-164.5 490,-134.5 366,-134.5"/>
<text text-anchor="start" x="374" y="-152.5" font-family="Helvetica,sans-Serif" font-size="10.00">Client/src/Network</text>
<text text-anchor="middle" x="428" y="-141.5" font-family="Helvetica,sans-Serif" font-size="10.00">/QtTCPConnection.cpp</text>
</a>
</g>
</g>
<!-- Node5&#45;&gt;Node8 -->
<g id="edge9" class="edge">
<title>Node5&#45;&gt;Node8</title>
<path fill="none" stroke="midnightblue" d="M374.06,-194.88C386.06,-185.01 400.13,-173.43 410.89,-164.58"/>
<polygon fill="midnightblue" stroke="midnightblue" points="371.64,-192.34 366.14,-201.4 376.09,-197.75 371.64,-192.34"/>
</g>
<!-- Node9 -->
<g id="node9" class="node">
<title>Node9</title>
<g id="a_node9"><a xlink:href="SoundHandler_8cpp.html" target="_top" xlink:title=" ">
<polygon fill="white" stroke="black" points="370.5,-73 370.5,-92 523.5,-92 523.5,-73 370.5,-73"/>
<text text-anchor="middle" x="447" y="-80" font-family="Helvetica,sans-Serif" font-size="10.00">Client/src/SoundHandler.cpp</text>
</a>
</g>
</g>
<!-- Node5&#45;&gt;Node9 -->
<g id="edge10" class="edge">
<title>Node5&#45;&gt;Node9</title>
<path fill="none" stroke="midnightblue" d="M421.79,-209.08C450.68,-202.54 481.22,-189.75 499,-165 517.51,-139.24 480.35,-107.09 459.62,-92.03"/>
<polygon fill="midnightblue" stroke="midnightblue" points="420.76,-205.71 411.66,-211.14 422.15,-212.57 420.76,-205.71"/>
</g>
<!-- Node10 -->
<g id="node10" class="node">
<title>Node10</title>
<g id="a_node10"><a xlink:href="SoundHandler_8hpp.html" target="_top" xlink:title=" ">
<polygon fill="white" stroke="black" points="194,-140 194,-159 348,-159 348,-140 194,-140"/>
<text text-anchor="middle" x="271" y="-147" font-family="Helvetica,sans-Serif" font-size="10.00">Client/src/SoundHandler.hpp</text>
</a>
</g>
</g>
<!-- Node5&#45;&gt;Node10 -->
<g id="edge11" class="edge">
<title>Node5&#45;&gt;Node10</title>
<path fill="none" stroke="midnightblue" d="M324.01,-194.67C309.6,-182.67 292.26,-168.22 281.43,-159.19"/>
<polygon fill="midnightblue" stroke="midnightblue" points="322.15,-197.68 332.08,-201.4 326.63,-192.31 322.15,-197.68"/>
</g>
<!-- Node7&#45;&gt;Node3 -->
<g id="edge8" class="edge">
<title>Node7&#45;&gt;Node3</title>
<path fill="none" stroke="midnightblue" d="M120.98,-62.3C138.97,-52.12 160.68,-39.85 177.1,-30.58"/>
<polygon fill="midnightblue" stroke="midnightblue" points="118.94,-59.43 111.95,-67.4 122.38,-65.52 118.94,-59.43"/>
</g>
<!-- Node7&#45;&gt;Node6 -->
<g id="edge7" class="edge">
<title>Node7&#45;&gt;Node6</title>
<path fill="none" stroke="midnightblue" d="M75.57,-58.29C69.92,-46.8 63.43,-33.63 59.28,-25.19"/>
<polygon fill="midnightblue" stroke="midnightblue" points="72.5,-59.97 80.06,-67.4 78.78,-56.88 72.5,-59.97"/>
</g>
<!-- Node10&#45;&gt;Node3 -->
<g id="edge15" class="edge">
<title>Node10&#45;&gt;Node3</title>
<path fill="none" stroke="midnightblue" d="M289.22,-133C306.61,-116.25 328.23,-89.02 314,-67 301.21,-47.2 278.59,-35.09 257.02,-27.71"/>
<polygon fill="midnightblue" stroke="midnightblue" points="286.69,-130.56 281.67,-139.89 291.41,-135.73 286.69,-130.56"/>
</g>
<!-- Node10&#45;&gt;Node7 -->
<g id="edge12" class="edge">
<title>Node10&#45;&gt;Node7</title>
<path fill="none" stroke="midnightblue" d="M237,-136.49C205.81,-125.47 159.59,-109.14 126.71,-97.53"/>
<polygon fill="midnightblue" stroke="midnightblue" points="235.97,-139.84 246.57,-139.87 238.3,-133.24 235.97,-139.84"/>
</g>
<!-- Node10&#45;&gt;Node9 -->
<g id="edge14" class="edge">
<title>Node10&#45;&gt;Node9</title>
<path fill="none" stroke="midnightblue" d="M304.11,-136.27C339.04,-123.37 393.18,-103.38 423.81,-92.06"/>
<polygon fill="midnightblue" stroke="midnightblue" points="302.54,-133.12 294.37,-139.87 304.96,-139.69 302.54,-133.12"/>
</g>
<!-- Node11 -->
<g id="node11" class="node">
<title>Node11</title>
<g id="a_node11"><a xlink:href="UDPSocket_8cpp.html" target="_top" xlink:title=" ">
<polygon fill="white" stroke="black" points="198.5,-67.5 198.5,-97.5 305.5,-97.5 305.5,-67.5 198.5,-67.5"/>
<text text-anchor="start" x="206.5" y="-85.5" font-family="Helvetica,sans-Serif" font-size="10.00">Client/src/Network</text>
<text text-anchor="middle" x="252" y="-74.5" font-family="Helvetica,sans-Serif" font-size="10.00">/UDPSocket.cpp</text>
</a>
</g>
</g>
<!-- Node10&#45;&gt;Node11 -->
<g id="edge13" class="edge">
<title>Node10&#45;&gt;Node11</title>
<path fill="none" stroke="midnightblue" d="M265.61,-130.06C262.6,-119.75 258.9,-107.1 256.12,-97.59"/>
<polygon fill="midnightblue" stroke="midnightblue" points="262.27,-131.12 268.44,-139.73 268.99,-129.15 262.27,-131.12"/>
</g>
<!-- Node13 -->
<g id="node13" class="node">
<title>Node13</title>
<g id="a_node13"><a xlink:href="AsioTCPServer_8hpp.html" target="_top" xlink:title=" ">
<polygon fill="white" stroke="black" points="1065,-134.5 1065,-164.5 1175,-164.5 1175,-134.5 1065,-134.5"/>
<text text-anchor="start" x="1073" y="-152.5" font-family="Helvetica,sans-Serif" font-size="10.00">Server/src/Network</text>
<text text-anchor="middle" x="1120" y="-141.5" font-family="Helvetica,sans-Serif" font-size="10.00">/AsioTCPServer.hpp</text>
</a>
</g>
</g>
<!-- Node12&#45;&gt;Node13 -->
<g id="edge17" class="edge">
<title>Node12&#45;&gt;Node13</title>
<path fill="none" stroke="midnightblue" d="M1203.09,-201.45C1185.31,-190.55 1160.77,-175.5 1142.98,-164.59"/>
<polygon fill="midnightblue" stroke="midnightblue" points="1201.35,-204.49 1211.7,-206.73 1205.01,-198.52 1201.35,-204.49"/>
</g>
<!-- Node13&#45;&gt;Node14 -->
<g id="edge18" class="edge">
<title>Node13&#45;&gt;Node14</title>
<path fill="none" stroke="midnightblue" d="M1063.25,-131.58C1027.84,-121.02 982.8,-107.59 949.33,-97.61"/>
<polygon fill="midnightblue" stroke="midnightblue" points="1062.38,-134.97 1072.97,-134.48 1064.38,-128.26 1062.38,-134.97"/>
</g>
<!-- Node15 -->
<g id="node15" class="node">
<title>Node15</title>
<g id="a_node15"><a xlink:href="Server_2src_2main_8cpp.html" target="_top" xlink:title=" ">
<polygon fill="white" stroke="black" points="912.5,-6 912.5,-25 1025.5,-25 1025.5,-6 912.5,-6"/>
<text text-anchor="middle" x="969" y="-13" font-family="Helvetica,sans-Serif" font-size="10.00">Server/src/main.cpp</text>
</a>
</g>
</g>
<!-- Node14&#45;&gt;Node15 -->
<g id="edge19" class="edge">
<title>Node14&#45;&gt;Node15</title>
<path fill="none" stroke="midnightblue" d="M923.82,-60.34C936.12,-48.4 950.82,-34.14 960.04,-25.19"/>
<polygon fill="midnightblue" stroke="midnightblue" points="921.28,-57.92 916.54,-67.4 926.15,-62.94 921.28,-57.92"/>
</g>
<!-- Node16 -->
<g id="node16" class="node">
<title>Node16</title>
<g id="a_node16"><a xlink:href="BabelServer_8cpp.html" target="_top" xlink:title=" ">
<polygon fill="white" stroke="black" points="593,-0.5 593,-30.5 703,-30.5 703,-0.5 593,-0.5"/>
<text text-anchor="start" x="601" y="-18.5" font-family="Helvetica,sans-Serif" font-size="10.00">Server/src/Network</text>
<text text-anchor="middle" x="648" y="-7.5" font-family="Helvetica,sans-Serif" font-size="10.00">/BabelServer.cpp</text>
</a>
</g>
</g>
<!-- Node14&#45;&gt;Node16 -->
<g id="edge20" class="edge">
<title>Node14&#45;&gt;Node16</title>
<path fill="none" stroke="midnightblue" d="M837.46,-64.98C795.97,-54.37 742.64,-40.72 703.14,-30.61"/>
<polygon fill="midnightblue" stroke="midnightblue" points="836.64,-68.39 847.2,-67.48 838.38,-61.61 836.64,-68.39"/>
</g>
<!-- Node17 -->
<g id="node17" class="node">
<title>Node17</title>
<g id="a_node17"><a xlink:href="testRequests_8cpp.html" target="_top" xlink:title=" ">
<polygon fill="white" stroke="black" points="775.5,-0.5 775.5,-30.5 894.5,-30.5 894.5,-0.5 775.5,-0.5"/>
<text text-anchor="start" x="783.5" y="-18.5" font-family="Helvetica,sans-Serif" font-size="10.00">Server/tests/Network</text>
<text text-anchor="middle" x="835" y="-7.5" font-family="Helvetica,sans-Serif" font-size="10.00">/testRequests.cpp</text>
</a>
</g>
</g>
<!-- Node14&#45;&gt;Node17 -->
<g id="edge21" class="edge">
<title>Node14&#45;&gt;Node17</title>
<path fill="none" stroke="midnightblue" d="M880.16,-60.31C870.11,-50.56 858.46,-39.26 849.51,-30.58"/>
<polygon fill="midnightblue" stroke="midnightblue" points="877.85,-62.94 887.46,-67.4 882.72,-57.92 877.85,-62.94"/>
</g>
<!-- Node18&#45;&gt;Node13 -->
<g id="edge23" class="edge">
<title>Node18&#45;&gt;Node13</title>
<path fill="none" stroke="midnightblue" d="M1036.91,-201.45C1054.69,-190.55 1079.23,-175.5 1097.02,-164.59"/>
<polygon fill="midnightblue" stroke="midnightblue" points="1034.99,-198.52 1028.3,-206.73 1038.65,-204.49 1034.99,-198.52"/>
</g>
<!-- Node19&#45;&gt;Node14 -->
<g id="edge26" class="edge">
<title>Node19&#45;&gt;Node14</title>
<path fill="none" stroke="midnightblue" d="M823.16,-201.15C836.02,-191.98 851.84,-179.18 863,-165 879.59,-143.92 891.42,-114.64 897.44,-97.52"/>
<polygon fill="midnightblue" stroke="midnightblue" points="821.08,-198.33 814.82,-206.89 825.04,-204.1 821.08,-198.33"/>
</g>
<!-- Node19&#45;&gt;Node16 -->
<g id="edge27" class="edge">
<title>Node19&#45;&gt;Node16</title>
<path fill="none" stroke="midnightblue" d="M754.8,-204.58C700.58,-191.53 617.42,-170.76 613,-165 581.57,-124.01 618.33,-59.31 637.63,-30.79"/>
<polygon fill="midnightblue" stroke="midnightblue" points="754.03,-207.99 764.57,-206.91 755.66,-201.18 754.03,-207.99"/>
</g>
<!-- Node20 -->
<g id="node20" class="node">
<title>Node20</title>
<g id="a_node20"><a xlink:href="Call_8cpp.html" target="_top" xlink:title=" ">
<polygon fill="white" stroke="black" points="747.5,-140 747.5,-159 854.5,-159 854.5,-140 747.5,-140"/>
<text text-anchor="middle" x="801" y="-147" font-family="Helvetica,sans-Serif" font-size="10.00">Server/src/Call.cpp</text>
</a>
</g>
</g>
<!-- Node19&#45;&gt;Node20 -->
<g id="edge25" class="edge">
<title>Node19&#45;&gt;Node20</title>
<path fill="none" stroke="midnightblue" d="M801,-196.54C801,-184.17 801,-168.62 801,-159.13"/>
<polygon fill="midnightblue" stroke="midnightblue" points="797.5,-196.73 801,-206.73 804.5,-196.73 797.5,-196.73"/>
</g>
<!-- Node21&#45;&gt;Node16 -->
<g id="edge30" class="edge">
<title>Node21&#45;&gt;Node16</title>
<path fill="none" stroke="midnightblue" d="M639.92,-195.54C629.26,-187.54 618.83,-177.27 613,-165 591.06,-118.83 622.09,-57.87 638.7,-30.67"/>
<polygon fill="midnightblue" stroke="midnightblue" points="638.23,-198.63 648.44,-201.47 642.23,-192.88 638.23,-198.63"/>
</g>
<!-- Node21&#45;&gt;Node20 -->
<g id="edge29" class="edge">
<title>Node21&#45;&gt;Node20</title>
<path fill="none" stroke="midnightblue" d="M711.24,-196.8C735.4,-184.34 766,-168.56 784.51,-159.01"/>
<polygon fill="midnightblue" stroke="midnightblue" points="709.62,-193.7 702.34,-201.4 712.83,-199.92 709.62,-193.7"/>
</g>
<!-- Node22 -->
<g id="node22" class="node">
<title>Node22</title>
<g id="a_node22"><a xlink:href="Utils_8cpp.html" target="_top" xlink:title=" ">
<polygon fill="white" stroke="black" points="622.5,-134.5 622.5,-164.5 729.5,-164.5 729.5,-134.5 622.5,-134.5"/>
<text text-anchor="start" x="630.5" y="-152.5" font-family="Helvetica,sans-Serif" font-size="10.00">Server/src/Utilities</text>
<text text-anchor="middle" x="676" y="-141.5" font-family="Helvetica,sans-Serif" font-size="10.00">/Utils.cpp</text>
</a>
</g>
</g>
<!-- Node21&#45;&gt;Node22 -->
<g id="edge31" class="edge">
<title>Node21&#45;&gt;Node22</title>
<path fill="none" stroke="midnightblue" d="M675.38,-191.11C675.51,-182.15 675.66,-172.32 675.78,-164.58"/>
<polygon fill="midnightblue" stroke="midnightblue" points="671.87,-191.34 675.22,-201.4 678.87,-191.45 671.87,-191.34"/>
</g>
<!-- Node23&#45;&gt;Node13 -->
<g id="edge33" class="edge">
<title>Node23&#45;&gt;Node13</title>
<path fill="none" stroke="midnightblue" d="M1331.37,-199.22C1282.96,-188.06 1219.67,-173.47 1175,-163.18"/>
<polygon fill="midnightblue" stroke="midnightblue" points="1330.63,-202.64 1341.16,-201.48 1332.2,-195.82 1330.63,-202.64"/>
</g>
<!-- Node23&#45;&gt;Node14 -->
<g id="edge34" class="edge">
<title>Node23&#45;&gt;Node14</title>
<path fill="none" stroke="midnightblue" d="M1360.8,-197.35C1317.54,-178.95 1247.15,-150.85 1184,-134 1089.12,-108.69 1062.37,-116.86 966,-98 963.09,-97.43 960.12,-96.83 957.11,-96.2"/>
<polygon fill="midnightblue" stroke="midnightblue" points="1359.57,-200.63 1370.14,-201.35 1362.32,-194.19 1359.57,-200.63"/>
</g>
<!-- Node25&#45;&gt;Node3 -->
<g id="edge39" class="edge">
<title>Node25&#45;&gt;Node3</title>
<path fill="none" stroke="midnightblue" d="M999.04,-71.45C988.09,-69.78 976.71,-68.2 966,-67 701.48,-37.25 383.31,-23.14 257.28,-18.41"/>
<polygon fill="midnightblue" stroke="midnightblue" points="998.52,-74.91 1008.94,-73 999.6,-67.99 998.52,-74.91"/>
</g>
<!-- Node25&#45;&gt;Node15 -->
<g id="edge41" class="edge">
<title>Node25&#45;&gt;Node15</title>
<path fill="none" stroke="midnightblue" d="M1036.78,-66.57C1019.41,-53.74 994.97,-35.69 980.68,-25.13"/>
<polygon fill="midnightblue" stroke="midnightblue" points="1035.01,-69.61 1045.13,-72.73 1039.17,-63.98 1035.01,-69.61"/>
</g>
<!-- Node25&#45;&gt;Node16 -->
<g id="edge42" class="edge">
<title>Node25&#45;&gt;Node16</title>
<path fill="none" stroke="midnightblue" d="M993.63,-71.4C984.36,-69.92 974.93,-68.42 966,-67 873.81,-52.33 766.57,-35.31 703.15,-25.25"/>
<polygon fill="midnightblue" stroke="midnightblue" points="993.16,-74.87 1003.59,-72.98 994.26,-67.96 993.16,-74.87"/>
</g>
<!-- Node26 -->
<g id="node26" class="node">
<title>Node26</title>
<g id="a_node26"><a xlink:href="Utilities_8cpp.html" target="_top" xlink:title=" ">
<polygon fill="white" stroke="black" points="1044,-6 1044,-25 1208,-25 1208,-6 1044,-6"/>
<text text-anchor="middle" x="1126" y="-13" font-family="Helvetica,sans-Serif" font-size="10.00">Common/Utilities/Utilities.cpp</text>
</a>
</g>
</g>
<!-- Node25&#45;&gt;Node26 -->
<g id="edge40" class="edge">
<title>Node25&#45;&gt;Node26</title>
<path fill="none" stroke="midnightblue" d="M1073.61,-65.86C1087.17,-53.08 1105.84,-35.49 1116.84,-25.13"/>
<polygon fill="midnightblue" stroke="midnightblue" points="1071.18,-63.33 1066.31,-72.73 1075.98,-68.42 1071.18,-63.33"/>
</g>
</g>
</svg>
