<?xml version="1.0" encoding="UTF-8" standalone="no"?>
<!DOCTYPE svg PUBLIC "-//W3C//DTD SVG 1.1//EN"
 "http://www.w3.org/Graphics/SVG/1.1/DTD/svg11.dtd">
<!-- Generated by graphviz version 2.43.0 (0)
 -->
<!-- Title: Server/tests/Network/testRequests.cpp Pages: 1 -->
<svg width="1852pt" height="431pt"
 viewBox="0.00 0.00 1851.52 431.00" xmlns="http://www.w3.org/2000/svg" xmlns:xlink="http://www.w3.org/1999/xlink">
<g id="graph0" class="graph" transform="scale(1 1) rotate(0) translate(4 427)">
<title>Server/tests/Network/testRequests.cpp</title>
<polygon fill="white" stroke="transparent" points="-4,4 -4,-427 1847.52,-427 1847.52,4 -4,4"/>
<!-- Node1 -->
<g id="node1" class="node">
<title>Node1</title>
<g id="a_node1"><a xlink:title=" ">
<polygon fill="#bfbfbf" stroke="black" points="68,-392.5 68,-422.5 187,-422.5 187,-392.5 68,-392.5"/>
<text text-anchor="start" x="76" y="-410.5" font-family="Helvetica,sans-Serif" font-size="10.00">Server/tests/Network</text>
<text text-anchor="middle" x="127.5" y="-399.5" font-family="Helvetica,sans-Serif" font-size="10.00">/testRequests.cpp</text>
</a>
</g>
</g>
<!-- Node2 -->
<g id="node2" class="node">
<title>Node2</title>
<g id="a_node2"><a xlink:title=" ">
<polygon fill="white" stroke="#bfbfbf" points="0,-336.5 0,-355.5 99,-355.5 99,-336.5 0,-336.5"/>
<text text-anchor="middle" x="49.5" y="-343.5" font-family="Helvetica,sans-Serif" font-size="10.00">catch2/catch.hpp</text>
</a>
</g>
</g>
<!-- Node1&#45;&gt;Node2 -->
<g id="edge1" class="edge">
<title>Node1&#45;&gt;Node2</title>
<path fill="none" stroke="midnightblue" d="M109.02,-392.4C96.98,-383.22 81.3,-371.26 69.06,-361.92"/>
<polygon fill="midnightblue" stroke="midnightblue" points="70.92,-358.94 60.85,-355.66 66.68,-364.51 70.92,-358.94"/>
</g>
<!-- Node3 -->
<g id="node3" class="node">
<title>Node3</title>
<g id="a_node3"><a xlink:title=" ">
<polygon fill="white" stroke="#bfbfbf" points="367.5,-0.5 367.5,-19.5 417.5,-19.5 417.5,-0.5 367.5,-0.5"/>
<text text-anchor="middle" x="392.5" y="-7.5" font-family="Helvetica,sans-Serif" font-size="10.00">cstdint</text>
</a>
</g>
</g>
<!-- Node1&#45;&gt;Node3 -->
<g id="edge2" class="edge">
<title>Node1&#45;&gt;Node3</title>
<path fill="none" stroke="midnightblue" d="M127.5,-392.28C127.5,-370.48 127.5,-327.49 127.5,-291 127.5,-291 127.5,-291 127.5,-121 127.5,-22.72 284.9,-10.59 357.09,-10.2"/>
<polygon fill="midnightblue" stroke="midnightblue" points="357.08,-13.7 367.09,-10.21 357.1,-6.7 357.08,-13.7"/>
</g>
<!-- Node4 -->
<g id="node4" class="node">
<title>Node4</title>
<g id="a_node4"><a xlink:href="BabelServer_8hpp.html" target="_top" xlink:title=" ">
<polygon fill="white" stroke="black" points="1330.5,-336.5 1330.5,-355.5 1470.5,-355.5 1470.5,-336.5 1330.5,-336.5"/>
<text text-anchor="middle" x="1400.5" y="-343.5" font-family="Helvetica,sans-Serif" font-size="10.00">Network/BabelServer.hpp</text>
</a>
</g>
</g>
<!-- Node1&#45;&gt;Node4 -->
<g id="edge3" class="edge">
<title>Node1&#45;&gt;Node4</title>
<path fill="none" stroke="midnightblue" d="M187.19,-403.71C394.5,-394.02 1083.48,-361.82 1319.99,-350.76"/>
<polygon fill="midnightblue" stroke="midnightblue" points="1320.4,-354.25 1330.23,-350.28 1320.08,-347.26 1320.4,-354.25"/>
</g>
<!-- Node5 -->
<g id="node5" class="node">
<title>Node5</title>
<g id="a_node5"><a xlink:href="AsioTCPServer_8hpp.html" target="_top" xlink:title=" ">
<polygon fill="white" stroke="black" points="818,-280.5 818,-299.5 925,-299.5 925,-280.5 818,-280.5"/>
<text text-anchor="middle" x="871.5" y="-287.5" font-family="Helvetica,sans-Serif" font-size="10.00">AsioTCPServer.hpp</text>
</a>
</g>
</g>
<!-- Node4&#45;&gt;Node5 -->
<g id="edge4" class="edge">
<title>Node4&#45;&gt;Node5</title>
<path fill="none" stroke="midnightblue" d="M1330.25,-337.83C1226.83,-327.27 1035.11,-307.7 935.43,-297.53"/>
<polygon fill="midnightblue" stroke="midnightblue" points="935.5,-294.02 925.2,-296.48 934.79,-300.98 935.5,-294.02"/>
</g>
<!-- Node9 -->
<g id="node9" class="node">
<title>Node9</title>
<g id="a_node9"><a xlink:title=" ">
<polygon fill="white" stroke="#bfbfbf" points="1448.5,-56.5 1448.5,-75.5 1508.5,-75.5 1508.5,-56.5 1448.5,-56.5"/>
<text text-anchor="middle" x="1478.5" y="-63.5" font-family="Helvetica,sans-Serif" font-size="10.00">iostream</text>
</a>
</g>
</g>
<!-- Node4&#45;&gt;Node9 -->
<g id="edge68" class="edge">
<title>Node4&#45;&gt;Node9</title>
<path fill="none" stroke="midnightblue" d="M1414.29,-336.28C1444.53,-316.81 1514.92,-269.53 1526.5,-244 1551.77,-188.32 1512.11,-116.57 1490.72,-84.2"/>
<polygon fill="midnightblue" stroke="midnightblue" points="1493.53,-82.1 1485,-75.81 1487.75,-86.05 1493.53,-82.1"/>
</g>
<!-- Node11 -->
<g id="node11" class="node">
<title>Node11</title>
<g id="a_node11"><a xlink:href="AsioTCPConnection_8hpp.html" target="_top" xlink:title=" ">
<polygon fill="white" stroke="black" points="1151.5,-224.5 1151.5,-243.5 1327.5,-243.5 1327.5,-224.5 1151.5,-224.5"/>
<text text-anchor="middle" x="1239.5" y="-231.5" font-family="Helvetica,sans-Serif" font-size="10.00">Network/AsioTCPConnection.hpp</text>
</a>
</g>
</g>
<!-- Node4&#45;&gt;Node11 -->
<g id="edge51" class="edge">
<title>Node4&#45;&gt;Node11</title>
<path fill="none" stroke="midnightblue" d="M1387.87,-336.37C1360.24,-317.49 1294.22,-272.38 1260.34,-249.24"/>
<polygon fill="midnightblue" stroke="midnightblue" points="1262.31,-246.34 1252.07,-243.59 1258.36,-252.12 1262.31,-246.34"/>
</g>
<!-- Node12 -->
<g id="node12" class="node">
<title>Node12</title>
<g id="a_node12"><a xlink:title=" ">
<polygon fill="white" stroke="#bfbfbf" points="1403,-112.5 1403,-131.5 1468,-131.5 1468,-112.5 1403,-112.5"/>
<text text-anchor="middle" x="1435.5" y="-119.5" font-family="Helvetica,sans-Serif" font-size="10.00">functional</text>
</a>
</g>
</g>
<!-- Node4&#45;&gt;Node12 -->
<g id="edge61" class="edge">
<title>Node4&#45;&gt;Node12</title>
<path fill="none" stroke="midnightblue" d="M1408.1,-336.14C1419.39,-323.2 1441.51,-298.64 1462.5,-280 1482.44,-262.29 1498.57,-267.85 1510.5,-244 1530.43,-204.13 1485.06,-160.39 1456.5,-138.01"/>
<polygon fill="midnightblue" stroke="midnightblue" points="1458.36,-135.03 1448.27,-131.78 1454.13,-140.61 1458.36,-135.03"/>
</g>
<!-- Node17 -->
<g id="node17" class="node">
<title>Node17</title>
<g id="a_node17"><a xlink:title=" ">
<polygon fill="white" stroke="#bfbfbf" points="434.5,-112.5 434.5,-131.5 478.5,-131.5 478.5,-112.5 434.5,-112.5"/>
<text text-anchor="middle" x="456.5" y="-119.5" font-family="Helvetica,sans-Serif" font-size="10.00">string</text>
</a>
</g>
</g>
<!-- Node4&#45;&gt;Node17 -->
<g id="edge70" class="edge">
<title>Node4&#45;&gt;Node17</title>
<path fill="none" stroke="midnightblue" d="M1330.35,-343.17C1119.75,-336.94 504.13,-312.92 449.5,-244 426.06,-214.44 438.89,-166.93 448.68,-141.12"/>
<polygon fill="midnightblue" stroke="midnightblue" points="451.95,-142.37 452.45,-131.79 445.46,-139.75 451.95,-142.37"/>
</g>
<!-- Node19 -->
<g id="node19" class="node">
<title>Node19</title>
<g id="a_node19"><a xlink:href="Message_8hpp.html" target="_top" xlink:title=" ">
<polygon fill="white" stroke="black" points="1038,-112.5 1038,-131.5 1163,-131.5 1163,-112.5 1038,-112.5"/>
<text text-anchor="middle" x="1100.5" y="-119.5" font-family="Helvetica,sans-Serif" font-size="10.00">Network/Message.hpp</text>
</a>
</g>
</g>
<!-- Node4&#45;&gt;Node19 -->
<g id="edge52" class="edge">
<title>Node4&#45;&gt;Node19</title>
<path fill="none" stroke="midnightblue" d="M1341.65,-336.5C1283.57,-325.14 1195.93,-299.56 1142.5,-244 1114.98,-215.38 1105.41,-167.81 1102.15,-141.66"/>
<polygon fill="midnightblue" stroke="midnightblue" points="1105.61,-141.15 1101.07,-131.58 1098.65,-141.9 1105.61,-141.15"/>
</g>
<!-- Node23 -->
<g id="node23" class="node">
<title>Node23</title>
<g id="a_node23"><a xlink:title=" ">
<polygon fill="white" stroke="#bfbfbf" points="1668.5,-56.5 1668.5,-75.5 1732.5,-75.5 1732.5,-56.5 1668.5,-56.5"/>
<text text-anchor="middle" x="1700.5" y="-63.5" font-family="Helvetica,sans-Serif" font-size="10.00">algorithm</text>
</a>
</g>
</g>
<!-- Node4&#45;&gt;Node23 -->
<g id="edge69" class="edge">
<title>Node4&#45;&gt;Node23</title>
<path fill="none" stroke="midnightblue" d="M1470.8,-341.76C1584.08,-335.91 1797.04,-322.11 1823.5,-300 1846.59,-280.7 1842.5,-265.1 1842.5,-235 1842.5,-235 1842.5,-235 1842.5,-177 1842.5,-125.07 1782.41,-94.15 1740.41,-78.89"/>
<polygon fill="midnightblue" stroke="midnightblue" points="1741.56,-75.58 1730.96,-75.6 1739.26,-82.19 1741.56,-75.58"/>
</g>
<!-- Node30 -->
<g id="node30" class="node">
<title>Node30</title>
<g id="a_node30"><a xlink:href="RFCCodes_8hpp.html" target="_top" xlink:title=" ">
<polygon fill="white" stroke="black" points="156,-168.5 156,-187.5 287,-187.5 287,-168.5 156,-168.5"/>
<text text-anchor="middle" x="221.5" y="-175.5" font-family="Helvetica,sans-Serif" font-size="10.00">Network/RFCCodes.hpp</text>
</a>
</g>
</g>
<!-- Node4&#45;&gt;Node30 -->
<g id="edge53" class="edge">
<title>Node4&#45;&gt;Node30</title>
<path fill="none" stroke="midnightblue" d="M1330.41,-344.21C1115.78,-341.47 476.71,-330.78 388.5,-300 324.5,-277.67 263.83,-222.2 236.57,-194.81"/>
<polygon fill="midnightblue" stroke="midnightblue" points="238.99,-192.28 229.5,-187.58 233.98,-197.18 238.99,-192.28"/>
</g>
<!-- Node31 -->
<g id="node31" class="node">
<title>Node31</title>
<g id="a_node31"><a xlink:href="FreeList_8hpp.html" target="_top" xlink:title=" ">
<polygon fill="white" stroke="black" points="1384,-224.5 1384,-243.5 1501,-243.5 1501,-224.5 1384,-224.5"/>
<text text-anchor="middle" x="1442.5" y="-231.5" font-family="Helvetica,sans-Serif" font-size="10.00">Utilities/FreeList.hpp</text>
</a>
</g>
</g>
<!-- Node4&#45;&gt;Node31 -->
<g id="edge55" class="edge">
<title>Node4&#45;&gt;Node31</title>
<path fill="none" stroke="midnightblue" d="M1403.69,-336.14C1408.21,-323.6 1416.81,-299.99 1424.5,-280 1427.94,-271.05 1431.88,-261.16 1435.2,-252.93"/>
<polygon fill="midnightblue" stroke="midnightblue" points="1438.47,-254.18 1438.98,-243.6 1431.98,-251.55 1438.47,-254.18"/>
</g>
<!-- Node32 -->
<g id="node32" class="node">
<title>Node32</title>
<g id="a_node32"><a xlink:href="User_8hpp.html" target="_top" xlink:title=" ">
<polygon fill="white" stroke="black" points="305,-168.5 305,-187.5 364,-187.5 364,-168.5 305,-168.5"/>
<text text-anchor="middle" x="334.5" y="-175.5" font-family="Helvetica,sans-Serif" font-size="10.00">User.hpp</text>
</a>
</g>
</g>
<!-- Node4&#45;&gt;Node32 -->
<g id="edge57" class="edge">
<title>Node4&#45;&gt;Node32</title>
<path fill="none" stroke="midnightblue" d="M1330.3,-345.39C1118.51,-346.07 495.6,-344.26 416.5,-300 376.03,-277.36 351.55,-225.38 340.86,-197.49"/>
<polygon fill="midnightblue" stroke="midnightblue" points="344.03,-195.98 337.32,-187.78 337.46,-198.38 344.03,-195.98"/>
</g>
<!-- Node33 -->
<g id="node33" class="node">
<title>Node33</title>
<g id="a_node33"><a xlink:title=" ">
<polygon fill="white" stroke="#bfbfbf" points="1504.5,-280.5 1504.5,-299.5 1546.5,-299.5 1546.5,-280.5 1504.5,-280.5"/>
<text text-anchor="middle" x="1525.5" y="-287.5" font-family="Helvetica,sans-Serif" font-size="10.00">array</text>
</a>
</g>
</g>
<!-- Node4&#45;&gt;Node33 -->
<g id="edge60" class="edge">
<title>Node4&#45;&gt;Node33</title>
<path fill="none" stroke="midnightblue" d="M1420.31,-336.44C1440.79,-327.6 1472.98,-313.69 1496.36,-303.59"/>
<polygon fill="midnightblue" stroke="midnightblue" points="1497.99,-306.7 1505.79,-299.52 1495.22,-300.27 1497.99,-306.7"/>
</g>
<!-- Node34 -->
<g id="node34" class="node">
<title>Node34</title>
<g id="a_node34"><a xlink:href="Call_8hpp.html" target="_top" xlink:title=" ">
<polygon fill="white" stroke="black" points="458.5,-224.5 458.5,-243.5 514.5,-243.5 514.5,-224.5 458.5,-224.5"/>
<text text-anchor="middle" x="486.5" y="-231.5" font-family="Helvetica,sans-Serif" font-size="10.00">Call.hpp</text>
</a>
</g>
</g>
<!-- Node4&#45;&gt;Node34 -->
<g id="edge62" class="edge">
<title>Node4&#45;&gt;Node34</title>
<path fill="none" stroke="midnightblue" d="M1330.16,-342.39C1219.11,-337.66 996.57,-325.67 809.5,-300 705.57,-285.74 584.79,-258.55 524.63,-244.28"/>
<polygon fill="midnightblue" stroke="midnightblue" points="525.35,-240.85 514.81,-241.94 523.73,-247.66 525.35,-240.85"/>
</g>
<!-- Node35 -->
<g id="node35" class="node">
<title>Node35</title>
<g id="a_node35"><a xlink:title=" ">
<polygon fill="white" stroke="#bfbfbf" points="1564.5,-280.5 1564.5,-299.5 1602.5,-299.5 1602.5,-280.5 1564.5,-280.5"/>
<text text-anchor="middle" x="1583.5" y="-287.5" font-family="Helvetica,sans-Serif" font-size="10.00">map</text>
</a>
</g>
</g>
<!-- Node4&#45;&gt;Node35 -->
<g id="edge71" class="edge">
<title>Node4&#45;&gt;Node35</title>
<path fill="none" stroke="midnightblue" d="M1430.87,-336.46C1460.22,-328.14 1506.16,-314.97 1554.54,-300.24"/>
<polygon fill="midnightblue" stroke="midnightblue" points="1555.7,-303.54 1564.24,-297.27 1553.66,-296.85 1555.7,-303.54"/>
</g>
<!-- Node36 -->
<g id="node36" class="node">
<title>Node36</title>
<g id="a_node36"><a xlink:title=" ">
<polygon fill="white" stroke="#bfbfbf" points="1620.5,-280.5 1620.5,-299.5 1676.5,-299.5 1676.5,-280.5 1620.5,-280.5"/>
<text text-anchor="middle" x="1648.5" y="-287.5" font-family="Helvetica,sans-Serif" font-size="10.00">iomanip</text>
</a>
</g>
</g>
<!-- Node4&#45;&gt;Node36 -->
<g id="edge72" class="edge">
<title>Node4&#45;&gt;Node36</title>
<path fill="none" stroke="midnightblue" d="M1442.21,-336.47C1482.75,-328.1 1546.3,-314.76 1610.37,-300.21"/>
<polygon fill="midnightblue" stroke="midnightblue" points="1611.27,-303.6 1620.24,-297.96 1609.71,-296.77 1611.27,-303.6"/>
</g>
<!-- Node37 -->
<g id="node37" class="node">
<title>Node37</title>
<g id="a_node37"><a xlink:title=" ">
<polygon fill="white" stroke="#bfbfbf" points="1694.5,-280.5 1694.5,-299.5 1750.5,-299.5 1750.5,-280.5 1694.5,-280.5"/>
<text text-anchor="middle" x="1722.5" y="-287.5" font-family="Helvetica,sans-Serif" font-size="10.00">sstream</text>
</a>
</g>
</g>
<!-- Node4&#45;&gt;Node37 -->
<g id="edge73" class="edge">
<title>Node4&#45;&gt;Node37</title>
<path fill="none" stroke="midnightblue" d="M1464.15,-336.47C1519.83,-328.67 1603.05,-316.17 1684.37,-300.1"/>
<polygon fill="midnightblue" stroke="midnightblue" points="1685.15,-303.51 1694.27,-298.12 1683.78,-296.64 1685.15,-303.51"/>
</g>
<!-- Node38 -->
<g id="node38" class="node">
<title>Node38</title>
<g id="a_node38"><a xlink:title=" ">
<polygon fill="white" stroke="#bfbfbf" points="1769,-280.5 1769,-299.5 1814,-299.5 1814,-280.5 1769,-280.5"/>
<text text-anchor="middle" x="1791.5" y="-287.5" font-family="Helvetica,sans-Serif" font-size="10.00">utility</text>
</a>
</g>
</g>
<!-- Node4&#45;&gt;Node38 -->
<g id="edge74" class="edge">
<title>Node4&#45;&gt;Node38</title>
<path fill="none" stroke="midnightblue" d="M1470.83,-339.32C1541.37,-332.91 1653.2,-320.83 1758.99,-299.81"/>
<polygon fill="midnightblue" stroke="midnightblue" points="1759.77,-303.22 1768.88,-297.81 1758.38,-296.36 1759.77,-303.22"/>
</g>
<!-- Node5&#45;&gt;Node3 -->
<g id="edge8" class="edge">
<title>Node5&#45;&gt;Node3</title>
<path fill="none" stroke="midnightblue" d="M817.72,-288.09C718.8,-285.62 512.37,-276.61 449.5,-244 415.39,-226.31 392.5,-217.42 392.5,-179 392.5,-179 392.5,-179 392.5,-121 392.5,-88.95 392.5,-51.64 392.5,-29.75"/>
<polygon fill="midnightblue" stroke="midnightblue" points="396,-29.56 392.5,-19.56 389,-29.56 396,-29.56"/>
</g>
<!-- Node6 -->
<g id="node6" class="node">
<title>Node6</title>
<g id="a_node6"><a xlink:title=" ">
<polygon fill="white" stroke="#bfbfbf" points="1014.5,-168.5 1014.5,-187.5 1072.5,-187.5 1072.5,-168.5 1014.5,-168.5"/>
<text text-anchor="middle" x="1043.5" y="-175.5" font-family="Helvetica,sans-Serif" font-size="10.00">memory</text>
</a>
</g>
</g>
<!-- Node5&#45;&gt;Node6 -->
<g id="edge5" class="edge">
<title>Node5&#45;&gt;Node6</title>
<path fill="none" stroke="midnightblue" d="M871.54,-280.1C872.09,-266.19 875.22,-239.31 890.5,-224 898.72,-215.77 962.06,-198.96 1004.63,-188.37"/>
<polygon fill="midnightblue" stroke="midnightblue" points="1005.55,-191.75 1014.42,-185.96 1003.88,-184.95 1005.55,-191.75"/>
</g>
<!-- Node7 -->
<g id="node7" class="node">
<title>Node7</title>
<g id="a_node7"><a xlink:title=" ">
<polygon fill="white" stroke="#bfbfbf" points="518,-56.5 518,-75.5 565,-75.5 565,-56.5 518,-56.5"/>
<text text-anchor="middle" x="541.5" y="-63.5" font-family="Helvetica,sans-Serif" font-size="10.00">deque</text>
</a>
</g>
</g>
<!-- Node5&#45;&gt;Node7 -->
<g id="edge6" class="edge">
<title>Node5&#45;&gt;Node7</title>
<path fill="none" stroke="midnightblue" d="M818,-285.17C753.48,-279.58 649.91,-267.25 619.5,-244 567.75,-204.43 549.64,-123.18 543.9,-86.15"/>
<polygon fill="midnightblue" stroke="midnightblue" points="547.3,-85.21 542.45,-75.79 540.37,-86.18 547.3,-85.21"/>
</g>
<!-- Node8 -->
<g id="node8" class="node">
<title>Node8</title>
<g id="a_node8"><a xlink:title=" ">
<polygon fill="white" stroke="#bfbfbf" points="795.5,-224.5 795.5,-243.5 843.5,-243.5 843.5,-224.5 795.5,-224.5"/>
<text text-anchor="middle" x="819.5" y="-231.5" font-family="Helvetica,sans-Serif" font-size="10.00">thread</text>
</a>
</g>
</g>
<!-- Node5&#45;&gt;Node8 -->
<g id="edge7" class="edge">
<title>Node5&#45;&gt;Node8</title>
<path fill="none" stroke="midnightblue" d="M862.91,-280.08C855.34,-272.22 844.12,-260.57 834.99,-251.08"/>
<polygon fill="midnightblue" stroke="midnightblue" points="837.38,-248.53 827.93,-243.75 832.34,-253.38 837.38,-248.53"/>
</g>
<!-- Node5&#45;&gt;Node9 -->
<g id="edge9" class="edge">
<title>Node5&#45;&gt;Node9</title>
<path fill="none" stroke="midnightblue" d="M925.23,-287.61C1031.16,-284.25 1263.08,-273.65 1336.5,-244 1373.6,-229.01 1459.83,-167.9 1477.5,-132 1484.59,-117.6 1484.11,-99.15 1482.29,-85.58"/>
<polygon fill="midnightblue" stroke="midnightblue" points="1485.7,-84.8 1480.57,-75.53 1478.8,-85.98 1485.7,-84.8"/>
</g>
<!-- Node10 -->
<g id="node10" class="node">
<title>Node10</title>
<g id="a_node10"><a xlink:title=" ">
<polygon fill="white" stroke="#bfbfbf" points="1166.5,-168.5 1166.5,-187.5 1224.5,-187.5 1224.5,-168.5 1166.5,-168.5"/>
<text text-anchor="middle" x="1195.5" y="-175.5" font-family="Helvetica,sans-Serif" font-size="10.00">asio.hpp</text>
</a>
</g>
</g>
<!-- Node5&#45;&gt;Node10 -->
<g id="edge10" class="edge">
<title>Node5&#45;&gt;Node10</title>
<path fill="none" stroke="midnightblue" d="M924.5,-280.46C964.52,-273.15 1020.4,-261.07 1067.5,-244 1105.94,-230.07 1147.67,-207.3 1172.7,-192.74"/>
<polygon fill="midnightblue" stroke="midnightblue" points="1174.59,-195.69 1181.43,-187.6 1171.03,-189.66 1174.59,-195.69"/>
</g>
<!-- Node5&#45;&gt;Node11 -->
<g id="edge11" class="edge">
<title>Node5&#45;&gt;Node11</title>
<path fill="none" stroke="midnightblue" d="M925.01,-281.15C990.09,-271.6 1100.02,-255.47 1171.16,-245.03"/>
<polygon fill="midnightblue" stroke="midnightblue" points="1171.98,-248.45 1181.37,-243.53 1170.97,-241.52 1171.98,-248.45"/>
</g>
<!-- Node24 -->
<g id="node24" class="node">
<title>Node24</title>
<g id="a_node24"><a xlink:href="TSQueue_8hpp.html" target="_top" xlink:title=" ">
<polygon fill="white" stroke="black" points="575.5,-112.5 575.5,-131.5 697.5,-131.5 697.5,-112.5 575.5,-112.5"/>
<text text-anchor="middle" x="636.5" y="-119.5" font-family="Helvetica,sans-Serif" font-size="10.00">Utilities/TSQueue.hpp</text>
</a>
</g>
</g>
<!-- Node5&#45;&gt;Node24 -->
<g id="edge46" class="edge">
<title>Node5&#45;&gt;Node24</title>
<path fill="none" stroke="midnightblue" d="M817.99,-282.46C751.73,-273.82 646.14,-258.05 634.5,-244 610.47,-214.97 621.09,-167.22 629.61,-141.23"/>
<polygon fill="midnightblue" stroke="midnightblue" points="633,-142.14 633.02,-131.54 626.4,-139.81 633,-142.14"/>
</g>
<!-- Node28 -->
<g id="node28" class="node">
<title>Node28</title>
<g id="a_node28"><a xlink:href="ITCPServer_8hpp.html" target="_top" xlink:title=" ">
<polygon fill="white" stroke="black" points="643.5,-224.5 643.5,-243.5 777.5,-243.5 777.5,-224.5 643.5,-224.5"/>
<text text-anchor="middle" x="710.5" y="-231.5" font-family="Helvetica,sans-Serif" font-size="10.00">Network/ITCPServer.hpp</text>
</a>
</g>
</g>
<!-- Node5&#45;&gt;Node28 -->
<g id="edge38" class="edge">
<title>Node5&#45;&gt;Node28</title>
<path fill="none" stroke="midnightblue" d="M845.99,-280.44C818.9,-271.36 775.91,-256.94 745.63,-246.78"/>
<polygon fill="midnightblue" stroke="midnightblue" points="746.49,-243.38 735.89,-243.52 744.26,-250.01 746.49,-243.38"/>
</g>
<!-- Node29 -->
<g id="node29" class="node">
<title>Node29</title>
<g id="a_node29"><a xlink:href="OwnedMessage_8hpp.html" target="_top" xlink:title=" ">
<polygon fill="white" stroke="black" points="899,-224.5 899,-243.5 1058,-243.5 1058,-224.5 899,-224.5"/>
<text text-anchor="middle" x="978.5" y="-231.5" font-family="Helvetica,sans-Serif" font-size="10.00">Network/OwnedMessage.hpp</text>
</a>
</g>
</g>
<!-- Node5&#45;&gt;Node29 -->
<g id="edge47" class="edge">
<title>Node5&#45;&gt;Node29</title>
<path fill="none" stroke="midnightblue" d="M888.69,-280.32C905.85,-271.66 932.45,-258.24 952.25,-248.25"/>
<polygon fill="midnightblue" stroke="midnightblue" points="954,-251.28 961.35,-243.65 950.85,-245.04 954,-251.28"/>
</g>
<!-- Node11&#45;&gt;Node10 -->
<g id="edge13" class="edge">
<title>Node11&#45;&gt;Node10</title>
<path fill="none" stroke="midnightblue" d="M1232.23,-224.08C1225.96,-216.38 1216.71,-205.03 1209.07,-195.65"/>
<polygon fill="midnightblue" stroke="midnightblue" points="1211.66,-193.29 1202.63,-187.75 1206.23,-197.71 1211.66,-193.29"/>
</g>
<!-- Node11&#45;&gt;Node12 -->
<g id="edge12" class="edge">
<title>Node11&#45;&gt;Node12</title>
<path fill="none" stroke="midnightblue" d="M1288.49,-224.43C1317.07,-217.78 1352.83,-206.48 1380.5,-188 1399.06,-175.61 1414.85,-155.23 1424.69,-140.6"/>
<polygon fill="midnightblue" stroke="midnightblue" points="1427.79,-142.25 1430.26,-131.95 1421.9,-138.46 1427.79,-142.25"/>
</g>
<!-- Node13 -->
<g id="node13" class="node">
<title>Node13</title>
<g id="a_node13"><a xlink:title=" ">
<polygon fill="white" stroke="#bfbfbf" points="1204,-56.5 1204,-75.5 1233,-75.5 1233,-56.5 1204,-56.5"/>
<text text-anchor="middle" x="1218.5" y="-63.5" font-family="Helvetica,sans-Serif" font-size="10.00">bit</text>
</a>
</g>
</g>
<!-- Node11&#45;&gt;Node13 -->
<g id="edge14" class="edge">
<title>Node11&#45;&gt;Node13</title>
<path fill="none" stroke="midnightblue" d="M1242.59,-224.17C1245.55,-215.2 1249.82,-200.83 1251.5,-188 1256.43,-150.39 1239.37,-107.93 1227.96,-84.64"/>
<polygon fill="midnightblue" stroke="midnightblue" points="1231.03,-82.95 1223.36,-75.64 1224.79,-86.14 1231.03,-82.95"/>
</g>
<!-- Node14 -->
<g id="node14" class="node">
<title>Node14</title>
<g id="a_node14"><a xlink:href="SwapEndian_8hpp.html" target="_top" xlink:title=" ">
<polygon fill="white" stroke="black" points="1251.5,-56.5 1251.5,-75.5 1389.5,-75.5 1389.5,-56.5 1251.5,-56.5"/>
<text text-anchor="middle" x="1320.5" y="-63.5" font-family="Helvetica,sans-Serif" font-size="10.00">Utilities/SwapEndian.hpp</text>
</a>
</g>
</g>
<!-- Node11&#45;&gt;Node14 -->
<g id="edge15" class="edge">
<title>Node11&#45;&gt;Node14</title>
<path fill="none" stroke="midnightblue" d="M1244.94,-224.18C1250.39,-215.21 1258.89,-200.84 1265.5,-188 1283.9,-152.24 1302.74,-109.08 1312.89,-85.18"/>
<polygon fill="midnightblue" stroke="midnightblue" points="1316.25,-86.22 1316.91,-75.64 1309.8,-83.5 1316.25,-86.22"/>
</g>
<!-- Node16 -->
<g id="node16" class="node">
<title>Node16</title>
<g id="a_node16"><a xlink:href="ITCPConnection_8hpp.html" target="_top" xlink:title=" ">
<polygon fill="white" stroke="black" points="800.5,-168.5 800.5,-187.5 958.5,-187.5 958.5,-168.5 800.5,-168.5"/>
<text text-anchor="middle" x="879.5" y="-175.5" font-family="Helvetica,sans-Serif" font-size="10.00">Network/ITCPConnection.hpp</text>
</a>
</g>
</g>
<!-- Node11&#45;&gt;Node16 -->
<g id="edge18" class="edge">
<title>Node11&#45;&gt;Node16</title>
<path fill="none" stroke="midnightblue" d="M1182.46,-224.44C1118.34,-214.83 1014.35,-199.23 946.44,-189.04"/>
<polygon fill="midnightblue" stroke="midnightblue" points="946.68,-185.54 936.28,-187.52 945.65,-192.46 946.68,-185.54"/>
</g>
<!-- Node11&#45;&gt;Node19 -->
<g id="edge37" class="edge">
<title>Node11&#45;&gt;Node19</title>
<path fill="none" stroke="midnightblue" d="M1241.41,-224.35C1243.87,-210.79 1246.42,-184.37 1233.5,-168 1218.63,-149.17 1195.53,-138.16 1172.73,-131.75"/>
<polygon fill="midnightblue" stroke="midnightblue" points="1173.56,-128.35 1163,-129.28 1171.83,-135.14 1173.56,-128.35"/>
</g>
<!-- Node14&#45;&gt;Node3 -->
<g id="edge17" class="edge">
<title>Node14&#45;&gt;Node3</title>
<path fill="none" stroke="midnightblue" d="M1251.2,-56.78C1248.26,-56.5 1245.35,-56.24 1242.5,-56 926.92,-29.47 544.02,-15.82 427.68,-12.08"/>
<polygon fill="midnightblue" stroke="midnightblue" points="427.68,-8.58 417.57,-11.76 427.45,-15.58 427.68,-8.58"/>
</g>
<!-- Node15 -->
<g id="node15" class="node">
<title>Node15</title>
<g id="a_node15"><a xlink:title=" ">
<polygon fill="white" stroke="#bfbfbf" points="1295.5,-0.5 1295.5,-19.5 1345.5,-19.5 1345.5,-0.5 1295.5,-0.5"/>
<text text-anchor="middle" x="1320.5" y="-7.5" font-family="Helvetica,sans-Serif" font-size="10.00">climits</text>
</a>
</g>
</g>
<!-- Node14&#45;&gt;Node15 -->
<g id="edge16" class="edge">
<title>Node14&#45;&gt;Node15</title>
<path fill="none" stroke="midnightblue" d="M1320.5,-56.08C1320.5,-49.01 1320.5,-38.86 1320.5,-29.99"/>
<polygon fill="midnightblue" stroke="midnightblue" points="1324,-29.75 1320.5,-19.75 1317,-29.75 1324,-29.75"/>
</g>
<!-- Node16&#45;&gt;Node12 -->
<g id="edge21" class="edge">
<title>Node16&#45;&gt;Node12</title>
<path fill="none" stroke="midnightblue" d="M958.57,-169.32C1077.8,-157.74 1299.53,-136.21 1392.61,-127.17"/>
<polygon fill="midnightblue" stroke="midnightblue" points="1393.18,-130.63 1402.79,-126.18 1392.5,-123.66 1393.18,-130.63"/>
</g>
<!-- Node16&#45;&gt;Node17 -->
<g id="edge19" class="edge">
<title>Node16&#45;&gt;Node17</title>
<path fill="none" stroke="midnightblue" d="M812.47,-168.44C720.26,-156.67 557.87,-135.94 488.92,-127.14"/>
<polygon fill="midnightblue" stroke="midnightblue" points="489.05,-123.63 478.68,-125.83 488.16,-130.57 489.05,-123.63"/>
</g>
<!-- Node18 -->
<g id="node18" class="node">
<title>Node18</title>
<g id="a_node18"><a xlink:title=" ">
<polygon fill="white" stroke="#bfbfbf" points="843,-56.5 843,-75.5 890,-75.5 890,-56.5 843,-56.5"/>
<text text-anchor="middle" x="866.5" y="-63.5" font-family="Helvetica,sans-Serif" font-size="10.00">vector</text>
</a>
</g>
</g>
<!-- Node16&#45;&gt;Node18 -->
<g id="edge20" class="edge">
<title>Node16&#45;&gt;Node18</title>
<path fill="none" stroke="midnightblue" d="M878.48,-168.37C876.38,-150.62 871.54,-109.67 868.7,-85.6"/>
<polygon fill="midnightblue" stroke="midnightblue" points="872.16,-85.11 867.52,-75.59 865.21,-85.93 872.16,-85.11"/>
</g>
<!-- Node16&#45;&gt;Node19 -->
<g id="edge22" class="edge">
<title>Node16&#45;&gt;Node19</title>
<path fill="none" stroke="midnightblue" d="M914.52,-168.44C952.75,-159.1 1014.07,-144.12 1055.76,-133.93"/>
<polygon fill="midnightblue" stroke="midnightblue" points="1056.76,-137.29 1065.65,-131.52 1055.1,-130.49 1056.76,-137.29"/>
</g>
<!-- Node16&#45;&gt;Node24 -->
<g id="edge32" class="edge">
<title>Node16&#45;&gt;Node24</title>
<path fill="none" stroke="midnightblue" d="M841,-168.44C798.69,-159.04 730.68,-143.93 684.83,-133.74"/>
<polygon fill="midnightblue" stroke="midnightblue" points="685.35,-130.27 674.82,-131.52 683.83,-137.1 685.35,-130.27"/>
</g>
<!-- Node19&#45;&gt;Node3 -->
<g id="edge27" class="edge">
<title>Node19&#45;&gt;Node3</title>
<path fill="none" stroke="midnightblue" d="M1061.15,-112.44C1027.89,-104.64 979.28,-91.93 938.5,-76 920.36,-68.91 918.21,-61.41 899.5,-56 810.63,-30.33 528,-16.55 427.99,-12.38"/>
<polygon fill="midnightblue" stroke="midnightblue" points="427.94,-8.88 417.8,-11.96 427.65,-15.87 427.94,-8.88"/>
</g>
<!-- Node19&#45;&gt;Node9 -->
<g id="edge30" class="edge">
<title>Node19&#45;&gt;Node9</title>
<path fill="none" stroke="midnightblue" d="M1160.4,-112.44C1238.05,-101.35 1371.42,-82.3 1438.09,-72.77"/>
<polygon fill="midnightblue" stroke="midnightblue" points="1438.79,-76.21 1448.19,-71.33 1437.8,-69.28 1438.79,-76.21"/>
</g>
<!-- Node19&#45;&gt;Node13 -->
<g id="edge31" class="edge">
<title>Node19&#45;&gt;Node13</title>
<path fill="none" stroke="midnightblue" d="M1119.2,-112.44C1139.69,-103.07 1172.61,-88 1194.87,-77.81"/>
<polygon fill="midnightblue" stroke="midnightblue" points="1196.35,-80.99 1203.98,-73.64 1193.43,-74.62 1196.35,-80.99"/>
</g>
<!-- Node19&#45;&gt;Node14 -->
<g id="edge25" class="edge">
<title>Node19&#45;&gt;Node14</title>
<path fill="none" stroke="midnightblue" d="M1135.36,-112.44C1173.42,-103.1 1234.46,-88.12 1275.96,-77.93"/>
<polygon fill="midnightblue" stroke="midnightblue" points="1276.93,-81.3 1285.8,-75.52 1275.26,-74.5 1276.93,-81.3"/>
</g>
<!-- Node19&#45;&gt;Node18 -->
<g id="edge28" class="edge">
<title>Node19&#45;&gt;Node18</title>
<path fill="none" stroke="midnightblue" d="M1063.42,-112.44C1018.44,-102.06 943.28,-84.72 899.99,-74.73"/>
<polygon fill="midnightblue" stroke="midnightblue" points="900.75,-71.31 890.22,-72.47 899.18,-78.13 900.75,-71.31"/>
</g>
<!-- Node20 -->
<g id="node20" class="node">
<title>Node20</title>
<g id="a_node20"><a xlink:href="BabelException_8hpp.html" target="_top" xlink:title=" ">
<polygon fill="white" stroke="black" points="1015.5,-56.5 1015.5,-75.5 1185.5,-75.5 1185.5,-56.5 1015.5,-56.5"/>
<text text-anchor="middle" x="1100.5" y="-63.5" font-family="Helvetica,sans-Serif" font-size="10.00">Exceptions/BabelException.hpp</text>
</a>
</g>
</g>
<!-- Node19&#45;&gt;Node20 -->
<g id="edge23" class="edge">
<title>Node19&#45;&gt;Node20</title>
<path fill="none" stroke="midnightblue" d="M1100.5,-112.08C1100.5,-105.01 1100.5,-94.86 1100.5,-85.99"/>
<polygon fill="midnightblue" stroke="midnightblue" points="1104,-85.75 1100.5,-75.75 1097,-85.75 1104,-85.75"/>
</g>
<!-- Node22 -->
<g id="node22" class="node">
<title>Node22</title>
<g id="a_node22"><a xlink:title=" ">
<polygon fill="white" stroke="#bfbfbf" points="947.5,-56.5 947.5,-75.5 997.5,-75.5 997.5,-56.5 947.5,-56.5"/>
<text text-anchor="middle" x="972.5" y="-63.5" font-family="Helvetica,sans-Serif" font-size="10.00">cstring</text>
</a>
</g>
</g>
<!-- Node19&#45;&gt;Node22 -->
<g id="edge26" class="edge">
<title>Node19&#45;&gt;Node22</title>
<path fill="none" stroke="midnightblue" d="M1080.22,-112.44C1059.15,-103.56 1025.98,-89.56 1002.01,-79.45"/>
<polygon fill="midnightblue" stroke="midnightblue" points="1003.26,-76.18 992.69,-75.52 1000.54,-82.63 1003.26,-76.18"/>
</g>
<!-- Node19&#45;&gt;Node23 -->
<g id="edge29" class="edge">
<title>Node19&#45;&gt;Node23</title>
<path fill="none" stroke="midnightblue" d="M1163.01,-115.37C1285.47,-104.35 1554.06,-80.18 1658.13,-70.81"/>
<polygon fill="midnightblue" stroke="midnightblue" points="1658.61,-74.28 1668.26,-69.9 1657.98,-67.31 1658.61,-74.28"/>
</g>
<!-- Node21 -->
<g id="node21" class="node">
<title>Node21</title>
<g id="a_node21"><a xlink:title=" ">
<polygon fill="white" stroke="#bfbfbf" points="1068,-0.5 1068,-19.5 1133,-19.5 1133,-0.5 1068,-0.5"/>
<text text-anchor="middle" x="1100.5" y="-7.5" font-family="Helvetica,sans-Serif" font-size="10.00">stdexcept</text>
</a>
</g>
</g>
<!-- Node20&#45;&gt;Node21 -->
<g id="edge24" class="edge">
<title>Node20&#45;&gt;Node21</title>
<path fill="none" stroke="midnightblue" d="M1100.5,-56.08C1100.5,-49.01 1100.5,-38.86 1100.5,-29.99"/>
<polygon fill="midnightblue" stroke="midnightblue" points="1104,-29.75 1100.5,-19.75 1097,-29.75 1104,-29.75"/>
</g>
<!-- Node24&#45;&gt;Node7 -->
<g id="edge35" class="edge">
<title>Node24&#45;&gt;Node7</title>
<path fill="none" stroke="midnightblue" d="M621.24,-112.32C606.28,-103.82 583.25,-90.73 565.77,-80.8"/>
<polygon fill="midnightblue" stroke="midnightblue" points="567.15,-77.55 556.73,-75.65 563.69,-83.64 567.15,-77.55"/>
</g>
<!-- Node25 -->
<g id="node25" class="node">
<title>Node25</title>
<g id="a_node25"><a xlink:title=" ">
<polygon fill="white" stroke="#bfbfbf" points="776.5,-56.5 776.5,-75.5 824.5,-75.5 824.5,-56.5 776.5,-56.5"/>
<text text-anchor="middle" x="800.5" y="-63.5" font-family="Helvetica,sans-Serif" font-size="10.00">mutex</text>
</a>
</g>
</g>
<!-- Node24&#45;&gt;Node25 -->
<g id="edge33" class="edge">
<title>Node24&#45;&gt;Node25</title>
<path fill="none" stroke="midnightblue" d="M662.49,-112.44C690.69,-103.16 735.81,-88.3 766.74,-78.12"/>
<polygon fill="midnightblue" stroke="midnightblue" points="767.84,-81.44 776.24,-74.99 765.65,-74.79 767.84,-81.44"/>
</g>
<!-- Node26 -->
<g id="node26" class="node">
<title>Node26</title>
<g id="a_node26"><a xlink:title=" ">
<polygon fill="white" stroke="#bfbfbf" points="583,-56.5 583,-75.5 690,-75.5 690,-56.5 583,-56.5"/>
<text text-anchor="middle" x="636.5" y="-63.5" font-family="Helvetica,sans-Serif" font-size="10.00">condition_variable</text>
</a>
</g>
</g>
<!-- Node24&#45;&gt;Node26 -->
<g id="edge34" class="edge">
<title>Node24&#45;&gt;Node26</title>
<path fill="none" stroke="midnightblue" d="M636.5,-112.08C636.5,-105.01 636.5,-94.86 636.5,-85.99"/>
<polygon fill="midnightblue" stroke="midnightblue" points="640,-85.75 636.5,-75.75 633,-85.75 640,-85.75"/>
</g>
<!-- Node27 -->
<g id="node27" class="node">
<title>Node27</title>
<g id="a_node27"><a xlink:title=" ">
<polygon fill="white" stroke="#bfbfbf" points="708.5,-56.5 708.5,-75.5 758.5,-75.5 758.5,-56.5 708.5,-56.5"/>
<text text-anchor="middle" x="733.5" y="-63.5" font-family="Helvetica,sans-Serif" font-size="10.00">chrono</text>
</a>
</g>
</g>
<!-- Node24&#45;&gt;Node27 -->
<g id="edge36" class="edge">
<title>Node24&#45;&gt;Node27</title>
<path fill="none" stroke="midnightblue" d="M652.08,-112.32C667.5,-103.74 691.31,-90.49 709.21,-80.52"/>
<polygon fill="midnightblue" stroke="midnightblue" points="710.92,-83.58 717.95,-75.65 707.51,-77.46 710.92,-83.58"/>
</g>
<!-- Node28&#45;&gt;Node3 -->
<g id="edge39" class="edge">
<title>Node28&#45;&gt;Node3</title>
<path fill="none" stroke="midnightblue" d="M698.03,-224.3C649.65,-190.52 473.96,-67.87 413.28,-25.51"/>
<polygon fill="midnightblue" stroke="midnightblue" points="415.08,-22.5 404.88,-19.64 411.08,-28.24 415.08,-22.5"/>
</g>
<!-- Node28&#45;&gt;Node6 -->
<g id="edge40" class="edge">
<title>Node28&#45;&gt;Node6</title>
<path fill="none" stroke="midnightblue" d="M771.48,-224.49C830.27,-216.05 921.68,-202.35 1000.5,-188 1001.77,-187.77 1003.05,-187.53 1004.35,-187.28"/>
<polygon fill="midnightblue" stroke="midnightblue" points="1005.26,-190.67 1014.4,-185.31 1003.91,-183.8 1005.26,-190.67"/>
</g>
<!-- Node28&#45;&gt;Node16 -->
<g id="edge45" class="edge">
<title>Node28&#45;&gt;Node16</title>
<path fill="none" stroke="midnightblue" d="M737.28,-224.44C765.83,-215.32 811.23,-200.81 843.04,-190.65"/>
<polygon fill="midnightblue" stroke="midnightblue" points="844.39,-193.89 852.85,-187.52 842.26,-187.23 844.39,-193.89"/>
</g>
<!-- Node28&#45;&gt;Node17 -->
<g id="edge41" class="edge">
<title>Node28&#45;&gt;Node17</title>
<path fill="none" stroke="midnightblue" d="M690.57,-224.37C645.96,-205.05 537.92,-158.26 485.71,-135.65"/>
<polygon fill="midnightblue" stroke="midnightblue" points="486.91,-132.35 476.34,-131.59 484.12,-138.78 486.91,-132.35"/>
</g>
<!-- Node28&#45;&gt;Node18 -->
<g id="edge42" class="edge">
<title>Node28&#45;&gt;Node18</title>
<path fill="none" stroke="midnightblue" d="M718.89,-224.08C744.08,-197.27 819.33,-117.19 851.57,-82.89"/>
<polygon fill="midnightblue" stroke="midnightblue" points="854.15,-85.25 858.45,-75.57 849.05,-80.46 854.15,-85.25"/>
</g>
<!-- Node28&#45;&gt;Node19 -->
<g id="edge43" class="edge">
<title>Node28&#45;&gt;Node19</title>
<path fill="none" stroke="midnightblue" d="M772.01,-224.48C836.18,-215.18 932.24,-200.03 967.5,-188 985.56,-181.84 988.43,-176.53 1005.5,-168 1027.88,-156.82 1053.54,-144.7 1072.54,-135.87"/>
<polygon fill="midnightblue" stroke="midnightblue" points="1074.22,-138.95 1081.82,-131.57 1071.28,-132.6 1074.22,-138.95"/>
</g>
<!-- Node28&#45;&gt;Node24 -->
<g id="edge44" class="edge">
<title>Node28&#45;&gt;Node24</title>
<path fill="none" stroke="midnightblue" d="M705.96,-224.34C699.2,-211.65 685.82,-187.39 672.5,-168 665.77,-158.21 657.54,-147.82 650.65,-139.49"/>
<polygon fill="midnightblue" stroke="midnightblue" points="653.18,-137.07 644.07,-131.67 647.83,-141.58 653.18,-137.07"/>
</g>
<!-- Node29&#45;&gt;Node9 -->
<g id="edge48" class="edge">
<title>Node29&#45;&gt;Node9</title>
<path fill="none" stroke="midnightblue" d="M1058.04,-224.86C1109.07,-218.21 1176.26,-206.76 1233.5,-188 1278.17,-173.36 1400.49,-108.88 1453.48,-80.49"/>
<polygon fill="midnightblue" stroke="midnightblue" points="1455.37,-83.45 1462.53,-75.63 1452.06,-77.28 1455.37,-83.45"/>
</g>
<!-- Node29&#45;&gt;Node16 -->
<g id="edge50" class="edge">
<title>Node29&#45;&gt;Node16</title>
<path fill="none" stroke="midnightblue" d="M962.59,-224.32C946.86,-215.74 922.56,-202.49 904.29,-192.52"/>
<polygon fill="midnightblue" stroke="midnightblue" points="905.82,-189.37 895.37,-187.65 902.47,-195.52 905.82,-189.37"/>
</g>
<!-- Node29&#45;&gt;Node19 -->
<g id="edge49" class="edge">
<title>Node29&#45;&gt;Node19</title>
<path fill="none" stroke="midnightblue" d="M1017.88,-224.49C1039.45,-217.91 1065.06,-206.68 1081.5,-188 1092.78,-175.19 1097.37,-156 1099.24,-141.79"/>
<polygon fill="midnightblue" stroke="midnightblue" points="1102.74,-141.97 1100.23,-131.68 1095.77,-141.29 1102.74,-141.97"/>
</g>
<!-- Node30&#45;&gt;Node3 -->
<g id="edge54" class="edge">
<title>Node30&#45;&gt;Node3</title>
<path fill="none" stroke="midnightblue" d="M230.69,-168.08C258.31,-141.27 340.8,-61.19 376.14,-26.89"/>
<polygon fill="midnightblue" stroke="midnightblue" points="378.94,-29.04 383.67,-19.57 374.06,-24.02 378.94,-29.04"/>
</g>
<!-- Node31&#45;&gt;Node12 -->
<g id="edge56" class="edge">
<title>Node31&#45;&gt;Node12</title>
<path fill="none" stroke="midnightblue" d="M1441.95,-224.37C1440.82,-206.62 1438.22,-165.67 1436.68,-141.6"/>
<polygon fill="midnightblue" stroke="midnightblue" points="1440.17,-141.35 1436.05,-131.59 1433.19,-141.79 1440.17,-141.35"/>
</g>
<!-- Node32&#45;&gt;Node3 -->
<g id="edge59" class="edge">
<title>Node32&#45;&gt;Node3</title>
<path fill="none" stroke="midnightblue" d="M337.62,-168.08C346.79,-141.83 373.79,-64.55 386.17,-29.12"/>
<polygon fill="midnightblue" stroke="midnightblue" points="389.51,-30.16 389.51,-19.57 382.9,-27.85 389.51,-30.16"/>
</g>
<!-- Node32&#45;&gt;Node17 -->
<g id="edge58" class="edge">
<title>Node32&#45;&gt;Node17</title>
<path fill="none" stroke="midnightblue" d="M353.83,-168.44C373.82,-159.6 405.24,-145.69 428.06,-135.59"/>
<polygon fill="midnightblue" stroke="midnightblue" points="429.53,-138.76 437.26,-131.52 426.7,-132.36 429.53,-138.76"/>
</g>
<!-- Node34&#45;&gt;Node16 -->
<g id="edge67" class="edge">
<title>Node34&#45;&gt;Node16</title>
<path fill="none" stroke="midnightblue" d="M514.76,-229.12C575.37,-220.79 719.45,-200.99 807.3,-188.92"/>
<polygon fill="midnightblue" stroke="midnightblue" points="808.03,-192.35 817.46,-187.52 807.08,-185.42 808.03,-192.35"/>
</g>
<!-- Node34&#45;&gt;Node17 -->
<g id="edge64" class="edge">
<title>Node34&#45;&gt;Node17</title>
<path fill="none" stroke="midnightblue" d="M484.15,-224.37C479.28,-206.54 468.04,-165.3 461.48,-141.27"/>
<polygon fill="midnightblue" stroke="midnightblue" points="464.85,-140.32 458.84,-131.59 458.1,-142.16 464.85,-140.32"/>
</g>
<!-- Node34&#45;&gt;Node18 -->
<g id="edge63" class="edge">
<title>Node34&#45;&gt;Node18</title>
<path fill="none" stroke="midnightblue" d="M506.13,-224.42C568.67,-197.1 763.49,-112 837.54,-79.65"/>
<polygon fill="midnightblue" stroke="midnightblue" points="839,-82.83 846.76,-75.62 836.19,-76.42 839,-82.83"/>
</g>
<!-- Node34&#45;&gt;Node19 -->
<g id="edge65" class="edge">
<title>Node34&#45;&gt;Node19</title>
<path fill="none" stroke="midnightblue" d="M514.55,-226.38C568.15,-213.87 688.91,-186.38 791.5,-168 872,-153.58 964.92,-140.53 1027.68,-132.24"/>
<polygon fill="midnightblue" stroke="midnightblue" points="1028.41,-135.67 1037.87,-130.9 1027.5,-128.73 1028.41,-135.67"/>
</g>
<!-- Node34&#45;&gt;Node30 -->
<g id="edge66" class="edge">
<title>Node34&#45;&gt;Node30</title>
<path fill="none" stroke="midnightblue" d="M458.14,-227.22C414.15,-218.26 328.77,-200.86 273.5,-189.6"/>
<polygon fill="midnightblue" stroke="midnightblue" points="274.04,-186.13 263.54,-187.57 272.64,-192.99 274.04,-186.13"/>
</g>
</g>
</svg>
