<?xml version="1.0" encoding="UTF-8" standalone="no"?>
<!DOCTYPE svg PUBLIC "-//W3C//DTD SVG 1.1//EN"
 "http://www.w3.org/Graphics/SVG/1.1/DTD/svg11.dtd">
<!-- Generated by graphviz version 2.43.0 (0)
 -->
<!-- Title: Server/tests/Common/TestsTSQueue.cpp Pages: 1 -->
<svg width="327pt" height="151pt"
 viewBox="0.00 0.00 326.50 151.00" xmlns="http://www.w3.org/2000/svg" xmlns:xlink="http://www.w3.org/1999/xlink">
<g id="graph0" class="graph" transform="scale(1 1) rotate(0) translate(4 147)">
<title>Server/tests/Common/TestsTSQueue.cpp</title>
<polygon fill="white" stroke="transparent" points="-4,4 -4,-147 322.5,-147 322.5,4 -4,4"/>
<!-- Node1 -->
<g id="node1" class="node">
<title>Node1</title>
<g id="a_node1"><a xlink:title=" ">
<polygon fill="#bfbfbf" stroke="black" points="52.5,-112.5 52.5,-142.5 174.5,-142.5 174.5,-112.5 52.5,-112.5"/>
<text text-anchor="start" x="60.5" y="-130.5" font-family="Helvetica,sans-Serif" font-size="10.00">Server/tests/Common</text>
<text text-anchor="middle" x="113.5" y="-119.5" font-family="Helvetica,sans-Serif" font-size="10.00">/TestsTSQueue.cpp</text>
</a>
</g>
</g>
<!-- Node2 -->
<g id="node2" class="node">
<title>Node2</title>
<g id="a_node2"><a xlink:title=" ">
<polygon fill="white" stroke="#bfbfbf" points="0,-56.5 0,-75.5 99,-75.5 99,-56.5 0,-56.5"/>
<text text-anchor="middle" x="49.5" y="-63.5" font-family="Helvetica,sans-Serif" font-size="10.00">catch2/catch.hpp</text>
</a>
</g>
</g>
<!-- Node1&#45;&gt;Node2 -->
<g id="edge1" class="edge">
<title>Node1&#45;&gt;Node2</title>
<path fill="none" stroke="midnightblue" d="M98.33,-112.4C88.75,-103.49 76.34,-91.95 66.43,-82.74"/>
<polygon fill="midnightblue" stroke="midnightblue" points="68.52,-79.9 58.81,-75.66 63.75,-85.03 68.52,-79.9"/>
</g>
<!-- Node3 -->
<g id="node3" class="node">
<title>Node3</title>
<g id="a_node3"><a xlink:href="TSQueue_8hpp.html" target="_top" xlink:title=" ">
<polygon fill="white" stroke="black" points="117.5,-56.5 117.5,-75.5 239.5,-75.5 239.5,-56.5 117.5,-56.5"/>
<text text-anchor="middle" x="178.5" y="-63.5" font-family="Helvetica,sans-Serif" font-size="10.00">Utilities/TSQueue.hpp</text>
</a>
</g>
</g>
<!-- Node1&#45;&gt;Node3 -->
<g id="edge2" class="edge">
<title>Node1&#45;&gt;Node3</title>
<path fill="none" stroke="midnightblue" d="M128.9,-112.4C138.74,-103.4 151.49,-91.72 161.61,-82.47"/>
<polygon fill="midnightblue" stroke="midnightblue" points="164.03,-84.99 169.04,-75.66 159.3,-79.83 164.03,-84.99"/>
</g>
<!-- Node4 -->
<g id="node4" class="node">
<title>Node4</title>
<g id="a_node4"><a xlink:title=" ">
<polygon fill="white" stroke="#bfbfbf" points="11.5,-0.5 11.5,-19.5 59.5,-19.5 59.5,-0.5 11.5,-0.5"/>
<text text-anchor="middle" x="35.5" y="-7.5" font-family="Helvetica,sans-Serif" font-size="10.00">mutex</text>
</a>
</g>
</g>
<!-- Node3&#45;&gt;Node4 -->
<g id="edge3" class="edge">
<title>Node3&#45;&gt;Node4</title>
<path fill="none" stroke="midnightblue" d="M155.84,-56.44C132.1,-47.48 94.59,-33.31 67.76,-23.18"/>
<polygon fill="midnightblue" stroke="midnightblue" points="68.64,-19.77 58.05,-19.52 66.17,-26.32 68.64,-19.77"/>
</g>
<!-- Node5 -->
<g id="node5" class="node">
<title>Node5</title>
<g id="a_node5"><a xlink:title=" ">
<polygon fill="white" stroke="#bfbfbf" points="78,-0.5 78,-19.5 185,-19.5 185,-0.5 78,-0.5"/>
<text text-anchor="middle" x="131.5" y="-7.5" font-family="Helvetica,sans-Serif" font-size="10.00">condition_variable</text>
</a>
</g>
</g>
<!-- Node3&#45;&gt;Node5 -->
<g id="edge4" class="edge">
<title>Node3&#45;&gt;Node5</title>
<path fill="none" stroke="midnightblue" d="M170.74,-56.08C163.96,-48.3 153.96,-36.8 145.74,-27.37"/>
<polygon fill="midnightblue" stroke="midnightblue" points="148.32,-25 139.12,-19.75 143.04,-29.59 148.32,-25"/>
</g>
<!-- Node6 -->
<g id="node6" class="node">
<title>Node6</title>
<g id="a_node6"><a xlink:title=" ">
<polygon fill="white" stroke="#bfbfbf" points="203,-0.5 203,-19.5 250,-19.5 250,-0.5 203,-0.5"/>
<text text-anchor="middle" x="226.5" y="-7.5" font-family="Helvetica,sans-Serif" font-size="10.00">deque</text>
</a>
</g>
</g>
<!-- Node3&#45;&gt;Node6 -->
<g id="edge5" class="edge">
<title>Node3&#45;&gt;Node6</title>
<path fill="none" stroke="midnightblue" d="M186.43,-56.08C193.35,-48.3 203.57,-36.8 211.95,-27.37"/>
<polygon fill="midnightblue" stroke="midnightblue" points="214.69,-29.55 218.72,-19.75 209.46,-24.9 214.69,-29.55"/>
</g>
<!-- Node7 -->
<g id="node7" class="node">
<title>Node7</title>
<g id="a_node7"><a xlink:title=" ">
<polygon fill="white" stroke="#bfbfbf" points="268.5,-0.5 268.5,-19.5 318.5,-19.5 318.5,-0.5 268.5,-0.5"/>
<text text-anchor="middle" x="293.5" y="-7.5" font-family="Helvetica,sans-Serif" font-size="10.00">chrono</text>
</a>
</g>
</g>
<!-- Node3&#45;&gt;Node7 -->
<g id="edge6" class="edge">
<title>Node3&#45;&gt;Node7</title>
<path fill="none" stroke="midnightblue" d="M196.72,-56.44C215.4,-47.68 244.66,-33.94 266.12,-23.86"/>
<polygon fill="midnightblue" stroke="midnightblue" points="267.8,-26.93 275.36,-19.52 264.82,-20.6 267.8,-26.93"/>
</g>
</g>
</svg>
