<?xml version="1.0" encoding="UTF-8" standalone="no"?>
<!DOCTYPE svg PUBLIC "-//W3C//DTD SVG 1.1//EN"
 "http://www.w3.org/Graphics/SVG/1.1/DTD/svg11.dtd">
<!-- Generated by graphviz version 2.43.0 (0)
 -->
<!-- Title: Server/tests/Network/testsMessage.cpp Pages: 1 -->
<svg width="770pt" height="207pt"
 viewBox="0.00 0.00 769.69 207.00" xmlns="http://www.w3.org/2000/svg" xmlns:xlink="http://www.w3.org/1999/xlink">
<g id="graph0" class="graph" transform="scale(1 1) rotate(0) translate(4 203)">
<title>Server/tests/Network/testsMessage.cpp</title>
<polygon fill="white" stroke="transparent" points="-4,4 -4,-203 765.69,-203 765.69,4 -4,4"/>
<!-- Node1 -->
<g id="node1" class="node">
<title>Node1</title>
<g id="a_node1"><a xlink:title=" ">
<polygon fill="#bfbfbf" stroke="black" points="163.19,-168.5 163.19,-198.5 282.19,-198.5 282.19,-168.5 163.19,-168.5"/>
<text text-anchor="start" x="171.19" y="-186.5" font-family="Helvetica,sans-Serif" font-size="10.00">Server/tests/Network</text>
<text text-anchor="middle" x="222.69" y="-175.5" font-family="Helvetica,sans-Serif" font-size="10.00">/testsMessage.cpp</text>
</a>
</g>
</g>
<!-- Node2 -->
<g id="node2" class="node">
<title>Node2</title>
<g id="a_node2"><a xlink:title=" ">
<polygon fill="white" stroke="#bfbfbf" points="45.69,-0.5 45.69,-19.5 95.69,-19.5 95.69,-0.5 45.69,-0.5"/>
<text text-anchor="middle" x="70.69" y="-7.5" font-family="Helvetica,sans-Serif" font-size="10.00">cstdint</text>
</a>
</g>
</g>
<!-- Node1&#45;&gt;Node2 -->
<g id="edge1" class="edge">
<title>Node1&#45;&gt;Node2</title>
<path fill="none" stroke="midnightblue" d="M162.97,-176.62C106.49,-169.69 27.64,-155.95 8.69,-132 -18.26,-97.95 25.54,-50.35 52.32,-26.26"/>
<polygon fill="midnightblue" stroke="midnightblue" points="54.75,-28.79 59.99,-19.58 50.15,-23.51 54.75,-28.79"/>
</g>
<!-- Node3 -->
<g id="node3" class="node">
<title>Node3</title>
<g id="a_node3"><a xlink:title=" ">
<polygon fill="white" stroke="#bfbfbf" points="56.19,-56.5 56.19,-75.5 85.19,-75.5 85.19,-56.5 56.19,-56.5"/>
<text text-anchor="middle" x="70.69" y="-63.5" font-family="Helvetica,sans-Serif" font-size="10.00">bit</text>
</a>
</g>
</g>
<!-- Node1&#45;&gt;Node3 -->
<g id="edge2" class="edge">
<title>Node1&#45;&gt;Node3</title>
<path fill="none" stroke="midnightblue" d="M212.38,-168.39C200.67,-153.07 180.35,-128.58 158.69,-112 138.91,-96.87 113.27,-84.43 94.78,-76.5"/>
<polygon fill="midnightblue" stroke="midnightblue" points="95.9,-73.17 85.32,-72.56 93.21,-79.63 95.9,-73.17"/>
</g>
<!-- Node4 -->
<g id="node4" class="node">
<title>Node4</title>
<g id="a_node4"><a xlink:title=" ">
<polygon fill="white" stroke="#bfbfbf" points="349.69,-112.5 349.69,-131.5 393.69,-131.5 393.69,-112.5 349.69,-112.5"/>
<text text-anchor="middle" x="371.69" y="-119.5" font-family="Helvetica,sans-Serif" font-size="10.00">string</text>
</a>
</g>
</g>
<!-- Node1&#45;&gt;Node4 -->
<g id="edge3" class="edge">
<title>Node1&#45;&gt;Node4</title>
<path fill="none" stroke="midnightblue" d="M258,-168.4C283.11,-158.37 316.52,-145.03 340.62,-135.4"/>
<polygon fill="midnightblue" stroke="midnightblue" points="342.02,-138.62 350,-131.66 339.42,-132.12 342.02,-138.62"/>
</g>
<!-- Node5 -->
<g id="node5" class="node">
<title>Node5</title>
<g id="a_node5"><a xlink:title=" ">
<polygon fill="white" stroke="#bfbfbf" points="412.19,-112.5 412.19,-131.5 511.19,-131.5 511.19,-112.5 412.19,-112.5"/>
<text text-anchor="middle" x="461.69" y="-119.5" font-family="Helvetica,sans-Serif" font-size="10.00">catch2/catch.hpp</text>
</a>
</g>
</g>
<!-- Node1&#45;&gt;Node5 -->
<g id="edge4" class="edge">
<title>Node1&#45;&gt;Node5</title>
<path fill="none" stroke="midnightblue" d="M279.02,-168.47C321.34,-157.94 378.47,-143.72 417.51,-134"/>
<polygon fill="midnightblue" stroke="midnightblue" points="418.66,-137.32 427.52,-131.51 416.97,-130.53 418.66,-137.32"/>
</g>
<!-- Node6 -->
<g id="node6" class="node">
<title>Node6</title>
<g id="a_node6"><a xlink:href="RFCCodes_8hpp.html" target="_top" xlink:title=" ">
<polygon fill="white" stroke="black" points="18.19,-112.5 18.19,-131.5 149.19,-131.5 149.19,-112.5 18.19,-112.5"/>
<text text-anchor="middle" x="83.69" y="-119.5" font-family="Helvetica,sans-Serif" font-size="10.00">Network/RFCCodes.hpp</text>
</a>
</g>
</g>
<!-- Node1&#45;&gt;Node6 -->
<g id="edge5" class="edge">
<title>Node1&#45;&gt;Node6</title>
<path fill="none" stroke="midnightblue" d="M189.74,-168.4C166.53,-158.46 135.7,-145.26 113.27,-135.66"/>
<polygon fill="midnightblue" stroke="midnightblue" points="114.48,-132.38 103.91,-131.66 111.73,-138.81 114.48,-132.38"/>
</g>
<!-- Node7 -->
<g id="node7" class="node">
<title>Node7</title>
<g id="a_node7"><a xlink:href="Message_8hpp.html" target="_top" xlink:title=" ">
<polygon fill="white" stroke="black" points="206.19,-112.5 206.19,-131.5 331.19,-131.5 331.19,-112.5 206.19,-112.5"/>
<text text-anchor="middle" x="268.69" y="-119.5" font-family="Helvetica,sans-Serif" font-size="10.00">Network/Message.hpp</text>
</a>
</g>
</g>
<!-- Node1&#45;&gt;Node7 -->
<g id="edge7" class="edge">
<title>Node1&#45;&gt;Node7</title>
<path fill="none" stroke="midnightblue" d="M233.59,-168.4C240.27,-159.75 248.86,-148.64 255.87,-139.58"/>
<polygon fill="midnightblue" stroke="midnightblue" points="258.64,-141.71 261.99,-131.66 253.11,-137.43 258.64,-141.71"/>
</g>
<!-- Node6&#45;&gt;Node2 -->
<g id="edge6" class="edge">
<title>Node6&#45;&gt;Node2</title>
<path fill="none" stroke="midnightblue" d="M73.25,-112.24C64.26,-103.97 51.94,-90.66 46.69,-76 40.87,-59.78 49.08,-41.36 57.43,-28.28"/>
<polygon fill="midnightblue" stroke="midnightblue" points="60.49,-30.02 63.35,-19.81 54.75,-26.01 60.49,-30.02"/>
</g>
<!-- Node7&#45;&gt;Node2 -->
<g id="edge14" class="edge">
<title>Node7&#45;&gt;Node2</title>
<path fill="none" stroke="midnightblue" d="M225.58,-112.45C197.59,-105.57 161.16,-94.02 132.69,-76 112.61,-63.29 94.46,-42.68 83.07,-28.08"/>
<polygon fill="midnightblue" stroke="midnightblue" points="85.7,-25.76 76.89,-19.89 80.12,-29.98 85.7,-25.76"/>
</g>
<!-- Node7&#45;&gt;Node3 -->
<g id="edge18" class="edge">
<title>Node7&#45;&gt;Node3</title>
<path fill="none" stroke="midnightblue" d="M234.91,-112.44C200.71,-103.67 146.37,-89.45 99.69,-76 98.23,-75.58 96.73,-75.14 95.23,-74.69"/>
<polygon fill="midnightblue" stroke="midnightblue" points="95.99,-71.27 85.4,-71.69 93.95,-77.96 95.99,-71.27"/>
</g>
<!-- Node8 -->
<g id="node8" class="node">
<title>Node8</title>
<g id="a_node8"><a xlink:href="BabelException_8hpp.html" target="_top" xlink:title=" ">
<polygon fill="white" stroke="black" points="297.69,-56.5 297.69,-75.5 467.69,-75.5 467.69,-56.5 297.69,-56.5"/>
<text text-anchor="middle" x="382.69" y="-63.5" font-family="Helvetica,sans-Serif" font-size="10.00">Exceptions/BabelException.hpp</text>
</a>
</g>
</g>
<!-- Node7&#45;&gt;Node8 -->
<g id="edge8" class="edge">
<title>Node7&#45;&gt;Node8</title>
<path fill="none" stroke="midnightblue" d="M286.75,-112.44C305.26,-103.68 334.27,-89.94 355.54,-79.86"/>
<polygon fill="midnightblue" stroke="midnightblue" points="357.17,-82.96 364.71,-75.52 354.17,-76.63 357.17,-82.96"/>
</g>
<!-- Node10 -->
<g id="node10" class="node">
<title>Node10</title>
<g id="a_node10"><a xlink:href="SwapEndian_8hpp.html" target="_top" xlink:title=" ">
<polygon fill="white" stroke="black" points="141.69,-56.5 141.69,-75.5 279.69,-75.5 279.69,-56.5 141.69,-56.5"/>
<text text-anchor="middle" x="210.69" y="-63.5" font-family="Helvetica,sans-Serif" font-size="10.00">Utilities/SwapEndian.hpp</text>
</a>
</g>
</g>
<!-- Node7&#45;&gt;Node10 -->
<g id="edge10" class="edge">
<title>Node7&#45;&gt;Node10</title>
<path fill="none" stroke="midnightblue" d="M259.37,-112.32C250.79,-104.34 237.87,-92.31 227.5,-82.65"/>
<polygon fill="midnightblue" stroke="midnightblue" points="229.88,-80.09 220.17,-75.83 225.11,-85.21 229.88,-80.09"/>
</g>
<!-- Node12 -->
<g id="node12" class="node">
<title>Node12</title>
<g id="a_node12"><a xlink:title=" ">
<polygon fill="white" stroke="#bfbfbf" points="485.69,-56.5 485.69,-75.5 535.69,-75.5 535.69,-56.5 485.69,-56.5"/>
<text text-anchor="middle" x="510.69" y="-63.5" font-family="Helvetica,sans-Serif" font-size="10.00">cstring</text>
</a>
</g>
</g>
<!-- Node7&#45;&gt;Node12 -->
<g id="edge13" class="edge">
<title>Node7&#45;&gt;Node12</title>
<path fill="none" stroke="midnightblue" d="M311.04,-112.43C351.02,-104.2 412.89,-91.14 475.43,-76.22"/>
<polygon fill="midnightblue" stroke="midnightblue" points="476.56,-79.55 485.47,-73.81 474.93,-72.74 476.56,-79.55"/>
</g>
<!-- Node13 -->
<g id="node13" class="node">
<title>Node13</title>
<g id="a_node13"><a xlink:title=" ">
<polygon fill="white" stroke="#bfbfbf" points="554.19,-56.5 554.19,-75.5 601.19,-75.5 601.19,-56.5 554.19,-56.5"/>
<text text-anchor="middle" x="577.69" y="-63.5" font-family="Helvetica,sans-Serif" font-size="10.00">vector</text>
</a>
</g>
</g>
<!-- Node7&#45;&gt;Node13 -->
<g id="edge15" class="edge">
<title>Node7&#45;&gt;Node13</title>
<path fill="none" stroke="midnightblue" d="M331.24,-112.71C385.11,-105.13 465.09,-92.85 543.87,-75.98"/>
<polygon fill="midnightblue" stroke="midnightblue" points="544.93,-79.33 553.97,-73.79 543.45,-72.49 544.93,-79.33"/>
</g>
<!-- Node14 -->
<g id="node14" class="node">
<title>Node14</title>
<g id="a_node14"><a xlink:title=" ">
<polygon fill="white" stroke="#bfbfbf" points="619.69,-56.5 619.69,-75.5 683.69,-75.5 683.69,-56.5 619.69,-56.5"/>
<text text-anchor="middle" x="651.69" y="-63.5" font-family="Helvetica,sans-Serif" font-size="10.00">algorithm</text>
</a>
</g>
</g>
<!-- Node7&#45;&gt;Node14 -->
<g id="edge16" class="edge">
<title>Node7&#45;&gt;Node14</title>
<path fill="none" stroke="midnightblue" d="M331.54,-113.02C415.98,-102.27 560.35,-83.72 609.58,-75.98"/>
<polygon fill="midnightblue" stroke="midnightblue" points="610.21,-79.42 619.51,-74.34 609.07,-72.52 610.21,-79.42"/>
</g>
<!-- Node15 -->
<g id="node15" class="node">
<title>Node15</title>
<g id="a_node15"><a xlink:title=" ">
<polygon fill="white" stroke="#bfbfbf" points="701.69,-56.5 701.69,-75.5 761.69,-75.5 761.69,-56.5 701.69,-56.5"/>
<text text-anchor="middle" x="731.69" y="-63.5" font-family="Helvetica,sans-Serif" font-size="10.00">iostream</text>
</a>
</g>
</g>
<!-- Node7&#45;&gt;Node15 -->
<g id="edge17" class="edge">
<title>Node7&#45;&gt;Node15</title>
<path fill="none" stroke="midnightblue" d="M331.5,-113.06C334.61,-112.7 337.68,-112.34 340.69,-112 493.74,-94.61 535.83,-101.43 691.59,-75.99"/>
<polygon fill="midnightblue" stroke="midnightblue" points="692.23,-79.43 701.53,-74.35 691.09,-72.53 692.23,-79.43"/>
</g>
<!-- Node9 -->
<g id="node9" class="node">
<title>Node9</title>
<g id="a_node9"><a xlink:title=" ">
<polygon fill="white" stroke="#bfbfbf" points="350.19,-0.5 350.19,-19.5 415.19,-19.5 415.19,-0.5 350.19,-0.5"/>
<text text-anchor="middle" x="382.69" y="-7.5" font-family="Helvetica,sans-Serif" font-size="10.00">stdexcept</text>
</a>
</g>
</g>
<!-- Node8&#45;&gt;Node9 -->
<g id="edge9" class="edge">
<title>Node8&#45;&gt;Node9</title>
<path fill="none" stroke="midnightblue" d="M382.69,-56.08C382.69,-49.01 382.69,-38.86 382.69,-29.99"/>
<polygon fill="midnightblue" stroke="midnightblue" points="386.19,-29.75 382.69,-19.75 379.19,-29.75 386.19,-29.75"/>
</g>
<!-- Node10&#45;&gt;Node2 -->
<g id="edge12" class="edge">
<title>Node10&#45;&gt;Node2</title>
<path fill="none" stroke="midnightblue" d="M188.5,-56.44C165.26,-47.48 128.54,-33.31 102.27,-23.18"/>
<polygon fill="midnightblue" stroke="midnightblue" points="103.35,-19.85 92.76,-19.52 100.84,-26.38 103.35,-19.85"/>
</g>
<!-- Node11 -->
<g id="node11" class="node">
<title>Node11</title>
<g id="a_node11"><a xlink:title=" ">
<polygon fill="white" stroke="#bfbfbf" points="185.69,-0.5 185.69,-19.5 235.69,-19.5 235.69,-0.5 185.69,-0.5"/>
<text text-anchor="middle" x="210.69" y="-7.5" font-family="Helvetica,sans-Serif" font-size="10.00">climits</text>
</a>
</g>
</g>
<!-- Node10&#45;&gt;Node11 -->
<g id="edge11" class="edge">
<title>Node10&#45;&gt;Node11</title>
<path fill="none" stroke="midnightblue" d="M210.69,-56.08C210.69,-49.01 210.69,-38.86 210.69,-29.99"/>
<polygon fill="midnightblue" stroke="midnightblue" points="214.19,-29.75 210.69,-19.75 207.19,-29.75 214.19,-29.75"/>
</g>
</g>
</svg>
