<?xml version="1.0" encoding="UTF-8" standalone="no"?>
<!DOCTYPE svg PUBLIC "-//W3C//DTD SVG 1.1//EN"
 "http://www.w3.org/Graphics/SVG/1.1/DTD/svg11.dtd">
<!-- Generated by graphviz version 2.43.0 (0)
 -->
<!-- Title: Common/Utilities/TSQueue.hpp Pages: 1 -->
<svg width="1351pt" height="363pt"
 viewBox="0.00 0.00 1350.86 363.00" xmlns="http://www.w3.org/2000/svg" xmlns:xlink="http://www.w3.org/1999/xlink">
<g id="graph0" class="graph" transform="scale(1 1) rotate(0) translate(4 359)">
<title>Common/Utilities/TSQueue.hpp</title>
<polygon fill="white" stroke="transparent" points="-4,4 -4,-359 1346.86,-359 1346.86,4 -4,4"/>
<!-- Node1 -->
<g id="node1" class="node">
<title>Node1</title>
<g id="a_node1"><a xlink:title=" ">
<polygon fill="#bfbfbf" stroke="black" points="174.36,-335.5 174.36,-354.5 344.36,-354.5 344.36,-335.5 174.36,-335.5"/>
<text text-anchor="middle" x="259.36" y="-342.5" font-family="Helvetica,sans-Serif" font-size="10.00">Common/Utilities/TSQueue.hpp</text>
</a>
</g>
</g>
<!-- Node2 -->
<g id="node2" class="node">
<title>Node2</title>
<g id="a_node2"><a xlink:href="ITCPConnection_8hpp.html" target="_top" xlink:title=" ">
<polygon fill="white" stroke="black" points="316.86,-274 316.86,-293 521.86,-293 521.86,-274 316.86,-274"/>
<text text-anchor="middle" x="419.36" y="-281" font-family="Helvetica,sans-Serif" font-size="10.00">Common/Network/ITCPConnection.hpp</text>
</a>
</g>
</g>
<!-- Node1&#45;&gt;Node2 -->
<g id="edge1" class="edge">
<title>Node1&#45;&gt;Node2</title>
<path fill="none" stroke="midnightblue" d="M291.81,-331.93C322.91,-320.37 369.05,-303.21 396.48,-293.01"/>
<polygon fill="midnightblue" stroke="midnightblue" points="290.44,-328.71 282.28,-335.48 292.88,-335.27 290.44,-328.71"/>
</g>
<!-- Node11 -->
<g id="node11" class="node">
<title>Node11</title>
<g id="a_node11"><a xlink:href="ITCPServer_8hpp.html" target="_top" xlink:title=" ">
<polygon fill="white" stroke="black" points="22.86,-207 22.86,-226 203.86,-226 203.86,-207 22.86,-207"/>
<text text-anchor="middle" x="113.36" y="-214" font-family="Helvetica,sans-Serif" font-size="10.00">Common/Network/ITCPServer.hpp</text>
</a>
</g>
</g>
<!-- Node1&#45;&gt;Node11 -->
<g id="edge33" class="edge">
<title>Node1&#45;&gt;Node11</title>
<path fill="none" stroke="midnightblue" d="M241.49,-328.52C210.54,-301.7 147.92,-247.44 123.47,-226.26"/>
<polygon fill="midnightblue" stroke="midnightblue" points="239.47,-331.4 249.32,-335.31 244.06,-326.11 239.47,-331.4"/>
</g>
<!-- Node12 -->
<g id="node12" class="node">
<title>Node12</title>
<g id="a_node12"><a xlink:href="AsioTCPServer_8hpp.html" target="_top" xlink:title=" ">
<polygon fill="white" stroke="black" points="270.36,-134.5 270.36,-164.5 380.36,-164.5 380.36,-134.5 270.36,-134.5"/>
<text text-anchor="start" x="278.36" y="-152.5" font-family="Helvetica,sans-Serif" font-size="10.00">Server/src/Network</text>
<text text-anchor="middle" x="325.36" y="-141.5" font-family="Helvetica,sans-Serif" font-size="10.00">/AsioTCPServer.hpp</text>
</a>
</g>
</g>
<!-- Node1&#45;&gt;Node12 -->
<g id="edge34" class="edge">
<title>Node1&#45;&gt;Node12</title>
<path fill="none" stroke="midnightblue" d="M200.92,-333.47C110.7,-314.77 -46.2,-270.98 13.36,-201 45.72,-162.98 189.77,-153.49 270.33,-151.19"/>
<polygon fill="midnightblue" stroke="midnightblue" points="200.27,-336.91 210.77,-335.47 201.67,-330.05 200.27,-336.91"/>
</g>
<!-- Node23 -->
<g id="node23" class="node">
<title>Node23</title>
<g id="a_node23"><a xlink:href="TestsTSQueue_8cpp.html" target="_top" xlink:title=" ">
<polygon fill="white" stroke="black" points="540.36,-268.5 540.36,-298.5 662.36,-298.5 662.36,-268.5 540.36,-268.5"/>
<text text-anchor="start" x="548.36" y="-286.5" font-family="Helvetica,sans-Serif" font-size="10.00">Server/tests/Common</text>
<text text-anchor="middle" x="601.36" y="-275.5" font-family="Helvetica,sans-Serif" font-size="10.00">/TestsTSQueue.cpp</text>
</a>
</g>
</g>
<!-- Node1&#45;&gt;Node23 -->
<g id="edge35" class="edge">
<title>Node1&#45;&gt;Node23</title>
<path fill="none" stroke="midnightblue" d="M324.95,-333.91C380.12,-325.24 461.04,-312.1 531.36,-299 534.29,-298.45 537.28,-297.88 540.3,-297.3"/>
<polygon fill="midnightblue" stroke="midnightblue" points="324.29,-330.47 314.95,-335.47 325.38,-337.38 324.29,-330.47"/>
</g>
<!-- Node3 -->
<g id="node3" class="node">
<title>Node3</title>
<g id="a_node3"><a xlink:href="QtTCPConnection_8hpp.html" target="_top" xlink:title=" ">
<polygon fill="white" stroke="black" points="832.86,-201.5 832.86,-231.5 957.86,-231.5 957.86,-201.5 832.86,-201.5"/>
<text text-anchor="start" x="840.86" y="-219.5" font-family="Helvetica,sans-Serif" font-size="10.00">Client/src/Network</text>
<text text-anchor="middle" x="895.36" y="-208.5" font-family="Helvetica,sans-Serif" font-size="10.00">/QtTCPConnection.hpp</text>
</a>
</g>
</g>
<!-- Node2&#45;&gt;Node3 -->
<g id="edge2" class="edge">
<title>Node2&#45;&gt;Node3</title>
<path fill="none" stroke="midnightblue" d="M492.25,-272.55C585.26,-259.85 744.59,-238.09 832.5,-226.08"/>
<polygon fill="midnightblue" stroke="midnightblue" points="491.51,-269.11 482.08,-273.94 492.46,-276.05 491.51,-269.11"/>
</g>
<!-- Node2&#45;&gt;Node11 -->
<g id="edge14" class="edge">
<title>Node2&#45;&gt;Node11</title>
<path fill="none" stroke="midnightblue" d="M369,-271.8C308.78,-259.01 209.2,-237.86 153.77,-226.08"/>
<polygon fill="midnightblue" stroke="midnightblue" points="368.53,-275.28 379.04,-273.94 369.99,-268.43 368.53,-275.28"/>
</g>
<!-- Node17 -->
<g id="node17" class="node">
<title>Node17</title>
<g id="a_node17"><a xlink:href="OwnedMessage_8hpp.html" target="_top" xlink:title=" ">
<polygon fill="white" stroke="black" points="222.36,-207 222.36,-226 428.36,-226 428.36,-207 222.36,-207"/>
<text text-anchor="middle" x="325.36" y="-214" font-family="Helvetica,sans-Serif" font-size="10.00">Common/Network/OwnedMessage.hpp</text>
</a>
</g>
</g>
<!-- Node2&#45;&gt;Node17 -->
<g id="edge20" class="edge">
<title>Node2&#45;&gt;Node17</title>
<path fill="none" stroke="midnightblue" d="M398.27,-267.92C379.69,-255.07 353.24,-236.78 337.84,-226.13"/>
<polygon fill="midnightblue" stroke="midnightblue" points="396.47,-270.93 406.68,-273.73 400.45,-265.17 396.47,-270.93"/>
</g>
<!-- Node18 -->
<g id="node18" class="node">
<title>Node18</title>
<g id="a_node18"><a xlink:href="Call_8hpp.html" target="_top" xlink:title=" ">
<polygon fill="white" stroke="black" points="451.36,-140 451.36,-159 559.36,-159 559.36,-140 451.36,-140"/>
<text text-anchor="middle" x="505.36" y="-147" font-family="Helvetica,sans-Serif" font-size="10.00">Server/src/Call.hpp</text>
</a>
</g>
</g>
<!-- Node2&#45;&gt;Node18 -->
<g id="edge22" class="edge">
<title>Node2&#45;&gt;Node18</title>
<path fill="none" stroke="midnightblue" d="M481.49,-272.04C524.45,-263.4 576.16,-249.69 589.36,-232 597.6,-220.96 596.14,-212.99 589.36,-201 577.46,-179.97 552.92,-166.73 533.42,-159.11"/>
<polygon fill="midnightblue" stroke="midnightblue" points="480.78,-268.62 471.63,-273.97 482.12,-275.49 480.78,-268.62"/>
</g>
<!-- Node20 -->
<g id="node20" class="node">
<title>Node20</title>
<g id="a_node20"><a xlink:href="Utils_8hpp.html" target="_top" xlink:title=" ">
<polygon fill="white" stroke="black" points="592.86,-134.5 592.86,-164.5 699.86,-164.5 699.86,-134.5 592.86,-134.5"/>
<text text-anchor="start" x="600.86" y="-152.5" font-family="Helvetica,sans-Serif" font-size="10.00">Server/src/Utilities</text>
<text text-anchor="middle" x="646.36" y="-141.5" font-family="Helvetica,sans-Serif" font-size="10.00">/Utils.hpp</text>
</a>
</g>
</g>
<!-- Node2&#45;&gt;Node20 -->
<g id="edge26" class="edge">
<title>Node2&#45;&gt;Node20</title>
<path fill="none" stroke="midnightblue" d="M478.19,-271.95C525.03,-262.57 585.86,-247.92 605.36,-232 626.83,-214.47 638.1,-182.82 643.09,-164.55"/>
<polygon fill="midnightblue" stroke="midnightblue" points="477.27,-268.56 468.13,-273.92 478.62,-275.43 477.27,-268.56"/>
</g>
<!-- Node22 -->
<g id="node22" class="node">
<title>Node22</title>
<g id="a_node22"><a xlink:href="AsioTCPConnection_8hpp.html" target="_top" xlink:title=" ">
<polygon fill="white" stroke="black" points="446.36,-201.5 446.36,-231.5 580.36,-231.5 580.36,-201.5 446.36,-201.5"/>
<text text-anchor="start" x="454.36" y="-219.5" font-family="Helvetica,sans-Serif" font-size="10.00">Server/src/Network</text>
<text text-anchor="middle" x="513.36" y="-208.5" font-family="Helvetica,sans-Serif" font-size="10.00">/AsioTCPConnection.hpp</text>
</a>
</g>
</g>
<!-- Node2&#45;&gt;Node22 -->
<g id="edge30" class="edge">
<title>Node2&#45;&gt;Node22</title>
<path fill="none" stroke="midnightblue" d="M440.55,-267.85C456.24,-257 477.49,-242.3 492.98,-231.59"/>
<polygon fill="midnightblue" stroke="midnightblue" points="438.27,-265.17 432.04,-273.73 442.25,-270.93 438.27,-265.17"/>
</g>
<!-- Node4 -->
<g id="node4" class="node">
<title>Node4</title>
<g id="a_node4"><a xlink:href="Client_2src_2main_8cpp.html" target="_top" xlink:title=" ">
<polygon fill="white" stroke="black" points="824.36,-6 824.36,-25 934.36,-25 934.36,-6 824.36,-6"/>
<text text-anchor="middle" x="879.36" y="-13" font-family="Helvetica,sans-Serif" font-size="10.00">Client/src/main.cpp</text>
</a>
</g>
</g>
<!-- Node3&#45;&gt;Node4 -->
<g id="edge3" class="edge">
<title>Node3&#45;&gt;Node4</title>
<path fill="none" stroke="midnightblue" d="M893.39,-190.96C889.81,-146.43 882.4,-54.25 880.07,-25.36"/>
<polygon fill="midnightblue" stroke="midnightblue" points="889.92,-191.5 894.21,-201.19 896.9,-190.94 889.92,-191.5"/>
</g>
<!-- Node5 -->
<g id="node5" class="node">
<title>Node5</title>
<g id="a_node5"><a xlink:href="HomePage_8hpp.html" target="_top" xlink:title=" ">
<polygon fill="white" stroke="black" points="898.36,-67.5 898.36,-97.5 1008.36,-97.5 1008.36,-67.5 898.36,-67.5"/>
<text text-anchor="start" x="906.36" y="-85.5" font-family="Helvetica,sans-Serif" font-size="10.00">Client/src/Windows</text>
<text text-anchor="middle" x="953.36" y="-74.5" font-family="Helvetica,sans-Serif" font-size="10.00">/HomePage.hpp</text>
</a>
</g>
</g>
<!-- Node3&#45;&gt;Node5 -->
<g id="edge4" class="edge">
<title>Node3&#45;&gt;Node5</title>
<path fill="none" stroke="midnightblue" d="M905.63,-192.12C917.69,-164.68 937.28,-120.09 947.2,-97.52"/>
<polygon fill="midnightblue" stroke="midnightblue" points="902.39,-190.81 901.57,-201.37 908.79,-193.63 902.39,-190.81"/>
</g>
<!-- Node7 -->
<g id="node7" class="node">
<title>Node7</title>
<g id="a_node7"><a xlink:href="QtTCPConnection_8cpp.html" target="_top" xlink:title=" ">
<polygon fill="white" stroke="black" points="718.36,-134.5 718.36,-164.5 842.36,-164.5 842.36,-134.5 718.36,-134.5"/>
<text text-anchor="start" x="726.36" y="-152.5" font-family="Helvetica,sans-Serif" font-size="10.00">Client/src/Network</text>
<text text-anchor="middle" x="780.36" y="-141.5" font-family="Helvetica,sans-Serif" font-size="10.00">/QtTCPConnection.cpp</text>
</a>
</g>
</g>
<!-- Node3&#45;&gt;Node7 -->
<g id="edge7" class="edge">
<title>Node3&#45;&gt;Node7</title>
<path fill="none" stroke="midnightblue" d="M861.38,-196.3C843.39,-186.12 821.68,-173.85 805.26,-164.58"/>
<polygon fill="midnightblue" stroke="midnightblue" points="859.98,-199.52 870.41,-201.4 863.42,-193.43 859.98,-199.52"/>
</g>
<!-- Node8 -->
<g id="node8" class="node">
<title>Node8</title>
<g id="a_node8"><a xlink:href="SoundHandler_8cpp.html" target="_top" xlink:title=" ">
<polygon fill="white" stroke="black" points="1189.86,-73 1189.86,-92 1342.86,-92 1342.86,-73 1189.86,-73"/>
<text text-anchor="middle" x="1266.36" y="-80" font-family="Helvetica,sans-Serif" font-size="10.00">Client/src/SoundHandler.cpp</text>
</a>
</g>
</g>
<!-- Node3&#45;&gt;Node8 -->
<g id="edge8" class="edge">
<title>Node3&#45;&gt;Node8</title>
<path fill="none" stroke="midnightblue" d="M968.03,-204.98C1013.39,-197.04 1072.43,-184.19 1122.36,-165 1174.38,-145.01 1230.25,-108.51 1254.27,-92.01"/>
<polygon fill="midnightblue" stroke="midnightblue" points="967.26,-201.56 957.99,-206.69 968.43,-208.46 967.26,-201.56"/>
</g>
<!-- Node9 -->
<g id="node9" class="node">
<title>Node9</title>
<g id="a_node9"><a xlink:href="SoundHandler_8hpp.html" target="_top" xlink:title=" ">
<polygon fill="white" stroke="black" points="959.36,-140 959.36,-159 1113.36,-159 1113.36,-140 959.36,-140"/>
<text text-anchor="middle" x="1036.36" y="-147" font-family="Helvetica,sans-Serif" font-size="10.00">Client/src/SoundHandler.hpp</text>
</a>
</g>
</g>
<!-- Node3&#45;&gt;Node9 -->
<g id="edge9" class="edge">
<title>Node3&#45;&gt;Node9</title>
<path fill="none" stroke="midnightblue" d="M935.21,-197.13C962.34,-184.62 997.01,-168.64 1017.91,-159.01"/>
<polygon fill="midnightblue" stroke="midnightblue" points="933.57,-194.03 925.95,-201.4 936.5,-200.39 933.57,-194.03"/>
</g>
<!-- Node5&#45;&gt;Node4 -->
<g id="edge5" class="edge">
<title>Node5&#45;&gt;Node4</title>
<path fill="none" stroke="midnightblue" d="M929.65,-60.67C915.98,-48.67 899.53,-34.22 889.26,-25.19"/>
<polygon fill="midnightblue" stroke="midnightblue" points="927.48,-63.43 937.3,-67.4 932.1,-58.17 927.48,-63.43"/>
</g>
<!-- Node6 -->
<g id="node6" class="node">
<title>Node6</title>
<g id="a_node6"><a xlink:href="HomePage_8cpp.html" target="_top" xlink:title=" ">
<polygon fill="white" stroke="black" points="971.36,-0.5 971.36,-30.5 1081.36,-30.5 1081.36,-0.5 971.36,-0.5"/>
<text text-anchor="start" x="979.36" y="-18.5" font-family="Helvetica,sans-Serif" font-size="10.00">Client/src/Windows</text>
<text text-anchor="middle" x="1026.36" y="-7.5" font-family="Helvetica,sans-Serif" font-size="10.00">/HomePage.cpp</text>
</a>
</g>
</g>
<!-- Node5&#45;&gt;Node6 -->
<g id="edge6" class="edge">
<title>Node5&#45;&gt;Node6</title>
<path fill="none" stroke="midnightblue" d="M976.83,-60.6C987.86,-50.78 1000.7,-39.34 1010.55,-30.58"/>
<polygon fill="midnightblue" stroke="midnightblue" points="974.34,-58.13 969.2,-67.4 979,-63.36 974.34,-58.13"/>
</g>
<!-- Node9&#45;&gt;Node5 -->
<g id="edge10" class="edge">
<title>Node9&#45;&gt;Node5</title>
<path fill="none" stroke="midnightblue" d="M1017.26,-133.54C1003.45,-122.73 984.9,-108.2 971.35,-97.59"/>
<polygon fill="midnightblue" stroke="midnightblue" points="1015.13,-136.32 1025.17,-139.73 1019.45,-130.81 1015.13,-136.32"/>
</g>
<!-- Node9&#45;&gt;Node6 -->
<g id="edge13" class="edge">
<title>Node9&#45;&gt;Node6</title>
<path fill="none" stroke="midnightblue" d="M1034.92,-129.53C1032.9,-102.81 1029.25,-54.69 1027.44,-30.78"/>
<polygon fill="midnightblue" stroke="midnightblue" points="1031.46,-130.13 1035.7,-139.84 1038.44,-129.6 1031.46,-130.13"/>
</g>
<!-- Node9&#45;&gt;Node8 -->
<g id="edge12" class="edge">
<title>Node9&#45;&gt;Node8</title>
<path fill="none" stroke="midnightblue" d="M1076.73,-137.09C1122.23,-124.23 1195.17,-103.62 1236.06,-92.06"/>
<polygon fill="midnightblue" stroke="midnightblue" points="1075.57,-133.78 1066.9,-139.87 1077.48,-140.52 1075.57,-133.78"/>
</g>
<!-- Node10 -->
<g id="node10" class="node">
<title>Node10</title>
<g id="a_node10"><a xlink:href="UDPSocket_8cpp.html" target="_top" xlink:title=" ">
<polygon fill="white" stroke="black" points="1064.86,-67.5 1064.86,-97.5 1171.86,-97.5 1171.86,-67.5 1064.86,-67.5"/>
<text text-anchor="start" x="1072.86" y="-85.5" font-family="Helvetica,sans-Serif" font-size="10.00">Client/src/Network</text>
<text text-anchor="middle" x="1118.36" y="-74.5" font-family="Helvetica,sans-Serif" font-size="10.00">/UDPSocket.cpp</text>
</a>
</g>
</g>
<!-- Node9&#45;&gt;Node10 -->
<g id="edge11" class="edge">
<title>Node9&#45;&gt;Node10</title>
<path fill="none" stroke="midnightblue" d="M1055.61,-133.24C1069.22,-122.45 1087.32,-108.1 1100.59,-97.59"/>
<polygon fill="midnightblue" stroke="midnightblue" points="1053.08,-130.78 1047.42,-139.73 1057.43,-136.26 1053.08,-130.78"/>
</g>
<!-- Node11&#45;&gt;Node12 -->
<g id="edge15" class="edge">
<title>Node11&#45;&gt;Node12</title>
<path fill="none" stroke="midnightblue" d="M151.14,-203.92C187.09,-192.9 241.23,-176.29 279.61,-164.53"/>
<polygon fill="midnightblue" stroke="midnightblue" points="150.05,-200.59 141.51,-206.87 152.1,-207.28 150.05,-200.59"/>
</g>
<!-- Node13 -->
<g id="node13" class="node">
<title>Node13</title>
<g id="a_node13"><a xlink:href="BabelServer_8hpp.html" target="_top" xlink:title=" ">
<polygon fill="white" stroke="black" points="334.36,-67.5 334.36,-97.5 444.36,-97.5 444.36,-67.5 334.36,-67.5"/>
<text text-anchor="start" x="342.36" y="-85.5" font-family="Helvetica,sans-Serif" font-size="10.00">Server/src/Network</text>
<text text-anchor="middle" x="389.36" y="-74.5" font-family="Helvetica,sans-Serif" font-size="10.00">/BabelServer.hpp</text>
</a>
</g>
</g>
<!-- Node12&#45;&gt;Node13 -->
<g id="edge16" class="edge">
<title>Node12&#45;&gt;Node13</title>
<path fill="none" stroke="midnightblue" d="M346.51,-127.02C356.04,-117.34 367.03,-106.17 375.5,-97.58"/>
<polygon fill="midnightblue" stroke="midnightblue" points="343.77,-124.81 339.25,-134.4 348.76,-129.73 343.77,-124.81"/>
</g>
<!-- Node14 -->
<g id="node14" class="node">
<title>Node14</title>
<g id="a_node14"><a xlink:href="Server_2src_2main_8cpp.html" target="_top" xlink:title=" ">
<polygon fill="white" stroke="black" points="332.86,-6 332.86,-25 445.86,-25 445.86,-6 332.86,-6"/>
<text text-anchor="middle" x="389.36" y="-13" font-family="Helvetica,sans-Serif" font-size="10.00">Server/src/main.cpp</text>
</a>
</g>
</g>
<!-- Node13&#45;&gt;Node14 -->
<g id="edge17" class="edge">
<title>Node13&#45;&gt;Node14</title>
<path fill="none" stroke="midnightblue" d="M389.36,-57.25C389.36,-46.02 389.36,-33.38 389.36,-25.19"/>
<polygon fill="midnightblue" stroke="midnightblue" points="385.86,-57.4 389.36,-67.4 392.86,-57.4 385.86,-57.4"/>
</g>
<!-- Node15 -->
<g id="node15" class="node">
<title>Node15</title>
<g id="a_node15"><a xlink:href="BabelServer_8cpp.html" target="_top" xlink:title=" ">
<polygon fill="white" stroke="black" points="464.36,-0.5 464.36,-30.5 574.36,-30.5 574.36,-0.5 464.36,-0.5"/>
<text text-anchor="start" x="472.36" y="-18.5" font-family="Helvetica,sans-Serif" font-size="10.00">Server/src/Network</text>
<text text-anchor="middle" x="519.36" y="-7.5" font-family="Helvetica,sans-Serif" font-size="10.00">/BabelServer.cpp</text>
</a>
</g>
</g>
<!-- Node13&#45;&gt;Node15 -->
<g id="edge18" class="edge">
<title>Node13&#45;&gt;Node15</title>
<path fill="none" stroke="midnightblue" d="M426.65,-62.85C447.21,-52.58 472.31,-40.03 491.21,-30.58"/>
<polygon fill="midnightblue" stroke="midnightblue" points="424.95,-59.79 417.57,-67.4 428.08,-66.05 424.95,-59.79"/>
</g>
<!-- Node16 -->
<g id="node16" class="node">
<title>Node16</title>
<g id="a_node16"><a xlink:href="testRequests_8cpp.html" target="_top" xlink:title=" ">
<polygon fill="white" stroke="black" points="195.86,-0.5 195.86,-30.5 314.86,-30.5 314.86,-0.5 195.86,-0.5"/>
<text text-anchor="start" x="203.86" y="-18.5" font-family="Helvetica,sans-Serif" font-size="10.00">Server/tests/Network</text>
<text text-anchor="middle" x="255.36" y="-7.5" font-family="Helvetica,sans-Serif" font-size="10.00">/testRequests.cpp</text>
</a>
</g>
</g>
<!-- Node13&#45;&gt;Node16 -->
<g id="edge19" class="edge">
<title>Node13&#45;&gt;Node16</title>
<path fill="none" stroke="midnightblue" d="M351.2,-62.99C329.97,-52.69 303.95,-40.07 284.38,-30.58"/>
<polygon fill="midnightblue" stroke="midnightblue" points="349.76,-66.18 360.28,-67.4 352.81,-59.88 349.76,-66.18"/>
</g>
<!-- Node17&#45;&gt;Node12 -->
<g id="edge21" class="edge">
<title>Node17&#45;&gt;Node12</title>
<path fill="none" stroke="midnightblue" d="M325.36,-196.41C325.36,-186.22 325.36,-173.9 325.36,-164.59"/>
<polygon fill="midnightblue" stroke="midnightblue" points="321.86,-196.73 325.36,-206.73 328.86,-196.73 321.86,-196.73"/>
</g>
<!-- Node18&#45;&gt;Node13 -->
<g id="edge24" class="edge">
<title>Node18&#45;&gt;Node13</title>
<path fill="none" stroke="midnightblue" d="M480.83,-134.75C461.33,-123.83 434.16,-108.6 414.5,-97.59"/>
<polygon fill="midnightblue" stroke="midnightblue" points="479.28,-137.9 489.72,-139.73 482.7,-131.79 479.28,-137.9"/>
</g>
<!-- Node18&#45;&gt;Node15 -->
<g id="edge25" class="edge">
<title>Node18&#45;&gt;Node15</title>
<path fill="none" stroke="midnightblue" d="M498.28,-130.26C492.81,-113.62 486.99,-88.43 492.36,-67 495.65,-53.88 503.06,-40.45 509.29,-30.74"/>
<polygon fill="midnightblue" stroke="midnightblue" points="495.04,-131.6 501.71,-139.83 501.63,-129.24 495.04,-131.6"/>
</g>
<!-- Node19 -->
<g id="node19" class="node">
<title>Node19</title>
<g id="a_node19"><a xlink:href="Call_8cpp.html" target="_top" xlink:title=" ">
<polygon fill="white" stroke="black" points="500.86,-73 500.86,-92 607.86,-92 607.86,-73 500.86,-73"/>
<text text-anchor="middle" x="554.36" y="-80" font-family="Helvetica,sans-Serif" font-size="10.00">Server/src/Call.cpp</text>
</a>
</g>
</g>
<!-- Node18&#45;&gt;Node19 -->
<g id="edge23" class="edge">
<title>Node18&#45;&gt;Node19</title>
<path fill="none" stroke="midnightblue" d="M518.25,-131.4C527.77,-118.77 540.34,-102.1 547.86,-92.13"/>
<polygon fill="midnightblue" stroke="midnightblue" points="515.19,-129.64 511.97,-139.73 520.78,-133.86 515.19,-129.64"/>
</g>
<!-- Node20&#45;&gt;Node15 -->
<g id="edge28" class="edge">
<title>Node20&#45;&gt;Node15</title>
<path fill="none" stroke="midnightblue" d="M705.17,-130.07C719.84,-122.53 733.81,-112.15 742.36,-98 749.48,-86.21 750.96,-77.76 742.36,-67 721.73,-41.18 633.61,-27.58 574.51,-21.23"/>
<polygon fill="midnightblue" stroke="midnightblue" points="703.54,-126.97 695.98,-134.4 706.52,-133.3 703.54,-126.97"/>
</g>
<!-- Node20&#45;&gt;Node19 -->
<g id="edge27" class="edge">
<title>Node20&#45;&gt;Node19</title>
<path fill="none" stroke="midnightblue" d="M617.78,-128.31C600.5,-116.1 579.38,-101.18 566.4,-92.01"/>
<polygon fill="midnightblue" stroke="midnightblue" points="616.21,-131.48 626.4,-134.4 620.25,-125.77 616.21,-131.48"/>
</g>
<!-- Node21 -->
<g id="node21" class="node">
<title>Node21</title>
<g id="a_node21"><a xlink:href="Utils_8cpp.html" target="_top" xlink:title=" ">
<polygon fill="white" stroke="black" points="625.86,-67.5 625.86,-97.5 732.86,-97.5 732.86,-67.5 625.86,-67.5"/>
<text text-anchor="start" x="633.86" y="-85.5" font-family="Helvetica,sans-Serif" font-size="10.00">Server/src/Utilities</text>
<text text-anchor="middle" x="679.36" y="-74.5" font-family="Helvetica,sans-Serif" font-size="10.00">/Utils.cpp</text>
</a>
</g>
</g>
<!-- Node20&#45;&gt;Node21 -->
<g id="edge29" class="edge">
<title>Node20&#45;&gt;Node21</title>
<path fill="none" stroke="midnightblue" d="M658.15,-125.28C662.85,-116.02 668.11,-105.66 672.21,-97.58"/>
<polygon fill="midnightblue" stroke="midnightblue" points="654.93,-123.89 653.52,-134.4 661.17,-127.06 654.93,-123.89"/>
</g>
<!-- Node22&#45;&gt;Node12 -->
<g id="edge31" class="edge">
<title>Node22&#45;&gt;Node12</title>
<path fill="none" stroke="midnightblue" d="M463.01,-198.09C432.66,-187.6 394.51,-174.41 366.07,-164.58"/>
<polygon fill="midnightblue" stroke="midnightblue" points="461.97,-201.44 472.57,-201.4 464.26,-194.82 461.97,-201.44"/>
</g>
<!-- Node22&#45;&gt;Node13 -->
<g id="edge32" class="edge">
<title>Node22&#45;&gt;Node13</title>
<path fill="none" stroke="midnightblue" d="M480.39,-195.83C467.66,-187.31 453.5,-176.62 442.36,-165 422.38,-144.17 405.44,-114.8 396.4,-97.6"/>
<polygon fill="midnightblue" stroke="midnightblue" points="478.62,-198.86 488.92,-201.37 482.44,-192.99 478.62,-198.86"/>
</g>
</g>
</svg>
