<?xml version="1.0" encoding="UTF-8" standalone="no"?>
<!DOCTYPE svg PUBLIC "-//W3C//DTD SVG 1.1//EN"
 "http://www.w3.org/Graphics/SVG/1.1/DTD/svg11.dtd">
<!-- Generated by graphviz version 2.43.0 (0)
 -->
<!-- Title: Client/src/Network/UDPSocket.hpp Pages: 1 -->
<svg width="498pt" height="229pt"
 viewBox="0.00 0.00 497.50 229.00" xmlns="http://www.w3.org/2000/svg" xmlns:xlink="http://www.w3.org/1999/xlink">
<g id="graph0" class="graph" transform="scale(1 1) rotate(0) translate(4 225)">
<title>Client/src/Network/UDPSocket.hpp</title>
<polygon fill="white" stroke="transparent" points="-4,4 -4,-225 493.5,-225 493.5,4 -4,4"/>
<!-- Node1 -->
<g id="node1" class="node">
<title>Node1</title>
<g id="a_node1"><a xlink:title=" ">
<polygon fill="#bfbfbf" stroke="black" points="95,-190.5 95,-220.5 202,-220.5 202,-190.5 95,-190.5"/>
<text text-anchor="start" x="103" y="-208.5" font-family="Helvetica,sans-Serif" font-size="10.00">Client/src/Network</text>
<text text-anchor="middle" x="148.5" y="-197.5" font-family="Helvetica,sans-Serif" font-size="10.00">/UDPSocket.hpp</text>
</a>
</g>
</g>
<!-- Node2 -->
<g id="node2" class="node">
<title>Node2</title>
<g id="a_node2"><a xlink:href="UDPSocket_8cpp.html" target="_top" xlink:title=" ">
<polygon fill="white" stroke="black" points="0,-67.5 0,-97.5 107,-97.5 107,-67.5 0,-67.5"/>
<text text-anchor="start" x="8" y="-85.5" font-family="Helvetica,sans-Serif" font-size="10.00">Client/src/Network</text>
<text text-anchor="middle" x="53.5" y="-74.5" font-family="Helvetica,sans-Serif" font-size="10.00">/UDPSocket.cpp</text>
</a>
</g>
</g>
<!-- Node1&#45;&gt;Node2 -->
<g id="edge1" class="edge">
<title>Node1&#45;&gt;Node2</title>
<path fill="none" stroke="midnightblue" d="M130.9,-182.08C111.57,-157.46 81.1,-118.66 64.76,-97.84"/>
<polygon fill="midnightblue" stroke="midnightblue" points="128.3,-184.44 137.23,-190.14 133.81,-180.12 128.3,-184.44"/>
</g>
<!-- Node3 -->
<g id="node3" class="node">
<title>Node3</title>
<g id="a_node3"><a xlink:href="SoundHandler_8cpp.html" target="_top" xlink:title=" ">
<polygon fill="white" stroke="black" points="125,-73 125,-92 278,-92 278,-73 125,-73"/>
<text text-anchor="middle" x="201.5" y="-80" font-family="Helvetica,sans-Serif" font-size="10.00">Client/src/SoundHandler.cpp</text>
</a>
</g>
</g>
<!-- Node1&#45;&gt;Node3 -->
<g id="edge2" class="edge">
<title>Node1&#45;&gt;Node3</title>
<path fill="none" stroke="midnightblue" d="M152.93,-180.42C155.99,-166.47 160.75,-148.8 167.5,-134 174.69,-118.23 186.62,-101.94 194.27,-92.27"/>
<polygon fill="midnightblue" stroke="midnightblue" points="149.49,-179.75 150.91,-190.25 156.35,-181.16 149.49,-179.75"/>
</g>
<!-- Node4 -->
<g id="node4" class="node">
<title>Node4</title>
<g id="a_node4"><a xlink:href="SoundHandler_8hpp.html" target="_top" xlink:title=" ">
<polygon fill="white" stroke="black" points="176.5,-134.5 176.5,-153.5 330.5,-153.5 330.5,-134.5 176.5,-134.5"/>
<text text-anchor="middle" x="253.5" y="-141.5" font-family="Helvetica,sans-Serif" font-size="10.00">Client/src/SoundHandler.hpp</text>
</a>
</g>
</g>
<!-- Node1&#45;&gt;Node4 -->
<g id="edge3" class="edge">
<title>Node1&#45;&gt;Node4</title>
<path fill="none" stroke="midnightblue" d="M182.28,-185.36C201.1,-174.69 223.62,-161.93 238.22,-153.66"/>
<polygon fill="midnightblue" stroke="midnightblue" points="180.36,-182.42 173.38,-190.4 183.81,-188.51 180.36,-182.42"/>
</g>
<!-- Node4&#45;&gt;Node2 -->
<g id="edge7" class="edge">
<title>Node4&#45;&gt;Node2</title>
<path fill="none" stroke="midnightblue" d="M215.21,-131.61C182.59,-121.9 135.57,-107.92 100.64,-97.52"/>
<polygon fill="midnightblue" stroke="midnightblue" points="214.26,-134.98 224.84,-134.48 216.26,-128.27 214.26,-134.98"/>
</g>
<!-- Node4&#45;&gt;Node3 -->
<g id="edge8" class="edge">
<title>Node4&#45;&gt;Node3</title>
<path fill="none" stroke="midnightblue" d="M239.23,-126.67C229.42,-115.45 216.81,-101.02 208.94,-92.01"/>
<polygon fill="midnightblue" stroke="midnightblue" points="236.83,-129.25 246.05,-134.48 242.1,-124.64 236.83,-129.25"/>
</g>
<!-- Node5 -->
<g id="node5" class="node">
<title>Node5</title>
<g id="a_node5"><a xlink:href="HomePage_8hpp.html" target="_top" xlink:title=" ">
<polygon fill="white" stroke="black" points="296.5,-67.5 296.5,-97.5 406.5,-97.5 406.5,-67.5 296.5,-67.5"/>
<text text-anchor="start" x="304.5" y="-85.5" font-family="Helvetica,sans-Serif" font-size="10.00">Client/src/Windows</text>
<text text-anchor="middle" x="351.5" y="-74.5" font-family="Helvetica,sans-Serif" font-size="10.00">/HomePage.hpp</text>
</a>
</g>
</g>
<!-- Node4&#45;&gt;Node5 -->
<g id="edge4" class="edge">
<title>Node4&#45;&gt;Node5</title>
<path fill="none" stroke="midnightblue" d="M276.1,-129.28C291.79,-119.75 312.61,-107.11 328.4,-97.52"/>
<polygon fill="midnightblue" stroke="midnightblue" points="274.27,-126.29 267.54,-134.48 277.91,-132.28 274.27,-126.29"/>
</g>
<!-- Node7 -->
<g id="node7" class="node">
<title>Node7</title>
<g id="a_node7"><a xlink:href="HomePage_8cpp.html" target="_top" xlink:title=" ">
<polygon fill="white" stroke="black" points="379.5,-0.5 379.5,-30.5 489.5,-30.5 489.5,-0.5 379.5,-0.5"/>
<text text-anchor="start" x="387.5" y="-18.5" font-family="Helvetica,sans-Serif" font-size="10.00">Client/src/Windows</text>
<text text-anchor="middle" x="434.5" y="-7.5" font-family="Helvetica,sans-Serif" font-size="10.00">/HomePage.cpp</text>
</a>
</g>
</g>
<!-- Node4&#45;&gt;Node7 -->
<g id="edge9" class="edge">
<title>Node4&#45;&gt;Node7</title>
<path fill="none" stroke="midnightblue" d="M340.61,-136.15C367.85,-129.86 395.89,-118.45 415.5,-98 433,-79.75 435.49,-48.66 435.29,-30.61"/>
<polygon fill="midnightblue" stroke="midnightblue" points="339.69,-132.77 330.62,-138.24 341.12,-139.62 339.69,-132.77"/>
</g>
<!-- Node6 -->
<g id="node6" class="node">
<title>Node6</title>
<g id="a_node6"><a xlink:href="Client_2src_2main_8cpp.html" target="_top" xlink:title=" ">
<polygon fill="white" stroke="black" points="251.5,-6 251.5,-25 361.5,-25 361.5,-6 251.5,-6"/>
<text text-anchor="middle" x="306.5" y="-13" font-family="Helvetica,sans-Serif" font-size="10.00">Client/src/main.cpp</text>
</a>
</g>
</g>
<!-- Node5&#45;&gt;Node6 -->
<g id="edge5" class="edge">
<title>Node5&#45;&gt;Node6</title>
<path fill="none" stroke="midnightblue" d="M335.91,-58.97C327.85,-47.33 318.48,-33.8 312.52,-25.19"/>
<polygon fill="midnightblue" stroke="midnightblue" points="333.17,-61.17 341.74,-67.4 338.92,-57.18 333.17,-61.17"/>
</g>
<!-- Node5&#45;&gt;Node7 -->
<g id="edge6" class="edge">
<title>Node5&#45;&gt;Node7</title>
<path fill="none" stroke="midnightblue" d="M377.46,-61.17C390.15,-51.23 405.11,-39.51 416.53,-30.58"/>
<polygon fill="midnightblue" stroke="midnightblue" points="375.22,-58.47 369.51,-67.4 379.54,-63.99 375.22,-58.47"/>
</g>
</g>
</svg>
