<?xml version="1.0" encoding="UTF-8" standalone="no"?>
<!DOCTYPE svg PUBLIC "-//W3C//DTD SVG 1.1//EN"
 "http://www.w3.org/Graphics/SVG/1.1/DTD/svg11.dtd">
<!-- Generated by graphviz version 2.43.0 (0)
 -->
<!-- Title: Client/src/Network/UDPSocket.hpp Pages: 1 -->
<svg width="513pt" height="151pt"
 viewBox="0.00 0.00 512.50 151.00" xmlns="http://www.w3.org/2000/svg" xmlns:xlink="http://www.w3.org/1999/xlink">
<g id="graph0" class="graph" transform="scale(1 1) rotate(0) translate(4 147)">
<title>Client/src/Network/UDPSocket.hpp</title>
<polygon fill="white" stroke="transparent" points="-4,4 -4,-147 508.5,-147 508.5,4 -4,4"/>
<!-- Node1 -->
<g id="node1" class="node">
<title>Node1</title>
<g id="a_node1"><a xlink:title=" ">
<polygon fill="#bfbfbf" stroke="black" points="120.5,-112.5 120.5,-142.5 227.5,-142.5 227.5,-112.5 120.5,-112.5"/>
<text text-anchor="start" x="128.5" y="-130.5" font-family="Helvetica,sans-Serif" font-size="10.00">Client/src/Network</text>
<text text-anchor="middle" x="174" y="-119.5" font-family="Helvetica,sans-Serif" font-size="10.00">/UDPSocket.hpp</text>
</a>
</g>
</g>
<!-- Node2 -->
<g id="node2" class="node">
<title>Node2</title>
<g id="a_node2"><a xlink:title=" ">
<polygon fill="white" stroke="#bfbfbf" points="0,-56.5 0,-75.5 76,-75.5 76,-56.5 0,-56.5"/>
<text text-anchor="middle" x="38" y="-63.5" font-family="Helvetica,sans-Serif" font-size="10.00">QUdpSocket</text>
</a>
</g>
</g>
<!-- Node1&#45;&gt;Node2 -->
<g id="edge1" class="edge">
<title>Node1&#45;&gt;Node2</title>
<path fill="none" stroke="midnightblue" d="M141.77,-112.4C119.16,-102.51 89.16,-89.38 67.24,-79.79"/>
<polygon fill="midnightblue" stroke="midnightblue" points="68.35,-76.46 57.79,-75.66 65.55,-82.87 68.35,-76.46"/>
</g>
<!-- Node3 -->
<g id="node3" class="node">
<title>Node3</title>
<g id="a_node3"><a xlink:title=" ">
<polygon fill="white" stroke="#bfbfbf" points="94,-56.5 94,-75.5 132,-75.5 132,-56.5 94,-56.5"/>
<text text-anchor="middle" x="113" y="-63.5" font-family="Helvetica,sans-Serif" font-size="10.00">map</text>
</a>
</g>
</g>
<!-- Node1&#45;&gt;Node3 -->
<g id="edge2" class="edge">
<title>Node1&#45;&gt;Node3</title>
<path fill="none" stroke="midnightblue" d="M159.54,-112.4C150.41,-103.49 138.58,-91.95 129.14,-82.74"/>
<polygon fill="midnightblue" stroke="midnightblue" points="131.48,-80.13 121.88,-75.66 126.59,-85.15 131.48,-80.13"/>
</g>
<!-- Node4 -->
<g id="node4" class="node">
<title>Node4</title>
<g id="a_node4"><a xlink:title=" ">
<polygon fill="white" stroke="#bfbfbf" points="150,-56.5 150,-75.5 198,-75.5 198,-56.5 150,-56.5"/>
<text text-anchor="middle" x="174" y="-63.5" font-family="Helvetica,sans-Serif" font-size="10.00">mutex</text>
</a>
</g>
</g>
<!-- Node1&#45;&gt;Node4 -->
<g id="edge3" class="edge">
<title>Node1&#45;&gt;Node4</title>
<path fill="none" stroke="midnightblue" d="M174,-112.4C174,-104.47 174,-94.46 174,-85.86"/>
<polygon fill="midnightblue" stroke="midnightblue" points="177.5,-85.66 174,-75.66 170.5,-85.66 177.5,-85.66"/>
</g>
<!-- Node5 -->
<g id="node5" class="node">
<title>Node5</title>
<g id="a_node5"><a xlink:href="ICodec_8hpp.html" target="_top" xlink:title=" ">
<polygon fill="white" stroke="black" points="216.5,-56.5 216.5,-75.5 345.5,-75.5 345.5,-56.5 216.5,-56.5"/>
<text text-anchor="middle" x="281" y="-63.5" font-family="Helvetica,sans-Serif" font-size="10.00">Audio/Opus/ICodec.hpp</text>
</a>
</g>
</g>
<!-- Node1&#45;&gt;Node5 -->
<g id="edge4" class="edge">
<title>Node1&#45;&gt;Node5</title>
<path fill="none" stroke="midnightblue" d="M199.36,-112.4C216.67,-102.77 239.48,-90.09 256.58,-80.58"/>
<polygon fill="midnightblue" stroke="midnightblue" points="258.39,-83.58 265.43,-75.66 254.99,-77.46 258.39,-83.58"/>
</g>
<!-- Node6 -->
<g id="node6" class="node">
<title>Node6</title>
<g id="a_node6"><a xlink:href="IAudioManager_8hpp.html" target="_top" xlink:title=" ">
<polygon fill="white" stroke="black" points="363.5,-56.5 363.5,-75.5 504.5,-75.5 504.5,-56.5 363.5,-56.5"/>
<text text-anchor="middle" x="434" y="-63.5" font-family="Helvetica,sans-Serif" font-size="10.00">Audio/IAudioManager.hpp</text>
</a>
</g>
</g>
<!-- Node1&#45;&gt;Node6 -->
<g id="edge5" class="edge">
<title>Node1&#45;&gt;Node6</title>
<path fill="none" stroke="midnightblue" d="M227.56,-114.24C274.41,-103.52 341.8,-88.1 386.7,-77.82"/>
<polygon fill="midnightblue" stroke="midnightblue" points="387.51,-81.23 396.48,-75.59 385.95,-74.41 387.51,-81.23"/>
</g>
<!-- Node7 -->
<g id="node7" class="node">
<title>Node7</title>
<g id="a_node7"><a xlink:title=" ">
<polygon fill="white" stroke="#bfbfbf" points="376.5,-0.5 376.5,-19.5 423.5,-19.5 423.5,-0.5 376.5,-0.5"/>
<text text-anchor="middle" x="400" y="-7.5" font-family="Helvetica,sans-Serif" font-size="10.00">vector</text>
</a>
</g>
</g>
<!-- Node6&#45;&gt;Node7 -->
<g id="edge6" class="edge">
<title>Node6&#45;&gt;Node7</title>
<path fill="none" stroke="midnightblue" d="M428.39,-56.08C423.63,-48.53 416.68,-37.49 410.85,-28.23"/>
<polygon fill="midnightblue" stroke="midnightblue" points="413.8,-26.35 405.51,-19.75 407.88,-30.08 413.8,-26.35"/>
</g>
<!-- Node8 -->
<g id="node8" class="node">
<title>Node8</title>
<g id="a_node8"><a xlink:title=" ">
<polygon fill="white" stroke="#bfbfbf" points="442,-0.5 442,-19.5 492,-19.5 492,-0.5 442,-0.5"/>
<text text-anchor="middle" x="467" y="-7.5" font-family="Helvetica,sans-Serif" font-size="10.00">cstdint</text>
</a>
</g>
</g>
<!-- Node6&#45;&gt;Node8 -->
<g id="edge7" class="edge">
<title>Node6&#45;&gt;Node8</title>
<path fill="none" stroke="midnightblue" d="M439.45,-56.08C444.01,-48.61 450.67,-37.72 456.29,-28.52"/>
<polygon fill="midnightblue" stroke="midnightblue" points="459.42,-30.11 461.65,-19.75 453.45,-26.46 459.42,-30.11"/>
</g>
</g>
</svg>
