<?xml version="1.0" encoding="UTF-8" standalone="no"?>
<!DOCTYPE svg PUBLIC "-//W3C//DTD SVG 1.1//EN"
 "http://www.w3.org/Graphics/SVG/1.1/DTD/svg11.dtd">
<!-- Generated by graphviz version 2.43.0 (0)
 -->
<!-- Title: Client/src/Network/UDPSocket.cpp Pages: 1 -->
<svg width="1805pt" height="375pt"
 viewBox="0.00 0.00 1805.00 375.00" xmlns="http://www.w3.org/2000/svg" xmlns:xlink="http://www.w3.org/1999/xlink">
<g id="graph0" class="graph" transform="scale(1 1) rotate(0) translate(4 371)">
<title>Client/src/Network/UDPSocket.cpp</title>
<polygon fill="white" stroke="transparent" points="-4,4 -4,-371 1801,-371 1801,4 -4,4"/>
<!-- Node1 -->
<g id="node1" class="node">
<title>Node1</title>
<g id="a_node1"><a xlink:title=" ">
<polygon fill="#bfbfbf" stroke="black" points="515.5,-336.5 515.5,-366.5 622.5,-366.5 622.5,-336.5 515.5,-336.5"/>
<text text-anchor="start" x="523.5" y="-354.5" font-family="Helvetica,sans-Serif" font-size="10.00">Client/src/Network</text>
<text text-anchor="middle" x="569" y="-343.5" font-family="Helvetica,sans-Serif" font-size="10.00">/UDPSocket.cpp</text>
</a>
</g>
</g>
<!-- Node2 -->
<g id="node2" class="node">
<title>Node2</title>
<g id="a_node2"><a xlink:title=" ">
<polygon fill="white" stroke="#bfbfbf" points="0,-280.5 0,-299.5 114,-299.5 114,-280.5 0,-280.5"/>
<text text-anchor="middle" x="57" y="-287.5" font-family="Helvetica,sans-Serif" font-size="10.00">QNetworkDatagram</text>
</a>
</g>
</g>
<!-- Node1&#45;&gt;Node2 -->
<g id="edge1" class="edge">
<title>Node1&#45;&gt;Node2</title>
<path fill="none" stroke="midnightblue" d="M515.35,-344.57C432.3,-335.34 267.63,-316.84 128,-300 126.89,-299.87 125.77,-299.73 124.64,-299.59"/>
<polygon fill="midnightblue" stroke="midnightblue" points="124.7,-296.07 114.34,-298.33 123.84,-303.02 124.7,-296.07"/>
</g>
<!-- Node3 -->
<g id="node3" class="node">
<title>Node3</title>
<g id="a_node3"><a xlink:href="ICodec_8hpp.html" target="_top" xlink:title=" ">
<polygon fill="white" stroke="black" points="315.5,-168.5 315.5,-187.5 444.5,-187.5 444.5,-168.5 315.5,-168.5"/>
<text text-anchor="middle" x="380" y="-175.5" font-family="Helvetica,sans-Serif" font-size="10.00">Audio/Opus/ICodec.hpp</text>
</a>
</g>
</g>
<!-- Node1&#45;&gt;Node3 -->
<g id="edge2" class="edge">
<title>Node1&#45;&gt;Node3</title>
<path fill="none" stroke="midnightblue" d="M553.53,-336.47C518.6,-304.77 433.8,-227.82 397.25,-194.65"/>
<polygon fill="midnightblue" stroke="midnightblue" points="399.19,-191.69 389.43,-187.56 394.49,-196.87 399.19,-191.69"/>
</g>
<!-- Node4 -->
<g id="node4" class="node">
<title>Node4</title>
<g id="a_node4"><a xlink:href="IAudioManager_8hpp.html" target="_top" xlink:title=" ">
<polygon fill="white" stroke="black" points="645.5,-168.5 645.5,-187.5 786.5,-187.5 786.5,-168.5 645.5,-168.5"/>
<text text-anchor="middle" x="716" y="-175.5" font-family="Helvetica,sans-Serif" font-size="10.00">Audio/IAudioManager.hpp</text>
</a>
</g>
</g>
<!-- Node1&#45;&gt;Node4 -->
<g id="edge3" class="edge">
<title>Node1&#45;&gt;Node4</title>
<path fill="none" stroke="midnightblue" d="M566.82,-336.5C563.7,-311.02 560.97,-256.69 588,-224 601.67,-207.47 621.82,-197 642.1,-190.38"/>
<polygon fill="midnightblue" stroke="midnightblue" points="643.13,-193.72 651.72,-187.51 641.14,-187.01 643.13,-193.72"/>
</g>
<!-- Node7 -->
<g id="node7" class="node">
<title>Node7</title>
<g id="a_node7"><a xlink:title=" ">
<polygon fill="white" stroke="#bfbfbf" points="255,-56.5 255,-75.5 305,-75.5 305,-56.5 255,-56.5"/>
<text text-anchor="middle" x="280" y="-63.5" font-family="Helvetica,sans-Serif" font-size="10.00">cstring</text>
</a>
</g>
</g>
<!-- Node1&#45;&gt;Node7 -->
<g id="edge6" class="edge">
<title>Node1&#45;&gt;Node7</title>
<path fill="none" stroke="midnightblue" d="M515.35,-347.27C400.67,-338.89 142,-311.51 142,-235 142,-235 142,-235 142,-177 142,-124.35 204.17,-92.82 245.06,-77.78"/>
<polygon fill="midnightblue" stroke="midnightblue" points="246.42,-81.01 254.69,-74.39 244.09,-74.41 246.42,-81.01"/>
</g>
<!-- Node8 -->
<g id="node8" class="node">
<title>Node8</title>
<g id="a_node8"><a xlink:title=" ">
<polygon fill="white" stroke="#bfbfbf" points="597,-224.5 597,-243.5 655,-243.5 655,-224.5 597,-224.5"/>
<text text-anchor="middle" x="626" y="-231.5" font-family="Helvetica,sans-Serif" font-size="10.00">memory</text>
</a>
</g>
</g>
<!-- Node1&#45;&gt;Node8 -->
<g id="edge7" class="edge">
<title>Node1&#45;&gt;Node8</title>
<path fill="none" stroke="midnightblue" d="M575.99,-336.34C586.4,-315.24 605.96,-275.6 617.29,-252.65"/>
<polygon fill="midnightblue" stroke="midnightblue" points="620.43,-254.19 621.72,-243.67 614.16,-251.09 620.43,-254.19"/>
</g>
<!-- Node9 -->
<g id="node9" class="node">
<title>Node9</title>
<g id="a_node9"><a xlink:href="UDPSocket_8hpp.html" target="_top" xlink:title=" ">
<polygon fill="white" stroke="black" points="749.5,-224.5 749.5,-243.5 840.5,-243.5 840.5,-224.5 749.5,-224.5"/>
<text text-anchor="middle" x="795" y="-231.5" font-family="Helvetica,sans-Serif" font-size="10.00">UDPSocket.hpp</text>
</a>
</g>
</g>
<!-- Node1&#45;&gt;Node9 -->
<g id="edge8" class="edge">
<title>Node1&#45;&gt;Node9</title>
<path fill="none" stroke="midnightblue" d="M596.71,-336.34C640.87,-313.77 726.58,-269.97 769.39,-248.09"/>
<polygon fill="midnightblue" stroke="midnightblue" points="771.01,-251.19 778.32,-243.52 767.83,-244.96 771.01,-251.19"/>
</g>
<!-- Node13 -->
<g id="node13" class="node">
<title>Node13</title>
<g id="a_node13"><a xlink:href="NetworkException_8hpp.html" target="_top" xlink:title=" ">
<polygon fill="white" stroke="black" points="170.5,-168.5 170.5,-187.5 297.5,-187.5 297.5,-168.5 170.5,-168.5"/>
<text text-anchor="middle" x="234" y="-175.5" font-family="Helvetica,sans-Serif" font-size="10.00">NetworkException.hpp</text>
</a>
</g>
</g>
<!-- Node1&#45;&gt;Node13 -->
<g id="edge14" class="edge">
<title>Node1&#45;&gt;Node13</title>
<path fill="none" stroke="midnightblue" d="M541.59,-336.47C478.1,-303.96 321.7,-223.9 259.81,-192.21"/>
<polygon fill="midnightblue" stroke="midnightblue" points="261.22,-189 250.72,-187.56 258.03,-195.23 261.22,-189"/>
</g>
<!-- Node17 -->
<g id="node17" class="node">
<title>Node17</title>
<g id="a_node17"><a xlink:href="SoundHandler_8hpp.html" target="_top" xlink:title=" ">
<polygon fill="white" stroke="black" points="913.5,-280.5 913.5,-299.5 1018.5,-299.5 1018.5,-280.5 913.5,-280.5"/>
<text text-anchor="middle" x="966" y="-287.5" font-family="Helvetica,sans-Serif" font-size="10.00">SoundHandler.hpp</text>
</a>
</g>
</g>
<!-- Node1&#45;&gt;Node17 -->
<g id="edge18" class="edge">
<title>Node1&#45;&gt;Node17</title>
<path fill="none" stroke="midnightblue" d="M622.54,-342.48C695.46,-331.55 825.77,-312.02 903.21,-300.41"/>
<polygon fill="midnightblue" stroke="midnightblue" points="903.94,-303.84 913.31,-298.9 902.9,-296.92 903.94,-303.84"/>
</g>
<!-- Node39 -->
<g id="node39" class="node">
<title>Node39</title>
<g id="a_node39"><a xlink:href="AudioPacket_8hpp.html" target="_top" xlink:title=" ">
<polygon fill="white" stroke="black" points="1643.5,-224.5 1643.5,-243.5 1784.5,-243.5 1784.5,-224.5 1643.5,-224.5"/>
<text text-anchor="middle" x="1714" y="-231.5" font-family="Helvetica,sans-Serif" font-size="10.00">Network/AudioPacket.hpp</text>
</a>
</g>
</g>
<!-- Node1&#45;&gt;Node39 -->
<g id="edge62" class="edge">
<title>Node1&#45;&gt;Node39</title>
<path fill="none" stroke="midnightblue" d="M622.69,-345.08C806.79,-326.51 1413.23,-265.34 1633.31,-243.14"/>
<polygon fill="midnightblue" stroke="midnightblue" points="1633.89,-246.6 1643.49,-242.11 1633.19,-239.63 1633.89,-246.6"/>
</g>
<!-- Node5 -->
<g id="node5" class="node">
<title>Node5</title>
<g id="a_node5"><a xlink:title=" ">
<polygon fill="white" stroke="#bfbfbf" points="1184.5,-56.5 1184.5,-75.5 1231.5,-75.5 1231.5,-56.5 1184.5,-56.5"/>
<text text-anchor="middle" x="1208" y="-63.5" font-family="Helvetica,sans-Serif" font-size="10.00">vector</text>
</a>
</g>
</g>
<!-- Node4&#45;&gt;Node5 -->
<g id="edge4" class="edge">
<title>Node4&#45;&gt;Node5</title>
<path fill="none" stroke="midnightblue" d="M785.54,-168.48C875.14,-157.36 1022.34,-138.55 1047,-132 1095.9,-119.02 1149.88,-95.12 1181.27,-80.2"/>
<polygon fill="midnightblue" stroke="midnightblue" points="1183.13,-83.19 1190.63,-75.7 1180.1,-76.88 1183.13,-83.19"/>
</g>
<!-- Node6 -->
<g id="node6" class="node">
<title>Node6</title>
<g id="a_node6"><a xlink:title=" ">
<polygon fill="white" stroke="#bfbfbf" points="860,-0.5 860,-19.5 910,-19.5 910,-0.5 860,-0.5"/>
<text text-anchor="middle" x="885" y="-7.5" font-family="Helvetica,sans-Serif" font-size="10.00">cstdint</text>
</a>
</g>
</g>
<!-- Node4&#45;&gt;Node6 -->
<g id="edge5" class="edge">
<title>Node4&#45;&gt;Node6</title>
<path fill="none" stroke="midnightblue" d="M714.98,-168.39C712.91,-146.59 710.63,-88.63 740,-56 743.81,-51.77 808.51,-32.76 850.18,-20.84"/>
<polygon fill="midnightblue" stroke="midnightblue" points="851.32,-24.15 859.98,-18.05 849.4,-17.42 851.32,-24.15"/>
</g>
<!-- Node9&#45;&gt;Node3 -->
<g id="edge12" class="edge">
<title>Node9&#45;&gt;Node3</title>
<path fill="none" stroke="midnightblue" d="M749.4,-227.07C678.31,-217.82 540.34,-199.86 454.61,-188.71"/>
<polygon fill="midnightblue" stroke="midnightblue" points="455.05,-185.24 444.68,-187.42 454.15,-192.18 455.05,-185.24"/>
</g>
<!-- Node9&#45;&gt;Node4 -->
<g id="edge13" class="edge">
<title>Node9&#45;&gt;Node4</title>
<path fill="none" stroke="midnightblue" d="M782.31,-224.32C770.1,-215.98 751.42,-203.21 737,-193.35"/>
<polygon fill="midnightblue" stroke="midnightblue" points="738.89,-190.41 728.66,-187.65 734.94,-196.19 738.89,-190.41"/>
</g>
<!-- Node10 -->
<g id="node10" class="node">
<title>Node10</title>
<g id="a_node10"><a xlink:title=" ">
<polygon fill="white" stroke="#bfbfbf" points="805,-168.5 805,-187.5 881,-187.5 881,-168.5 805,-168.5"/>
<text text-anchor="middle" x="843" y="-175.5" font-family="Helvetica,sans-Serif" font-size="10.00">QUdpSocket</text>
</a>
</g>
</g>
<!-- Node9&#45;&gt;Node10 -->
<g id="edge9" class="edge">
<title>Node9&#45;&gt;Node10</title>
<path fill="none" stroke="midnightblue" d="M802.93,-224.08C809.85,-216.3 820.07,-204.8 828.45,-195.37"/>
<polygon fill="midnightblue" stroke="midnightblue" points="831.19,-197.55 835.22,-187.75 825.96,-192.9 831.19,-197.55"/>
</g>
<!-- Node11 -->
<g id="node11" class="node">
<title>Node11</title>
<g id="a_node11"><a xlink:title=" ">
<polygon fill="white" stroke="#bfbfbf" points="937,-168.5 937,-187.5 975,-187.5 975,-168.5 937,-168.5"/>
<text text-anchor="middle" x="956" y="-175.5" font-family="Helvetica,sans-Serif" font-size="10.00">map</text>
</a>
</g>
</g>
<!-- Node9&#45;&gt;Node11 -->
<g id="edge10" class="edge">
<title>Node9&#45;&gt;Node11</title>
<path fill="none" stroke="midnightblue" d="M820.51,-224.44C849.51,-214.72 896.74,-198.88 927.08,-188.7"/>
<polygon fill="midnightblue" stroke="midnightblue" points="928.3,-191.98 936.67,-185.48 926.08,-185.34 928.3,-191.98"/>
</g>
<!-- Node12 -->
<g id="node12" class="node">
<title>Node12</title>
<g id="a_node12"><a xlink:title=" ">
<polygon fill="white" stroke="#bfbfbf" points="1250,-56.5 1250,-75.5 1298,-75.5 1298,-56.5 1250,-56.5"/>
<text text-anchor="middle" x="1274" y="-63.5" font-family="Helvetica,sans-Serif" font-size="10.00">mutex</text>
</a>
</g>
</g>
<!-- Node9&#45;&gt;Node12 -->
<g id="edge11" class="edge">
<title>Node9&#45;&gt;Node12</title>
<path fill="none" stroke="midnightblue" d="M813.68,-224.43C832.92,-215.55 863.72,-201.13 890,-188 907.07,-179.47 910.08,-174.57 928,-168 997.24,-142.6 1019.1,-152.32 1090,-132 1144.63,-116.34 1206.66,-93.3 1242.94,-79.27"/>
<polygon fill="midnightblue" stroke="midnightblue" points="1244.41,-82.45 1252.47,-75.57 1241.88,-75.93 1244.41,-82.45"/>
</g>
<!-- Node14 -->
<g id="node14" class="node">
<title>Node14</title>
<g id="a_node14"><a xlink:title=" ">
<polygon fill="white" stroke="#bfbfbf" points="548,-112.5 548,-131.5 592,-131.5 592,-112.5 548,-112.5"/>
<text text-anchor="middle" x="570" y="-119.5" font-family="Helvetica,sans-Serif" font-size="10.00">string</text>
</a>
</g>
</g>
<!-- Node13&#45;&gt;Node14 -->
<g id="edge15" class="edge">
<title>Node13&#45;&gt;Node14</title>
<path fill="none" stroke="midnightblue" d="M287.24,-168.44C357.79,-157.1 480.07,-137.45 537.91,-128.16"/>
<polygon fill="midnightblue" stroke="midnightblue" points="538.61,-131.59 547.93,-126.55 537.5,-124.68 538.61,-131.59"/>
</g>
<!-- Node15 -->
<g id="node15" class="node">
<title>Node15</title>
<g id="a_node15"><a xlink:href="BabelException_8hpp.html" target="_top" xlink:title=" ">
<polygon fill="white" stroke="black" points="435,-56.5 435,-75.5 605,-75.5 605,-56.5 435,-56.5"/>
<text text-anchor="middle" x="520" y="-63.5" font-family="Helvetica,sans-Serif" font-size="10.00">Exceptions/BabelException.hpp</text>
</a>
</g>
</g>
<!-- Node13&#45;&gt;Node15 -->
<g id="edge16" class="edge">
<title>Node13&#45;&gt;Node15</title>
<path fill="none" stroke="midnightblue" d="M256.44,-168.37C306.98,-148.93 429.85,-101.67 488.21,-79.23"/>
<polygon fill="midnightblue" stroke="midnightblue" points="489.59,-82.45 497.66,-75.59 487.07,-75.91 489.59,-82.45"/>
</g>
<!-- Node16 -->
<g id="node16" class="node">
<title>Node16</title>
<g id="a_node16"><a xlink:title=" ">
<polygon fill="white" stroke="#bfbfbf" points="487.5,-0.5 487.5,-19.5 552.5,-19.5 552.5,-0.5 487.5,-0.5"/>
<text text-anchor="middle" x="520" y="-7.5" font-family="Helvetica,sans-Serif" font-size="10.00">stdexcept</text>
</a>
</g>
</g>
<!-- Node15&#45;&gt;Node16 -->
<g id="edge17" class="edge">
<title>Node15&#45;&gt;Node16</title>
<path fill="none" stroke="midnightblue" d="M520,-56.08C520,-49.01 520,-38.86 520,-29.99"/>
<polygon fill="midnightblue" stroke="midnightblue" points="523.5,-29.75 520,-19.75 516.5,-29.75 523.5,-29.75"/>
</g>
<!-- Node17&#45;&gt;Node3 -->
<g id="edge24" class="edge">
<title>Node17&#45;&gt;Node3</title>
<path fill="none" stroke="midnightblue" d="M913.43,-286.09C858.08,-281.68 769.14,-270.77 697,-244 680.92,-238.03 680.1,-229.9 664,-224 644.43,-216.83 529.53,-199.87 452.01,-188.94"/>
<polygon fill="midnightblue" stroke="midnightblue" points="452.2,-185.43 441.81,-187.5 451.22,-192.36 452.2,-185.43"/>
</g>
<!-- Node17&#45;&gt;Node4 -->
<g id="edge25" class="edge">
<title>Node17&#45;&gt;Node4</title>
<path fill="none" stroke="midnightblue" d="M966.14,-280.38C965.87,-266.37 963.16,-238.74 947,-224 935.11,-213.15 850.34,-198.61 786.91,-189.03"/>
<polygon fill="midnightblue" stroke="midnightblue" points="787.34,-185.56 776.93,-187.54 786.3,-192.48 787.34,-185.56"/>
</g>
<!-- Node17&#45;&gt;Node8 -->
<g id="edge19" class="edge">
<title>Node17&#45;&gt;Node8</title>
<path fill="none" stroke="midnightblue" d="M913.28,-281.92C853.78,-273.72 754.2,-259.36 669,-244 667.73,-243.77 666.45,-243.53 665.15,-243.29"/>
<polygon fill="midnightblue" stroke="midnightblue" points="665.59,-239.81 655.1,-241.32 664.24,-246.68 665.59,-239.81"/>
</g>
<!-- Node17&#45;&gt;Node9 -->
<g id="edge59" class="edge">
<title>Node17&#45;&gt;Node9</title>
<path fill="none" stroke="midnightblue" d="M938.9,-280.44C910.01,-271.32 864.08,-256.81 831.89,-246.65"/>
<polygon fill="midnightblue" stroke="midnightblue" points="832.56,-243.19 821.97,-243.52 830.45,-249.87 832.56,-243.19"/>
</g>
<!-- Node17&#45;&gt;Node11 -->
<g id="edge20" class="edge">
<title>Node17&#45;&gt;Node11</title>
<path fill="none" stroke="midnightblue" d="M970.49,-280.13C976.27,-267.57 984.98,-243.93 980,-224 977.56,-214.25 972.56,-204.29 967.76,-196.23"/>
<polygon fill="midnightblue" stroke="midnightblue" points="970.69,-194.32 962.37,-187.77 964.79,-198.08 970.69,-194.32"/>
</g>
<!-- Node18 -->
<g id="node18" class="node">
<title>Node18</title>
<g id="a_node18"><a xlink:title=" ">
<polygon fill="white" stroke="#bfbfbf" points="1388,-224.5 1388,-243.5 1436,-243.5 1436,-224.5 1388,-224.5"/>
<text text-anchor="middle" x="1412" y="-231.5" font-family="Helvetica,sans-Serif" font-size="10.00">thread</text>
</a>
</g>
</g>
<!-- Node17&#45;&gt;Node18 -->
<g id="edge21" class="edge">
<title>Node17&#45;&gt;Node18</title>
<path fill="none" stroke="midnightblue" d="M1018.55,-285.94C1095.47,-280.87 1243.29,-268.92 1377.87,-243.93"/>
<polygon fill="midnightblue" stroke="midnightblue" points="1378.77,-247.32 1387.95,-242.03 1377.48,-240.44 1378.77,-247.32"/>
</g>
<!-- Node19 -->
<g id="node19" class="node">
<title>Node19</title>
<g id="a_node19"><a xlink:title=" ">
<polygon fill="white" stroke="#bfbfbf" points="1493.5,-56.5 1493.5,-75.5 1600.5,-75.5 1600.5,-56.5 1493.5,-56.5"/>
<text text-anchor="middle" x="1547" y="-63.5" font-family="Helvetica,sans-Serif" font-size="10.00">condition_variable</text>
</a>
</g>
</g>
<!-- Node17&#45;&gt;Node19 -->
<g id="edge22" class="edge">
<title>Node17&#45;&gt;Node19</title>
<path fill="none" stroke="midnightblue" d="M1018.7,-284.36C1141.1,-273.56 1434.97,-247.35 1445,-244 1490.04,-228.94 1510.98,-228.36 1536,-188 1555.56,-156.44 1553.42,-111.07 1550.18,-85.8"/>
<polygon fill="midnightblue" stroke="midnightblue" points="1553.61,-85.11 1548.68,-75.73 1546.69,-86.14 1553.61,-85.11"/>
</g>
<!-- Node20 -->
<g id="node20" class="node">
<title>Node20</title>
<g id="a_node20"><a xlink:title=" ">
<polygon fill="white" stroke="#bfbfbf" points="858.5,-224.5 858.5,-243.5 937.5,-243.5 937.5,-224.5 858.5,-224.5"/>
<text text-anchor="middle" x="898" y="-231.5" font-family="Helvetica,sans-Serif" font-size="10.00">QApplication</text>
</a>
</g>
</g>
<!-- Node17&#45;&gt;Node20 -->
<g id="edge23" class="edge">
<title>Node17&#45;&gt;Node20</title>
<path fill="none" stroke="midnightblue" d="M955.07,-280.32C944.83,-272.18 929.28,-259.84 917,-250.09"/>
<polygon fill="midnightblue" stroke="midnightblue" points="919.13,-247.31 909.12,-243.83 914.78,-252.79 919.13,-247.31"/>
</g>
<!-- Node21 -->
<g id="node21" class="node">
<title>Node21</title>
<g id="a_node21"><a xlink:href="PortAudioException_8hpp.html" target="_top" xlink:title=" ">
<polygon fill="white" stroke="black" points="463,-168.5 463,-187.5 627,-187.5 627,-168.5 463,-168.5"/>
<text text-anchor="middle" x="545" y="-175.5" font-family="Helvetica,sans-Serif" font-size="10.00">Audio/PortAudioException.hpp</text>
</a>
</g>
</g>
<!-- Node17&#45;&gt;Node21 -->
<g id="edge26" class="edge">
<title>Node17&#45;&gt;Node21</title>
<path fill="none" stroke="midnightblue" d="M913.3,-281.96C867.14,-274.97 798.63,-262.59 741,-244 720.56,-237.41 717.12,-231.51 697,-224 661.09,-210.6 619.27,-198.46 588.6,-190.18"/>
<polygon fill="midnightblue" stroke="midnightblue" points="589.21,-186.72 578.65,-187.52 587.41,-193.48 589.21,-186.72"/>
</g>
<!-- Node22 -->
<g id="node22" class="node">
<title>Node22</title>
<g id="a_node22"><a xlink:href="QtTCPConnection_8hpp.html" target="_top" xlink:title=" ">
<polygon fill="white" stroke="black" points="1204,-224.5 1204,-243.5 1370,-243.5 1370,-224.5 1204,-224.5"/>
<text text-anchor="middle" x="1287" y="-231.5" font-family="Helvetica,sans-Serif" font-size="10.00">Network/QtTCPConnection.hpp</text>
</a>
</g>
</g>
<!-- Node17&#45;&gt;Node22 -->
<g id="edge29" class="edge">
<title>Node17&#45;&gt;Node22</title>
<path fill="none" stroke="midnightblue" d="M1016.86,-280.44C1073.68,-270.89 1165.62,-255.42 1226.19,-245.23"/>
<polygon fill="midnightblue" stroke="midnightblue" points="1227.09,-248.63 1236.37,-243.52 1225.93,-241.72 1227.09,-248.63"/>
</g>
<!-- Node34 -->
<g id="node34" class="node">
<title>Node34</title>
<g id="a_node34"><a xlink:href="RFCCodes_8hpp.html" target="_top" xlink:title=" ">
<polygon fill="white" stroke="black" points="1605.5,-168.5 1605.5,-187.5 1736.5,-187.5 1736.5,-168.5 1605.5,-168.5"/>
<text text-anchor="middle" x="1671" y="-175.5" font-family="Helvetica,sans-Serif" font-size="10.00">Network/RFCCodes.hpp</text>
</a>
</g>
</g>
<!-- Node17&#45;&gt;Node34 -->
<g id="edge58" class="edge">
<title>Node17&#45;&gt;Node34</title>
<path fill="none" stroke="midnightblue" d="M1018.67,-289.24C1149.74,-289.21 1487.45,-285.01 1591,-244 1617.64,-233.45 1642.24,-210.68 1656.94,-195.09"/>
<polygon fill="midnightblue" stroke="midnightblue" points="1659.53,-197.45 1663.69,-187.7 1654.36,-192.73 1659.53,-197.45"/>
</g>
<!-- Node17&#45;&gt;Node39 -->
<g id="edge60" class="edge">
<title>Node17&#45;&gt;Node39</title>
<path fill="none" stroke="midnightblue" d="M1018.91,-286.09C1131.33,-279.75 1402.29,-263.69 1629,-244 1630.29,-243.89 1631.59,-243.77 1632.9,-243.66"/>
<polygon fill="midnightblue" stroke="midnightblue" points="1633.42,-247.12 1643.06,-242.71 1632.78,-240.15 1633.42,-247.12"/>
</g>
<!-- Node21&#45;&gt;Node14 -->
<g id="edge27" class="edge">
<title>Node21&#45;&gt;Node14</title>
<path fill="none" stroke="midnightblue" d="M549.13,-168.08C552.51,-160.77 557.42,-150.18 561.62,-141.1"/>
<polygon fill="midnightblue" stroke="midnightblue" points="564.92,-142.3 565.95,-131.75 558.57,-139.36 564.92,-142.3"/>
</g>
<!-- Node21&#45;&gt;Node15 -->
<g id="edge28" class="edge">
<title>Node21&#45;&gt;Node15</title>
<path fill="none" stroke="midnightblue" d="M543.04,-168.37C539,-150.62 529.7,-109.67 524.23,-85.6"/>
<polygon fill="midnightblue" stroke="midnightblue" points="527.58,-84.57 521.95,-75.59 520.76,-86.12 527.58,-84.57"/>
</g>
<!-- Node22&#45;&gt;Node6 -->
<g id="edge30" class="edge">
<title>Node22&#45;&gt;Node6</title>
<path fill="none" stroke="midnightblue" d="M1203.87,-225.7C1150.8,-219.39 1081.12,-208.01 1022,-188 1003.92,-181.88 1001.2,-176.26 984,-168 891.78,-123.7 829.05,-161.58 773,-76 768.13,-68.56 768.02,-63.36 773,-56 782.03,-42.64 820.66,-29.09 850.05,-20.4"/>
<polygon fill="midnightblue" stroke="midnightblue" points="851.36,-23.66 860,-17.53 849.42,-16.94 851.36,-23.66"/>
</g>
<!-- Node23 -->
<g id="node23" class="node">
<title>Node23</title>
<g id="a_node23"><a xlink:href="ITCPConnection_8hpp.html" target="_top" xlink:title=" ">
<polygon fill="white" stroke="black" points="1031,-168.5 1031,-187.5 1189,-187.5 1189,-168.5 1031,-168.5"/>
<text text-anchor="middle" x="1110" y="-175.5" font-family="Helvetica,sans-Serif" font-size="10.00">Network/ITCPConnection.hpp</text>
</a>
</g>
</g>
<!-- Node22&#45;&gt;Node23 -->
<g id="edge31" class="edge">
<title>Node22&#45;&gt;Node23</title>
<path fill="none" stroke="midnightblue" d="M1258.95,-224.44C1228.92,-215.28 1181.09,-200.69 1147.76,-190.52"/>
<polygon fill="midnightblue" stroke="midnightblue" points="1148.5,-187.09 1137.91,-187.52 1146.46,-193.78 1148.5,-187.09"/>
</g>
<!-- Node24 -->
<g id="node24" class="node">
<title>Node24</title>
<g id="a_node24"><a xlink:title=" ">
<polygon fill="white" stroke="#bfbfbf" points="1451.5,-112.5 1451.5,-131.5 1516.5,-131.5 1516.5,-112.5 1451.5,-112.5"/>
<text text-anchor="middle" x="1484" y="-119.5" font-family="Helvetica,sans-Serif" font-size="10.00">functional</text>
</a>
</g>
</g>
<!-- Node22&#45;&gt;Node24 -->
<g id="edge55" class="edge">
<title>Node22&#45;&gt;Node24</title>
<path fill="none" stroke="midnightblue" d="M1353.88,-224.46C1418.89,-215.47 1509.38,-200.87 1520,-188 1532.61,-172.72 1517.14,-152.38 1502.74,-138.55"/>
<polygon fill="midnightblue" stroke="midnightblue" points="1504.8,-135.71 1495.03,-131.61 1500.12,-140.91 1504.8,-135.71"/>
</g>
<!-- Node22&#45;&gt;Node34 -->
<g id="edge51" class="edge">
<title>Node22&#45;&gt;Node34</title>
<path fill="none" stroke="midnightblue" d="M1347.85,-224.44C1416.52,-214.79 1528.07,-199.1 1600.49,-188.92"/>
<polygon fill="midnightblue" stroke="midnightblue" points="1601.02,-192.37 1610.44,-187.52 1600.05,-185.44 1601.02,-192.37"/>
</g>
<!-- Node35 -->
<g id="node35" class="node">
<title>Node35</title>
<g id="a_node35"><a xlink:title=" ">
<polygon fill="white" stroke="#bfbfbf" points="1207,-168.5 1207,-187.5 1279,-187.5 1279,-168.5 1207,-168.5"/>
<text text-anchor="middle" x="1243" y="-175.5" font-family="Helvetica,sans-Serif" font-size="10.00">QTcpSocket</text>
</a>
</g>
</g>
<!-- Node22&#45;&gt;Node35 -->
<g id="edge53" class="edge">
<title>Node22&#45;&gt;Node35</title>
<path fill="none" stroke="midnightblue" d="M1279.73,-224.08C1273.46,-216.38 1264.21,-205.03 1256.57,-195.65"/>
<polygon fill="midnightblue" stroke="midnightblue" points="1259.16,-193.29 1250.13,-187.75 1253.73,-197.71 1259.16,-193.29"/>
</g>
<!-- Node36 -->
<g id="node36" class="node">
<title>Node36</title>
<g id="a_node36"><a xlink:title=" ">
<polygon fill="white" stroke="#bfbfbf" points="1297,-168.5 1297,-187.5 1365,-187.5 1365,-168.5 1297,-168.5"/>
<text text-anchor="middle" x="1331" y="-175.5" font-family="Helvetica,sans-Serif" font-size="10.00">QtWidgets</text>
</a>
</g>
</g>
<!-- Node22&#45;&gt;Node36 -->
<g id="edge54" class="edge">
<title>Node22&#45;&gt;Node36</title>
<path fill="none" stroke="midnightblue" d="M1294.27,-224.08C1300.54,-216.38 1309.79,-205.03 1317.43,-195.65"/>
<polygon fill="midnightblue" stroke="midnightblue" points="1320.27,-197.71 1323.87,-187.75 1314.84,-193.29 1320.27,-197.71"/>
</g>
<!-- Node37 -->
<g id="node37" class="node">
<title>Node37</title>
<g id="a_node37"><a xlink:title=" ">
<polygon fill="white" stroke="#bfbfbf" points="1383.5,-168.5 1383.5,-187.5 1436.5,-187.5 1436.5,-168.5 1383.5,-168.5"/>
<text text-anchor="middle" x="1410" y="-175.5" font-family="Helvetica,sans-Serif" font-size="10.00">QString</text>
</a>
</g>
</g>
<!-- Node22&#45;&gt;Node37 -->
<g id="edge56" class="edge">
<title>Node22&#45;&gt;Node37</title>
<path fill="none" stroke="midnightblue" d="M1306.49,-224.44C1326.64,-215.6 1358.32,-201.69 1381.33,-191.59"/>
<polygon fill="midnightblue" stroke="midnightblue" points="1382.85,-194.74 1390.6,-187.52 1380.04,-188.33 1382.85,-194.74"/>
</g>
<!-- Node38 -->
<g id="node38" class="node">
<title>Node38</title>
<g id="a_node38"><a xlink:title=" ">
<polygon fill="white" stroke="#bfbfbf" points="1455,-168.5 1455,-187.5 1511,-187.5 1511,-168.5 1455,-168.5"/>
<text text-anchor="middle" x="1483" y="-175.5" font-family="Helvetica,sans-Serif" font-size="10.00">QObject</text>
</a>
</g>
</g>
<!-- Node22&#45;&gt;Node38 -->
<g id="edge57" class="edge">
<title>Node22&#45;&gt;Node38</title>
<path fill="none" stroke="midnightblue" d="M1318.06,-224.44C1352.49,-214.96 1408.05,-199.65 1445.04,-189.46"/>
<polygon fill="midnightblue" stroke="midnightblue" points="1446.24,-192.76 1454.95,-186.73 1444.38,-186.01 1446.24,-192.76"/>
</g>
<!-- Node23&#45;&gt;Node5 -->
<g id="edge33" class="edge">
<title>Node23&#45;&gt;Node5</title>
<path fill="none" stroke="midnightblue" d="M1117.69,-168.37C1134.01,-150.05 1172.32,-107.05 1193.42,-83.36"/>
<polygon fill="midnightblue" stroke="midnightblue" points="1196.31,-85.39 1200.35,-75.59 1191.08,-80.73 1196.31,-85.39"/>
</g>
<!-- Node23&#45;&gt;Node14 -->
<g id="edge32" class="edge">
<title>Node23&#45;&gt;Node14</title>
<path fill="none" stroke="midnightblue" d="M1030.9,-169.09C910.36,-157.04 685.9,-134.59 602.39,-126.24"/>
<polygon fill="midnightblue" stroke="midnightblue" points="602.54,-122.74 592.24,-125.22 601.85,-129.7 602.54,-122.74"/>
</g>
<!-- Node23&#45;&gt;Node24 -->
<g id="edge34" class="edge">
<title>Node23&#45;&gt;Node24</title>
<path fill="none" stroke="midnightblue" d="M1169.26,-168.44C1244.92,-157.52 1374.03,-138.88 1440.95,-129.22"/>
<polygon fill="midnightblue" stroke="midnightblue" points="1441.74,-132.64 1451.13,-127.75 1440.74,-125.71 1441.74,-132.64"/>
</g>
<!-- Node25 -->
<g id="node25" class="node">
<title>Node25</title>
<g id="a_node25"><a xlink:href="Message_8hpp.html" target="_top" xlink:title=" ">
<polygon fill="white" stroke="black" points="912.5,-112.5 912.5,-131.5 1037.5,-131.5 1037.5,-112.5 912.5,-112.5"/>
<text text-anchor="middle" x="975" y="-119.5" font-family="Helvetica,sans-Serif" font-size="10.00">Network/Message.hpp</text>
</a>
</g>
</g>
<!-- Node23&#45;&gt;Node25 -->
<g id="edge35" class="edge">
<title>Node23&#45;&gt;Node25</title>
<path fill="none" stroke="midnightblue" d="M1088.61,-168.44C1066.29,-159.52 1031.1,-145.44 1005.79,-135.32"/>
<polygon fill="midnightblue" stroke="midnightblue" points="1006.88,-131.98 996.29,-131.52 1004.28,-138.48 1006.88,-131.98"/>
</g>
<!-- Node31 -->
<g id="node31" class="node">
<title>Node31</title>
<g id="a_node31"><a xlink:href="TSQueue_8hpp.html" target="_top" xlink:title=" ">
<polygon fill="white" stroke="black" points="1279,-112.5 1279,-131.5 1401,-131.5 1401,-112.5 1279,-112.5"/>
<text text-anchor="middle" x="1340" y="-119.5" font-family="Helvetica,sans-Serif" font-size="10.00">Utilities/TSQueue.hpp</text>
</a>
</g>
</g>
<!-- Node23&#45;&gt;Node31 -->
<g id="edge46" class="edge">
<title>Node23&#45;&gt;Node31</title>
<path fill="none" stroke="midnightblue" d="M1146.44,-168.44C1186.4,-159.06 1250.59,-143.99 1293.98,-133.8"/>
<polygon fill="midnightblue" stroke="midnightblue" points="1294.79,-137.21 1303.73,-131.52 1293.19,-130.39 1294.79,-137.21"/>
</g>
<!-- Node25&#45;&gt;Node5 -->
<g id="edge42" class="edge">
<title>Node25&#45;&gt;Node5</title>
<path fill="none" stroke="midnightblue" d="M1012.4,-112.44C1051.66,-103.43 1115.19,-88.81 1170,-76 1171.44,-75.66 1172.92,-75.32 1174.41,-74.97"/>
<polygon fill="midnightblue" stroke="midnightblue" points="1175.36,-78.34 1184.29,-72.64 1173.75,-71.53 1175.36,-78.34"/>
</g>
<!-- Node25&#45;&gt;Node6 -->
<g id="edge41" class="edge">
<title>Node25&#45;&gt;Node6</title>
<path fill="none" stroke="midnightblue" d="M1032.74,-112.46C1073.92,-105.05 1124.19,-92.85 1137,-76 1142.38,-68.92 1142.71,-62.82 1137,-56 1109.76,-23.47 982.95,-14.43 920.26,-11.94"/>
<polygon fill="midnightblue" stroke="midnightblue" points="920.18,-8.43 910.06,-11.57 919.93,-15.43 920.18,-8.43"/>
</g>
<!-- Node25&#45;&gt;Node7 -->
<g id="edge40" class="edge">
<title>Node25&#45;&gt;Node7</title>
<path fill="none" stroke="midnightblue" d="M912.4,-116.14C770.18,-105.09 426.45,-78.38 315.31,-69.74"/>
<polygon fill="midnightblue" stroke="midnightblue" points="315.53,-66.25 305.29,-68.97 314.99,-73.23 315.53,-66.25"/>
</g>
<!-- Node25&#45;&gt;Node15 -->
<g id="edge36" class="edge">
<title>Node25&#45;&gt;Node15</title>
<path fill="none" stroke="midnightblue" d="M912.21,-113.55C831.46,-103.96 691.04,-87.3 601.95,-76.73"/>
<polygon fill="midnightblue" stroke="midnightblue" points="602.23,-73.23 591.88,-75.53 601.4,-80.19 602.23,-73.23"/>
</g>
<!-- Node26 -->
<g id="node26" class="node">
<title>Node26</title>
<g id="a_node26"><a xlink:href="SwapEndian_8hpp.html" target="_top" xlink:title=" ">
<polygon fill="white" stroke="black" points="782,-56.5 782,-75.5 920,-75.5 920,-56.5 782,-56.5"/>
<text text-anchor="middle" x="851" y="-63.5" font-family="Helvetica,sans-Serif" font-size="10.00">Utilities/SwapEndian.hpp</text>
</a>
</g>
</g>
<!-- Node25&#45;&gt;Node26 -->
<g id="edge37" class="edge">
<title>Node25&#45;&gt;Node26</title>
<path fill="none" stroke="midnightblue" d="M955.35,-112.44C935.04,-103.6 903.1,-89.69 879.9,-79.59"/>
<polygon fill="midnightblue" stroke="midnightblue" points="881.12,-76.3 870.56,-75.52 878.33,-82.72 881.12,-76.3"/>
</g>
<!-- Node28 -->
<g id="node28" class="node">
<title>Node28</title>
<g id="a_node28"><a xlink:title=" ">
<polygon fill="white" stroke="#bfbfbf" points="938,-56.5 938,-75.5 1002,-75.5 1002,-56.5 938,-56.5"/>
<text text-anchor="middle" x="970" y="-63.5" font-family="Helvetica,sans-Serif" font-size="10.00">algorithm</text>
</a>
</g>
</g>
<!-- Node25&#45;&gt;Node28 -->
<g id="edge43" class="edge">
<title>Node25&#45;&gt;Node28</title>
<path fill="none" stroke="midnightblue" d="M974.17,-112.08C973.52,-105.01 972.58,-94.86 971.76,-85.99"/>
<polygon fill="midnightblue" stroke="midnightblue" points="975.22,-85.39 970.81,-75.75 968.25,-86.03 975.22,-85.39"/>
</g>
<!-- Node29 -->
<g id="node29" class="node">
<title>Node29</title>
<g id="a_node29"><a xlink:title=" ">
<polygon fill="white" stroke="#bfbfbf" points="1020,-56.5 1020,-75.5 1080,-75.5 1080,-56.5 1020,-56.5"/>
<text text-anchor="middle" x="1050" y="-63.5" font-family="Helvetica,sans-Serif" font-size="10.00">iostream</text>
</a>
</g>
</g>
<!-- Node25&#45;&gt;Node29 -->
<g id="edge44" class="edge">
<title>Node25&#45;&gt;Node29</title>
<path fill="none" stroke="midnightblue" d="M987.05,-112.32C998.46,-104.11 1015.83,-91.6 1029.43,-81.81"/>
<polygon fill="midnightblue" stroke="midnightblue" points="1031.66,-84.52 1037.73,-75.83 1027.57,-78.84 1031.66,-84.52"/>
</g>
<!-- Node30 -->
<g id="node30" class="node">
<title>Node30</title>
<g id="a_node30"><a xlink:title=" ">
<polygon fill="white" stroke="#bfbfbf" points="1098.5,-56.5 1098.5,-75.5 1127.5,-75.5 1127.5,-56.5 1098.5,-56.5"/>
<text text-anchor="middle" x="1113" y="-63.5" font-family="Helvetica,sans-Serif" font-size="10.00">bit</text>
</a>
</g>
</g>
<!-- Node25&#45;&gt;Node30 -->
<g id="edge45" class="edge">
<title>Node25&#45;&gt;Node30</title>
<path fill="none" stroke="midnightblue" d="M996.87,-112.44C1021.96,-102.62 1062.98,-86.57 1088.96,-76.41"/>
<polygon fill="midnightblue" stroke="midnightblue" points="1090.4,-79.6 1098.43,-72.7 1087.84,-73.09 1090.4,-79.6"/>
</g>
<!-- Node26&#45;&gt;Node6 -->
<g id="edge39" class="edge">
<title>Node26&#45;&gt;Node6</title>
<path fill="none" stroke="midnightblue" d="M856.61,-56.08C861.37,-48.53 868.32,-37.49 874.15,-28.23"/>
<polygon fill="midnightblue" stroke="midnightblue" points="877.12,-30.08 879.49,-19.75 871.2,-26.35 877.12,-30.08"/>
</g>
<!-- Node27 -->
<g id="node27" class="node">
<title>Node27</title>
<g id="a_node27"><a xlink:title=" ">
<polygon fill="white" stroke="#bfbfbf" points="792,-0.5 792,-19.5 842,-19.5 842,-0.5 792,-0.5"/>
<text text-anchor="middle" x="817" y="-7.5" font-family="Helvetica,sans-Serif" font-size="10.00">climits</text>
</a>
</g>
</g>
<!-- Node26&#45;&gt;Node27 -->
<g id="edge38" class="edge">
<title>Node26&#45;&gt;Node27</title>
<path fill="none" stroke="midnightblue" d="M845.39,-56.08C840.63,-48.53 833.68,-37.49 827.85,-28.23"/>
<polygon fill="midnightblue" stroke="midnightblue" points="830.8,-26.35 822.51,-19.75 824.88,-30.08 830.8,-26.35"/>
</g>
<!-- Node31&#45;&gt;Node12 -->
<g id="edge47" class="edge">
<title>Node31&#45;&gt;Node12</title>
<path fill="none" stroke="midnightblue" d="M1329.4,-112.32C1319.54,-104.26 1304.65,-92.08 1292.78,-82.37"/>
<polygon fill="midnightblue" stroke="midnightblue" points="1294.75,-79.46 1284.8,-75.83 1290.32,-84.88 1294.75,-79.46"/>
</g>
<!-- Node31&#45;&gt;Node19 -->
<g id="edge48" class="edge">
<title>Node31&#45;&gt;Node19</title>
<path fill="none" stroke="midnightblue" d="M1372.8,-112.44C1408.38,-103.16 1465.31,-88.31 1504.35,-78.13"/>
<polygon fill="midnightblue" stroke="midnightblue" points="1505.56,-81.43 1514.35,-75.52 1503.79,-74.65 1505.56,-81.43"/>
</g>
<!-- Node32 -->
<g id="node32" class="node">
<title>Node32</title>
<g id="a_node32"><a xlink:title=" ">
<polygon fill="white" stroke="#bfbfbf" points="1316.5,-56.5 1316.5,-75.5 1363.5,-75.5 1363.5,-56.5 1316.5,-56.5"/>
<text text-anchor="middle" x="1340" y="-63.5" font-family="Helvetica,sans-Serif" font-size="10.00">deque</text>
</a>
</g>
</g>
<!-- Node31&#45;&gt;Node32 -->
<g id="edge49" class="edge">
<title>Node31&#45;&gt;Node32</title>
<path fill="none" stroke="midnightblue" d="M1340,-112.08C1340,-105.01 1340,-94.86 1340,-85.99"/>
<polygon fill="midnightblue" stroke="midnightblue" points="1343.5,-85.75 1340,-75.75 1336.5,-85.75 1343.5,-85.75"/>
</g>
<!-- Node33 -->
<g id="node33" class="node">
<title>Node33</title>
<g id="a_node33"><a xlink:title=" ">
<polygon fill="white" stroke="#bfbfbf" points="1382,-56.5 1382,-75.5 1432,-75.5 1432,-56.5 1382,-56.5"/>
<text text-anchor="middle" x="1407" y="-63.5" font-family="Helvetica,sans-Serif" font-size="10.00">chrono</text>
</a>
</g>
</g>
<!-- Node31&#45;&gt;Node33 -->
<g id="edge50" class="edge">
<title>Node31&#45;&gt;Node33</title>
<path fill="none" stroke="midnightblue" d="M1350.76,-112.32C1360.77,-104.26 1375.89,-92.08 1387.93,-82.37"/>
<polygon fill="midnightblue" stroke="midnightblue" points="1390.45,-84.83 1396.04,-75.83 1386.06,-79.38 1390.45,-84.83"/>
</g>
<!-- Node34&#45;&gt;Node6 -->
<g id="edge52" class="edge">
<title>Node34&#45;&gt;Node6</title>
<path fill="none" stroke="midnightblue" d="M1669.62,-168.34C1665.45,-145.37 1650.66,-82.81 1610,-56 1552.08,-17.81 1058.1,-12.03 920.47,-11.15"/>
<polygon fill="midnightblue" stroke="midnightblue" points="920.11,-7.65 910.08,-11.09 920.06,-14.65 920.11,-7.65"/>
</g>
<!-- Node40 -->
<g id="node40" class="node">
<title>Node40</title>
<g id="a_node40"><a xlink:title=" ">
<polygon fill="white" stroke="#bfbfbf" points="1755,-168.5 1755,-187.5 1797,-187.5 1797,-168.5 1755,-168.5"/>
<text text-anchor="middle" x="1776" y="-175.5" font-family="Helvetica,sans-Serif" font-size="10.00">array</text>
</a>
</g>
</g>
<!-- Node39&#45;&gt;Node40 -->
<g id="edge61" class="edge">
<title>Node39&#45;&gt;Node40</title>
<path fill="none" stroke="midnightblue" d="M1723.96,-224.32C1733.13,-216.34 1746.94,-204.31 1758.03,-194.65"/>
<polygon fill="midnightblue" stroke="midnightblue" points="1760.62,-197.04 1765.86,-187.83 1756.02,-191.76 1760.62,-197.04"/>
</g>
</g>
</svg>
