<?xml version="1.0" encoding="UTF-8" standalone="no"?>
<!DOCTYPE svg PUBLIC "-//W3C//DTD SVG 1.1//EN"
 "http://www.w3.org/Graphics/SVG/1.1/DTD/svg11.dtd">
<!-- Generated by graphviz version 2.43.0 (0)
 -->
<!-- Title: Client/src/ui/UIHomePage.hpp Pages: 1 -->
<svg width="1991pt" height="84pt"
 viewBox="0.00 0.00 1991.00 84.00" xmlns="http://www.w3.org/2000/svg" xmlns:xlink="http://www.w3.org/1999/xlink">
<g id="graph0" class="graph" transform="scale(1 1) rotate(0) translate(4 80)">
<title>Client/src/ui/UIHomePage.hpp</title>
<polygon fill="white" stroke="transparent" points="-4,4 -4,-80 1987,-80 1987,4 -4,4"/>
<!-- Node1 -->
<g id="node1" class="node">
<title>Node1</title>
<g id="a_node1"><a xlink:title=" ">
<polygon fill="#bfbfbf" stroke="black" points="885,-56.5 885,-75.5 1046,-75.5 1046,-56.5 885,-56.5"/>
<text text-anchor="middle" x="965.5" y="-63.5" font-family="Helvetica,sans-Serif" font-size="10.00">Client/src/ui/UIHomePage.hpp</text>
</a>
</g>
</g>
<!-- Node2 -->
<g id="node2" class="node">
<title>Node2</title>
<g id="a_node2"><a xlink:title=" ">
<polygon fill="white" stroke="#bfbfbf" points="0,-0.5 0,-19.5 95,-19.5 95,-0.5 0,-0.5"/>
<text text-anchor="middle" x="47.5" y="-7.5" font-family="Helvetica,sans-Serif" font-size="10.00">QtCore/QVariant</text>
</a>
</g>
</g>
<!-- Node1&#45;&gt;Node2 -->
<g id="edge1" class="edge">
<title>Node1&#45;&gt;Node2</title>
<path fill="none" stroke="midnightblue" d="M884.76,-63.67C733.6,-60.55 397.46,-50.62 105.06,-20.06"/>
<polygon fill="midnightblue" stroke="midnightblue" points="105.42,-16.58 95.11,-19.01 104.69,-23.54 105.42,-16.58"/>
</g>
<!-- Node3 -->
<g id="node3" class="node">
<title>Node3</title>
<g id="a_node3"><a xlink:title=" ">
<polygon fill="white" stroke="#bfbfbf" points="113,-0.5 113,-19.5 246,-19.5 246,-0.5 113,-0.5"/>
<text text-anchor="middle" x="179.5" y="-7.5" font-family="Helvetica,sans-Serif" font-size="10.00">QtWidgets/QApplication</text>
</a>
</g>
</g>
<!-- Node1&#45;&gt;Node3 -->
<g id="edge2" class="edge">
<title>Node1&#45;&gt;Node3</title>
<path fill="none" stroke="midnightblue" d="M884.88,-61.38C754.8,-55.2 490.3,-41.3 256.2,-20.11"/>
<polygon fill="midnightblue" stroke="midnightblue" points="256.41,-16.62 246.14,-19.19 255.78,-23.59 256.41,-16.62"/>
</g>
<!-- Node4 -->
<g id="node4" class="node">
<title>Node4</title>
<g id="a_node4"><a xlink:title=" ">
<polygon fill="white" stroke="#bfbfbf" points="264,-0.5 264,-19.5 391,-19.5 391,-0.5 264,-0.5"/>
<text text-anchor="middle" x="327.5" y="-7.5" font-family="Helvetica,sans-Serif" font-size="10.00">QtWidgets/QCheckBox</text>
</a>
</g>
</g>
<!-- Node1&#45;&gt;Node4 -->
<g id="edge3" class="edge">
<title>Node1&#45;&gt;Node4</title>
<path fill="none" stroke="midnightblue" d="M884.94,-59.68C777.27,-52.33 580.28,-38.02 401.31,-20.04"/>
<polygon fill="midnightblue" stroke="midnightblue" points="401.48,-16.54 391.18,-19.02 400.78,-23.5 401.48,-16.54"/>
</g>
<!-- Node5 -->
<g id="node5" class="node">
<title>Node5</title>
<g id="a_node5"><a xlink:title=" ">
<polygon fill="white" stroke="#bfbfbf" points="409.5,-0.5 409.5,-19.5 545.5,-19.5 545.5,-0.5 409.5,-0.5"/>
<text text-anchor="middle" x="477.5" y="-7.5" font-family="Helvetica,sans-Serif" font-size="10.00">QtWidgets/QFormLayout</text>
</a>
</g>
</g>
<!-- Node1&#45;&gt;Node5 -->
<g id="edge4" class="edge">
<title>Node1&#45;&gt;Node5</title>
<path fill="none" stroke="midnightblue" d="M885.92,-56.46C805.38,-47.78 676.95,-33.83 555.72,-20.13"/>
<polygon fill="midnightblue" stroke="midnightblue" points="555.85,-16.62 545.52,-18.98 555.06,-23.58 555.85,-16.62"/>
</g>
<!-- Node6 -->
<g id="node6" class="node">
<title>Node6</title>
<g id="a_node6"><a xlink:title=" ">
<polygon fill="white" stroke="#bfbfbf" points="564,-0.5 564,-19.5 695,-19.5 695,-0.5 564,-0.5"/>
<text text-anchor="middle" x="629.5" y="-7.5" font-family="Helvetica,sans-Serif" font-size="10.00">QtWidgets/QGridLayout</text>
</a>
</g>
</g>
<!-- Node1&#45;&gt;Node6 -->
<g id="edge5" class="edge">
<title>Node1&#45;&gt;Node6</title>
<path fill="none" stroke="midnightblue" d="M912.26,-56.44C852.54,-46.85 755.76,-31.29 692.37,-21.1"/>
<polygon fill="midnightblue" stroke="midnightblue" points="692.92,-17.65 682.49,-19.52 691.81,-24.56 692.92,-17.65"/>
</g>
<!-- Node7 -->
<g id="node7" class="node">
<title>Node7</title>
<g id="a_node7"><a xlink:title=" ">
<polygon fill="white" stroke="#bfbfbf" points="713.5,-0.5 713.5,-19.5 817.5,-19.5 817.5,-0.5 713.5,-0.5"/>
<text text-anchor="middle" x="765.5" y="-7.5" font-family="Helvetica,sans-Serif" font-size="10.00">QtWidgets/QLabel</text>
</a>
</g>
</g>
<!-- Node1&#45;&gt;Node7 -->
<g id="edge6" class="edge">
<title>Node1&#45;&gt;Node7</title>
<path fill="none" stroke="midnightblue" d="M933.81,-56.44C899.43,-47.16 844.42,-32.31 806.71,-22.13"/>
<polygon fill="midnightblue" stroke="midnightblue" points="807.61,-18.74 797.04,-19.52 805.78,-25.5 807.61,-18.74"/>
</g>
<!-- Node8 -->
<g id="node8" class="node">
<title>Node8</title>
<g id="a_node8"><a xlink:title=" ">
<polygon fill="white" stroke="#bfbfbf" points="836,-0.5 836,-19.5 953,-19.5 953,-0.5 836,-0.5"/>
<text text-anchor="middle" x="894.5" y="-7.5" font-family="Helvetica,sans-Serif" font-size="10.00">QtWidgets/QLineEdit</text>
</a>
</g>
</g>
<!-- Node1&#45;&gt;Node8 -->
<g id="edge7" class="edge">
<title>Node1&#45;&gt;Node8</title>
<path fill="none" stroke="midnightblue" d="M954.09,-56.32C943.39,-48.18 927.16,-35.84 914.34,-26.09"/>
<polygon fill="midnightblue" stroke="midnightblue" points="916.19,-23.1 906.11,-19.83 911.96,-28.67 916.19,-23.1"/>
</g>
<!-- Node9 -->
<g id="node9" class="node">
<title>Node9</title>
<g id="a_node9"><a xlink:title=" ">
<polygon fill="white" stroke="#bfbfbf" points="971.5,-0.5 971.5,-19.5 1101.5,-19.5 1101.5,-0.5 971.5,-0.5"/>
<text text-anchor="middle" x="1036.5" y="-7.5" font-family="Helvetica,sans-Serif" font-size="10.00">QtWidgets/QListWidget</text>
</a>
</g>
</g>
<!-- Node1&#45;&gt;Node9 -->
<g id="edge8" class="edge">
<title>Node1&#45;&gt;Node9</title>
<path fill="none" stroke="midnightblue" d="M976.91,-56.32C987.61,-48.18 1003.84,-35.84 1016.66,-26.09"/>
<polygon fill="midnightblue" stroke="midnightblue" points="1019.04,-28.67 1024.89,-19.83 1014.81,-23.1 1019.04,-28.67"/>
</g>
<!-- Node10 -->
<g id="node10" class="node">
<title>Node10</title>
<g id="a_node10"><a xlink:title=" ">
<polygon fill="white" stroke="#bfbfbf" points="1120,-0.5 1120,-19.5 1261,-19.5 1261,-0.5 1120,-0.5"/>
<text text-anchor="middle" x="1190.5" y="-7.5" font-family="Helvetica,sans-Serif" font-size="10.00">QtWidgets/QMainWindow</text>
</a>
</g>
</g>
<!-- Node1&#45;&gt;Node10 -->
<g id="edge9" class="edge">
<title>Node1&#45;&gt;Node10</title>
<path fill="none" stroke="midnightblue" d="M1001.15,-56.44C1040.16,-47.08 1102.77,-32.06 1145.22,-21.87"/>
<polygon fill="midnightblue" stroke="midnightblue" points="1146.11,-25.25 1155.01,-19.52 1144.47,-18.45 1146.11,-25.25"/>
</g>
<!-- Node11 -->
<g id="node11" class="node">
<title>Node11</title>
<g id="a_node11"><a xlink:title=" ">
<polygon fill="white" stroke="#bfbfbf" points="1279.5,-0.5 1279.5,-19.5 1413.5,-19.5 1413.5,-0.5 1279.5,-0.5"/>
<text text-anchor="middle" x="1346.5" y="-7.5" font-family="Helvetica,sans-Serif" font-size="10.00">QtWidgets/QPushButton</text>
</a>
</g>
</g>
<!-- Node1&#45;&gt;Node11 -->
<g id="edge10" class="edge">
<title>Node1&#45;&gt;Node11</title>
<path fill="none" stroke="midnightblue" d="M1025.87,-56.44C1093.87,-46.81 1204.24,-31.16 1276.1,-20.98"/>
<polygon fill="midnightblue" stroke="midnightblue" points="1277,-24.39 1286.41,-19.52 1276.02,-17.45 1277,-24.39"/>
</g>
<!-- Node12 -->
<g id="node12" class="node">
<title>Node12</title>
<g id="a_node12"><a xlink:title=" ">
<polygon fill="white" stroke="#bfbfbf" points="1431.5,-0.5 1431.5,-19.5 1549.5,-19.5 1549.5,-0.5 1431.5,-0.5"/>
<text text-anchor="middle" x="1490.5" y="-7.5" font-family="Helvetica,sans-Serif" font-size="10.00">QtWidgets/QSpinBox</text>
</a>
</g>
</g>
<!-- Node1&#45;&gt;Node12 -->
<g id="edge11" class="edge">
<title>Node1&#45;&gt;Node12</title>
<path fill="none" stroke="midnightblue" d="M1046.08,-57.89C1135.21,-49.83 1283.38,-35.89 1420.88,-20.16"/>
<polygon fill="midnightblue" stroke="midnightblue" points="1421.64,-23.59 1431.18,-18.97 1420.84,-16.64 1421.64,-23.59"/>
</g>
<!-- Node13 -->
<g id="node13" class="node">
<title>Node13</title>
<g id="a_node13"><a xlink:title=" ">
<polygon fill="white" stroke="#bfbfbf" points="1568,-0.5 1568,-19.5 1697,-19.5 1697,-0.5 1568,-0.5"/>
<text text-anchor="middle" x="1632.5" y="-7.5" font-family="Helvetica,sans-Serif" font-size="10.00">QtWidgets/QTabWidget</text>
</a>
</g>
</g>
<!-- Node1&#45;&gt;Node13 -->
<g id="edge12" class="edge">
<title>Node1&#45;&gt;Node13</title>
<path fill="none" stroke="midnightblue" d="M1046.17,-60.04C1158.35,-52.88 1368.07,-38.57 1557.78,-20.03"/>
<polygon fill="midnightblue" stroke="midnightblue" points="1558.34,-23.49 1567.95,-19.03 1557.65,-16.52 1558.34,-23.49"/>
</g>
<!-- Node14 -->
<g id="node14" class="node">
<title>Node14</title>
<g id="a_node14"><a xlink:title=" ">
<polygon fill="white" stroke="#bfbfbf" points="1715,-0.5 1715,-19.5 1852,-19.5 1852,-0.5 1715,-0.5"/>
<text text-anchor="middle" x="1783.5" y="-7.5" font-family="Helvetica,sans-Serif" font-size="10.00">QtWidgets/QVBoxLayout</text>
</a>
</g>
</g>
<!-- Node1&#45;&gt;Node14 -->
<g id="edge13" class="edge">
<title>Node1&#45;&gt;Node14</title>
<path fill="none" stroke="midnightblue" d="M1046.2,-61.57C1180.6,-55.54 1459.01,-41.66 1704.48,-20.14"/>
<polygon fill="midnightblue" stroke="midnightblue" points="1705.02,-23.6 1714.67,-19.24 1704.4,-16.63 1705.02,-23.6"/>
</g>
<!-- Node15 -->
<g id="node15" class="node">
<title>Node15</title>
<g id="a_node15"><a xlink:title=" ">
<polygon fill="white" stroke="#bfbfbf" points="1870,-0.5 1870,-19.5 1983,-19.5 1983,-0.5 1870,-0.5"/>
<text text-anchor="middle" x="1926.5" y="-7.5" font-family="Helvetica,sans-Serif" font-size="10.00">QtWidgets/QWidget</text>
</a>
</g>
</g>
<!-- Node1&#45;&gt;Node15 -->
<g id="edge14" class="edge">
<title>Node1&#45;&gt;Node15</title>
<path fill="none" stroke="midnightblue" d="M1046.29,-63.31C1201.78,-59.53 1553.62,-48.49 1859.41,-20.12"/>
<polygon fill="midnightblue" stroke="midnightblue" points="1860.18,-23.56 1869.81,-19.15 1859.53,-16.59 1860.18,-23.56"/>
</g>
</g>
</svg>
