<?xml version="1.0" encoding="UTF-8" standalone="no"?>
<!DOCTYPE svg PUBLIC "-//W3C//DTD SVG 1.1//EN"
 "http://www.w3.org/Graphics/SVG/1.1/DTD/svg11.dtd">
<!-- Generated by graphviz version 2.43.0 (0)
 -->
<!-- Title: Server/src/User.hpp Pages: 1 -->
<svg width="457pt" height="162pt"
 viewBox="0.00 0.00 456.50 162.00" xmlns="http://www.w3.org/2000/svg" xmlns:xlink="http://www.w3.org/1999/xlink">
<g id="graph0" class="graph" transform="scale(1 1) rotate(0) translate(4 158)">
<title>Server/src/User.hpp</title>
<polygon fill="white" stroke="transparent" points="-4,4 -4,-158 452.5,-158 452.5,4 -4,4"/>
<!-- Node1 -->
<g id="node1" class="node">
<title>Node1</title>
<g id="a_node1"><a xlink:title=" ">
<polygon fill="#bfbfbf" stroke="black" points="255,-134.5 255,-153.5 366,-153.5 366,-134.5 255,-134.5"/>
<text text-anchor="middle" x="310.5" y="-141.5" font-family="Helvetica,sans-Serif" font-size="10.00">Server/src/User.hpp</text>
</a>
</g>
</g>
<!-- Node2 -->
<g id="node2" class="node">
<title>Node2</title>
<g id="a_node2"><a xlink:href="BabelServer_8hpp.html" target="_top" xlink:title=" ">
<polygon fill="white" stroke="black" points="160.5,-67.5 160.5,-97.5 270.5,-97.5 270.5,-67.5 160.5,-67.5"/>
<text text-anchor="start" x="168.5" y="-85.5" font-family="Helvetica,sans-Serif" font-size="10.00">Server/src/Network</text>
<text text-anchor="middle" x="215.5" y="-74.5" font-family="Helvetica,sans-Serif" font-size="10.00">/BabelServer.hpp</text>
</a>
</g>
</g>
<!-- Node1&#45;&gt;Node2 -->
<g id="edge1" class="edge">
<title>Node1&#45;&gt;Node2</title>
<path fill="none" stroke="midnightblue" d="M288.16,-129.01C273.01,-119.52 253.05,-107.02 237.89,-97.52"/>
<polygon fill="midnightblue" stroke="midnightblue" points="286.56,-132.13 296.89,-134.48 290.27,-126.2 286.56,-132.13"/>
</g>
<!-- Node4 -->
<g id="node4" class="node">
<title>Node4</title>
<g id="a_node4"><a xlink:href="BabelServer_8cpp.html" target="_top" xlink:title=" ">
<polygon fill="white" stroke="black" points="268.5,-0.5 268.5,-30.5 378.5,-30.5 378.5,-0.5 268.5,-0.5"/>
<text text-anchor="start" x="276.5" y="-18.5" font-family="Helvetica,sans-Serif" font-size="10.00">Server/src/Network</text>
<text text-anchor="middle" x="323.5" y="-7.5" font-family="Helvetica,sans-Serif" font-size="10.00">/BabelServer.cpp</text>
</a>
</g>
</g>
<!-- Node1&#45;&gt;Node4 -->
<g id="edge5" class="edge">
<title>Node1&#45;&gt;Node4</title>
<path fill="none" stroke="midnightblue" d="M312.44,-124.11C315.06,-98.63 319.67,-53.81 322.02,-30.89"/>
<polygon fill="midnightblue" stroke="midnightblue" points="308.93,-124 311.39,-134.31 315.9,-124.72 308.93,-124"/>
</g>
<!-- Node6 -->
<g id="node6" class="node">
<title>Node6</title>
<g id="a_node6"><a xlink:href="User_8cpp.html" target="_top" xlink:title=" ">
<polygon fill="white" stroke="black" points="338.5,-73 338.5,-92 448.5,-92 448.5,-73 338.5,-73"/>
<text text-anchor="middle" x="393.5" y="-80" font-family="Helvetica,sans-Serif" font-size="10.00">Server/src/User.cpp</text>
</a>
</g>
</g>
<!-- Node1&#45;&gt;Node6 -->
<g id="edge6" class="edge">
<title>Node1&#45;&gt;Node6</title>
<path fill="none" stroke="midnightblue" d="M330.57,-128.61C346.53,-117.17 368.33,-101.55 381.63,-92.01"/>
<polygon fill="midnightblue" stroke="midnightblue" points="328.48,-125.8 322.39,-134.48 332.56,-131.49 328.48,-125.8"/>
</g>
<!-- Node3 -->
<g id="node3" class="node">
<title>Node3</title>
<g id="a_node3"><a xlink:href="Server_2src_2main_8cpp.html" target="_top" xlink:title=" ">
<polygon fill="white" stroke="black" points="0,-6 0,-25 113,-25 113,-6 0,-6"/>
<text text-anchor="middle" x="56.5" y="-13" font-family="Helvetica,sans-Serif" font-size="10.00">Server/src/main.cpp</text>
</a>
</g>
</g>
<!-- Node2&#45;&gt;Node3 -->
<g id="edge2" class="edge">
<title>Node2&#45;&gt;Node3</title>
<path fill="none" stroke="midnightblue" d="M171.37,-63.46C140.65,-50.9 101.08,-34.72 77.31,-25.01"/>
<polygon fill="midnightblue" stroke="midnightblue" points="170.42,-66.85 181,-67.4 173.07,-60.37 170.42,-66.85"/>
</g>
<!-- Node2&#45;&gt;Node4 -->
<g id="edge3" class="edge">
<title>Node2&#45;&gt;Node4</title>
<path fill="none" stroke="midnightblue" d="M247.87,-62.02C264.68,-51.9 284.84,-39.77 300.11,-30.58"/>
<polygon fill="midnightblue" stroke="midnightblue" points="245.7,-59.24 238.93,-67.4 249.31,-65.24 245.7,-59.24"/>
</g>
<!-- Node5 -->
<g id="node5" class="node">
<title>Node5</title>
<g id="a_node5"><a xlink:href="testRequests_8cpp.html" target="_top" xlink:title=" ">
<polygon fill="white" stroke="black" points="131,-0.5 131,-30.5 250,-30.5 250,-0.5 131,-0.5"/>
<text text-anchor="start" x="139" y="-18.5" font-family="Helvetica,sans-Serif" font-size="10.00">Server/tests/Network</text>
<text text-anchor="middle" x="190.5" y="-7.5" font-family="Helvetica,sans-Serif" font-size="10.00">/testRequests.cpp</text>
</a>
</g>
</g>
<!-- Node2&#45;&gt;Node5 -->
<g id="edge4" class="edge">
<title>Node2&#45;&gt;Node5</title>
<path fill="none" stroke="midnightblue" d="M206.46,-57.99C202.92,-48.8 198.99,-38.58 195.91,-30.58"/>
<polygon fill="midnightblue" stroke="midnightblue" points="203.22,-59.32 210.08,-67.4 209.75,-56.81 203.22,-59.32"/>
</g>
</g>
</svg>
