<?xml version="1.0" encoding="UTF-8" standalone="no"?>
<!DOCTYPE svg PUBLIC "-//W3C//DTD SVG 1.1//EN"
 "http://www.w3.org/Graphics/SVG/1.1/DTD/svg11.dtd">
<!-- Generated by graphviz version 2.43.0 (0)
 -->
<!-- Title: Server/src/Utilities/Utils.hpp Pages: 1 -->
<svg width="369pt" height="106pt"
 viewBox="0.00 0.00 369.00 106.00" xmlns="http://www.w3.org/2000/svg" xmlns:xlink="http://www.w3.org/1999/xlink">
<g id="graph0" class="graph" transform="scale(1 1) rotate(0) translate(4 102)">
<title>Server/src/Utilities/Utils.hpp</title>
<polygon fill="white" stroke="transparent" points="-4,4 -4,-102 365,-102 365,4 -4,4"/>
<!-- Node1 -->
<g id="node1" class="node">
<title>Node1</title>
<g id="a_node1"><a xlink:title=" ">
<polygon fill="#bfbfbf" stroke="black" points="127,-67.5 127,-97.5 234,-97.5 234,-67.5 127,-67.5"/>
<text text-anchor="start" x="135" y="-85.5" font-family="Helvetica,sans-Serif" font-size="10.00">Server/src/Utilities</text>
<text text-anchor="middle" x="180.5" y="-74.5" font-family="Helvetica,sans-Serif" font-size="10.00">/Utils.hpp</text>
</a>
</g>
</g>
<!-- Node2 -->
<g id="node2" class="node">
<title>Node2</title>
<g id="a_node2"><a xlink:href="Call_8cpp.html" target="_top" xlink:title=" ">
<polygon fill="white" stroke="black" points="0,-6 0,-25 107,-25 107,-6 0,-6"/>
<text text-anchor="middle" x="53.5" y="-13" font-family="Helvetica,sans-Serif" font-size="10.00">Server/src/Call.cpp</text>
</a>
</g>
</g>
<!-- Node1&#45;&gt;Node2 -->
<g id="edge1" class="edge">
<title>Node1&#45;&gt;Node2</title>
<path fill="none" stroke="midnightblue" d="M143.97,-62.8C119.62,-50.34 88.78,-34.56 70.12,-25.01"/>
<polygon fill="midnightblue" stroke="midnightblue" points="142.45,-65.96 152.94,-67.4 145.64,-59.72 142.45,-65.96"/>
</g>
<!-- Node3 -->
<g id="node3" class="node">
<title>Node3</title>
<g id="a_node3"><a xlink:href="BabelServer_8cpp.html" target="_top" xlink:title=" ">
<polygon fill="white" stroke="black" points="125.5,-0.5 125.5,-30.5 235.5,-30.5 235.5,-0.5 125.5,-0.5"/>
<text text-anchor="start" x="133.5" y="-18.5" font-family="Helvetica,sans-Serif" font-size="10.00">Server/src/Network</text>
<text text-anchor="middle" x="180.5" y="-7.5" font-family="Helvetica,sans-Serif" font-size="10.00">/BabelServer.cpp</text>
</a>
</g>
</g>
<!-- Node1&#45;&gt;Node3 -->
<g id="edge2" class="edge">
<title>Node1&#45;&gt;Node3</title>
<path fill="none" stroke="midnightblue" d="M180.5,-57.11C180.5,-48.15 180.5,-38.32 180.5,-30.58"/>
<polygon fill="midnightblue" stroke="midnightblue" points="177,-57.4 180.5,-67.4 184,-57.4 177,-57.4"/>
</g>
<!-- Node4 -->
<g id="node4" class="node">
<title>Node4</title>
<g id="a_node4"><a xlink:href="Utils_8cpp.html" target="_top" xlink:title=" ">
<polygon fill="white" stroke="black" points="254,-0.5 254,-30.5 361,-30.5 361,-0.5 254,-0.5"/>
<text text-anchor="start" x="262" y="-18.5" font-family="Helvetica,sans-Serif" font-size="10.00">Server/src/Utilities</text>
<text text-anchor="middle" x="307.5" y="-7.5" font-family="Helvetica,sans-Serif" font-size="10.00">/Utils.cpp</text>
</a>
</g>
</g>
<!-- Node1&#45;&gt;Node4 -->
<g id="edge3" class="edge">
<title>Node1&#45;&gt;Node4</title>
<path fill="none" stroke="midnightblue" d="M217.2,-62.71C237.23,-52.46 261.62,-39.98 280,-30.58"/>
<polygon fill="midnightblue" stroke="midnightblue" points="215.36,-59.72 208.06,-67.4 218.55,-65.96 215.36,-59.72"/>
</g>
</g>
</svg>
