<?xml version="1.0" encoding="UTF-8" standalone="no"?>
<!DOCTYPE svg PUBLIC "-//W3C//DTD SVG 1.1//EN"
 "http://www.w3.org/Graphics/SVG/1.1/DTD/svg11.dtd">
<!-- Generated by graphviz version 2.43.0 (0)
 -->
<!-- Title: Common/Utilities/Utilities.cpp Pages: 1 -->
<svg width="751pt" height="252pt"
 viewBox="0.00 0.00 750.50 252.00" xmlns="http://www.w3.org/2000/svg" xmlns:xlink="http://www.w3.org/1999/xlink">
<g id="graph0" class="graph" transform="scale(1 1) rotate(0) translate(4 248)">
<title>Common/Utilities/Utilities.cpp</title>
<polygon fill="white" stroke="transparent" points="-4,4 -4,-248 746.5,-248 746.5,4 -4,4"/>
<!-- Node1 -->
<g id="node1" class="node">
<title>Node1</title>
<g id="a_node1"><a xlink:title=" ">
<polygon fill="#bfbfbf" stroke="black" points="337,-224.5 337,-243.5 501,-243.5 501,-224.5 337,-224.5"/>
<text text-anchor="middle" x="419" y="-231.5" font-family="Helvetica,sans-Serif" font-size="10.00">Common/Utilities/Utilities.cpp</text>
</a>
</g>
</g>
<!-- Node2 -->
<g id="node2" class="node">
<title>Node2</title>
<g id="a_node2"><a xlink:href="Utilities_8hpp.html" target="_top" xlink:title=" ">
<polygon fill="white" stroke="black" points="381,-168.5 381,-187.5 457,-187.5 457,-168.5 381,-168.5"/>
<text text-anchor="middle" x="419" y="-175.5" font-family="Helvetica,sans-Serif" font-size="10.00">Utilities.hpp</text>
</a>
</g>
</g>
<!-- Node1&#45;&gt;Node2 -->
<g id="edge1" class="edge">
<title>Node1&#45;&gt;Node2</title>
<path fill="none" stroke="midnightblue" d="M419,-224.08C419,-217.01 419,-206.86 419,-197.99"/>
<polygon fill="midnightblue" stroke="midnightblue" points="422.5,-197.75 419,-187.75 415.5,-197.75 422.5,-197.75"/>
</g>
<!-- Node3 -->
<g id="node3" class="node">
<title>Node3</title>
<g id="a_node3"><a xlink:title=" ">
<polygon fill="white" stroke="#bfbfbf" points="275,-112.5 275,-131.5 319,-131.5 319,-112.5 275,-112.5"/>
<text text-anchor="middle" x="297" y="-119.5" font-family="Helvetica,sans-Serif" font-size="10.00">string</text>
</a>
</g>
</g>
<!-- Node2&#45;&gt;Node3 -->
<g id="edge2" class="edge">
<title>Node2&#45;&gt;Node3</title>
<path fill="none" stroke="midnightblue" d="M399.67,-168.44C379.68,-159.6 348.26,-145.69 325.44,-135.59"/>
<polygon fill="midnightblue" stroke="midnightblue" points="326.8,-132.36 316.24,-131.52 323.97,-138.76 326.8,-132.36"/>
</g>
<!-- Node4 -->
<g id="node4" class="node">
<title>Node4</title>
<g id="a_node4"><a xlink:title=" ">
<polygon fill="white" stroke="#bfbfbf" points="337,-112.5 337,-131.5 393,-131.5 393,-112.5 337,-112.5"/>
<text text-anchor="middle" x="365" y="-119.5" font-family="Helvetica,sans-Serif" font-size="10.00">sstream</text>
</a>
</g>
</g>
<!-- Node2&#45;&gt;Node4 -->
<g id="edge3" class="edge">
<title>Node2&#45;&gt;Node4</title>
<path fill="none" stroke="midnightblue" d="M410.08,-168.08C402.22,-160.22 390.57,-148.57 381.08,-139.08"/>
<polygon fill="midnightblue" stroke="midnightblue" points="383.3,-136.35 373.75,-131.75 378.35,-141.3 383.3,-136.35"/>
</g>
<!-- Node5 -->
<g id="node5" class="node">
<title>Node5</title>
<g id="a_node5"><a xlink:href="Message_8hpp.html" target="_top" xlink:title=" ">
<polygon fill="white" stroke="black" points="411.5,-112.5 411.5,-131.5 536.5,-131.5 536.5,-112.5 411.5,-112.5"/>
<text text-anchor="middle" x="474" y="-119.5" font-family="Helvetica,sans-Serif" font-size="10.00">Network/Message.hpp</text>
</a>
</g>
</g>
<!-- Node2&#45;&gt;Node5 -->
<g id="edge4" class="edge">
<title>Node2&#45;&gt;Node5</title>
<path fill="none" stroke="midnightblue" d="M428.08,-168.08C436.17,-160.14 448.2,-148.34 457.91,-138.8"/>
<polygon fill="midnightblue" stroke="midnightblue" points="460.4,-141.25 465.09,-131.75 455.5,-136.26 460.4,-141.25"/>
</g>
<!-- Node16 -->
<g id="node16" class="node">
<title>Node16</title>
<g id="a_node16"><a xlink:href="RFCCodes_8hpp.html" target="_top" xlink:title=" ">
<polygon fill="white" stroke="black" points="611.5,-112.5 611.5,-131.5 742.5,-131.5 742.5,-112.5 611.5,-112.5"/>
<text text-anchor="middle" x="677" y="-119.5" font-family="Helvetica,sans-Serif" font-size="10.00">Network/RFCCodes.hpp</text>
</a>
</g>
</g>
<!-- Node2&#45;&gt;Node16 -->
<g id="edge16" class="edge">
<title>Node2&#45;&gt;Node16</title>
<path fill="none" stroke="midnightblue" d="M457.07,-169.03C501.92,-159.65 576.6,-144.01 626.32,-133.61"/>
<polygon fill="midnightblue" stroke="midnightblue" points="627.15,-137.01 636.22,-131.54 625.71,-130.16 627.15,-137.01"/>
</g>
<!-- Node6 -->
<g id="node6" class="node">
<title>Node6</title>
<g id="a_node6"><a xlink:href="BabelException_8hpp.html" target="_top" xlink:title=" ">
<polygon fill="white" stroke="black" points="0,-56.5 0,-75.5 170,-75.5 170,-56.5 0,-56.5"/>
<text text-anchor="middle" x="85" y="-63.5" font-family="Helvetica,sans-Serif" font-size="10.00">Exceptions/BabelException.hpp</text>
</a>
</g>
</g>
<!-- Node5&#45;&gt;Node6 -->
<g id="edge5" class="edge">
<title>Node5&#45;&gt;Node6</title>
<path fill="none" stroke="midnightblue" d="M412.36,-112.44C342.79,-102.79 229.79,-87.1 156.43,-76.92"/>
<polygon fill="midnightblue" stroke="midnightblue" points="156.74,-73.42 146.35,-75.52 155.77,-80.36 156.74,-73.42"/>
</g>
<!-- Node8 -->
<g id="node8" class="node">
<title>Node8</title>
<g id="a_node8"><a xlink:href="SwapEndian_8hpp.html" target="_top" xlink:title=" ">
<polygon fill="white" stroke="black" points="188,-56.5 188,-75.5 326,-75.5 326,-56.5 188,-56.5"/>
<text text-anchor="middle" x="257" y="-63.5" font-family="Helvetica,sans-Serif" font-size="10.00">Utilities/SwapEndian.hpp</text>
</a>
</g>
</g>
<!-- Node5&#45;&gt;Node8 -->
<g id="edge7" class="edge">
<title>Node5&#45;&gt;Node8</title>
<path fill="none" stroke="midnightblue" d="M439.62,-112.44C402.08,-103.1 341.87,-88.12 300.93,-77.93"/>
<polygon fill="midnightblue" stroke="midnightblue" points="301.77,-74.53 291.22,-75.52 300.08,-81.33 301.77,-74.53"/>
</g>
<!-- Node10 -->
<g id="node10" class="node">
<title>Node10</title>
<g id="a_node10"><a xlink:title=" ">
<polygon fill="white" stroke="#bfbfbf" points="329,-0.5 329,-19.5 379,-19.5 379,-0.5 329,-0.5"/>
<text text-anchor="middle" x="354" y="-7.5" font-family="Helvetica,sans-Serif" font-size="10.00">cstdint</text>
</a>
</g>
</g>
<!-- Node5&#45;&gt;Node10 -->
<g id="edge11" class="edge">
<title>Node5&#45;&gt;Node10</title>
<path fill="none" stroke="midnightblue" d="M435.62,-112.38C414.42,-105.75 389.17,-94.5 373,-76 361.77,-63.14 357.17,-43.96 355.29,-29.77"/>
<polygon fill="midnightblue" stroke="midnightblue" points="358.75,-29.27 354.29,-19.67 351.79,-29.96 358.75,-29.27"/>
</g>
<!-- Node11 -->
<g id="node11" class="node">
<title>Node11</title>
<g id="a_node11"><a xlink:title=" ">
<polygon fill="white" stroke="#bfbfbf" points="382,-56.5 382,-75.5 432,-75.5 432,-56.5 382,-56.5"/>
<text text-anchor="middle" x="407" y="-63.5" font-family="Helvetica,sans-Serif" font-size="10.00">cstring</text>
</a>
</g>
</g>
<!-- Node5&#45;&gt;Node11 -->
<g id="edge10" class="edge">
<title>Node5&#45;&gt;Node11</title>
<path fill="none" stroke="midnightblue" d="M463.24,-112.32C453.23,-104.26 438.11,-92.08 426.07,-82.37"/>
<polygon fill="midnightblue" stroke="midnightblue" points="427.94,-79.38 417.96,-75.83 423.55,-84.83 427.94,-79.38"/>
</g>
<!-- Node12 -->
<g id="node12" class="node">
<title>Node12</title>
<g id="a_node12"><a xlink:title=" ">
<polygon fill="white" stroke="#bfbfbf" points="450.5,-56.5 450.5,-75.5 497.5,-75.5 497.5,-56.5 450.5,-56.5"/>
<text text-anchor="middle" x="474" y="-63.5" font-family="Helvetica,sans-Serif" font-size="10.00">vector</text>
</a>
</g>
</g>
<!-- Node5&#45;&gt;Node12 -->
<g id="edge12" class="edge">
<title>Node5&#45;&gt;Node12</title>
<path fill="none" stroke="midnightblue" d="M474,-112.08C474,-105.01 474,-94.86 474,-85.99"/>
<polygon fill="midnightblue" stroke="midnightblue" points="477.5,-85.75 474,-75.75 470.5,-85.75 477.5,-85.75"/>
</g>
<!-- Node13 -->
<g id="node13" class="node">
<title>Node13</title>
<g id="a_node13"><a xlink:title=" ">
<polygon fill="white" stroke="#bfbfbf" points="516,-56.5 516,-75.5 580,-75.5 580,-56.5 516,-56.5"/>
<text text-anchor="middle" x="548" y="-63.5" font-family="Helvetica,sans-Serif" font-size="10.00">algorithm</text>
</a>
</g>
</g>
<!-- Node5&#45;&gt;Node13 -->
<g id="edge13" class="edge">
<title>Node5&#45;&gt;Node13</title>
<path fill="none" stroke="midnightblue" d="M485.89,-112.32C497.15,-104.11 514.29,-91.6 527.71,-81.81"/>
<polygon fill="midnightblue" stroke="midnightblue" points="529.88,-84.56 535.89,-75.83 525.75,-78.9 529.88,-84.56"/>
</g>
<!-- Node14 -->
<g id="node14" class="node">
<title>Node14</title>
<g id="a_node14"><a xlink:title=" ">
<polygon fill="white" stroke="#bfbfbf" points="598,-56.5 598,-75.5 658,-75.5 658,-56.5 598,-56.5"/>
<text text-anchor="middle" x="628" y="-63.5" font-family="Helvetica,sans-Serif" font-size="10.00">iostream</text>
</a>
</g>
</g>
<!-- Node5&#45;&gt;Node14 -->
<g id="edge14" class="edge">
<title>Node5&#45;&gt;Node14</title>
<path fill="none" stroke="midnightblue" d="M498.4,-112.44C524.2,-103.4 565.08,-89.06 594.02,-78.92"/>
<polygon fill="midnightblue" stroke="midnightblue" points="595.43,-82.13 603.71,-75.52 593.12,-75.52 595.43,-82.13"/>
</g>
<!-- Node15 -->
<g id="node15" class="node">
<title>Node15</title>
<g id="a_node15"><a xlink:title=" ">
<polygon fill="white" stroke="#bfbfbf" points="676.5,-56.5 676.5,-75.5 705.5,-75.5 705.5,-56.5 676.5,-56.5"/>
<text text-anchor="middle" x="691" y="-63.5" font-family="Helvetica,sans-Serif" font-size="10.00">bit</text>
</a>
</g>
</g>
<!-- Node5&#45;&gt;Node15 -->
<g id="edge15" class="edge">
<title>Node5&#45;&gt;Node15</title>
<path fill="none" stroke="midnightblue" d="M517.73,-112.49C554.98,-104.87 610.02,-92.72 666.56,-75.81"/>
<polygon fill="midnightblue" stroke="midnightblue" points="667.83,-79.08 676.38,-72.83 665.79,-72.38 667.83,-79.08"/>
</g>
<!-- Node7 -->
<g id="node7" class="node">
<title>Node7</title>
<g id="a_node7"><a xlink:title=" ">
<polygon fill="white" stroke="#bfbfbf" points="52.5,-0.5 52.5,-19.5 117.5,-19.5 117.5,-0.5 52.5,-0.5"/>
<text text-anchor="middle" x="85" y="-7.5" font-family="Helvetica,sans-Serif" font-size="10.00">stdexcept</text>
</a>
</g>
</g>
<!-- Node6&#45;&gt;Node7 -->
<g id="edge6" class="edge">
<title>Node6&#45;&gt;Node7</title>
<path fill="none" stroke="midnightblue" d="M85,-56.08C85,-49.01 85,-38.86 85,-29.99"/>
<polygon fill="midnightblue" stroke="midnightblue" points="88.5,-29.75 85,-19.75 81.5,-29.75 88.5,-29.75"/>
</g>
<!-- Node9 -->
<g id="node9" class="node">
<title>Node9</title>
<g id="a_node9"><a xlink:title=" ">
<polygon fill="white" stroke="#bfbfbf" points="232,-0.5 232,-19.5 282,-19.5 282,-0.5 232,-0.5"/>
<text text-anchor="middle" x="257" y="-7.5" font-family="Helvetica,sans-Serif" font-size="10.00">climits</text>
</a>
</g>
</g>
<!-- Node8&#45;&gt;Node9 -->
<g id="edge8" class="edge">
<title>Node8&#45;&gt;Node9</title>
<path fill="none" stroke="midnightblue" d="M257,-56.08C257,-49.01 257,-38.86 257,-29.99"/>
<polygon fill="midnightblue" stroke="midnightblue" points="260.5,-29.75 257,-19.75 253.5,-29.75 260.5,-29.75"/>
</g>
<!-- Node8&#45;&gt;Node10 -->
<g id="edge9" class="edge">
<title>Node8&#45;&gt;Node10</title>
<path fill="none" stroke="midnightblue" d="M272.58,-56.32C288,-47.74 311.81,-34.49 329.71,-24.52"/>
<polygon fill="midnightblue" stroke="midnightblue" points="331.42,-27.58 338.45,-19.65 328.01,-21.46 331.42,-27.58"/>
</g>
<!-- Node16&#45;&gt;Node10 -->
<g id="edge17" class="edge">
<title>Node16&#45;&gt;Node10</title>
<path fill="none" stroke="midnightblue" d="M688.64,-112.32C704.9,-99.16 730.75,-73.83 715,-56 693.63,-31.8 476.1,-17.55 389.39,-12.79"/>
<polygon fill="midnightblue" stroke="midnightblue" points="389.42,-9.29 379.25,-12.25 389.05,-16.28 389.42,-9.29"/>
</g>
</g>
</svg>
