<?xml version="1.0" encoding="UTF-8" standalone="no"?>
<!DOCTYPE svg PUBLIC "-//W3C//DTD SVG 1.1//EN"
 "http://www.w3.org/Graphics/SVG/1.1/DTD/svg11.dtd">
<!-- Generated by graphviz version 2.43.0 (0)
 -->
<!-- Title: Server/src/Utilities/Utils.hpp Pages: 1 -->
<svg width="1058pt" height="263pt"
 viewBox="0.00 0.00 1057.98 263.00" xmlns="http://www.w3.org/2000/svg" xmlns:xlink="http://www.w3.org/1999/xlink">
<g id="graph0" class="graph" transform="scale(1 1) rotate(0) translate(4 259)">
<title>Server/src/Utilities/Utils.hpp</title>
<polygon fill="white" stroke="transparent" points="-4,4 -4,-259 1053.98,-259 1053.98,4 -4,4"/>
<!-- Node1 -->
<g id="node1" class="node">
<title>Node1</title>
<g id="a_node1"><a xlink:title=" ">
<polygon fill="#bfbfbf" stroke="black" points="532.5,-224.5 532.5,-254.5 639.5,-254.5 639.5,-224.5 532.5,-224.5"/>
<text text-anchor="start" x="540.5" y="-242.5" font-family="Helvetica,sans-Serif" font-size="10.00">Server/src/Utilities</text>
<text text-anchor="middle" x="586" y="-231.5" font-family="Helvetica,sans-Serif" font-size="10.00">/Utils.hpp</text>
</a>
</g>
</g>
<!-- Node2 -->
<g id="node2" class="node">
<title>Node2</title>
<g id="a_node2"><a xlink:title=" ">
<polygon fill="white" stroke="#bfbfbf" points="408,-112.5 408,-131.5 452,-131.5 452,-112.5 408,-112.5"/>
<text text-anchor="middle" x="430" y="-119.5" font-family="Helvetica,sans-Serif" font-size="10.00">string</text>
</a>
</g>
</g>
<!-- Node1&#45;&gt;Node2 -->
<g id="edge1" class="edge">
<title>Node1&#45;&gt;Node2</title>
<path fill="none" stroke="midnightblue" d="M566.87,-224.34C537.1,-202.3 479.98,-160.01 449.81,-137.66"/>
<polygon fill="midnightblue" stroke="midnightblue" points="451.83,-134.81 441.71,-131.67 447.66,-140.43 451.83,-134.81"/>
</g>
<!-- Node3 -->
<g id="node3" class="node">
<title>Node3</title>
<g id="a_node3"><a xlink:href="Message_8hpp.html" target="_top" xlink:title=" ">
<polygon fill="white" stroke="black" points="470.5,-112.5 470.5,-131.5 595.5,-131.5 595.5,-112.5 470.5,-112.5"/>
<text text-anchor="middle" x="533" y="-119.5" font-family="Helvetica,sans-Serif" font-size="10.00">Network/Message.hpp</text>
</a>
</g>
</g>
<!-- Node1&#45;&gt;Node3 -->
<g id="edge2" class="edge">
<title>Node1&#45;&gt;Node3</title>
<path fill="none" stroke="midnightblue" d="M574.61,-224.19C567.32,-214.45 558.1,-201.01 552,-188 544.98,-173.03 539.94,-154.89 536.82,-141.59"/>
<polygon fill="midnightblue" stroke="midnightblue" points="540.22,-140.73 534.65,-131.72 533.38,-142.24 540.22,-140.73"/>
</g>
<!-- Node14 -->
<g id="node14" class="node">
<title>Node14</title>
<g id="a_node14"><a xlink:href="ITCPConnection_8hpp.html" target="_top" xlink:title=" ">
<polygon fill="white" stroke="black" points="561,-168.5 561,-187.5 719,-187.5 719,-168.5 561,-168.5"/>
<text text-anchor="middle" x="640" y="-175.5" font-family="Helvetica,sans-Serif" font-size="10.00">Network/ITCPConnection.hpp</text>
</a>
</g>
</g>
<!-- Node1&#45;&gt;Node14 -->
<g id="edge14" class="edge">
<title>Node1&#45;&gt;Node14</title>
<path fill="none" stroke="midnightblue" d="M598.8,-224.4C606.72,-215.66 616.94,-204.41 625.21,-195.3"/>
<polygon fill="midnightblue" stroke="midnightblue" points="628.01,-197.42 632.14,-187.66 622.83,-192.71 628.01,-197.42"/>
</g>
<!-- Node21 -->
<g id="node21" class="node">
<title>Node21</title>
<g id="a_node21"><a xlink:href="RFCCodes_8hpp.html" target="_top" xlink:title=" ">
<polygon fill="white" stroke="black" points="865.5,-168.5 865.5,-187.5 996.5,-187.5 996.5,-168.5 865.5,-168.5"/>
<text text-anchor="middle" x="931" y="-175.5" font-family="Helvetica,sans-Serif" font-size="10.00">Network/RFCCodes.hpp</text>
</a>
</g>
</g>
<!-- Node1&#45;&gt;Node21 -->
<g id="edge24" class="edge">
<title>Node1&#45;&gt;Node21</title>
<path fill="none" stroke="midnightblue" d="M639.53,-229.27C702.32,-218.44 806.11,-200.54 871.41,-189.28"/>
<polygon fill="midnightblue" stroke="midnightblue" points="872.29,-192.68 881.55,-187.53 871.1,-185.78 872.29,-192.68"/>
</g>
<!-- Node4 -->
<g id="node4" class="node">
<title>Node4</title>
<g id="a_node4"><a xlink:href="BabelException_8hpp.html" target="_top" xlink:title=" ">
<polygon fill="white" stroke="black" points="126,-56.5 126,-75.5 296,-75.5 296,-56.5 126,-56.5"/>
<text text-anchor="middle" x="211" y="-63.5" font-family="Helvetica,sans-Serif" font-size="10.00">Exceptions/BabelException.hpp</text>
</a>
</g>
</g>
<!-- Node3&#45;&gt;Node4 -->
<g id="edge3" class="edge">
<title>Node3&#45;&gt;Node4</title>
<path fill="none" stroke="midnightblue" d="M481.98,-112.44C424.98,-102.89 332.76,-87.42 272,-77.23"/>
<polygon fill="midnightblue" stroke="midnightblue" points="272.22,-73.72 261.78,-75.52 271.07,-80.62 272.22,-73.72"/>
</g>
<!-- Node6 -->
<g id="node6" class="node">
<title>Node6</title>
<g id="a_node6"><a xlink:href="SwapEndian_8hpp.html" target="_top" xlink:title=" ">
<polygon fill="white" stroke="black" points="314,-56.5 314,-75.5 452,-75.5 452,-56.5 314,-56.5"/>
<text text-anchor="middle" x="383" y="-63.5" font-family="Helvetica,sans-Serif" font-size="10.00">Utilities/SwapEndian.hpp</text>
</a>
</g>
</g>
<!-- Node3&#45;&gt;Node6 -->
<g id="edge5" class="edge">
<title>Node3&#45;&gt;Node6</title>
<path fill="none" stroke="midnightblue" d="M509.23,-112.44C484.11,-103.4 444.29,-89.06 416.1,-78.92"/>
<polygon fill="midnightblue" stroke="midnightblue" points="417.25,-75.61 406.66,-75.52 414.88,-82.2 417.25,-75.61"/>
</g>
<!-- Node8 -->
<g id="node8" class="node">
<title>Node8</title>
<g id="a_node8"><a xlink:title=" ">
<polygon fill="white" stroke="#bfbfbf" points="455,-0.5 455,-19.5 505,-19.5 505,-0.5 455,-0.5"/>
<text text-anchor="middle" x="480" y="-7.5" font-family="Helvetica,sans-Serif" font-size="10.00">cstdint</text>
</a>
</g>
</g>
<!-- Node3&#45;&gt;Node8 -->
<g id="edge9" class="edge">
<title>Node3&#45;&gt;Node8</title>
<path fill="none" stroke="midnightblue" d="M524.92,-112.34C517.27,-103.72 505.95,-89.82 499,-76 491.58,-61.23 486.57,-43.07 483.57,-29.71"/>
<polygon fill="midnightblue" stroke="midnightblue" points="486.98,-28.87 481.52,-19.79 480.12,-30.29 486.98,-28.87"/>
</g>
<!-- Node9 -->
<g id="node9" class="node">
<title>Node9</title>
<g id="a_node9"><a xlink:title=" ">
<polygon fill="white" stroke="#bfbfbf" points="508,-56.5 508,-75.5 558,-75.5 558,-56.5 508,-56.5"/>
<text text-anchor="middle" x="533" y="-63.5" font-family="Helvetica,sans-Serif" font-size="10.00">cstring</text>
</a>
</g>
</g>
<!-- Node3&#45;&gt;Node9 -->
<g id="edge8" class="edge">
<title>Node3&#45;&gt;Node9</title>
<path fill="none" stroke="midnightblue" d="M533,-112.08C533,-105.01 533,-94.86 533,-85.99"/>
<polygon fill="midnightblue" stroke="midnightblue" points="536.5,-85.75 533,-75.75 529.5,-85.75 536.5,-85.75"/>
</g>
<!-- Node10 -->
<g id="node10" class="node">
<title>Node10</title>
<g id="a_node10"><a xlink:title=" ">
<polygon fill="white" stroke="#bfbfbf" points="658.5,-56.5 658.5,-75.5 705.5,-75.5 705.5,-56.5 658.5,-56.5"/>
<text text-anchor="middle" x="682" y="-63.5" font-family="Helvetica,sans-Serif" font-size="10.00">vector</text>
</a>
</g>
</g>
<!-- Node3&#45;&gt;Node10 -->
<g id="edge10" class="edge">
<title>Node3&#45;&gt;Node10</title>
<path fill="none" stroke="midnightblue" d="M556.61,-112.44C581.46,-103.44 620.77,-89.19 648.75,-79.05"/>
<polygon fill="midnightblue" stroke="midnightblue" points="650.29,-82.21 658.5,-75.52 647.91,-75.63 650.29,-82.21"/>
</g>
<!-- Node11 -->
<g id="node11" class="node">
<title>Node11</title>
<g id="a_node11"><a xlink:title=" ">
<polygon fill="white" stroke="#bfbfbf" points="576,-56.5 576,-75.5 640,-75.5 640,-56.5 576,-56.5"/>
<text text-anchor="middle" x="608" y="-63.5" font-family="Helvetica,sans-Serif" font-size="10.00">algorithm</text>
</a>
</g>
</g>
<!-- Node3&#45;&gt;Node11 -->
<g id="edge11" class="edge">
<title>Node3&#45;&gt;Node11</title>
<path fill="none" stroke="midnightblue" d="M545.05,-112.32C556.46,-104.11 573.83,-91.6 587.43,-81.81"/>
<polygon fill="midnightblue" stroke="midnightblue" points="589.66,-84.52 595.73,-75.83 585.57,-78.84 589.66,-84.52"/>
</g>
<!-- Node12 -->
<g id="node12" class="node">
<title>Node12</title>
<g id="a_node12"><a xlink:title=" ">
<polygon fill="white" stroke="#bfbfbf" points="0,-56.5 0,-75.5 60,-75.5 60,-56.5 0,-56.5"/>
<text text-anchor="middle" x="30" y="-63.5" font-family="Helvetica,sans-Serif" font-size="10.00">iostream</text>
</a>
</g>
</g>
<!-- Node3&#45;&gt;Node12 -->
<g id="edge12" class="edge">
<title>Node3&#45;&gt;Node12</title>
<path fill="none" stroke="midnightblue" d="M470.19,-113.03C467.08,-112.67 464.01,-112.33 461,-112 290.29,-93.5 243.47,-103.35 70.12,-75.98"/>
<polygon fill="midnightblue" stroke="midnightblue" points="70.58,-72.5 60.15,-74.38 69.48,-79.42 70.58,-72.5"/>
</g>
<!-- Node13 -->
<g id="node13" class="node">
<title>Node13</title>
<g id="a_node13"><a xlink:title=" ">
<polygon fill="white" stroke="#bfbfbf" points="78.5,-56.5 78.5,-75.5 107.5,-75.5 107.5,-56.5 78.5,-56.5"/>
<text text-anchor="middle" x="93" y="-63.5" font-family="Helvetica,sans-Serif" font-size="10.00">bit</text>
</a>
</g>
</g>
<!-- Node3&#45;&gt;Node13 -->
<g id="edge13" class="edge">
<title>Node3&#45;&gt;Node13</title>
<path fill="none" stroke="midnightblue" d="M470.18,-113.07C467.08,-112.7 464,-112.34 461,-112 311.56,-94.84 268.46,-110.57 117.63,-75.51"/>
<polygon fill="midnightblue" stroke="midnightblue" points="118.08,-72.02 107.54,-73.13 116.47,-78.83 118.08,-72.02"/>
</g>
<!-- Node5 -->
<g id="node5" class="node">
<title>Node5</title>
<g id="a_node5"><a xlink:title=" ">
<polygon fill="white" stroke="#bfbfbf" points="178.5,-0.5 178.5,-19.5 243.5,-19.5 243.5,-0.5 178.5,-0.5"/>
<text text-anchor="middle" x="211" y="-7.5" font-family="Helvetica,sans-Serif" font-size="10.00">stdexcept</text>
</a>
</g>
</g>
<!-- Node4&#45;&gt;Node5 -->
<g id="edge4" class="edge">
<title>Node4&#45;&gt;Node5</title>
<path fill="none" stroke="midnightblue" d="M211,-56.08C211,-49.01 211,-38.86 211,-29.99"/>
<polygon fill="midnightblue" stroke="midnightblue" points="214.5,-29.75 211,-19.75 207.5,-29.75 214.5,-29.75"/>
</g>
<!-- Node7 -->
<g id="node7" class="node">
<title>Node7</title>
<g id="a_node7"><a xlink:title=" ">
<polygon fill="white" stroke="#bfbfbf" points="358,-0.5 358,-19.5 408,-19.5 408,-0.5 358,-0.5"/>
<text text-anchor="middle" x="383" y="-7.5" font-family="Helvetica,sans-Serif" font-size="10.00">climits</text>
</a>
</g>
</g>
<!-- Node6&#45;&gt;Node7 -->
<g id="edge6" class="edge">
<title>Node6&#45;&gt;Node7</title>
<path fill="none" stroke="midnightblue" d="M383,-56.08C383,-49.01 383,-38.86 383,-29.99"/>
<polygon fill="midnightblue" stroke="midnightblue" points="386.5,-29.75 383,-19.75 379.5,-29.75 386.5,-29.75"/>
</g>
<!-- Node6&#45;&gt;Node8 -->
<g id="edge7" class="edge">
<title>Node6&#45;&gt;Node8</title>
<path fill="none" stroke="midnightblue" d="M398.58,-56.32C414,-47.74 437.81,-34.49 455.71,-24.52"/>
<polygon fill="midnightblue" stroke="midnightblue" points="457.42,-27.58 464.45,-19.65 454.01,-21.46 457.42,-27.58"/>
</g>
<!-- Node14&#45;&gt;Node2 -->
<g id="edge15" class="edge">
<title>Node14&#45;&gt;Node2</title>
<path fill="none" stroke="midnightblue" d="M604.58,-168.5C570.45,-160.21 517.12,-147.04 462.22,-132.26"/>
<polygon fill="midnightblue" stroke="midnightblue" points="462.89,-128.82 452.32,-129.59 461.06,-135.58 462.89,-128.82"/>
</g>
<!-- Node14&#45;&gt;Node3 -->
<g id="edge18" class="edge">
<title>Node14&#45;&gt;Node3</title>
<path fill="none" stroke="midnightblue" d="M622.81,-168.32C605.65,-159.66 579.05,-146.24 559.25,-136.25"/>
<polygon fill="midnightblue" stroke="midnightblue" points="560.65,-133.04 550.15,-131.65 557.5,-139.28 560.65,-133.04"/>
</g>
<!-- Node14&#45;&gt;Node10 -->
<g id="edge16" class="edge">
<title>Node14&#45;&gt;Node10</title>
<path fill="none" stroke="midnightblue" d="M641.96,-168.41C644.96,-155.81 651.18,-131.67 659,-112 662.69,-102.73 667.64,-92.81 672,-84.65"/>
<polygon fill="midnightblue" stroke="midnightblue" points="675.16,-86.18 676.91,-75.74 669.02,-82.81 675.16,-86.18"/>
</g>
<!-- Node15 -->
<g id="node15" class="node">
<title>Node15</title>
<g id="a_node15"><a xlink:title=" ">
<polygon fill="white" stroke="#bfbfbf" points="668.5,-112.5 668.5,-131.5 733.5,-131.5 733.5,-112.5 668.5,-112.5"/>
<text text-anchor="middle" x="701" y="-119.5" font-family="Helvetica,sans-Serif" font-size="10.00">functional</text>
</a>
</g>
</g>
<!-- Node14&#45;&gt;Node15 -->
<g id="edge17" class="edge">
<title>Node14&#45;&gt;Node15</title>
<path fill="none" stroke="midnightblue" d="M649.8,-168.32C658.82,-160.34 672.41,-148.31 683.32,-138.65"/>
<polygon fill="midnightblue" stroke="midnightblue" points="685.85,-141.08 691.02,-131.83 681.21,-135.84 685.85,-141.08"/>
</g>
<!-- Node16 -->
<g id="node16" class="node">
<title>Node16</title>
<g id="a_node16"><a xlink:href="TSQueue_8hpp.html" target="_top" xlink:title=" ">
<polygon fill="white" stroke="black" points="753,-112.5 753,-131.5 875,-131.5 875,-112.5 753,-112.5"/>
<text text-anchor="middle" x="814" y="-119.5" font-family="Helvetica,sans-Serif" font-size="10.00">Utilities/TSQueue.hpp</text>
</a>
</g>
</g>
<!-- Node14&#45;&gt;Node16 -->
<g id="edge19" class="edge">
<title>Node14&#45;&gt;Node16</title>
<path fill="none" stroke="midnightblue" d="M667.57,-168.44C697.1,-159.28 744.12,-144.69 776.88,-134.52"/>
<polygon fill="midnightblue" stroke="midnightblue" points="778.04,-137.82 786.56,-131.52 775.97,-131.14 778.04,-137.82"/>
</g>
<!-- Node17 -->
<g id="node17" class="node">
<title>Node17</title>
<g id="a_node17"><a xlink:title=" ">
<polygon fill="white" stroke="#bfbfbf" points="857,-56.5 857,-75.5 905,-75.5 905,-56.5 857,-56.5"/>
<text text-anchor="middle" x="881" y="-63.5" font-family="Helvetica,sans-Serif" font-size="10.00">mutex</text>
</a>
</g>
</g>
<!-- Node16&#45;&gt;Node17 -->
<g id="edge20" class="edge">
<title>Node16&#45;&gt;Node17</title>
<path fill="none" stroke="midnightblue" d="M824.76,-112.32C834.77,-104.26 849.89,-92.08 861.93,-82.37"/>
<polygon fill="midnightblue" stroke="midnightblue" points="864.45,-84.83 870.04,-75.83 860.06,-79.38 864.45,-84.83"/>
</g>
<!-- Node18 -->
<g id="node18" class="node">
<title>Node18</title>
<g id="a_node18"><a xlink:title=" ">
<polygon fill="white" stroke="#bfbfbf" points="923.5,-56.5 923.5,-75.5 1030.5,-75.5 1030.5,-56.5 923.5,-56.5"/>
<text text-anchor="middle" x="977" y="-63.5" font-family="Helvetica,sans-Serif" font-size="10.00">condition_variable</text>
</a>
</g>
</g>
<!-- Node16&#45;&gt;Node18 -->
<g id="edge21" class="edge">
<title>Node16&#45;&gt;Node18</title>
<path fill="none" stroke="midnightblue" d="M839.83,-112.44C867.25,-103.36 910.78,-88.94 941.43,-78.78"/>
<polygon fill="midnightblue" stroke="midnightblue" points="942.9,-81.98 951.29,-75.52 940.7,-75.34 942.9,-81.98"/>
</g>
<!-- Node19 -->
<g id="node19" class="node">
<title>Node19</title>
<g id="a_node19"><a xlink:title=" ">
<polygon fill="white" stroke="#bfbfbf" points="723.5,-56.5 723.5,-75.5 770.5,-75.5 770.5,-56.5 723.5,-56.5"/>
<text text-anchor="middle" x="747" y="-63.5" font-family="Helvetica,sans-Serif" font-size="10.00">deque</text>
</a>
</g>
</g>
<!-- Node16&#45;&gt;Node19 -->
<g id="edge22" class="edge">
<title>Node16&#45;&gt;Node19</title>
<path fill="none" stroke="midnightblue" d="M803.24,-112.32C793.23,-104.26 778.11,-92.08 766.07,-82.37"/>
<polygon fill="midnightblue" stroke="midnightblue" points="767.94,-79.38 757.96,-75.83 763.55,-84.83 767.94,-79.38"/>
</g>
<!-- Node20 -->
<g id="node20" class="node">
<title>Node20</title>
<g id="a_node20"><a xlink:title=" ">
<polygon fill="white" stroke="#bfbfbf" points="789,-56.5 789,-75.5 839,-75.5 839,-56.5 789,-56.5"/>
<text text-anchor="middle" x="814" y="-63.5" font-family="Helvetica,sans-Serif" font-size="10.00">chrono</text>
</a>
</g>
</g>
<!-- Node16&#45;&gt;Node20 -->
<g id="edge23" class="edge">
<title>Node16&#45;&gt;Node20</title>
<path fill="none" stroke="midnightblue" d="M814,-112.08C814,-105.01 814,-94.86 814,-85.99"/>
<polygon fill="midnightblue" stroke="midnightblue" points="817.5,-85.75 814,-75.75 810.5,-85.75 817.5,-85.75"/>
</g>
<!-- Node21&#45;&gt;Node8 -->
<g id="edge25" class="edge">
<title>Node21&#45;&gt;Node8</title>
<path fill="none" stroke="midnightblue" d="M949.27,-168.43C989.37,-148.54 1078.54,-97.76 1040,-56 1004.4,-17.42 632.66,-11.9 515.3,-11.13"/>
<polygon fill="midnightblue" stroke="midnightblue" points="515.09,-7.62 505.07,-11.07 515.05,-14.62 515.09,-7.62"/>
</g>
</g>
</svg>
